<svg xmlns="http://www.w3.org/2000/svg" width="210mm" height="297mm" viewBox="0 0 744.09448819 1052.3622047"><g fill="none" stroke="#000" stroke-width=".78"><path d="M166.323 414.854c-.738-2.953-1.617-5.873-2.214-8.857-1.476-7.38 2.214 2.214-2.214-2.214-.739-.739.738-3.69 0-4.428-.522-.522-1.692.522-2.214 0-1.107-1.107 1.107-5.536 0-6.643-.522-.522-1.692.522-2.214 0-1.107-1.107 1.107-5.535 0-6.642-2.952-2.952-2.214 3.69-2.214-2.214v-4.428c0 5.066.466 8.51-2.215-2.215-.227-.909.269-4.16 0-4.428-.521-.522-1.692.522-2.214 0-1.043-1.043 1.044-3.384 0-4.428-.522-.522-1.476 0-2.214 0h-11.07c-.738 0-2.215.738-2.215 0s2.215.738 2.215 0c0-4.607-3.105-.891-4.429-2.214-.522-.522.522-1.692 0-2.214-5.904 0 .738.738-2.214-2.214-.522-.522-1.692.521-2.214 0-1.044-1.044 1.044-3.385 0-4.429-.522-.521-1.692.522-2.214 0-.738-.737.738-3.69 0-4.428-.522-.522-1.476 0-2.214 0 0-.738.522-1.692 0-2.214s-1.692.522-2.214 0c-1.044-1.044 1.043-3.385 0-4.428-.522-.522-1.693.522-2.214 0-.522-.522.521-1.692 0-2.214-.522-.522-1.693.522-2.215 0-.521-.522.522-1.693 0-2.214-.521-.522-1.692.521-2.214 0-.522-.522.33-1.555 0-2.215-.466-.933-1.747-1.28-2.214-2.214-.33-.66.522-1.692 0-2.214s-1.692.522-2.214 0 .522-1.692 0-2.214-1.692.522-2.214 0 .33-1.554 0-2.214c-.467-.934-1.747-1.28-2.214-2.214-.33-.66.522-1.692 0-2.214s-1.692.522-2.214 0 .522-1.693 0-2.214c-.522-.522-1.693.521-2.214 0-.522-.522.521-1.693 0-2.215-.522-.521-1.693.522-2.214 0-1.044-1.043 1.043-3.384 0-4.428-.522-.522-1.693.522-2.215 0-1.043-1.044.66-3.108 0-4.428-.466-.934-1.747-1.28-2.214-2.214-.66-1.32 1.044-3.385 0-4.428-.522-.522-1.692.521-2.214 0-1.107-1.108 1.107-5.536 0-6.643-.522-.522-1.692.522-2.214 0s.33-1.554 0-2.214c-7.343-7.343 1.044 2.088-2.214-4.428-.467-.934-1.747-1.28-2.214-2.214-.33-.66 0-1.476 0-2.214-.738-.738-1.748-1.281-2.214-2.215-.33-.66.33-1.554 0-2.214-.467-.933-1.748-1.28-2.214-2.214-.33-.66.521-1.692 0-2.214-.522-.522-1.693.522-2.215 0-.737-.738.738-3.69 0-4.428-.522-.522-1.692.522-2.214 0-.738-.739.739-3.69 0-4.428-.522-.522-1.692.521-2.214 0-.738-.738.738-3.69 0-4.429-.522-.522-1.692.522-2.214 0s.522-1.692 0-2.214-1.692-.522-2.214 0 0 1.476 0 2.214h15.499-4.428 11.07c.738 0 1.692.522 2.214 0s-.522-1.692 0-2.214 1.476 0 2.214 0h4.429c-12.015 0 .99-2.214 4.428-2.214.537 0 6.571.071 6.642 0 .522-.522-.522-1.692 0-2.214s1.692.522 2.214 0-.33-1.554 0-2.214c.467-.934 1.748-1.28 2.214-2.214.33-.66-.521-1.693 0-2.214.522-.522 1.693.521 2.215 0 .521-.522-.522-1.693 0-2.215.521-.521 1.692.522 2.214 0 .522-.521-.522-1.692 0-2.214s1.692.522 2.214 0-.522-1.692 0-2.214 1.554.33 2.214 0c.933-.467 1.28-1.747 2.214-2.214.66-.33 1.692.522 2.214 0s-.522-1.692 0-2.214 1.692.522 2.214 0-.522-1.692 0-2.214 1.693.522 2.214 0c.522-.522-.521-1.692 0-2.214.522-.522 1.693.522 2.215 0 .521-.522-.522-1.693 0-2.214.521-.522 1.692.521 2.214 0 .522-.522-.33-1.554 0-2.215.466-.933 1.747-1.28 2.214-2.214.33-.66.522-2.736 0-2.214-1.167 1.167-3.865 4.428-2.214 4.428 12.167 0 1.876-4.09 4.428-6.642.522-.522 1.692.522 2.214 0s-.522-1.692 0-2.214c1.044-1.044 3.385 1.044 4.428 0 .522-.522 0-1.476 0-2.214.738 0 1.554.33 2.214 0 .934-.467 1.281-1.748 2.215-2.214.66-.33 1.692.522 2.214 0s-.522-1.693 0-2.214c1.043-1.044 3.108.66 4.428 0 .933-.467 1.28-1.748 2.214-2.215 1.32-.66 3.385 1.044 4.428 0 .522-.521-.522-1.692 0-2.214 1.044-1.043 3.385 1.044 4.429 0 .521-.521-.522-1.692 0-2.214.521-.522 1.476 0 2.214 0h2.214c.738 0 2.214-.738 2.214 0s-2.952 0-2.214 0h6.642c.738 0 2.214.738 2.214 0 0-1.043-1.476-1.476-2.214-2.214l8.857 4.428c0 .738-.522 1.693 0 2.214.522.522 1.692-.521 2.214 0 .522.522-.522 1.693 0 2.215 1.044 1.043 3.384-1.044 4.428 0 .522.521-.522 1.692 0 2.214 1.044 1.043 3.385-1.044 4.428 0 .522.522-.522 1.692 0 2.214 1.044 1.044 3.385-1.044 4.429 0 .521.522-.522 1.692 0 2.214 1.107 1.107 5.535-1.107 6.642 0 .522.522-.522 1.692 0 2.214.533.533 8.324-.533 8.856 0 .522.522-.521 1.692 0 2.214.522.522 1.476 0 2.215 0 1.043 0 10.97-.1 11.07 0 .522.522-.522 1.692 0 2.214 1.044 1.044 3.385-1.043 4.428 0 .522.522-.521 1.693 0 2.214 1.044 1.044 3.385-1.043 4.429 0 .522.522-.522 1.693 0 2.215 5.904 0-.738-.738 2.214 2.214 1.043 1.043 3.384-1.044 4.428 0 .522.522-.522 1.692 0 2.214 1.044 1.044 4.428-1.476 4.428 0 0 .738-2.214-.738-2.214 0 0 4.607 3.105.89 4.428 2.214.522.522.738 2.214 0 2.214s-.738-2.214 0-2.214c1.044 0 1.17 2.214 2.214 2.214.739 0-.521-1.692 0-2.214.74-.739 3.69.739 4.429 0 .522-.522-.522-1.692 0-2.214s2.214-.738 2.214 0-2.952 0-2.214 0c1.476 0 3.108.66 4.428 0 .66-.33-.522-1.692 0-2.214s1.476 0 2.214 0 1.692-.522 2.214 0-.33 1.554 0 2.214c4.608 9.215-.153-2.367 4.428 2.214.522.522-.521 1.692 0 2.214.522.522 1.693-.522 2.215 0 .521.522-.522 1.692 0 2.214.521.522 1.554-.33 2.214 0 .933.467 1.28 1.748 2.214 2.214.66.33 1.692-.522 2.214 0s-.522 1.693 0 2.214c1.044 1.044 3.384-1.043 4.428 0 2.952 2.953-3.69 2.215 2.214 2.215.813 0 8.768-.09 8.857 0 .522.521.738 2.214 0 2.214s-.738-2.214 0-2.214c1.044 0 2.214 1.17 2.214 2.214 0 .738-1.476 0-2.214 0-1.132-13.365 8.41.447 11.07-2.214.522-.522-.521-1.693 0-2.215 1.107-1.107 5.536 1.107 6.643 0 .522-.521-.522-1.692 0-2.214 1.044-1.043 3.108.66 4.428 0 .934-.466 1.28-1.747 2.214-2.214.878-.439 6.19.453 6.643 0 .521-.522-.522-1.692 0-2.214 1.107-1.107 5.535 1.107 6.642 0 .522-.522-.522-1.692 0-2.214s1.554.33 2.214 0c.934-.467 1.28-1.747 2.214-2.214.66-.33 1.692.522 2.214 0s-.522-1.692 0-2.214 1.554.33 2.214 0c.934-.467 1.281-1.748 2.215-2.214.66-.33 1.692.521 2.214 0 .522-.522-.522-1.693 0-2.215.522-.521 2.214-.738 2.214 0 0 .739-1.476 0-2.214 0"/><path d="M354.524 233.295c15.656 2.057-3.132-10.153 0-13.284.522-.522 1.692.522 2.214 0 1.044-1.044-1.044-3.385 0-4.429.522-.521 1.692.522 2.214 0 1.044-1.043-1.044-3.384 0-4.428.522-.522 1.692.522 2.214 0s-.522-1.692 0-2.214 1.692.522 2.214 0-.33-1.554 0-2.214c.467-.934 1.747-1.28 2.214-2.214.33-.66-.738-2.214 0-2.214s-.738 2.214 0 2.214c7.809 0-3.378-4.428 4.429-4.428 5.192 0-1.044-.522 4.428 2.214.66.33 1.692-.522 2.214 0s-.522 1.692 0 2.214c1.044 1.044 3.384-1.044 4.428 0 .522.522-.522 1.692 0 2.214s1.476 0 2.214 0c0 .738-.522 1.692 0 2.214 1.044 1.044 3.385-1.044 4.429 0 .521.522-.522 1.692 0 2.214 1.107 1.107 5.535-1.107 6.642 0 .522.522-.522 1.693 0 2.214 1.044 1.044 3.384-1.043 4.428 0 .522.522-.522 1.693 0 2.214 1.044 1.044 3.385-1.043 4.428 0 .522.522-.521 1.693 0 2.215 1.044 1.043 3.385-1.044 4.429 0 .521.521-.522 1.692 0 2.214 1.043 1.043 3.384-1.044 4.428 0 .522.522-.522 1.692 0 2.214 1.044 1.044 3.108-.66 4.428 0 .934.467 1.28 1.747 2.214 2.214 1.32.66 3.385-1.044 4.428 0 .522.522-.521 1.692 0 2.214.53.53 8.857-.503 8.857 0 0 .738-2.952 0-2.214 0h4.428c.738 0 2.214-.738 2.214 0s-2.952 0-2.214 0h4.428c.738 0 1.693.522 2.214 0 .522-.522-.521-1.692 0-2.214.522-.522 1.693.522 2.215 0 1.043-1.044-.66-3.108 0-4.428.466-.934 1.747-1.28 2.214-2.214.33-.66-.522-1.693 0-2.215.522-.521 1.692.522 2.214 0 .522-.521-.522-1.692 0-2.214.522-.521 1.692.522 2.214 0 .522-.521-.522-1.692 0-2.214s1.692.522 2.214 0-.522-1.692 0-2.214 1.692.522 2.214 0-.522-1.692 0-2.214c5.905 0-.738.738 2.214-2.214.522-.522 1.693.522 2.214 0 .522-.522-.521-1.692 0-2.214.522-.522 1.477 0 2.215 0h13.284c.738 0 2.214-.738 2.214 0s-2.952 0-2.214 0h4.429c.738 0 1.692.522 2.214 0s-.522-1.692 0-2.214c1.043-1.044 3.384 1.043 4.428 0 .522-.522-.522-1.693 0-2.214.522-.522 2.214-.739 2.214 0 0 .738-2.952 0-2.214 0 12.547 0 .738 1.476 4.428-2.215 1.044-1.043 3.385 1.044 4.428 0 .522-.521-.521-1.692 0-2.214 1.044-1.043 3.385 1.044 4.429 0 .522-.522-.522-1.692 0-2.214s1.554.33 2.214 0c.933-.467 1.28-1.747 2.214-2.214.66-.33 1.692.522 2.214 0s-.522-1.692 0-2.214 1.692.522 2.214 0-.522-1.692 0-2.214 1.692.522 2.214 0c.738-.738-.737-3.69 0-4.428.522-.522 1.693.521 2.214 0 1.107-1.108-1.107-5.536 0-6.643 1.731-1.73 3.852 1.926 4.429 2.214 1.32.66 3.384-1.043 4.428 0 .522.522-.522 1.693 0 2.214.522.522 1.692-.521 2.214 0 .522.522-.522 1.693 0 2.215.738.738 3.69-.739 4.428 0 .522.521-.522 1.692 0 2.214s1.693-.522 2.214 0c.522.522-.521 1.692 0 2.214.522.522 1.693-.522 2.215 0 .521.522-.522 1.692 0 2.214.521.522 1.692-.522 2.214 0s-.522 1.692 0 2.214 1.692-.522 2.214 0-.522 1.692 0 2.214 1.692-.522 2.214 0 .738 2.214 0 2.214 0-2.952 0-2.214v55.353c0 .738.738 2.214 0 2.214s0-2.952 0-2.214v4.428c0 .739-.33 1.554 0 2.215 4.607 9.214-.153-2.367 4.428 2.214.522.522-.522 1.692 0 2.214s1.554-.33 2.214 0c.934.467 1.28 1.747 2.214 2.214.66.33 1.693-.522 2.215 0 .521.522-.522 1.692 0 2.214.521.522 1.692-.522 2.214 0 .521.522-.33 1.554 0 2.214.466.934 1.747 1.28 2.214 2.214.33.66-.522 1.693 0 2.214.522.522 1.692-.521 2.214 0 .522.522-.522 1.693 0 2.215.522.521 1.692-.522 2.214 0 1.044 1.043-1.044 3.384 0 4.428.522.522 2.214-.738 2.214 0s-2.214-.738-2.214 0c0 1.044 1.747 1.28 2.214 2.214.33.66-.522 1.692 0 2.214s1.692-.522 2.214 0 0 1.476 0 2.214.738 2.214 0 2.214 0-2.952 0-2.214v26.57c0 .738.522 1.692 0 2.214s-1.692-.522-2.214 0 0 1.476 0 2.214v17.713c0 .738-.522 1.692 0 2.214s1.692-.522 2.214 0c.071.071 0 6.105 0 6.642v30.998c0 .738-.522 1.692 0 2.214s1.693-.522 2.214 0c.739.739-.738 3.69 0 4.428.522.522 1.476 0 2.214 0 0 .739-.521 1.693 0 2.215.522.521 1.693-.522 2.215 0 .521.521-.33 1.554 0 2.214.466.933 1.747 1.28 2.214 2.214.33.66-.522 1.692 0 2.214s1.692-.522 2.214 0-.522 1.692 0 2.214 1.692-.522 2.214 0c1.044 1.044-1.044 3.385 0 4.428.522.522 1.692-.522 2.214 0s-.522 1.693 0 2.214c.522.522 1.692-.521 2.214 0 .522.522-.522 1.693 0 2.215.522.521 1.692-.522 2.214 0 .522.521-.33 1.554 0 2.214.467.933 1.748 1.28 2.214 2.214.33.66-.521 1.692 0 2.214.522.522 1.693-.522 2.215 0 .521.522-.522 1.692 0 2.214 1.043 1.044 3.384-1.044 4.428 0 4.58 4.581-7-.179 2.214 4.428 5.904 0-.738-.738 2.214 2.214.522.522 1.692-.521 2.214 0 .522.522-.522 1.693 0 2.215.522.521 1.692-.522 2.214 0 .522.521-.522 1.692 0 2.214s1.693-.522 2.214 0c.522.522-.521 1.692 0 2.214.522.522 1.477 0 2.215 0h4.428-4.428c2.214 0 4.541-.7 6.642 0 .7.233-.522 1.692 0 2.214.09.09 8.043 0 8.856 0 1.044 0 10.97-.1 11.071 0 .522.522-.522 1.692 0 2.214.453.453 5.765-.439 6.642 0 .934.467 1.281 1.747 2.215 2.214.877.44 6.19-.452 6.642 0 .522.522-.522 1.692 0 2.214 1.044 1.044 3.384-1.043 4.428 0 .522.522-.522 1.693 0 2.214.738.739 3.69-.738 4.428 0 .522.522-.521 1.693 0 2.215 1.044 1.043 3.385-1.044 4.429 0 .522.521-.522 1.692 0 2.214.738.738 3.69-.739 4.428 0 .522.522-.522 1.692 0 2.214s1.692-.522 2.214 0-.522 1.692 0 2.214 1.554-.33 2.214 0c7.343 7.343-2.087-1.044 4.428 2.214.934.467 1.28 1.747 2.215 2.214 1.32.66 3.384-1.044 4.428 0 .522.522-.522 1.692 0 2.214 1.044 1.044 3.384-1.043 4.428 0 .522.522-.522 1.693 0 2.214 1.044 1.044 3.385-1.043 4.428 0 .522.522-.522 1.693 0 2.215.522.521 1.476 0 2.214 0 0 .738-.521 1.692 0 2.214 1.044 1.043 3.385-1.044 4.429 0 .521.522-.522 1.692 0 2.214 1.043 1.044 3.384-1.044 4.428 0 .522.522-.522 1.692 0 2.214 1.044 1.044 3.108-.66 4.428 0 3.073 1.537 2.214 3.94 2.214 6.642 0 .738-.522 1.693 0 2.214.522.522 1.693-.521 2.214 0 .522.522 0 1.476 0 2.215 0 .738.738 2.214 0 2.214s0-2.953 0-2.214v4.428c0 .738.738 2.214 0 2.214s.738-2.214 0-2.214c-4.607 0-.89 3.105-2.214 4.428-.522.522-1.692-.522-2.214 0s.522 1.692 0 2.214c-1.044 1.044-3.384-1.044-4.428 0-.522.522.522 1.692 0 2.214s-1.692-.522-2.214 0 .522 1.693 0 2.214c-.522.522-1.693-.521-2.214 0-.522.522.521 1.693 0 2.215-.522.521-1.693-.522-2.214 0-.522.521.521 1.692 0 2.214-.522.522-1.693-.522-2.215 0-.521.522.522 1.692 0 2.214-.521.522-1.692-.522-2.214 0s.522 1.692 0 2.214c-.739.739-3.69-.74-4.428 0-.522.522.522 1.692 0 2.214-1.044 1.044-3.384-1.044-4.428 0-.522.522.522 1.692 0 2.214s-1.692-.522-2.214 0 .522 1.692 0 2.214-1.693-.522-2.214 0c-.522.522.521 1.693 0 2.214-.522.522-1.555-.33-2.215 0-.933.467-1.28 1.748-2.214 2.215-.8.4-9.53 0-11.07 0h-26.57c-.738 0-2.214.738-2.214 0 0-.739 2.952 0 2.214 0h-4.428c-.738 0-2.214.738-2.214 0 0-.739 2.214-.739 2.214 0 0 1.043-1.28 1.747-2.214 2.214-.66.33-1.692-.522-2.214 0-.522.521-.738 2.214 0 2.214 1.043 0 2.214-3.258 2.214-2.214 0 1.65-1.692 2.862-2.214 4.428-.467 1.4 0 2.952 0 4.428v11.07c0 .739.738 2.215 0 2.215-3.137 0 6.273-10.333 0 2.214-.33.66-1.693-.522-2.214 0-.522.522 0 1.476 0 2.214 0 .997-.337 5.969 0 6.642.466.934 1.747 1.281 2.214 2.215.672 1.344-.673 11.94 0 13.284.466.934 1.747 1.28 2.214 2.214.33.66 0 1.477 0 2.215v13.284c0 .738.522 1.693 0 2.214-.522.522-1.692-.521-2.214 0-.522.522.522 1.693 0 2.215-.522.521-1.693-.522-2.214 0-1.044 1.043.66 3.108 0 4.428-.467.933-1.748 1.28-2.215 2.214-.66 1.32 1.044 3.384 0 4.428-.521.522-1.692-.522-2.214 0-1.107 1.107 1.107 5.535 0 6.643-.522.521-1.692-.522-2.214 0-1.044 1.043.66 3.108 0 4.428-.467.933-1.747 1.28-2.214 2.214-.33.66.522 1.692 0 2.214s-1.692-.522-2.214 0 .522 1.692 0 2.214-1.692-.522-2.214 0 .522 1.692 0 2.214-1.554-.33-2.214 0c-1.867.934-2.561 3.495-4.429 4.429-.66.33-1.692-.522-2.214 0-.522.521.522 1.692 0 2.214s-1.692-.522-2.214 0 .522 1.692 0 2.214c-1.107 1.107-5.535-1.107-6.642 0-.522.522.522 1.692 0 2.214-1.044 1.044-3.385-1.044-4.428 0-.522.522.521 1.692 0 2.214-1.044 1.044-3.385-1.044-4.429 0-.522.522.522 1.692 0 2.214s-1.692-.522-2.214 0 .522 1.692 0 2.214-1.692-.522-2.214 0 .522 1.693 0 2.214c-.522.522-1.692-.521-2.214 0-.522.522.522 1.693 0 2.215-1.044 1.043-3.385-1.044-4.428 0-.522.521.522 1.692 0 2.214s-1.693-.522-2.214 0c-.522.522.521 1.692 0 2.214-.522.522-1.693-.522-2.215 0-.521.522.522 1.692 0 2.214-.521.522-1.554-.33-2.214 0-.933.467-1.28 1.747-2.214 2.214-.66.33-1.692-.522-2.214 0s.522 1.692 0 2.214-1.692-.522-2.214 0 .522 1.692 0 2.214-1.692-.522-2.214 0 .522 1.693 0 2.214c-.522.522-1.692-.521-2.214 0-.522.522.522 1.693 0 2.215-.739.738-3.69-.739-4.428 0-.522.521.521 1.692 0 2.214-1.044 1.043-3.385-1.044-4.429 0-.522.521.522 1.692 0 2.214-.739.739-3.69-.74-4.428 0-.522.522.522 1.692 0 2.214s-1.476 0-2.214 0-2.214.738-2.214 0 2.214-.738 2.214 0c0 4.607-3.105.89-4.428 2.214-.522.522.522 1.692 0 2.214-1.044 1.044-3.385-1.044-4.429 0-.07.071 0 6.106 0 6.642v2.215c0-1.476-1.476-4.429 0-4.429 2.545 0 2.215 5.054 2.215 6.643 0 .738-.33 1.554 0 2.214.288.576 3.944 2.697 2.214 4.428-.522.522-1.693-.522-2.214 0-.522.522.521 1.692 0 2.214-.522.522-1.477 0-2.215 0 0 .738.522 1.692 0 2.214-.521.522-1.692-.522-2.214 0s.522 1.693 0 2.214c-1.043 1.044-3.384-1.043-4.428 0-.522.522.522 1.693 0 2.215-1.044 1.043-3.384-1.044-4.428 0-.522.521.522 1.692 0 2.214-1.044 1.043-3.385-1.044-4.428 0-.522.522.521 1.692 0 2.214-.522.522-1.693-.522-2.215 0-.521.522.522 1.692 0 2.214-.521.522-1.476 0-2.214 0 0 .738.522 1.692 0 2.214s-1.692-.522-2.214 0 .522 1.692 0 2.214-1.692-.522-2.214 0c-.739.739.739 3.69 0 4.428-.522.522-1.476 0-2.214 0 0 .739.522 1.693 0 2.215-.522.521-1.692-.522-2.214 0-1.044 1.043 1.044 3.384 0 4.428-.522.522-1.692-.522-2.214 0s0 1.476 0 2.214v28.784c0 .738.522 1.692 0 2.214s-1.693-.522-2.214 0c-4.582 4.58 7-.18-2.215 4.428-1.529.765-10.293-.777-11.07 0-.522.522.522 1.692 0 2.214-1.107 1.107-5.536-1.107-6.643 0-.521.522.522 1.692 0 2.214-1.043 1.044-3.108-.66-4.428 0-.933.467-1.28 1.748-2.214 2.214-1.32.66-3.108-.66-4.428 0-.934.467-1.28 1.748-2.214 2.214-1.201.601-8.251-.605-8.857 0-.522.522.522 1.693 0 2.215-.522.521-2.214.738-2.214 0s2.952 0 2.214 0c-1.476 0-3.108-.66-4.428 0-.66.33.738 2.214 0 2.214s-.738-2.214 0-2.214c1.044 0 1.28 1.747 2.214 2.214 1.201.6 8.25-.606 8.857 0 1.043 1.043-1.044 3.384 0 4.428.521.522 1.692-.522 2.214 0s-.522 1.692 0 2.214c1.043 1.044 3.384-1.044 4.428 0 .522.522-.522 1.692 0 2.214s1.692-.522 2.214 0c1.044 1.044-1.044 3.385 0 4.428.522.522 1.692-.521 2.214 0 .522.522-.522 1.693 0 2.215.522.521 1.692-.522 2.214 0 .222.221.222 6.42 0 6.642-.522.522-1.692-.522-2.214 0-1.044 1.044 1.044 3.384 0 4.428-.522.522-1.692-.522-2.214 0s.522 1.692 0 2.214c-1.107 1.107-5.535-1.107-6.642 0-.522.522.522 1.693 0 2.214-.522.522-1.693-.521-2.214 0-.522.522.521 1.693 0 2.215-.522.521-1.477 0-2.215 0 0 .738.522 1.692 0 2.214-1.043 1.043-3.384-1.044-4.428 0-.522.522.522 1.692 0 2.214-.738.738-3.69-.738-4.428 0-.522.522.522 1.692 0 2.214s-1.476 0-2.214 0h-2.214 4.428-11.071c1.476 0 5.472 1.044 4.429 0-2.743-2.743-7.56-2.214-11.071-2.214h-4.428c3.507 0 8.622.66 0-2.214-1.221-.407-8.383.473-8.857 0-.522-.522.522-1.693 0-2.214-1.044-1.044-3.108.66-4.428 0-.934-.467-1.28-1.748-2.214-2.215-1.32-.66-3.385 1.044-4.428 0-.522-.521.521-1.692 0-2.214-.522-.522-1.554.33-2.214 0-.934-.466-1.281-1.747-2.215-2.214-.66-.33-1.692.522-2.214 0s.522-1.692 0-2.214-1.692.522-2.214 0 .33-1.554 0-2.214c-.467-.934-1.747-1.28-2.214-2.214-.33-.66.522-1.692 0-2.214s-1.692.522-2.214 0c-1.044-1.044 1.044-3.385 0-4.429-.522-.521-1.692.522-2.214 0-.522-.521 0-1.476 0-2.214v-22.14c0-.738.522-1.692 0-2.214s-1.692.522-2.214 0 .522-1.692 0-2.214-1.693.522-2.214 0c-.522-.522.521-1.692 0-2.214-1.044-1.044-3.385 1.043-4.429 0-.522-.522.522-1.693 0-2.214-1.043-1.044-3.384 1.043-4.428 0-.522-.522.522-1.693 0-2.215-.522-.521-1.476 0-2.214 0h-4.428 4.428-8.857c-.738 0-1.692-.521-2.214 0-.522.522.522 1.693 0 2.215-.533.532-8.323-.533-8.856 0-.522.521.522 1.692 0 2.214-.09.089-8.044 0-8.857 0-.537 0-6.57-.071-6.642 0-.522.522.522 1.692 0 2.214-1.044 1.044-3.385-1.044-4.428 0-.522.522.522 1.692 0 2.214-1.107 1.107-5.536-1.107-6.643 0-.522.522.522 1.692 0 2.214-.685.686-10.385-.686-11.07 0-.522.522.522 1.692 0 2.214-1.107 1.107-5.536-1.107-6.643 0-.522.522.522 1.692 0 2.214-1.107 1.107-5.535-1.107-6.642 0-.522.522.522 1.693 0 2.214-1.107 1.107-5.535-1.107-6.642 0-.522.522.521 1.693 0 2.215-.522.521-1.693-.522-2.215 0-.521.521.522 1.692 0 2.214-.521.522-1.692-.522-2.214 0s.522 1.692 0 2.214-1.692-.522-2.214 0 .522 1.692 0 2.214-1.692-.522-2.214 0 .522 1.692 0 2.214-1.692-.522-2.214 0 0 1.476 0 2.214c-.738 0-1.554-.33-2.214 0-9.215 4.607 2.367-.153-2.214 4.428-.522.522-2.214.738-2.214 0s2.214-.738 2.214 0c0 .714-3.813 3.198-4.429 4.429-.66 1.32 1.044 3.384 0 4.428-.521.522-1.692-.522-2.214 0s.738 2.214 0 2.214c-3.136 0 6.274-10.333 0 2.214-.33.66-1.692-.522-2.214 0-.312.312-.227 6.188 0 6.643.467.933 1.748 1.28 2.214 2.214.33.66-.522 1.692 0 2.214s1.693-.522 2.214 0c.522.522-.521 1.692 0 2.214.522.522 1.693-.522 2.215 0 .521.522-.522 1.692 0 2.214.521.522 1.692-.522 2.214 0s-.522 1.692 0 2.214c1.107 1.107 5.535-1.107 6.642 0 .522.522-.522 1.692 0 2.214 1.044 1.044 3.385-1.043 4.428 0 .522.522-.522 1.693 0 2.214 1.044 1.044 3.108-.66 4.429 0 .933.467 1.28 1.748 2.214 2.214.66.33 1.692-.521 2.214 0 .522.522-.522 1.693 0 2.215.522.521 1.692-.522 2.214 0 .522.521-.522 1.692 0 2.214 1.044 1.043 3.384-1.044 4.428 0 .522.522-.522 1.692 0 2.214s1.692-.522 2.214 0-.522 1.692 0 2.214c1.044 1.044 3.385-1.044 4.429 0 .521.522-.522 1.692 0 2.214 5.904 0-.738-.738 2.214 2.214.522.522 1.692-.522 2.214 0s-.522 1.692 0 2.214c1.044 1.044 3.384-1.043 4.428 0 .522.522 0 1.476 0 2.214v2.215c-22.067 0-2.467-2.088-11.07 2.214-1.32.66-3.385-1.044-4.429 0-.522.522.522 1.692 0 2.214-1.107 1.107-5.535-1.107-6.642 0-.522.522.522 1.692 0 2.214-1.044 1.044-3.385-1.044-4.428 0-.522.522.521 1.692 0 2.214-.522.522-1.693-.522-2.215 0-.521.522.522 1.692 0 2.214-.521.522-1.692-.522-2.214 0s.522 1.692 0 2.214-1.692-.522-2.214 0 .522 1.693 0 2.214c-1.044 1.044-3.384-1.043-4.428 0-.522.522.522 1.693 0 2.215-1.107 1.107-5.535-1.107-6.642 0-.522.521.521 1.692 0 2.214-.522.522-1.476 0-2.215 0h-59.781c1.476 0 4.428 1.476 4.428 0 0-6.097-5.053-.626-6.642-2.214-.522-.522-.738-2.215 0-2.215s0 2.953 0 2.215v-6.643c0-.813.09-8.767 0-8.856-.522-.522-1.692.522-2.214 0s.522-1.693 0-2.214c-1.044-1.044-3.385 1.043-4.428 0-.522-.522.522-1.693 0-2.215-.522-.521-1.476 0-2.214 0h-2.215c-5.904 0 .738.739-2.214-2.214-.522-.522-1.476 0-2.214 0h-2.214c-.813 0-8.767.09-8.856 0-.522-.522.521-1.692 0-2.214-1.108-1.107-5.536 1.107-6.643 0-.522-.522.522-1.692 0-2.214-1.044-1.044-3.384 1.044-4.428 0-.522-.522.522-1.692 0-2.214-1.044-1.044-3.385 1.044-4.428 0-.522-.522.522-1.692 0-2.214s-1.693.522-2.214 0c-.522-.522.521-1.692 0-2.214-.739-.738-3.69.738-4.429 0-.522-.522.522-1.693 0-2.214-.522-.522-1.692.521-2.214 0-.522-.522.522-1.693 0-2.215-1.044-1.043-3.384 1.044-4.428 0-.522-.521 0-1.476 0-2.214 0-1.157-.291-8.274 0-8.856.467-.934 1.747-1.28 2.214-2.214.66-1.32-1.044-3.385 0-4.428.522-.522 1.692.521 2.214 0 .739-.739-.738-3.69 0-4.429.522-.522 1.692.522 2.214 0 .738-.737-.737-3.69 0-4.428.522-.522 1.693.522 2.214 0 1.044-1.044-1.043-3.384 0-4.428.522-.522 1.693.522 2.215 0 .738-.739-.739-3.69 0-4.428.521-.522 1.692.521 2.214 0 .522-.522 0-1.477 0-2.215 0-.537-.071-6.57 0-6.642.522-.522 1.476 0 2.214 0 2.577-17.327-8.26-1.618-11.07-4.428-.523-.522.521-1.692 0-2.214-.523-.522-1.555.33-2.215 0-1.867-.934-2.561-3.495-4.428-4.429-.66-.33-1.692.522-2.214 0-.522-.521.522-1.692 0-2.214s-1.693.522-2.214 0c-.522-.522.33-1.554 0-2.214-.467-.933-1.476-1.476-2.215-2.214-.738-.738-1.28-1.747-2.214-2.214-.66-.33-1.692.522-2.214 0s.522-1.692 0-2.214c-1.044-1.044-3.384 1.044-4.428 0-.522-.522.522-1.692 0-2.214s-1.476 0-2.214 0c0-.738.522-1.693 0-2.214-1.044-1.044-3.385 1.043-4.428 0-.522-.522.521-1.693 0-2.215-.522-.521-1.554.33-2.215 0-.933-.466-1.28-1.747-2.214-2.214-.66-.33-1.692.522-2.214 0s.522-1.692 0-2.214-1.554.33-2.214 0c-.933-.467-1.28-1.747-2.214-2.214-.66-.33-1.692.522-2.214 0s.522-1.692 0-2.214c-1.044-1.044-3.108.66-4.428 0-.934-.467-1.281-1.747-2.215-2.214-.66-.33-1.692.522-2.214 0-.07-.071 0-6.106 0-6.643V702.69c0-.738-.522-1.693 0-2.215.522-.521 1.693.522 2.214 0 .071-.07 0-6.105 0-6.642v-19.927c0-.738-.521-1.692 0-2.214.522-.522 1.693.522 2.215 0 .521-.522 0-1.476 0-2.214v-24.356c0-.738.521-1.692 0-2.214-.522-.522-1.693.522-2.215 0-.521-.522 0-1.476 0-2.214v-2.214 4.428c0-20.665 2.215-2.214-2.214-6.642-.522-.522.522-1.692 0-2.214s-1.692.522-2.214 0 .522-1.692 0-2.214-1.692.522-2.214 0 .522-1.693 0-2.214c-.522-.522-1.692.521-2.214 0-.522-.522.522-1.693 0-2.215-.522-.521-1.692.522-2.214 0-.522-.521.522-1.692 0-2.214s-1.692.522-2.214 0 0-1.476 0-2.214v-2.214c0-.738-.738-2.214 0-2.214s0 2.952 0 2.214v-6.642c0-.738-.522-1.693 0-2.214.522-.522 1.692.521 2.214 0 1.044-1.044-1.044-3.385 0-4.429.522-.522 1.692.522 2.214 0s-.33-1.554 0-2.214c.467-.933 1.747-1.28 2.214-2.214.33-.66-.522-1.692 0-2.214 5.904 0-.738.738 2.214-2.214.522-.522 1.692.522 2.214 0s-.522-1.692 0-2.214 1.554.33 2.214 0c9.215-4.608-2.367.153 2.215-4.429.521-.521 1.692.522 2.214 0 .522-.521-.522-1.692 0-2.214s1.692.522 2.214 0-.738-2.214 0-2.214 0 2.952 0 2.214c0-.875.473-10.125 0-11.07-.467-.934-1.748-1.28-2.214-2.214-.6-1.202.606-8.251 0-8.857-.522-.522-1.693.522-2.214 0-.071-.07 0-6.105 0-6.642 0-.738-.738-2.214 0-2.214s0 2.952 0 2.214c0-1.476-.66-3.108 0-4.429.33-.66 1.692.522 2.214 0 .522-.521-.522-1.692 0-2.214 5.904 0-.738.738 2.214-2.214.522-.522 1.692.522 2.214 0s-.522-1.692 0-2.214c.739-.739 3.69.739 4.428 0 .522-.522-.522-1.692 0-2.214s1.692.522 2.214 0-.522-1.692 0-2.214 1.693.522 2.214 0c.522-.522-.521-1.692 0-2.214.522-.522 1.693.522 2.215 0 .521-.522-.522-1.693 0-2.214 1.043-1.044 3.384 1.043 4.428 0 .522-.522-.522-1.693 0-2.215 1.044-1.043 3.384 1.044 4.428 0 .522-.521-.522-1.692 0-2.214 1.044-1.043 3.385 1.044 4.428 0 .522-.522-.522-1.692 0-2.214s1.554.33 2.214 0c.934-.467 1.281-1.747 2.215-2.214.66-.33 1.692.522 2.214 0s-.522-1.692 0-2.214 1.692.522 2.214 0-.522-1.692 0-2.214 1.692.522 2.214 0-.522-1.692 0-2.214 1.554.33 2.214 0c1.867-.934 2.561-3.495 4.428-4.429.66-.33 1.693.522 2.214 0 .522-.521-.521-1.692 0-2.214.522-.521 1.693.522 2.215 0 .521-.521-.522-1.692 0-2.214.521-.522 1.554.33 2.214 0 2.945-1.472 1.483-2.955 4.428-4.428.66-.33 1.692.522 2.214 0s-.522-1.692 0-2.214 1.692.522 2.214 0-.522-1.692 0-2.214 1.692.522 2.214 0-.522-1.693 0-2.214c.522-.522 1.693.521 2.214 0 .522-.522-.521-1.693 0-2.214.522-.522 1.693.521 2.215 0 .521-.522-.522-1.693 0-2.215 5.904 0-.738.738 2.214-2.214.522-.522 1.692.522 2.214 0 1.044-1.043-.66-3.108 0-4.428.467-.934 1.747-1.28 2.214-2.214.33-.66 0-1.476 0-2.214v-6.643c0-.738.522-1.692 0-2.214s-1.692.522-2.214 0 0-1.476 0-2.214v-11.07c0-.739.522-1.693 0-2.215-.522-.521-1.692.522-2.214 0-1.107-1.107 1.107-5.535 0-6.642-.522-.522-1.693.522-2.214 0-.522-.522 0-1.476 0-2.214 0-.813-.09-8.767 0-8.857.521-.521 1.692.522 2.214 0 .07-.07 0-6.105 0-6.642v-8.856c0-.738.522-1.693 0-2.215-.522-.521-1.693.522-2.214 0-.522-.521.521-1.692 0-2.214-.522-.522-1.693.522-2.215 0-.521-.522 0-1.476 0-2.214-.738 0-1.554.33-2.214 0-.933-.467-1.476-1.476-2.214-2.214s-1.747-1.28-2.214-2.214c-.33-.66.522-1.692 0-2.214s-1.692.522-2.214 0c-.739-.739.739-3.69 0-4.428-.522-.522-1.476 0-2.214 0 0-.738.522-1.693 0-2.215-.522-.521-1.476 0-2.214 0h-6.643c-.738 0-2.214.738-2.214 0s2.952 0 2.214 0c-5.166 0-4.428 1.477-4.428-2.214"/></g></svg>