<?xml version="1.0" encoding="UTF-8" standalone="no"?>
<!-- Created with Inkscape (http://www.inkscape.org/) -->

<svg
   xmlns:dc="http://purl.org/dc/elements/1.1/"
   xmlns:cc="http://creativecommons.org/ns#"
   xmlns:rdf="http://www.w3.org/1999/02/22-rdf-syntax-ns#"
   xmlns:svg="http://www.w3.org/2000/svg"
   xmlns="http://www.w3.org/2000/svg"
   xmlns:sodipodi="http://sodipodi.sourceforge.net/DTD/sodipodi-0.dtd"
   xmlns:inkscape="http://www.inkscape.org/namespaces/inkscape"
   width="210mm"
   height="297mm"
   viewBox="0 0 744.09448819 1052.3622047"
   id="svg3573"
   version="1.1"
   inkscape:version="0.91 r13725"
   sodipodi:docname="desert mouseoverline.svg">
  <defs
     id="defs3575" />
  <sodipodi:namedview
     id="base"
     pagecolor="#ffffff"
     bordercolor="#666666"
     borderopacity="1.0"
     inkscape:pageopacity="0.0"
     inkscape:pageshadow="2"
     inkscape:zoom="0.98994949"
     inkscape:cx="200.35329"
     inkscape:cy="528.00892"
     inkscape:document-units="px"
     inkscape:current-layer="layer1"
     showgrid="false"
     inkscape:window-width="1366"
     inkscape:window-height="706"
     inkscape:window-x="-8"
     inkscape:window-y="-8"
     inkscape:window-maximized="1" />
  <metadata
     id="metadata3578">
    <rdf:RDF>
      <cc:Work
         rdf:about="">
        <dc:format>image/svg+xml</dc:format>
        <dc:type
           rdf:resource="http://purl.org/dc/dcmitype/StillImage" />
        <dc:title></dc:title>
      </cc:Work>
    </rdf:RDF>
  </metadata>
  <g
     inkscape:label="Layer 1"
     inkscape:groupmode="layer"
     id="layer1">
    <g
       id="g3591">
      <path
         inkscape:connector-curvature="0"
         id="path3562"
         d="m 26.68876,585.81243 c 0,-1.22759 0.297703,-2.49181 0,-3.68269 -0.07445,-0.29772 -0.703672,0.217 -0.920679,0 -0.251926,-0.25192 0.249722,-3.18324 0,-3.6827 -0.194115,-0.38821 -0.726607,-0.53248 -0.92067,-0.9207 -0.137239,-0.27447 0,-0.61379 0,-0.92069 0,-1.84131 0,-3.6827 0,-5.52401 0,-0.3069 -0.217008,-0.70368 0,-0.92069 0.216999,-0.21701 0.703671,0.21701 0.92067,0 0.285086,-0.28511 -0.285078,-4.31828 0,-4.6034 0.217007,-0.217 0.703671,0.21701 0.920679,0 0.434006,-0.43401 -0.274477,-1.29235 0,-1.84139 0.194114,-0.38812 0.726606,-0.53248 0.920678,-0.92061 0.274468,-0.54904 -0.434015,-1.40737 0,-1.84139 0.216999,-0.21701 0.703671,0.21701 0.92067,0 0.306256,-0.30621 -0.306255,-1.53509 0,-1.84131 0.217008,-0.217 0.703672,0.21701 0.920679,0 0.217008,-0.217 -0.137238,-0.64622 0,-0.92069 0.122202,-0.24446 2.517564,-2.63978 2.762028,-2.762 0.274476,-0.13724 0.703671,0.217 0.92067,0 0.217008,-0.21701 -0.216999,-0.70369 0,-0.9207 0.217008,-0.21701 0.703671,0.21701 0.920679,0 0.217008,-0.21701 -0.217008,-0.70369 0,-0.9207 0.305518,-0.30552 1.535831,0.30553 1.841349,0 0.217008,-0.217 -0.216999,-0.70368 0,-0.92069 0.434015,-0.43399 1.407342,0.43401 1.841357,0 0.216999,-0.21698 -0.217007,-0.70365 0,-0.92066 0.307431,-0.30744 1.533867,0.30747 1.841349,0 0.217008,-0.21699 -0.217007,-0.70366 0,-0.92067 0.305518,-0.3055 1.535832,0.30551 1.841349,0 0.217008,-0.21699 -0.217007,-0.70367 0,-0.92067 2.455138,0 -0.30689,0.30689 0.920679,-0.92067 0.307139,-0.30716 1.53421,0.30713 1.841349,0 0.217008,-0.21702 -0.217008,-0.70368 0,-0.92069 0.217008,-0.217 0.703671,0.21701 0.920679,0 0.216999,-0.217 -0.217008,-0.70366 0,-0.92067 0.216999,-0.217 0.703671,0.21701 0.92067,0 0.217008,-0.217 -0.216999,-0.70366 0,-0.92068 0.217008,-0.21701 0.703671,0.21702 0.920679,0 0.217007,-0.21701 -0.217008,-0.70367 0,-0.92067 0.217007,-0.21701 0.703671,0.217 0.920678,0 0.217,-0.21701 -0.217007,-0.70367 0,-0.92067 0.217,-0.21702 0.703663,0.217 0.920671,0 0.217008,-0.21702 -0.217008,-0.70367 0,-0.92069 0.434015,-0.434 1.407342,0.43403 1.841349,0 0.217008,-0.217 -0.216999,-0.70366 0,-0.92067 0.217008,-0.217 0.703671,0.21701 0.920679,0 0.217007,-0.217 -0.217008,-0.70366 0,-0.92067 0.434006,-0.43401 1.407342,0.434 1.841348,0 0.217008,-0.21701 -0.216999,-0.70368 0,-0.92068 0.217008,-0.217 0.703672,0.217 0.920679,0 0.306256,-0.30626 -0.306255,-1.53509 0,-1.84135 0.217008,-0.217 0.703671,0.217 0.920679,0 0.216999,-0.217 -0.137238,-0.64617 0,-0.92067 0.194115,-0.38819 0.726556,-0.5325 0.92067,-0.92068 0.137238,-0.27451 0,-0.61379 0,-0.92067 0.30689,-0.30689 0.726564,-0.5325 0.920679,-0.92069 0.137238,-0.27449 -0.217008,-0.70366 0,-0.92067 0.217008,-0.217 0.703671,0.21701 0.920679,0 0.216999,-0.217 -0.137238,-0.64619 0,-0.92067 0.194114,-0.38819 0.61378,-0.61378 0.92067,-0.92068 0.30689,-0.3069 0.532492,-0.72657 0.920679,-0.92067 2.455129,0 -0.30689,0.30688 0.92067,-0.92069 0.217008,-0.217 0.703671,0.21702 0.920679,0 0.217007,-0.217 -0.217008,-0.70365 0,-0.92067 0.217007,-0.217 0.703671,0.21702 0.920678,0 0.216999,-0.217 -0.217007,-0.70366 0,-0.92067 0.216999,-0.21701 0.61378,0 0.920671,0 0.306898,0 0.613788,0 0.920678,0 0.223295,0 2.73241,-0.0296 2.762028,0 0.217007,0.21701 -0.217008,0.70367 0,0.92067 0.434007,0.43401 1.841349,-0.61377 1.841349,0 0,0.3069 -1.227569,0 -0.920679,0 0.613789,0 1.227569,0 1.841357,0 0.30689,0 0.613781,0 0.920671,0 0.306898,0 0.703671,0.21702 0.920678,0 0.217008,-0.217 -0.217007,-0.70366 0,-0.92067 0.217008,-0.21701 0.646203,0.13725 0.920679,0 0.776365,-0.3882 1.064985,-1.45316 1.841349,-1.84135 0.274476,-0.13725 0.703671,0.217 0.920679,0 0.216999,-0.217 -0.217008,-0.70367 0,-0.92068 0.216999,-0.217 0.703662,0.21701 0.92067,0 0.217008,-0.217 -0.137238,-0.64617 0,-0.92067 1.915818,-3.83164 -0.06356,0.98422 1.841349,-0.92067 0.217008,-0.21702 -0.216999,-0.70368 0,-0.92068 0.217008,-0.21701 0.703671,0.217 0.920679,0 0.217008,-0.21701 -0.217008,-0.70367 0,-0.92069 0.307139,-0.30714 1.53421,0.30716 1.841349,0 0.217008,-0.21699 -0.216999,-0.70366 0,-0.92067 0.217008,-0.21699 0.703671,0.21701 0.920679,0 0,-2.45514 -0.30689,0.3069 0.920678,-0.92067 0.216999,-0.21702 -0.217007,-0.70367 0,-0.92068 0.305509,-0.30551 1.535832,0.30551 1.841349,0 0.217008,-0.21701 -0.217007,-0.70367 0,-0.92067 0.217008,-0.21701 0.61378,0 0.92067,0 0.306899,0 0.920679,-0.30689 0.920679,0 0,0.30688 -1.227569,0 -0.920679,0 0.613789,0 1.292363,0.27448 1.841358,0 0.274468,-0.13725 -0.217008,-0.70367 0,-0.92068 0.216999,-0.21701 0.703671,0.21701 0.92067,0 0.217008,-0.21701 -0.30689,-0.92068 0,-0.92068 0.306899,0 0,1.22757 0,0.92068 0,-0.92068 0,-1.84135 0,-2.76202 0,-0.3069 -0.30689,-0.92069 0,-0.92069 0.306899,0 0,1.22756 0,0.92069 0,-0.6138 -0.274467,-1.29238 0,-1.84136 0.137238,-0.27449 0.703671,0.21701 0.920679,0 0.217008,-0.21699 -0.217008,-0.70366 0,-0.92067 0.221571,-0.22154 3.461178,0.22153 3.682706,0 0.217,-0.21701 -0.217007,-0.70368 0,-0.92067 0.217,-0.21702 0.613781,0 0.920671,0 0.338086,0 3.645669,-0.0371 3.682706,0 0.216999,0.21699 -0.217008,0.70366 0,0.92067 0.221571,0.22153 3.461176,-0.22154 3.682696,0 0.21701,0.21701 -0.217,0.70368 0,0.92067 0.43402,0.434 1.29236,-0.27449 1.84136,0 0.38818,0.1941 0.53249,0.72658 0.92067,0.92067 0.54899,0.27451 1.40734,-0.43401 1.84135,0 0.21701,0.21701 -0.217,0.70368 0,0.92069 0.21701,0.21699 0.61379,0 0.92068,0 0.30689,0 0.61378,0 0.92068,0 0.30689,0 0.61378,0 0.92067,0 0.30689,0 0.92067,-0.3069 0.92067,0 0,0.30687 -1.22756,0 -0.92067,0 0.61378,0 1.22756,0 1.84135,0 -2.02073,-9.27293 3.33804,-1.49669 4.60338,-2.76203 0.217,-0.21701 -0.21701,-0.70368 0,-0.92067 0.217,-0.21702 0.70367,0.21699 0.92067,0 0.21701,-0.21702 -0.217,-0.70368 0,-0.92067 0.21701,-0.21702 0.6462,0.13722 0.92068,0 0.38819,-0.19411 0.53249,-0.72659 0.92068,-0.9207 0.27447,-0.13723 0.70367,0.21702 0.92067,0 0.21701,-0.21699 -0.217,-0.70365 0,-0.92067 0.21701,-0.21699 0.6462,0.13725 0.92068,0 0.38817,-0.19409 0.53249,-0.72658 0.92068,-0.92067 0.27446,-0.13725 0.70366,0.21701 0.92067,0 0.217,-0.21702 -0.21701,-0.70367 0,-0.92067 0.217,-0.21702 0.70367,0.217 0.92067,0 0.21701,-0.21702 -0.217,-0.70368 0,-0.92067 0.30552,-0.30552 1.53584,0.3055 1.84135,0 0.21701,-0.21702 -0.217,-0.70368 0,-0.92069 0.21701,-0.217 0.70367,0.21701 0.92068,0 0,-2.45515 -0.3069,0.30689 0.92067,-0.92068 0.21701,-0.21699 -0.217,-0.70367 0,-0.92067 0.21701,-0.21701 0.6462,0.13726 0.92068,0 0.38819,-0.19409 0.53249,-0.72658 0.92068,-0.92067 0.27447,-0.13725 0.70367,0.217 0.92067,0 0.21701,-0.21701 -0.217,-0.70368 0,-0.92069 0.21701,-0.21699 0.70367,0.21701 0.92068,0 0.21701,-0.21699 -0.21701,-0.70366 0,-0.92067 0.21701,-0.21699 0.70367,0.21701 0.92068,0 0.217,-0.21699 -0.21701,-0.70366 0,-0.92067 0.217,-0.21701 0.70366,0.21701 0.92067,0 0.21701,-0.21701 -0.21701,-0.70368 0,-0.92067 0.21701,-0.21701 0.70367,0.21699 0.92068,0 0.217,-0.21701 -0.21701,-0.70368 0,-0.92067 0.217,-0.21701 0.6462,0.13723 0.92067,0 0.38818,-0.19411 0.53249,-0.72659 0.92068,-0.9207 0.27447,-0.13723 0.70367,0.21702 0.92067,0 0.217,-0.21699 -0.217,-0.70365 0,-0.92067 0.0369,-0.0371 3.34462,0 3.6827,0 3.37582,0 6.75163,0 10.12744,0 0.30689,0 0.61378,0 0.92067,0 0.30689,0 0.70368,0.21702 0.92067,0 0.21701,-0.21699 -0.21699,-0.70365 0,-0.92067 0.22153,-0.22154 3.46118,0.22154 3.68271,0 0.21701,-0.21702 -0.13724,-0.64619 0,-0.92067 0.19412,-0.3882 0.72661,-0.53249 0.92068,-0.92067 0.27447,-0.54899 -0.43402,-1.40735 0,-1.84137 0.217,-0.21699 0.70367,0.21702 0.92067,0 0.21701,-0.21699 -0.13724,-0.64617 0,-0.92067 0.19411,-0.38819 0.72661,-0.53248 0.92068,-0.92067 0.27452,-0.54898 -0.43402,-1.40735 0,-1.84136 0.21701,-0.21699 0.70367,0.21701 0.92067,0 0.21701,-0.21699 -0.13723,-0.64618 0,-0.92067 0.19412,-0.3882 0.72661,-0.53249 0.92068,-0.92067 0.13724,-0.27451 -0.21701,-0.70368 0,-0.92067 0.21701,-0.21701 0.70367,0.21699 0.92068,0 0.217,-0.21701 -0.13724,-0.64619 0,-0.92069 0.19411,-0.38818 0.7266,-0.53248 0.92067,-0.92067 0.13723,-0.27449 -0.217,-0.70368 0,-0.92068 0.217,-0.21701 0.70367,0.217 0.92068,0 0.217,-0.21701 -0.21701,-0.70367 0,-0.92067 0.217,-0.21701 0.70367,0.217 0.92067,0 0.217,-0.21701 -0.217,-0.70367 0,-0.92069 0.217,-0.21699 0.70367,0.21702 0.92067,0 0.21701,-0.21699 -0.217,-0.70366 0,-0.92067 0.21701,-0.217 0.70367,0.21701 0.92068,0 0.21701,-0.217 -0.13724,-0.64618 0,-0.92067 0.19412,-0.38819 0.72661,-0.53249 0.92068,-0.92068 0.13723,-0.27449 -0.21701,-0.70367 0,-0.92067 0.217,-0.21701 0.70366,0.217 0.92067,0 0.21701,-0.21701 -0.21701,-0.70367 0,-0.92068 0.21701,-0.217 0.70367,0.21701 0.92068,0 0.21701,-0.217 -0.21701,-0.70366 0,-0.92068 0.21701,-0.21699 0.70367,0.21702 0.92067,0 0.21701,-0.21699 -0.30689,-0.92067 0,-0.92067 0.3069,0 -0.30689,0.92067 0,0.92067 1.13769,0 0.92068,-1.29112 0.92068,-1.84134 0.92068,1.53446 1.84135,3.06891 2.76203,4.60337 0.30689,0 0.70367,-0.21701 0.92067,0 0.217,0.217 -0.217,0.70367 0,0.92068 0.217,0.21701 0.64621,-0.13725 0.92067,0 0.38819,0.19409 0.5325,0.72658 0.92068,0.92067 0.27452,0.13726 0.70367,-0.217 0.92068,0 0.217,0.21701 -0.21701,0.70368 0,0.92067 0.43401,0.43403 1.40734,-0.43401 1.84135,0 0.217,0.21702 -0.21701,0.70368 0,0.92069 0.217,0.217 0.61378,0 0.92067,0 0.3069,0 0.61379,0 0.92068,0 0.30689,0 1.22757,0 0.92068,0 -0.61379,0 -2.45514,0 -1.84136,0 3.06893,0 6.13784,0 9.20676,0 1.53446,0 3.06892,0 4.60338,0 0.43258,0 3.9306,0 1.84135,0 -0.61378,0 -2.45514,0 -1.84135,0 8.59297,0 0.92068,0.92067 2.76203,-0.92069 0.30718,-0.30714 1.53421,0.30716 1.84135,0 0.217,-0.21699 -0.21701,-0.70366 0,-0.92067 0.46034,-0.46034 2.30168,0.46033 2.76202,0 0.21701,-0.217 -0.217,-0.70366 0,-0.92067 0.43401,-0.43401 1.29241,0.27449 1.84135,0 0.38819,-0.19409 0.5325,-0.72658 0.92068,-0.92068 0.549,-0.27449 1.40734,0.43402 1.84135,0 0.21701,-0.21701 -0.21701,-0.70367 0,-0.92067 0.43402,-0.43402 1.29235,0.27449 1.84135,0 0.38819,-0.1941 0.53249,-0.72658 0.92068,-0.92068 0.27447,-0.13723 0.70367,0.21701 0.92068,0 0.217,-0.217 -0.21701,-0.70366 0,-0.92068 0.46033,-0.46033 2.30169,0.46034 2.76202,0 0.217,-0.21699 -0.217,-0.70366 0,-0.92067 0.46034,-0.46033 2.30169,0.46034 2.76202,0 0.21701,-0.21701 -0.217,-0.70367 0,-0.92067 0.21701,-0.21701 0.64621,0.13723 0.92068,0 0.38819,-0.19411 0.53249,-0.72659 0.92068,-0.92067 0.549,-0.2745 1.29241,0.27449 1.84135,0 0.38819,-0.19411 0.53249,-0.72659 0.92068,-0.92069 0.73657,-0.36826 2.0255,0.36828 2.76203,0 0.38817,-0.19409 0.53249,-0.72658 0.92067,-0.92067 0.49948,-0.24973 3.43082,0.25192 3.6827,0 0.217,-0.217 -0.217,-0.70368 0,-0.92067 0.28508,-0.2851 4.31829,0.28508 4.60338,0 0.217,-0.21702 -0.21701,-0.70368 0,-0.92067 0.46034,-0.46034 2.30169,0.46033 2.76203,0 0.217,-0.21702 -0.21701,-0.70368 0,-0.9207 0.217,-0.21699 0.6462,0.13726 0.92067,0 0.38818,-0.19409 0.53249,-0.72658 0.92068,-0.92067 0.27452,-0.13724 0.70367,0.21701 0.92068,0 0.21699,-0.21699 -0.21701,-0.70366 0,-0.92067 0.434,-0.43401 1.40733,0.43401 1.84134,0 0.217,-0.21701 -0.217,-0.70367 0,-0.92068 0.43401,-0.434 1.40735,0.43402 1.84135,0 0.21701,-0.217 -0.217,-0.70367 0,-0.92067 0.43401,-0.43402 1.40735,0.43402 1.84135,0 0.21701,-0.21701 -0.217,-0.70367 0,-0.92068 0.43402,-0.43401 1.40734,0.43402 1.84136,0 0.217,-0.217 -0.21701,-0.70366 0,-0.92067 0.43401,-0.43401 1.40733,0.434 1.84135,0 0.21701,-0.217 -0.21701,-0.70367 0,-0.92068 0.43401,-0.434 1.40734,0.43401 1.84135,0 0.21701,-0.21701 -0.21701,-0.70367 0,-0.92067 0.21701,-0.21701 0.70367,0.217 0.92068,0 0.217,-0.21701 -0.21701,-0.70367 0,-0.92068 0.217,-0.217 0.70367,0.21701 0.92067,0 0.217,-0.217 -0.217,-0.70367 0,-0.92068 0.217,-0.21699 0.70367,0.21701 0.92068,0 0.217,-0.21699 -0.21701,-0.70366 0,-0.92067 0.217,-0.21701 0.70367,0.21701 0.92067,0 0.217,-0.21701 -0.217,-0.70368 0,-0.92067 0.217,-0.21702 0.70368,0.21699 0.92067,0 0.21701,-0.21702 -0.21699,-0.70368 0,-0.92067 0.21701,-0.21702 0.70368,0.21699 0.92068,0 0.21701,-0.21702 -0.217,-0.70368 0,-0.9207 0.21701,-0.21699 0.70367,0.21702 0.92068,0 0.43401,-0.434 -0.43401,-1.40733 0,-1.84134 0.217,-0.21701 0.70366,0.21702 0.92067,0 0.21701,-0.21701 0,-0.61378 0,-0.92067 0,-0.3069 0,-0.61379 0,-0.92067 0,-0.3069 0,-1.22757 0,-0.92069 0,5.25816 -0.12481,-1.71654 0,-1.84134 2.45514,0 -0.30689,0.30689 0.92068,-0.92068 0.0295,-0.0296 2.53873,0 2.76203,0 0.30689,0 0.70367,-0.21701 0.92067,0 0.21701,0.217 -0.217,0.70367 0,0.92068 0.46034,0.46033 2.30169,-0.46034 2.76203,0 0.217,0.21699 -0.217,0.70367 0,0.92067 0.217,0.21701 0.61379,0 0.92068,0 0.30689,0 0.61378,0 0.92067,0 0.30689,0 1.22756,0 0.92067,0 -1.45856,0 -3.58549,-0.27449 0,0.92067 0.58231,0.19411 1.40735,-0.43401 1.84135,0 0.21701,0.21701 -0.217,0.70368 0,0.92069 2.45514,0 -0.30689,-0.3069 0.92068,0.92067 0.21701,0.217 0.70367,-0.21701 0.92068,0 0.217,0.217 -0.21701,0.70366 0,0.92067 0.43401,0.43401 1.40734,-0.434 1.84135,0 0.21701,0.21702 -0.21701,0.70368 0,0.92067 0.21701,0.21702 0.6462,-0.13724 0.92068,0 0.38818,0.1941 0.61378,0.6138 0.92067,0.92067 0.30689,0.3069 0.72661,0.53249 0.92068,0.9207 0.13724,0.27448 -0.21701,0.70365 0,0.92067 0.434,0.43401 1.84135,-0.6138 1.84135,0 0,0.3069 -0.92068,-0.3069 -0.92068,0 0,1.83957 2.21348,0.37212 2.76203,0.92067 0.217,0.21701 0,0.61379 0,0.92067 0,-1.53446 0,-3.06891 0,-4.60338 0.30689,0 0.70367,0.21702 0.92067,0 0.43401,-0.434 -0.434,-1.40733 0,-1.84134 0.21701,-0.21701 0.70368,0.217 0.92068,0 0.217,-0.21701 -0.13724,-0.64618 0,-0.92067 0.19412,-0.3882 0.72661,-0.53249 0.92067,-0.92069 0.13729,-0.27449 -0.217,-0.70366 0,-0.92067 0.21701,-0.217 0.70367,0.21701 0.92068,0 0.22152,-0.22154 -0.22153,-3.46115 0,-3.6827 1.22757,-1.22757 0.92068,1.53446 0.92068,-0.92067 0,-0.3069 0,-0.61378 0,-0.92068 0,-0.3069 -0.3069,-0.92067 0,-0.92067 0.30689,0 0,0.61377 0,0.92067 0,0.3069 0,0.61378 0,0.92068 0,0.30689 -0.13724,0.64618 0,0.92067 0.19412,0.38819 0.72661,0.53248 0.92067,0.92067 0.18253,0.36505 -0.18822,2.57381 0,2.76203 0.21701,0.21701 0.61379,0 0.92068,0 0,0.30689 -0.13724,0.64618 0,0.92067 0.19411,0.3882 1.22757,0.61379 0.92067,0.92069 -0.30689,0.30688 -0.92067,-1.3547 -0.92067,-0.92069 0,0.68624 0.70367,1.19034 0.92067,1.84136 0.0674,0.20215 0.0685,3.54583 0,3.68271 -0.19406,0.38818 -0.72656,0.53246 -0.92067,0.92067 -0.13724,0.27448 0.30689,0.92067 0,0.92067 -0.30689,0 0.30689,-0.92067 0,-0.92067 -1.30739,0 -0.92068,2.10743 -0.92068,2.76202 0,0.30689 0,0.61379 0,0.92068 0,0.30688 -0.21701,0.70366 0,0.92067 0.21701,0.21701 0.61379,0 0.92068,0 0,0.3069 -0.21701,0.70368 0,0.92068 0.43401,0.434 1.40734,-0.43401 1.84135,0 0.21701,0.21701 -0.21701,0.70367 0,0.92067 0.43401,0.43402 1.40734,-0.43401 1.84135,0 0.217,0.21701 -0.217,0.70367 0,0.92068 0.30748,0.30745 1.53392,-0.30745 1.84135,0 0.217,0.217 -0.217,0.70367 0,0.92067 0.43401,0.43402 1.40734,-0.434 1.84135,0 0.21701,0.21701 -0.217,0.70367 0,0.92068 0.43401,0.43401 1.40735,-0.43401 1.84135,0 0.21701,0.21701 -0.21701,0.70368 0,0.92067 0.21701,0.21701 0.70367,-0.21699 0.92068,0 1.90491,1.90492 -2.91096,-0.0745 0.92067,1.84137 0.28022,0.14008 2.34742,0 2.76203,0 0.3069,0 0.70367,0.21699 0.92068,0 0.21701,-0.21702 -0.21701,-0.70368 0,-0.9207 0.21701,-0.21699 0.61378,0 0.92068,0 0.30689,0 0.61378,0 0.92067,0 1.84135,0 3.6827,0 5.52405,0 0.30689,0 0.61378,0 0.92068,0 0.30689,0 0.6462,-0.13723 0.92067,0 0.38819,0.19411 0.53249,0.72659 0.92068,0.9207 0.36504,0.18251 2.57381,-0.18822 2.76203,0 0.217,0.21699 -0.21701,0.70365 0,0.92067 0.217,0.21699 0.70367,-0.21702 0.92067,0 0.21701,0.21699 -0.217,0.70367 0,0.92067 0.43401,0.43401 1.40734,-0.43401 1.84136,0 0.21699,0.21701 -0.21701,0.70368 0,0.92067 0.434,0.43401 1.40734,-0.43401 1.84134,0 0.21701,0.21701 -0.217,0.70368 0,0.92069 0.30709,0.30706 1.53432,-0.30707 1.84135,0 0.21701,0.21699 -0.217,0.70366 0,0.92067 0.21701,0.217 0.64621,-0.13725 0.92068,0 0.38823,0.19409 0.53249,0.72658 0.92067,0.92067 0.54901,0.27449 1.29241,-0.27449 1.84136,0 0.38818,0.19409 0.53249,0.72659 0.92067,0.92067 0.549,0.27451 1.40734,-0.434 1.84136,0 0.217,0.21702 -0.21701,0.70368 0,0.92068 0.46033,0.46034 2.30169,-0.46034 2.76203,0 0.21699,0.21701 -0.21701,0.70367 0,0.92068 0.434,0.43402 1.40733,-0.43402 1.84134,0 0.21701,0.217 -0.217,0.70366 0,0.92067 0.21701,0.217 0.64621,-0.13724 0.92068,0 0.38818,0.1941 0.5325,0.72659 0.92067,0.92068 0.549,0.27449 1.40735,-0.43401 1.84135,0 0.21701,0.21701 -0.217,0.70367 0,0.92067 0.46034,0.46033 2.3017,-0.46034 2.76203,0 0.21701,0.21701 -0.217,0.70368 0,0.92067 0.43402,0.43403 1.40734,-0.43401 1.84136,0 0.217,0.21702 -0.21701,0.70368 0,0.92069 0.46033,0.46034 2.30169,-0.46033 2.76203,0 0.21699,0.217 -0.21701,0.70366 0,0.92067 0.434,0.43401 1.29239,-0.2745 1.84134,0 0.38818,0.1941 0.5325,0.72658 0.92067,0.92068 0.54901,0.2745 1.40735,-0.43401 1.84136,0 0.217,0.21701 -0.21701,0.70367 0,0.92067 0.43401,0.43401 1.40734,-0.43401 1.84135,0 0.21701,0.21701 -0.21701,0.70368 0,0.92069 0.43401,0.434 1.40734,-0.43403 1.84135,0 0.21701,0.21699 -0.217,0.70366 0,0.92067 0.43402,0.434 1.40734,-0.43401 1.84135,0 0.21701,0.21699 -0.217,0.70366 0,0.92067 0.21701,0.21701 0.92068,-0.30689 0.92068,0 0,0.30689 -0.92068,-0.30689 -0.92068,0 0,3.24693 1.84136,-1.4049 1.84136,1.84134 0,-3.0689 0,-6.13782 0,-9.20675 0,-0.61378 0,-1.22757 0,-1.84135 0,-0.30689 -0.30689,-0.92067 0,-0.92067 0.30689,0 0,1.22757 0,0.92067 0,-0.21877 -0.10316,-3.47634 0,-3.6827 0.19411,-0.3882 0.7266,-0.53249 0.92067,-0.92067 0.27447,-0.54899 -0.43401,-1.40735 0,-1.84136 0.217,-0.21699 0.70368,0.21701 0.92068,0 0.21701,-0.21699 -0.217,-0.70366 0,-0.92067 0.21701,-0.217 0.70368,0.21701 0.92067,0 0.21701,-0.217 -0.21699,-0.70368 0,-0.92067 0.21701,-0.21702 0.70368,0.21699 0.92069,0 0.217,-0.21702 -0.21701,-0.70368 0,-0.92067 0.217,-0.21702 0.70366,0.21699 0.92068,0 0.21699,-0.21702 -0.21702,-0.70368 0,-0.9207 0.21699,-0.21699 0.70367,0.21702 0.92067,0 0.21701,-0.21699 -0.217,-0.70366 0,-0.92067 0.21701,-0.21699 0.70367,0.21701 0.92067,0 0.21702,-0.21699 -0.217,-0.70366 0,-0.92067 0.21702,-0.21701 0.70367,0.21701 0.92069,0 0.217,-0.21701 -0.13725,-0.64618 0,-0.92068 0.19409,-0.38819 0.72656,-0.53248 0.92067,-0.92067 0.13724,-0.2745 -0.21701,-0.70367 0,-0.92068 0.217,-0.217 0.70366,0.21701 0.92067,0 0.43401,-0.43401 -0.43401,-1.40734 0,-1.84135 0.21701,-0.21701 0.70368,0.21701 0.92068,0 0.217,-0.21701 -0.217,-0.70367 0,-0.92067 0.217,-0.21701 0.70367,0.217 0.92067,0 0.43402,-0.43401 -0.43402,-1.40735 0,-1.84136 0.217,-0.21699 0.70367,0.21701 0.92068,0 0.217,-0.21699 -0.21701,-0.70366 0,-0.92067 0.217,-0.21701 0.70366,0.21701 0.92067,0 0.43401,-0.43401 -0.434,-1.40734 0,-1.84134 0.217,-0.21702 0.70367,0.21699 0.92067,0 0.21702,-0.21702 0,-0.6138 0,-0.9207 0,-0.30687 0,-0.61377 0,-0.92067 0,-0.30689 0,-1.22757 0,-0.92067 0,0.61378 0,2.45514 0,1.84134 0,-2.14824 0,-4.29648 0,-6.44471 0,-0.3069 -0.217,-0.70368 0,-0.92068 0.21702,-0.21701 0.70368,0.217 0.92067,0 0.0296,-0.0296 0,-2.53874 0,-2.76202 0,-2.45515 0.3069,0.30689 -0.92067,-0.92068 -0.217,-0.21701 0,-0.61379 0,-0.92067 0,-0.3069 -0.30689,-0.9207 0,-0.9207 0.3069,0 0,1.22758 0,0.9207 0,-1.84137 0,-3.68271 0,-5.52407 0,-0.22329 -0.0296,-2.73241 0,-2.76201 0.21702,-0.21702 0.70368,0.21699 0.92067,0 0.21702,-0.21702 -0.21699,-0.70368 0,-0.92069 1.22758,-1.22757 0.92068,1.53446 0.92068,-0.92067 0,-0.41462 0.14011,-2.48184 0,-2.76202 -0.19409,-0.3882 -1.22755,-0.6138 -0.92068,-0.92069 0.3069,-0.30688 1.22758,1.22757 0.92068,0.92069 -0.61378,-0.6138 -1.11911,-1.35988 -1.84135,-1.84136 -0.25534,-0.17023 -0.70367,0.21701 -0.92067,0 -0.21701,-0.217 0.217,-0.70368 0,-0.92067 -0.30677,-0.30679 -1.53457,0.30676 -1.84135,0 -0.217,-0.21702 -0.217,-0.70368 0,-0.92068 0.217,-0.21701 0.61379,0 0.92068,0 0.33812,0 3.64566,-0.0371 3.68269,0 0.21701,0.217 -0.21699,0.70366 0,0.92068 0.46036,0.46033 2.3017,-0.46034 2.76204,0 0.21701,0.21699 -0.217,0.70367 0,0.92067 0.21701,0.21701 0.70367,-0.217 0.92067,0 0.21701,0.21701 -0.217,0.70367 0,0.92067 0.21701,0.21701 0.70367,-0.217 0.92069,0 0.217,0.21701 -0.21702,0.70368 0,0.92069 2.45512,0 -0.3069,-0.3069 0.92067,0.92067 0.217,0.217 0.70366,-0.21701 0.92067,0 0.434,0.43401 -0.43401,1.40733 0,1.84135 1.22757,1.22757 0.92068,-1.53445 0.92068,0.92067 0,1.0497 0,2.394 0,1.84136 0,-0.61379 -0.61378,-1.84136 0,-1.84136 0.68623,0 0.70367,1.19034 0.92067,1.84136 0.27235,0.81703 -0.30144,4.0005 0,4.60337 0.1941,0.38819 0.72658,0.53249 0.92068,0.92067 0.27449,0.54899 -0.434,1.40734 0,1.84137 0.217,0.21699 0.70366,-0.21701 0.92067,0 0.217,0.21699 -0.13724,0.64617 0,0.92067 1.91582,3.83163 -0.0635,-0.98425 1.84134,0.92068 0.21702,0.217 -0.21699,0.70367 0,0.92067 0.22156,0.22155 3.46117,-0.22155 3.68271,0 0.21702,0.21701 -0.21699,0.70367 0,0.92067 0.30678,0.30678 1.53458,-0.30677 1.84137,0 0.217,0.21701 -0.21702,0.70367 0,0.92068 0.434,0.43401 1.40733,-0.434 1.84134,0 0.0417,0.0417 0,4.16927 0,4.60338 0,0.3381 0.037,3.64565 0,3.68271 -2.45514,0 0.3069,-0.3069 -0.92067,0.92067 -0.21702,0.21699 -0.70367,-0.21702 -0.92067,0 -0.22044,0.22044 0.20929,3.6827 0,3.6827 -0.3069,0 -0.21702,-1.13768 0,-0.92068 0.48524,0.48525 0.43543,1.35612 0.92067,1.84135 2.45514,0 -0.3069,-0.30689 0.92067,0.92068 0.434,0.434 1.40733,-0.43401 1.84135,0 0.217,0.21701 -0.217,0.70367 0,0.92067 0.22155,0.22156 3.46116,-0.22154 3.68269,0 0.21702,0.21701 -0.21699,0.70367 0,0.92068 0.22156,0.22155 3.46117,-0.22155 3.68271,0 0.21702,0.217 -0.217,0.70367 0,0.92067 0.22155,0.22155 3.46117,-0.22155 3.68271,0 0.21701,0.21701 -0.21701,0.70367 0,0.92068 0.21701,0.21701 0.70367,-0.21701 0.92067,0 0.21701,0.21701 -0.217,0.70368 0,0.92067 0.21701,0.21701 0.70368,-0.21699 0.92068,0 0.43402,0.43402 -0.43402,1.40735 0,1.84137 0.43402,0.434 1.40735,-0.43402 1.84135,0 0.217,0.21699 -0.21701,0.70365 0,0.92067 0.0296,0.0296 2.53875,0 2.76204,0 2.45511,0 -0.3069,0.30689 0.92067,-0.92067 0.43401,-0.43402 1.29235,0.27447 1.84134,0 0.3882,-0.19411 0.53249,-0.72659 0.92067,-0.9207 0.49132,-0.24564 1.35005,0.24567 1.84137,0 0.38817,-0.19409 0.53248,-0.72658 0.92067,-0.92067 0.2745,-0.13724 0.70367,0.21701 0.92067,0 0.21701,-0.21699 -0.217,-0.70366 0,-0.92067 0.434,-0.43401 1.40735,0.43401 1.84135,0 0.217,-0.21701 -0.217,-0.70367 0,-0.92068 0.43402,-0.434 1.40735,0.43402 1.84135,0 0.21701,-0.217 -0.217,-0.70367 0,-0.92067 0.21701,-0.21701 0.70368,0.217 0.92067,0 0.21701,-0.21701 0.21701,-0.70367 0,-0.92068 -0.21699,-0.217 -0.70366,0.21701 -0.92067,0 -0.217,-0.217 0.21701,-0.70366 0,-0.92067 -0.217,-0.217 -0.70366,0.21701 -0.92067,0 -0.21701,-0.217 0.21701,-0.70367 0,-0.92068 -0.21701,-0.21701 -0.70368,0.21701 -0.92068,0 -0.217,-0.21701 0.217,-0.70367 0,-0.92067 -0.434,-0.43401 -1.40735,0.43401 -1.84135,0 -0.217,-0.21701 0.21701,-0.70367 0,-0.92068 -0.217,-0.217 -0.61377,0 -0.92067,0 0,-0.30688 0.217,-0.70367 0,-0.92068 -0.43402,-0.43401 -1.40734,0.43401 -1.84135,0 -0.21701,-0.21699 0.217,-0.70366 0,-0.92067 -0.21701,-0.21701 -0.70367,0.21701 -0.92069,0 -0.21699,-0.21701 0.21702,-0.70368 0,-0.92067 -0.21699,-0.21702 -0.70365,0.21699 -0.92067,0 -0.217,-0.21702 0.21702,-0.70368 0,-0.92067 -0.217,-0.21702 -0.70366,0.21699 -0.92067,0 -0.21702,-0.21702 0.21701,-0.70368 0,-0.9207 -0.21702,-0.21699 -0.70368,0.21702 -0.92067,0 -0.0921,-0.092 -0.0921,-2.66996 0,-2.76201 0.21699,-0.21701 0.70365,0.217 0.92067,0 0.21701,-0.21701 -0.21702,-0.70368 0,-0.92067 0.21701,-0.21701 0.70367,0.21699 0.92067,0 0.21702,-0.21701 -0.217,-0.70368 0,-0.92069 0.43401,-0.43401 1.40735,0.43401 1.84136,0 0.217,-0.217 -0.21701,-0.70366 0,-0.92067 0.43401,-0.43401 1.40733,0.43401 1.84135,0 0.217,-0.217 -0.217,-0.70368 0,-0.92067 0.434,-0.43401 1.40733,0.434 1.84135,0 0.217,-0.21701 -0.21701,-0.70368 0,-0.92068 0.217,-0.21701 0.61378,0 0.92067,0 0.30689,0 1.22757,0 0.92068,0 -0.61379,0 -2.45513,0 -1.84135,0 8.59297,0 0.92067,0.92068 2.76202,-0.92068 0.43401,-0.43401 1.40734,0.43402 1.84136,0 0.217,-0.217 -0.21701,-0.70366 0,-0.92067 0.217,-0.217 0.61378,0 0.92067,0 0.3069,0 0.61378,0 0.92067,0 0.3069,0 1.22757,0 0.92068,0 -0.61378,0 -2.45514,0 -1.84135,0 1.22757,0 2.45514,0 3.68271,0 0.30688,0 1.22757,0 0.92068,0 -0.6138,0 -2.45515,0 -1.84137,0 1.22757,0 2.45514,0 3.68271,0 0.3069,0 1.22757,0 0.92068,0 -0.61378,0 -2.45513,0 -1.84135,0 0.92067,0 1.88859,0.29114 2.76202,0 0.29115,-0.0971 -0.217,-0.70367 0,-0.92067 0.217,-0.21702 0.61378,0 0.92067,0 0.3069,0 0.92068,-0.3069 0.92068,0 0,0.30689 -1.22757,0 -0.92068,0 0.61379,0 1.22757,0 1.84135,0 0.3069,0 0.70367,-0.21702 0.92069,0 0.217,0.217 -0.21702,0.70367 0,0.92067 0.217,0.21701 0.70366,-0.217 0.92067,0 0.43401,0.434 -0.2745,1.29237 0,1.84135 0.1941,0.38819 0.72658,0.53248 0.92067,0.92068 0.11902,0.23803 0,4.87147 0,5.52404 0,0.3069 -0.13725,0.64619 0,0.92067 1.01784,2.03568 0.57141,0.28571 1.84137,0.9207 0.38818,0.19409 0.53247,0.72657 0.92067,0.92067 0.2802,0.14008 2.34739,0 2.76202,0 2.45513,0 4.91027,0 7.3654,0 0.3069,0 0.6138,0 0.92067,0 0.3069,0 0.70368,0.21699 0.9207,0 0.21699,-0.21702 -0.21702,-0.70368 0,-0.92067 0.21699,-0.21702 0.70365,0.21699 0.92067,0 0.0296,-0.0296 0,-2.53875 0,-2.76204 0,-0.3069 0.21699,-0.70367 0,-0.92067 -0.21702,-0.21701 -0.70368,0.217 -0.92067,0 -0.43404,-0.43401 0.434,-1.40735 0,-1.84136 -0.43404,-0.43401 -1.40735,0.43401 -1.84137,0 -0.21699,-0.217 0.21701,-0.70366 0,-0.92067 -0.0921,-0.0921 -3.19168,0.42964 -1.84134,-0.92067 0.21699,-0.21701 0.92067,-0.3069 0.92067,0 0,0.30689 -1.22757,0 -0.92067,0 5.21715,0 0.30688,0.61377 1.84134,-0.92068 0.46034,-0.46033 2.3017,0.46034 2.76204,0 0.21699,-0.21701 -0.21702,-0.70367 0,-0.92068 0.22153,-0.22155 3.46114,0.22155 3.6827,0 0.21699,-0.217 -0.21701,-0.70366 0,-0.92067 0.21699,-0.217 0.61378,0 0.92067,0 0,-0.30688 -0.21701,-0.70367 0,-0.92067 0.21699,-0.21702 0.70367,0.217 0.92067,0 0.28508,-0.28509 -0.28507,-4.31831 0,-4.60339 0.21702,-0.21701 0.70368,0.21702 0.92067,0 0.46034,-0.46033 -0.46033,-2.30169 0,-2.76203 0.21702,-0.21699 0.70368,0.21701 0.92068,0 0.43403,-0.43401 -0.43401,-1.40733 0,-1.84134 0.21701,-0.21701 0.70367,0.21699 0.92068,0 0.43402,-0.43401 -0.434,-1.40734 0,-1.84136 0.217,-0.217 0.70367,0.21701 0.92068,0 0.43401,-0.43401 -0.43401,-1.40734 0,-1.84134 0.217,-0.21702 0.70368,0.21701 0.92068,0 0.21701,-0.21702 -0.217,-0.70368 0,-0.92068 0.21701,-0.21701 0.70367,0.217 0.92067,0 0.21702,-0.21701 -0.217,-0.70367 0,-0.92067 0.21702,-0.21701 0.61379,0 0.92069,0 0,-0.3069 -0.21702,-0.70368 0,-0.92069 0.217,-0.217 0.70365,0.21701 0.92067,0 0.217,-0.217 -0.21702,-0.70366 0,-0.92067 0.217,-0.217 0.70366,0.21701 0.92067,0 0.21701,-0.217 -0.21701,-0.70368 0,-0.92067 0.21701,-0.21702 0.70368,0.21699 0.92067,0 0.21701,-0.21702 -0.21699,-0.70368 0,-0.92068 0.21701,-0.21701 0.70368,0.217 0.92068,0 0.43402,-0.434 -0.43402,-1.40735 0,-1.84136 0.217,-0.21699 0.70367,0.21701 0.92068,0 0.217,-0.21699 -0.30689,-0.92067 0,-0.92067 0.30689,0 -0.30689,0.92067 0,0.92067 0.43401,0 0.53247,-0.72658 0.92067,-0.92067 0.27449,-0.13725 0.64619,0.13725 0.92067,0 0.38821,-0.19408 0.6138,-1.22756 0.92067,-0.92067 0.3069,0.30689 -0.92067,0.48667 -0.92067,0.92067 0,0.80346 4.78833,-1.93383 -0.92067,0.92067 -1.57858,5.43561 4.15159,-3.2138 5.52405,-1.84134 0.21702,0.21699 -0.21699,0.70366 0,0.92067 0.21702,0.21701 0.70368,-0.21701 0.92068,0 0.43402,0.43401 -0.43402,1.40734 0,1.84134 0.21701,0.21702 0.70367,-0.21699 0.92069,0 0.21699,0.21702 -0.21702,0.70368 0,0.92069 0.21699,0.217 0.70365,-0.21701 0.92067,0 0.217,0.217 -0.21702,0.70366 0,0.92068 2.45513,0 -0.3069,-0.3069 0.92067,0.92067 0.21701,0.21701 0.70368,-0.217 0.92067,0 0.21701,0.21701 -0.21699,0.70367 0,0.92067 0.21701,0.21701 0.70368,-0.217 0.92068,0 0.217,0.21701 -0.217,0.70368 0,0.92069 0.217,0.217 0.70367,-0.21701 0.92068,0 0.21699,0.217 -0.13725,0.64617 0,0.92067 0.19409,0.38819 0.72659,0.53247 0.92067,0.92068 0.13725,0.27448 -0.21701,0.70367 0,0.92067 0.217,0.21701 0.70368,-0.217 0.92067,0 0.43401,0.434 -0.434,1.40735 0,1.84136 0.21701,0.21699 0.70368,-0.21702 0.92067,0 0.21702,0.21699 -0.13723,0.64616 0,0.92067 0.19411,0.38818 0.72659,0.53249 0.9207,0.92067 0.13723,0.2745 -0.21702,0.70368 0,0.92067 0.21699,0.21701 0.70365,-0.21699 0.92067,0 0.21699,0.21701 -0.13725,0.64619 0,0.92069 0.19409,0.38818 0.72657,0.53247 0.92067,0.92067 0.13725,0.27449 -0.21702,0.70366 0,0.92067 0.21702,0.21702 0.70367,-0.21701 0.92067,0 0.21702,0.21702 -0.217,0.70368 0,0.92067 0.21702,0.21702 0.70368,-0.21699 0.92067,0 0.43403,0.43402 -0.43401,1.40734 0,1.84137 2.45514,0 -0.30688,-0.3069 0.92069,0.92067 0.217,0.21699 0.70366,-0.21701 0.92068,0 0.46033,0.46034 -0.46034,2.30168 0,2.76202 0.21699,0.21701 0.70366,-0.217 0.92067,0 0.217,0.21701 -0.13726,0.64618 0,0.92068 2.45513,4.91027 0,-2.45513 0,0 0,0.68622 0.43543,1.35611 0.92067,1.84135 0.21701,0.21701 0.61379,0 0.92068,0 0,0.30689 -0.21701,0.70367 0,0.92067 0.217,0.21701 0.70367,-0.217 0.92067,0 0.217,0.21701 -0.217,0.70368 0,0.92069 0.30708,0.30705 1.53428,-0.30708 1.84135,0 0.21701,0.21699 -0.217,0.70366 0,0.92067 0.0296,0.0296 2.53875,0 2.76204,0 0.30689,0 0.70365,0.217 0.92067,0 0.21701,-0.21701 -0.21702,-0.70368 0,-0.92067 0.43401,-0.43403 1.29237,0.27449 1.84134,0 0.3882,-0.1941 0.53249,-0.72658 0.92069,-0.92069 0.36503,-0.18251 2.5738,0.18822 2.76202,0 0.21701,-0.217 -0.217,-0.70366 0,-0.92067 0.21701,-0.217 0.61379,0 0.92068,0 0.30689,0 0.92067,-0.3069 0.92067,0 0,0.30689 -1.22756,0 -0.92067,0 0.61378,0 1.29236,0.2745 1.84134,0 0.2745,-0.13725 -0.217,-0.70368 0,-0.92067 0.21702,-0.21701 0.70368,0.21699 0.92068,0 0.21701,-0.21701 -0.13725,-0.64619 0,-0.92068 0.19409,-0.38819 0.72658,-0.53249 0.92067,-0.92068 0.13726,-0.27449 -0.217,-0.70366 0,-0.92067 0.21701,-0.217 0.70367,0.21701 0.92069,0 0.43401,-0.43402 -0.43402,-1.40734 0,-1.84135 0.217,-0.21701 0.61378,0 0.92067,0 0.2233,0 2.73241,-0.0296 2.76202,0 0.21701,0.21699 -0.217,0.70366 0,0.92068 0.43402,0.434 1.40735,-0.43402 1.84136,0 0.217,0.217 -0.21701,0.70367 0,0.92067 0.434,0.434 1.40733,-0.43402 1.84135,0 0.21701,0.21701 -0.217,0.70367 0,0.92067 0.22155,0.22155 3.46117,-0.22155 3.6827,0 0.21701,0.21701 -0.217,0.70367 0,0.92068 0.2851,0.28508 4.31829,-0.28509 4.60337,0 0.21702,0.217 -0.21699,0.70367 0,0.92068 0.43402,0.434 1.29238,-0.27451 1.84137,0 0.38818,0.19408 0.53247,0.72658 0.92067,0.92067 0.27448,0.13725 0.64618,-0.13725 0.92067,0 0.3882,0.19408 0.53249,0.72658 0.92068,0.92067 0.54898,0.2745 1.40735,-0.43401 1.84135,0 0.21699,0.21701 -0.21701,0.70368 0,0.92069 0.43401,0.43401 1.40734,-0.43403 1.84134,0 0.21702,0.21699 -0.21699,0.70366 0,0.92067 0.46034,0.46033 2.3017,-0.46034 2.76204,0 0.217,0.217 -0.21702,0.70366 0,0.92067 0.43401,0.43401 1.40733,-0.434 1.84134,0 0.21702,0.21702 -0.21699,0.70368 0,0.92067 0.21702,0.21702 0.64619,-0.13724 0.9207,0 0.38818,0.1941 0.53246,0.72658 0.92067,0.92067 0.27447,0.13726 0.61377,0 0.92067,0 0.30689,0.3069 0.53249,0.72659 0.92067,0.9207 0.2745,0.13723 0.70368,-0.21702 0.92067,0 0.21701,0.21699 -0.21699,0.70365 0,0.92067 0.21701,0.21699 0.70368,-0.21702 0.92069,0 0.21699,0.21699 -0.21701,0.70366 0,0.92067 0.21699,0.21701 0.64617,-0.13725 0.92067,0 0.38818,0.19409 0.53249,0.72658 0.92067,0.92067 0.27449,0.13725 0.70368,-0.21699 0.92067,0 0.21702,0.21701 -0.21699,0.70368 0,0.92068 0.30707,0.30707 1.53429,-0.30706 1.84136,0 0.217,0.21701 -0.21701,0.70367 0,0.92068 0.43402,0.43401 1.40734,-0.43401 1.84135,0 0.21701,0.217 -0.217,0.70366 0,0.92067 0.30678,0.30677 1.53458,-0.30678 1.84136,0 0.217,0.21701 -0.21701,0.70368 0,0.92068 0.43401,0.434 1.40734,-0.43401 1.84135,0 0.21701,0.21701 -0.21702,0.70367 0,0.92067 0.21701,0.21701 0.64618,-0.13723 0.92067,0 0.38819,0.19411 0.53249,0.72658 0.92067,0.92068 0.2745,0.13724 0.70368,-0.21701 0.92069,0 0.21699,0.217 -0.21701,0.70367 0,0.92067 0.21699,0.21701 0.64617,-0.13724 0.92067,0 0.38818,0.1941 0.53249,0.72659 0.92067,0.92068 0.27451,0.13726 0.70368,-0.21701 0.92067,0 0.21701,0.21701 -0.21699,0.70368 0,0.92067 0.21701,0.21701 0.70368,-0.21699 0.92069,0 0.217,0.21701 -0.21701,0.70368 0,0.92067 0.217,0.21702 0.70366,-0.21699 0.92067,0 0.217,0.21702 -0.21701,0.70368 0,0.9207 0.217,0.21699 0.70366,-0.21702 0.92067,0 0.21702,0.21699 -0.21701,0.70365 0,0.92067 0.21702,0.21699 0.70368,-0.21702 0.92068,0 0.21701,0.21699 -0.217,0.70367 0,0.92067 0.43401,0.43401 1.40733,-0.43401 1.84136,0 0.217,0.21701 -0.21702,0.70368 0,0.92067 0.43401,0.43401 1.84134,-0.61378 1.84134,0 0,0.3069 -1.22757,0 -0.92067,0 0.92067,0 1.84134,0 2.76202,0 0.30689,0 0.70367,0.21701 0.92068,0 0.217,-0.21699 -0.21701,-0.70366 0,-0.92067 0.217,-0.217 0.70367,0.21701 0.92068,0 0.21699,-0.217 -0.21701,-0.70368 0,-0.92067 0.21699,-0.21702 0.61378,0 0.92067,0 0.30689,0 0.92067,-0.3069 0.92067,0 0,0.30689 -1.13767,0.21699 -0.92067,0 0.48523,-0.48524 1.3561,-0.43544 1.84136,-0.92067 0.21699,-0.21702 0,-0.6138 0,-0.9207 0,-0.30687 0,-0.61377 0,-0.92067 0,-0.3069 -0.3069,-0.92067 0,-0.92067 0.30687,0 0,1.22757 0,0.92067 0,-0.61377 -0.2745,-1.29236 0,-1.84135 0.13723,-0.27449 0.70366,0.21701 0.92067,0 0.21699,-0.217 -0.3069,-0.92067 0,-0.92067 0.30687,0 0,0.61378 0,0.92067 0.37934,6.62977 3.78801,0.97334 5.52405,1.84135 0.38819,0.19409 0.53249,0.72658 0.92067,0.92067 0.54899,0.2745 1.40735,-0.434 1.84136,0 0.217,0.21702 -0.21701,0.70368 0,0.9207 0.46034,0.46033 2.30168,-0.46034 2.76202,0 0.21701,0.21699 -0.217,0.70365 0,0.92067 0.43401,0.434 1.40735,-0.43402 1.84136,0 0.21699,0.21699 -0.21701,0.70367 0,0.92067 0.43401,0.43401 1.29236,-0.27449 1.84134,0 0.38821,0.19409 0.53249,0.72658 0.92068,0.92067 0.54899,0.2745 1.40735,-0.43401 1.84136,0 0.21699,0.21701 -0.21702,0.70368 0,0.92069 0.30707,0.30706 1.53427,-0.30707 1.84134,0 0.21701,0.21699 -0.217,0.70366 0,0.92067 0.43401,0.43401 1.29237,-0.2745 1.84136,0 0.38818,0.19409 0.53247,0.72658 0.92067,0.92067 0.36503,0.18252 2.57382,-0.18822 2.76203,0 0.217,0.21701 -0.21701,0.70368 0,0.92067 0.46034,0.46034 2.30168,-0.46033 2.76202,0 0.21702,0.21702 -0.217,0.70368 0,0.92068 0.43401,0.43402 1.29237,-0.27449 1.84136,0 0.38819,0.1941 0.53247,0.72658 0.92067,0.92068 0.27449,0.13724 0.70368,-0.21701 0.92068,0 0.21701,0.217 -0.217,0.70366 0,0.92067 0.434,0.43402 1.29237,-0.27449 1.84136,0 0.38818,0.1941 0.53247,0.72659 0.92067,0.92068 0.49083,0.24542 1.35051,-0.24542 1.84134,0 0.3882,0.19409 0.53249,0.72658 0.92067,0.92067 0.49947,0.24973 3.4308,-0.2519 3.68271,0 0.21701,0.21701 -0.217,0.70368 0,0.92067 0.22156,0.22156 3.46116,-0.22153 3.68271,0 0.21701,0.21702 -0.217,0.70368 0,0.92069 0.28508,0.28508 4.31829,-0.2851 4.60337,0 0.21701,0.217 -0.21699,0.70366 0,0.92067 0.037,0.0371 3.3446,0 3.6827,0 4.60339,0 9.20676,0 13.81013,0 0.22329,0 2.73243,-0.0296 2.76204,0 0.21701,0.217 -0.21701,0.70368 0,0.92068 0.43401,0.434 1.40733,-0.43401 1.84134,0 0.21702,0.21701 -0.21699,0.70367 0,0.92067 0.43403,0.43401 1.40735,-0.43401 1.84137,0 0.21699,0.21701 -0.21702,0.70368 0,0.92069 0.434,0.434 1.84134,-0.6138 1.84134,0 0,0.30688 -1.22757,0 -0.92067,0 0.61379,0 1.22756,0 1.84135,0 0.30688,0 0.70367,-0.21701 0.92067,0 0.217,0.21699 -0.217,0.70366 0,0.92067 0.217,0.21699 0.6462,-0.13725 0.92067,0 0.38819,0.19408 0.61378,0.61378 0.92068,0.92067 0.30689,0.30689 0.72658,0.53249 0.92067,0.92067 0.13726,0.27451 -0.21699,0.70368 0,0.92067 0.21701,0.21702 0.70368,-0.21699 0.92069,0 0.217,0.21702 -0.21701,0.70368 0,0.92069 0.217,0.217 0.70366,-0.21701 0.92068,0 0.21699,0.217 -0.21702,0.70366 0,0.92067 0.21699,0.217 0.70365,-0.21701 0.92067,0 0.21701,0.217 -0.21702,0.70368 0,0.92067 0.21701,0.21702 0.70367,-0.21699 0.92067,0 0.21701,0.21702 -0.217,0.70368 0,0.92068 0.21701,0.21701 0.70367,-0.217 0.92067,0 0.43402,0.43401 -0.43401,1.40735 0,1.84136 0.21702,0.217 0.70368,-0.21702 0.92069,0 0.43401,0.43401 -0.43401,1.40734 0,1.84134 0.217,0.21702 0.70366,-0.21699 0.92067,0 0.43401,0.43401 -0.2745,1.29238 0,1.84137 0.19409,0.38817 0.72659,0.53247 0.92068,0.92067 0.27449,0.54898 -0.2745,1.29236 0,1.84134 0.19408,0.3882 0.72658,0.53249 0.92067,0.92067 0.18252,0.36506 -0.18823,2.57382 0,2.76203 0.217,0.21702 0.70367,-0.21699 0.92068,0 0.46033,0.46034 -0.46035,2.3017 0,2.76204 1.22755,1.22757 0.92067,-1.53447 0.92067,0.92067 0,0.22329 -0.0296,2.73241 0,2.76204 0.217,0.21699 0.70367,-0.21702 0.92067,0 0.21702,0.21699 0,0.61377 0,0.92067 0,0.30689 0.3069,0.92067 0,0.92067 -0.30689,0 0,-1.22757 0,-0.92067 0,0.92067 0,1.84134 0,2.76201 0,0.30689 0.21702,0.70368 0,0.92069 -0.217,0.21699 -0.61379,0 -0.92067,0 -0.47048,5.55736 3.49685,-0.18584 4.60338,0.92067 0.217,0.21699 -0.21701,0.70367 0,0.92067 0.217,0.21702 0.61378,0 0.92068,0 0.30689,0 0.61379,0 0.92067,0 0.30689,0 0.61379,0 0.92067,0 0.30689,0 0.70368,-0.217 0.92069,0 0.217,0.21702 -0.21701,0.70367 0,0.92068 0.434,0.434 1.29236,-0.27449 1.84134,0 0.3882,0.19411 0.53249,0.72657 0.92068,0.92068 0.36504,0.18251 2.57381,-0.18821 2.76202,0 0.21702,0.217 -0.217,0.70366 0,0.92067 0.46034,0.46034 2.3017,-0.46033 2.76204,0 0.21699,0.21701 -0.21702,0.70366 0,0.92068 0.30745,0.30745 1.53389,-0.30745 1.84134,0 0.21702,0.21701 -0.21699,0.70368 0,0.92067 0.43401,0.43401 1.40734,-0.43401 1.84137,0 0.21699,0.21701 -0.21702,0.70368 0,0.92067 0.434,0.43402 1.40733,-0.43401 1.84134,0 0.21701,0.21702 -0.21701,0.70368 0,0.92069 0.21701,0.217 0.92067,-0.30689 0.92067,0 0,0.30688 -1.22757,0 -0.92067,0 0.61378,0 1.22756,0 1.84134,0 0.30689,0 -0.70366,-0.21701 -0.92067,0 -0.217,0.217 0.21701,0.70366 0,0.92068 -0.46033,0.46033 -2.30168,-0.46034 -2.76201,0 -0.21702,0.21699 0.21699,0.70367 0,0.92067 -0.21702,0.217 -0.70368,-0.217 -0.9207,0 -0.21699,0.217 0.21702,0.70367 0,0.92067 -0.21699,0.21701 -0.70365,-0.217 -0.92067,0 -0.30779,0.30779 0.30779,1.53357 0,1.84136 -0.21699,0.21699 -0.70367,-0.21701 -0.92067,0 -0.21702,0.21699 0.217,0.70366 0,0.92067 -0.21702,0.21701 -0.70368,-0.21701 -0.92067,0 -0.21702,0.21701 0.21699,0.70367 0,0.92067 -0.21702,0.21702 -0.70368,-0.217 -0.92069,0 -0.217,0.21702 0.21701,0.70367 0,0.92067 -0.217,0.21702 -0.61378,0 -0.92068,0 0,0.3069 0.21702,0.70368 0,0.92069 -0.21699,0.217 -0.70365,-0.21701 -0.92067,0 -0.434,0.43401 0.27449,1.29235 0,1.84135 -0.19409,0.38819 -0.72658,0.53248 -0.92067,0.92067 -0.1401,0.2802 0,2.3474 0,2.76203 0,2.14824 0,4.29648 0,6.44472 0,0.3069 -0.21701,0.70367 0,0.92069 0.217,0.217 0.70367,-0.21702 0.92067,0 0.0296,0.0296 0,2.53872 0,2.76202 0,2.15916 -0.217,-0.43402 0.92067,1.84136 0.13726,0.27448 -0.13723,0.64616 0,0.92067 0.1941,0.38818 0.72659,0.53249 0.92068,0.92067 0.13725,0.27451 -0.217,0.70368 0,0.92067 0.21701,0.21701 0.70367,-0.21699 0.92069,0 0.21699,0.21701 -0.21702,0.70368 0,0.92066 0.21699,0.21701 0.70365,-0.21698 0.92067,0 0.30444,0.3045 -0.30446,1.53689 0,1.84139 0.30716,0.30716 1.53421,-0.30716 1.84134,0 0.21702,0.21701 -0.21699,0.70369 0,0.9207 0.21702,0.217 0.70368,-0.21701 0.9207,0 0.21699,0.217 -0.21702,0.7036 0,0.92061 0.434,0.43401 1.40733,-0.43402 1.84134,0 0.21701,0.217 -0.21701,0.70368 0,0.92069 0.434,0.43402 1.40733,-0.43401 1.84134,0 0.21701,0.21701 -0.21699,0.70369 0,0.9207 0.21701,0.21701 0.70368,-0.21701 0.92068,0 0.217,0.21701 -0.217,0.70369 0,0.92069 0.217,0.21701 0.61378,0 0.92068,0 0,0.3069 -0.21701,0.70361 0,0.92061 0.55022,0.55024 1.84134,-0.99506 1.84134,0.9207 0,0.3069 -0.61377,0 -0.92067,0 -2.02071,9.27292 3.33804,1.49667 4.60338,2.762 0.21701,0.21701 -0.13725,0.64622 0,0.9207 0.3882,0.77642 1.45316,1.06497 1.84137,1.84139 0.13722,0.27448 -0.21702,0.7036 0,0.92061 0.21699,0.21709 0.70365,-0.21701 0.92067,0 0.21699,0.21709 -0.13726,0.64622 0,0.9207 0.19408,0.38821 0.72657,0.53248 0.92067,0.92069 0.13724,0.27448 -0.21702,0.70369 0,0.9207 0.21701,0.21701 0.70367,-0.21701 0.92067,0 0.21701,0.21701 -0.13725,0.64613 0,0.92069 0.19408,0.38813 0.72658,0.53249 0.92067,0.92061 0.13725,0.27457 -0.21699,0.70369 0,0.9207 0.21701,0.21701 0.70368,-0.21701 0.92068,0 0.217,0.21701 -0.13724,0.64622 0,0.9207 0.1941,0.38821 0.72659,0.53248 0.92068,0.92069 0.13725,0.27448 -0.21701,0.7036 0,0.92061 0.21699,0.21701 0.70366,-0.21701 0.92067,0 0.21701,0.21701 -0.21701,0.70369 0,0.9207 0.21701,0.21701 0.70367,-0.21701 0.92067,0 0.43401,0.43401 -0.434,1.40737 0,1.84139 0.21702,0.21701 0.70367,-0.21701 0.92067,0 0.21702,0.21701 -0.13723,0.64613 0,0.92061 0.38821,0.77642 1.45317,1.06497 1.84136,1.84139 0.13726,0.27448 -0.21701,0.70369 0,0.9207 0.217,0.217 0.61378,0 0.92068,0 0,0.3069 -0.217,0.7036 0,0.92069 0.21701,0.21692 0.70368,-0.21709 0.92067,0 0.43401,0.43393 -0.43401,1.40729 0,1.84131 0.21701,0.21701 0.70368,-0.21701 0.92069,0 0.217,0.21701 -0.21701,0.70369 0,0.92069 0.217,0.21701 0.70366,-0.217 0.92068,0 0.43399,0.43402 -0.43402,1.4073 0,1.84131 0.21699,0.21701 0.70365,-0.21701 0.92067,0 0.217,0.21701 -0.13726,0.64622 0,0.9207 0.19408,0.38821 0.72657,0.53248 0.92067,0.92069 0.13724,0.27448 -0.217,0.70369 0,0.9207 0.21701,0.21701 0.70367,-0.21701 0.92067,0 0.22155,0.22155 -0.22154,3.46114 0,3.6827 0.21701,0.217 0.70368,-0.21701 0.92068,0 0.217,0.217 0,0.61379 0,0.92069 0,0.33804 0.0371,3.64556 0,3.68261 -0.217,0.21701 -0.70367,-0.21692 -0.92068,0 -0.217,0.21701 0.30689,0.9207 0,0.9207 -1.9158,0 -0.37044,-1.29115 -0.92067,-1.84131 -0.217,-0.217 -0.70367,0.21701 -0.92067,0 -0.21702,-0.217 0.217,-0.70368 0,-0.92069 -0.22155,-0.22156 -3.46117,0.22155 -3.68271,0 -0.217,-0.21701 0.21701,-0.70369 0,-0.9207 -0.30716,-0.30715 -1.53421,0.30716 -1.84135,0 -0.21701,-0.217 0.217,-0.70369 0,-0.92061 -0.21701,-0.21709 -0.92069,0.30682 -0.92069,0 0,-0.3069 0.92069,-0.3069 0.92069,0 0,0.43393 -0.72657,0.5324 -0.92069,0.92061 -0.13723,0.27448 0,0.6138 0,0.9207 0,0.3069 -0.13723,0.64622 0,0.92069 0.19412,0.38822 0.72658,0.53249 0.92069,0.92061 0.27448,0.54904 -0.43401,1.40738 0,1.8414 0.217,0.217 0.70366,-0.21701 0.92067,0 0.46034,0.46034 -0.46033,2.30165 0,2.762 0.217,0.21701 0.70368,-0.21701 0.92068,0 0.21701,0.21701 -0.13725,0.64622 0,0.92069 0.19409,0.38822 0.72658,0.53249 0.92067,0.9207 0.13725,0.27448 -0.21699,0.70369 0,0.9207 0.21701,0.217 0.70368,-0.21701 0.92069,0 0.30626,0.30621 -0.30627,1.53509 0,1.8413 0.217,0.21701 0.70366,-0.21701 0.92068,0 0.43399,0.43402 -0.43402,1.40738 0,1.84139 0.21699,0.21701 0.70365,-0.217 0.92067,0 0.46033,0.46035 -0.46034,2.30166 0,2.76201 0.217,0.217 0.70367,-0.21701 0.92067,0 0.21701,0.217 0,0.61379 0,0.92069 0,0.3069 0.30689,0.92061 0,0.92061 -0.3069,0 -0.3069,-0.92061 0,-0.92061 0.434,0 0.72658,0.53249 0.92067,0.92061 0.13724,0.27456 0,0.6138 0,0.9207 0,0.3069 0.21701,0.70369 0,0.92069 -0.217,0.21701 -0.70366,-0.217 -0.92067,0 -0.217,0.21701 0,0.6138 0,0.9207 0,2.762 0,5.524 0,8.28609 0,0.30681 0,0.61371 0,0.92061 0,0.3069 -0.217,0.70369 0,0.9207 0.21701,0.21701 0.70367,-0.21701 0.92067,0 0.21701,0.21701 0,0.6138 0,0.92069 0,0.65257 -0.11902,5.28599 0,5.52409 0.1941,0.38813 0.72658,0.5324 0.92068,0.92061 0.11902,0.23803 0,4.87153 0,5.52409 0,0.3069 0,0.6138 0,0.9207 0,0.3069 -0.217,0.7036 0,0.92061 0.217,0.21701 0.70367,-0.21701 0.92067,0 0.217,0.21701 0,0.6138 0,0.9207 0,2.14829 0,4.29649 0,6.4447 0,2.76208 0,5.52408 0,8.28609 0,0.3069 0,0.61388 0,0.92069 0,0.3069 -0.217,0.70369 0,0.9207 0.217,0.21701 0.70368,-0.21701 0.92068,0 0.0371,0.0369 0,3.34458 0,3.6827 0,1.22759 0,2.4551 0,3.68269 0,0.3069 0,1.22751 0,0.9207 0,-0.6138 0,-2.4551 0,-1.84139 0,0.92069 0,1.84139 0,2.762 0,0.30698 0.3069,0.9207 0,0.9207 -0.3069,0 0.3069,-0.9207 0,-0.9207 -0.43401,0 -0.53249,0.72659 -0.92068,0.9207 -0.27449,0.13732 -0.92067,0.3069 -0.92067,0 0,-0.3069 1.22757,0 0.92067,0 -0.61379,0 -1.22757,0 -1.84135,0 -0.52478,0 -3.70263,0 -1.84134,0 0.61377,0 2.27536,-0.43402 1.84134,0 -1.14035,1.14036 -3.14324,0.92069 -4.60338,0.92069 -0.96197,0 -2.61304,0 -1.84135,0 0.61378,0 2.45515,0 1.84135,0 -0.92067,0 -1.84135,0 -2.76202,0 -0.30689,0 -0.61379,0 -0.92069,0 -0.30687,0 -0.70365,0.21701 -0.92067,0 -0.217,-0.21701 0.21702,-0.7036 0,-0.92069 -0.22153,-0.22156 -3.46115,0.22155 -3.6827,0 -0.21699,-0.21701 0.21701,-0.70369 0,-0.9207 -0.46033,-0.46026 -2.30168,0.46035 -2.76201,0 -0.21702,-0.21701 0.21699,-0.70369 0,-0.92061 -0.21702,-0.21701 -0.70368,0.21692 -0.92067,0 -0.21702,-0.21701 0.21699,-0.70369 0,-0.9207 -0.43403,-0.43401 -1.40736,0.43402 -1.84137,0 -0.21699,-0.217 0.21701,-0.7036 0,-0.92069 -0.21699,-0.21692 -0.70367,0.21709 -0.92067,0 -0.21702,-0.21692 0.217,-0.7036 0,-0.9207 -0.43401,-0.43401 -1.40734,0.43402 -1.84136,0 -0.217,-0.21701 0.21701,-0.70369 0,-0.92069 -0.90821,-0.90818 -1.84135,1.88659 -1.84135,-0.92061 0,-2.45511 0.3069,0.3069 -0.92067,-0.9207 -0.46034,-0.46035 0.46033,-2.30165 0,-2.762 -0.21701,-0.21701 -0.70368,0.21701 -0.92068,0 -0.217,-0.21701 -0.30689,-0.9207 0,-0.9207 0.30689,0 0,0.6138 0,0.9207 0,0.61371 0,1.22759 0,1.8413 0,0.3069 0,0.61389 0,0.9207 0,0.3069 0.217,0.70369 0,0.9207 -0.217,0.217 -0.70367,-0.21701 -0.92068,0 -0.46033,0.46034 0.46034,2.30165 0,2.762 -1.22756,1.22759 -0.92067,-1.53441 -0.92067,0.92069 0,0.22327 0.0296,2.73241 0,2.76201 -0.217,0.21709 -0.70366,0.21709 -0.92067,0 -0.21701,-0.21701 0.21701,-0.70369 0,-0.9207 -0.21701,-0.21701 -0.70368,0.21701 -0.92067,0 -0.21702,-0.21701 0.21699,-0.70369 0,-0.92061 -0.21702,-0.21701 -0.70368,0.21692 -0.92067,0 -0.21702,-0.21701 0.21699,-0.70369 0,-0.9207 -0.21702,-0.217 -0.70368,0.21701 -0.9207,0 -0.21699,-0.217 0.21702,-0.7036 0,-0.92069 -0.21699,-0.21692 -0.70365,0.21709 -0.92067,0 -0.30626,-0.3063 0.30626,-1.5351 0,-1.84139 -0.21699,-0.21701 -0.70367,0.217 -0.92067,0 -0.21702,-0.21701 0.13725,-0.64614 0,-0.92061 -0.19409,-0.38822 -0.61379,-0.6138 -0.92067,-0.9207 -0.3069,-0.30681 -0.53249,-0.72659 -0.92069,-0.9207 -0.27449,-0.13723 -0.70366,0.2171 -0.92068,0 -0.21699,-0.21692 0.21702,-0.70368 0,-0.92069 -0.21699,-0.21701 -0.70365,0.21701 -0.92067,0 -0.217,-0.21701 0.21702,-0.7036 0,-0.92061 -0.217,-0.21701 -0.70367,0.21701 -0.92067,0 -0.21701,-0.21701 0.217,-0.70369 0,-0.9207 -0.21701,-0.217 -0.70367,0.21701 -0.92067,0 -0.21701,-0.217 0.217,-0.70369 0,-0.92069 -0.21701,-0.21693 -0.70368,0.217 -0.92068,0 -0.217,-0.21693 0.217,-0.70361 0,-0.9207 -1.22757,-1.22751 -0.92068,1.53458 -0.92068,-0.92061 0,-0.3069 0,-0.6138 0,-0.9207 0,-0.30689 0.13725,-0.64613 0,-0.92069 -0.19409,-0.38821 -0.72658,-0.5324 -0.92067,-0.9207 -0.24973,-0.49937 0.25192,-3.43078 0,-3.68269 -0.21701,-0.21693 -0.70367,0.217 -0.92067,0 -0.25192,-0.25184 0.24971,-3.18324 0,-3.6827 -0.19411,-0.38813 -0.72659,-0.53249 -0.92069,-0.92061 -0.27449,-0.54904 0.43402,-1.40738 0,-1.84139 -0.217,-0.21701 -0.70366,0.217 -0.92067,0 -0.217,-0.21701 0.13725,-0.64614 0,-0.9207 -0.1941,-0.38813 -0.72658,-0.53248 -0.92067,-0.92061 -0.13726,-0.27456 0.21701,-0.70369 0,-0.9207 -0.21702,-0.217 -0.70368,0.21701 -0.92068,0 -0.21701,-0.217 0.217,-0.70368 0,-0.92069 -0.43401,-0.43402 -1.40733,0.43401 -1.84136,0 -0.217,-0.21701 0.21701,-0.70369 0,-0.9207 -0.217,-0.21701 -0.61378,0 -0.92068,0 -0.30689,0 -0.61377,0 -0.92067,0 -0.61379,0 -1.22757,0 -1.84134,0 -0.3069,0 -1.22757,0 -0.92068,0 0.61378,0 2.45513,0 1.84135,0 -0.92067,0 -1.88859,0.2912 -2.76202,0 -0.29115,-0.097 -0.3069,-0.92069 0,-0.92069 0.61378,0 -0.43402,1.40737 0,1.84139 0.217,0.21701 0.70367,-0.21701 0.92067,0 0.434,0.43401 -0.43402,1.40737 0,1.84139 0.217,0.21701 0.70367,-0.21701 0.92068,0 0.30625,0.30621 -0.30626,1.53509 0,1.84131 0.217,0.217 0.70366,-0.21701 0.92067,0 0.43401,0.43401 -0.2745,1.29235 0,1.84139 0.1941,0.38812 0.72658,0.53248 0.92067,0.92061 0.18253,0.36505 -0.18821,2.57381 0,2.76208 0.21702,0.21701 0.70368,-0.217 0.92067,0 0.21702,0.21701 0.21702,0.70369 0,0.92062 -0.21699,0.217 -0.61377,0 -0.92067,0 -1.22757,0.92069 -2.3669,1.97262 -3.68269,2.76208 -0.18534,0.11117 -4.0768,0 -4.60338,0 -2.45514,0 -4.91028,0 -7.36541,0 -0.30688,0 -0.70367,0.21701 -0.92067,0 -0.217,-0.217 0.217,-0.70369 0,-0.92069 -0.22154,-0.22156 -3.46116,0.22155 -3.68271,0 -0.217,-0.21701 0.21702,-0.70369 0,-0.9207 -0.46033,-0.46035 -2.30168,0.46035 -2.76201,0 -0.21702,-0.21701 0.21699,-0.70369 0,-0.92069 -0.46036,-0.46027 -2.30171,0.46034 -2.76204,0 -0.21701,-0.21693 0.217,-0.70361 0,-0.92062 -0.21701,-0.217 -0.61379,0 -0.92067,0 -0.3069,0 -0.6138,0 -0.92069,0 -2.45512,0 0.30689,0.3069 -0.92067,-0.92069 -0.46034,-0.46035 -2.30168,0.46035 -2.76202,0 -0.21701,-0.21701 0.217,-0.70369 0,-0.9207 -0.21701,-0.217 -0.64619,0.13724 -0.92068,0 -0.38819,-0.1941 -0.53248,-0.72659 -0.92067,-0.92069 -0.2745,-0.13724 -0.6462,0.13732 -0.92068,0 -0.3882,-0.19402 -0.53249,-0.72659 -0.92067,-0.92061 -0.2745,-0.13724 -0.70368,0.217 -0.92067,0 -0.21702,-0.21701 0.21699,-0.70369 0,-0.9207 -0.21702,-0.21701 -0.70368,0.21701 -0.9207,0 -0.21699,-0.21701 0.21702,-0.70369 0,-0.92069 -0.21699,-0.21701 -0.70365,0.217 -0.92067,0 -0.434,-0.43402 0.43401,-1.40738 0,-1.84131 -0.21699,-0.21701 -0.70367,0.21701 -0.92067,0 -0.21701,-0.21701 0.217,-0.70369 0,-0.9207 -0.21701,-0.217 -0.70368,0.21701 -0.92067,0 -0.434,-0.43401 0.27449,-1.29235 0,-1.84139 -0.1941,-0.38812 -0.72658,-0.53248 -0.92069,-0.92069 -0.13723,-0.27448 0.21701,-0.70361 0,-0.92061 -0.21699,-0.21701 -0.70366,0.217 -0.92067,0 -0.43401,-0.43402 0.43401,-1.40738 0,-1.8414 -0.21699,-0.217 -0.70366,0.21701 -0.92067,0 -0.21701,-0.217 0.21701,-0.70368 0,-0.92061 -0.21701,-0.217 -0.70368,0.21693 -0.92067,0 -0.21702,-0.217 0.13725,-0.64622 0,-0.92069 -0.19409,-0.38821 -0.72659,-0.53249 -0.92067,-0.9207 -0.27451,-0.54895 0.434,-1.40737 0,-1.84139 -0.21702,-0.21701 -0.70368,0.21701 -0.92069,0 -0.217,-0.21701 0.13724,-0.64613 0,-0.92061 -0.38819,-0.77642 -1.45316,-1.06497 -1.84135,-1.84139 -0.13726,-0.27448 0.217,-0.70369 0,-0.9207 -0.21701,-0.21701 -0.70367,0.21701 -0.92067,0 -0.21701,-0.21701 0.217,-0.7036 0,-0.92061 -0.21701,-0.21701 -0.70367,0.21701 -0.92069,0 -0.217,-0.21701 0.21702,-0.70369 0,-0.92069 -0.217,-0.21701 -0.70366,0.217 -0.92067,0 -0.217,-0.21701 0.21701,-0.70369 0,-0.9207 -0.217,-0.21701 -0.70366,0.21701 -0.92067,0 -0.21702,-0.21701 0.21701,-0.70369 0,-0.9207 -0.21702,-0.217 -0.64619,0.13724 -0.92068,0 -0.38819,-0.19402 -0.53249,-0.72659 -0.92067,-0.92061 -0.2745,-0.13732 -0.70368,0.21693 -0.92069,0 -0.21699,-0.217 0.21701,-0.70368 0,-0.92069 -0.21699,-0.21701 -0.70366,0.21701 -0.92067,0 -0.21699,-0.21701 0.21701,-0.70369 0,-0.9207 -0.21699,-0.21701 -0.70366,0.21701 -0.92067,0 -0.21701,-0.21701 0.21701,-0.70369 0,-0.92069 -0.21701,-0.21701 -0.70368,0.217 -0.92067,0 -0.21702,-0.21701 0.21699,-0.70361 0,-0.92061 -0.43401,-0.43402 -1.40735,0.43393 -1.84136,0 -0.217,-0.2171 0.21701,-0.70369 0,-0.9207 -0.43402,-0.43402 -1.40734,0.43402 -1.84135,0 -0.21701,-0.21701 0.217,-0.70369 0,-0.9207 -0.30678,-0.30681 -1.53458,0.30682 -1.84136,0 -0.217,-0.217 0.21702,-0.70368 0,-0.92069 -0.43401,-0.43402 -1.29235,0.27447 -1.84134,0 -0.38819,-0.19411 -0.53249,-0.72659 -0.92067,-0.9207 -0.54899,-0.27447 -1.40734,0.43402 -1.84136,0 -0.217,-0.21692 0.217,-0.7036 0,-0.92061 -0.43401,-0.43401 -1.40734,0.43402 -1.84135,0 -0.21701,-0.21701 0.21701,-0.70369 0,-0.92069 -0.434,-0.43402 -1.40734,0.43401 -1.84134,0 -0.21701,-0.21701 0.21699,-0.70369 0,-0.9207 -0.30716,-0.30716 -1.53421,0.30716 -1.84136,0 -0.217,-0.21701 0.21701,-0.70369 0,-0.9207 -0.0371,-0.0369 -3.34461,0 -3.68271,0 -0.30689,0 -0.70365,0.21701 -0.92067,0 -0.21701,-0.217 -0.3069,-0.92061 0,-0.92061 0.3069,0 0.21702,0.70361 0,0.92061 -0.21701,0.21701 -0.70368,-0.217 -0.92067,0 -1.22757,1.2276 1.53445,0.9207 -0.92067,0.9207 -1.53447,0.6138 -3.06893,1.22759 -4.60339,1.84139 -0.30688,0.3069 -0.53249,0.72659 -0.92068,0.92061 -0.27449,0.13733 -0.70366,-0.21692 -0.92067,0 -0.21702,0.21701 0.21701,0.70369 0,0.9207 -0.21702,0.21701 -0.64619,-0.13724 -0.92067,0 -0.38821,0.1941 -0.53249,0.72659 -0.92068,0.92069 -0.27449,0.13724 -0.70367,-0.217 -0.92068,0 -0.217,0.21701 0.21701,0.70369 0,0.9207 -0.217,0.21701 -0.70366,-0.21701 -0.92067,0 -0.21701,0.21701 0.21701,0.7036 0,0.9207 -0.21701,0.217 -0.70366,-0.2171 -0.92068,0 -0.21701,0.217 0.21702,0.7036 0,0.92061 -0.21701,0.217 -0.70368,-0.21701 -0.92067,0 -0.21701,0.217 0.21699,0.70368 0,0.92069 -0.21701,0.21701 -0.70368,-0.21701 -0.92067,0 -0.21701,0.21701 0.21699,0.70369 0,0.9207 -0.21701,0.21701 -0.70368,-0.21701 -0.92069,0 -0.217,0.21701 0.21701,0.70369 0,0.92069 -0.217,0.21693 -0.70366,-0.217 -0.92067,0 -0.217,0.21693 0.13725,0.64614 0,0.92061 -0.12047,0.24094 -1.7209,1.60046 -1.84135,1.8414 -0.13725,0.27447 0.217,0.70368 0,0.92069 -0.21701,0.21701 -0.70367,-0.21701 -0.92068,0 -0.217,0.21701 0.21701,0.7036 0,0.92061 -0.217,0.21701 -0.70366,-0.21701 -0.92068,0 -0.21699,0.21701 0.21702,0.70369 0,0.9207 -0.21699,0.21701 -0.70366,-0.21701 -0.92067,0 -0.21701,0.21701 0.21701,0.70369 0,0.92069 -0.21701,0.21701 -0.70367,-0.217 -0.92067,0 -0.21702,0.21701 0.217,0.70369 0,0.9207 -0.21702,0.21701 -0.70367,-0.21701 -0.92067,0 -0.21702,0.21701 0.217,0.7036 0,0.92061 -0.21702,0.21701 -0.70368,-0.21701 -0.92069,0 -0.217,0.21701 0.13725,0.64622 0,0.9207 -0.19409,0.38821 -0.72658,0.53248 -0.92067,0.92069 -0.13725,0.27448 0.21701,0.70369 0,0.9207 -0.217,0.21701 -0.70366,-0.21701 -0.92068,0 -0.21701,0.21701 0.21702,0.70369 0,0.92069 -0.21701,0.21693 -0.70367,-0.217 -0.92067,0 -0.434,0.43393 0.43401,1.40729 0,1.84131 -0.21701,0.21701 -0.70367,-0.21701 -0.92067,0 -0.21701,0.21701 0.217,0.70369 0,0.9207 -0.21701,0.217 -0.70368,-0.21701 -0.92069,0 -0.21699,0.217 0.21701,0.70368 0,0.92061 -0.21699,0.21709 -0.70366,-0.21693 -0.92067,0 -0.217,0.21709 0.21701,0.70368 0,0.92069 -0.217,0.21701 -0.70368,-0.21701 -0.92067,0 -0.21701,0.21701 0.21699,0.70369 0,0.9207 -0.0371,0.0369 -3.3446,0 -3.6827,0 -0.4341,0 -4.56166,0.042 -4.60339,0 -0.21701,-0.21701 0.21701,-0.70369 0,-0.9207 -0.434,-0.43401 -1.29236,0.27456 -1.84135,0 -0.38818,-0.1941 -0.53247,-0.72659 -0.92068,-0.92069 -0.27448,-0.13724 -0.70366,0.21709 -0.92067,0 -0.217,-0.21693 0.21701,-0.70361 0,-0.92061 -0.43401,-0.43402 -1.40733,0.43401 -1.84134,0 -0.21701,-0.21701 0.21699,-0.70369 0,-0.9207 -0.13541,-0.13535 -2.76203,0.10833 -2.76203,0 0,-0.3069 1.22757,0 0.92067,0 -0.61378,0 -1.29236,-0.27448 -1.84134,0 -0.27451,0.13724 0,0.6138 0,0.9207 0,1.8413 0,3.68269 0,5.524 0,0.3069 0,0.6138 0,0.9207 0,0.30689 0.21699,0.70368 0,0.92069 -0.21702,0.21701 -0.70368,-0.21701 -0.92067,0 -0.21702,0.21701 0,0.6138 0,0.9207 0,0.3069 0,0.61379 0,0.92061 0,1.53449 0,3.06898 0,4.60339 0,0.3069 0,0.6138 0,0.9207 0,0.3069 0.13723,0.64622 0,0.92069 -0.19412,0.38813 -0.72659,0.53249 -0.9207,0.92061 -0.13723,0.27456 0.13726,0.64622 0,0.9207 -0.19409,0.38821 -0.61377,1.22759 -0.92067,0.92069 -0.3069,-0.30689 1.22757,-1.2275 0.92067,-0.92069 -0.61377,0.6138 -1.22757,1.22759 -1.84134,1.84139 0,0.3069 0.217,0.7036 0,0.92061 -0.21702,0.21709 -0.70368,-0.21701 -0.92068,0 -0.21701,0.21709 0.217,0.70377 0,0.9207 -0.21701,0.217 -0.70367,-0.21693 -0.92068,0 -0.217,0.217 0.21701,0.70369 0,0.92069 -0.43401,0.43402 -1.40734,-0.43401 -1.84135,0 -0.217,0.21701 0.21702,0.70369 0,0.9207 -0.217,0.21701 -0.61377,0 -0.92067,0 0,0.3069 0.21699,0.7036 0,0.92061 -0.21701,0.21701 -0.70368,-0.21701 -0.92067,0 -0.21701,0.21701 0.21699,0.70377 0,0.92069 -0.43402,0.43402 -1.40736,-0.43401 -1.84136,0 -0.21699,0.2171 0.21701,0.70369 0,0.9207 -0.46033,0.46035 -2.30168,-0.46035 -2.76201,0 -0.21702,0.21701 0,0.6138 0,0.9207 0,0.3069 0,0.61379 0,0.92061 0,0.43418 0.0417,4.5617 0,4.60339 -0.21702,0.21701 -0.70368,-0.21701 -0.9207,0 -0.21699,0.21701 0.21702,0.70369 0,0.9207 -0.0296,0.0292 -2.53872,0 -2.76201,0 -0.3069,0 -0.61379,0 -0.92069,0 -0.30688,0 -0.92067,0.3069 -0.92067,0 0,-0.3069 1.22757,0 0.92067,0 -0.61378,0 -1.29236,-0.27448 -1.84135,0 -0.54898,0.27456 0.43402,1.40737 0,1.84139 -0.217,0.21701 -0.70367,-0.21701 -0.92067,0 -0.21701,0.21701 0.217,0.7036 0,0.92069 -0.21701,0.21693 -0.70367,-0.21709 -0.92067,0 -0.46035,0.46027 0.46034,2.30166 0,2.76201 -0.21701,0.217 -0.70367,-0.21701 -0.92068,0 -0.30627,0.30629 0.30626,1.53509 0,1.8413 -0.217,0.21701 -0.70367,-0.21701 -0.92067,0 -0.30627,0.3063 0.30626,1.5351 0,1.84139 -0.217,0.21701 -0.70368,-0.217 -0.92068,0 -0.21701,0.21701 0,0.6138 0,0.92061 0,0.3069 0,0.6138 0,0.92079 0,2.4551 0.3069,-0.30699 -0.92067,0.92061 -0.22156,0.22155 0.22153,3.46114 0,3.68278 -0.21701,0.21692 -0.70368,-0.21709 -0.92069,0 -0.217,0.21692 0,0.61371 0,0.92061 0,0.4341 0.0418,4.56162 0,4.60339 -1.22755,1.22751 -0.92067,-1.53449 -0.92067,0.92061 0,0.22336 0.0296,2.7325 0,2.76209 -0.217,0.21701 -0.70366,-0.21701 -0.92068,0 -0.21701,0.21701 0.21702,0.70369 0,0.92061 -0.30744,0.3075 -1.53389,-0.30741 -1.84134,0 -0.21702,0.2171 0.217,0.70369 0,0.9207 -0.43402,0.43401 -1.40735,-0.43402 -1.84136,0 -0.217,0.21701 0.21701,0.70369 0,0.92069 -0.217,0.21701 -0.70366,-0.217 -0.92068,0 -0.217,0.21701 0,0.6138 0,0.9207 0,1.84131 0,3.6827 0,5.524 0,0.64039 0.16647,4.27051 0,4.6034 -0.19408,0.38821 -0.72657,0.53248 -0.92067,0.92069 -0.57905,1.15812 1.32228,1.84131 -0.92067,1.84131 -1.22756,1.22759 -2.45513,2.45519 -3.6827,3.68278 0,0.30682 0.217,0.70361 0,0.92061 -1.90492,1.90495 0.0744,-2.9109 -1.84136,0.9207 -0.13724,0.27448 0.21701,0.70369 0,0.92069 -0.217,0.21701 -0.70366,-0.217 -0.92067,0 -0.21702,0.21701 0.21701,0.70369 0,0.9207 -0.21702,0.21692 -0.70368,-0.21701 -0.92067,0 -0.21702,0.21692 0.21699,0.7036 0,0.92062 -0.21702,0.21701 -0.70368,-0.21702 -0.92068,0 -0.21701,0.21701 0.217,0.70369 0,0.9207 -0.21701,0.21709 -0.70368,-0.21701 -0.92069,0 -0.21699,0.21709 0.21701,0.70368 0,0.92069 -0.21699,0.21701 -0.70366,-0.21701 -0.92067,0 -0.217,0.21701 0.21701,0.70369 0,0.9207 -0.217,0.217 -0.70367,-0.21701 -0.92067,0 -0.21701,0.217 0.217,0.7036 0,0.92069 -0.21701,0.21693 -0.70368,-0.21709 -0.92068,0 -0.217,0.21693 0.217,0.70361 0,0.92061 -0.217,0.21701 -0.70367,-0.217 -0.92067,0 -0.21701,0.21701 0.217,0.70369 0,0.9207 -0.21701,0.21701 -0.70367,-0.21701 -0.92068,0 -0.217,0.21701 0.21701,0.70369 0,0.9207 -0.217,0.217 -0.70367,-0.21701 -0.92067,0 -0.21701,0.217 0.217,0.7036 0,0.92061 -0.21701,0.217 -0.70368,-0.21701 -0.92067,0 -0.21702,0.217 0.21699,0.70368 0,0.92078 -0.21702,0.21692 -0.70368,-0.2171 -0.92068,0 -0.21701,0.21692 0.13724,0.64613 0,0.92061 -0.5524,1.10485 -2.20962,1.65723 -2.76203,2.76208 -0.13725,0.27448 0.21702,0.70361 0,0.92062 -0.21702,0.217 -0.64618,-0.13724 -0.92067,0 -0.24446,0.12222 -2.6398,2.51763 -2.76204,2.762 -0.13724,0.27456 0.21701,0.70369 0,0.92078 -0.21699,0.21692 -0.70367,-0.21709 -0.92067,0 -0.21701,0.21692 0.217,0.7036 0,0.92061 -0.21701,0.21701 -0.70368,-0.21701 -0.92067,0 -0.21701,0.21701 0.13723,0.64622 0,0.92069 -0.19411,0.38822 -0.72658,0.53249 -0.92068,0.92061 -0.13724,0.27457 0.217,0.70369 0,0.92079 -0.217,0.21692 -0.70367,-0.2171 -0.92068,0 -0.21699,0.21692 0.21701,0.7036 0,0.92061 -0.21699,0.217 -0.70366,-0.21701 -0.92067,0 -0.21701,0.217 0.13725,0.64622 0,0.92069 -0.19409,0.38813 -0.72658,0.53249 -0.92067,0.92061 -0.13726,0.27456 0.217,0.70369 0,0.9207 -0.21702,0.21701 -0.70368,-0.21701 -0.92067,0 -0.21702,0.21701 0.21699,0.70369 0,0.92069 -0.21702,0.21701 -0.70368,-0.217 -0.92069,0 -0.217,0.21701 0.13725,0.64622 0,0.9207 -0.1941,0.38813 -0.72658,0.53248 -0.92068,0.92061 0,2.45519 0.3069,-0.3069 -0.92067,0.9207 -0.30933,0.30938 0.30934,1.53209 0,1.84139 -0.21701,0.21701 -0.70368,-0.21701 -0.92067,0 -0.46034,0.46035 0.46034,2.30165 0,2.762 -0.21701,0.21701 -0.70368,-0.21701 -0.92067,0 -0.21702,0.21701 0,0.6138 0,0.9207 0,0.30689 0,0.61379 0,0.92061 0,0.30698 0,0.61379 0,0.92069 0,0.30699 0.21699,0.70378 0,0.9207 -0.21702,0.21701 -0.70368,-0.21692 -0.9207,0 -0.43399,0.43401 0.6138,1.84139 0,1.84139 -0.30687,0 0.3069,-0.9207 0,-0.9207 -1.9158,0 -0.37044,1.29116 -0.92067,1.84131 -0.21699,0.21701 -0.70367,-0.21701 -0.92067,0 -1.90491,1.90495 2.91095,-0.0746 -0.92067,1.84139 -0.2745,0.13724 -0.70368,-0.21701 -0.92068,0 -1.9049,1.90487 2.91096,-0.0746 -0.92068,1.84139 -0.27449,0.13716 -0.70366,-0.21709 -0.92067,0 -0.21701,0.21693 0.21701,0.70361 0,0.92061 -0.21701,0.21701 -0.64619,-0.13723 -0.92067,0 -0.3882,0.19411 -0.53249,0.72659 -0.92067,0.9207 -0.2745,0.13724 -0.70367,-0.21701 -0.92069,0 -0.217,0.21701 0.21702,0.70369 0,0.9207 -0.217,0.217 -0.70366,-0.21701 -0.92067,0 -0.217,0.217 0.21701,0.7036 0,0.92069 -0.217,0.21692 -0.70368,-0.21709 -0.92068,0 -0.21701,0.21692 0.217,0.7036 0,0.92061 -0.21701,0.21701 -0.64618,-0.13724 -0.92068,0 -0.38819,0.19411 -0.53248,0.72659 -0.92068,0.9207 -0.27449,0.13724 -0.70366,-0.21701 -0.92068,0 -0.21699,0.21701 0.21702,0.70369 0,0.92069 -0.21699,0.21701 -0.70365,-0.217 -0.92067,0 -0.217,0.21701 0.21702,0.70361 0,0.92061 -0.217,0.21701 -0.70368,-0.217 -0.92067,0 -0.21701,0.21701 0.21699,0.70369 0,0.92079 -0.21701,0.21692 -0.70368,-0.2171 -0.92067,0 -0.21701,0.21692 0.21699,0.7036 0,0.92061 -0.21701,0.217 -0.64618,-0.13724 -0.92069,0 -0.38818,0.1941 -0.53247,0.72659 -0.92067,0.92069 -0.27449,0.13724 -0.70366,-0.21701 -0.92067,0 -0.21702,0.21701 0.21701,0.70369 0,0.9207 -0.21702,0.21692 -0.92067,0.30681 -0.92067,0 0,-0.3069 1.13768,0.21692 0.92067,0 -0.61379,-0.3069 -1.22757,-0.6138 -1.84134,-0.9207 0,-0.3069 0.21699,-0.70369 0,-0.92069 -0.21702,-0.21701 -0.70368,0.217 -0.9207,0 -0.43401,-0.43402 0.43402,-1.40729 0,-1.8414 -0.21699,-0.217 -0.70366,0.21701 -0.92067,0 -0.43401,-0.43393 0.43402,-1.40729 0,-1.8413 -0.21699,-0.21701 -0.70367,0.21701 -0.92067,0 -0.21702,-0.21701 0.217,-0.70369 0,-0.9207 -0.21702,-0.21701 -0.70368,0.21701 -0.92067,0 -0.21702,-0.21701 0.21699,-0.70369 0,-0.92061 -0.21702,-0.21709 -0.61379,0 -0.92069,0 -0.30688,0 -0.70366,-0.21709 -0.92068,0 0,2.45511 0.3069,-0.30698 -0.92067,0.92061 -0.32353,0.32354 0.32354,1.51786 0,1.84139 -0.217,0.21701 -0.70367,-0.217 -0.92067,0 -0.434,0.43402 0.43401,1.40738 0,1.8414 -0.21701,0.21692 -0.70368,-0.2171 -0.92067,0 -0.21701,0.21692 0.21699,0.7036 0,0.92061 -0.21701,0.217 -0.70368,-0.21701 -0.92068,0 -0.217,0.217 0.13724,0.64622 0,0.92069 -0.1941,0.38821 -0.72658,0.53249 -0.92067,0.9207 -0.13726,0.27447 0.217,0.7036 0,0.92069 -0.217,0.21693 -0.70367,-0.21709 -0.92068,0 -0.43401,0.43402 0.434,1.40729 0,1.84131 -0.21701,0.21701 -0.70368,-0.21701 -0.92067,0 -0.21701,0.21701 0.21699,0.70369 0,0.9207 -0.21701,0.217 -0.70368,-0.21701 -0.92067,0 -0.43403,0.43401 0.434,1.40729 0,1.84139 -0.21702,0.21692 -0.70368,-0.2171 -0.9207,0 -0.434,0.43401 0.43402,1.40729 0,1.8413 -0.21699,0.21701 -0.70365,-0.217 -0.92067,0 -0.21699,0.21701 0.21702,0.70369 0,0.92061 -0.21699,0.21701 -0.70367,-0.21692 -0.92067,0 -0.90823,0.90826 1.88654,1.8414 -0.92067,1.8414 -1.50664,0.42423 -0.64633,-6.81671 -0.92069,-7.3654 -0.19409,-0.38821 -0.72658,-0.53248 -0.92067,-0.9207 -0.13725,-0.27447 0,-0.61379 0,-0.92061 0,-0.30698 0,-0.61388 0,-0.92069 0,-1.5345 0,-3.06899 0,-4.6034 0,-0.30689 0.13725,-0.64622 0,-0.92069 -0.19409,-0.38821 -0.72659,-0.53249 -0.92068,-0.9207 -0.27448,-0.54895 0.43402,-1.40729 0,-1.8413 -0.217,-0.21701 -0.70367,0.217 -0.92067,0 -0.217,-0.21701 0.13724,-0.64622 0,-0.9207 -0.19408,-0.38821 -0.72658,-0.53248 -0.92067,-0.9207 -0.13725,-0.27447 0.13723,-0.64613 0,-0.92061 -0.19411,-0.38821 -0.72658,-0.53248 -0.92068,-0.92069 -0.13724,-0.27448 0.13724,-0.64622 0,-0.9207 -0.1941,-0.38821 -0.72658,-0.53248 -0.92067,-0.92069 -0.13726,-0.27448 0.217,-0.70369 0,-0.9207 -0.217,-0.21701 -0.70368,0.21701 -0.92067,0 -0.43402,-0.43393 0.434,-1.40729 0,-1.84131 -0.21702,-0.217 -0.70368,0.21701 -0.92068,0 -0.21701,-0.217 0.217,-0.70368 0,-0.92069 -0.21701,-0.21692 -0.70368,0.21701 -0.92069,0 -0.21699,-0.21692 0.21701,-0.7036 0,-0.9207 -0.21699,-0.21701 -0.70366,0.2171 -0.92067,0 -0.217,-0.21701 0.21701,-0.70369 0,-0.92069 -0.217,-0.21693 -0.70366,0.217 -0.92068,0 -0.21701,-0.21693 0.21702,-0.70361 0,-0.92061 -0.21701,-0.21701 -0.70367,0.217 -0.92067,0 -0.43401,-0.43402 0.43401,-1.40738 0,-1.8414 -0.21701,-0.21692 -0.70367,0.2171 -0.92067,0 -0.21701,-0.21692 0.217,-0.70368 0,-0.92069 -0.21701,-0.21701 -0.70368,0.21701 -0.92069,0 -0.21699,-0.21701 0.21701,-0.7036 0,-0.92061 -0.21699,-0.21701 -0.61377,0 -0.92067,0 0,-0.3069 0.21701,-0.70369 0,-0.9207 -0.217,-0.21701 -0.70366,0.21701 -0.92067,0 -0.21701,-0.21701 0.21701,-0.70369 0,-0.92069 -0.30715,-0.30716 -1.53421,0.30715 -1.84135,0 -0.21701,-0.21693 0.217,-0.70361 0,-0.9207 -0.43402,-0.43401 -1.40735,0.43402 -1.84135,0 -0.217,-0.21701 0.217,-0.7036 0,-0.92061 -0.43402,-0.43401 -1.40734,0.43402 -1.84135,0 -0.21701,-0.21701 0,-0.6138 0,-0.9207 0,-0.4341 0.0418,-4.56162 0,-4.6033 -0.21701,-0.2171 -0.70367,0.21692 -0.92069,0 -0.30595,-0.30604 0.30597,-1.53544 0,-1.8414 -0.21699,-0.217 -0.70365,0.21701 -0.92067,0 -0.90822,-0.90825 1.88654,-1.8413 -0.92067,-1.8413 0.4705,-5.55746 -3.49687,0.18578 -4.60338,-0.92078 -0.21701,-0.21701 0.217,-0.70369 0,-0.9207 -0.22153,-0.22147 -3.46117,0.22164 -3.6827,0 -0.21701,-0.21692 0.21701,-0.7036 0,-0.92061 -0.21701,-0.21701 -0.61377,0 -0.92067,0 -1.53447,0 -3.06893,0 -4.60338,0 -0.3069,0 -0.70368,0.21701 -0.92067,0 -0.21702,-0.21701 0.21699,-0.70369 0,-0.92069 -0.21702,-0.21701 -0.6138,0 -0.9207,0 -0.30687,0 -0.61377,0 -0.92067,0 -1.84134,0 -3.6827,0 -5.52404,0 -0.3069,0 -0.6138,0 -0.92067,0 -0.3069,0 -0.64619,0.13723 -0.9207,0 -0.38818,-0.19411 -0.53247,-0.72659 -0.92067,-0.92062 -0.55904,-0.27953 -4.96498,0.27946 -5.52405,0 -0.3882,-0.1941 -0.53249,-0.72658 -0.92067,-0.92078 -0.36505,-0.18244 -2.57381,0.18828 -2.76203,0 -0.21701,-0.217 0.21701,-0.7036 0,-0.92061 -0.43401,-0.43401 -1.40734,0.43402 -1.84134,0 -0.21702,-0.217 0.217,-0.70369 0,-0.92069 -0.22156,-0.22156 -3.46117,0.22155 -3.68271,0 -0.21701,-0.21701 0.21699,-0.70369 0,-0.92061 -0.0418,-0.042 -4.16928,0 -4.60338,0 -0.30689,0 -1.22756,0 -0.92068,0 0.61379,0 1.84135,0.61371 1.84135,0 0,-1.05802 -2.10135,-0.92078 -2.76202,-0.92078 -2.45514,0 0.3069,0.30689 -0.92068,-0.92061 -0.43401,-0.43402 -1.29237,0.27447 -1.84134,0 -0.3882,-0.19411 -0.53249,-0.72659 -0.92069,-0.9207 -0.54899,-0.27448 -1.40734,0.43401 -1.84134,0 -0.21702,-0.21701 0.21699,-0.70369 0,-0.9207 -0.43402,-0.43393 -1.40734,0.43402 -1.84137,0 -0.21699,-0.217 0.21701,-0.70368 0,-0.92061 -0.18822,-0.18827 -2.39698,0.18244 -2.76202,0 -0.38819,-0.1941 -0.5325,-0.72659 -0.92068,-0.92069 -0.63594,-0.31797 -4.28018,0.32319 -4.60338,0 -0.21701,-0.21701 0.21701,-0.70369 0,-0.9207 -0.43401,-0.43401 -1.40734,0.43402 -1.84135,0 -0.21701,-0.21701 0.217,-0.7036 0,-0.92069 -0.30714,-0.30716 -1.53422,0.30715 -1.84136,0 -0.21699,-0.21701 0.21701,-0.70369 0,-0.9207 -0.46033,-0.46027 -2.30168,0.46035 -2.76201,0 -0.21701,-0.21702 0.21699,-0.7037 0,-0.92062 -0.21701,-0.21701 -0.61379,0 -0.92068,0 -1.84135,0 -3.68271,0 -5.52406,0 -0.22329,0 -2.73241,0.0292 -2.76203,0 -0.217,-0.21701 0.21701,-0.70369 0,-0.9207 -0.22152,-0.22155 -3.46112,0.22156 -3.68269,0 -0.21701,-0.217 0.21699,-0.70368 0,-0.92069 -0.46034,-0.46035 -2.3017,0.46035 -2.76203,0 -0.21701,-0.21692 0.217,-0.70369 0,-0.9207 -0.22153,-0.22146 -3.46114,0.22156 -3.68271,0 -0.21701,-0.217 0.21701,-0.70369 0,-0.92061 -0.43401,-0.43401 -1.40734,0.43393 -1.84135,0 -0.21701,-0.21709 0.21701,-0.70369 0,-0.92069 -0.28508,-0.28512 -4.3183,0.28502 -4.60337,0 -0.21701,-0.21701 0.21699,-0.70369 0,-0.9207 -0.0295,-0.0292 -2.53875,0 -2.76203,0 -0.2233,0 -2.73241,0.0292 -2.76203,0 -0.21701,-0.21692 0.21701,-0.7036 0,-0.92069 -0.46034,-0.46035 -2.30169,0.46034 -2.76203,0 -0.21701,-0.21701 0.21701,-0.70369 0,-0.9207 -0.21701,-0.21701 -0.61378,0 -0.92068,0 -0.30689,0 -0.61378,0 -0.92067,0 -1.84135,0 -3.6827,0 -5.52405,0 -0.30689,0 -0.70367,0.21701 -0.92068,0 -0.217,-0.21701 0.21701,-0.7036 0,-0.92061 -0.46034,-0.46035 -2.30169,0.46035 -2.76203,0 -0.217,-0.21701 0.21701,-0.70369 0,-0.9207 -0.0368,-0.0369 -3.34457,0 -3.6827,0 -0.30689,0 -0.70367,-0.217 -0.92068,0 -0.21699,0.21701 0.21701,0.70369 0,0.9207 -0.0369,0.0369 -3.34456,0 -3.68269,0 -0.3069,0 -0.70367,0.21701 -0.92068,0 -0.21701,-0.21701 0.21701,-0.70369 0,-0.9207 -0.21701,-0.217 -0.61378,0 -0.92068,0 -0.30689,0 -0.70366,-0.217 -0.92067,0 -0.21701,0.21701 0,0.6138 0,0.9207 -0.30689,-0.9207 -0.61379,-1.84139 -0.92068,-2.76209 -0.30689,0 -0.70367,0.21709 -0.92067,0 -0.46034,-0.46035 0.46033,-2.30165 0,-2.762 -0.21701,-0.21692 -0.70367,0.21701 -0.92068,0 -0.30625,-0.30621 0.30626,-1.53501 0,-1.84131 -0.21701,-0.217 -0.70367,0.21693 -0.92068,0 -0.217,-0.217 0.21701,-0.70368 0,-0.92069 -0.217,-0.21701 -0.70367,0.21701 -0.92067,0 -0.217,-0.21701 0.217,-0.70369 0,-0.9207 -0.217,-0.21701 -0.70367,0.21701 -0.92068,0 -0.217,-0.21701 0.21701,-0.70369 0,-0.92069 -0.217,-0.21693 -0.70367,0.217 -0.92067,0 -0.217,-0.21693 0.217,-0.70361 0,-0.9207 -0.217,-0.21701 -0.70368,0.21709 -0.92068,0 -0.217,-0.21701 0.217,-0.7036 0,-0.92061 -0.217,-0.21701 -0.70367,0.21701 -0.92067,0 -0.21701,-0.21701 0.217,-0.70369 0,-0.9207 -0.0418,-0.042 -4.16927,0 -4.60338,0 -0.30689,0 -1.22757,0 -0.92068,0 0.61379,0 2.45514,0 1.84136,0 -0.92068,0 -1.84136,0 -2.76203,0 -0.3069,0 -0.70367,-0.217 -0.92068,0 -0.21701,0.21701 0.21701,0.70369 0,0.9207 -0.21701,0.21701 -0.70367,-0.21701 -0.92068,0 -0.217,0.21701 0.21701,0.7036 0,0.92061 -0.217,0.21709 -0.70367,-0.21701 -0.92067,0 -0.46034,0.46035 0.46034,2.30174 0,2.76209 -0.217,0.21701 -0.70367,-0.21701 -0.92068,0 -0.30625,0.3063 0.30626,1.53509 0,1.8413 -0.217,0.2171 -0.70367,-0.21692 -0.92067,0 -0.217,0.2171 0,0.61389 0,0.9207 0,0.3069 0,1.22759 0,0.9207 0,-0.6138 0,-1.22751 0,-1.8414 -2.93532,0.95801 -5.41555,0.9207 -8.28608,0.9207 -0.30689,0 -0.61379,0 -0.92068,0 -0.30689,0 -0.70367,0.21701 -0.92067,0 -0.21701,-0.21692 0.217,-0.7036 0,-0.9207 -0.43401,-0.43401 -1.29236,0.27457 -1.84136,0 -0.38817,-0.19402 -0.53249,-0.7265 -0.92067,-0.92061 -0.549,-0.27447 -1.40734,0.43393 -1.84135,0 -0.217,-0.217 0.217,-0.70368 0,-0.92069 -0.0295,-0.0292 -2.53874,0 -2.76203,0 -2.14824,0 -4.29648,0 -6.44473,0 -0.4146,0 -2.4818,0.14015 -2.76202,0 -0.38818,-0.19411 -0.5325,-0.72659 -0.92067,-0.9207 -0.36506,-0.18244 -2.57381,0.18819 -2.76203,0 -0.21701,-0.21701 0.217,-0.70369 0,-0.92069 -0.22153,-0.22147 -3.46114,0.22155 -3.68271,0 -0.217,-0.21693 0.21701,-0.70361 0,-0.9207 -0.22152,-0.22147 -3.46113,0.22164 -3.6827,0 -0.217,-0.21701 0.217,-0.7036 0,-0.92061 -0.18822,-0.18819 -2.39698,0.18253 -2.76202,0 -0.38819,-0.19411 -0.5325,-0.72659 -0.92068,-0.9207 -0.27448,-0.13723 -0.64615,0.13724 -0.92067,0 -0.38819,-0.1941 -0.53245,-0.72659 -0.92068,-0.92069 -0.27448,-0.13724 -0.64615,0.13732 -0.92068,0 -0.38818,-0.19402 -0.53249,-0.72651 -0.92067,-0.9207 -0.27448,-0.13724 -0.64616,0.13733 -0.92068,0 -0.38819,-0.19402 -0.53249,-0.7265 -0.92068,-0.92061 -0.27447,-0.13724 -0.70367,0.21701 -0.92067,0 -0.21701,-0.21701 0.217,-0.70369 0,-0.92069 -0.46034,-0.46027 -2.30169,0.46034 -2.76203,0 -0.217,-0.21701 0.21701,-0.70369 0,-0.9207 -0.217,-0.21701 -0.70367,0.21701 -0.92068,0 -0.217,-0.21701 0.21701,-0.70369 0,-0.9207 -0.217,-0.21692 -0.70367,0.21701 -0.92067,0 -0.217,-0.21692 0.13729,-0.64613 0,-0.92061 -0.19407,-0.38821 -0.72656,-0.53257 -0.92067,-0.92069 -0.13724,-0.27448 0.217,-0.70369 0,-0.92061 -0.21701,-0.2171 -0.70368,0.21692 -0.92068,0 -0.217,-0.2171 0.217,-0.70378 0,-0.92078 -0.30743,-0.30742 -1.53387,0.30749 -1.84135,0 -0.21701,-0.21701 0.21701,-0.70361 0,-0.92061 -0.21701,-0.21701 -0.64615,0.13723 -0.92068,0 -0.38818,-0.19411 -0.53249,-0.72659 -0.92067,-0.9207 -0.27448,-0.13724 -0.70367,0.21701 -0.92068,0 -0.21701,-0.21701 0.21701,-0.70369 0,-0.92061 -0.21701,-0.21709 -0.64615,0.13715 -0.92068,0 -0.38818,-0.19419 -0.53249,-0.72668 -0.92067,-0.9207 -0.27447,-0.13732 -0.70367,0.21693 -0.92068,0 -0.217,-0.21709 0.21701,-0.70377 0,-0.92078 -0.434,-0.43393 -1.29235,0.27456 -1.84135,0 -0.38818,-0.19402 -0.53244,-0.7265 -0.92067,-0.92061 -0.27447,-0.13724 -0.64616,0.13724 -0.92068,0 -0.38818,-0.1941 -0.53249,-0.72659 -0.92067,-0.92069 -0.27448,-0.13724 -0.70367,0.217 -0.92068,0 -0.217,-0.21701 0.21701,-0.70369 0,-0.92061 -0.217,-0.2171 -0.64615,0.13715 -0.92067,0 -0.38819,-0.19411 -0.53245,-0.72659 -0.92068,-0.92079 -0.27448,-0.13723 -0.70367,0.21701 -0.92067,0 -0.21701,-0.217 0.217,-0.7036 0,-0.92061 -0.30714,-0.30715 -1.53422,0.30716 -1.84136,0 -0.217,-0.217 0.21701,-0.70368 0,-0.92069 -0.43401,-0.43402 -1.40734,0.43401 -1.84135,0 -0.21701,-0.21701 0.21701,-0.70369 0,-0.9207 -0.30546,-0.30552 -1.53583,0.30553 -1.84135,0 -0.217,-0.21701 0.217,-0.70369 0,-0.92061 -0.43401,-0.4341 -1.29235,0.27448 -1.84135,0 -0.38818,-0.1941 -0.5325,-0.72659 -0.92067,-0.92069 -0.549,-0.27448 -1.29236,0.27447 -1.84135,0 -0.38819,-0.19411 -0.5325,-0.72659 -0.92068,-0.9207 -0.549,-0.27448 -1.40734,0.43402 -1.84135,0 -0.21701,-0.21701 0.217,-0.7036 0,-0.9207 -0.43402,-0.43401 -1.40734,0.43402 -1.84136,0 -0.217,-0.217 0.21701,-0.70368 0,-0.92061 -0.217,-0.21709 -0.70367,0.21693 -0.92067,0 -0.21701,-0.21709 0.217,-0.70368 0,-0.92069 -0.21701,-0.21701 -0.6462,0.13724 -0.92068,0 -0.77636,-0.38821 -1.06493,-1.45318 -1.84135,-1.84139 -0.27447,-0.13724 -0.70367,0.21709 -0.92068,0 -0.21699,-0.21701 0.21701,-0.70369 0,-0.9207 -0.21699,-0.21701 -0.70367,0.21701 -0.92067,0 -0.217,-0.21701 0.217,-0.70369 0,-0.92061 -0.217,-0.21701 -0.70367,0.21692 -0.92067,0 -0.21701,-0.21701 0.217,-0.70369 0,-0.9207 -0.21701,-0.217 -0.70368,0.21701 -0.92068,0 -0.217,-0.217 0.217,-0.7036 0,-0.92069 -0.217,-0.21692 -0.70367,0.21709 -0.92067,0 -0.21701,-0.21692 0.217,-0.7036 0,-0.9207 -0.21701,-0.21701 -0.70367,0.2171 -0.92068,0 -0.21701,-0.21701 0.21701,-0.70369 0,-0.92069 -0.21701,-0.21701 -0.70367,0.217 -0.92068,0 -0.217,-0.21701 0.13724,-0.64614 0,-0.92061 -0.19406,-0.38822 -0.72656,-0.53249 -0.92067,-0.9207 -0.13724,-0.27448 0.21701,-0.7036 0,-0.9207 -0.21701,-0.21692 -0.70367,0.2171 -0.92068,0 -0.21701,-0.21692 0.21701,-0.70368 0,-0.92069 -0.21701,-0.21701 -0.70367,0.21701 -0.92067,0 -0.21701,-0.21701 0.217,-0.7036 0,-0.92061 -0.21701,-0.21701 -0.70367,0.21701 -0.92068,0 -1.22757,-1.22751 1.53446,-0.9207 -0.92068,-0.9207 -0.61378,-1.22759 -1.22756,-2.45519 -1.84134,-3.6827 0,-0.30689 0.13723,-0.64613 0,-0.92069 -0.19412,-0.38821 -0.72656,-0.5324 -0.92068,-0.9207 -0.13723,-0.27447 0.13723,-0.64613 0,-0.92061 -0.19407,-0.38821 -0.72656,-0.53248 -0.92067,-0.92069 -0.13724,-0.27448 0.217,-0.70369 0,-0.9207 -0.21701,-0.21701 -0.70367,0.21701 -0.92068,0 -0.21701,-0.21701 0.21701,-0.70369 0,-0.92069 -0.21701,-0.21693 -0.70367,0.217 -0.92068,0 -0.217,-0.21693 0.13724,-0.64614 0,-0.92062 -0.19412,-0.38821 -0.72656,-0.53248 -0.92067,-0.92069 -0.13724,-0.27448 0.21701,-0.70369 0,-0.9207 -0.21701,-0.217 -0.70367,0.21701 -0.92068,0 0,-2.4551 0.30689,0.3069 -0.92067,-0.92069 -0.21701,-0.21701 0.217,-0.70361 0,-0.92061 -0.30523,-0.30527 -1.53613,0.30518 -1.84136,0 -0.217,-0.21701 0.13724,-0.64622 0,-0.9207 -0.19411,-0.38821 -0.72655,-0.53248 -0.92067,-0.92069 -0.13724,-0.27448 0.217,-0.70369 0,-0.9207 -0.21701,-0.21701 -0.70367,0.21701 -0.92068,0 -0.217,-0.21701 0.13724,-0.64613 0,-0.92061 -0.19406,-0.38821 -0.72655,-0.53248 -0.92068,-0.9207 -0.13722,-0.27447 0.21701,-0.70368 0,-0.92069 -0.21699,-0.21701 -0.70367,0.21701 -0.92067,0 -0.217,-0.21701 0,-0.6138 0,-0.9207 -0.30689,0 -0.70367,0.21701 -0.92067,0 -0.21701,-0.21701 0.217,-0.7036 0,-0.92069 -0.21701,-0.21693 -0.70368,0.21709 -0.92067,0 -0.21701,-0.21693 0.21699,-0.70361 0,-0.92061 -0.21701,-0.21701 -0.64621,0.13723 -0.92068,0 -1.10482,-0.55239 -1.65721,-2.20962 -2.76203,-2.76201 -0.27448,-0.13732 -0.70367,0.21693 -0.92068,0 -0.217,-0.217 0.21701,-0.70368 0,-0.92069 -0.217,-0.21701 -0.70367,0.21701 -0.92067,0 -0.21701,-0.21701 0.217,-0.70369 0,-0.9207 -0.21701,-0.21701 -0.70367,0.21701 -0.92068,0 -0.21701,-0.21701 0.21701,-0.70369 0,-0.92069 -0.21701,-0.21701 -0.70367,0.217 -0.92068,0 -0.217,-0.21701 0.21701,-0.70369 0,-0.9207 -0.217,-0.21701 -0.70366,0.21701 -0.92067,0 -0.21701,-0.21701 0.21701,-0.7036 0,-0.92061 -0.21701,-0.21701 -0.70367,0.21701 -0.92068,0 -0.21701,-0.21701 0,-0.6138 0,-0.9207 -0.30689,0 -0.70367,0.21701 -0.92067,0 -0.21701,-0.217 0.217,-0.70368 0,-0.92069 -0.21701,-0.21701 -0.70367,0.21701 -0.92068,0 0,-2.45511 0.30689,0.3069 -0.92068,-0.9207 -0.21699,-0.21701 0.21701,-0.7036 0,-0.92061 -0.21699,-0.21701 -0.70367,0.21701 -0.92067,0 -0.217,-0.21701 0.217,-0.70369 0,-0.92069 -0.217,-0.21701 -0.70367,0.217 -0.92067,0 -0.21701,-0.21701 0.217,-0.70369 0,-0.9207 -0.21701,-0.21701 -0.70368,0.21701 -0.92068,0 -0.217,-0.21701 0.217,-0.70369 0,-0.9207 -0.217,-0.217 -0.70367,0.21701 -0.92067,0 -0.21701,-0.217 0.217,-0.70368 0,-0.92061 -0.21701,-0.217 -0.70367,0.21693 -0.92068,0 -0.21701,-0.217 0.21701,-0.70368 0,-0.92069 -0.21701,-0.21701 -0.70367,0.21701 -0.92067,0 -0.21701,-0.21701 0.217,-0.70369 0,-0.9207 -0.21701,-0.21701 -0.70367,0.21701 -0.92068,0 -0.21701,-0.21701 0.21701,-0.70369 0,-0.92069 -0.30552,-0.30544 -1.53584,0.30552 -1.84135,0 -0.21701,-0.21701 0.217,-0.70361 0,-0.92061 -0.43402,-0.43402 -1.40734,0.43393 -1.84136,0 -0.217,-0.2171 0.21701,-0.70369 0,-0.9207 -0.46033,-0.46035 -2.30169,0.46035 -2.76203,0 -0.21699,-0.21701 0.21701,-0.70369 0,-0.9207 -0.434,-0.43401 -1.40733,0.43402 -1.84134,0 -0.21701,-0.217 0.217,-0.70368 0,-0.92069 -0.30743,-0.30742 -1.53387,0.3075 -1.84135,0 -0.21701,-0.21701 0.217,-0.70369 0,-0.9207 -0.30552,-0.30544 -1.53583,0.30553 -1.84135,0 -0.21701,-0.21692 0.217,-0.7036 0,-0.92061 -0.43402,-0.43401 -1.40734,0.43402 -1.84136,0 -0.217,-0.21701 0.21701,-0.70369 0,-0.92069 -0.0295,-0.0292 -2.53873,0 -2.76203,0 -0.33807,0 -3.64566,0.0369 -3.6827,0 -0.217,-0.21701 0.21701,-0.70369 0,-0.9207 -0.217,-0.21701 -0.61378,0 -0.92067,0 -1.84135,0 -3.6827,0 -5.52405,0 -0.3069,0 -0.61379,0 -0.92068,0 -0.30689,0 -0.70367,0.21701 -0.92068,0 -0.217,-0.21701 0.13724,-0.64613 0,-0.9207 -0.19411,-0.38812 -0.72655,-0.53248 -0.92067,-0.92061 -0.13724,-0.27447 0.13723,-0.64622 0,-0.92069 -0.19407,-0.38821 -0.726562,-0.53249 -0.920677,-0.9207 -0.137238,-0.27447 0.137238,-0.64613 0,-0.92069 -0.194115,-0.38813 -0.726555,-0.53249 -0.920679,-0.92061 -0.137238,-0.27457 0.217008,-0.70369 0,-0.9207 -0.216999,-0.21701 -0.703671,0.21701 -0.92067,0 -0.434015,-0.43402 0.434007,-1.40738 0,-1.84139 -0.217008,-0.21701 -0.703671,0.21701 -0.920679,0 -0.217007,-0.21701 0.217008,-0.7036 0,-0.9207 -0.217007,-0.21692 -0.703671,0.2171 -0.920678,0 -0.434007,-0.43393 0.434015,-1.40729 0,-1.8413 -0.217,-0.21701 -0.703663,0.217 -0.920671,0 -0.217007,-0.21701 0.217008,-0.70369 0,-0.9207 -0.217007,-0.21701 -0.703671,0.21701 -0.920678,0 -0.217008,-0.21701 0.217007,-0.70369 0,-0.9207 -0.434007,-0.43401 -1.841349,0.6138 -1.841349,0 0,-0.30681 1.227568,0 0.920678,0 -0.613788,0 -1.227568,0 -1.841357,0 -0.30689,0 -0.703671,-0.21692 -0.92067,0 -0.217008,0.21701 0.216999,0.70369 0,0.9207 -0.217008,0.21701 -0.613789,0 -0.920679,0 -0.30689,0 -0.703671,0.21701 -0.920679,0 -0.216999,-0.21701 0.217008,-0.70369 0,-0.9207 -0.02951,-0.0292 -2.538733,0 -2.762028,0 -0.61378,0 -2.455129,0 -1.841348,0 0.613788,0 2.455137,0 1.841348,0 -0.92067,0 -1.888601,-0.29111 -2.762019,0 -0.291125,0.0971 0.216999,0.70369 0,0.9207 -0.02951,0.03 -2.538741,0 -2.762027,0 -0.338138,0 -3.64567,0.0369 -3.682707,0 -0.217008,-0.21701 0.217008,-0.70369 0,-0.9207 -0.434007,-0.43401 -1.407342,0.43411 -1.841349,0 -0.217008,-0.21692 0.217008,-0.7036 0,-0.92061 -0.217008,-0.217 -0.703671,0.21701 -0.920679,0 -0.216999,-0.217 0.217008,-0.70368 0,-0.92069 -0.216999,-0.21701 -0.703671,0.21701 -0.92067,0 -0.217008,-0.21701 0.216999,-0.70369 0,-0.9207 -0.217008,-0.217 -0.703671,0.21701 -0.920679,0 -0.434006,-0.43401 0.434007,-1.40729 0,-1.8413 -0.217007,-0.21701 -0.703671,0.217 -0.920678,0 -0.217,-0.21701 0.217007,-0.70369 0,-0.9207 -0.217,-0.21701 -0.703671,0.21701 -0.920671,0 -0.02951,-0.0292 0,-2.53873 0,-2.762 0,-0.6138 0,-1.2276 0,-1.84139 0,-0.3069 -0.30689,-0.9207 0,-0.9207 0.30689,0 0.217,1.1377 0,0.9207 -0.30689,-0.6138 -0.613788,-1.2276 -0.920678,-1.84131 -0.30689,0 -0.703671,0.21701 -0.920679,0 -0.216999,-0.21701 0.217008,-0.70369 0,-0.9207 -0.216999,-0.217 -0.703663,0.21701 -0.92067,0 0,-2.45518 0.30689,0.3069 -0.920679,-0.92069 -0.216999,-0.21701 0.217008,-0.70369 0,-0.9207 -0.216999,-0.217 -0.703671,0.21701 -0.92067,0 -0.217008,-0.217 0.216999,-0.70369 0,-0.92061 -0.305518,-0.30552 -1.53584,0.30544 -1.841357,0 -1.227569,-1.22759 1.534458,-0.92069 -0.920671,-0.92069 -0.306898,0 -1.227568,0 -0.920678,0 0.61378,0 2.455137,0 1.841349,0 -0.920671,0 -1.888602,0.29111 -2.762028,0 -0.291125,-0.0971 0.217008,-0.70369 0,-0.9207 -0.0368,-0.0369 -3.344569,0 -3.682698,0 -0.30689,0 -0.703671,-0.21701 -0.920679,0 -0.216999,0.21701 0.217008,0.70369 0,0.9207 -0.02951,0.0292 -2.538733,0 -2.762028,0 -0.61378,0 -1.22756,0 -1.841348,0 -0.30689,0 -0.920679,0.3069 -0.920679,0 0,-0.3069 1.227569,0 0.920679,0 -0.61378,0 -1.227569,0 -1.841349,0 -0.30689,0 -0.920679,0.3069 -0.920679,0 0,-0.3069 0.920679,0.3069 0.920679,0 0,-0.43402 -0.726564,-0.53249 -0.920679,-0.9207 -0.137238,-0.27447 -0.30689,-0.92069 0,-0.92069 0.30689,0 0,0.61379 0,0.92069"
         style="fill:none;fill-rule:evenodd;stroke:#000000;stroke-width:0.16221581px;stroke-linecap:butt;stroke-linejoin:miter;stroke-opacity:1" />
      <path
         inkscape:connector-curvature="0"
         id="path3587"
         d="m 26.428571,585.21935 c 7.194174,1.56773 1.161166,-2.58974 2.142858,-3.57143 0.168358,-0.16836 0.545927,0.16836 0.714285,0 0.168359,-0.16836 -0.168358,-0.54593 0,-0.71429 0.168359,-0.16836 0.501327,0.10648 0.714286,0 0.301169,-0.15058 0.413116,-0.5637 0.714286,-0.71428 0.212959,-0.10648 0.545927,0.16836 0.714285,0 0.168359,-0.16836 -0.168358,-0.54593 0,-0.71429 0.236817,-0.23682 1.191755,0.23682 1.428572,0 0.168359,-0.16836 0,-0.47619 0,-0.71428 0.238095,0 0.545927,0.16835 0.714286,0 0.168358,-0.16836 -0.168359,-0.54593 0,-0.71429 0.168358,-0.16836 0.545927,0.16836 0.714285,0 0.168359,-0.16836 -0.168358,-0.54593 0,-0.71429 0.168359,-0.16835 0.501327,0.10648 0.714286,0 0.301169,-0.15058 0.413116,-0.5637 0.714286,-0.71428 0.212959,-0.10648 0.545927,0.16836 0.714285,0 0.168359,-0.16836 -0.168358,-0.54593 0,-0.71429 0.336718,-0.33671 1.091854,0.33672 1.428572,0 0.168359,-0.16836 -0.168359,-0.54592 0,-0.71428 0.168359,-0.16836 0.714286,-0.2381 0.714286,0 0,0.23809 -0.952381,0 -0.714286,0 0.47619,0 0.952381,0 1.428571,0 0.238096,0 0.545927,0.16836 0.714286,0 0.952381,-0.95238 -1.190476,-0.71429 0.714286,-0.71429 0.238095,0 0.47619,0 0.714285,0 0.238096,0 0.545927,0.16836 0.714286,0 0.168359,-0.16836 -0.168359,-0.54593 0,-0.71428 0.168359,-0.16836 0.476191,0 0.714286,0 0.173233,0 2.119886,-0.023 2.142857,0 0.168359,0.16835 -0.168359,0.54592 0,0.71428 0.168359,0.16836 0.545927,-0.16836 0.714286,0 0.168359,0.16836 -0.168359,0.54593 0,0.71429 0.168359,0.16836 0.545927,-0.16836 0.714285,0 0.168359,0.16836 -0.106479,0.50132 0,0.71428 0.150585,0.30117 0.563702,0.41312 0.714286,0.71429 0.10648,0.21296 -0.168359,0.54593 0,0.71428 0.168359,0.16836 0.545927,-0.16835 0.714286,0 0.168359,0.16836 0,0.47619 0,0.71429 0,0.37351 -0.09391,2.66933 0,2.85714 0.150585,0.30117 0.47619,0.47619 0.714286,0.71429"
         style="fill:none;fill-rule:evenodd;stroke:#000000;stroke-width:1px;stroke-linecap:butt;stroke-linejoin:miter;stroke-opacity:1" />
    </g>
  </g>
</svg>
