<svg xmlns="http://www.w3.org/2000/svg" width="210mm" height="297mm" viewBox="0 0 744.09448819 1052.3622047"><g fill="none" stroke="#000"><path d="M26.689 585.812c0-1.227.297-2.491 0-3.682-.075-.298-.704.217-.92 0-.253-.252.249-3.184 0-3.683-.195-.388-.728-.532-.922-.92-.137-.275 0-.614 0-.921v-5.524c0-.307-.217-.704 0-.921.217-.217.704.217.921 0 .285-.285-.285-4.318 0-4.603.217-.217.704.217.92 0 .435-.434-.274-1.293 0-1.842.195-.388.727-.532.921-.92.275-.55-.434-1.408 0-1.842.217-.217.704.217.921 0 .306-.306-.306-1.535 0-1.841.217-.217.704.217.92 0 .218-.217-.136-.646 0-.92.123-.245 2.518-2.64 2.763-2.763.274-.137.703.217.92 0 .217-.217-.217-.704 0-.92.217-.218.704.216.921 0 .217-.218-.217-.704 0-.921.306-.306 1.536.305 1.842 0 .217-.217-.217-.704 0-.92.434-.435 1.407.433 1.84 0 .218-.218-.216-.705 0-.922.308-.307 1.535.308 1.842 0 .217-.217-.217-.703 0-.92.306-.306 1.536.305 1.842 0 .217-.217-.217-.704 0-.92 2.455 0-.307.306.92-.922.307-.307 1.534.308 1.842 0 .217-.217-.217-.703 0-.92.217-.217.703.217.92 0 .217-.217-.217-.704 0-.921.217-.217.704.217.92 0 .218-.217-.216-.704 0-.92.218-.218.705.216.922 0 .217-.218-.217-.704 0-.921.217-.217.703.217.92 0 .217-.217-.217-.704 0-.921.217-.217.704.217.921 0 .217-.217-.217-.704 0-.92.434-.435 1.407.433 1.841 0 .217-.218-.217-.704 0-.921.217-.217.704.217.921 0 .217-.217-.217-.704 0-.921.434-.434 1.407.434 1.841 0 .217-.217-.217-.704 0-.92.217-.218.704.216.921 0 .306-.307-.306-1.536 0-1.842.217-.217.704.217.92 0 .218-.217-.137-.646 0-.92.195-.389.727-.533.921-.921.138-.275 0-.614 0-.921.307-.307.727-.533.921-.92.137-.275-.217-.704 0-.921.217-.217.704.217.92 0 .218-.217-.137-.647 0-.921.195-.388.615-.614.921-.92.307-.308.533-.727.921-.921 2.455 0-.307.306.92-.921.218-.217.704.217.921 0 .217-.217-.217-.704 0-.92.217-.218.704.216.921 0 .217-.218-.217-.704 0-.921.217-.217.614 0 .92 0h.921c.224 0 2.733-.03 2.762 0 .217.217-.217.703 0 .92.434.434 1.842-.614 1.842 0 0 .307-1.228 0-.92 0h2.761c.307 0 .704.217.92 0 .218-.217-.216-.703 0-.92.218-.217.647.137.922 0 .776-.389 1.065-1.454 1.84-1.842.275-.137.705.217.922 0 .217-.217-.217-.703 0-.92.217-.217.703.217.92 0 .217-.217-.137-.647 0-.921 1.916-3.832-.063.984 1.842-.92.217-.218-.217-.705 0-.922.217-.217.703.217.92 0 .217-.217-.217-.703 0-.92.307-.307 1.534.307 1.842 0 .217-.217-.217-.704 0-.92.217-.218.703.216.92 0 0-2.456-.307.306.921-.922.217-.217-.217-.703 0-.92.305-.306 1.536.305 1.841 0 .217-.217-.217-.704 0-.92.217-.218.614 0 .921 0 .307 0 .92-.308.92 0 0 .306-1.227 0-.92 0 .614 0 1.292.274 1.841 0 .275-.138-.217-.705 0-.922.217-.217.704.217.921 0 .217-.217-.307-.92 0-.92s0 1.227 0 .92v-2.762c0-.306-.307-.92 0-.92s0 1.227 0 .92c0-.613-.274-1.292 0-1.841.137-.274.704.217.92 0 .218-.217-.216-.704 0-.92.222-.222 3.462.22 3.683 0 .217-.218-.217-.704 0-.921.217-.217.614 0 .921 0 .338 0 3.646-.037 3.683 0 .217.217-.217.703 0 .92.221.222 3.461-.221 3.682 0 .217.217-.217.704 0 .921.434.434 1.293-.274 1.842 0 .388.194.532.727.92.92.55.275 1.408-.433 1.842 0 .217.218-.217.704 0 .921.217.217.614 0 .92 0h1.842c.308 0 .922-.306.922 0 0 .307-1.228 0-.921 0h1.841c-2.02-9.273 3.338-1.496 4.604-2.762.217-.217-.217-.703 0-.92.217-.217.703.217.92 0 .217-.217-.217-.704 0-.921.217-.217.646.137.921 0 .388-.194.532-.727.92-.92.275-.138.704.216.921 0 .217-.218-.217-.704 0-.921.217-.217.647.137.921 0 .388-.194.532-.727.92-.921.275-.137.704.217.921 0 .217-.217-.217-.704 0-.92.217-.218.704.216.921 0 .217-.218-.217-.704 0-.921.306-.306 1.536.305 1.841 0 .217-.217-.217-.704 0-.921.217-.217.704.217.921 0 0-2.455-.307.307.92-.92.218-.218-.216-.704 0-.921.218-.217.647.137.921 0 .389-.194.533-.727.921-.921.275-.137.704.217.92 0 .218-.217-.216-.704 0-.92.218-.218.704.216.921 0 .217-.218-.217-.704 0-.921.217-.217.704.217.921 0 .217-.217-.217-.704 0-.921.217-.217.704.217.92 0 .218-.217-.216-.704 0-.92.218-.218.704.216.921 0 .217-.218-.217-.704 0-.921.217-.217.647.137.921 0 .388-.195.533-.727.92-.921.275-.137.704.217.921 0 .217-.217-.217-.704 0-.92.037-.038 3.345 0 3.683 0h11.048c.307 0 .704.216.921 0 .217-.218-.217-.704 0-.921.221-.222 3.461.221 3.683 0 .217-.217-.138-.647 0-.921.194-.388.726-.533.92-.92.275-.55-.434-1.408 0-1.842.217-.217.704.217.921 0 .217-.217-.137-.646 0-.92.194-.389.727-.533.92-.922.275-.548-.433-1.407 0-1.84.218-.218.704.216.921 0 .217-.218-.137-.647 0-.922.194-.388.727-.532.921-.92.137-.275-.217-.704 0-.92.217-.218.704.216.92 0 .218-.218-.137-.647 0-.922.195-.388.727-.532.921-.92.138-.275-.217-.704 0-.92.217-.218.704.216.921 0 .217-.218-.217-.705 0-.922.217-.217.704.217.92 0 .218-.217-.216-.703 0-.92.218-.217.704.217.921 0 .217-.217-.217-.704 0-.921.217-.217.704.217.921 0 .217-.217-.137-.646 0-.92.194-.389.727-.533.92-.921.138-.275-.216-.704 0-.921.218-.217.704.217.921 0 .217-.217-.217-.704 0-.92.217-.218.704.216.921 0 .217-.218-.217-.704 0-.921.217-.217.704.217.92 0 .218-.217-.306-.921 0-.921.308 0-.306.92 0 .92 1.138 0 .921-1.29.921-1.84l2.763 4.603c.306 0 .703-.217.92 0 .217.217-.217.703 0 .92.217.217.646-.137.92 0 .389.194.533.727.922.921.274.137.703-.217.92 0 .217.217-.217.704 0 .92.434.435 1.408-.433 1.842 0 .217.218-.217.704 0 .921.217.217.613 0 .92 0h1.842-1.842 15.651-1.842c8.593 0 .921.921 2.762-.92.308-.307 1.535.307 1.842 0 .217-.217-.217-.704 0-.921.46-.46 2.301.46 2.762 0 .217-.217-.217-.704 0-.92.434-.435 1.292.274 1.841 0 .388-.195.533-.727.92-.921.55-.275 1.408.434 1.842 0 .217-.217-.217-.704 0-.921.434-.434 1.293.275 1.842 0 .388-.194.532-.727.92-.92.275-.138.704.216.92 0 .218-.218-.216-.704 0-.921.461-.46 2.303.46 2.763 0 .217-.217-.217-.704 0-.921.46-.46 2.302.46 2.762 0 .217-.217-.217-.704 0-.92.217-.218.646.137.92 0 .389-.195.533-.727.921-.921.55-.275 1.293.274 1.842 0 .388-.194.532-.727.92-.921.737-.368 2.026.368 2.762 0 .388-.194.533-.727.921-.92.5-.25 3.43.251 3.683 0 .217-.218-.217-.704 0-.921.285-.285 4.318.285 4.603 0 .217-.217-.217-.704 0-.921.46-.46 2.302.46 2.762 0 .217-.217-.217-.704 0-.92.217-.218.646.137.92 0 .389-.195.533-.727.921-.921.275-.138.704.217.921 0 .217-.217-.217-.704 0-.921.434-.434 1.407.434 1.841 0 .217-.217-.217-.704 0-.92.434-.435 1.408.433 1.842 0 .217-.218-.217-.704 0-.921.434-.434 1.407.434 1.841 0 .217-.217-.217-.704 0-.921.434-.434 1.408.434 1.842 0 .217-.217-.217-.704 0-.92.434-.435 1.407.433 1.84 0 .218-.218-.216-.704 0-.921.435-.434 1.408.434 1.842 0 .217-.217-.217-.704 0-.921.217-.217.704.217.92 0 .218-.217-.216-.704 0-.92.218-.218.705.216.922 0 .217-.218-.217-.704 0-.921.217-.217.703.217.92 0 .217-.217-.217-.704 0-.921.217-.217.704.217.92 0 .218-.217-.216-.704 0-.92.218-.218.705.216.922 0 .217-.218-.217-.705 0-.922.217-.217.703.217.92 0 .217-.217-.217-.703 0-.92.217-.217.704.217.921 0 .434-.434-.434-1.408 0-1.842.217-.217.704.217.92 0 .218-.217 0-.613 0-.92v-1.842c0 5.259-.124-1.716 0-1.84 2.456 0-.306.306.921-.922.03-.03 2.539 0 2.762 0 .307 0 .704-.217.921 0 .217.217-.217.704 0 .921.46.46 2.302-.46 2.762 0 .217.217-.217.704 0 .92.217.218.614 0 .92 0h1.842c-1.458 0-3.585-.274 0 .921.582.195 1.407-.434 1.841 0 .217.217-.217.704 0 .921 2.456 0-.306-.307.921.92.217.218.704-.216.92 0 .218.218-.216.704 0 .921.435.434 1.408-.434 1.842 0 .217.217-.217.704 0 .921.217.217.646-.137.92 0 .389.194.615.614.921.92.307.308.727.533.921.921.137.275-.217.704 0 .921.434.434 1.842-.614 1.842 0 0 .307-.921-.307-.921 0 0 1.84 2.213.372 2.762.92.217.218 0 .615 0 .922v-4.604c.307 0 .704.217.92 0 .435-.434-.433-1.407 0-1.841.218-.217.704.217.921 0 .217-.217-.137-.646 0-.92.194-.39.727-.533.92-.922.138-.274-.216-.703 0-.92.218-.217.705.217.922 0 .221-.222-.222-3.461 0-3.683 1.227-1.228.92 1.535.92-.92v-.921c0-.307-.307-.921 0-.921s0 .614 0 .92v.921c0 .307-.137.647 0 .921.194.388.727.533.92.92.183.366-.187 2.575 0 2.763.218.217.615 0 .922 0 0 .307-.138.646 0 .92.194.389 1.227.614.92.921-.307.307-.92-1.355-.92-.92 0 .686.703 1.19.92 1.84.068.203.069 3.547 0 3.683-.194.389-.726.533-.92.921-.138.275.306.92 0 .92-.307 0 .306-.92 0-.92-1.308 0-.921 2.108-.921 2.762v.92c0 .308-.217.705 0 .922.217.217.614 0 .92 0 0 .306-.216.703 0 .92.435.434 1.408-.434 1.842 0 .217.217-.217.704 0 .92.434.435 1.407-.433 1.841 0 .217.218-.217.705 0 .922.308.307 1.534-.308 1.842 0 .217.217-.217.703 0 .92.434.434 1.407-.434 1.841 0 .217.217-.217.704 0 .92.434.435 1.407-.433 1.841 0 .217.218-.217.705 0 .922.217.217.704-.217.921 0 1.905 1.905-2.911-.075.92 1.841.28.14 2.348 0 2.763 0 .307 0 .703.217.92 0 .217-.217-.217-.704 0-.92.217-.218.614 0 .921 0h7.365c.307 0 .647-.138.921 0 .388.193.533.726.92.92.366.182 2.575-.188 2.763 0 .217.217-.217.704 0 .92.217.218.704-.216.92 0 .218.218-.216.704 0 .921.435.434 1.408-.434 1.842 0 .217.217-.217.704 0 .921.434.434 1.407-.434 1.841 0 .217.217-.217.704 0 .92.307.308 1.535-.306 1.842 0 .217.218-.217.704 0 .921.217.217.646-.137.92 0 .388.194.533.727.92.921.55.274 1.293-.274 1.842 0 .388.194.533.727.92.92.55.275 1.408-.433 1.842 0 .217.218-.217.704 0 .921.46.46 2.302-.46 2.762 0 .217.217-.217.704 0 .921.434.434 1.408-.434 1.842 0 .217.217-.217.704 0 .92.217.218.646-.137.92 0 .389.195.533.727.921.921.549.275 1.407-.434 1.841 0 .217.217-.217.704 0 .921.46.46 2.302-.46 2.762 0 .217.217-.217.704 0 .92.434.435 1.408-.433 1.842 0 .217.218-.217.704 0 .921.46.46 2.301-.46 2.762 0 .217.217-.217.704 0 .921.434.434 1.292-.274 1.841 0 .388.194.533.727.92.92.55.275 1.408-.433 1.842 0 .217.218-.217.704 0 .921.434.434 1.408-.434 1.842 0 .217.217-.217.704 0 .921.434.434 1.407-.434 1.84 0 .218.217-.216.704 0 .92.435.435 1.408-.433 1.842 0 .217.218-.217.704 0 .921.217.217.92-.306.92 0 0 .307-.92-.306-.92 0 0 3.247 1.842-1.404 1.842 1.842v-11.048c0-.307-.307-.921 0-.921.306 0 0 1.228 0 .92 0-.218-.104-3.476 0-3.682.194-.388.726-.532.92-.92.275-.55-.434-1.408 0-1.842.217-.217.704.217.92 0 .218-.217-.216-.704 0-.92.218-.218.705.216.922 0 .217-.218-.217-.704 0-.921.217-.217.703.217.92 0 .217-.217-.217-.704 0-.921.217-.217.704.217.921 0 .217-.217-.217-.704 0-.92.217-.218.704.216.92 0 .218-.218-.216-.704 0-.921.218-.217.704.217.921 0 .217-.217-.217-.704 0-.921.217-.217.704.217.921 0 .217-.217-.137-.646 0-.92.194-.389.727-.533.92-.921.138-.275-.216-.704 0-.921.218-.217.704.217.921 0 .434-.434-.434-1.407 0-1.841.217-.217.704.217.921 0 .217-.217-.217-.704 0-.921.217-.217.704.217.92 0 .435-.434-.433-1.407 0-1.841.218-.217.704.217.921 0 .217-.217-.217-.704 0-.921.217-.217.704.217.921 0 .434-.434-.434-1.408 0-1.842.217-.217.704.217.92 0 .218-.217 0-.613 0-.92v-6.445c0-.307-.216-.704 0-.92.218-.218.704.216.921 0 .03-.03 0-2.54 0-2.763 0-2.455.307.307-.92-.92-.217-.217 0-.614 0-.921 0-.307-.307-.92 0-.92s0 1.227 0 .92v-5.524c0-.223-.03-2.732 0-2.762.217-.217.703.217.92 0 .217-.217-.217-.704 0-.92 1.228-1.228.921 1.534.921-.921 0-.415.14-2.482 0-2.762-.194-.389-1.227-.614-.92-.921.306-.307 1.227 1.227.92.92-.614-.613-1.12-1.36-1.841-1.84-.256-.171-.704.216-.921 0-.217-.218.217-.704 0-.921-.307-.307-1.535.306-1.841 0-.217-.217-.217-.704 0-.921.217-.217.613 0 .92 0 .338 0 3.646-.037 3.683 0 .217.217-.217.704 0 .92.46.46 2.302-.46 2.762 0 .217.218-.217.704 0 .921.217.217.704-.217.92 0 .218.217-.216.704 0 .92.218.218.704-.216.921 0 .217.218-.217.705 0 .922 2.456 0-.306-.307.921.92.217.217.704-.217.92 0 .435.434-.433 1.408 0 1.842 1.228 1.227.921-1.535.921.92v1.842c0-.614-.613-1.842 0-1.842.687 0 .704 1.19.921 1.842.272.817-.301 4 0 4.603.194.388.727.532.92.92.275.55-.433 1.408 0 1.842.218.217.704-.217.921 0 .217.217-.137.646 0 .92 1.916 3.832-.063-.984 1.842.921.217.217-.217.704 0 .921.221.222 3.461-.221 3.683 0 .217.217-.217.704 0 .92.306.308 1.534-.306 1.84 0 .218.218-.216.704 0 .921.435.434 1.408-.434 1.842 0 .042.042 0 4.17 0 4.604 0 .338.037 3.645 0 3.682-2.455 0 .307-.306-.92.921-.217.217-.704-.217-.921 0-.22.22.21 3.683 0 3.683-.307 0-.217-1.138 0-.92.485.484.435 1.355.92 1.84 2.456 0-.306-.306.921.921.434.434 1.408-.434 1.842 0 .217.217-.217.704 0 .92.221.222 3.46-.22 3.682 0 .217.218-.217.705 0 .922.222.221 3.461-.222 3.683 0 .217.217-.217.703 0 .92.222.222 3.461-.221 3.683 0 .217.217-.217.704 0 .92.217.218.703-.216.92 0 .217.218-.217.705 0 .922.217.217.704-.217.921 0 .434.434-.434 1.407 0 1.841.434.434 1.407-.434 1.841 0 .217.217-.217.704 0 .92.03.03 2.54 0 2.762 0 2.456 0-.306.308.921-.92.434-.434 1.292.274 1.841 0 .389-.194.533-.727.921-.92.491-.246 1.35.245 1.842 0 .388-.195.532-.727.92-.921.275-.138.704.217.92 0 .218-.217-.216-.704 0-.921.435-.434 1.408.434 1.842 0 .217-.217-.217-.704 0-.92.434-.435 1.408.433 1.842 0 .217-.218-.217-.704 0-.921.217-.217.703.217.92 0 .217-.217.217-.704 0-.921-.217-.217-.703.217-.92 0-.217-.217.217-.704 0-.92-.217-.218-.704.216-.921 0-.217-.218.217-.704 0-.921-.217-.217-.704.217-.92 0-.218-.217.216-.704 0-.921-.435-.434-1.408.434-1.842 0-.217-.217.217-.704 0-.92-.217-.218-.614 0-.92 0 0-.308.216-.704 0-.921-.435-.435-1.408.434-1.842 0-.217-.217.217-.704 0-.921-.217-.217-.704.217-.92 0-.218-.217.216-.704 0-.92-.218-.218-.705.216-.922 0-.217-.218.217-.705 0-.922-.217-.217-.703.217-.92 0-.217-.217.217-.703 0-.92-.217-.217-.704.217-.92 0-.093-.092-.093-2.67 0-2.762.216-.217.703.217.92 0 .217-.217-.217-.704 0-.92.217-.218.703.216.92 0 .217-.218-.217-.705 0-.922.434-.434 1.408.434 1.842 0 .217-.217-.217-.703 0-.92.434-.434 1.407.434 1.841 0 .217-.217-.217-.704 0-.92.434-.435 1.408.433 1.842 0 .217-.218-.217-.705 0-.922.217-.217.613 0 .92 0h.92-1.84c8.592 0 .92.921 2.762-.92.434-.434 1.407.434 1.84 0 .218-.217-.216-.704 0-.92.218-.218.615 0 .922 0h1.84-1.84 4.603-1.841 4.603-1.841c.92 0 1.888.29 2.762 0 .29-.098-.217-.705 0-.922.217-.217.613 0 .92 0 .307 0 .921-.307.921 0s-1.228 0-.92 0h1.84c.308 0 .704-.217.921 0 .217.217-.217.704 0 .921.217.217.704-.217.921 0 .434.434-.274 1.292 0 1.841.194.389.727.533.92.921.12.238 0 4.872 0 5.524 0 .307-.137.646 0 .92 1.019 2.036.572.287 1.842.921.388.195.533.727.92.921.28.14 2.348 0 2.763 0h8.285c.308 0 .705.217.922 0 .217-.217-.217-.704 0-.92.217-.218.703.216.92 0 .03-.03 0-2.54 0-2.763 0-.306.217-.703 0-.92-.217-.217-.703.217-.92 0-.435-.434.434-1.408 0-1.842-.435-.434-1.408.434-1.842 0-.217-.217.217-.703 0-.92-.092-.092-3.192.43-1.841-.92.217-.218.92-.308.92 0 0 .306-1.227 0-.92 0 5.217 0 .307.613 1.841-.922.46-.46 2.302.46 2.762 0 .217-.217-.217-.703 0-.92.222-.222 3.461.221 3.683 0 .217-.217-.217-.704 0-.92.217-.218.614 0 .92 0 0-.308-.216-.705 0-.922.218-.217.704.217.921 0 .285-.285-.285-4.318 0-4.603.217-.217.704.217.92 0 .461-.46-.46-2.302 0-2.762.218-.217.705.217.922 0 .434-.434-.434-1.407 0-1.841.217-.217.703.217.92 0 .434-.434-.434-1.408 0-1.842.217-.217.704.217.921 0 .434-.434-.434-1.407 0-1.841.217-.217.704.217.92 0 .218-.217-.216-.704 0-.92.218-.218.704.216.921 0 .217-.218-.217-.704 0-.921.217-.217.614 0 .921 0 0-.307-.217-.704 0-.921.217-.217.704.217.92 0 .218-.217-.216-.704 0-.92.218-.218.704.216.921 0 .217-.218-.217-.704 0-.921.217-.217.704.217.921 0 .217-.217-.217-.704 0-.921.217-.217.704.217.92 0 .435-.434-.433-1.407 0-1.841.218-.217.704.217.921 0 .217-.217-.307-.921 0-.921s-.307.92 0 .92c.434 0 .533-.726.921-.92.275-.137.646.137.92 0 .389-.194.615-1.228.921-.92.307.306-.92.486-.92.92 0 .803 4.788-1.934-.921.92-1.579 5.436 4.152-3.213 5.524-1.84.217.216-.217.703 0 .92.217.217.704-.217.92 0 .435.434-.433 1.407 0 1.841.218.217.704-.217.921 0 .217.217-.217.704 0 .92.217.218.704-.216.921 0 .217.218-.217.705 0 .922 2.455 0-.307-.307.92.92.218.217.704-.217.921 0 .217.217-.217.704 0 .92.217.218.704-.216.921 0 .217.218-.217.705 0 .922.217.217.704-.217.92 0 .218.217-.136.646 0 .92.195.388.727.533.921.92.138.275-.217.705 0 .922.217.217.704-.217.921 0 .434.434-.434 1.407 0 1.841.217.217.704-.217.92 0 .218.217-.136.646 0 .92.195.389.727.533.922.921.137.275-.217.704 0 .921.217.217.703-.217.92 0 .217.217-.137.646 0 .92.194.389.727.533.92.921.138.275-.216.704 0 .921.218.217.705-.217.922 0 .217.217-.217.704 0 .92.217.218.703-.216.92 0 .434.435-.434 1.408 0 1.842 2.455 0-.307-.307.92.92.218.218.705-.216.922 0 .46.461-.46 2.302 0 2.763.217.217.703-.217.92 0 .217.217-.137.646 0 .92 2.455 4.91 0-2.455 0 0 0 .687.436 1.357.92 1.842.218.217.615 0 .922 0 0 .307-.217.703 0 .92.217.217.703-.217.92 0 .217.217-.217.704 0 .921.307.307 1.535-.307 1.842 0 .217.217-.217.704 0 .92.03.03 2.538 0 2.762 0 .307 0 .703.218.92 0 .217-.216-.217-.703 0-.92.434-.434 1.293.275 1.842 0 .388-.194.532-.726.92-.92.365-.183 2.574.188 2.762 0 .217-.218-.217-.704 0-.921.217-.217.614 0 .921 0 .307 0 .92-.307.92 0s-1.227 0-.92 0c.614 0 1.292.274 1.841 0 .275-.137-.217-.704 0-.92.217-.218.704.216.921 0 .217-.218-.137-.647 0-.922.194-.388.727-.532.92-.92.138-.275-.216-.704 0-.92.218-.218.704.216.921 0 .434-.435-.434-1.408 0-1.842.217-.217.614 0 .921 0 .223 0 2.733-.03 2.762 0 .217.217-.217.703 0 .92.434.434 1.407-.434 1.841 0 .217.217-.217.704 0 .921.434.434 1.408-.434 1.842 0 .217.217-.217.704 0 .92.221.222 3.461-.22 3.683 0 .217.218-.217.704 0 .921.285.285 4.318-.285 4.603 0 .217.217-.217.704 0 .921.434.434 1.292-.274 1.841 0 .388.194.533.727.921.92.274.138.646-.136.92 0 .389.195.533.727.921.921.55.275 1.408-.434 1.842 0 .217.217-.217.704 0 .921.434.434 1.407-.434 1.841 0 .217.217-.217.704 0 .92.46.461 2.302-.46 2.762 0 .217.218-.217.704 0 .921.434.434 1.407-.434 1.841 0 .217.217-.217.704 0 .921.217.217.647-.137.921 0 .388.194.533.727.92.92.275.138.615 0 .921 0 .307.308.533.727.921.921.275.138.704-.217.92 0 .218.217-.216.704 0 .921.218.217.704-.217.921 0 .217.217-.217.704 0 .92.217.218.647-.136.921 0 .388.195.533.727.92.922.275.137.704-.217.921 0 .217.217-.217.703 0 .92.308.307 1.535-.307 1.842 0 .217.217-.217.704 0 .92.434.435 1.407-.433 1.841 0 .217.218-.217.705 0 .922.307.306 1.535-.307 1.842 0 .217.217-.217.703 0 .92.434.434 1.407-.434 1.84 0 .218.217-.216.704 0 .92.218.218.647-.136.922 0 .388.195.532.727.92.922.275.137.704-.217.92 0 .218.217-.216.703 0 .92.218.217.647-.137.922 0 .388.194.532.727.92.92.275.138.704-.216.92 0 .218.218-.216.705 0 .922.218.217.705-.217.922 0 .217.217-.217.703 0 .92.217.217.703-.217.92 0 .217.217-.217.704 0 .921.217.217.704-.217.92 0 .218.217-.216.704 0 .92.218.218.705-.216.922 0 .217.218-.217.704 0 .921.434.434 1.407-.434 1.841 0 .217.217-.217.704 0 .921.434.434 1.841-.614 1.841 0 0 .307-1.227 0-.92 0h2.762c.307 0 .703.217.92 0 .217-.217-.217-.704 0-.92.217-.218.704.216.921 0 .217-.218-.217-.704 0-.921.217-.217.614 0 .92 0 .308 0 .921-.307.921 0s-1.137.217-.92 0c.485-.486 1.356-.436 1.841-.921.217-.217 0-.614 0-.92v-.921c0-.307-.307-.921 0-.921s0 1.227 0 .92c0-.613-.274-1.292 0-1.84.137-.275.704.216.92 0 .218-.218-.306-.921 0-.921.308 0 0 .613 0 .92.38 6.63 3.789.974 5.525 1.842.388.194.532.726.92.92.55.275 1.408-.434 1.842 0 .217.217-.217.704 0 .921.46.46 2.301-.46 2.762 0 .217.217-.217.704 0 .92.434.435 1.407-.433 1.841 0 .217.218-.217.704 0 .921.434.434 1.293-.274 1.842 0 .388.194.532.727.92.921.55.274 1.408-.434 1.842 0 .217.217-.217.704 0 .92.307.308 1.534-.306 1.84 0 .218.218-.216.704 0 .921.435.434 1.293-.274 1.842 0 .388.194.533.727.92.921.366.183 2.575-.188 2.763 0 .217.217-.217.704 0 .92.46.461 2.302-.46 2.762 0 .217.218-.217.704 0 .921.434.434 1.292-.274 1.841 0 .389.194.533.727.921.921.275.137.704-.217.92 0 .218.217-.216.704 0 .92.435.435 1.293-.274 1.842 0 .388.195.533.727.92.921.492.246 1.351-.245 1.842 0 .388.194.533.727.92.921.5.25 3.432-.252 3.683 0 .217.217-.217.704 0 .92.222.222 3.462-.22 3.683 0 .217.218-.217.704 0 .921.285.285 4.318-.285 4.604 0 .217.217-.217.704 0 .921.037.037 3.344 0 3.682 0h13.81c.224 0 2.733-.03 2.762 0 .217.217-.217.704 0 .92.434.435 1.408-.433 1.842 0 .217.218-.217.704 0 .921.434.434 1.407-.434 1.841 0 .217.217-.217.704 0 .921.434.434 1.841-.614 1.841 0 0 .307-1.227 0-.92 0h1.841c.307 0 .704-.217.92 0 .218.217-.216.704 0 .92.218.218.647-.136.921 0 .389.195.614.615.921.921.307.307.727.533.92.921.138.275-.216.704 0 .92.218.218.705-.216.922 0 .217.218-.217.704 0 .921.217.217.703-.217.92 0 .217.217-.217.704 0 .921.217.217.704-.217.92 0 .218.217-.216.704 0 .92.218.218.705-.216.922 0 .217.218-.217.705 0 .922.217.217.703-.217.92 0 .434.434-.434 1.407 0 1.84.217.218.704-.216.92 0 .435.435-.433 1.408 0 1.842.218.217.705-.217.922 0 .434.434-.275 1.293 0 1.842.194.388.726.532.92.92.275.55-.274 1.293 0 1.842.194.388.727.532.92.92.183.365-.187 2.574 0 2.762.218.217.705-.217.922 0 .46.46-.46 2.302 0 2.762 1.227 1.228.92-1.534.92.921 0 .223-.03 2.732 0 2.762.217.217.704-.217.92 0 .218.217 0 .614 0 .92 0 .308.308.921 0 .921-.306 0 0-1.227 0-.92V514c0 .307.218.703 0 .92-.216.217-.613 0-.92 0-.47 5.558 3.497-.185 4.604.921.217.217-.217.704 0 .92.217.218.613 0 .92 0h1.842c.308 0 .704-.216.921 0 .217.218-.217.704 0 .921.434.434 1.293-.274 1.842 0 .388.195.532.727.92.921.365.183 2.574-.188 2.762 0 .217.217-.217.704 0 .92.46.461 2.302-.46 2.762 0 .217.218-.217.704 0 .921.308.308 1.534-.307 1.842 0 .217.217-.217.704 0 .921.434.434 1.407-.434 1.841 0 .217.217-.217.704 0 .92.434.435 1.407-.433 1.841 0 .217.218-.217.704 0 .921.217.217.921-.306.921 0 0 .307-1.227 0-.92 0h1.84c.308 0-.703-.217-.92 0-.217.217.217.704 0 .921-.46.46-2.302-.46-2.762 0-.217.217.217.704 0 .92-.217.218-.704-.216-.92 0-.218.218.216.704 0 .921-.218.218-.704-.217-.921 0-.308.308.308 1.534 0 1.842-.217.217-.704-.217-.92 0-.218.217.216.704 0 .92-.218.218-.705-.216-.922 0-.217.218.217.704 0 .921-.217.217-.703-.217-.92 0-.217.217.217.704 0 .92-.217.218-.614 0-.92 0 0 .308.216.705 0 .922-.218.217-.705-.217-.922 0-.434.434.275 1.292 0 1.84-.194.39-.726.533-.92.922-.14.28 0 2.347 0 2.762v6.444c0 .307-.217.704 0 .921.217.217.703-.217.92 0 .03.03 0 2.539 0 2.762 0 2.16-.217-.434.921 1.841.137.275-.137.647 0 .921.194.388.727.533.92.92.138.275-.216.704 0 .921.218.217.704-.217.921 0 .217.217-.217.704 0 .921.217.217.704-.217.921 0 .305.305-.304 1.537 0 1.841.307.308 1.534-.307 1.841 0 .217.217-.217.704 0 .921.217.217.704-.217.921 0 .217.217-.217.704 0 .92.434.435 1.407-.433 1.841 0 .217.218-.217.704 0 .921.434.434 1.408-.434 1.842 0 .217.217-.217.704 0 .921.217.217.704-.217.92 0 .218.217-.216.704 0 .92.218.218.614 0 .921 0 0 .308-.217.704 0 .921.55.55 1.842-.995 1.842.921 0 .307-.614 0-.921 0-2.02 9.273 3.338 1.497 4.603 2.762.217.217-.137.646 0 .92.388.777 1.453 1.066 1.842 1.842.137.275-.217.704 0 .92.217.218.703-.216.92 0 .217.218-.137.647 0 .922.194.388.727.532.92.92.138.275-.216.704 0 .92.218.218.705-.216.922 0 .217.218-.138.647 0 .922.194.388.726.532.92.92.138.275-.217.704 0 .921.217.217.704-.217.921 0 .217.217-.137.646 0 .92.194.389.727.533.92.921.138.275-.216.704 0 .921.218.217.704-.217.921 0 .217.217-.217.704 0 .92.217.218.704-.216.921 0 .434.435-.434 1.408 0 1.842.217.217.704-.217.92 0 .218.217-.137.646 0 .92.389.777 1.454 1.066 1.842 1.842.137.275-.217.704 0 .92.217.218.614 0 .92 0 0 .308-.216.704 0 .921.218.217.704-.217.921 0 .434.434-.434 1.408 0 1.842.217.217.704-.217.921 0 .217.217-.217.703 0 .92.217.217.704-.217.92 0 .435.434-.433 1.408 0 1.842.218.217.704-.217.921 0 .217.217-.137.646 0 .92.194.389.727.533.921.921.137.275-.217.704 0 .92.217.218.704-.216.92 0 .222.222-.22 3.462 0 3.684.218.217.704-.217.921 0 .217.217 0 .613 0 .92 0 .338.038 3.646 0 3.683-.217.217-.703-.217-.92 0-.217.217.307.92 0 .92-1.916 0-.37-1.29-.92-1.84-.218-.218-.705.216-.922 0-.217-.218.217-.704 0-.921-.221-.222-3.46.221-3.682 0-.217-.217.217-.704 0-.921-.307-.307-1.535.307-1.842 0-.217-.217.217-.704 0-.92-.217-.218-.92.306-.92 0 0-.308.92-.308.92 0 0 .433-.726.532-.92.92-.138.274 0 .614 0 .92 0 .307-.138.647 0 .921.194.388.726.533.92.92.275.55-.434 1.408 0 1.842.217.217.704-.217.921 0 .46.46-.46 2.302 0 2.762.217.217.704-.217.92 0 .218.217-.137.646 0 .92.195.39.727.533.921.922.138.274-.217.703 0 .92.217.217.704-.217.921 0 .306.307-.306 1.535 0 1.842.217.217.704-.217.92 0 .435.434-.433 1.407 0 1.841.218.217.704-.217.921 0 .46.46-.46 2.302 0 2.762.217.217.704-.217.921 0 .217.217 0 .614 0 .92 0 .308.307.921 0 .921s-.307-.92 0-.92c.434 0 .727.532.92.92.138.275 0 .614 0 .921 0 .307.218.704 0 .92-.216.218-.703-.216-.92 0-.217.218 0 .615 0 .921v9.207c0 .307-.217.704 0 .92.217.218.704-.216.92 0 .218.218 0 .615 0 .922 0 .652-.118 5.285 0 5.524.195.388.727.532.921.92.12.238 0 4.872 0 5.524v.921c0 .307-.217.704 0 .92.217.218.704-.216.921 0 .217.218 0 .614 0 .921v15.651c0 .308-.217.704 0 .921.217.217.704-.217.92 0 .038.037 0 3.345 0 3.683v5.524c0 .307.308.92 0 .92-.306 0 .308-.92 0-.92-.433 0-.532.727-.92.92-.274.138-.92.308-.92 0 0-.306 1.227 0 .92 0h-3.683c.614 0 2.276-.433 1.842 0-1.14 1.141-3.143.922-4.604.922h-1.841 1.841-3.682c-.307 0-.704.217-.921 0-.217-.217.217-.704 0-.921-.222-.222-3.461.221-3.683 0-.217-.217.217-.704 0-.92-.46-.461-2.301.46-2.762 0-.217-.218.217-.705 0-.921-.217-.217-.703.216-.92 0-.217-.217.217-.704 0-.921-.434-.434-1.408.434-1.842 0-.217-.217.217-.704 0-.92-.217-.218-.703.216-.92 0-.217-.218.217-.704 0-.922-.434-.434-1.408.435-1.842 0-.217-.217.217-.703 0-.92-.908-.908-1.841 1.886-1.841-.92 0-2.456.307.306-.92-.922-.461-.46.46-2.301 0-2.762-.218-.217-.704.217-.921 0-.217-.217-.307-.92 0-.92.306 0 0 .614 0 .92v2.762c0 .307.217.704 0 .921-.217.217-.704-.217-.921 0-.46.46.46 2.302 0 2.762-1.228 1.228-.92-1.534-.92.92 0 .224.029 2.733 0 2.763-.218.217-.705.217-.922 0-.217-.217.217-.704 0-.92-.217-.218-.703.216-.92 0-.217-.218.217-.705 0-.921-.217-.217-.704.216-.92 0-.218-.217.216-.704 0-.921-.218-.217-.705.217-.922 0-.217-.217.217-.704 0-.92-.217-.218-.703.216-.92 0-.306-.307.306-1.536 0-1.842-.217-.217-.704.217-.92 0-.218-.217.136-.646 0-.92-.195-.389-.615-.615-.922-.922-.306-.306-.532-.726-.92-.92-.275-.137-.704.217-.92 0-.218-.217.216-.704 0-.92-.218-.218-.705.216-.922 0-.217-.218.217-.705 0-.922-.217-.217-.703.217-.92 0-.217-.217.217-.703 0-.92-.217-.217-.704.217-.92 0-.218-.217.216-.704 0-.92-.218-.218-.705.216-.922 0-.217-.218.217-.705 0-.922-1.227-1.227-.92 1.535-.92-.92v-.92c0-.308.137-.647 0-.922-.194-.388-.727-.532-.921-.92-.25-.5.252-3.431 0-3.683-.217-.217-.704.217-.92 0-.253-.252.25-3.183 0-3.683-.195-.388-.727-.532-.921-.92-.275-.55.434-1.408 0-1.842-.217-.217-.704.217-.921 0-.217-.217.137-.646 0-.92-.194-.389-.727-.533-.92-.921-.138-.275.216-.704 0-.92-.218-.218-.704.216-.921 0-.217-.218.217-.704 0-.921-.434-.434-1.408.434-1.842 0-.217-.217.217-.704 0-.921-.217-.217-.613 0-.92 0h-3.683 1.841c-.92 0-1.888.291-2.762 0-.29-.097-.307-.92 0-.92.614 0-.434 1.407 0 1.84.217.218.704-.216.92 0 .435.435-.433 1.408 0 1.842.218.217.705-.217.922 0 .306.306-.307 1.535 0 1.841.217.217.703-.217.92 0 .434.434-.274 1.293 0 1.842.194.388.727.532.92.92.183.365-.187 2.574 0 2.762.218.217.705-.217.922 0 .217.217.217.704 0 .921-.217.217-.614 0-.921 0-1.228.92-2.367 1.973-3.683 2.762-.185.111-4.077 0-4.603 0h-7.366c-.306 0-.703.217-.92 0-.217-.217.217-.704 0-.92-.222-.222-3.461.22-3.683 0-.217-.218.217-.704 0-.921-.46-.46-2.302.46-2.762 0-.217-.217.217-.704 0-.921-.46-.46-2.302.46-2.762 0-.217-.217.217-.704 0-.92-.217-.218-.614 0-.92 0h-.921c-2.455 0 .307.306-.921-.921-.46-.46-2.302.46-2.762 0-.217-.217.217-.704 0-.921-.217-.217-.646.137-.92 0-.389-.194-.533-.727-.921-.92-.275-.138-.647.137-.921 0-.388-.195-.533-.727-.92-.921-.275-.138-.704.217-.921 0-.217-.217.217-.704 0-.921-.217-.217-.704.217-.921 0-.217-.217.217-.704 0-.92-.217-.218-.704.216-.92 0-.435-.435.433-1.408 0-1.842-.218-.217-.704.217-.921 0-.217-.217.217-.704 0-.92-.217-.218-.704.216-.921 0-.434-.435.274-1.293 0-1.842-.194-.388-.727-.533-.92-.92-.138-.275.216-.704 0-.921-.218-.217-.704.217-.921 0-.434-.434.434-1.408 0-1.842-.217-.217-.704.217-.921 0-.217-.217.217-.703 0-.92-.217-.217-.704.217-.92 0-.218-.217.136-.647 0-.921-.195-.388-.727-.533-.921-.92-.275-.55.434-1.408 0-1.842-.217-.217-.704.217-.921 0-.217-.217.137-.646 0-.92-.388-.777-1.453-1.066-1.842-1.842-.137-.275.217-.704 0-.92-.217-.218-.703.216-.92 0-.217-.218.217-.704 0-.922-.217-.217-.704.218-.92 0-.218-.217.216-.703 0-.92-.218-.217-.705.217-.922 0-.217-.217.217-.704 0-.92-.217-.218-.703.216-.92 0-.217-.218.217-.705 0-.922-.217-.217-.646.138-.92 0-.39-.194-.533-.726-.922-.92-.274-.138-.703.217-.92 0-.217-.217.217-.704 0-.92-.217-.218-.704.216-.92 0-.218-.218.216-.705 0-.922-.218-.217-.705.217-.922 0-.217-.217.217-.703 0-.92-.217-.217-.703.217-.92 0-.217-.217.217-.704 0-.92-.434-.435-1.408.433-1.842 0-.217-.218.217-.705 0-.922-.434-.434-1.407.434-1.841 0-.217-.217.217-.703 0-.92-.307-.307-1.535.307-1.841 0-.217-.217.217-.704 0-.921-.434-.434-1.293.274-1.842 0-.388-.194-.532-.727-.92-.92-.55-.275-1.408.433-1.842 0-.217-.218.217-.704 0-.921-.434-.434-1.407.434-1.841 0-.217-.217.217-.704 0-.921-.434-.434-1.407.434-1.841 0-.217-.217.217-.704 0-.92-.308-.308-1.535.306-1.842 0-.217-.218.217-.704 0-.921-.037-.037-3.344 0-3.682 0-.307 0-.704.217-.921 0-.217-.217-.307-.921 0-.921s.217.704 0 .92c-.217.218-.704-.216-.92 0-1.228 1.228 1.534.921-.921.921l-4.604 1.842c-.307.307-.532.726-.92.92-.275.138-.704-.217-.921 0-.217.217.217.704 0 .921-.217.217-.646-.137-.92 0-.39.194-.533.727-.922.92-.274.138-.703-.216-.92 0-.217.218.217.704 0 .921-.217.217-.704-.217-.92 0-.218.217.216.704 0 .921-.218.217-.705-.217-.922 0-.217.217.217.704 0 .92-.217.218-.703-.216-.92 0-.217.218.217.704 0 .921-.217.217-.704-.217-.92 0-.218.217.216.704 0 .921-.218.217-.705-.217-.922 0-.217.217.217.704 0 .92-.217.218-.703-.216-.92 0-.217.218.137.647 0 .921-.12.241-1.721 1.6-1.842 1.842-.137.274.217.703 0 .92-.217.218-.703-.217-.92 0-.217.218.217.704 0 .921-.217.217-.704-.217-.921 0-.217.217.217.704 0 .92-.217.218-.704-.216-.92 0-.218.218.216.704 0 .921-.218.218-.704-.217-.921 0-.217.218.217.704 0 .921-.217.217-.704-.217-.921 0-.217.217.217.704 0 .92-.217.218-.704-.216-.92 0-.218.218.137.647 0 .922-.195.388-.727.532-.921.92-.138.275.217.704 0 .92-.217.218-.704-.216-.921 0-.217.218.217.705 0 .922-.217.217-.704-.217-.92 0-.435.434.433 1.407 0 1.84-.218.218-.704-.216-.921 0-.217.218.217.705 0 .922-.217.217-.704-.217-.921 0-.217.217.217.703 0 .92-.217.217-.704-.217-.92 0-.218.217.216.704 0 .92-.218.218-.704-.216-.921 0-.217.218.217.705 0 .922-.038.036-3.345 0-3.683 0-.434 0-4.562.042-4.604 0-.217-.217.217-.704 0-.921-.434-.434-1.292.274-1.84 0-.389-.194-.533-.727-.922-.92-.274-.138-.703.216-.92 0-.217-.218.217-.704 0-.921-.434-.434-1.408.434-1.842 0-.217-.217.217-.704 0-.921-.135-.135-2.762.108-2.762 0 0-.307 1.228 0 .921 0-.614 0-1.292-.275-1.841 0-.275.137 0 .614 0 .92v6.445c0 .307.217.704 0 .921-.217.217-.704-.217-.92 0-.218.217 0 .614 0 .92v6.445c0 .307.136.647 0 .921-.195.388-.728.533-.922.92-.137.275.138.647 0 .921-.194.389-.613 1.228-.92.921-.307-.307 1.227-1.227.92-.92l-1.841 1.84c0 .308.217.704 0 .921-.217.217-.704-.217-.92 0-.218.217.216.704 0 .921-.218.217-.704-.217-.921 0-.217.217.217.704 0 .92-.434.435-1.408-.433-1.842 0-.217.218.217.704 0 .921-.217.217-.613 0-.92 0 0 .307.217.704 0 .921-.217.217-.704-.217-.921 0-.217.217.217.704 0 .92-.434.435-1.407-.433-1.841 0-.217.218.217.704 0 .921-.46.46-2.302-.46-2.762 0-.217.217 0 .614 0 .921v.92c0 .435.041 4.562 0 4.604-.217.217-.704-.217-.921 0-.217.217.217.704 0 .92-.03.03-2.539 0-2.762 0h-.92c-.308 0-.921.308-.921 0 0-.306 1.227 0 .92 0-.614 0-1.292-.274-1.841 0-.55.275.434 1.408 0 1.842-.217.217-.704-.217-.92 0-.218.217.216.704 0 .921-.218.217-.704-.217-.921 0-.46.46.46 2.302 0 2.762-.217.217-.704-.217-.921 0-.306.306.306 1.535 0 1.841-.217.217-.704-.217-.92 0-.307.307.305 1.535 0 1.842-.218.217-.705-.217-.922 0-.217.217 0 .613 0 .92v.921c0 2.455.307-.307-.92.92-.222.222.221 3.462 0 3.683-.217.217-.704-.217-.92 0-.218.217 0 .614 0 .921 0 .434.04 4.562 0 4.603-1.228 1.228-.922-1.534-.922.921 0 .223.03 2.733 0 2.762-.217.217-.703-.217-.92 0-.217.217.217.704 0 .92-.308.308-1.534-.307-1.842 0-.217.218.217.704 0 .921-.434.434-1.407-.434-1.84 0-.218.217.216.704 0 .921-.218.217-.705-.217-.922 0-.217.217 0 .614 0 .92v5.525c0 .64.167 4.27 0 4.603-.194.388-.726.533-.92.92-.58 1.16 1.322 1.842-.92 1.842l-3.684 3.683c0 .307.217.704 0 .92-1.905 1.906.075-2.91-1.841.921-.137.275.217.704 0 .921-.217.217-.704-.217-.92 0-.218.217.216.704 0 .92-.218.218-.704-.216-.921 0-.217.218.217.704 0 .921-.217.217-.704-.217-.921 0-.217.217.217.704 0 .921-.217.217-.704-.217-.92 0-.218.217.216.704 0 .92-.218.218-.704-.216-.921 0-.217.218.217.704 0 .921-.217.217-.704-.217-.921 0-.217.217.217.704 0 .921-.217.217-.704-.217-.92 0-.218.217.216.704 0 .92-.218.218-.704-.216-.921 0-.217.218.217.704 0 .921-.217.217-.704-.217-.921 0-.217.217.217.704 0 .921-.217.217-.704-.217-.92 0-.218.217.216.704 0 .92-.218.218-.704-.216-.921 0-.217.218.217.704 0 .922-.217.216-.704-.218-.921 0-.217.216.137.646 0 .92-.552 1.105-2.21 1.657-2.762 2.762-.137.275.217.704 0 .92-.217.218-.646-.136-.92 0-.245.123-2.64 2.518-2.763 2.763-.137.274.217.704 0 .92-.217.218-.704-.216-.92 0-.218.218.216.704 0 .921-.218.217-.704-.217-.921 0-.217.217.137.646 0 .92-.194.39-.727.533-.92.922-.138.274.216.703 0 .92-.218.217-.705-.217-.922 0-.217.217.217.704 0 .92-.217.218-.703-.216-.92 0-.217.218.137.647 0 .922-.194.388-.727.532-.92.92-.138.275.216.704 0 .92-.218.218-.705-.216-.922 0-.217.218.217.705 0 .922-.217.217-.703-.217-.92 0-.217.217.137.646 0 .92-.194.388-.727.533-.92.92 0 2.456.306-.306-.922.922-.309.309.31 1.532 0 1.841-.217.217-.703-.217-.92 0-.46.46.46 2.302 0 2.762-.217.217-.704-.217-.92 0-.218.217 0 .614 0 .92v1.842c0 .307.216.704 0 .92-.218.218-.705-.216-.922 0-.434.435.614 1.842 0 1.842-.306 0 .307-.92 0-.92-1.915 0-.37 1.29-.92 1.84-.217.218-.704-.216-.921 0-1.905 1.906 2.911-.074-.92 1.842-.275.137-.704-.217-.921 0-1.905 1.905 2.91-.074-.921 1.842-.274.137-.704-.218-.92 0-.218.216.216.703 0 .92-.218.217-.647-.137-.921 0-.389.194-.533.727-.921.92-.275.138-.704-.216-.92 0-.218.218.216.705 0 .922-.218.217-.704-.217-.921 0-.217.217.217.703 0 .92-.217.217-.704-.217-.921 0-.217.217.217.704 0 .92-.217.218-.646-.136-.92 0-.389.195-.533.727-.921.922-.275.137-.704-.217-.921 0-.217.217.217.703 0 .92-.217.217-.704-.217-.92 0-.218.217.216.704 0 .92-.218.218-.704-.216-.921 0-.217.218.217.705 0 .922-.217.217-.704-.217-.921 0-.217.217.217.703 0 .92-.217.217-.646-.137-.92 0-.389.194-.533.727-.921.92-.275.138-.704-.216-.921 0-.217.218.217.705 0 .922-.217.217-.92.306-.92 0 0-.307 1.137.217.92 0l-1.841-.921c0-.307.217-.704 0-.92-.217-.218-.704.216-.921 0-.434-.435.434-1.408 0-1.842-.217-.217-.704.217-.92 0-.435-.434.433-1.407 0-1.841-.218-.217-.705.217-.922 0-.217-.217.217-.704 0-.921-.217-.217-.703.217-.92 0-.217-.217.217-.704 0-.92-.217-.218-.614 0-.92 0-.308 0-.705-.218-.922 0 0 2.454.307-.308-.92.92-.324.323.323 1.518 0 1.841-.217.217-.704-.217-.92 0-.435.434.433 1.408 0 1.842-.218.217-.705-.217-.922 0-.217.217.217.703 0 .92-.217.217-.703-.217-.92 0-.217.217.137.646 0 .92-.194.39-.727.533-.92.922-.138.274.216.703 0 .92-.218.217-.705-.217-.922 0-.434.434.434 1.408 0 1.842-.217.217-.703-.217-.92 0-.217.217.217.703 0 .92-.217.217-.704-.217-.92 0-.435.434.433 1.408 0 1.842-.218.217-.705-.217-.922 0-.434.434.434 1.407 0 1.841-.217.217-.703-.217-.92 0-.217.217.217.704 0 .92-.217.218-.704-.216-.921 0-.908.909 1.887 1.842-.92 1.842-1.507.424-.647-6.817-.921-7.365-.194-.389-.727-.533-.921-.921-.137-.275 0-.614 0-.92v-5.525c0-.307.137-.646 0-.92-.194-.389-.727-.533-.92-.921-.275-.55.433-1.407 0-1.841-.218-.217-.704.217-.921 0-.217-.217.137-.647 0-.921-.194-.388-.727-.533-.921-.92-.137-.275.137-.647 0-.921-.194-.389-.727-.533-.92-.921-.138-.275.137-.646 0-.92-.195-.39-.727-.533-.921-.922-.138-.274.217-.703 0-.92-.217-.217-.704.217-.921 0-.434-.434.434-1.408 0-1.842-.217-.217-.704.217-.92 0-.218-.217.216-.703 0-.92-.218-.217-.704.217-.921 0-.217-.217.217-.704 0-.921-.217-.217-.704.217-.921 0-.217-.217.217-.704 0-.92-.217-.218-.704.216-.92 0-.218-.218.216-.704 0-.921-.218-.217-.704.217-.921 0-.434-.434.434-1.408 0-1.842-.217-.217-.704.217-.921 0-.217-.217.217-.703 0-.92-.217-.217-.704.217-.92 0-.218-.217.216-.704 0-.921-.218-.217-.615 0-.921 0 0-.307.217-.704 0-.92-.217-.218-.704.216-.921 0-.217-.218.217-.704 0-.921-.307-.308-1.534.307-1.841 0-.217-.217.217-.704 0-.921-.434-.434-1.408.434-1.842 0-.217-.217.217-.704 0-.92-.434-.435-1.407.433-1.841 0-.217-.218 0-.614 0-.921 0-.434.042-4.562 0-4.604-.217-.217-.704.217-.92 0-.307-.306.305-1.535 0-1.841-.218-.217-.705.217-.922 0-.908-.908 1.887-1.841-.92-1.841.47-5.558-3.497.185-4.604-.921-.217-.217.217-.704 0-.92-.221-.222-3.46.22-3.682 0-.217-.218.217-.704 0-.921-.217-.217-.614 0-.921 0h-4.603c-.307 0-.704.217-.921 0-.217-.217.217-.704 0-.921-.217-.217-.614 0-.92 0h-7.368c-.307 0-.646.137-.92 0-.389-.194-.533-.727-.921-.92-.56-.28-4.965.279-5.525 0-.388-.195-.532-.727-.92-.922-.365-.182-2.574.189-2.762 0-.217-.217.217-.703 0-.92-.434-.434-1.408.434-1.842 0-.217-.217.217-.704 0-.92-.221-.222-3.46.22-3.682 0-.217-.218.217-.705 0-.921-.042-.042-4.17 0-4.604 0h-.92c.613 0 1.841.613 1.841 0 0-1.058-2.101-.921-2.762-.921-2.455 0 .307.307-.92-.92-.435-.435-1.293.274-1.842 0-.388-.195-.532-.727-.92-.922-.55-.274-1.408.434-1.842 0-.217-.217.217-.703 0-.92-.434-.434-1.407.434-1.841 0-.217-.217.217-.704 0-.92-.189-.19-2.397.182-2.762 0-.389-.195-.533-.727-.921-.922-.636-.318-4.28.324-4.603 0-.217-.217.217-.703 0-.92-.434-.434-1.408.434-1.842 0-.217-.217.217-.704 0-.92-.307-.308-1.534.306-1.841 0-.217-.218.217-.705 0-.922-.46-.46-2.302.46-2.762 0-.217-.217.217-.703 0-.92-.217-.217-.614 0-.92 0h-5.525c-.223 0-2.732.029-2.762 0-.217-.217.217-.704 0-.921-.221-.222-3.461.222-3.683 0-.217-.217.217-.704 0-.92-.46-.461-2.301.46-2.762 0-.217-.218.217-.704 0-.921-.221-.222-3.46.221-3.682 0-.217-.217.217-.704 0-.921-.434-.434-1.408.434-1.842 0-.217-.217.217-.704 0-.92-.285-.286-4.318.284-4.603 0-.217-.218.217-.704 0-.921-.03-.03-2.539 0-2.762 0-.223 0-2.733.029-2.762 0-.217-.217.217-.704 0-.921-.46-.46-2.302.46-2.762 0-.217-.217.217-.704 0-.92-.217-.218-.614 0-.92 0h-6.446c-.307 0-.703.216-.92 0-.217-.218.217-.704 0-.921-.46-.46-2.302.46-2.762 0-.217-.217.217-.704 0-.921-.037-.037-3.345 0-3.683 0-.307 0-.704-.217-.92 0-.218.217.216.704 0 .92-.038.038-3.345 0-3.683 0-.307 0-.704.218-.921 0-.217-.216.217-.703 0-.92-.217-.217-.614 0-.92 0-.308 0-.704-.217-.921 0-.217.217 0 .614 0 .92l-.921-2.761c-.307 0-.704.217-.92 0-.461-.46.46-2.302 0-2.762-.218-.217-.704.217-.921 0-.307-.307.306-1.535 0-1.842-.217-.217-.704.217-.921 0-.217-.217.217-.703 0-.92-.217-.217-.704.217-.92 0-.218-.217.216-.704 0-.921-.218-.217-.704.217-.921 0-.217-.217.217-.704 0-.92-.217-.218-.704.216-.921 0-.217-.218.217-.704 0-.922-.217-.217-.704.218-.92 0-.218-.217.216-.703 0-.92-.218-.217-.705.217-.922 0-.217-.217.217-.704 0-.92-.041-.043-4.169 0-4.603 0h-.92 1.84-2.761c-.307 0-.704-.218-.92 0-.218.216.216.703 0 .92-.218.217-.705-.217-.922 0-.217.217.217.703 0 .92-.217.218-.703-.217-.92 0-.46.46.46 2.302 0 2.763-.217.217-.704-.217-.92 0-.307.306.305 1.535 0 1.84-.218.218-.705-.216-.922 0-.217.218 0 .615 0 .922v-.921c-2.935.958-5.415.92-8.286.92h-.92c-.307 0-.704.218-.921 0-.217-.216.217-.703 0-.92-.434-.434-1.292.274-1.841 0-.389-.194-.533-.727-.921-.92-.55-.275-1.407.433-1.841 0-.217-.218.217-.704 0-.921-.03-.03-2.54 0-2.762 0h-6.445c-.415 0-2.482.14-2.762 0-.388-.195-.533-.727-.92-.921-.366-.183-2.575.188-2.763 0-.217-.217.217-.704 0-.92-.221-.222-3.461.22-3.683 0-.217-.218.217-.704 0-.922-.221-.221-3.46.222-3.682 0-.217-.217.217-.703 0-.92-.189-.188-2.397.182-2.762 0-.389-.194-.533-.727-.921-.92-.274-.138-.646.136-.92 0-.389-.195-.533-.727-.921-.922-.275-.137-.647.138-.921 0-.388-.194-.533-.726-.92-.92-.275-.137-.647.137-.921 0-.389-.194-.533-.727-.921-.92-.275-.138-.704.216-.92 0-.218-.218.216-.705 0-.922-.461-.46-2.302.46-2.763 0-.217-.217.217-.703 0-.92-.217-.217-.703.217-.92 0-.217-.217.217-.704 0-.92-.217-.218-.704.216-.921 0-.217-.218.137-.647 0-.922-.194-.388-.727-.532-.92-.92-.138-.275.216-.704 0-.92-.218-.218-.704.216-.921 0-.217-.218.217-.705 0-.922-.308-.307-1.534.308-1.842 0-.217-.217.217-.703 0-.92-.217-.217-.646.137-.92 0-.389-.194-.533-.727-.921-.92-.275-.138-.704.216-.92 0-.218-.218.216-.705 0-.922-.218-.217-.647.138-.922 0-.388-.194-.532-.726-.92-.92-.275-.138-.704.217-.92 0-.218-.217.216-.704 0-.921-.435-.434-1.293.275-1.842 0-.388-.194-.533-.727-.92-.92-.275-.138-.647.137-.922 0-.388-.195-.532-.727-.92-.921-.275-.138-.704.217-.92 0-.218-.217.216-.704 0-.92-.218-.218-.647.136-.922 0-.388-.195-.532-.728-.92-.922-.275-.137-.704.217-.921 0-.217-.217.217-.703 0-.92-.307-.307-1.534.307-1.841 0-.217-.217.217-.704 0-.921-.434-.434-1.408.434-1.842 0-.217-.217.217-.704 0-.92-.305-.306-1.535.305-1.841 0-.217-.218.217-.704 0-.921-.434-.434-1.292.274-1.841 0-.389-.194-.533-.727-.921-.921-.549-.275-1.292.274-1.841 0-.389-.194-.533-.727-.921-.92-.55-.275-1.407.433-1.841 0-.217-.218.217-.704 0-.921-.434-.434-1.408.434-1.842 0-.217-.217.217-.704 0-.921-.217-.217-.703.217-.92 0-.217-.217.217-.704 0-.92-.217-.218-.647.137-.921 0-.776-.389-1.065-1.454-1.841-1.842-.275-.137-.704.217-.921 0-.217-.217.217-.704 0-.92-.217-.218-.704.216-.92 0-.218-.218.216-.705 0-.921-.218-.217-.704.216-.921 0-.218-.217.217-.704 0-.921-.218-.217-.704.217-.921 0-.217-.217.217-.704 0-.92-.217-.218-.704.216-.92 0-.218-.218.216-.704 0-.922-.218-.217-.705.218-.922 0-.217-.217.217-.703 0-.92-.217-.217-.703.217-.92 0-.217-.217.137-.646 0-.92-.194-.389-.727-.533-.92-.922-.138-.274.216-.703 0-.92-.218-.217-.705.217-.922 0-.217-.217.217-.704 0-.92-.217-.218-.703.216-.92 0-.217-.218.217-.705 0-.922-.217-.217-.704.217-.92 0-1.228-1.227 1.534-.92-.922-.92l-1.84-3.683c0-.307.136-.646 0-.92-.195-.389-.727-.533-.922-.921-.137-.275.138-.646 0-.92-.194-.39-.726-.533-.92-.922-.138-.274.217-.703 0-.92-.217-.217-.704.217-.921 0-.217-.217.217-.704 0-.921-.217-.217-.704.217-.92 0-.218-.217.137-.646 0-.92-.195-.389-.727-.533-.921-.921-.138-.275.217-.704 0-.921-.217-.217-.704.217-.921 0 0-2.455.307.307-.92-.92-.218-.218.216-.704 0-.921-.306-.306-1.537.305-1.842 0-.217-.217.137-.647 0-.921-.194-.388-.727-.532-.92-.92-.138-.275.216-.704 0-.921-.218-.217-.704.217-.921 0-.217-.217.137-.647 0-.921-.194-.388-.727-.532-.921-.92-.137-.275.217-.704 0-.921-.217-.217-.704.217-.92 0-.218-.217 0-.614 0-.921-.308 0-.704.217-.921 0-.217-.217.217-.704 0-.92-.217-.218-.704.216-.921 0-.217-.218.217-.704 0-.921-.217-.217-.646.137-.92 0-1.106-.553-1.658-2.21-2.763-2.762-.274-.138-.703.217-.92 0-.217-.217.217-.704 0-.921-.217-.217-.704.217-.921 0-.217-.217.217-.704 0-.92-.217-.218-.704.216-.92 0-.218-.218.216-.704 0-.921-.218-.218-.704.217-.921 0-.217-.218.217-.704 0-.921-.217-.217-.704.217-.921 0-.217-.217.217-.704 0-.92-.217-.218-.704.216-.92 0-.218-.218 0-.615 0-.922-.308 0-.704.218-.921 0-.218-.217.217-.703 0-.92-.218-.217-.704.217-.921 0 0-2.455.307.307-.92-.92-.218-.218.216-.704 0-.922-.218-.217-.705.218-.922 0-.217-.217.217-.703 0-.92-.217-.217-.703.217-.92 0-.217-.217.217-.704 0-.92-.217-.218-.704.216-.92 0-.218-.218.216-.705 0-.922-.218-.217-.705.217-.922 0-.217-.217.217-.703 0-.92-.217-.217-.703.217-.92 0-.217-.217.217-.704 0-.92-.217-.218-.704.216-.92 0-.218-.218.216-.705 0-.922-.218-.217-.705.217-.922 0-.217-.217.217-.703 0-.92-.305-.306-1.535.305-1.84 0-.218-.217.216-.704 0-.92-.435-.435-1.408.433-1.842 0-.217-.218.217-.705 0-.922-.46-.46-2.302.46-2.762 0-.217-.217.217-.703 0-.92-.434-.434-1.408.434-1.842 0-.217-.217.217-.704 0-.921-.307-.307-1.534.308-1.841 0-.217-.217.217-.704 0-.92-.306-.306-1.536.305-1.841 0-.217-.218.217-.704 0-.921-.434-.434-1.408.434-1.842 0-.217-.217.217-.704 0-.921-.03-.03-2.538 0-2.762 0-.338 0-3.645.037-3.682 0-.217-.217.217-.704 0-.92-.217-.218-.614 0-.921 0h-6.444c-.308 0-.705.216-.922 0-.217-.218.138-.647 0-.921-.194-.389-.726-.533-.92-.921-.137-.274.137-.646 0-.92-.194-.389-.727-.533-.92-.921-.138-.275.136-.647 0-.921-.195-.388-.727-.533-.922-.92-.137-.275.217-.704 0-.921-.217-.217-.703.217-.92 0-.434-.434.434-1.408 0-1.842-.217-.217-.704.217-.92 0-.218-.217.216-.703 0-.92-.218-.217-.705.217-.922 0-.434-.434.434-1.408 0-1.842-.217-.217-.703.217-.92 0-.217-.217.217-.703 0-.92-.217-.217-.704.217-.92 0-.218-.217.216-.704 0-.921-.435-.434-1.842.614-1.842 0 0-.307 1.227 0 .92 0h-1.841c-.307 0-.704-.217-.92 0-.218.217.216.704 0 .92-.218.218-.614 0-.921 0-.307 0-.704.218-.921 0-.217-.216.217-.703 0-.92-.03-.03-2.539 0-2.762 0H83.77h1.841c-.92 0-1.889-.291-2.762 0-.291.097.217.704 0 .92-.03.03-2.539 0-2.762 0-.338 0-3.646.037-3.683 0-.217-.216.217-.703 0-.92-.434-.434-1.407.434-1.841 0-.217-.217.217-.704 0-.92-.217-.218-.704.216-.92 0-.218-.218.216-.704 0-.921-.218-.217-.704.217-.921 0-.217-.217.217-.704 0-.921-.217-.217-.704.217-.921 0-.434-.434.434-1.407 0-1.841-.217-.217-.704.217-.92 0-.218-.217.216-.704 0-.921-.218-.217-.704.217-.921 0-.03-.03 0-2.539 0-2.762v-1.842c0-.306-.307-.92 0-.92.306 0 .217 1.137 0 .92l-.921-1.84c-.307 0-.704.216-.92 0-.218-.218.216-.705 0-.922-.218-.217-.705.217-.922 0 0-2.455.307.307-.92-.92-.217-.217.217-.704 0-.921-.217-.217-.704.217-.92 0-.218-.217.216-.704 0-.92-.306-.306-1.537.305-1.842 0-1.228-1.228 1.534-.921-.92-.921h-.922 1.842c-.92 0-1.889.29-2.762 0-.291-.097.217-.704 0-.921-.037-.037-3.345 0-3.683 0-.307 0-.704-.217-.92 0-.218.217.216.704 0 .92-.03.03-2.54 0-2.763 0h-1.841c-.307 0-.92.308-.92 0 0-.306 1.227 0 .92 0h-1.841c-.307 0-.921.308-.921 0 0-.306.92.308.92 0 0-.433-.726-.532-.92-.92-.137-.274-.307-.92 0-.92s0 .613 0 .92" stroke-width=".162"/><path d="M26.429 585.22c7.194 1.567 1.16-2.59 2.142-3.572.169-.168.546.168.715 0 .168-.168-.169-.546 0-.714.168-.169.501.106.714 0 .301-.15.413-.564.714-.715.213-.106.546.169.715 0 .168-.168-.169-.546 0-.714.236-.237 1.191.237 1.428 0 .169-.168 0-.476 0-.714.238 0 .546.168.714 0 .169-.169-.168-.546 0-.715.169-.168.546.169.715 0 .168-.168-.169-.545 0-.714.168-.168.501.107.714 0 .301-.15.413-.564.714-.714.213-.107.546.168.715 0 .168-.168-.169-.546 0-.714.336-.337 1.091.336 1.428 0 .169-.169-.168-.546 0-.715.169-.168.714-.238.714 0s-.952 0-.714 0h1.429c.238 0 .546.169.714 0 .952-.952-1.19-.714.714-.714h.715c.238 0 .545.168.714 0 .168-.168-.169-.546 0-.714.168-.169.476 0 .714 0 .173 0 2.12-.023 2.143 0 .168.168-.168.546 0 .714.168.168.546-.168.714 0 .169.168-.168.546 0 .714.169.169.546-.168.715 0 .168.169-.107.502 0 .715.15.3.563.413.714.714.106.213-.169.546 0 .714.168.169.546-.168.714 0 .169.169 0 .476 0 .714 0 .374-.094 2.67 0 2.858.15.3.476.476.714.714"/></g></svg>