<svg xmlns="http://www.w3.org/2000/svg" width="210mm" height="297mm" viewBox="0 0 744.09448819 1052.3622047"><path d="M273.235 567.106c0 .312-.312.937 0 .937.313 0 .313-.937 0-.937-.312 0-.22.716 0 .937.226.225 3.522-.226 3.748 0 .22.22-.221.716 0 .936.441.442 1.432-.441 1.873 0 .221.221-.22.716 0 .937.221.221.716-.22.937 0 .22.221-.22.716 0 .937.22.22.716-.22.937 0 .22.22-.22.716 0 .937.22.22.716-.221.937 0 .22.22-.221.716 0 .937.22.22.657-.14.937 0 .395.197.541.739.936.937.28.14.716-.221.937 0 .221.22-.22.716 0 .936.442.442 1.432-.441 1.874 0 .22.221-.22.716 0 .937.22.221.657-.14.937 0 .395.198.624.625.937.937.312.312.739.542.936.937.14.28 0 .624 0 .937.313 0 .716-.221.937 0 .221.22-.22.716 0 .936.221.221.716-.22.937 0 .22.221-.22.716 0 .937.22.221.716-.22.937 0 .22.221-.14.658 0 .937.197.395.74.542.937.937.14.28-.221.716 0 .937.22.22.716-.221.937 0 .441.441-.28 1.315 0 1.873.197.395.739.542.936.937.28.559-.279 1.315 0 1.874.198.395.74.542.937.937.28.558-.28 1.315 0 1.873.198.395.74.542.937.937.375.75-.375 2.061 0 2.81.198.396.74.543.937.938.323.647-.329 4.355 0 4.684.22.22.716-.221.937 0 .256.256-.254 3.239 0 3.747.197.395.739.542.937.937.14.28 0 .624 0 .937 0 .312.22.716 0 .936-.221.221-.716-.22-.937 0-.306.306.377 4.382 0 4.685 0 2.856.95.012 1.873.936.221.221-.22.716 0 .937.313.313 1.562-.312 1.874 0 .22.221-.22.716 0 .937.312.312 1.561-.312 1.874 0 .22.22-.221.716 0 .937.22.22.624 0 .937 0h.936c2.499 0-.312-.312.937.937.442.441 1.432-.442 1.874 0 .22.22-.221.716 0 .937.468.468 2.342-.469 2.81 0 .221.22-.22.716 0 .936.442.442 1.315-.279 1.874 0 .395.198.542.74.937.937.28.14.716-.22.937 0 .22.221-.221.716 0 .937.441.442 1.432-.442 1.873 0 .221.22-.22.716 0 .937.469.468 2.342-.469 2.81 0 .222.22-.22.716 0 .937.313.312 1.562-.313 1.874 0 .221.22-.22.716 0 .937.313.312 1.562-.313 1.874 0 .22.22-.22.716 0 .936.312.313 1.561-.312 1.874 0 .22.221-.221.716 0 .937.22.221.657-.14.937 0 .395.198.541.74.936.937.559.28 1.432-.442 1.874 0 .22.22-.22.716 0 .937.442.442 1.315-.28 1.874 0 .395.197.541.74.937.937.558.279 1.315-.28 1.873 0 .395.197.542.739.937.937.508.254 3.491-.257 3.747 0 1.874 1.873-5.933.936 2.81.936-.311-.312-.936-.495-.936-.936 0-.625 1.432.441 1.874 0 .22-.221-.221-.716 0-.937.22-.221.716.22.936 0 .221-.221-.22-.716 0-.937.221-.22.716.22.937 0 .221-.22-.22-.716 0-.937.442-.442 1.432.442 1.874 0 .22-.22-.22-.716 0-.937.312-.312 1.561.313 1.874 0 .22-.22-.221-.716 0-.937.22-.22.716.221.936 0 .221-.22-.22-.716 0-.936.221-.221.658.14.937 0 .395-.198.542-.74.937-.937.28-.14.716.22.937 0 .22-.221-.22-.716 0-.937.442-.442 1.432.442 1.874 0 .22-.22-.221-.716 0-.937.441-.442 1.432.442 1.873 0 .221-.22-.22-.716 0-.937.442-.441 1.432.442 1.874 0 .22-.22-.22-.716 0-.937.442-.441 1.432.442 1.874 0 .22-.22-.221-.716 0-.936.225-.226 3.521.225 3.747 0 .22-.221-.221-.716 0-.937.22-.221.657.14.937 0 .395-.198.541-.74.937-.937.279-.14.716.22.936 0 .221-.22-.22-.716 0-.937.313-.313 1.561.313 1.874 0 .22-.22-.22-.716 0-.937.312-.312 1.561.313 1.874 0 .22-.22-.221-.716 0-.937.22-.22.657.14.936 0 .395-.197.542-.739.937-.936.28-.14.716.22.937 0 .22-.221-.22-.716 0-.937.22-.221.716.22.937 0 .22-.221-.22-.716 0-.937.22-.22.716.22.937 0 .22-.22-.221-.716 0-.937.22-.22.716.22.937 0 .22-.22-.221-.716 0-.937.22-.22.716.221.936 0 .221-.22-.22-.716 0-.937.221-.22.625 0 .937 0 0-.312-.22-.716 0-.936.221-.221.716.22.937 0 .22-.221-.14-.658 0-.937.198-.395.74-.542.937-.937.14-.28-.22-.716 0-.937.22-.22.716.221.937 0 .22-.22-.221-.716 0-.937.22-.22.716.221.937 0 .22-.22-.221-.716 0-.936.22-.221.716.22.936 0 .221-.221-.22-.716 0-.937.221-.221.716.22.937 0 .221-.221-.22-.716 0-.937.221-.221.716.22.937 0 .22-.221-.22-.716 0-.937.22-.22.716.22.937 0 .22-.22-.22-.716 0-.937.22-.22.716.221.937 0 .22-.22-.14-.657 0-.937.624-1.247 1.25-.625 1.873-1.873.14-.28-.22-.716 0-.937.221-.22.716.22.937 0 .221-.22-.22-.716 0-.937.221-.22.716.22.937 0 .22-.22-.14-.657 0-.937.198-.395.625-.624.937-.937 0-.312-.14-.657 0-.936.197-.395.74-.542.937-.937.14-.28-.14-.658 0-.937.197-.395.739-.542.937-.937.14-.28-.14-.657 0-.937.197-.395.739-.542.936-.937.14-.279-.14-.657 0-.936.198-.395.74-.542.937-.937.14-.28-.14-.658 0-.937.198-.395.74-.542.937-.937.28-.558-.28-1.315 0-1.874.197-.395.625-.624.937-.936 0-.313-.14-.658 0-.937.197-.395.74-.542.937-.937.279-.559-.442-1.432 0-1.874.22-.22.716.221.936 0 .442-.441-.441-1.432 0-1.873.221-.221.716.22.937 0 .469-.469-.468-2.342 0-2.81.221-.222.716.22.937 0 .442-.442-.28-1.316 0-1.874.198-.395.74-.542.937-.937.28-.559-.442-1.432 0-1.874.22-.22.716.22.937 0 .441-.442-.28-1.315 0-1.874.197-.395.74-.541.937-.936.14-.28-.221-.716 0-.937.22-.221.716.22.936 0 .442-.442-.441-1.432 0-1.874.221-.22.716.22.937 0 .221-.22-.14-.657 0-.937.198-.395.74-.542.937-.937.14-.279-.22-.716 0-.936.22-.221.716.22.937 0 .22-.221-.22-.716 0-.937.22-.221.716.22.937 0 .22-.221-.14-.658 0-.937.624-1.248 1.25-.626 1.873-1.874.14-.279-.22-.716 0-.937.221-.22.716.221.937 0 .221-.22-.14-.657 0-.936.198-.395.74-.542.937-.937.14-.28-.22-.716 0-.937.22-.22.716.22.937 0 .22-.22-.22-.716 0-.937.22-.22.716.221.937 0 .22-.22-.14-.657 0-.937.624-1.248 1.25-.625 1.873-1.873.14-.28-.22-.716 0-.937.221-.221.716.22.937 0 .221-.221-.22-.716 0-.937.221-.22.716.22.937 0 .22-.22-.22-.716 0-.937.22-.22.716.221.937 0 .22-.22-.22-.716 0-.937.22-.22.716.221.937 0 .22-.22-.221-.716 0-.936.22-.221.657.14.937 0 .395-.198.541-.74.936-.937.28-.14.716.22.937 0 .221-.221-.22-.716 0-.937.221-.22.716.22.937 0 .22-.22-.22-.716 0-.937.22-.22.658.14.937 0 .395-.197.542-.74.937-.937.279-.14.716.221.936 0 .221-.22-.22-.716 0-.937.442-.441 1.433.442 1.874 0 .221-.22-.22-.716 0-.936.226-.226 3.522.225 3.747 0 .221-.221-.22-.716 0-.937.29-.29 4.395.29 4.685 0 .22-.221-.221-.716 0-.937.191-.192 2.439.186 2.81 0 .395-.198.542-.74.937-.937.28-.14.716.22.937 0 .22-.22-.221-.716 0-.937.441-.441 1.432.442 1.873 0 .221-.22-.22-.716 0-.937.469-.468 2.342.469 2.81 0 .222-.22-.22-.716 0-.936.222-.221.625 0 .938 0h1.873c.344 0 3.71.037 3.748 0 .22-.221-.221-.716 0-.937.22-.221.624 0 .936 0h6.558c.313 0 .658.14.937 0 .395-.198.542-.74.937-.937.591-.296 4.093.295 4.684 0 .395-.198.542-.74.937-.937.589-.294 3.158.295 3.747 0 .395-.197.542-.74.937-.937.246-.123 3.257 0 3.747 0h5.621c.422 0 2.526.143 2.81 0 .396-.197.543-.739.938-.937.285-.142 2.388 0 2.81 0h22.484c.227 0 2.78-.03 2.81 0 .221.221-.22.716 0 .937.221.221.625 0 .937 0 2.35 0 4.208-.087 6.558.937 0-2.498-.312.312.937-.937.22-.22-.22-.716 0-.937.22-.22.716-.22.937 0 .22.221-.221.716 0 .937.22.221.716-.22.937 0 .22.221-.221.716 0 .937.441.442 1.432-.442 1.873 0 .221.22-.22.716 0 .937.221.22.716-.22.937 0 .22.22-.22.716 0 .937.22.22.716-.221.937 0 .22.22-.22.716 0 .937.22.22.716-.221.937 0 .22.22-.221.716 0 .936.22.221.716-.22.937 0 .441.442-.442 1.432 0 1.874.22.22.716-.22.936 0 .221.22-.22.716 0 .937.221.22.716-.22.937 0 .221.22-.14.657 0 .937.198.395.74.542.937.937.14.279-.22.716 0 .936.22.221.716-.22.937 0 .22.221-.22.716 0 .937.22.221.716-.22.937 0 .22.221-.221.716 0 .937.22.22.716-.22.937 0 .22.22-.221.716 0 .937.441.441 1.432-.442 1.873 0 .221.22-.22.716 0 .937.442.441 1.432-.442 1.874 0 .22.22-.221.716 0 .937.03.03 2.583 0 2.81 0 .313 0 .716.22.937 0 .221-.221-.22-.717 0-.937.221-.221.625 0 .937 0h4.684c.312 0 .716.22.937 0 .22-.221-.22-.716 0-.937.22-.22.625 0 .937 0h.937c.227 0 2.78.03 2.81 0 .22-.22-.22-.716 0-.937.29-.29 4.394.29 4.684 0 .221-.22-.22-.716 0-.937.469-.468 2.342.469 2.81 0 .222-.22-.22-.716 0-.937.442-.441 1.316.28 1.874 0 .395-.197.542-.739.937-.936.559-.28 1.432.441 1.874 0 .22-.221-.22-.716 0-.937.442-.442 1.432.441 1.874 0 .22-.221-.221-.716 0-.937.441-.442 1.315.28 1.873 0 .395-.198.542-.74.937-.937.559-.28 1.432.442 1.874 0 .22-.22-.221-.716 0-.937.312-.312 1.561.313 1.873 0 .221-.22-.22-.716 0-.937.442-.441 1.432.442 1.874 0 .22-.22-.22-.716 0-.936.442-.442 1.315.279 1.874 0 .395-.198.541-.74.936-.937.56-.28 1.432.441 1.874 0 .22-.221-.22-.716 0-.937.469-.468 2.342.468 2.81 0 .221-.22-.22-.716 0-.937.442-.442 1.433.442 1.874 0 .221-.22-.22-.716 0-.937.469-.468 2.342.469 2.81 0 .222-.22-.22-.716 0-.937.47-.468 2.343.469 2.811 0 .221-.22-.22-.716 0-.936.469-.469 2.342.468 2.81 0 .222-.221-.22-.716 0-.937.442-.442 1.316.28 1.874 0 .395-.198.542-.74.937-.937.372-.186 2.62.191 2.81 0 .221-.22-.22-.716 0-.937.33-.329 4.038.324 4.685 0 .395-.197.542-.74.937-.937.279-.14.624 0 .936 0h3.748c.312 0 .657.14.937 0 .395-.197.541-.739.936-.937.56-.279 1.315.28 1.874 0 .395-.197.542-.739.937-.936.371-.186 2.619.191 2.81 0 .221-.221-.22-.716 0-.937.221-.221.625 0 .937 0h6.559c.312 0 .658.14.937 0 .395-.198.542-.74.937-.937.285-.143 2.388 0 2.81 0h7.495c.312 0 .716.22.937 0 .22-.22-.221-.716 0-.937.328-.329 4.037.324 4.684 0 .395-.197.542-.74.937-.937.508-.254 3.49.257 3.747 0 .22-.22-.22-.716 0-.936.191-.192 2.439.185 2.81 0 .395-.198.542-.74.937-.937.372-.186 2.62.191 2.81 0 .222-.221-.22-.716 0-.937.257-.256 3.24.254 3.748 0 .395-.198.542-.74.937-.937.647-.324 4.355.329 4.684 0 .22-.22-.22-.716 0-.937.312-.312 1.561.313 1.874 0 .22-.22-.221-.716 0-.937.312-.312 1.56.313 1.873 0 .221-.22-.22-.716 0-.936.313-.313 1.562.312 1.874 0 .22-.221-.22-.716 0-.937.468-.469 2.342.468 2.81 0 .094-.094.094-2.717 0-2.81-.468-.47-2.342.468-2.81 0-.22-.222.22-.717 0-.938-.22-.22-.658.14-.937 0-.249-.124-2.686-2.561-2.81-2.81-.28-.559.441-1.432 0-1.874-.221-.22-.716.221-.937 0-.469-.468.468-2.342 0-2.81-.221-.221-.716.22-.937 0-.225-.226.225-3.522 0-3.748-.22-.22-.716.221-.937 0-.22-.22 0-.624 0-.936v-5.621c0-.313-.22-.716 0-.937.221-.221.716.22.937 0 .468-.469-.468-2.342 0-2.81.22-.221.716.22.937 0 .22-.221-.221-.717 0-.937.22-.221.716.22.937 0 .22-.221-.221-.716 0-.937.22-.221.716.22.936 0 .221-.221-.22-.716 0-.937.221-.22.716.22.937 0 .221-.22-.22-.716 0-.937.221-.22.716.22.937 0 .22-.22-.22-.716 0-.937.22-.22.658.14.937 0 .395-.197.542-.74.937-.937.28-.14.716.221.937 0 .22-.22-.221-.716 0-.936.468-.469 2.342.468 2.81 0 .22-.221-.22-.716 0-.937.22-.221.625 0 .937 0h.937c.227 0 2.78.03 2.81 0 .221-.221-.22-.716 0-.937.226-.226 3.522.225 3.748 0 .22-.22-.221-.716 0-.937.56-.56 1.873 1.013 1.873-.937 0-.312-.937-.312-.937 0 0 .313.716.221.937 0 .221-.22-.22-.716 0-.937.221-.22.716.221.937 0 .442-.441-.442-1.432 0-1.873.22-.221.716.22.937 0 .468-.469-.469-2.342 0-2.81.22-.222.716.22.937 0 .191-.192-.186-2.44 0-2.811.197-.395.739-.542.937-.937.185-.371-.192-2.619 0-2.81.493-.494 1.175-.937 1.873-.937.442 0-.495.936-.937.936-.312 0-.22-.716 0-.936.221-.221.716.22.937 0 .221-.221-.22-.716 0-.937.221-.221.716.22.937 0 .22-.221-.22-.716 0-.937.312-.312 1.561.312 1.874 0 .22-.22-.221-.716 0-.937.22-.22.657.14.936 0 .395-.197.542-.74.937-.937.28-.14.716.221.937 0 .221-.22-.22-.716 0-.936.442-.442 1.432.441 1.874 0 .22-.221-.221-.716 0-.937.225-.226 3.522.225 3.747 0 .22-.221-.22-.716 0-.937.226-.226 3.522.225 3.747 0 .221-.221-.22-.716 0-.937.442-.442 1.315.28 1.874 0 .395-.197.625-.625.937-.937.312 0 .657.14.937 0 .395-.197.542-.74.937-.937.279-.14.657.14.936 0 .395-.197.542-.739.937-.936.28-.14.658.14.937 0 .395-.198.542-.74.937-.937.28-.14.716.22.937 0 .22-.221-.221-.716 0-.937.441-.442 1.432.442 1.873 0 .221-.22-.22-.716 0-.937.221-.22.716.22.937 0 .221-.22-.22-.716 0-.937.192-.191 2.44.186 2.81 0 .396-.197.543-.74.938-.937.59-.295 4.093.296 4.684 0 .395-.197.541-.739.936-.936.56-.28 1.432.441 1.874 0 .22-.221-.22-.716 0-.937.22-.221.716.22.937 0 .22-.221-.22-.716 0-.937.312-.312 1.561.312 1.874 0 .22-.22-.221-.716 0-.937 1.596-1.597 1.873 5.346 1.873-2.81 0-2.262-2.148 5.232 0 .936.123-.246 0-3.257 0-3.747v-8.431c0-.228.03-2.78 0-2.81-.22-.222-.716.22-.937 0-.441-.442.442-1.433 0-1.874-.56-.56-1.873 1.012-1.873-.937 0-.313.937.312.937 0 0-.313-.625 0-.937 0h-.937c-2.594 0 .72-.937-1.874-.937-.344 0-3.71.038-3.747 0-.22-.22.22-.716 0-.937-.468-.468-2.342.468-2.81 0-.221-.22.22-.716 0-.937-.469-.468-2.343.469-2.811 0-.22-.22.22-.716 0-.937-.22-.22-.625 0-.937 0h-.937c-2.498 0 .313.313-.936-.936-.442-.442-1.433.441-1.874 0-.22-.221.22-.716 0-.937-.192-.192-2.44.185-2.81 0-.396-.198-.542-.74-.937-.937-.559-.28-1.315.28-1.874 0-.395-.198-.542-.74-.937-.937-.559-.28-1.432.442-1.874 0-.22-.22.221-.716 0-.937-.312-.312-1.56.313-1.873 0-.221-.22.22-.716 0-.937-.469-.468-2.342.469-2.81 0-.222-.22.22-.716 0-.936-.47-.469-2.343.468-2.811 0-.221-.221.22-.716 0-.937-.442-.442-1.315.28-1.874 0-.395-.198-.542-.74-.937-.937-.558-.28-1.432.442-1.873 0-.221-.22.22-.716 0-.937-.442-.442-1.432.442-1.874 0-.22-.22.22-.716 0-.937-.442-.441-1.432.442-1.874 0-.22-.22.221-.716 0-.937-.441-.441-1.432.442-1.873 0-.221-.22.22-.716 0-.936-.442-.442-1.315.279-1.874 0-.395-.198-.542-.74-.937-.937-.28-.14-.716.22-.937 0-.22-.221.221-.716 0-.937-.22-.22-.716.22-.936 0-.221-.22.22-.716 0-.937-.442-.441-1.432.442-1.874 0-.22-.22.22-.716 0-.937-.469-.468-2.342.469-2.81 0-.221-.22.22-.716 0-.937-.313-.312-1.562.313-1.874 0-.221-.22.22-.716 0-.936-.469-.469-2.342.468-2.81 0-.222-.221.22-.716 0-.937-.442-.442-1.316.28-1.874 0-.395-.198-.542-.74-.937-.937-.559-.28-1.432.442-1.874 0-.22-.22.22-.716 0-.937-.312-.312-1.561.313-1.874 0-.22-.22.221-.716 0-.937-.312-.312-1.56.313-1.873 0-.221-.22.22-.716 0-.936-.313-.313-1.561.312-1.874 0-.22-.221.221-.716 0-.937-.441-.442-1.315.279-1.874 0-.395-.198-.541-.74-.936-.937-.28-.14-.658.14-.937 0-.395-.198-.542-.74-.937-.937-.28-.14-.657.14-.937 0-.395-.197-.542-.74-.937-.937-.558-.28-1.432.442-1.873 0-.221-.22.22-.716 0-.937-.442-.441-1.432.442-1.874 0-.22-.22.22-.716 0-.936-.225-.226-3.522.225-3.747 0-.221-.221 0-.625 0-.937l-3.748-.937c2.133-2.132.69-.248 0-.937-.22-.22 0-.624 0-.937 0-.312-.22-.716 0-.937.221-.22.716.221.937 0 .221-.22 0-.624 0-.936v-5.621c0-2.197-.22.441.937-1.874.14-.28 0-.625 0-.937v-6.557c0-.313.22-.717 0-.937-.22-.221-.716.22-.937 0-.441-.442.442-1.433 0-1.874-.441-.442-1.432.441-1.873 0-.221-.221.22-.716 0-.937-.442-.442-1.432.442-1.874 0-.22-.22.22-.716 0-.937-.442-.441-1.315.28-1.874 0-.395-.197-.542-.74-.937-.937-.279-.14-.657.14-.936 0-.395-.197-.542-.739-.937-.936-.559-.28-1.432.441-1.874 0-.22-.221.22-.716 0-.937-.468-.469-2.342.468-2.81 0-.221-.221.22-.716 0-.937-.221-.22-.716.22-.937 0-.221-.22.22-.716 0-.937-.313-.312-1.561.312-1.874 0-.22-.22.221-.716 0-.937-.441-.441-1.315.28-1.873 0-.395-.197-.542-.74-.937-.937-.372-.185-2.62.192-2.81 0-.222-.22.22-.716 0-.936-.222-.221-.658.14-.938 0-.395-.198-.541-.74-.936-.937-.56-.28-1.432.441-1.874 0-.22-.221.22-.716 0-.937-.469-.469-2.342.468-2.81 0-.221-.22.22-.716 0-.937-.469-.468-2.343.468-2.811 0-.22-.22.22-.716 0-.937-.468-.468-2.342.469-2.81 0-.221-.22.22-.716 0-.937-.313-.312-1.562.313-1.874 0-.221-.22.22-.716 0-.936-.192-.192-2.44.185-2.81 0-.396-.198-.543-.74-.938-.937-.279-.14-.657.14-.936 0-.395-.198-.542-.74-.937-.937-.559-.28-1.315.28-1.874 0-.395-.198-.542-.74-.937-.937-.371-.186-2.619.192-2.81 0-.221-.22.22-.716 0-.937-.313-.312-1.561.313-1.874 0-.22-.22.221-.716 0-.937-.22-.22-.657.14-.937 0-.395-.197-.541-.739-.936-.936-.28-.14-.716.22-.937 0-.221-.221.22-.716 0-.937-.221-.221-.658.14-.937 0-.395-.198-.542-.74-.937-.937-.28-.14-.716.22-.937 0-.22-.22.221-.716 0-.937-.312-.312-1.561.313-1.873 0-.221-.22.22-.716 0-.937-.221-.22-.625 0-.937 0 0-.312.22-.716 0-.937-.408-.407-7.79 1.424-4.684-2.81-2.499 0 .312.312-.937-.937-.442-.441-1.432.442-1.874 0-.22-.22.22-.716 0-.937-.22-.22-.624 0-.937 0h-15.926c-.312 0-.716-.22-.937 0-.22.221.221.716 0 .937-.29.29-4.394-.29-4.684 0-.22.221.221.716 0 .937-.22.22-.624 0-.937 0h-14.99c-.312 0-.716-.22-.937 0-.22.22.221.716 0 .937-.03.03-2.583 0-2.81 0-2.197 0 .441-.221-1.874.937-.28.14-.624 0-.937 0-.664 0-5.378-.121-5.62 0-.396.197-.542.739-.937.936-.28.14-.625 0-.937 0h-7.496c-.312 0-.716.221-.937 0-.22-.22.221-.716 0-.936-.22-.221-.624 0-.937 0H505.57c-.313 0-.716.22-.937 0-.221-.221.22-.716 0-.937-.221-.221-.625 0-.937 0h-4.684c-.312 0-.716.22-.937 0-.22-.221.22-.716 0-.937-.22-.22-.624 0-.937 0h-.937c-.664 0-5.378.121-5.62 0-.396-.197-.542-.74-.937-.937-.591-.295-4.094.296-4.685 0-.395-.197-.541-.74-.936-.937-.559-.279-1.315.28-1.874 0-.395-.197-.542-.739-.937-.936-.508-.255-3.49.256-3.747 0-.221-.221.22-.716 0-.937-.221-.221-.625 0-.937 0h-6.557c-.313 0-.717.22-.938 0-.22-.221.221-.716 0-.937-.256-.256-3.239.254-3.747 0-.395-.198-.542-.74-.937-.937-.246-.123-3.257 0-3.747 0h-8.432c-.926 0-2.932.204-3.747 0-.958-.24-1.873-.625-2.81-.937 0-.312.22-.716 0-.937-.03-.03-2.584 0-2.81 0-.313 0-.717.221-.938 0-.22-.22.221-.716 0-.936-.03-.03-2.583 0-2.81 0h-.937c-.312 0-.716.22-.937 0-.22-.221.221-.716 0-.937-.441-.442-1.432.441-1.873 0-.221-.221.22-.716 0-.937-.469-.469-2.342.468-2.81 0-.222-.22.22-.716 0-.937-.443-.442-1.316.28-1.875 0-.395-.197-.541-.74-.936-.937-.559-.28-1.432.442-1.874 0-.22-.22.22-.716 0-.937-.442-.441-1.315.28-1.874 0-.395-.197-.542-.739-.937-.936-.279-.14-.716.22-.936 0-.221-.221.22-.716 0-.937-.313-.313-1.562.312-1.874 0-.22-.221.22-.716 0-.937-.22-.22-.716.22-.937 0-.22-.22.221-.716 0-.937-.441-.442-1.432.442-1.873 0-.221-.22.22-.716 0-.937-.221-.22-.717.221-.937 0-.221-.22.22-.716 0-.937-.313-.312-1.562.313-1.874 0-.22-.22.22-.716 0-.936-.22-.221-.657.14-.937 0-.395-.198-.542-.74-.937-.937-.558-.28-1.432.441-1.873 0-.221-.221.22-.716 0-.937-.221-.22-.716.22-.937 0-.22-.22.22-.716 0-.937-.442-.442-1.315.28-1.874 0-.395-.197-.542-.74-.937-.937-.508-.254-3.49.257-3.747 0-.22-.22.22-.716 0-.937-.22-.22-.624 0-.937 0h-7.494c-.313 0 .936.313.936 0 0-.312-.624 0-.936 0h-1.874c-.312 0 .937.313.937 0 0-.312-.625 0-.937 0h-.937c-.312 0-.716-.22-.937 0-.22.221.221.716 0 .937-.22.221-.624 0-.937 0h-.936c-.442 0-4.642-.042-4.684 0-.221.221.22.716 0 .937-.221.22-.625 0-.937 0h-6.559c-.312 0-.658-.14-.937 0-.395.198-.542.74-.937.937-.589.294-3.158-.294-3.747 0-.395.197-.542.74-.937.937-.647.323-4.355-.33-4.684 0-.22.22.22.716 0 .937-.442.441-1.315-.28-1.874 0-.395.197-.542.739-.937.936-.371.186-2.618-.191-2.81 0-.22.221.22.716 0 .937-.468.469-2.342-.468-2.81 0-.221.221.22.716 0 .937-.469.469-2.343-.468-2.811 0-.22.22.22.716 0 .937-.442.442-1.315-.28-1.874 0-.395.197-.541.74-.936.937-.591.295-4.094-.296-4.685 0-.395.197-.541.74-.936.937-.372.185-2.62-.192-2.81 0-.222.22.22.716 0 .936-.443.442-1.316-.279-1.875 0-.395.198-.541.74-.936.937-.372.186-2.62-.191-2.81 0-.222.221.22.716 0 .937-.313.312-1.562-.312-1.875 0-.22.22.221.716 0 .937-.468.468-2.342-.469-2.81 0-.22.22.22.716 0 .937-.22.22-.658-.14-.937 0-.395.197-.542.74-.937.937-.279.14-.657-.14-.937 0-.395.197-.541.739-.936.936-.372.186-2.62-.191-2.81 0-.222.221.22.716 0 .937-.47.469-2.343-.468-2.811 0-.221.221.22.716 0 .937-.442.442-1.315-.28-1.874 0-.395.198-.542.74-.937.937-.558.28-1.432-.442-1.873 0-.221.22.22.716 0 .937-.313.312-1.561-.313-1.874 0-.22.22.22.716 0 .937-.312.312-1.561-.313-1.874 0-.22.22.221.716 0 .936-.468.469-2.342-.468-2.81 0-.221.221.22.716 0 .937-.226.226-3.522-.225-3.748 0-.22.221.221.716 0 .937-.22.22-.624 0-.936 0-.344 0-3.71.038-3.748 0-.22-.22.221-.716 0-.937-.468-.468-2.342.469-2.81 0-.221-.22.22-.716 0-.937-.221-.22-.658.14-.937 0-.395-.197-.542-.739-.937-.936-.28-.14-.716.22-.937 0-.22-.221.221-.716 0-.937-.441-.442-1.432.441-1.873 0-.221-.221.22-.716 0-.937-.442-.442-1.432.441-1.874 0-.22-.22.22-.716 0-.937-.442-.442-1.432.442-1.874 0-.22-.22.221-.716 0-.937-.22-.22-.657.14-.936 0-3.9-1.95 1.001.065-.937-1.873-.221-.221-.716.22-.937 0-.22-.221.22-.716 0-.937-.22-.221-.716.22-.937 0-.22-.221.28-.797 0-.937-5.309-2.654-.937 1.327-.937 0 0-.312-.624 0-.937 0h-7.494c-.422 0-2.526-.143-2.81 0-.396.197-.543.74-.938.937-.285.142-2.388 0-2.81 0-3.207 0-6.283.26-9.368-.937 0-.312-.221-.716 0-.937.22-.22.716.22.937 0 .22-.22 0-.624 0-.937 0-.312.22-.716 0-.937-.221-.22-.716.221-.937 0-.221-.22 0-.624 0-.936 0-.652.17-4.346 0-4.685-.198-.395-.74-.541-.937-.936-.123-.247 0-3.258 0-3.748v-7.494c0-.442.042-4.642 0-4.684-1.25-1.25-.937 1.56-.937-.937v-4.684c0-.313.22-.716 0-.937-.22-.221-.716.22-.937 0-.22-.221.221-.716 0-.937-.22-.22-.716.22-.937 0-.22-.22.221-.716 0-.937-.22-.22-.716.22-.936 0-1.874-1.874 5.933-.937-2.81-.937h.935-19.673c-.312 0-.716-.22-.936 0-.221.221.22.716 0 .937-.469.468-2.342-.468-2.81 0-.222.22.22.716 0 .937-.226.225-3.523-.226-3.748 0-.22.22.22.716 0 .937-.22.22-.625 0-.937 0-.344 0-3.71.037-3.747 0-.221-.221.22-.716 0-.937-.221-.22-.625 0-.937 0-.227 0-2.78-.03-2.81 0-.221.22.22.716 0 .937-.442.441-1.433-.442-1.874 0-.221.22.22.716 0 .937-.221.22-.716-.221-.937 0-.22.22.22.716 0 .936-.22.221-.658-.14-.937 0-.395.198-.518.798-.937.937-.592.198-1.249 0-1.873 0-.313 0 .936.313.936 0 0-.312-.624 0-.936 0-.313 0-.658-.14-.937 0-.395.198-.937.495-.937.937 0 .312.937.312.937 0s-.625 0-.937 0h-.937c-.312 0-.716-.22-.937 0-.22.22.221.716 0 .937-.22.22-.624 0-.936 0h-6.558c-.313 0-.716-.22-.937 0-.22.22.22.716 0 .937-.29.29-4.394-.29-4.684 0-.221.22.22.716 0 .937-.038.037-3.404 0-3.748 0h-5.621c-.312 0-.657.14-.936 0-.395-.198-.542-.74-.937-.937-.285-.143-2.389 0-2.81 0h-6.558c-.228 0-2.78.03-2.811 0-.22-.221.22-.716 0-.937-.312-.312-1.561.312-1.874 0-.22-.22.221-.716 0-.937-.441-.442-1.354.346-1.873 0-5.054-3.37-.54-1.477 0-.937.22.221-.658.14-.937 0-.395-.197-.542-.74-.937-.937-.28-.14-.716.221-.937 0-.22-.22.221-.716 0-.936-.22-.221-.624 0-.937 0h-.936c-.313 0-.716.22-.937 0-.221-.221.22-.716 0-.937-.221-.221-.625 0-.937 0-.312 0-.716-.221-.937 0-.22.22.22.716 0 .937-.22.22-.716-.221-.937 0-.22.22.221.716 0 .936-.312.313-1.561-.312-1.873 0-.221.221.22.716 0 .937-.221.221-.716-.22-.937 0-.221.221.22.716 0 .937-.442.442-1.432-.442-1.874 0-.22.22.22.716 0 .937-.441.442-1.432-.442-1.874 0-.22.22.221.716 0 .937-.22.22-.716-.221-.936 0-.221.22.22.716 0 .937-.221.22-.658-.14-.937 0-.395.197-.542.739-.937.936-.28.14-.716-.22-.937 0-.441.442.442 1.432 0 1.874-.22.22-.716-.22-.937 0-.22.22.221.716 0 .937-.22.22-.716-.221-.937 0-.22.22.221.716 0 .937-.22.22-.716-.221-.936 0-.221.22.22.716 0 .936-.221.221-.716-.22-.937 0-.22.221.22.717 0 .937-.22.221-.716-.22-.937 0-.22.221.14.658 0 .937-.09.18-3.568 3.658-3.747 3.747-.28.14-.716-.22-.937 0-.221.221.22.716 0 .937-.221.221-.716-.22-.937 0-.22.221.22.716 0 .937-.22.22-.657-.14-.937 0-.395.198-.542.74-.937.937-.279.14-.716-.22-.936 0-.221.22.22.716 0 .937-.442.441-1.432-.442-1.874 0-.22.22.22.716 0 .937-.22.22-.716-.221-.937 0-.22.22.14.657 0 .936-.46.922-3.286 2.826-3.747 3.748-.14.28.22.716 0 .937-.221.22-.716-.221-.937 0-.22.22.22.716 0 .936-.22.221-.716-.22-.937 0-.22.221.22.716 0 .937-.22.221-.716-.22-.937 0-.22.221.221.716 0 .937-.22.22-.716-.22-.937 0-.22.22.14.658 0 .937-.197.395-.739.542-.936.937-.14.279.22.716 0 .937-.221.22-.716-.221-.937 0-.221.22.22.716 0 .936-.221.221-.716-.22-.937 0-.22.221.22.716 0 .937-.22.221-.716-.22-.937 0-.22.221.221.716 0 .937-.22.22-.716-.22-.937 0-.22.22.221.716 0 .937-.22.22-.657-.14-.937 0-.395.197-.541.74-.936.937-.28.14-.716-.221-.937 0-.221.22.22.716 0 .937-.221.22-.716-.221-.937 0-.22.22.22.716 0 .936-.22.221-.716-.22-.937 0-.22.221.221.716 0 .937-.22.221-.716-.22-.937 0-.22.221.221.716 0 .937-.22.22-.716-.22-.936 0-.221.22.22.716 0 .937-.221.22-.717-.221-.937 0-.221.22.22.716 0 .937-.221.22-.716-.221-.937 0-.221.22.22.716 0 .936-.221.221-.716-.22-.937 0-.22.221.22.716 0 .937-.22.221-.716-.22-.937 0-.22.221.221.716 0 .937-.22.221-.716-.22-.937 0-.22.221 0 .625 0 .937l-2.81 1.874h.937c.312 0 .937.312.937 0 0-.313-.625 0-.937 0-.666 0-2.81-.394-2.81.936 0 .313.936.313.936 0 0-.312-.625 0-.937 0h-.937c-.421 0-2.525-.142-2.81 0-.395.198-.542.74-.937.937-.285.143-2.388 0-2.81 0h-6.558c-.312 0-.716-.22-.937 0-.22.221.22.716 0 .937-.29.29-4.394-.29-4.684 0-.221.22.22.716 0 .937-.043.042-4.243 0-4.684 0-.313 0-.716.22-.937 0-.22-.22.22-.716 0-.937-.03-.03-2.583 0-2.81 0-2.499 0 .312.312-.937-.937-.257-.256-3.24.254-3.748 0-.395-.197-.542-.739-.937-.937-.558-.279-1.432.442-1.873 0-.221-.22.22-.716 0-.936-.313-.313-1.562.312-1.874 0-.22-.221.22-.716 0-.937-.468-.469-2.342.468-2.81 0-.221-.221.22-.716 0-.937-.469-.468-2.342.468-2.81 0-.222-.22.22-.716 0-.937-.47-.468-2.343.469-2.811 0-.221-.22.22-.716 0-.937-.221-.22-.625 0-.937 0-.652 0-4.346-.17-4.684 0-.395.198-.542.74-.937.937-.508.254-3.491-.256-3.747 0-.221.221.22.716 0 .937-.221.22-.658-.14-.937 0-.395.197-.542.74-.937.937-.28.14-.716-.221-.937 0-.22.22.14.657 0 .937-1.95 3.898.065-1.002-1.874.936-.22.221.14.658 0 .937-1.949 3.9.065-1.001-1.873.937-.221.22.22.716 0 .937-.313.312-1.562-.312-1.874 0-.22.22.22.716 0 .937-.22.22-.657-.14-.937 0-.395.197-.542.74-.937.937-.558.279-1.432-.442-1.873 0-.221.22.22.716 0 .936-.313.313-1.561-.312-1.874 0-.22.221.22.716 0 .937-.441.442-1.315-.28-1.874 0-.395.198-.541.74-.936.937-.28.14-.658-.14-.937 0-.395.198-.542.74-.937.937-.559.28-1.315-.28-1.874 0-.395.197-.541.74-.937.937-.279.14-.624 0-.936 0h-5.621c-.313 0-.716.22-.937 0-.22-.221.22-.716 0-.937-.312-.312-1.561.312-1.874 0-.22-.22.221-.716 0-.937-.22-.22-.716.22-.937 0-.22-.22.221-.716 0-.937-.22-.22-.657.14-.936 0-.395-.197-.542-.74-.937-.937-.559-.279-1.432.442-1.874 0-.22-.22.22-.716 0-.936-.22-.221-.624 0-.937 0-.312 0-.716-.221-.937 0-.22.22.221.716 0 .936-.22.221-.716-.22-.936 0-.03.03 0 2.584 0 2.81 0 2.5.312-.311-.937.938-.257.256.254 3.239 0 3.747-.198.395-.74.542-.937.937-.123.246 0 3.257 0 3.747 0 .312-.22.716 0 .937 1.25 1.25.937-1.561.937.937 0 .49-.123 3.5 0 3.747.197.395.74.542.937.937.14.28-.221.716 0 .937.468.468 2.342-.469 2.81 0 .22.22-.22.716 0 .937.22.22.716-.221.937 0 .22.22-.22.716 0 .936.22.221.716-.22.937 0 .22.221-.221.716 0 .937.22.221.716-.22.937 0 .22.221 0 .625 0 .937v2.811c0 .312.312-.937 0-.937-.313 0 0 .624 0 .937v10.305c0 .312.22.716 0 .937-.221.22-.716-.221-.937 0-.221.22 0 .624 0 .936v4.685c0 .312-.221.716 0 .936.22.221.716-.22.937 0 .037.038 0 3.404 0 3.748v6.557c0 .313-.221.716 0 .937.22.221.716-.22.936 0 .221.221-.14.658 0 .937 1.95 3.899-.064-1.001 1.874.937 1.154 1.154-2.859 1.874 1.874 1.874.441 0-.495-.937-.937-.937-.312 0-.22.716 0 .937.22.22.716-.221.937 0 .22.22-.221.716 0 .936.22.221.716-.22.937 0 .22.221-.221.716 0 .937.441.442 1.432-.441 1.873 0 .221.221-.22.716 0 .937.221.22.658-.14.937 0 .395.198.542.74.937.937.28.14.716-.22.937 0 .22.22-.221.716 0 .937.312.312 1.561-.313 1.873 0 .221.22-.22.716 0 .937.221.22.716-.221.937 0 .221.22-.22.716 0 .936.221.221.716-.22.937 0 .22.221-.22.716 0 .937.22.221.716-.22.937 0 .22.221-.221.716 0 .937.441.442 1.432-.442 1.873 0 .221.22-.22.716 0 .937.221.22.625 0 .937 0h1.874c.312 0-.937-.312-.937 0s.625 0 .937 0h1.874c.312 0-.937-.312-.937 0s.624 0 .937 0h2.81c.227 0 2.78-.03 2.81 0 .221.22-.22.716 0 .937.442.441 1.316-.28 1.874 0 .395.197.542.739.937.937.559.279 1.432-.442 1.874 0 .22.22-.221.716 0 .936.441.442 1.315-.279 1.873 0 .395.198.542.74.937.937.28.14.658-.14.937 0 .395.198.542.74.937.937.28.14.716-.22.937 0 .22.22-.221.716 0 .937.22.22.716-.221.937 0 .22.22-.221.716 0 .937.441.441 1.432-.442 1.873 0 .221.22-.22.716 0 .937.221.22.716-.221.937 0 .22.22-.22.716 0 .936.22.221.716-.22.937 0 .22.221-.221.716 0 .937.22.221.716-.22.937 0 .22.221-.221.716 0 .937.22.22.716-.22.937 0 .22.22-.221.716 0 .937.22.22.715-.221.936 0 .221.22-.22.716 0 .937.221.22.716-.221.937 0 .221.22 0 .624 0 .936 0 .313.14.658 0 .937-.197.395-.937.496-.937.937 0 .312.937.312.937 0s-.657-.14-.937 0c-.395.198-.541.74-.936.937-.28.14-.716-.22-.937 0-1.25 1.25 1.561.937-.937.937s.312-.312-.937.937c-.442.441-1.432-.442-1.874 0-.22.22.221.716 0 .936-.441.442-1.432-.441-1.873 0-.221.221.22.716 0 .937-.442.442-1.315-.279-1.874 0-.395.198-.542.74-.937.937-.371.186-2.619-.191-2.81 0-.221.22.22.716 0 .937-.29.29-4.394-.29-4.684 0-.221.22.22.716 0 .937-.221.22-.625 0-.937 0-.442 0-4.642-.043-4.684 0-.221.22.22.716 0 .937-.442.441-1.432-.442-1.874 0-.22.22 0 .624 0 .936 0 .422-.143 2.526 0 2.81.197.396.74.543.937.938.17.339 0 4.032 0 4.684v14.989c0 .312.22.716 0 .937-.221.22-.716-.22-.937 0-.22.22.22.716 0 .937-.22.22-.716-.221-.937 0-.22.22.22.716 0 .937-.22.22-.716-.221-.937 0-.22.22.221.716 0 .936-.22.221-.716-.22-.937 0-.22.221.221.716 0 .937-.22.221-.657-.14-.936 0-.395.198-.542.74-.937.937-.28.14-.716-.22-.937 0-.22.22.22.716 0 .937-.22.22-.716-.22-.937 0-.22.22.221.716 0 .937-.22.22-.716-.221-.937 0-.22.22.221.716 0 .937-.22.22-.716-.221-.937 0-1.938 1.938 2.963-.076-.936 1.873-.28.14-.716-.22-.937 0-.221.221.22.716 0 .937-.221.22-.658-.14-.937 0-.395.198-.542.74-.937.937-.28.14-.716-.22-.937 0-.22.22.221.716 0 .937-.22.22-.716-.221-.936 0-.221.22.22.716 0 .937-.221.22-.625 0-.937 0l-2.81 3.747c-1.88 7.715 2.642 1.706 3.747 2.81.22.221-.221.716 0 .937.22.221.716-.22.936 0 .221.221-.22.716 0 .937.221.22.716-.22.937 0 .221.22-.22.716 0 .937.221.22.716-.221.937 0 .22.22-.22.716 0 .937.22.22.716-.221.937 0 .22.22-.221.716 0 .936.22.221.716-.22.937 0 .22.221-.221.716 0 .937.22.221.716-.22.936 0 .221.221-.22.716 0 .937.221.22.717-.22.937 0 .221.22-.14.658 0 .937.198.395.74.542.937.937.14.28-.22.716 0 .937.221.22.716-.221.937 0 .22.22-.22.716 0 .936.22.221.716-.22.937 0 .22.221-.221.716 0 .937.22.221.657-.14.937 0 .922.461 2.825 3.287 3.747 3.748.28.14.716-.221.937 0 .22.22-.221.716 0 .936.22.221.716-.22.937 0 .22.221-.221.716 0 .937.22.221.624 0 .936 0 0 .313-.14.658 0 .937.624 1.248 1.25.626 1.874 1.874.14.279-.14.657 0 .937.198.395.74.541.937.936.14.28 0 .625 0 .937.312.312.74.542.937.937.28.559-.442 1.432 0 1.874.22.22.716-.221.937 0 .441.441-.442 1.432 0 1.873.22.221.716-.22.936 0 .469.469-.468 2.342 0 2.81.221.222.716-.22.937 0 .221.222-.14.658 0 .938.198.395.74.541.937.936.28.56-.442 1.433 0 1.874.22.22.716-.22.937 0 .22.22-.22.716 0 .937.22.22.716-.22.937 0 .22.22-.221.716 0 .937.22.22.716-.221.937 0 .22.22-.221.716 0 .937.22.22.936-.313.936 0 0 .312-1.249 0-.936 0h5.62c.652 0 4.346.169 4.685 0 .395-.198.541-.74.937-.937.508-.254 3.49.256 3.747 0 .22-.221-.221-.716 0-.937.468-.468 2.342.468 2.81 0 .221-.22 0-.625 0-.937.313 0 .658.14.937 0 .395-.197.625-1.249.937-.937.312.313-1.379.937-.937.937.698 0 1.38-.443 1.874-.937.22-.22-.221-.716 0-.937.22-.22.716.221.937 0 .22-.22.312-.936 0-.936-.442 0-1.379.936-.937.936 4.732 0 .72-.72 1.873-1.873.221-.221.716.22.937 0 .221-.221-.22-.716 0-.937.221-.22.716.22.937 0 .442-.442-.442-1.432 0-1.874.22-.22.716.221.937 0 .442-.441-.442-1.432 0-1.873.22-.221.624 0 .937 0 .312 0 .937-.313.937 0 0 .312-1.25 0-.937 0h1.873c.313 0 .716-.221.937 0 .221.22-.22.716 0 .937.442.441 1.432-.442 1.874 0 .22.22-.22.716 0 .936.441.442 1.315-.279 1.874 0 .395.198.541.74.936.937.559.28 1.432-.441 1.874 0 .22.221-.22.716 0 .937.22.22.658-.14.937 0 .395.198.542.74.937.937.279.14.716-.221.937 0 .22.22-.221.716 0 .937.441.441 1.432-.442 1.873 0 .221.22-.22.716 0 .936.469.469 2.342-.468 2.81 0 .221.221-.22.717 0 .937.469.469 2.343-.468 2.811 0 .221.221-.22.716 0 .937.256.256 3.24-.254 3.747 0 .395.198.542.74.937.937.372.186 2.62-.192 2.81 0 .222.22-.22.716 0 .937.442.441 1.316-.28 1.874 0 .395.197.542.74.937.937.28.14.716-.221.937 0 .22.22-.22.716 0 .936.313.313 1.561-.312 1.874 0 .22.221-.221.716 0 .937.312.313 1.561-.312 1.873 0 .221.221-.22.716 0 .937.469.469 2.342-.468 2.81 0 .222.22-.22.716 0 .937.192.191 2.44-.186 2.811 0 .395.197.542.74.937.937.559.28 1.315-.28 1.874 0 .395.197.542.74.937.937 1.292.646.838-1.135 1.873.936.14.28-.22.716 0 .937.221.221.716-.22.937 0 .221.221-.22.716 0 .937.221.22.716-.22.937 0 .22.22-.22.716 0 .937.22.22.716-.22.937 0 .22.22-.221.716 0 .937.22.22.716-.221.937 0 .22.22-.221.716 0 .937.22.22.716-.221.936 0 .221.22-.22.716 0 .936.442.442 1.433-.441 1.874 0 .22.221-.14.658 0 .937 1.95 3.9-.065-1.001 1.874.937.22.22-.221.716 0 .937.312.312 1.561-.312 1.873 0 .221.22-.22.716 0 .937.313.312 1.562-.313 1.874 0 .22.22-.22.716 0 .937.312.312 1.561-.313 1.874 0 .22.22-.221.716 0 .936.312.313 1.56-.312 1.873 0 .221.221-.22.716 0 .937.221.221.658-.14.937 0 .395.198.542.74.937.937.559.28 1.432-.442 1.874 0 .22.22-.221.716 0 .937.312.312 1.561-.313 1.873 0 .221.22-.22.716 0 .937.221.22.658-.14.937 0 .395.197.542.739.937.936.28.14.716-.22.937 0 .22.221-.22.716 0 .937.441.442 1.432-.441 1.873 0 .221.221-.22.716 0 .937.221.221.717-.22.937 0 .221.221-.22.716 0 .937.221.22.716-.22.937 0 .22.22-.22.716 0 .937.442.441 1.432-.442 1.874 0 .22.22-.221.716 0 .937.22.22.716-.221.937 0 .22.22-.221.716 0 .936.22.221.716-.22.936 0 .221.221-.22.716 0 .937.221.221.716-.22.937 0 .221.221.313.937 0 .937-.312 0-.312-.937 0-.937.302 0 1.353 1.614 1.874 1.874.28.14.624 0 .937 0 .312 0 .657.14.937 0 .395-.198.541-.74.936-.937.28-.14.716.22.937 0 1.939-1.938-2.962.076.937-1.874.28-.14.716.221.937 0 .22-.22-.22-.716 0-.936.22-.221.716.22.937 0 .22-.221-.221-.716 0-.937 1.938-1.939-.076 2.962 1.873-.937.14-.28-.22-.716 0-.937 1.939-1.938-.075 2.962 1.874-.937.14-.279 0-.624 0-.937v-5.62c0-.313-.312-.937 0-.937s0 .624 0 .937l4.684 2.81c0 .312-.22.716 0 .937.442.441 1.432-.442 1.874 0 .22.22-.22.716 0 .937.22.22.657-.14.937 0 .395.197.541.739.937.936.558.28 1.432-.441 1.873 0 .221.221-.22.716 0 .937.442.442 1.315-.279 1.874 0 .395.198.542.74.937.937.371.186 2.619-.191 2.81 0 .22.221-.22.716 0 .937.192.192 2.44-.186 2.81 0 .396.197.542.74.937.937.56.28 1.432-.442 1.874 0 .22.22-.22.716 0 .937.469.468 2.342-.469 2.81 0 .221.22-.22.716 0 .936.257.257 3.24-.254 3.748 0 .395.198.542.74.937.937.508.254 3.49-.256 3.747 0 .22.221-.22.716 0 .937.468.469 2.342-.468 2.81 0 .221.22-.22.716 0 .937.469.468 2.343-.468 2.811 0 .22.22-.22.716 0 .937.313.312 1.561-.313 1.874 0 .22.22-.221.716 0 .937.312.312 1.56-.313 1.873 0 .221.22-.22.716 0 .936.442.442 1.315-.279 1.874 0 .395.198.542.74.937.937.28.14.657-.14.937 0 .395.198.541.74.936.937.56.28 1.433-.442 1.874 0 .22.22-.22.716 0 .937.442.442 1.315-.28 1.874 0 .395.197.542.74.937.937.558.28 1.432-.442 1.873 0 .221.22-.22.716 0 .937.442.441 1.315-.28 1.874 0 .395.197.542.739.937.936.558.28 1.432-.441 1.873 0 .221.221-.22.716 0 .937.038.038 3.404 0 3.748 0h9.368c.312 0 .937-.312.937 0 0 .313-1.25 0-.937 0h1.874c.312 0 .716-.22.936 0 .221.221-.22.716 0 .937.469.468 2.343-.468 2.811 0 .22.22-.22.716 0 .937.225.225 3.522-.226 3.747 0 .221.22-.22.716 0 .937.03.03 2.584 0 2.81 0h5.622c.312 0 .716.22.937 0 .22-.221-.221-.716 0-.937.037-.038 3.403 0 3.747 0h.937c.312 0 .716-.22.937 0 .22.22-.221.716 0 .937.468.468 2.342-.469 2.81 0 .22.22-.312.937 0 .937 1.288 0 2.498-.625 3.747-.937z" fill="none" stroke="#000" stroke-width=".233"/></svg>