<svg xmlns="http://www.w3.org/2000/svg" width="210mm" height="297mm" viewBox="0 0 744.09448819 1052.3622047"><g fill="none" stroke="#000" stroke-width=".287"><path d="M58.683 361.186c2.174-.544 4.516-.628 6.52-1.63.486-.243-.384-1.246 0-1.63.384-.384 1.144.243 1.63 0 1.374-.687 1.885-2.573 3.26-3.26.486-.243 1.245.384 1.63 0 .384-.384-.385-1.246 0-1.63.384-.384 1.245.384 1.63 0 .384-.384-.385-1.246 0-1.63.384-.384 1.245.384 1.63 0 .384-.384-.385-1.245 0-1.63.384-.384 1.245.385 1.63 0 .384-.384-.385-1.245 0-1.63.384-.384 1.245.385 1.63 0 .383-.384-.385-1.245 0-1.63.383-.384 1.245.385 1.63 0 .383-.384-.385-1.245 0-1.63.383-.384 1.245.385 1.63 0 .383-.384-.385-1.245 0-1.63.383-.383 1.245.385 1.629 0 .384-.383-.384-1.245 0-1.63.384-.383 1.144.244 1.63 0 .687-.343.943-1.285 1.63-1.63.486-.242 1.246.385 1.63 0 .384-.383-.384-1.245 0-1.629.384-.384 1.144.243 1.63 0 .687-.344.942-1.286 1.63-1.63.485-.243 1.245.384 1.63 0 .384-.384-.385-1.246 0-1.63.384-.384 1.245.384 1.63 0 .384-.384-.385-1.246 0-1.63 4.346 0-.544.544 1.63-1.63 3.372-3.372-.133 5.154 3.26-1.63.242-.485-.385-1.245 0-1.63.767-.768 2.49.769 3.259 0 .384-.384-.384-1.245 0-1.63.384-.384 1.246.385 1.63 0 .384-.384-.384-1.245 0-1.63.384-.383 1.144.244 1.63 0 6.783-3.39-1.743.113 1.63-3.26.384-.383 1.245.385 1.63 0 .384-.383-.385-1.245 0-1.629.384-.384 1.245.384 1.63 0 .384-.384-.385-1.246 0-1.63.384-.384 1.245.384 1.63 0 .543-.544-.544-2.716 0-3.26.383-.384 1.245.384 1.63 0 .54-.54-.542-2.719 0-3.26.383-.384 1.245.385 1.63 0 .391-.392-.393-6.127 0-6.52.383-.383 1.245.385 1.63 0 .332-.332-.324-4.243 0-4.889.343-.687 1.285-.943 1.629-1.63.243-.486-.243-1.144 0-1.63.344-.687 1.286-.942 1.63-1.63.243-.485-.384-1.245 0-1.63.384-.384 1.246.385 1.63 0 .768-.768-.769-2.491 0-3.26.384-.383 1.246.385 1.63 0 .384-.383-.384-1.245 0-1.63.384-.383 1.245.385 1.63 0 .384-.383-.243-1.143 0-1.63.343-.686 1.286-.942 1.63-1.629.242-.486-.385-1.246 0-1.63.384-.384 1.245.384 1.63 0 .384-.384-.385-1.246 0-1.63.384-.384 1.245.384 1.63 0 .383-.384-.385-1.246 0-1.63.768-.768 2.49.769 3.26 0 .383-.384-.385-1.245 0-1.63.814-.815 4.074.815 4.889 0 .384-.384-.384-1.245 0-1.63.768-.768 2.491.769 3.26 0 .384-.384-.385-1.245 0-1.63.768-.768 2.491.769 3.26 0 .384-.384-.385-1.245 0-1.63.542-.542 2.717.543 3.26 0 .383-.384-.385-1.245 0-1.63.383-.383 1.143.244 1.63 0 .686-.343.942-1.286 1.63-1.63.485-.242 1.086 0 1.629 0 .543-.542.943-1.285 1.63-1.63.486-.242 1.087 0 1.63 0 .543-.542.943-1.285 1.63-1.629.972-.486 2.491.768 3.26 0 .384-.384-.385-1.246 0-1.63.768-.768 2.491.768 3.26 0 .384-.384-.385-1.246 0-1.63.768-.768 2.49.769 3.26 0 .383-.384-.385-1.246 0-1.63.383-.384 1.143.243 1.63 0 .686-.343.942-1.286 1.629-1.63.972-.486 2.491.769 3.26 0 .384-.384-.384-1.245 0-1.63.768-.768 2.491.769 3.26 0 .384-.384-.385-1.245 0-1.63.768-.768 2.288.486 3.26 0 .687-.343.942-1.286 1.63-1.63.485-.242 1.143.244 1.63 0 4.027-2.013-.563-1.63 3.26-1.63.542 0 1.629-.543 1.629 0 0 .544-1.63.544-1.63 0 0-.768 1.286-.942 1.63-1.63.243-.485-.384-1.245 0-1.63.384-.383 1.246.385 1.63 0 .384-.383-.384-1.245 0-1.629.384-.384 1.246.384 1.63 0 .384-.384-.384-1.246 0-1.63.384-.384 1.246.384 1.63 0 .384-.384-.384-1.246 0-1.63.384-.384 1.144.243 1.63 0 .687-.343.942-1.286 1.63-1.63 4.346 0-.544.544 1.63-1.63.768-.768 2.49.769 3.26 0 .383-.384-.385-1.245 0-1.63.332-.333 4.243.324 4.889 0 .687-.343.943-1.286 1.63-1.63.646-.323 4.556.334 4.89 0 .384-.384-.385-1.245 0-1.63.333-.333 4.243.324 4.89 0 .687-.343.942-1.286 1.63-1.63.971-.485 2.287.487 3.26 0 .686-.343.942-1.286 1.629-1.63.972-.485 2.491.77 3.26 0 .384-.383-.384-1.245 0-1.629.768-.768 2.491.768 3.26 0 .384-.384-.385-1.246 0-1.63.392-.392 6.127.392 6.52 0 .383-.384-.385-1.246 0-1.63.504-.505 7.644.505 8.149 0 .384-.384-.384-1.246 0-1.63.065-.065 5.92 0 6.52 0h3.26c.543 0 1.63-.543 1.63 0 0 .544-2.174 0-1.63 0 1.086 0 2.287-.486 3.259 0 .486.243-.384 1.246 0 1.63.768.768 2.491-.768 3.26 0 .384.384 0 1.087 0 1.63 0 .543.384 1.246 0 1.63-.769.768-2.492-.768-3.26 0-.384.384.384 1.246 0 1.63-.768.768-2.491-.768-3.26 0-.384.384.384 1.246 0 1.63-.544.544-2.716-.544-3.26 0-.384.384.385 1.246 0 1.63-.768.768-2.491-.769-3.26 0-.384.384.244 1.144 0 1.63-.343.687-1.286.942-1.63 1.63-.485.971.487 2.287 0 3.26-.343.687-1.286.942-1.63 1.63-.242.485.544 1.63 0 1.63-.543 0 0-2.174 0-1.63v8.148c0 .543.544 1.63 0 1.63-.543 0 0-2.174 0-1.63v3.26c0 .543.544 1.63 0 1.63-.543 0 0-2.174 0-1.63 0 9.236-1.086.543 1.63 3.26.385.384-.384 1.245 0 1.63.385.383 1.246-.385 1.63 0 3.373 3.372-5.153-.133 1.63 3.26.486.242 1.246-.385 1.63 0 .769.767-.768 2.49 0 3.259.385.384 1.246-.384 1.63 0 .384.384-.384 1.246 0 1.63.769.768 2.492-.769 3.26 0 .384.384-.384 1.246 0 1.63.384.384 1.246-.384 1.63 0 .384.384-.384 1.245 0 1.63.384.384 1.246-.385 1.63 0 .384.384-.384 1.245 0 1.63.384.384 1.246-.385 1.63 0 .384.384-.384 1.245 0 1.63.384.384 1.246-.385 1.63 0 .384.384-.384 1.245 0 1.63.384.384 1.245-.385 1.63 0 .384.384-.385 1.245 0 1.63.384.383 1.245-.385 1.63 0 .384.383 0 1.086 0 1.63.543 0 1.245-.385 1.63 0 .384.383-.385 1.245 0 1.63.384.383 1.245-.385 1.63 0 .384.383-.385 1.245 0 1.629.384.384 1.245-.384 1.63 0 .383.384-.385 1.246 0 1.63.383.384 1.245-.384 1.63 0 .383.384-.385 1.246 0 1.63.383.384 1.245-.384 1.63 0 .767.768-.77 2.491 0 3.26.383.384 1.245-.385 1.629 0 .384.384-.384 1.245 0 1.63 3.822 3.822 0-5.022 0-1.63 0 1.214 1.246 2.107 1.63 3.26.344 1.03-.768 2.49 0 3.26 2.173 2.172 1.63-2.717 1.63 1.63v8.149c0 .543.384 1.245 0 1.63-2.173 2.173-1.63-2.717-1.63 1.63v6.52c0-1.087 1.086-3.26 0-3.26-1.215 0-1.246 2.107-1.63 3.26-.307.919 0 3.818 0 4.889v22.819c0 .734-.248 4.393 0 4.89.344.687 1.286.942 1.63 1.63.563 1.125-.572 7.577 0 8.149.384.384 1.246-.384 1.63 0 .384.384 0 1.086 0 1.63v1.63c0 .543.543 1.63 0 1.63-.544 0 0-2.174 0-1.63v3.26c0 .543.543 1.63 0 1.63-.544 0 0-2.174 0-1.63 0 1.086.486 2.287 0 3.26-.243.485-1.246-.385-1.63 0-.384.383.384 1.245 0 1.63-.384.383-1.246-.385-1.63 0-.384.383.543 1.629 0 1.629s0-2.173 0-1.63v3.26c0 .543-.384 1.246 0 1.63.384.384 1.246-.384 1.63 0 .384.384-.243 1.144 0 1.63.344.687 1.286.942 1.63 1.63.486.972-.769 2.491 0 3.26.384.384 1.246-.385 1.63 0 .384.384 0 1.086 0 1.63.543 0 1.245-.385 1.63 0 .384.384-.385 1.245 0 1.63.768.768 2.491-.77 3.26 0 .384.383-.385 1.245 0 1.63.768.767 2.49-.77 3.26 0 .383.383-.385 1.245 0 1.63.768.767 2.49-.77 3.26 0 .383.383-.385 1.245 0 1.629.383.384 1.143-.243 1.629 0 .687.344.943 1.286 1.63 1.63.486.243 1.246-.384 1.63 0 .384.384-.384 1.246 0 1.63.384.384 1.246-.384 1.63 0 .384.384 0 1.086 0 1.63.543 0 1.144-.243 1.63 0 .687.343.942 1.286 1.63 1.63.485.243 1.245-.385 1.63 0 .384.384-.385 1.245 0 1.63.543.543 2.715-.544 3.26 0 .383.384-.385 1.245 0 1.63.768.768 2.49-.769 3.259 0 .384.384-.384 1.245 0 1.63.815.814 4.075-.816 4.89 0 .384.384-.384 1.245 0 1.63.065.065 5.92 0 6.52 0h1.63c.543 0 1.63-.544 1.63 0 0 .543-2.174 0-1.63 0h4.889c.543 0 1.246.383 1.63 0 .384-.385-.384-1.246 0-1.63.384-.385 1.63-.544 1.63 0 0 .543-1.246.384-1.63 0-.384-.385.384-1.246 0-1.63-.544-.544-2.716.543-3.26 0-.384-.385.384-1.246 0-1.63-.384-.385-1.246.384-1.63 0-2.173-2.174 2.717-1.63-1.63-1.63-1.146 0-4.543.937-3.26-1.63.344-.688 1.287-.943 1.63-1.63 1.125-2.248-1.973-1.458 1.63-3.26.486-.243 1.246.384 1.63 0 .384-.384-.243-1.144 0-1.63.233-.466 3.027-2.794 3.26-3.26.243-.486-.384-1.245 0-1.63.384-.384 1.246.385 1.63 0 .384-.384-.384-1.245 0-1.63.384-.384 1.246.385 1.63 0 .384-.384-.384-1.245 0-1.63.384-.384 1.246.385 1.63 0 .384-.384-.384-1.245 0-1.63.384-.384 1.144.244 1.63 0 .687-.343.942-1.286 1.63-1.63.486-.242 1.245.385 1.63 0 .384-.383-.385-1.245 0-1.63.384-.383 1.245.385 1.63 0 .384-.383-.385-1.245 0-1.63.384-.383 1.086 0 1.63 0h3.26-3.26 9.779-3.26c1.63 0 3.343-.515 4.89 0 1.03.345-.769 2.492 0 3.26.384.385 1.245-.383 1.63 0 .768.77-.769 2.492 0 3.26.384.385 1.245-.384 1.63 0 .544.545-.545 2.716 0 3.26.384.385 1.245.385 1.63 0 .384-.384-.385-1.245 0-1.63.768-.768 2.49.769 3.26 0 .383-.384-.385-1.245 0-1.63.814-.814 4.074.816 4.889 0 .384-.384-.384-1.245 0-1.63.815-.814 4.075.816 4.89 0 .384-.384-.385-1.245 0-1.63.384-.383 1.086 0 1.63 0 .543 0 1.63-.543 1.63 0 0 .544-2.174 0-1.63 0 9.236 0 .543 1.087 3.26-1.63.768-.768 2.49.77 3.26 0 .383-.383-.385-1.245 0-1.63.383-.383 1.086 0 1.63 0h1.629-3.26 17.93c.542 0 1.245.385 1.63 0 2.172-2.172-2.717-1.629 1.629-1.629h1.63c.543 0 1.144.243 1.63 0 .687-.344.942-1.286 1.63-1.63.865-.433 2.394.433 3.26 0 4.028-2.014-.563-1.63 3.26-1.63h1.63c.543 0 1.63-.543 1.63 0s-1.63-.543-1.63 0c0 3.392 2.285.656 3.259 1.63.384.384-.384 1.246 0 1.63.384.384 1.246-.384 1.63 0 .163.163.163 4.727 0 4.89-.384.384-1.246-.384-1.63 0-.384.384.384 1.245 0 1.63-.384.384-1.087 0-1.63 0h-1.63c20.52 6.467-1.23 0 8.15 0h1.63c.543 0 1.245.384 1.63 0 .384-.385-.385-1.246 0-1.63.54-.541 2.719.54 3.26 0 .384-.384-.385-1.246 0-1.63.572-.572 7.023.563 8.149 0 .687-.344.943-1.286 1.63-1.63.496-.248 4.156 0 4.89 0h1.63-3.26c15.212 0 1.63 1.63 4.89-1.63.768-.768 2.49.768 3.26 0 .383-.384-.385-1.246 0-1.63.383-.384 1.245.384 1.63 0 .383-.384-.385-1.246 0-1.63.383-.384 1.245.384 1.629 0 .384-.384-.384-1.246 0-1.63.384-.384 1.246.384 1.63 0 .384-.384-.384-1.245 0-1.63.768-.768 2.491.769 3.26 0 .384-.384-.384-1.245 0-1.63.384-.384 1.144.243 1.63 0 .687-.343.942-1.286 1.63-1.63.486-.242 1.245.385 1.63 0 .384-.384-.385-1.245 0-1.63.384-.384 1.143.244 1.63 0 .687-.343 1.086-1.086 1.63-1.63.543-.543 1.286-.942 1.63-1.63.242-.485-.385-1.245 0-1.63.383-.383 1.245.385 1.63 0 .383-.383-.385-1.245 0-1.629.383-.384 1.245.384 1.629 0 .384-.384-.243-1.144 0-1.63.344-.687 1.286-.943 1.63-1.63.243-.486-.384-1.246 0-1.63.384-.384 1.246.384 1.63 0 .384-.384-.384-1.245 0-1.63.768-.768 2.491.769 3.26 0 .384-.384-.385-1.245 0-1.63.384-.384 1.144.243 1.63 0 .687-.343.942-1.286 1.63-1.63.971-.485 2.49.769 3.26 0 .383-.384-.385-1.245 0-1.63.768-.768 2.49.769 3.26 0 .383-.384 0-1.086 0-1.63.542 0 1.245.385 1.629 0 .384-.383-.543-1.63 0-1.63s-.543 1.63 0 1.63c.637 0 1.836-3.053 3.26-1.63.768.77-.769 2.492 0 3.26.384.385 1.246-.384 1.63 0 .384.385-.384 1.246 0 1.63.384.385 1.245-.384 1.63 0 .384.385-.385 1.246 0 1.63.384.385 1.086 0 1.63 0 .543 0 1.245.385 1.63 0 .384-.384-.385-1.245 0-1.63.384-.384 1.245.385 1.63 0 .384-.384 0-1.086 0-1.63v-4.89 3.26c0-1.63-.516-3.343 0-4.889.022-.067 4.635-.127 4.89 0 .686.344.942 1.286 1.629 1.63.486.243 1.246-.384 1.63 0 .384.384-.384 1.246 0 1.63.384.384 1.246-.384 1.63 0 .384.384-.384 1.246 0 1.63.065.065 5.92 0 6.52 0 .543 0 1.63-.544 1.63 0 0 .543-1.63.543-1.63 0 0-.769 1.286-.943 1.63-1.63.247-.496 0-4.156 0-4.89v-9.779 3.26c0-15.212 1.63-1.63-1.63-4.89-.541-.54.54-2.718 0-3.26-.385-.383-1.087 0-1.63 0h-3.26c1.086 0 3.26 1.088 3.26 0 0-3.048-9.028-.877-9.78-1.629-.384-.384.384-1.246 0-1.63-.392-.392-6.127.392-6.52 0-.384-.384.385-1.246 0-1.63-.768-.768-2.491.769-3.26 0-.384-.384.385-1.246 0-1.63-.768-.768-2.49.769-3.26 0-.383-.384.385-1.245 0-1.63-.383-.384-1.143.243-1.63 0-.686-.343-.942-1.286-1.629-1.63-.486-.242-1.246.385-1.63 0-.384-.384 0-1.086 0-1.63-.543 0-1.246.385-1.63 0-.384-.384.384-1.245 0-1.63-.384-.383-1.63.544-1.63 0 0-.543 2.173 0 1.63 0-9.236 0-.543 1.087-3.26-1.63-.768-.768-3.26 1.087-3.26 0 0-.543 2.174 0 1.63 0h-3.26c-.543 0-1.143-.242-1.63 0-.686.344-.942 1.287-1.63 1.63-.971.487-2.49-.768-3.259 0-.384.385.384 1.246 0 1.63-.384.385-1.246-.384-1.63 0-.384.385.384 1.246 0 1.63-.384.385-1.246-.384-1.63 0-.384.385.384 1.246 0 1.63-.384.385-1.246-.384-1.63 0-.384.385.384 1.246 0 1.63-.384.384-1.63.544-1.63 0 0-.543 2.174 0 1.63 0-1.086 0-2.288-.486-3.26 0-.485.243.385 1.246 0 1.63-.384.384-1.086 0-1.63 0-.543 0-1.245.384-1.63 0-.162-.163-.162-4.726 0-4.89.385-.384 1.246.385 1.63 0 .769-.768-.768-2.491 0-3.26.385-.383 1.246.385 1.63 0 .385-.383-.384-1.245 0-1.63.385-.383 1.246.385 1.63 0 .385-.383-.384-1.245 0-1.63.385-.383 1.246.385 1.63 0 .384-.383-.384-1.245 0-1.629.384-.384 1.246.384 1.63 0 .544-.544-.544-2.716 0-3.26.384-.384 1.246.384 1.63 0 .384-.384-.384-1.246 0-1.63.384-.384 1.246.384 1.63 0 .384-.384-.384-1.245 0-1.63.384-.384 1.246.385 1.63 0 .384-.384-.243-1.144 0-1.63a3.735 3.735 0 0 1 1.63-1.63c.486-.242 1.246.385 1.63 0 .384-.384.384-1.245 0-1.63-.384-.384-1.246-.384-1.63 0-.384.385.384 1.246 0 1.63-.384.385-1.246-.384-1.63 0-.384.385.384 1.246 0 1.63-.815.815-4.075-.815-4.89 0-.384.385.384 1.246 0 1.63-.384.385-1.246-.384-1.63 0-.384.385.384 1.246 0 1.63-.768.769-2.491-.768-3.26 0-.384.384.385 1.246 0 1.63-.052.053-4.494 0-4.89 0h-16.298c-.543 0-1.63.543-1.63 0s1.63.543 1.63 0c0-.768-.942-1.286-1.63-1.63-.42-.21-8.623 0-9.779 0-4.346 0 .544.544-1.63-1.63-.384-.384-1.086 0-1.63 0h-8.149c-.543 0-1.246.385-1.63 0-.384-.384.384-1.245 0-1.63-.384-.384-1.087 0-1.63 0h-11.41c.544-2.173 1.191-4.323 1.63-6.52.214-1.065 0-2.172 0-3.259v-14.67c0 1.087 1.087 3.26 0 3.26-1.214 0-1.245-2.107-1.63-3.26-2.172-6.519 2.717 2.717-1.63-1.63-.383-.383.385-1.245 0-1.629-.383-.384-1.245.384-1.629 0-.384-.384.384-1.246 0-1.63-.384-.384-1.246.384-1.63 0-.384-.384.384-1.246 0-1.63-.052-.052-4.494 0-4.89 0h-1.63 3.26c-15.212 0-1.63 1.63-4.89-1.63-.052-.052-4.494 0-4.89 0h-1.63 3.26-14.669 3.26-6.52c-.543 0-1.245.384-1.63 0-.383-.384.385-1.245 0-1.63-.383-.384-1.086 0-1.63 0h-1.629c-.543 0-1.63.544-1.63 0 0-.543 2.173 0 1.63 0h-3.26c-.543 0-1.246.385-1.63 0-.384-.384 0-1.086 0-1.63v-16.299c0-.395.053-4.837 0-4.89-.384-.383-1.245.385-1.63 0-.052-.052 0-4.494 0-4.889v-26.079c0-.395.053-4.837 0-4.89-.384-.383-1.245.385-1.63 0-.052-.052 0-4.494 0-4.889v-11.41c0-.543-.242-1.143 0-1.63.344-.686 1.287-.942 1.63-1.63.243-.485 0-1.086 0-1.63v-14.669c0-.543.385-1.245 0-1.63-2.173-2.172-1.63 2.717-1.63-1.63 1.63.544 3.26 1.088 4.89 1.63 0 .544-.384 1.247 0 1.63.384.385 1.246-.383 1.63 0 .384.385-.384 1.246 0 1.63.384.385 1.144-.242 1.63 0 .687.344.943 1.287 1.63 1.63.486.244 1.246-.384 1.63 0 .384.385-.384 1.246 0 1.63.384.385 1.144-.243 1.63 0 .687.344.942 1.287 1.63 1.63.486.243 1.245-.384 1.63 0 .384.385-.385 1.246 0 1.63.768.769 2.491-.768 3.26 0 .384.384-.385 1.246 0 1.63.384.384 1.63-.543 1.63 0 0 .487-5.406-1.073 0 1.63.646.323 4.556-.333 4.889 0 .384.384-.384 1.246 0 1.63.052.052 4.494 0 4.89 0 .543 0 1.245.384 1.63 0 .384-.384-.385-1.246 0-1.63.392-.392 6.127.392 6.52 0 .383-.384-.385-1.246 0-1.63.814-.815 4.074.815 4.889 0 .384-.384-.384-1.246 0-1.63.384-.384 1.087 0 1.63 0h11.41c.543 0 1.143.243 1.63 0 .686-.343.942-1.286 1.629-1.63.646-.323 4.557.334 4.89 0 .384-.384-.384-1.245 0-1.63.768-.768 2.491.769 3.26 0 .384-.384-.385-1.245 0-1.63.384-.384 1.144.244 1.63 0 .687-.343.942-1.286 1.63-1.63.485-.242 1.245.385 1.63 0 .383-.384-.385-1.245 0-1.63.768-.768 2.49.77 3.26 0 .383-.383-.385-1.245 0-1.63.383-.383 1.245.385 1.629 0 .384-.383-.384-1.245 0-1.63.384-.383 1.144.244 1.63 0 1.374-.686 1.885-2.572 3.26-3.259.486-.243 1.245.384 1.63 0 .384-.384-.385-1.246 0-1.63.384-.384 1.245.384 1.63 0 .384-.384-.385-1.246 0-1.63.384-.384 1.245.384 1.63 0 .384-.384-.385-1.245 0-1.63.768-.768 2.49.769 3.26 0 .383-.384-.385-1.245 0-1.63.383-.384 1.245.385 1.63 0 .383-.384-.385-1.245 0-1.63.383-.384 1.245.385 1.63 0 .383-.384-.385-1.245 0-1.63.767-.768 2.49.769 3.259 0 .384-.384-.384-1.245 0-1.63.384-.383 1.246.385 1.63 0 .384-.383-.384-1.245 0-1.63.384-.383 1.144.244 1.63 0 .687-.343.942-1.285 1.63-1.63.486-.242 1.245.385 1.63 0 .384-.383-.385-1.245 0-1.629.814-.815 4.074.815 4.89 0 .383-.384-.385-1.246 0-1.63.768-.768 2.49.768 3.26 0 .383-.384-.385-1.246 0-1.63.767-.768 2.287.486 3.259 0 .687-.343.943-1.286 1.63-1.63.486-.243 1.246.384 1.63 0 .384-.384-.384-1.245 0-1.63.768-.768 2.491.769 3.26 0 .384-.384-.385-1.245 0-1.63.768-.768 2.491.769 3.26 0 .384-.384-.385-1.245 0-1.63.768-.768 2.287.487 3.26 0 .686-.343.942-1.286 1.63-1.63.971-.485 2.49.769 3.259 0 .384-.383-.384-1.245 0-1.63.768-.768 2.288.487 3.26 0 .687-.343.942-1.286 1.63-1.63.972-.485 2.491.77 3.26 0 .384-.383-.385-1.245 0-1.629.768-.768 2.287.486 3.26 0 .686-.344.942-1.286 1.63-1.63.485-.243 1.143.243 1.63 0 .686-.344.942-1.286 1.629-1.63.486-.243 1.144.243 1.63 0 .687-.343.943-1.286 1.63-1.63.486-.243 1.086 0 1.63 0 .543-.543.942-1.286 1.63-1.63.486-.243 1.245.385 1.63 0 .384-.384-.385-1.245 0-1.63.768-.768 2.491.769 3.26 0 .383-.384-.385-1.245 0-1.63.768-.768 2.287.486 3.26 0 .686-.343.942-1.286 1.629-1.63.972-.485 2.492.769 3.26 0 .384-.384-.384-1.245 0-1.63.768-.768 2.491.769 3.26 0 .384-.383-.384-1.245 0-1.63.815-.814 4.074.816 4.89 0 .384-.383-.385-1.245 0-1.63.814-.814 4.074.816 4.89 0 .383-.383-.385-1.245 0-1.629.383-.384 1.086 0 1.629 0 1.134 0 7.56.295 8.15 0 .687-.344.942-1.286 1.63-1.63 1.125-.563 7.577.572 8.149 0 .384-.384-.384-1.246 0-1.63.815-.815 4.075.815 4.89 0 .384-.384-.384-1.246 0-1.63.504-.504 7.645.505 8.15 0 .383-.384-.385-1.245 0-1.63.768-.768 2.49.769 3.26 0 .383-.384-.385-1.245 0-1.63.767-.768 2.49.769 3.259 0 .384-.384-.384-1.245 0-1.63.384-.384 1.63-.543 1.63 0 0 .544-1.087 0-1.63 0h-1.63c-7.29 1.54 1.458 6.864 0 9.78-.344.687-1.286.943-1.63 1.63-.243.486.243 1.144 0 1.63-.344.687-1.286.942-1.63 1.63-.243.486.384 1.245 0 1.63-.384.384-1.246-.385-1.63 0-.384.384.384 1.245 0 1.63-.384.384-1.245-.385-1.63 0-.384.384.243 1.143 0 1.63-.343.687-1.286.942-1.63 1.63-.243.485.385 1.245 0 1.63-.384.383-1.245-.385-1.63 0-.384.383.385 1.245 0 1.63-.384.383-1.245-.385-1.63 0-.768.767.769 2.49 0 3.259-.384.384-1.245-.384-1.63 0-.383.384.385 1.246 0 1.63-.383.384-1.245-.384-1.63 0-.383.384.244 1.144 0 1.63-.343.687-1.285.942-1.63 1.63-.242.486.385 1.245 0 1.63-.383.384-1.245-.385-1.629 0-.384.384.243 1.144 0 1.63-.344.687-1.286.942-1.63 1.63-.243.485.384 1.245 0 1.63-.384.383-1.246-.385-1.63 0-.768.768.769 2.49 0 3.26-.384.383-1.246-.385-1.63 0-.768.767.769 2.49 0 3.259-.384.384-1.245-.384-1.63 0-.768.768.769 2.491 0 3.26-.384.384-1.245-.384-1.63 0-.768.768.769 2.491 0 3.26-.384.384-1.245-.385-1.63 0-.768.768.769 2.491 0 3.26-.384.384-1.245-.385-1.63 0-.768.768.769 2.49 0 3.26-.384.383-1.245-.385-1.63 0-.768.768.487 2.287 0 3.259-.576 1.153-4.788 3.26 0 3.26-.172 6.81 4.936.046 6.52 1.63.385.384-.384 1.245 0 1.63.769.768 2.288-.486 3.26 0 .687.343.943 1.286 1.63 1.63.87.435 2.39-.435 3.26 0 .687.343.943 1.286 1.63 1.63 1.024.512 5.495-.513 6.52 0 .687.343.942 1.286 1.63 1.63.485.242 1.086 0 1.63 0h3.26c-1.088 0-3.26-1.087-3.26 0 0 1.214 2.107 1.245 3.26 1.63.898.299 6.17-.35 6.519 0 .384.383-.384 1.245 0 1.63.384.383 1.245-.385 1.63 0 .384.383-.385 1.245 0 1.63.384.383 1.245-.385 1.63 0 .384.383-.385 1.245 0 1.629.384.384 1.245-.384 1.63 0 .384.384-.385 1.246 0 1.63.384.384 1.245-.384 1.63 0 .384.384-.385 1.246 0 1.63.384.384 1.245-.384 1.63 0 .383.384-.385 1.246 0 1.63.383.384 1.245-.384 1.63 0 .383.384-.385 1.245 0 1.63.383.384 1.245-.385 1.63 0 .383.384-.385 1.245 0 1.63.383.384 1.245-.385 1.629 0 .384.384-.384 1.245 0 1.63.768.768 2.491-.769 3.26 0 .384.384-.384 1.245 0 1.63.384.384 1.246-.385 1.63 0 .384.384-.384 1.245 0 1.63 4.346 0-.544-.544 1.63 1.63.384.383 1.245-.385 1.63 0 .384.383 0 1.086 0 1.63v1.629c0 .543.543 1.63 0 1.63-.544 0 0-2.173 0-1.63v11.41c0 .395.052 4.837 0 4.89-.385.383-1.246-.385-1.63 0-.393.391.392 6.126 0 6.519-.385.384-1.246-.384-1.63 0-.815.815.815 4.074 0 4.89-2.174 2.173-1.63-2.717-1.63 1.63 0 .395-.053 4.837 0 4.89.384.383 1.246-.385 1.63 0 .384.383 0 1.086 0 1.629 0 .543.543 1.63 0 1.63-.544 0 0-2.173 0-1.63 0 7.42-.769.093 1.63 4.89.243.486.384 2.014 0 1.63-.86-.86-1.63-4.475-1.63-3.26 0 1.718 1.213 3.223 1.63 4.89.131.527-.385 1.245 0 1.63.384.384 1.245-.385 1.63 0 .768.768-.486 2.287 0 3.26.343.686 1.286.942 1.63 1.63.485.971-.769 2.49 0 3.259.384.384 1.245-.384 1.63 0 .383.384 0 1.087 0 1.63v11.41c0 .543.383 1.245 0 1.63-.385.383-1.246-.385-1.63 0-.385.383 0 1.086 0 1.629V291.1c0 .543.384 1.245 0 1.63-.385.384-1.246-.385-1.63 0-.385.384 0 1.086 0 1.63 0 .768.073 8.075 0 8.15-.385.383-1.246-.385-1.63 0-.066.065 0 5.92 0 6.519v6.52c0 .543.543 1.63 0 1.63-.544 0 0-2.174 0-1.63 0 1.086-.486 2.287 0 3.26.243.485 1.63-.544 1.63 0 0 .542-2.015-.385-1.63 0 .859.858 2.107 1.245 3.26 1.629.515.172 1.245-.384 1.63 0 .383.384-.244 1.144 0 1.63.343.687 2.173 1.087 1.63 1.63-.544.543-1.63-2.398-1.63-1.63 0 8.234 1.252 1.253 3.26 3.26.383.384-.385 1.245 0 1.63.383.384 1.245-.385 1.629 0 .384.384-.384 1.245 0 1.63.384.384 1.246-.385 1.63 0 .384.384-.384 1.245 0 1.63.384.384 1.246-.385 1.63 0 .384.384-.384 1.245 0 1.63.768.768 2.491-.769 3.26 0 .384.384-.385 1.245 0 1.63.815.814 4.074-.816 4.89 0 .384.383-.385 1.245 0 1.63.543.543 2.715-.545 3.26 0 .383.383.543 1.63 0 1.63-.544 0 0-1.087 0-1.63"/><path d="M624.261 331.847c0 2.174.527 4.412 0 6.52-.131.527-1.245-.384-1.63 0-.384.384.385 1.246 0 1.63-.384.384-1.245-.384-1.63 0-.384.384.385 1.246 0 1.63-.384.384-1.245-.384-1.63 0-.768.768.769 2.491 0 3.26-.384.384-1.245-.385-1.63 0-.384.384.385 1.245 0 1.63-.384.384-1.245-.385-1.63 0-.383.384.385 1.245 0 1.63-.383.384-1.245-.385-1.63 0-.54.54.542 2.718 0 3.26-.383.383-1.245-.385-1.63 0 0 4.346.544-.544-1.629 1.63-.384.383.384 1.245 0 1.63-.384.383-1.246-.385-1.63 0-.384.383.384 1.245 0 1.629-.768.768-2.491-.768-3.26 0-.384.384.384 1.246 0 1.63-.768.768-2.491-.768-3.26 0-.384.384.385 1.246 0 1.63-.814.815-4.074-.815-4.89 0-.383.384.385 1.246 0 1.63-.383.384-1.086 0-1.63 0h-1.629c1.087 0 3.26-1.087 3.26 0 0 4.488-3.72.46-4.89 1.63-.384.384.384 1.245 0 1.63-.384.384-1.246-.385-1.63 0-.384.384.384 1.245 0 1.63-.384.384-1.246-.385-1.63 0-.384.384.384 1.245 0 1.63-.384.384-1.245-.385-1.63 0-.768.768.769 2.49 0 3.26-.384.383-1.245-.385-1.63 0-.54.54.541 2.718 0 3.259-.384.384-1.245-.384-1.63 0-.768.768.769 2.491 0 3.26-.384.384-1.245-.384-1.63 0-.768.768 1.087 3.26 0 3.26-.543 0 .544-1.63 0-1.63-3.391 0-.655 2.285-1.63 3.26-.383.384-1.245-.385-1.63 0-.383.384.385 1.245 0 1.63-.768.768-2.49-.769-3.259 0-.384.384.384 1.245 0 1.63-.384.384-1.144-.244-1.63 0-.687.343-.943 1.286-1.63 1.63-.486.242-1.246-.385-1.63 0-.384.383.384 1.245 0 1.63-.384.383-1.245-.385-1.63 0-.384.383.385 1.245 0 1.63-.384.383-1.245-.385-1.63 0-.384.383 0 1.086 0 1.629v16.3c0 .542.385 1.245 0 1.629-.384.384-1.245-.384-1.63 0-.384.384.385 1.246 0 1.63-.384.384-1.245-.384-1.63 0-.768.768.769 2.491 0 3.26-.384.384-1.245-.384-1.63 0-.383.384.385 1.245 0 1.63-.383.384-1.245-.385-1.63 0-.768.768.77 2.491 0 3.26-.383.384-1.245-.385-1.63 0-.383.384 0 1.086 0 1.63 0 .768-.073 8.075 0 8.149.385.384 1.247-.384 1.63 0 .77.768-.485 2.288 0 3.26.344.687 1.287.942 1.63 1.63.324.646-.332 4.556 0 4.89.385.383 1.246-.385 1.63 0 .769.768-.768 2.49 0 3.26.385.383 1.246-.385 1.63 0 .769.767-.768 2.49 0 3.259.385.384 1.246-.384 1.63 0 .769.768-.768 2.491 0 3.26 3.823 3.822 0-5.022 0-1.63 0 3.746 1.253 3.26 3.26 3.26h3.26c-1.087 0-3.26-1.087-3.26 0 0 4.488 3.72.46 4.89 1.63.768.768-.486 2.287 0 3.26.344.687 1.286.942 1.63 1.63.248.495 0 4.155 0 4.889v3.26c0 1.63-.516 3.343 0 4.89.172.515 1.246-.385 1.63 0 .384.384-.384 1.245 0 1.63.384.384 1.246-.385 1.63 0 .384.384 0 1.086 0 1.63 0 .598.065 6.453 0 6.519-.384.384-1.246-.384-1.63 0-.769.768.768 2.491 0 3.26-.384.384-1.246-.384-1.63 0-.384.384.384 1.246 0 1.63-.384.384-1.246-.384-1.63 0-.544.543.544 2.716 0 3.26-.384.384-1.63.543-1.63 0 0-.769 1.63-2.399 1.63-1.63 0 1.214-.77 2.4-1.63 3.26-.384.384-1.246-.385-1.63 0-.768.768.769 2.49 0 3.26-.384.383-1.63.543-1.63 0 0-.77 1.63-2.399 1.63-1.63 0 1.214-1.246 2.107-1.63 3.26-.172.515.384 1.245 0 1.63-.384.383-1.245-.385-1.63 0-.768.767.769 2.49 0 3.259-.384.384-1.245-.384-1.63 0-.23.23-.167 4.555 0 4.89 3.392 6.783-.112-1.743 3.26 1.63 0 4.346-.543-.544 1.63 1.63.384.384-.384 1.245 0 1.63.769.768 2.288-.487 3.26 0 .687.343.943 1.286 1.63 1.63.486.242 1.246-.385 1.63 0 .384.383-.384 1.245 0 1.63.384.383 1.086 0 1.63 0 .768 0 8.075.073 8.15 0 .383-.385-.385-1.247 0-1.63.814-.816 4.074.814 4.889 0 .384-.385-.384-1.247 0-1.63.544-.544 2.716.543 3.26 0 .384-.385-.384-1.246 0-1.63.384-.385 1.246.384 1.63 0 .384-.385-.384-1.246 0-1.63.768-.769 2.491.768 3.26 0 .384-.385-.385-1.246 0-1.63.384-.385 1.245.384 1.63 0 .384-.385-.385-1.246 0-1.63.768-.769 2.49.768 3.26 0 .383-.384-.385-1.246 0-1.63.768-.769 2.49.768 3.259 0 .384-.384-.384-1.246 0-1.63.54-.541 2.719.54 3.26 0 .384-.384-.384-1.246 0-1.63.384-.384 1.086 0 1.63 0 .543 0 1.63-.543 1.63 0s-2.174 0-1.63 0h6.52c.598 0 6.453-.066 6.519 0 .384.384-.384 1.246 0 1.63.384.384 1.087 0 1.63 0 .768 0 8.076.074 8.15 0 .384-.384-.385-1.246 0-1.63.768-.768 2.49.768 3.26 0 .383-.384-.385-1.246 0-1.63.383-.384 1.143.243 1.63 0 .686-.344.942-1.286 1.63-1.63.485-.243 1.245.384 1.629 0 .384-.384-.384-1.246 0-1.63.768-.768 2.491.769 3.26 0 .384-.384-.384-1.246 0-1.63.384-.384 1.086 0 1.63 0h3.26c-1.087 0-4.029.769-3.26 0 1.215-1.215 3.223-1.213 4.89-1.63 1.054-.263 4.346 0 3.26 0h-3.26 4.89c.542 0 1.63-.543 1.63 0 0 2.31-7.607-4.618 1.629 0 .486.243-.384 1.246 0 1.63.768.769 2.491-.768 3.26 0 .384.384-.384 1.246 0 1.63.384.384 1.144-.243 1.63 0 .687.344.942 1.287 1.63 1.63.486.243 1.245-.384 1.63 0 .384.384-.385 1.246 0 1.63.384.384 1.245-.384 1.63 0 .384.384-.385 1.246 0 1.63.384.384 1.143-.243 1.63 0 1.374.687 1.885 2.573 3.26 3.26.485.243 1.245-.384 1.63 0 .383.384-.385 1.246 0 1.63.383.384 1.245-.384 1.629 0 .384.384-.384 1.245 0 1.63.384.384 1.144-.243 1.63 0 .687.343.943 1.286 1.63 1.63.486.242 1.144-.243 1.63 0 .687.343.942 1.286 1.63 1.63.486.242 1.144-.244 1.63 0 4.028 2.013-.563 1.63 3.26 1.63h6.519c-1.087 0-3.26-1.087-3.26 0 0 3.058 7.398.878 8.15 1.63 2.173 2.172-2.717 1.63 1.63 1.63"/><path d="M707.387 512.767c3.577 16.416-5.91 2.65-8.15 4.89-.384.384.384 1.246 0 1.63-.384.384-1.246-.384-1.63 0-.384.384.384 1.245 0 1.63-.768.768-2.491-.769-3.26 0-.384.384.385 1.245 0 1.63-.384.384-1.144-.243-1.63 0-5.405 5.405 1.537-.769-3.26 1.63-.687.343-.942 1.286-1.63 1.63-.971.485-2.49-.769-3.26 0-.383.384-.383 1.245 0 1.63.385.383 1.247-.385 1.63 0 .385.383-.383 1.245 0 1.63.385.383 1.145-.244 1.63 0 .688.343.943 1.286 1.63 1.63.972.485 2.492-.77 3.26 0 .385.383-.384 1.245 0 1.629.385.384 1.246-.384 1.63 0 .385.384-.384 1.246 0 1.63.385.384 1.246-.384 1.63 0 .384.384.384 1.246 0 1.63-.384.384-1.086 0-1.63 0h-1.63c-.395 0-4.837-.053-4.89 0-.383.384.385 1.246 0 1.63-.768.768-2.49-.769-3.26 0 0 4.346.544-.544-1.629 1.63-.768.768.768 2.491 0 3.26-.384.384-1.246-.385-1.63 0-.768.768.768 2.49 0 3.26-.384.383-1.246-.385-1.63 0-.384.383.384 1.245 0 1.63-.384.383-1.246-.385-1.63 0-.384.383.384 1.245 0 1.63-.384.383-1.63.542-1.63 0 0-.544 1.63-.544 1.63 0 0 .767-.942 1.285-1.63 1.629-.486.243-1.086 0-1.63 0-.543 0-1.63.543-1.63 0s2.174 0 1.63 0h-9.778 3.26-4.89c-.543 0-1.63.543-1.63 0s2.173 0 1.63 0h-3.26c-.543 0-1.245.384-1.63 0-.768-.768.769-2.491 0-3.26-.384-.384-1.245.384-1.63 0-.384-.384-.543-1.63 0-1.63.544 0 .544 1.63 0 1.63-.768 0-.942-1.286-1.63-1.63-.485-.243-1.086 0-1.63 0h-1.63c1.087 0 3.26 1.087 3.26 0 0-1.676-7.734-2.045-8.149-1.63-.384.385.384 1.246 0 1.63-.384.384-1.246-.384-1.63 0-.815.815.815 4.075 0 4.89-.384.384-1.246-.384-1.63 0-.768.768.769 2.491 0 3.26-.384.384-1.246-.384-1.63 0-.54.54.541 2.719 0 3.26-.384.384-1.245-.385-1.63 0-.384.384.385 1.245 0 1.63-.384.384-1.245.384-1.63 0-.768-.769.769-2.492 0-3.26-.384-.384-1.086 0-1.63 0 0-.544.385-1.246 0-1.63-.384-.384-1.245.384-1.63 0-.768-.769.769-2.492 0-3.26-4.346 0 .544.543-1.63-1.63-.768-.768-2.49.768-3.26 0-.383-.384.385-1.246 0-1.63-.383-.384-1.143.243-1.629 0-.687-.343-.943-1.286-1.63-1.63-.486-.243-1.246.384-1.63 0-.384-.384.384-1.245 0-1.63-.768-.768-2.491.769-3.26 0-.384-.384.385-1.245 0-1.63-.052-.052-4.494 0-4.89 0-.543 0-1.245-.384-1.63 0-.383.385.385 1.246 0 1.63-.383.385-1.245-.384-1.63 0-.383.385 0 1.087 0 1.63v11.41c0 .543.544 1.63 0 1.63-.542 0 .544-1.63 0-1.63-.767 0-1.285.942-1.63 1.63-.242.485.244 1.144 0 1.63-.343.687-1.086 2.173-1.629 1.63-.543-.544 1.63-2.399 1.63-1.63 0 8.233-1.253 1.252-3.26 3.26-.384.383.384 1.245 0 1.63-.384.383-1.246-.385-1.63 0-.384.383 0 1.086 0 1.63v3.259c0-1.087.486-4.232 0-3.26-1.761 3.523-1.63 5.134-1.63 8.15v9.78c0 .542.384 1.245 0 1.629-.384.384-1.245-.384-1.63 0-.54.54.541 2.719 0 3.26-.384.384-1.245-.384-1.63 0-.384.384-.543 1.63 0 1.63.769 0 1.63-2.399 1.63-1.63 0 8.234-1.252 1.252-3.26 3.26-.768.768.769 2.491 0 3.26-.384.384-1.245-.385-1.63 0-.383.384.544 1.63 0 1.63-.543 0 .544-1.63 0-1.63-.768 0-.86 1.63-1.63 1.63-1.3 0-3.398-5.029-1.63-3.26.86.859 2.846 3.26 1.63 3.26-1.536 0-1.98-2.408-3.259-3.26-.452-.302-1.246.384-1.63 0-.384-.385.384-1.246 0-1.63-.384-.385-1.087 0-1.63 0h-1.63c-.598 0-6.454-.066-6.52 0-.384.384.385 1.245 0 1.63-.384.384-1.086 0-1.63 0h-3.26 3.26c-1.63 0-3.343-.516-4.889 0-.515.171.543 1.63 0 1.63s.543-1.63 0-1.63c-.526 0-2.354 2.807-3.26 3.26-.486.242-1.246-.385-1.63 0-.384.384.384 1.245 0 1.63-.384.383-1.245-.385-1.63 0-.384.383.385 1.245 0 1.63-.384.383-1.245-.385-1.63 0-.384.383.243 1.143 0 1.63-.343.686-1.286.942-1.63 1.629-.242.486.385 1.246 0 1.63-.384.384-1.245-.384-1.63 0-.384.384.385 1.246 0 1.63-.768.768-2.49-.769-3.26 0-.383.384.385 1.246 0 1.63-.383.384-1.086 0-1.63 0-.542 0-1.629.543-1.629 0 0-.544 2.173 0 1.63 0h-3.26c-.543 0-1.144.243-1.63 0-.687-.344-.942-1.287-1.63-1.63-.486-.243-1.086 0-1.63 0h-3.26c1.087 0 3.26 1.086 3.26 0 0-3.36-5.62-.73-6.52-1.63-.383-.384.544-1.63 0-1.63-3.209 0-.733 5.623-1.63 6.52-.383.384-1.245-.385-1.63 0-.767.768.77 2.491 0 3.26-.383.384-1.245-.385-1.629 0-.768.768.768 2.49 0 3.26-.384.383-1.246-.385-1.63 0-.384.383.243 1.143 0 1.63-.344.686-1.286.942-1.63 1.629-.243.486.384 1.246 0 1.63-4.346 0 .544-.543-1.63 1.63-.384.384-1.245-.384-1.63 0-.384.384.385 1.246 0 1.63-.544.544-2.715-.545-3.26 0-.384.384.385 1.245 0 1.63-.384.384-1.143-.243-1.63 0-.687.343-.942 1.286-1.63 1.63-.485.243-1.245-.385-1.63 0-.383.384.385 1.245 0 1.63-.543.543-2.715-.544-3.259 0-.384.384.384 1.245 0 1.63-.392.392-6.127-.393-6.52 0-.384.384.385 1.245 0 1.63-.073.073-7.38 0-8.15 0-.598 0-6.453.065-6.519 0-.384-.385.384-1.246 0-1.63-.544-.544-2.716.543-3.26 0-.384-.385.385-1.246 0-1.63-.384-.385-1.086 0-1.63 0H485.72c-.543 0-1.144-.243-1.63 0-.687.343-.942 1.286-1.63 1.63-.59.294-7.016 0-8.15 0-.542 0-1.245-.385-1.63 0-.383.384.385 1.245 0 1.63-.383.383-1.143-.244-1.629 0-.687.343-.943 1.286-1.63 1.63-.972.485-2.491-.77-3.26 0-.384.383.384 1.245 0 1.63-.768.767-2.491-.77-3.26 0-.384.383.385 1.245 0 1.629-.54.54-2.719-.54-3.26 0-.384.384.385 1.246 0 1.63-.384.384-1.143-.243-1.63 0-.687.344-.942 1.286-1.63 1.63-.485.243-1.245-.384-1.63 0-.383.384.385 1.246 0 1.63-.767.768-2.49-.769-3.259 0-.384.384.384 1.245 0 1.63-.768.768-2.288-.486-3.26 0-.687.343-2.398 1.63-1.63 1.63 1.215 0 4.475-1.63 3.26-1.63-14.19 0-2.111.481-4.89 3.26-.384.384-1.245-.385-1.63 0-1.274 1.274 1.418 2.835 1.63 3.26 0 4.346-.543-.544 1.63 1.63.815.814-.815 4.074 0 4.889.385.384 1.246-.384 1.63 0 .384.384 0 1.087 0 1.63v3.26c0 .543.384 1.245 0 1.63-.384.384-1.63.543-1.63 0 0-1.249 5.91-4.28 0 1.63-.384.384-1.086 0-1.63 0h-3.26 3.26-11.409c-.734 0-4.394.247-4.89 0-.687-.344-.942-1.287-1.63-1.63-.884-.443-6.073.446-6.52 0-.383-.385.385-1.246 0-1.63-.767-.769-2.49.768-3.259 0-.384-.385.384-1.246 0-1.63-.768-.769-2.491.768-3.26 0-.384-.384.384-1.246 0-1.63-.384-.384-1.246.384-1.63 0-.384-.384.384-1.246 0-1.63-.768-.768-3.26 1.087-3.26 0 0-.543 1.087 0 1.63 0-1.63.543-3.223 1.213-4.89 1.63-.526.132-1.086 0-1.63 0-.543 0-1.245.384-1.63 0-.383-.384.385-1.246 0-1.63-.383-.384-1.245.384-1.629 0-.815-.815.815-4.075 0-4.89-.384-.384-1.246.384-1.63 0-.768-.768.768-2.491 0-3.26-.384-.384-1.246.385-1.63 0-.384-.384.384-1.245 0-1.63-.384-.384-1.246.385-1.63 0-.768-.768.769-2.491 0-3.26-.384-.384-1.245.385-1.63 0-.384-.384.243-1.143 0-1.63-.343-.686-1.286-.942-1.63-1.63-.243-.485.385-1.245 0-1.63-.384-.383-1.245.385-1.63 0-.384-.383.244-1.143 0-1.629-.343-.687-1.286-.943-1.63-1.63-.242-.486.385-1.246 0-1.63-.384-.384-1.245.384-1.63 0-.383-.384-.543-1.63 0-1.63.544 0 .544 1.63 0 1.63-3.39 0-.655-2.286-1.63-3.26-.383-.384-1.086 0-1.63 0h-1.629 3.26-19.56c-.542 0-1.245.385-1.629 0-.384-.384.384-1.245 0-1.63-.384-.384-1.087 0-1.63 0h-13.04c-.768 0-8.075.074-8.149 0-.384-.384.384-1.245 0-1.63-.392-.392-6.127.393-6.52 0-.384-.384.385-1.245 0-1.63-.052-.052-4.494 0-4.889 0h-1.63 3.26c-1.63 0-3.344.516-4.89 0-.515-.171.384-1.245 0-1.63-.384-.383-1.63.544-1.63 0 0-.543 1.63.544 1.63 0 0-3.39-2.286-.655-3.26-1.63-.768-.768.769-2.49 0-3.259-.384-.384-1.245.384-1.63 0-.768-.768.769-2.491 0-3.26-.384-.384-1.144.243-1.63 0-.687-.343-2.173-1.086-1.63-1.63.544-.543 2.399 1.63 1.63 1.63-1.214 0-2.107-1.246-3.26-1.63-.515-.171-1.245.384-1.63 0-.383-.384.385-1.245 0-1.63-.383-.384-1.63.544-1.63 0 0-.543 2.174 0 1.63 0h-6.519c-.543 0-1.63.544-1.63 0 0-.543 2.173 0 1.63 0h-3.26c-.543 0-1.245-.384-1.63 0-.384.385.385 1.246 0 1.63-.384.384-1.245-.384-1.63 0-.384.384.385 1.246 0 1.63-.384.384-1.245-.384-1.63 0-.384.384.244 1.144 0 1.63-.343.687-1.086 1.087-1.63 1.63-.543.543-.942 1.286-1.63 1.63-.485.243-1.245-.384-1.63 0-.383.384.385 1.246 0 1.63-.383.384-1.245-.384-1.629 0-.384.384.384 1.246 0 1.63-.384.384-1.246-.384-1.63 0-.384.384.384 1.245 0 1.63-.384.384-1.246-.385-1.63 0-.768.768.769 2.491 0 3.26-.384.384-1.246-.385-1.63 0-.768.768.769 2.491 0 3.26-.384.383-1.245-.385-1.63 0-.384.383.385 1.245 0 1.63-.384.383-1.245-.385-1.63 0-.768.768.769 2.49 0 3.259-.384.384-1.245-.384-1.63 0-.384.384.385 1.246 0 1.63-.384.384-1.245-.384-1.63 0-.504.505.505 7.645 0 8.15-.384.384-1.245-.385-1.63 0-.383.384 0 1.086 0 1.63v13.038c0 .543-.383 1.245 0 1.63.385.384 1.246-.385 1.63 0 .385.384-.242 1.144 0 1.63.344.687 1.087 1.086 1.63 1.63.544.543.943 1.286 1.63 1.63.486.242 1.246-.385 1.63 0 .385.383 0 1.086 0 1.63v1.63c0 .598.066 6.453 0 6.519-.384.384-1.245-.384-1.63 0 0 4.346.544-.544-1.63 1.63-.384.384.244 1.144 0 1.63-.343.687-1.286.942-1.63 1.63-.242.485.385 1.245 0 1.63-.384.384-1.245-.385-1.63 0-.383.384.385 1.245 0 1.63-.383.383-1.245-.385-1.63 0-.383.383.385 1.245 0 1.63-.383.383-1.245-.385-1.63 0-.383.383.385 1.245 0 1.63-.383.383-1.245-.385-1.629 0-.384.383.384 1.245 0 1.629-.384.384-1.246-.384-1.63 0-.384.384.243 1.144 0 1.63-.344.687-1.286.943-1.63 1.63-.243.486.384 1.246 0 1.63-.384.384-1.144-.243-1.63 0-.687.343-.942 1.286-1.63 1.63-.486.243-1.245-.385-1.63 0-.384.384.385 1.245 0 1.63-.384.384-1.245-.385-1.63 0-.768.768.769 2.491 0 3.26-.384.384-1.245-.385-1.63 0-2.173 2.173 2.717 1.63-1.63 1.63"/><path d="M264.052 705.096c0 1.63-.396 3.309 0 4.89.772 3.089 1.74.87 3.26 1.63.687.343.942 1.286 1.63 1.63.971.486 2.49-.769 3.26 0 .383.384-.385 1.245 0 1.63.383.384 1.245-.385 1.63 0 .768.768-.77 2.491 0 3.26.383.384 1.245-.385 1.63 0 .814.814-.816 4.074 0 4.89.383.383 1.245-.385 1.629 0 .544.544-.544 2.715 0 3.259.384.384 1.246-.384 1.63 0 .505.505-.505 7.645 0 8.15.384.384 1.246-.385 1.63 0 .074.073 0 7.38 0 8.15v-1.63 13.038c0 .599-.066 6.455 0 6.52.384.384 1.246-.384 1.63 0 .384.384 0 1.087 0 1.63v13.04c0 .543.384 1.245 0 1.63-.384.383-1.246-.385-1.63 0-.384.383 0 1.086 0 1.63v9.779c0 .543.384 1.245 0 1.63-.384.384-1.246-.385-1.63 0-.074.073 0 7.38 0 8.149 0 .543.384 1.246 0 1.63-.384.384-1.246-.384-1.63 0-.333.333.323 4.243 0 4.89-.344.687-1.286.942-1.63 1.63-.486.971.486 2.287 0 3.26-.344.687-1.286.942-1.63 1.63-.486.971.769 2.49 0 3.259-.384.384-1.246-.384-1.63 0-.815.815.815 4.075 0 4.89-.384.384-1.245-.384-1.63 0-.815.815.815 4.075 0 4.89-.384.384-1.245-.385-1.63 0-.814.814.815 4.074 0 4.89-.384.383-1.245-.385-1.63 0-.814.814.816 4.074 0 4.889-.384.384-1.245-.384-1.63 0-.814.815.816 4.075 0 4.89-.384.384-1.245-.385-1.63 0-.768.768.77 2.491 0 3.26-.383.384-1.245-.385-1.63 0-3.372 3.372 5.154-.132-1.63 3.26-.485.242-2.013.383-1.629 0 .86-.86 4.119-2.49 3.26-1.63-1.385 1.385-3.138 2.383-4.89 3.26-.486.242-1.246-.385-1.63 0-.384.383.384 1.245 0 1.63-.544.543-2.716-.545-3.26 0-.384.383.385 1.245 0 1.629-.384.384-1.245-.384-1.63 0 0 4.346.544-.543-1.63 1.63-.384.384.385 1.246 0 1.63-.384.384-1.63.543-1.63 0 0-.769 2.399-1.63 1.63-1.63-8.233 0-1.252 1.253-3.26 3.26-.383.384-1.086 0-1.63 0-.394 0-4.836.052-4.889 0-.384-.384.384-1.246 0-1.63-.768-.769-2.491.768-3.26 0-.384-.384.384-1.246 0-1.63-.392-.392-6.127.392-6.52 0-.383-.384.385-1.246 0-1.63-.383-.384-1.086 0-1.63 0h-13.038c-.543 0-1.245.384-1.63 0-.384-.384.385-1.246 0-1.63-.384-.384-1.086 0-1.63 0h-1.63c-.395 0-4.837.053-4.889 0-.384-.384.384-1.246 0-1.63-.392-.392-6.127.392-6.52 0-.384-.384.385-1.246 0-1.63-.065-.065-5.92 0-6.52 0h-3.259 3.26c-1.63 0-3.344.516-4.89 0-.515-.172.384-1.245 0-1.63-.384-.384-1.087 0-1.63 0h-1.63c-.598 0-6.454.066-6.52 0-.384-.384.385-1.245 0-1.63-.384-.384-1.086 0-1.63 0h-1.63c-4.346 0 .544.544-1.63-1.63-.383-.384-1.086 0-1.629 0h-14.671c1.087 0 3.26 1.087 3.26 0 0-1.872-3.72-1.63-4.89-1.63-.542 0-1.629.544-1.629 0 0-2.308 7.606 4.619-1.63 0-.486-.242 0-1.086 0-1.63v-3.26c0-.542-.384-1.245 0-1.629.384-.384 1.246.384 1.63 0 .768-.768-.768-2.491 0-3.26.384-.384 1.246.384 1.63 0 .384-.384 0-1.086 0-1.63 0-.768-.074-8.075 0-8.15.384-.383 1.246.385 1.63 0 .065-.065 0-5.92 0-6.519 0-4.346-.543.543 1.63-1.63.052-.052 0-4.494 0-4.89v-3.26c0-.543-.544-1.63 0-1.63.543 0 0 2.174 0 1.63v-6.519c0-.599-.066-6.454 0-6.52.384-.384 1.086 0 1.63 0h9.78c.542 0 1.245-.384 1.629 0 .384.385.543 1.63 0 1.63s0-1.086 0-1.63c-1.154-4.97-4.516-.628-6.52-1.63-.687-.343-.942-1.286-1.63-1.63-.485-.242-1.245.385-1.63 0-.384-.384.385-1.245 0-1.63-.384-.383-1.245.385-1.63 0-.384-.383.385-1.245 0-1.63-.384-.383-1.245.385-1.63 0-.383-.383.385-1.245 0-1.63-.383-.383-1.245.385-1.63 0-.383-.383-.542-1.629 0-1.629.544 0 0 2.173 0 1.63v-16.3c0-.542-.383-1.245 0-1.63.385-.383 1.247.385 1.63 0 .164-.162.164-4.726 0-4.889-.768-.768-2.49.769-3.26 0-.383-.384.385-1.246 0-1.63-.767-.768-2.49.769-3.259 0-2.173-2.173 2.717-1.63-1.63-1.63-4.346 0 .544.544-1.63-1.63-.384-.384-1.144.243-1.63 0-.687-.343-.942-1.286-1.63-1.63-.485-.242-1.245.385-1.63 0-.384-.384.385-1.245 0-1.63-.814-.814-4.074.816-4.89 0-.383-.384.385-1.245 0-1.63-.383-.383-1.086 0-1.63 0h-9.779c-.543 0-1.245-.383-1.63 0-.384.385.385 1.246 0 1.63-.384.385-1.086 0-1.63 0h-3.26 3.26-4.889c-.543 0-1.63.544-1.63 0 0-.543 2.173 0 1.63 0-1.087 0-2.288.487-3.26 0-.486-.242 0-1.086 0-1.63v-1.63c0 2.583.486 6.348-1.63 0-.324-.971 0-8.2 0-9.779 0-.543.384-1.245 0-1.63-.384-.384-1.246.385-1.63 0-1.608-1.607 3.34-3.26-1.63-3.26h-3.26c1.087 0 3.26 1.087 3.26 0 0-1.214-2.107-1.245-3.26-1.63-.919-.306-3.818 0-4.89 0h-1.629c2.582 0 6.348.487 0-1.63-1.03-.343-2.491.77-3.26 0-.384-.383 0-1.086 0-1.63v-13.039c0-.543.243-1.143 0-1.63-.343-.686-1.286-.942-1.63-1.63-.486-.971.769-2.49 0-3.259-.384-.384-1.245.384-1.63 0-.384-.384-.543-1.63 0-1.63.769 0 1.63.862 1.63 1.63 0 .543-1.144-.243-1.63 0a3.736 3.736 0 0 0-1.63 1.63c0 4.346.544-.543-1.63 1.63-.384.384.385 1.246 0 1.63-.384.384-1.245-.384-1.63 0-.384.384.385 1.245 0 1.63-.384.384-1.245-.385-1.63 0-.383.384.385 1.245 0 1.63-.383.384-1.245-.385-1.63 0-.383.384.385 1.245 0 1.63-.391.392-6.127-.393-6.519 0-.384.384.384 1.245 0 1.63-.052.052-4.494 0-4.89 0-.543 0-1.245.384-1.63 0-.384-.385.385-1.246 0-1.63-.768-.769-3.26 1.086-3.26 0 0-.544 1.63.543 1.63 0 0-.637-3.053-1.836-1.63-3.26.385-.385 1.246.384 1.63 0 .769-.769-.485-2.288 0-3.26.344-.687 1.287-.943 1.63-1.63.244-.486-.384-1.246 0-1.63.385-.384 1.246.384 1.63 0 .815-.815-.814-4.075 0-4.89.385-.384 1.246.385 1.63 0 .815-.815-.815-4.074 0-4.89.385-.384 1.246.385 1.63 0 .769-.768-.486-2.287 0-3.26.344-.686 1.287-.942 1.63-1.63.323-.645-.333-4.556 0-4.889.384-.384 1.246.384 1.63 0 .392-.392-.392-6.127 0-6.52 4.347 0-.543.544 1.63-1.63.768-.768 2.491.769 3.26 0 .384-.384-.384-1.245 0-1.63.384-.383 1.246.385 1.63 0 .384-.383-.384-1.245 0-1.63.384-.383 1.245.385 1.63 0 .384-.383-.385-1.245 0-1.63.384-.383 1.245.385 1.63 0 .384-.383-.385-1.245 0-1.629.542-.542 2.717.542 3.26 0 .384-.384-.385-1.246 0-1.63 4.346 0-.544.543 1.63-1.63.541-.542 2.717.542 3.26 0 .383-.384-.385-1.246 0-1.63.383-.384 1.245.384 1.629 0 .384-.384-.384-1.245 0-1.63.384-.384 1.246.385 1.63 0 .384-.384-.384-1.245 0-1.63.384-.384 1.144.243 1.63 0 2.174-1.087 1.085-2.172 3.26-3.26.486-.242 1.245.385 1.63 0 .384-.384-.385-1.245 0-1.63.384-.383 1.245.385 1.63 0 .384-.383-.385-1.245 0-1.63 4.346 0-.544.544 1.63-1.63.383-.383 1.143.244 1.63 0 .686-.343.942-1.285 1.63-1.629.485-.243 1.245.384 1.63 0 .383-.384-.385-1.246 0-1.63.383-.384 1.245.384 1.629 0 .384-.384-.243-1.144 0-1.63.156-.312 6.208-6.363 6.52-6.52.486-.242 1.245.385 1.63 0 .384-.384-.243-1.143 0-1.63 3.391-6.783-.113 1.743 3.26-1.63.383-.383-.385-1.245 0-1.63.383-.383 1.245.385 1.63 0 .383-.383-.385-1.245 0-1.63 4.346 0-.544.544 1.63-1.629.383-.384 1.143.243 1.629 0 1.956-.978 2.934-3.912 4.89-4.89.486-.243 1.245.384 1.63 0 .768-.768-1.087-3.26 0-3.26.543 0 0 2.174 0 1.63v-3.26c0-.543-.385-1.245 0-1.63.384-.384 1.245.385 1.63 0 .065-.065 0-5.92 0-6.519v-4.89c0-.543-.385-1.245 0-1.63.384-.384 1.245.385 1.63 0 .814-.815-.815-4.074 0-4.89.384-.383 1.245.385 1.63 0 .814-.814-.816-4.074 0-4.889.384-.384 1.245.384 1.63 0 .383-.384 0-1.087 0-1.63 0-.768-.075-8.076 0-8.15.383-.384 1.245.385 1.63 0 .332-.333-.324-4.243 0-4.89.343-.686 1.286-.942 1.63-1.63.485-.971-.487-2.287 0-3.259.343-.687 1.285-.943 1.629-1.63.214-.428 0-5.667 0-6.52 0-.543-.543-1.63 0-1.63s0 2.174 0 1.63v-13.039c0-.543.384-1.245 0-1.63-.384-.384-1.246.385-1.63 0-.384-.384 0-1.086 0-1.63v-1.63 3.26c0-1.63.516-3.343 0-4.89-.172-.515-1.63.544-1.63 0 0-2.398 5.406 3.776 0-1.63-12.755 1.898-1.19-6.08-3.26-8.149-.384-.384-1.245.384-1.63 0-.384-.384.385-1.246 0-1.63-.384-.384-1.245.384-1.63 0-.384-.384.385-1.245 0-1.63-.384-.384-1.245.385-1.63 0-.768-.768.769-2.491 0-3.26-.768-.768-2.49.769-3.26 0-.383-.384.385-1.245 0-1.63-.541-.542-2.717.543-3.259 0-.384-.384-.543-1.63 0-1.63.768 0 2.398 1.63 1.63 1.63-1.215 0-2.25-.955-3.26-1.63-.64-.425-2.173-1.086-1.63-1.63.544-.542 2.398 1.63 1.63 1.63-1.215 0-2.4-.77-3.26-1.63-.384-.383.384-1.245 0-1.63-.384-.383-1.086 0-1.63 0-.543 0-1.245-.383-1.63 0-.384.385.385 1.247 0 1.63-4.346 0 .544-.542-1.63 1.63-.384.385-1.63.544-1.63 0 0-.543 1.63-.543 1.63 0 0 .77-.942 1.287-1.63 1.63-.971.487-2.49-.768-3.26 0-.383.385.385 1.246 0 1.63-.383.385-1.245-.384-1.629 0-.384.385.384 1.246 0 1.63-.384.385-1.246-.384-1.63 0-.384.385.384 1.246 0 1.63-.384.385-1.246-.384-1.63 0-.384.385.384 1.246 0 1.63-4.346 0 .543-.543-1.63 1.63-.384.384-1.246-.384-1.63 0-.768.769.769 2.492 0 3.26-.384.384-1.245-.384-1.63 0-.384.384.385 1.246 0 1.63-.384.384-1.245-.384-1.63 0-.384.384.385 1.246 0 1.63-.384.384-1.245-.384-1.63 0-.54.54.541 2.719 0 3.26-.384.384-1.245-.385-1.63 0-.383.384.385 1.245 0 1.63-.383.384-1.245-.385-1.63 0-.383.384.385 1.245 0 1.63-.383.384-1.086 0-1.63 0-.542 0-1.629.543-1.629 0 0-.544 2.173 0 1.63 0h-3.26c-.543 0-1.246.384-1.63 0-.384-.385.384-1.246 0-1.63-.384-.385-1.63.543-1.63 0 0-.544 2.173 0 1.63 0h-3.26c-.543 0-1.245-.385-1.63 0-.384.384.385 1.245 0 1.63-4.346 0 .544-.544-1.63 1.63-.768.768-2.49-.769-3.26 0-.383.384.385 1.245 0 1.63-.383.383-1.143-.244-1.63 0-.686.343-.942 1.286-1.63 1.63-.485.242-1.245-.385-1.629 0-.384.383.384 1.245 0 1.63-.542.541-2.718-.543-3.26 0-.384.383.384 1.245 0 1.629-.384.384-1.246-.384-1.63 0-.384.384.384 1.246 0 1.63-.384.384-1.245-.384-1.63 0-.384.384.385 1.246 0 1.63-.768.768-2.491-.769-3.26 0-.384.384.385 1.246 0 1.63-.384.384-1.086 0-1.63 0-.543 0-1.245.384-1.63 0-.383-.384.385-1.246 0-1.63-.383-.384-1.245.384-1.63 0-.383-.384.385-1.246 0-1.63-.383-.384-1.245.384-1.63 0-.543-.544.545-2.716 0-3.26-.383-.384-1.245.384-1.629 0-.384-.384.384-1.246 0-1.63-.384-.384-1.246.384-1.63 0-.384-.384.384-1.246 0-1.63-.384-.384-1.246.384-1.63 0-.384-.384.384-1.245 0-1.63-.384-.384-1.246.385-1.63 0-.384-.384.243-1.144 0-1.63-.687-1.374-2.572-1.885-3.26-3.26-.242-.485.385-1.245 0-1.63-.384-.383-1.245.385-1.63 0-.384-.383.385-1.245 0-1.63-.384-.383-1.245.385-1.63 0-.383-.383.385-1.245 0-1.63-.383-.383-1.245.385-1.63 0-.543-.543.545-2.715 0-3.259-.383-.384-1.245.384-1.63 0-.383-.384.385-1.246 0-1.63-.383-.384-1.245.384-1.63 0-.383-.384.385-1.246 0-1.63-.383-.384-1.245.384-1.629 0-.768-.768.768-2.491 0-3.26-.384-.384-1.246.385-1.63 0-.384-.384.384-1.245 0-1.63-.384-.384-1.246.385-1.63 0-.768-.768.769-2.49 0-3.26-.384-.383-1.246.385-1.63 0-.384-.383.384-1.245 0-1.63-.542-.541-2.717.543-3.26 0 0-4.346.544.544-1.63-1.63-.384-.383 0-1.086 0-1.629 0-.543-.384-1.246 0-1.63.385-.384 1.246.384 1.63 0 .385-.384-.384-1.246 0-1.63.385-.384 1.246.384 1.63 0 .769-.768-.768-2.491 0-3.26.385-.384 1.087 0 1.63 0 .544 0 1.63-.543 1.63 0 0 .544-1.63.544-1.63 0 0-.768.943-1.286 1.63-1.63.972-.485 2.492.769 3.26 0 .544-.543-.544-2.716 0-3.26.384-.384 1.246.385 1.63 0 .54-.54-.54-2.718 0-3.26.384-.383 1.246.385 1.63 0 .768-.767-.768-2.49 0-3.259 2.173-2.173 1.63 2.717 1.63-1.63v-1.63c0 2.582-.486 6.348 1.63 0 .382-1.146-.447-7.703 0-8.15.384-.383 1.245.385 1.63 0 .815-.814-.815-4.074 0-4.889.384-.384 1.245.384 1.63 0 .384-.384 0-1.087 0-1.63v-11.41c0-.543-.243-1.143 0-1.63.343-.686 1.286-.942 1.63-1.63.512-1.024-.513-5.494 0-6.519 2.013-4.028 1.63.563 1.63-3.26 0-.395-.053-4.837 0-4.89.383-.383 1.245.385 1.63 0 .383-.383 0-1.086 0-1.63v-9.779c0-.543-.544-1.63 0-1.63.543 0 0 1.087 0 1.63 0 .396.052 4.838 0 4.89-.385.384-1.087 0-1.63 0 6.812-7.474 4.641-6.52 11.409-6.52.543 0 1.245-.384 1.63 0 .384.385-.385 1.246 0 1.63.768.769 3.26-1.086 3.26 0 0 .544-2.015-.384-1.63 0 1.872 1.873 2.882 1.63 4.89 1.63.542 0 1.245.384 1.63 0 .383-.384-.385-1.245 0-1.63.504-.504 7.644.505 8.149 0 .384-.384-.385-1.245 0-1.63.815-.814 4.074.815 4.89 0 .384-.384-.385-1.245 0-1.63.384-.384 1.086 0 1.63 0h14.668c.544 0 1.246-.384 1.63 0 .384.385-.384 1.246 0 1.63.384.385 1.087 0 1.63 0h11.41c.734 0 4.393-.248 4.89 0 .687.344.942 1.287 1.63 1.63.428.215 5.667 0 6.519 0h26.079-3.26c15.212 0 1.63 1.63 4.89-1.63.768-.768 2.49.769 3.26 0 .383-.384-.385-1.245 0-1.63.383-.384 1.245.385 1.629 0 .768-.768-.768-2.49 0-3.26.384-.383 1.246.385 1.63 0 .384-.383-.384-1.245 0-1.63.384-.383 1.087 0 1.63 0 0-.542-.243-1.143 0-1.63.343-.686 1.286-.942 1.63-1.629.243-.486.384-2.014 0-1.63-.86.86-2.845 3.26-1.63 3.26 3.644 0 3.26-3.012 3.26-4.89 0-.543-.544-1.63 0-1.63.543 0 0 2.174 0 1.63v-3.26c0-.543-.385-1.245 0-1.63.384-.384 1.245.385 1.63 0 .384-.384 0-1.086 0-1.63 0-.543.384-1.245 0-1.63-.385-.383-1.246.385-1.63 0-.385-.383.384-1.245 0-1.63-.385-.383-1.246.385-1.63 0-.384-.383.384-1.245 0-1.63-.542-.541-2.718.543-3.26 0-.384-.383.384-1.245 0-1.63-.384-.383-1.246.385-1.63 0-.384-.383.384-1.245 0-1.629-.384-.384-1.246.384-1.63 0-.384-.384.384-1.246 0-1.63-.384-.384-1.246.384-1.63 0-.384-.384.384-1.246 0-1.63-.384-.384-1.246.384-1.63 0-.384-.384.384-1.246 0-1.63-.384-.384-1.245.384-1.63 0-.384-.384.385-1.245 0-1.63-.384-.384-1.245.385-1.63 0-.384-.384.385-1.245 0-1.63-.384-.384-1.245.385-1.63 0-.384-.384.385-1.245 0-1.63-.384-.384-1.245.385-1.63 0-.384-.384.385-1.245 0-1.63-.384-.383-1.245.385-1.63 0-.383-.383.385-1.245 0-1.63-.065-.065-5.92 0-6.519 0h-1.63 3.26-21.189c-.543 0-1.246.385-1.63 0-.384-.383.384-1.245 0-1.63-4.346 0 .544.544-1.63-1.629-.384-.384-1.245.384-1.63 0-.384-.384.243-1.144 0-1.63-.343-.687-1.286-.943-1.63-1.63-.242-.486-.543-1.63 0-1.63.544 0 .544 1.63 0 1.63-3.256 0-.658-3.918-1.63-4.89-.383-.384-1.245.385-1.63 0-.073-.073 0-7.38 0-8.15v-11.409c0-.543-.543-1.63 0-1.63.544 0 0 2.174 0 1.63v-3.26c0-.543-.543-1.63 0-1.63.544 0 .544 1.63 0 1.63-.768 0-.942-1.286-1.63-1.63-.485-.242-1.143.244-1.629 0-1.325-.662-1.349-2.585-3.26-1.63-.687.345-.943 1.287-1.63 1.63-1.024.513-5.495-.511-6.52 0-.687.344-.942 1.287-1.63 1.63-1.125.564-7.577-.571-8.149 0-.384.385 0 1.087 0 1.63v8.15c0 .543-.384 1.246 0 1.63.384.384 1.087 0 1.63 0 0 .543-.243 1.144 0 1.63.344.687 1.286.943 1.63 1.63.243.486.543 1.63 0 1.63s.543-1.63 0-1.63c-.768 0-.862 1.63-1.63 1.63-.543 0 .384-1.246 0-1.63-.384-.384-1.246.384-1.63 0-.384-.384.384-1.246 0-1.63-.384-.384-1.246.384-1.63 0-.384-.384.384-1.246 0-1.63-.542-.542-2.717.542-3.26 0-.384-.384.385-1.246 0-1.63-.815-.815-4.074.815-4.89 0-.383-.384.385-1.246 0-1.63-.541-.542-2.717.542-3.26 0-.383-.384.385-1.245 0-1.63-.383-.384-1.245.385-1.629 0-.384-.384.384-1.245 0-1.63-.384-.384-1.246.385-1.63 0-.384-.384.384-1.245 0-1.63-.384-.384-1.246.385-1.63 0-.384-.384.384-1.245 0-1.63-.542-.542-2.717.543-3.26 0-.384-.384.385-1.245 0-1.63-.768-.768-2.491.77-3.26 0-.384-.383.385-1.245 0-1.63-.384-.383-1.245.385-1.63 0-.384-.383.385-1.245 0-1.63-.384-.383-1.143.244-1.63 0-.686-.343-1.086-1.086-1.63-1.629-.542-.543-1.285-.943-1.63-1.63-.242-.486.385-1.246 0-1.63-.383-.384-1.245.384-1.629 0-.768-.768.768-2.491 0-3.26-.384-.384-1.246.385-1.63 0-.54-.54.541-2.719 0-3.26-.384-.384-1.246.385-1.63 0-.384-.384 0-1.086 0-1.63 0-.543-.543-1.63 0-1.63.544 0 0 2.174 0 1.63v-3.26c0-.542.544 1.63 0 1.63-.543 0 0-1.086 0-1.63"/></g></svg>