<?xml version="1.0" encoding="UTF-8" standalone="no"?>
<!-- Created with Inkscape (http://www.inkscape.org/) -->

<svg
   width="210mm"
   height="297mm"
   viewBox="0 0 744.09448819 1052.3622047"
   stroke="red">
  <g>
    <g
       transform="matrix(0.28717692,0,0,0.28717692,-353.68322,-161.80584)"
       id="g3458">
      <path
         id="path3445"
         d="m 1435.9323,1821.1477 c 7.5675,-1.8919 15.7256,-2.1872 22.7025,-5.6757 1.6921,-0.846 -1.3378,-4.3378 0,-5.6756 1.3377,-1.3377 3.9834,0.8461 5.6756,0 4.7861,-2.393 6.5651,-8.9582 11.3512,-11.3512 1.6922,-0.8461 4.3379,1.3377 5.6756,0 1.3378,-1.3378 -1.3377,-4.3379 0,-5.6756 1.3378,-1.3378 4.3379,1.3377 5.6757,0 1.3377,-1.3378 -1.3378,-4.3379 0,-5.6757 1.3377,-1.3377 4.3378,1.3378 5.6756,0 1.3377,-1.3377 -1.3378,-4.3378 0,-5.6756 1.3377,-1.3377 4.3379,1.3378 5.6756,0 1.3378,-1.3377 -1.3377,-4.3379 0,-5.6756 1.3378,-1.3378 4.3379,1.3377 5.6756,0 1.3378,-1.3378 -1.3377,-4.3379 0,-5.6756 1.3378,-1.3378 4.3379,1.3377 5.6757,0 1.3377,-1.3378 -1.3378,-4.3379 0,-5.6757 1.3377,-1.3377 4.3378,1.3378 5.6756,0 1.3377,-1.3377 -1.3378,-4.3378 0,-5.6756 1.3377,-1.3377 4.3378,1.3378 5.6756,0 1.3378,-1.3377 -1.3378,-4.3378 0,-5.6756 1.3378,-1.3378 3.9835,0.8461 5.6756,0 2.3931,-1.1965 3.2826,-4.4791 5.6756,-5.6756 1.6922,-0.8461 4.3379,1.3377 5.6757,0 1.3377,-1.3378 -1.3378,-4.3379 0,-5.6756 1.3377,-1.3378 3.9834,0.846 5.6756,0 2.393,-1.1966 3.2826,-4.4791 5.6756,-5.6757 1.6922,-0.846 4.3379,1.3378 5.6756,0 1.3378,-1.3377 -1.3377,-4.3378 0,-5.6756 1.3378,-1.3377 4.3379,1.3378 5.6757,0 1.3377,-1.3377 -1.3378,-4.3379 0,-5.6756 15.1349,0 -1.8919,1.8919 5.6756,-5.6756 11.743,-11.7431 -0.4591,17.9449 11.3512,-5.6757 0.8461,-1.6921 -1.3377,-4.3378 0,-5.6756 2.6755,-2.6755 8.6757,2.6755 11.3513,0 1.3377,-1.3377 -1.3378,-4.3378 0,-5.6756 1.3377,-1.3378 4.3378,1.3378 5.6756,0 1.3377,-1.3378 -1.3378,-4.3379 0,-5.6756 1.3377,-1.3378 3.9835,0.8461 5.6756,0 23.6206,-11.8103 -6.0674,0.3918 5.6756,-11.3513 1.3378,-1.3377 4.3379,1.3378 5.6756,0 1.3378,-1.3377 -1.3377,-4.3378 0,-5.6756 1.3378,-1.3377 4.3379,1.3378 5.6757,0 1.3377,-1.3377 -1.3378,-4.3378 0,-5.6756 1.3377,-1.3378 4.3378,1.3378 5.6756,0 1.8935,-1.8935 -1.8935,-9.4578 0,-11.3512 1.3377,-1.3378 4.3379,1.3377 5.6756,0 1.8833,-1.8834 -1.8833,-9.468 0,-11.3513 1.3378,-1.3377 4.3379,1.3378 5.6756,0 1.3658,-1.3657 -1.3657,-21.3367 0,-22.7025 1.3378,-1.3377 4.3379,1.3378 5.6757,0 1.1603,-1.1603 -1.1252,-14.7765 0,-17.0268 1.1965,-2.3931 4.4791,-3.2826 5.6756,-5.6757 0.846,-1.6921 -0.8461,-3.9834 0,-5.6756 1.1965,-2.393 4.4791,-3.2826 5.6756,-5.6756 0.8461,-1.6921 -1.3378,-4.3379 0,-5.6756 1.3378,-1.3378 4.3379,1.3377 5.6756,0 2.6755,-2.6755 -2.6755,-8.6758 0,-11.3513 1.3378,-1.3377 4.3379,1.3378 5.6756,0 1.3378,-1.3377 -1.3377,-4.3378 0,-5.6756 1.3378,-1.3377 4.3379,1.3378 5.6757,0 1.3377,-1.3377 -0.8461,-3.9835 0,-5.6756 1.1965,-2.3931 4.4791,-3.2826 5.6756,-5.6756 0.8461,-1.6922 -1.3378,-4.3379 0,-5.6757 1.3377,-1.3377 4.3379,1.3378 5.6756,0 1.3378,-1.3377 -1.3377,-4.3378 0,-5.6756 1.3378,-1.3377 4.3379,1.3378 5.6756,0 1.3378,-1.3377 -1.3377,-4.3378 0,-5.6756 2.6755,-2.6755 8.6758,2.6755 11.3513,0 1.3377,-1.3378 -1.3378,-4.3379 0,-5.6756 2.8378,-2.8378 14.189,2.8378 17.0268,0 1.3378,-1.3378 -1.3377,-4.3379 0,-5.6756 2.6756,-2.6756 8.6758,2.6755 11.3513,0 1.3377,-1.3378 -1.3378,-4.3379 0,-5.6757 2.6755,-2.6755 8.6757,2.6755 11.3512,0 1.3378,-1.3377 -1.3377,-4.3378 0,-5.6756 1.888,-1.888 9.4633,1.888 11.3513,0 1.3377,-1.3377 -1.3378,-4.3379 0,-5.6756 1.3377,-1.3378 3.9834,0.8461 5.6756,0 2.393,-1.1965 3.2826,-4.4791 5.6756,-5.6756 1.6922,-0.8461 3.7838,0 5.6756,0 1.8919,-1.8919 3.2826,-4.4791 5.6757,-5.6757 1.6921,-0.846 3.7837,0 5.6756,0 1.8918,-1.8918 3.2825,-4.479 5.6756,-5.6756 3.3843,-1.6921 8.6757,2.6755 11.3512,0 1.3378,-1.3377 -1.3377,-4.3378 0,-5.6756 2.6756,-2.6755 8.6758,2.6755 11.3513,0 1.3377,-1.3378 -1.3378,-4.3379 0,-5.6756 2.6755,-2.6755 8.6757,2.6755 11.3512,0 1.3378,-1.3378 -1.3377,-4.3379 0,-5.6756 1.3378,-1.3378 3.9835,0.846 5.6756,0 2.3931,-1.1966 3.2826,-4.4791 5.6757,-5.6757 3.3843,-1.6921 8.6757,2.6756 11.3512,0 1.3378,-1.3377 -1.3377,-4.3378 0,-5.6756 2.6755,-2.6755 8.6757,2.6755 11.3513,0 1.3377,-1.3377 -1.3378,-4.3378 0,-5.6756 2.6755,-2.6755 7.9669,1.6921 11.3512,0 2.3931,-1.1965 3.2826,-4.4791 5.6756,-5.6756 1.6922,-0.8461 3.9835,0.846 5.6756,0 14.0268,-7.0134 -1.9591,-5.6756 11.3513,-5.6756 1.8919,0 5.6756,-1.8919 5.6756,0 0,1.8918 -5.6756,1.8918 -5.6756,0 0,-2.6756 4.4791,-3.2826 5.6756,-5.6757 0.8461,-1.6921 -1.3377,-4.3378 0,-5.6756 1.3378,-1.3377 4.3379,1.3378 5.6756,0 1.3378,-1.3377 -1.3377,-4.3379 0,-5.6756 1.3378,-1.3378 4.3379,1.3377 5.6757,0 1.3377,-1.3378 -1.3378,-4.3379 0,-5.6756 1.3377,-1.3378 4.3378,1.3377 5.6756,0 1.3377,-1.3378 -1.3378,-4.3379 0,-5.6757 1.3377,-1.3377 3.9835,0.8461 5.6756,0 2.393,-1.1965 3.2826,-4.479 5.6756,-5.6756 15.135,0 -1.8919,1.8919 5.6756,-5.6756 2.6756,-2.6755 8.6758,2.6755 11.3513,0 1.3377,-1.3378 -1.3378,-4.3379 0,-5.6756 1.1603,-1.1603 14.7765,1.1251 17.0268,0 2.3931,-1.1965 3.2826,-4.4791 5.6757,-5.6756 2.2503,-1.1252 15.8665,1.1603 17.0268,0 1.3378,-1.3378 -1.3377,-4.3379 0,-5.6757 1.1603,-1.1603 14.7766,1.1252 17.0269,0 2.393,-1.1965 3.2826,-4.4791 5.6756,-5.6756 3.3843,-1.6921 7.967,1.6922 11.3513,0 2.393,-1.1965 3.2825,-4.4791 5.6756,-5.6756 3.3843,-1.6921 8.6757,2.6755 11.3512,0 1.3378,-1.3378 -1.3377,-4.3379 0,-5.6756 2.6755,-2.6755 8.6758,2.6755 11.3513,0 1.3377,-1.3378 -1.3378,-4.3379 0,-5.6756 1.3657,-1.3658 21.3367,1.3657 22.7025,0 1.3377,-1.3378 -1.3378,-4.3379 0,-5.6757 1.7574,-1.7574 26.6206,1.7575 28.3781,0 1.3377,-1.3377 -1.3378,-4.3378 0,-5.6756 0.2284,-0.2284 20.6182,0 22.7025,0 3.7666,0 7.5845,0 11.3512,0 1.8919,0 5.6756,-1.8919 5.6756,0 0,1.8919 -7.5675,0 -5.6756,0 3.7837,0 7.967,-1.6921 11.3512,0 1.6922,0.8461 -1.3377,4.3379 0,5.6756 2.6756,2.6755 8.6758,-2.6755 11.3513,0 1.3377,1.3378 0,3.7838 0,5.6757 0,1.8918 1.3377,4.3378 0,5.6756 -2.6755,2.6755 -8.6757,-2.6755 -11.3513,0 -1.3377,1.3377 1.3378,4.3378 0,5.6756 -2.6755,2.6755 -8.6757,-2.6755 -11.3512,0 -1.3378,1.3378 1.3378,4.3379 0,5.6756 -1.8935,1.8935 -9.4578,-1.8935 -11.3512,0 -1.3378,1.3378 1.3377,4.3379 0,5.6756 -2.6756,2.6756 -8.6758,-2.6755 -11.3513,0 -1.3377,1.3378 0.8461,3.9835 0,5.6757 -1.1965,2.393 -4.4791,3.2825 -5.6756,5.6756 -1.6922,3.3843 1.6921,7.9669 0,11.3512 -1.1965,2.3931 -4.4791,3.2826 -5.6756,5.6756 -0.8461,1.6922 1.8918,5.6757 0,5.6757 -1.8919,0 0,-7.5675 0,-5.6757 0,5.6757 0,11.3513 0,17.0269 0,3.7907 0,7.5606 0,11.3513 0,1.8918 1.8918,5.6756 0,5.6756 -1.8919,0 0,-7.5675 0,-5.6756 0,3.7837 0,7.5674 0,11.3512 0,1.8919 1.8918,5.6756 0,5.6756 -1.8919,0 0,-7.5675 0,-5.6756 0,32.1619 -3.7838,1.8919 5.6756,11.3512 1.3377,1.3378 -1.3378,4.3379 0,5.6757 1.3377,1.3377 4.3379,-1.3378 5.6756,0 11.7431,11.743 -17.9449,-0.4591 5.6756,11.3512 1.6922,0.8461 4.3379,-1.3378 5.6757,0 2.6755,2.6755 -2.6756,8.6757 0,11.3512 1.3377,1.3378 4.3378,-1.3377 5.6756,0 1.3377,1.3378 -1.3378,4.3379 0,5.6757 2.6755,2.6755 8.6757,-2.6755 11.3512,0 1.3378,1.3377 -1.3377,4.3378 0,5.6756 1.3378,1.3377 4.3379,-1.3378 5.6756,0 1.3378,1.3377 -1.3377,4.3379 0,5.6756 1.3378,1.3378 4.3379,-1.3377 5.6757,0 1.3377,1.3378 -1.3378,4.3379 0,5.6756 1.3377,1.3378 4.3378,-1.3377 5.6756,0 1.3377,1.3378 -1.3378,4.3379 0,5.6757 1.3377,1.3377 4.3378,-1.3378 5.6756,0 1.3378,1.3377 -1.3378,4.3378 0,5.6756 1.3378,1.3377 4.3379,-1.3378 5.6756,0 1.3378,1.3377 -1.3377,4.3378 0,5.6756 1.3378,1.3378 4.3379,-1.3378 5.6756,0 1.3378,1.3378 0,3.7837 0,5.6756 1.8919,0 4.3379,-1.3377 5.6757,0 1.3377,1.3378 -1.3378,4.3379 0,5.6756 1.3377,1.3378 4.3378,-1.3377 5.6756,0 1.3377,1.3378 -1.3378,4.3379 0,5.6757 1.3377,1.3377 4.3379,-1.3378 5.6756,0 1.3378,1.3377 -1.3377,4.3378 0,5.6756 1.3378,1.3377 4.3379,-1.3378 5.6756,0 1.3378,1.3377 -1.3377,4.3379 0,5.6756 1.3378,1.3378 4.3379,-1.3377 5.6757,0 2.6755,2.6755 -2.6756,8.6757 0,11.3513 1.3377,1.3377 4.3378,-1.3378 5.6756,0 1.3377,1.3377 -1.3378,4.3378 0,5.6756 13.3103,13.3103 0,-17.4859 0,-5.6756 0,4.2303 4.3378,7.3379 5.6756,11.3512 1.1965,3.5896 -2.6755,8.6757 0,11.3512 7.5675,7.5675 5.6756,-9.4593 5.6756,5.6757 0,9.4593 0,18.9187 0,28.3781 0,1.8918 1.3378,4.3378 0,5.6756 -7.5675,7.5675 -5.6756,-9.4594 -5.6756,5.6756 0,5.6756 0,11.3513 0,17.0269 0,1.8919 0,7.5675 0,5.6756 0,-3.7837 3.7837,-11.3512 0,-11.3512 -4.2304,0 -4.3379,7.3379 -5.6756,11.3512 -1.0674,3.2022 0,13.2974 0,17.0269 0,15.135 0,30.2699 0,45.4049 0,11.3513 0,22.7025 0,34.0538 0,2.556 -0.8637,15.2995 0,17.0268 1.1965,2.3931 4.4791,3.2826 5.6756,5.6757 1.9602,3.9203 -1.9923,26.3858 0,28.3781 1.3378,1.3377 4.3379,-1.3378 5.6756,0 1.3378,1.3377 0,3.7837 0,5.6756 0,1.8919 0,3.7837 0,5.6756 0,1.8919 1.8919,5.6756 0,5.6756 -1.8919,0 0,-7.5675 0,-5.6756 0,3.7838 0,7.5675 0,11.3512 0,1.8919 1.8919,5.6757 0,5.6757 -1.8919,0 0,-7.5675 0,-5.6757 0,3.7838 1.6922,7.967 0,11.3513 -0.8461,1.6921 -4.3378,-1.3378 -5.6756,0 -1.3378,1.3377 1.3378,4.3379 0,5.6756 -1.3378,1.3378 -4.3379,-1.3377 -5.6756,0 -1.3378,1.3378 1.8919,5.6756 0,5.6756 -1.8919,0 0,-7.5675 0,-5.6756 0,3.7838 0,7.5675 0,11.3513 0,1.8918 -1.3378,4.3378 0,5.6756 1.3377,1.3377 4.3378,-1.3378 5.6756,0 1.3378,1.3377 -0.8461,3.9835 0,5.6756 1.1965,2.3931 4.4791,3.2826 5.6756,5.6756 1.6922,3.3843 -2.6755,8.6758 0,11.3513 1.3378,1.3377 4.3379,-1.3378 5.6756,0 1.3378,1.3377 0,3.7837 0,5.6756 1.8919,0 4.3379,-1.3378 5.6757,0 1.3377,1.3377 -1.3378,4.3379 0,5.6756 2.6755,2.6755 8.6757,-2.6755 11.3512,0 1.3378,1.3378 -1.3378,4.3379 0,5.6756 2.6755,2.6755 8.6757,-2.6755 11.3513,0 1.3377,1.3378 -1.3378,4.3379 0,5.6757 2.6755,2.6755 8.6757,-2.6756 11.3512,0 1.3378,1.3377 -1.3378,4.3378 0,5.6756 1.3378,1.3377 3.9835,-0.8461 5.6756,0 2.3931,1.1965 3.2826,4.4791 5.6756,5.6756 1.6922,0.8461 4.3379,-1.3378 5.6757,0 1.3377,1.3378 -1.3378,4.3379 0,5.6756 1.3377,1.3378 4.3378,-1.3377 5.6756,0 1.3377,1.3378 0,3.7838 0,5.6756 1.8919,0 3.9835,-0.846 5.6756,0 2.3931,1.1966 3.2826,4.4791 5.6756,5.6757 1.6922,0.846 4.3379,-1.3378 5.6756,0 1.3378,1.3377 -1.3377,4.3378 0,5.6756 1.8935,1.8935 9.4578,-1.8935 11.3513,0 1.3377,1.3377 -1.3378,4.3378 0,5.6756 2.6755,2.6755 8.6757,-2.6755 11.3512,0 1.3378,1.3378 -1.3377,4.3379 0,5.6756 2.8378,2.8378 14.1891,-2.8378 17.0269,0 1.3378,1.3378 -1.3378,4.3379 0,5.6756 0.2284,0.2284 20.6182,0 22.7025,0 1.8919,0 3.7837,0 5.6756,0 1.8919,0 5.6756,-1.8918 5.6756,0 0,1.8919 -7.5675,0 -5.6756,0 5.6756,0 11.3512,0 17.0269,0 1.8918,0 4.3378,1.3378 5.6756,0 1.3377,-1.3377 -1.3378,-4.3378 0,-5.6756 1.3377,-1.3377 5.6756,-1.8919 5.6756,0 0,1.8919 -4.3379,1.3378 -5.6756,0 -1.3378,-1.3377 1.3377,-4.3378 0,-5.6756 -1.8935,-1.8935 -9.4578,1.8935 -11.3513,0 -1.3377,-1.3378 1.3378,-4.3379 0,-5.6756 -1.3377,-1.3378 -4.3378,1.3377 -5.6756,0 -7.5675,-7.5675 9.4594,-5.6756 -5.6756,-5.6756 -3.992,0 -15.8206,3.263 -11.3512,-5.6757 1.1965,-2.393 4.4791,-3.2825 5.6756,-5.6756 3.9143,-7.8287 -6.8735,-5.0767 5.6756,-11.3512 1.6921,-0.8461 4.3379,1.3377 5.6756,0 1.3378,-1.3378 -0.846,-3.9835 0,-5.6756 0.8108,-1.6215 10.5405,-9.7298 11.3513,-11.3513 0.846,-1.6921 -1.3378,-4.3379 0,-5.6756 1.3377,-1.3378 4.3378,1.3377 5.6756,0 1.3377,-1.3378 -1.3378,-4.3379 0,-5.6756 1.3377,-1.3378 4.3379,1.3377 5.6756,0 1.3378,-1.3378 -1.3377,-4.3379 0,-5.6757 1.3378,-1.3377 4.3379,1.3378 5.6756,0 1.3378,-1.3377 -1.3377,-4.3378 0,-5.6756 1.3378,-1.3377 3.9835,0.8461 5.6757,0 2.393,-1.1965 3.2825,-4.4791 5.6756,-5.6756 1.6921,-0.8461 4.3378,1.3378 5.6756,0 1.3378,-1.3378 -1.3378,-4.3379 0,-5.6756 1.3378,-1.3378 4.3379,1.3377 5.6756,0 1.3378,-1.3378 -1.3377,-4.3379 0,-5.6756 1.3378,-1.3378 3.7838,0 5.6756,0 1.8919,0 3.7838,0 5.6757,0 1.8918,0 7.5675,0 5.6756,0 -3.7838,0 -15.135,0 -11.3513,0 5.6757,0 11.3513,0 17.0269,0 3.787,0 7.5643,0 11.3513,0 1.8918,0 7.5674,0 5.6756,0 -3.7838,0 -15.135,0 -11.3513,0 5.6757,0 11.6425,-1.7948 17.0269,0 3.5896,1.1965 -2.6755,8.6757 0,11.3512 1.3378,1.3378 4.3379,-1.3378 5.6756,0 2.6755,2.6755 -2.6755,8.6757 0,11.3512 1.3378,1.3378 4.3379,-1.3377 5.6756,0 1.8954,1.8954 -1.8953,9.456 0,11.3513 1.3378,1.3377 4.3379,1.3377 5.6757,0 1.3377,-1.3378 -1.3378,-4.3379 0,-5.6756 2.6755,-2.6755 8.6757,2.6755 11.3512,0 1.3378,-1.3378 -1.3378,-4.3379 0,-5.6757 2.8378,-2.8378 14.1891,2.8379 17.0269,0 1.3377,-1.3377 -1.3378,-4.3378 0,-5.6756 2.8378,-2.8378 14.189,2.8378 17.0268,0 1.3378,-1.3377 -1.3377,-4.3378 0,-5.6756 1.3378,-1.3378 3.7838,0 5.6757,0 1.8918,0 5.6756,-1.8919 5.6756,0 0,1.8919 -7.5675,0 -5.6756,0 32.1618,0 1.8918,3.7837 11.3512,-5.6756 2.6755,-2.6755 8.6757,2.6755 11.3512,0 1.3378,-1.3378 -1.3377,-4.3379 0,-5.6756 1.3378,-1.3378 3.7838,0 5.6757,0 1.8918,0 7.5675,0 5.6756,0 -3.7838,0 -15.135,0 -11.3513,0 9.4594,0 18.9188,0 28.3781,0 11.3513,0 22.7025,0 34.0538,0 1.8919,0 4.3378,1.3377 5.6756,0 7.5675,-7.5675 -9.4594,-5.6757 5.6756,-5.6757 1.8919,0 3.7838,0 5.6756,0 1.8919,0 3.9835,0.8461 5.6757,0 2.393,-1.1965 3.2825,-4.4791 5.6756,-5.6756 3.0133,-1.5067 8.3379,1.5067 11.3512,0 14.0268,-7.0134 -1.9591,-5.6756 11.3513,-5.6756 1.8918,0 3.7837,0 5.6756,0 1.8919,0 5.6756,-1.8919 5.6756,0 0,1.8919 -5.6756,-1.8919 -5.6756,0 0,11.8103 7.9593,2.2837 11.3512,5.6756 1.3378,1.3378 -1.3377,4.3379 0,5.6756 1.3378,1.3378 4.3379,-1.3377 5.6757,0 0.5675,0.5676 0.5675,16.4593 0,17.0269 -1.3378,1.3378 -4.3379,-1.3378 -5.6757,0 -1.3377,1.3378 1.3378,4.3379 0,5.6756 -1.3377,1.3378 -3.7837,0 -5.6756,0 -1.8919,0 -3.7837,0 -5.6756,0 71.4558,22.5213 -4.2859,0 28.3781,0 1.8919,0 3.7838,0 5.6756,0 1.8919,0 4.3379,1.3378 5.6756,0 1.3378,-1.3377 -1.3377,-4.3378 0,-5.6756 1.8834,-1.8833 9.468,1.8833 11.3513,0 1.3377,-1.3378 -1.3378,-4.3379 0,-5.6756 1.9922,-1.9923 24.4578,1.9601 28.3781,0 2.3931,-1.1965 3.2826,-4.4791 5.6756,-5.6756 1.7273,-0.8637 14.4708,0 17.0269,0 1.8919,0 7.5675,0 5.6756,0 -3.7837,0 -15.135,0 -11.3512,0 52.9724,0 5.6756,5.6756 17.0268,-5.6757 2.6755,-2.6755 8.6758,2.6755 11.3513,0 1.3377,-1.3377 -1.3378,-4.3378 0,-5.6756 1.3377,-1.3377 4.3378,1.3378 5.6756,0 1.3377,-1.3377 -1.3378,-4.3379 0,-5.6756 1.3377,-1.3378 4.3379,1.3377 5.6756,0 1.3378,-1.3378 -1.3377,-4.3379 0,-5.6756 1.3378,-1.3378 4.3379,1.3377 5.6756,0 1.3378,-1.3378 -1.3377,-4.3379 0,-5.6757 2.6756,-2.6755 8.6758,2.6756 11.3513,0 1.3377,-1.3377 -1.3378,-4.3378 0,-5.6756 1.3377,-1.3377 3.9835,0.8461 5.6756,0 2.3931,-1.1965 3.2826,-4.4791 5.6756,-5.6756 1.6922,-0.8461 4.3379,1.3378 5.6756,0 1.3378,-1.3378 -1.3377,-4.3379 0,-5.6756 1.3378,-1.3378 3.9835,0.8461 5.6757,0 2.393,-1.1965 3.7837,-3.7838 5.6756,-5.6756 1.8919,-1.8919 4.4791,-3.2826 5.6756,-5.6757 0.8461,-1.6921 -1.3377,-4.3378 0,-5.6756 1.3378,-1.3377 4.3379,1.3378 5.6756,0 1.3378,-1.3377 -1.3377,-4.3378 0,-5.6756 1.3378,-1.3378 4.3379,1.3378 5.6757,0 1.3377,-1.3378 -0.8461,-3.9835 0,-5.6756 1.1965,-2.3931 4.479,-3.2826 5.6756,-5.6756 0.846,-1.6922 -1.3378,-4.3379 0,-5.6757 1.3377,-1.3377 4.3378,1.3378 5.6756,0 1.3378,-1.3377 -1.3378,-4.3378 0,-5.6756 2.6755,-2.6755 8.6757,2.6755 11.3512,0 1.3378,-1.3377 -1.3377,-4.3379 0,-5.6756 1.3378,-1.3378 3.9835,0.8461 5.6757,0 2.393,-1.1965 3.2825,-4.4791 5.6756,-5.6756 3.3843,-1.6922 8.6757,2.6755 11.3512,0 1.3378,-1.3378 -1.3377,-4.3379 0,-5.6757 2.6755,-2.6755 8.6758,2.6756 11.3513,0 1.3377,-1.3377 0,-3.7837 0,-5.6756 1.8918,0 4.3378,1.3378 5.6756,0 1.3377,-1.3377 -1.8919,-5.6756 0,-5.6756 1.8919,0 -1.8919,5.6756 0,5.6756 2.2165,0 6.392,-10.6348 11.3512,-5.6756 2.6755,2.6755 -2.6755,8.6757 0,11.3512 1.3378,1.3378 4.3379,-1.3377 5.6757,0 1.3377,1.3378 -1.3378,4.3379 0,5.6757 1.3377,1.3377 4.3378,-1.3378 5.6756,0 1.3377,1.3377 -1.3378,4.3378 0,5.6756 1.3377,1.3377 3.7837,0 5.6756,0 1.8919,0 4.3379,1.3377 5.6756,0 1.3378,-1.3378 -1.3377,-4.3379 0,-5.6756 1.3378,-1.3378 4.3379,1.3377 5.6756,0 1.3378,-1.3378 0,-3.7838 0,-5.6757 0,-1.8918 0,-3.7837 0,-5.6756 0,-3.7837 0,-15.135 0,-11.3512 0,3.7837 0,15.135 0,11.3512 0,-5.6756 -1.7947,-11.6425 0,-17.0268 0.078,-0.2346 16.1438,-0.4416 17.0269,0 2.3931,1.1965 3.2826,4.4791 5.6756,5.6756 1.6922,0.8461 4.3379,-1.3378 5.6757,0 1.3377,1.3377 -1.3378,4.3378 0,5.6756 1.3377,1.3378 4.3378,-1.3378 5.6756,0 1.3377,1.3378 -1.3378,4.3379 0,5.6756 0.2284,0.2284 20.6182,0 22.7025,0 1.8918,0 5.6756,-1.8919 5.6756,0 0,1.8919 -5.6756,1.8919 -5.6756,0 0,-2.6755 4.4791,-3.2825 5.6756,-5.6756 0.8636,-1.7273 0,-14.4708 0,-17.0269 0,-1.8918 0,-7.5675 0,-5.6756 0,3.7838 0,15.135 0,11.3513 0,-9.4594 0,-18.9188 0,-28.3782 0,-3.7837 0,-15.1349 0,-11.3512 0,3.7838 0,15.135 0,11.3512 0,-52.9724 5.6756,-5.6756 -5.6756,-17.0268 -1.8834,-1.8833 1.8833,-9.4679 0,-11.3513 -1.3378,-1.3377 -3.7838,0 -5.6757,0 -1.8918,0 -3.7837,0 -5.6756,0 -1.8919,0 -7.5675,0 -5.6756,0 3.7837,0 11.3512,3.7838 11.3512,0 0,-10.6158 -31.4346,-3.0565 -34.0537,-5.6756 -1.3377,-1.3377 1.3378,-4.3378 0,-5.6756 -1.3657,-1.3657 -21.3367,1.3657 -22.7025,0 -1.3377,-1.3378 1.3378,-4.3379 0,-5.6756 -2.6755,-2.6755 -8.6757,2.6755 -11.3512,0 -1.3378,-1.3378 1.3377,-4.3379 0,-5.6756 -2.6755,-2.6756 -8.6758,2.6755 -11.3513,0 -1.3377,-1.3378 1.3378,-4.3379 0,-5.6757 -1.3377,-1.3377 -3.9834,0.8461 -5.6756,0 -2.393,-1.1965 -3.2826,-4.4791 -5.6756,-5.6756 -1.6922,-0.8461 -4.3379,1.3378 -5.6756,0 -1.3378,-1.3377 0,-3.7837 0,-5.6756 -1.8919,0 -4.3379,1.3377 -5.6757,0 -1.3377,-1.3378 1.3378,-4.3379 0,-5.6756 -1.3377,-1.3378 -5.6756,1.8918 -5.6756,0 0,-1.8919 7.5675,0 5.6756,0 -32.1618,0 -1.8918,3.7837 -11.3512,-5.6757 -2.6755,-2.6755 -11.3512,3.7838 -11.3512,0 0,-1.8918 7.5675,0 5.6756,0 -3.7838,0 -7.5675,0 -11.3513,0 -1.8918,0 -3.9834,-0.846 -5.6756,0 -2.393,1.1966 -3.2826,4.4791 -5.6756,5.6757 -3.3843,1.6921 -8.6757,-2.6755 -11.3512,0 -1.3378,1.3377 1.3377,4.3378 0,5.6756 -1.3378,1.3377 -4.3379,-1.3378 -5.6757,0 -1.3377,1.3377 1.3378,4.3379 0,5.6756 -1.3377,1.3378 -4.3378,-1.3377 -5.6756,0 -1.3377,1.3378 1.3378,4.3379 0,5.6756 -1.3377,1.3378 -4.3379,-1.3377 -5.6756,0 -1.3378,1.3378 1.3377,4.3379 0,5.6757 -1.3378,1.3377 -5.6756,1.8918 -5.6756,0 0,-1.8919 7.5675,0 5.6756,0 -3.7838,0 -7.967,-1.6922 -11.3513,0 -1.6921,0.846 1.3378,4.3378 0,5.6756 -1.3377,1.3377 -3.7837,0 -5.6756,0 -1.8919,0 -4.3378,1.3377 -5.6756,0 -0.5676,-0.5676 -0.5676,-16.4593 0,-17.0269 1.3378,-1.3377 4.3379,1.3378 5.6756,0 2.6755,-2.6755 -2.6755,-8.6757 0,-11.3512 1.3378,-1.3378 4.3379,1.3377 5.6756,0 1.3378,-1.3378 -1.3377,-4.3379 0,-5.6757 1.3378,-1.3377 4.3379,1.3378 5.6757,0 1.3377,-1.3377 -1.3378,-4.3378 0,-5.6756 1.3377,-1.3377 4.3378,1.3378 5.6756,0 1.3377,-1.3377 -1.3378,-4.3378 0,-5.6756 1.3377,-1.3378 4.3379,1.3378 5.6756,0 1.8935,-1.8935 -1.8935,-9.4578 0,-11.3512 1.3378,-1.3378 4.3379,1.3377 5.6756,0 1.3378,-1.3378 -1.3377,-4.3379 0,-5.6757 1.3378,-1.3377 4.3379,1.3378 5.6757,0 1.3377,-1.3377 -1.3378,-4.3378 0,-5.6756 1.3377,-1.3377 4.3378,1.3378 5.6756,0 1.3377,-1.3377 -0.8461,-3.9835 0,-5.6756 1.1965,-2.3931 3.2825,-4.4791 5.6756,-5.6756 1.6921,-0.8461 4.3379,1.3377 5.6756,0 1.3378,-1.3378 1.3378,-4.3379 0,-5.6756 -1.3377,-1.3378 -4.3378,-1.3378 -5.6756,0 -1.3378,1.3377 1.3378,4.3378 0,5.6756 -1.3378,1.3377 -4.3379,-1.3378 -5.6756,0 -1.3378,1.3377 1.3377,4.3378 0,5.6756 -2.8378,2.8378 -14.1891,-2.8378 -17.0269,0 -1.3377,1.3378 1.3378,4.3379 0,5.6756 -1.3377,1.3378 -4.3379,-1.3377 -5.6756,0 -1.3378,1.3378 1.3377,4.3379 0,5.6756 -2.6755,2.6756 -8.6757,-2.6755 -11.3513,0 -1.3377,1.3378 1.3378,4.3379 0,5.6757 -0.1825,0.1825 -15.6503,0 -17.0268,0 -9.4594,0 -18.9188,0 -28.3781,0 -6.471,0 -14.758,0 -11.3513,0 14.4881,0 18.9485,0 -5.6756,0 -3.7837,0 -7.5675,0 -11.3512,0 -1.8919,0 -5.6757,1.8918 -5.6757,0 0,-1.8919 5.6757,1.8918 5.6757,0 0,-2.6756 -3.2826,-4.4791 -5.6757,-5.6757 -1.4674,-0.7337 -30.0308,0 -34.0537,0 -15.135,0 1.8919,1.8919 -5.6756,-5.6756 -1.3378,-1.3377 -3.7838,0 -5.6756,0 -9.4594,0 -18.9188,0 -28.3781,0 -1.8919,0 -4.3379,1.3378 -5.6757,0 -1.3377,-1.3377 1.3378,-4.3378 0,-5.6756 -1.3377,-1.3378 -3.7837,0 -5.6756,0 -1.8919,0 -3.7837,0 -5.6756,0 -20.9417,0 -11.2429,0 -34.0537,0 1.8919,-7.5675 4.1458,-15.0536 5.6756,-22.7025 0.742,-3.7103 0,-7.5675 0,-11.3512 0,-11.3513 0,-22.7025 0,-34.0538 0,-3.7869 0,-7.5643 0,-11.3512 0,-1.8919 0,-7.5675 0,-5.6756 0,3.7837 3.7837,11.3512 0,11.3512 -4.2304,0 -4.3379,-7.338 -5.6756,-11.3512 -7.5675,-22.7025 9.4593,9.4593 -5.6757,-5.6757 -1.3377,-1.3377 1.3378,-4.3378 0,-5.6756 -1.3377,-1.3377 -4.3378,1.3378 -5.6756,0 -1.3377,-1.3377 1.3378,-4.3378 0,-5.6756 -1.3377,-1.3378 -4.3378,1.3378 -5.6756,0 -1.3378,-1.3378 1.3378,-4.3379 0,-5.6756 -0.1825,-0.1825 -15.6504,0 -17.0269,0 -1.8918,0 -7.5675,0 -5.6756,0 3.7838,0 15.135,0 11.3513,0 -52.9725,0 -5.6757,5.6756 -17.0269,-5.6756 -0.1825,-0.1826 -15.6504,0 -17.0269,0 -1.8918,0 -7.5675,0 -5.6756,0 3.7838,0 15.135,0 11.3512,0 -5.6756,0 -11.3512,0 -17.0268,0 -7.5675,0 -15.135,0 -22.7025,0 -2.6667,0 -24.2307,0 -11.3512,0 3.7837,0 15.1349,0 11.3512,0 -5.6756,0 -11.3512,0 -17.0269,0 -1.8918,0 -3.7837,0 -5.6756,0 -1.8919,0 -4.3379,1.3377 -5.6756,0 -1.3378,-1.3378 1.3377,-4.3379 0,-5.6757 -1.3378,-1.3377 -3.7838,0 -5.6756,0 -1.8919,0 -3.7838,0 -5.6757,0 -1.8918,0 -5.6756,1.8919 -5.6756,0 0,-1.8918 7.5675,0 5.6756,0 -3.7837,0 -7.5674,0 -11.3512,0 -1.8919,0 -4.3379,1.3378 -5.6756,0 -1.3378,-1.3377 0,-3.7837 0,-5.6756 0,-1.8919 0,-3.7837 0,-5.6756 0,-17.0269 0,-34.0537 0,-51.0806 0,-1.3765 0.1825,-16.8443 0,-17.0269 -1.3378,-1.3377 -4.3379,1.3378 -5.6756,0 -0.1826,-0.1825 0,-15.6503 0,-17.0268 0,-30.27 0,-60.54 0,-90.81 0,-1.3765 0.1825,-16.8443 0,-17.0268 -1.3378,-1.3378 -4.3379,1.3377 -5.6757,0 -0.1825,-0.1826 0,-15.6504 0,-17.0269 0,-11.3512 0,-22.7025 0,-34.0537 0,-1.8919 0,-3.7838 0,-5.6757 0,-1.8918 -0.846,-3.9834 0,-5.6756 1.1966,-2.393 4.4791,-3.2825 5.6757,-5.6756 0.846,-1.6921 0,-3.7837 0,-5.6756 0,-1.8919 0,-3.7838 0,-5.6756 0,-15.135 0,-30.27 0,-45.405 0,-1.8919 1.3377,-4.3379 0,-5.6756 -7.5675,-7.5675 -5.6757,9.4593 -5.6757,-5.6757 5.6756,1.8919 11.3513,3.7838 17.0269,5.6757 0,1.8918 -1.3378,4.3378 0,5.6756 1.3378,1.3377 4.3379,-1.3378 5.6756,0 1.3378,1.3377 -1.3377,4.3378 0,5.6756 1.3378,1.3378 3.9835,-0.8461 5.6756,0 2.3931,1.1965 3.2826,4.4791 5.6757,5.6756 1.6921,0.8461 4.3378,-1.3377 5.6756,0 1.3377,1.3378 -1.3378,4.3379 0,5.6757 1.3377,1.3377 3.9835,-0.8461 5.6756,0 2.3931,1.1965 3.2826,4.479 5.6756,5.6756 1.6922,0.846 4.3379,-1.3378 5.6757,0 1.3377,1.3377 -1.3378,4.3378 0,5.6756 2.6755,2.6755 8.6757,-2.6755 11.3512,0 1.3378,1.3378 -1.3378,4.3379 0,5.6756 1.3378,1.3378 5.6756,-1.8919 5.6756,0 0,1.696 -18.8236,-3.7362 0,5.6756 2.2504,1.1252 15.8666,-1.1603 17.0269,0 1.3377,1.3378 -1.3378,4.3379 0,5.6757 0.1825,0.1825 15.6504,0 17.0268,0 1.8919,0 4.3379,1.3377 5.6757,0 1.3377,-1.3378 -1.3378,-4.3379 0,-5.6757 1.3657,-1.3657 21.3367,1.3658 22.7025,0 1.3377,-1.3377 -1.3378,-4.3378 0,-5.6756 2.8378,-2.8378 14.189,2.8378 17.0268,0 1.3378,-1.3377 -1.3377,-4.3378 0,-5.6756 1.3378,-1.3378 3.7838,0 5.6756,0 1.8919,0 3.7838,0 5.6757,0 9.4593,0 18.9187,0 28.3781,0 1.8918,0 3.7837,0 5.6756,0 1.8919,0 3.9835,0.8461 5.6756,0 2.3931,-1.1965 3.2826,-4.4791 5.6756,-5.6756 2.2504,-1.1252 15.8666,1.1603 17.0269,0 1.3378,-1.3378 -1.3378,-4.3379 0,-5.6756 2.6755,-2.6756 8.6757,2.6755 11.3512,0 1.3378,-1.3378 -1.3377,-4.3379 0,-5.6757 1.3378,-1.3377 3.9835,0.8461 5.6757,0 2.393,-1.1965 3.2825,-4.4791 5.6756,-5.6756 1.6921,-0.8461 4.3379,1.3378 5.6756,0 1.3378,-1.3378 -1.3377,-4.3379 0,-5.6756 2.6755,-2.6755 8.6757,2.6755 11.3513,0 1.3377,-1.3378 -1.3378,-4.3379 0,-5.6756 1.3377,-1.3378 4.3378,1.3377 5.6756,0 1.3377,-1.3378 -1.3378,-4.3379 0,-5.6757 1.3377,-1.3377 3.9835,0.8461 5.6756,0 4.7861,-2.393 6.5651,-8.9581 11.3512,-11.3512 1.6922,-0.8461 4.3379,1.3378 5.6757,0 1.3377,-1.3378 -1.3378,-4.3379 0,-5.6756 1.3377,-1.3378 4.3378,1.3377 5.6756,0 1.3377,-1.3378 -1.3378,-4.3379 0,-5.6756 1.3377,-1.3378 4.3378,1.3377 5.6756,0 1.3378,-1.3378 -1.3378,-4.3379 0,-5.6757 2.6755,-2.6755 8.6757,2.6755 11.3512,0 1.3378,-1.3377 -1.3377,-4.3378 0,-5.6756 1.3378,-1.3377 4.3379,1.3378 5.6757,0 1.3377,-1.3377 -1.3378,-4.3379 0,-5.6756 1.3377,-1.3378 4.3378,1.3377 5.6756,0 1.3377,-1.3378 -1.3378,-4.3379 0,-5.6756 2.6755,-2.6755 8.6757,2.6755 11.3512,0 1.3378,-1.3378 -1.3377,-4.3379 0,-5.6757 1.3378,-1.3377 4.3379,1.3378 5.6757,0 1.3377,-1.3377 -1.3378,-4.3378 0,-5.6756 1.3377,-1.3377 3.9834,0.8461 5.6756,0 2.393,-1.1965 3.2825,-4.4791 5.6756,-5.6756 1.6921,-0.8461 4.3379,1.3378 5.6756,0 1.3378,-1.3378 -1.3377,-4.3379 0,-5.6756 2.8378,-2.8378 14.1891,2.8378 17.0269,0 1.3377,-1.3378 -1.3378,-4.3379 0,-5.6756 2.6755,-2.6756 8.6757,2.6755 11.3512,0 1.3378,-1.3378 -1.3377,-4.3379 0,-5.6757 2.6755,-2.6755 7.967,1.6922 11.3513,0 2.393,-1.1965 3.2825,-4.4791 5.6756,-5.6756 1.6921,-0.8461 4.3379,1.3378 5.6756,0 1.3378,-1.3377 -1.3377,-4.3378 0,-5.6756 2.6755,-2.6755 8.6757,2.6755 11.3513,0 1.3377,-1.3378 -1.3378,-4.3379 0,-5.6756 2.6755,-2.6755 8.6757,2.6755 11.3512,0 1.3378,-1.3378 -1.3378,-4.3379 0,-5.6756 2.6755,-2.6756 7.967,1.6921 11.3512,0 2.3931,-1.1966 3.2826,-4.4791 5.6757,-5.6757 3.3843,-1.6921 8.6757,2.6755 11.3512,0 1.3378,-1.3377 -1.3377,-4.3378 0,-5.6756 2.6755,-2.6755 7.967,1.6922 11.3513,0 2.393,-1.1965 3.2825,-4.4791 5.6756,-5.6756 3.3843,-1.6922 8.6757,2.6755 11.3512,0 1.3378,-1.3378 -1.3377,-4.3379 0,-5.6756 2.6755,-2.6755 7.967,1.6921 11.3513,0 2.393,-1.1966 3.2825,-4.4791 5.6756,-5.6757 1.6921,-0.846 3.9835,0.8461 5.6756,0 2.3931,-1.1965 3.2826,-4.47905 5.6756,-5.67558 1.6922,-0.84607 3.9835,0.84607 5.6757,0 2.393,-1.19652 3.2825,-4.47909 5.6756,-5.67562 1.6921,-0.84607 3.7837,0 5.6756,0 1.8919,-1.89187 3.2826,-4.47909 5.6756,-5.67562 1.6922,-0.84607 4.3379,1.33776 5.6756,0 1.3378,-1.33776 -1.3377,-4.33787 0,-5.67562 2.6756,-2.67552 8.6758,2.67551 11.3513,0 1.3377,-1.33776 -1.3378,-4.33787 0,-5.67562 2.6755,-2.67552 7.9669,1.69214 11.3512,0 2.3931,-1.19653 3.2826,-4.4791 5.6756,-5.67563 3.3843,-1.69214 8.6758,2.67552 11.3513,0 1.3377,-1.33775 -1.3378,-4.33786 0,-5.67562 2.6755,-2.67551 8.6757,2.67552 11.3512,0 1.3378,-1.33775 -1.3377,-4.33786 0,-5.67562 2.8378,-2.83781 14.1891,2.83781 17.0269,0 1.3378,-1.33776 -1.3378,-4.33786 0,-5.67562 2.8378,-2.83781 14.1891,2.83781 17.0269,0 1.3377,-1.33776 -1.3378,-4.33787 0,-5.67562 1.3377,-1.33776 3.7837,0 5.6756,0 3.9476,0 26.3256,1.02624 28.3781,0 2.393,-1.19653 3.2826,-4.4791 5.6756,-5.67562 3.9204,-1.96017 26.3859,1.99225 28.3781,0 1.3378,-1.33776 -1.3377,-4.33787 0,-5.67563 2.8378,-2.83781 14.1891,2.83782 17.0269,0 1.3377,-1.33775 -1.3378,-4.33786 0,-5.67562 1.7574,-1.75744 26.6207,1.75744 28.3781,0 1.3378,-1.33775 -1.3378,-4.33786 0,-5.67562 2.6755,-2.67551 8.6757,2.67551 11.3512,0 1.3378,-1.33776 -1.3377,-4.33786 0,-5.67562 2.6756,-2.67551 8.6758,2.67551 11.3513,0 1.3377,-1.33776 -1.3378,-4.33787 0,-5.67562 1.3377,-1.33776 5.6756,-1.89188 5.6756,0 0,1.89187 -3.7837,0 -5.6756,0 -1.8919,0 -3.7838,0 -5.6756,0 -25.3822,5.35933 5.0764,23.90087 0,34.05373 -1.1966,2.39305 -4.4791,3.28257 -5.6757,5.67562 -0.846,1.69214 0.8461,3.98348 0,5.67562 -1.1965,2.39305 -4.4791,3.28257 -5.6756,5.67562 -0.8461,1.69215 1.3378,4.33787 0,5.67562 -1.3377,1.33776 -4.3378,-1.33775 -5.6756,0 -1.3378,1.33776 1.3378,4.33787 0,5.67563 -1.3378,1.33775 -4.3379,-1.33776 -5.6756,0 -1.3378,1.33775 0.846,3.98347 0,5.67562 -1.1966,2.39305 -4.4791,3.28257 -5.6756,5.67562 -0.8461,1.69214 1.3377,4.33786 0,5.67562 -1.3378,1.33776 -4.3379,-1.33776 -5.6757,0 -1.3377,1.33776 1.3378,4.33787 0,5.67562 -1.3377,1.33776 -4.3378,-1.33775 -5.6756,0 -2.6755,2.67548 2.6755,8.67578 0,11.35128 -1.3377,1.3377 -4.3379,-1.3378 -5.6756,0 -1.3378,1.3377 1.3377,4.3378 0,5.6756 -1.3378,1.3377 -4.3379,-1.3378 -5.6756,0 -1.3378,1.3377 0.846,3.9835 0,5.6756 -1.1966,2.3931 -4.4791,3.2826 -5.6757,5.6756 -0.846,1.6922 1.3378,4.3379 0,5.6757 -1.3377,1.3377 -4.3378,-1.3378 -5.6756,0 -1.3377,1.3377 0.8461,3.9834 0,5.6756 -1.1965,2.393 -4.4791,3.2825 -5.6756,5.6756 -0.8461,1.6921 1.3378,4.3379 0,5.6756 -1.3378,1.3378 -4.3379,-1.3377 -5.6756,0 -2.6755,2.6755 2.6755,8.6757 0,11.3513 -1.3378,1.3377 -4.3379,-1.3378 -5.6756,0 -2.6756,2.6755 2.6755,8.6757 0,11.3512 -1.3378,1.3378 -4.3379,-1.3378 -5.6757,0 -2.6755,2.6755 2.6755,8.6757 0,11.3512 -1.3377,1.3378 -4.3378,-1.3377 -5.6756,0 -2.6755,2.6756 2.6755,8.6758 0,11.3513 -1.3377,1.3377 -4.3379,-1.3378 -5.6756,0 -2.6755,2.6755 2.6755,8.6757 0,11.3512 -1.3378,1.3378 -4.3379,-1.3377 -5.6756,0 -2.6755,2.6755 2.6755,8.6758 0,11.3513 -1.3378,1.3377 -4.3379,-1.3378 -5.6757,0 -2.6755,2.6755 1.6922,7.9669 0,11.3512 -2.0076,4.0153 -16.6767,11.3513 0,11.3513 -0.6028,23.7161 17.1868,0.1599 22.7025,5.6756 1.3378,1.3377 -1.3377,4.3378 0,5.6756 2.6755,2.6755 7.967,-1.6921 11.3513,0 2.393,1.1965 3.2825,4.4791 5.6756,5.6756 3.0296,1.5148 8.3217,-1.5147 11.3512,0 2.3931,1.1966 3.2826,4.4791 5.6757,5.6757 3.5672,1.7836 19.1352,-1.7837 22.7025,0 2.393,1.1965 3.2825,4.479 5.6756,5.6756 1.6921,0.846 3.7837,0 5.6756,0 1.8919,0 3.7837,0 5.6756,0 1.8919,0 7.5675,0 5.6756,0 -3.7837,0 -11.3512,-3.7838 -11.3512,0 0,4.2303 7.338,4.3378 11.3512,5.6756 3.1292,1.043 21.4891,-1.2134 22.7025,0 1.3378,1.3378 -1.3377,4.3379 0,5.6756 1.3378,1.3378 4.3379,-1.3377 5.6756,0 1.3378,1.3378 -1.3377,4.3379 0,5.6756 1.3378,1.3378 4.3379,-1.3377 5.6757,0 1.3377,1.3378 -1.3378,4.3379 0,5.6757 1.3377,1.3377 4.3378,-1.3378 5.6756,0 1.3377,1.3377 -1.3378,4.3378 0,5.6756 1.3377,1.3377 4.3379,-1.3378 5.6756,0 1.3378,1.3377 -1.3377,4.3378 0,5.6756 1.3378,1.3378 4.3379,-1.3378 5.6756,0 1.3378,1.3378 -1.3377,4.3379 0,5.6756 1.3378,1.3378 4.3379,-1.3377 5.6757,0 1.3377,1.3378 -1.3378,4.3379 0,5.6756 1.3377,1.3378 4.3378,-1.3377 5.6756,0 1.3377,1.3378 -1.3378,4.3379 0,5.6757 1.3377,1.3377 4.3378,-1.3378 5.6756,0 1.3378,1.3377 -1.3378,4.3378 0,5.6756 2.6755,2.6755 8.6757,-2.6755 11.3512,0 1.3378,1.3377 -1.3377,4.3379 0,5.6756 1.3378,1.3378 4.3379,-1.3377 5.6757,0 1.3377,1.3378 -1.3378,4.3379 0,5.6756 15.135,0 -1.8919,-1.8918 5.6756,5.6757 1.3377,1.3377 4.3378,-1.3378 5.6756,0 1.3378,1.3377 0,3.7837 0,5.6756 0,1.8918 0,3.7837 0,5.6756 0,1.8919 1.8919,5.6756 0,5.6756 -1.8919,0 0,-7.5675 0,-5.6756 0,13.2431 0,26.4862 0,39.7293 0,1.3765 0.1825,16.8444 0,17.0269 -1.3378,1.3378 -4.3379,-1.3377 -5.6756,0 -1.3657,1.3657 1.3657,21.3368 0,22.7025 -1.3378,1.3378 -4.3379,-1.3378 -5.6756,0 -2.8378,2.8378 2.8378,14.1891 0,17.0269 -7.5675,7.5675 -5.6757,-9.4594 -5.6757,5.6756 0,1.3765 -0.1825,16.8443 0,17.0269 1.3378,1.3377 4.3379,-1.3378 5.6757,0 1.3377,1.3377 0,3.7837 0,5.6756 0,1.8918 1.8918,5.6756 0,5.6756 -1.8919,0 0,-7.5675 0,-5.6756 0,25.837 -2.6756,0.3246 5.6756,17.0268 0.8461,1.6922 1.3377,7.0134 0,5.6757 -2.9913,-2.9914 -5.6756,-15.5816 -5.6756,-11.3513 0,5.9826 4.2246,11.2229 5.6756,17.0269 0.4588,1.8354 -1.3378,4.3378 0,5.6756 1.3377,1.3378 4.3378,-1.3378 5.6756,0 2.6755,2.6755 -1.6921,7.967 0,11.3512 1.1965,2.3931 4.4791,3.2826 5.6756,5.6757 1.6922,3.3843 -2.6755,8.6757 0,11.3512 1.3378,1.3378 4.3379,-1.3377 5.6756,0 1.3378,1.3378 0,3.7838 0,5.6756 0,1.8919 0,3.7838 0,5.6757 0,11.3512 0,22.7024 0,34.0537 0,1.8919 1.3378,4.3378 0,5.6756 -1.3377,1.3378 -4.3378,-1.3378 -5.6756,0 -1.3377,1.3378 0,3.7838 0,5.6756 0,1.8919 0,3.7838 0,5.6756 0,22.7025 0,45.405 0,68.1075 0,1.8919 0,3.7838 0,5.6756 0,1.8919 1.3378,4.3379 0,5.6757 -1.3377,1.3377 -4.3378,-1.3378 -5.6756,0 -1.3378,1.3377 0,3.7837 0,5.6756 0,2.676 0.2572,28.1209 0,28.3781 -1.3378,1.3377 -4.3379,-1.3378 -5.6756,0 -0.2284,0.2284 0,20.6182 0,22.7025 0,7.5675 0,15.135 0,22.7025 0,1.8918 1.8919,5.6756 0,5.6756 -1.8919,0 0,-7.5675 0,-5.6756 0,3.7837 -1.6922,7.9669 0,11.3512 0.8461,1.6921 5.6756,-1.8919 5.6756,0 0,1.8919 -7.0134,-1.3378 -5.6756,0 2.9913,2.9913 7.338,4.3379 11.3512,5.6756 1.7948,0.5983 4.3379,-1.3377 5.6756,0 1.3378,1.3378 -0.846,3.9835 0,5.6756 1.1966,2.3931 7.5675,3.7838 5.6757,5.6757 -1.8919,1.8918 -5.6757,-8.3512 -5.6757,-5.6757 0,28.6722 4.3619,4.3619 11.3513,11.3513 1.3377,1.3377 -1.3378,4.3378 0,5.6756 1.3377,1.3378 4.3379,-1.3378 5.6756,0 1.3378,1.3378 -1.3377,4.3379 0,5.6756 1.3378,1.3378 4.3379,-1.3377 5.6756,0 1.3378,1.3378 -1.3377,4.3379 0,5.6756 1.3378,1.3378 4.3379,-1.3377 5.6757,0 1.3377,1.3378 -1.3378,4.3379 0,5.6757 2.6755,2.6755 8.6757,-2.6755 11.3512,0 1.3378,1.3377 -1.3378,4.3378 0,5.6756 2.8378,2.8378 14.1891,-2.8378 17.0269,0 1.3377,1.3377 -1.3378,4.3379 0,5.6756 1.8934,1.8935 9.4577,-1.8935 11.3512,0 1.3378,1.3378 1.8919,5.6756 0,5.6756 -1.8919,0 0,-3.7837 0,-5.6756"
         style="fill:none;fill-rule:evenodd;stroke-width:1px;-linecap:butt;stroke-linejoin:miter;stroke-opacity:1" />
      <path
         id="path3449"
         d="m 3405.373,1718.9865 c 0,7.5675 1.8354,15.3609 0,22.7025 -0.4589,1.8353 -4.3379,-1.3378 -5.6756,0 -1.3378,1.3377 1.3377,4.3378 0,5.6756 -1.3378,1.3377 -4.3379,-1.3378 -5.6757,0 -1.3377,1.3377 1.3378,4.3378 0,5.6756 -1.3377,1.3378 -4.3378,-1.3378 -5.6756,0 -2.6755,2.6755 2.6755,8.6757 0,11.3512 -1.3377,1.3378 -4.3378,-1.3377 -5.6756,0 -1.3378,1.3378 1.3378,4.3379 0,5.6757 -1.3378,1.3377 -4.3379,-1.3378 -5.6756,0 -1.3378,1.3377 1.3377,4.3378 0,5.6756 -1.3378,1.3377 -4.3379,-1.3378 -5.6756,0 -1.8834,1.8833 1.8833,9.4679 0,11.3512 -1.3378,1.3378 -4.3379,-1.3377 -5.6757,0 0,15.135 1.8919,-1.8918 -5.6756,5.6757 -1.3377,1.3377 1.3378,4.3378 0,5.6756 -1.3377,1.3377 -4.3379,-1.3378 -5.6756,0 -1.3378,1.3377 1.3377,4.3378 0,5.6756 -2.6755,2.6755 -8.6757,-2.6755 -11.3513,0 -1.3377,1.3378 1.3378,4.3379 0,5.6756 -2.6755,2.6755 -8.6757,-2.6755 -11.3512,0 -1.3378,1.3378 1.3378,4.3379 0,5.6756 -2.8378,2.8379 -14.189,-2.8378 -17.0269,0 -1.3377,1.3378 1.3378,4.3379 0,5.6757 -1.3377,1.3377 -3.7837,0 -5.6756,0 -1.8919,0 -7.5675,0 -5.6756,0 3.7837,0 11.3512,-3.7838 11.3512,0 0,15.6287 -12.954,1.6028 -17.0268,5.6756 -1.3378,1.3377 1.3377,4.3378 0,5.6756 -1.3378,1.3378 -4.3379,-1.3378 -5.6756,0 -1.3378,1.3378 1.3377,4.3379 0,5.6756 -1.3378,1.3378 -4.3379,-1.3377 -5.6757,0 -1.3377,1.3378 1.3378,4.3379 0,5.6756 -1.3377,1.3378 -4.3378,-1.3377 -5.6756,0 -2.6755,2.6756 2.6755,8.6758 0,11.3513 -1.3377,1.3377 -4.3379,-1.3378 -5.6756,0 -1.8833,1.8833 1.8833,9.4679 0,11.3512 -1.3378,1.3378 -4.3379,-1.3377 -5.6756,0 -2.6755,2.6755 2.6755,8.6758 0,11.3513 -1.3378,1.3377 -4.3379,-1.3378 -5.6757,0 -2.6755,2.6755 3.7838,11.3512 0,11.3512 -1.8918,0 1.8919,-5.6756 0,-5.6756 -11.8102,0 -2.2836,7.9593 -5.6756,11.3512 -1.3377,1.3378 -4.3378,-1.3377 -5.6756,0 -1.3378,1.3378 1.3378,4.3379 0,5.6757 -2.6755,2.6755 -8.6757,-2.6755 -11.3512,0 -1.3378,1.3377 1.3377,4.3378 0,5.6756 -1.3378,1.3377 -3.9835,-0.8461 -5.6757,0 -2.393,1.1965 -3.2825,4.4791 -5.6756,5.6756 -1.6921,0.8461 -4.3378,-1.3377 -5.6756,0 -1.3378,1.3378 1.3378,4.3379 0,5.6756 -1.3378,1.3378 -4.3379,-1.3377 -5.6756,0 -1.3378,1.3378 1.3377,4.3379 0,5.6757 -1.3378,1.3377 -4.3379,-1.3378 -5.6756,0 -1.3378,1.3377 0,3.7837 0,5.6756 0,1.8918 0,3.7837 0,5.6756 0,15.135 0,30.27 0,45.405 0,1.8918 0,3.7837 0,5.6756 0,1.8919 1.3377,4.3379 0,5.6756 -1.3378,1.3378 -4.3379,-1.3377 -5.6757,0 -1.3377,1.3378 1.3378,4.3379 0,5.6756 -1.3377,1.3378 -4.3378,-1.3377 -5.6756,0 -2.6755,2.6755 2.6755,8.6758 0,11.3513 -1.3377,1.3377 -4.3379,-1.3378 -5.6756,0 -1.3378,1.3377 1.3377,4.3378 0,5.6756 -1.3378,1.3378 -4.3379,-1.3378 -5.6756,0 -2.6755,2.6755 2.6755,8.6757 0,11.3512 -1.3378,1.3378 -4.3379,-1.3377 -5.6757,0 -1.3377,1.3378 0,3.7838 0,5.6757 0,2.676 -0.2572,28.1208 0,28.3781 1.3378,1.3377 4.3379,-1.3378 5.6757,0 2.6755,2.6755 -1.6922,7.9669 0,11.3512 1.1965,2.3931 4.4791,3.2826 5.6756,5.6756 1.1252,2.2504 -1.1603,15.8666 0,17.0269 1.3377,1.3378 4.3379,-1.3378 5.6756,0 2.6755,2.6755 -2.6755,8.6757 0,11.3512 1.3378,1.3378 4.3379,-1.3377 5.6756,0 2.6755,2.6756 -2.6755,8.6758 0,11.3513 1.3378,1.3377 4.3379,-1.3378 5.6757,0 2.6755,2.6755 -2.6756,8.6757 0,11.3512 13.3103,13.3104 0,-17.4859 0,-5.6756 0,13.0434 4.3618,11.3513 11.3512,11.3513 6.471,0 14.758,0 11.3512,0 -3.7837,0 -11.3512,-3.7838 -11.3512,0 0,15.6287 12.9541,1.6028 17.0269,5.6756 2.6755,2.6755 -1.6922,7.9669 0,11.3512 1.1965,2.3931 4.4791,3.2826 5.6756,5.6756 0.8636,1.7273 0,14.4708 0,17.0269 0,5.6756 0,11.3512 0,17.0269 0,1.8918 0,7.5675 0,5.6756 0,-3.7838 0,-15.135 0,-11.3513 0,5.6757 -1.7948,11.6425 0,17.0269 0.5982,1.7948 4.3378,-1.3377 5.6756,0 1.3378,1.3378 -1.3378,4.3379 0,5.6756 1.3378,1.3378 4.3379,-1.3377 5.6756,0 1.3378,1.3378 0,3.7838 0,5.6757 0,2.0843 0.2284,22.474 0,22.7024 -1.3377,1.3378 -4.3378,-1.3377 -5.6756,0 -2.6755,2.6756 2.6755,8.6758 0,11.3513 -1.3378,1.3377 -4.3379,-1.3378 -5.6756,0 -1.3378,1.3377 1.3377,4.3378 0,5.6756 -1.3378,1.3378 -4.3379,-1.3378 -5.6756,0 -1.8935,1.8935 1.8934,9.4578 0,11.3512 -1.3378,1.3378 -5.6757,1.8919 -5.6757,0 0,-2.6755 5.6757,-8.3511 5.6757,-5.6756 0,4.2304 -2.6843,8.36 -5.6757,11.3513 -1.3377,1.3377 -4.3378,-1.3378 -5.6756,0 -2.6755,2.6755 2.6755,8.6757 0,11.3512 -1.3377,1.3378 -5.6756,1.8919 -5.6756,0 0,-2.6755 5.6756,-8.3511 5.6756,-5.6756 0,4.2304 -4.3378,7.338 -5.6756,11.3512 -0.5983,1.7948 1.3378,4.3379 0,5.6757 -1.3378,1.3377 -4.3379,-1.3378 -5.6756,0 -2.6755,2.6755 2.6755,8.6757 0,11.3512 -1.3378,1.3378 -4.3379,-1.3378 -5.6756,0 -0.8005,0.8004 -0.5822,15.8626 0,17.0269 11.8102,23.6205 -0.3919,-6.0675 11.3512,5.6756 0,15.135 -1.8919,-1.8919 5.6756,5.6756 1.3378,1.3378 -1.3377,4.3379 0,5.6756 2.6755,2.6755 7.967,-1.6921 11.3513,0 2.393,1.1966 3.2825,4.4791 5.6756,5.6757 1.6921,0.846 4.3378,-1.3378 5.6756,0 1.3378,1.3377 -1.3378,4.3378 0,5.6756 1.3378,1.3377 3.7838,0 5.6756,0 2.6761,0 28.1209,0.2572 28.3781,0 1.3378,-1.3378 -1.3377,-4.3379 0,-5.6756 2.8378,-2.8379 14.1891,2.8378 17.0269,0 1.3378,-1.3378 -1.3378,-4.3379 0,-5.6757 1.8935,-1.8934 9.4578,1.8935 11.3512,0 1.3378,-1.3377 -1.3377,-4.3378 0,-5.6756 1.3378,-1.3377 4.3379,1.3378 5.6757,0 1.3377,-1.3377 -1.3378,-4.3379 0,-5.6756 2.6755,-2.6755 8.6757,2.6755 11.3512,0 1.3378,-1.3378 -1.3378,-4.3379 0,-5.6756 1.3378,-1.3378 4.3379,1.3377 5.6756,0 1.3378,-1.3378 -1.3377,-4.3379 0,-5.6757 2.6755,-2.6755 8.6758,2.6756 11.3513,0 1.3377,-1.3377 -1.3378,-4.3378 0,-5.6756 2.6755,-2.6755 8.6757,2.6755 11.3512,0 1.3378,-1.3377 -1.3377,-4.3378 0,-5.6756 1.8833,-1.8833 9.4679,1.8833 11.3513,0 1.3377,-1.3378 -1.3378,-4.3379 0,-5.6756 1.3377,-1.3378 3.7837,0 5.6756,0 1.8919,0 5.6756,-1.8919 5.6756,0 0,1.8919 -7.5675,0 -5.6756,0 7.5675,0 15.135,0 22.7025,0 2.0843,0 22.4741,-0.2284 22.7025,0 1.3377,1.3377 -1.3378,4.3378 0,5.6756 1.3377,1.3378 3.7837,0 5.6756,0 2.676,0 28.1209,0.2572 28.3781,0 1.3377,-1.3378 -1.3378,-4.3379 0,-5.6756 2.6755,-2.6755 8.6757,2.6755 11.3512,0 1.3378,-1.3378 -1.3377,-4.3379 0,-5.6756 1.3378,-1.3378 3.9835,0.846 5.6756,0 2.3931,-1.1966 3.2826,-4.4791 5.6757,-5.6757 1.6921,-0.846 4.3378,1.3378 5.6756,0 1.3377,-1.3377 -1.3378,-4.3378 0,-5.6756 2.6755,-2.6755 8.6757,2.6755 11.3512,0 1.3378,-1.3377 -1.3377,-4.3379 0,-5.6756 1.3378,-1.3378 3.7838,0 5.6757,0 1.8918,0 3.7837,0 5.6756,0 1.8919,0 7.5675,0 5.6756,0 -3.7837,0 -14.0268,2.6755 -11.3512,0 4.2303,-4.2304 11.2228,-4.2246 17.0268,-5.6756 3.6708,-0.9177 15.135,0 11.3513,0 -3.7838,0 -15.135,0 -11.3513,0 5.6756,0 11.3513,0 17.0269,0 1.8919,0 5.6756,-1.8919 5.6756,0 0,8.0404 -26.4862,-16.081 5.6756,0 1.6922,0.846 -1.3377,4.3378 0,5.6756 2.6755,2.6755 8.6758,-2.6755 11.3513,0 1.3377,1.3377 -1.3378,4.3379 0,5.6756 1.3377,1.3378 3.9835,-0.8461 5.6756,0 2.393,1.1965 3.2826,4.4791 5.6756,5.6756 1.6922,0.8461 4.3379,-1.3377 5.6756,0 1.3378,1.3378 -1.3377,4.3379 0,5.6757 1.3378,1.3377 4.3379,-1.3378 5.6757,0 1.3377,1.3377 -1.3378,4.3378 0,5.6756 1.3377,1.3377 3.9834,-0.8461 5.6756,0 4.7861,2.393 6.5651,8.9582 11.3512,11.3512 1.6922,0.8461 4.3379,-1.3377 5.6756,0 1.3378,1.3378 -1.3377,4.3379 0,5.6756 1.3378,1.3378 4.3379,-1.3377 5.6757,0 1.3377,1.3378 -1.3378,4.3379 0,5.6757 1.3377,1.3377 3.9834,-0.8461 5.6756,0 2.393,1.1965 3.2826,4.4791 5.6756,5.6756 1.6922,0.8461 3.9835,-0.8461 5.6756,0 2.3931,1.1965 3.2826,4.4791 5.6757,5.6756 1.6921,0.8461 3.9834,-0.8461 5.6756,0 14.0267,7.0134 -1.9591,5.6756 11.3512,5.6756 5.6756,0 11.3513,0 17.0269,0 1.8919,0 7.5675,0 5.6756,0 -3.7837,0 -11.3512,-3.7837 -11.3512,0 0,10.6496 25.7612,3.0588 28.3781,5.6757 7.5675,7.5674 -9.4594,5.6756 5.6756,5.6756"
         style="fill:none;fill-rule:evenodd;stroke-width:1px;stroke-linecap:butt;stroke-linejoin:miter;stroke-opacity:1" />
      <path
         id="path3451"
         d="m 3694.8297,2348.9805 c 12.457,57.1639 -20.5777,9.2264 -28.3781,17.0268 -1.3378,1.3378 1.3377,4.3379 0,5.6757 -1.3378,1.3377 -4.3379,-1.3378 -5.6756,0 -1.3378,1.3377 1.3377,4.3378 0,5.6756 -2.6756,2.6755 -8.6758,-2.6755 -11.3513,0 -1.3377,1.3377 1.3378,4.3378 0,5.6756 -1.3377,1.3378 -3.9835,-0.8461 -5.6756,0 -18.8237,18.8237 5.351,-2.6755 -11.3512,5.6756 -2.3931,1.1966 -3.2826,4.4791 -5.6757,5.6756 -3.3843,1.6922 -8.6757,-2.6755 -11.3512,0 -1.3378,1.3378 -1.3378,4.3379 0,5.6757 1.3377,1.3377 4.3379,-1.3378 5.6756,0 1.3378,1.3377 -1.3377,4.3378 0,5.6756 1.3378,1.3377 3.9835,-0.8461 5.6756,0 2.3931,1.1965 3.2826,4.4791 5.6757,5.6756 3.3842,1.6922 8.6757,-2.6755 11.3512,0 1.3378,1.3378 -1.3378,4.3379 0,5.6756 1.3378,1.3378 4.3379,-1.3377 5.6756,0 1.3378,1.3378 -1.3377,4.3379 0,5.6757 1.3378,1.3377 4.3379,-1.3378 5.6756,0 1.3378,1.3377 1.3378,4.3378 0,5.6756 -1.3377,1.3377 -3.7837,0 -5.6756,0 -1.8919,0 -3.7837,0 -5.6756,0 -1.3765,0 -16.8443,-0.1826 -17.0269,0 -1.3377,1.3377 1.3378,4.3378 0,5.6756 -2.6755,2.6755 -8.6757,-2.6755 -11.3512,0 0,15.135 1.8919,-1.8919 -5.6756,5.6756 -2.6755,2.6755 2.6755,8.6757 0,11.3513 -1.3378,1.3377 -4.3379,-1.3378 -5.6757,0 -2.6755,2.6755 2.6756,8.6757 0,11.3512 -1.3377,1.3378 -4.3378,-1.3377 -5.6756,0 -1.3377,1.3378 1.3378,4.3379 0,5.6756 -1.3377,1.3378 -4.3378,-1.3377 -5.6756,0 -1.3378,1.3378 1.3378,4.3379 0,5.6757 -1.3378,1.3377 -5.6756,1.8918 -5.6756,0 0,-1.8919 5.6756,-1.8919 5.6756,0 0,2.6755 -3.2826,4.479 -5.6756,5.6756 -1.6922,0.846 -3.7838,0 -5.6756,0 -1.8919,0 -5.6757,1.8918 -5.6757,0 0,-1.8919 7.5675,0 5.6757,0 -5.6757,0 -11.3513,0 -17.0269,0 -3.7906,0 -7.5606,0 -11.3512,0 -1.8919,0 -7.5675,0 -5.6757,0 3.7838,0 15.135,0 11.3513,0 -5.6756,0 -11.3513,0 -17.0269,0 -1.8919,0 -5.6756,1.8918 -5.6756,0 0,-1.8919 7.5675,0 5.6756,0 -3.7837,0 -7.5675,0 -11.3512,0 -1.8919,0 -4.3379,1.3377 -5.6757,0 -2.6755,-2.6755 2.6756,-8.6758 0,-11.3513 -1.3377,-1.3377 -4.3378,1.3378 -5.6756,0 -1.3377,-1.3377 -1.8919,-5.6756 0,-5.6756 1.8919,0 1.8919,5.6756 0,5.6756 -2.6755,0 -3.2825,-4.4791 -5.6756,-5.6756 -1.6921,-0.8461 -3.7837,0 -5.6756,0 -1.8919,0 -7.5675,0 -5.6756,0 3.7837,0 11.3512,3.7838 11.3512,0 0,-5.8372 -26.9325,-7.1213 -28.3781,-5.6756 -1.3378,1.3377 1.3377,4.3379 0,5.6756 -1.3378,1.3378 -4.3379,-1.3377 -5.6756,0 -2.8378,2.8378 2.8378,14.1891 0,17.0269 -1.3378,1.3377 -4.3379,-1.3378 -5.6757,0 -2.6755,2.6755 2.6756,8.6757 0,11.3512 -1.3377,1.3378 -4.3378,-1.3377 -5.6756,0 -1.8833,1.8833 1.8834,9.4679 0,11.3513 -1.3377,1.3377 -4.3378,-1.3378 -5.6756,0 -1.3378,1.3377 1.3378,4.3378 0,5.6756 -1.3378,1.3377 -4.3379,1.3377 -5.6756,0 -2.6755,-2.6755 2.6755,-8.6757 0,-11.3513 -1.3378,-1.3377 -3.7838,0 -5.6756,0 0,-1.8918 1.3377,-4.3378 0,-5.6756 -1.3378,-1.3377 -4.3379,1.3378 -5.6757,0 -2.6755,-2.6755 2.6756,-8.6757 0,-11.3512 -15.135,0 1.8919,1.8918 -5.6756,-5.6756 -2.6755,-2.6756 -8.6757,2.6755 -11.3512,0 -1.3378,-1.3378 1.3377,-4.3379 0,-5.6757 -1.3378,-1.3377 -3.9835,0.8461 -5.6756,0 -2.3931,-1.1965 -3.2826,-4.4791 -5.6757,-5.6756 -1.6921,-0.8461 -4.3378,1.3378 -5.6756,0 -1.3377,-1.3377 1.3378,-4.3379 0,-5.6756 -2.6755,-2.6755 -8.6757,2.6755 -11.3512,0 -1.3378,-1.3378 1.3377,-4.3379 0,-5.6756 -0.1826,-0.1826 -15.6504,0 -17.0269,0 -1.8919,0 -4.3379,-1.3378 -5.6756,0 -1.3378,1.3377 1.3377,4.3378 0,5.6756 -1.3378,1.3377 -4.3379,-1.3378 -5.6756,0 -1.3378,1.3377 0,3.7837 0,5.6756 0,11.3513 0,22.7025 0,34.0537 0,1.8919 0,3.7838 0,5.6757 0,1.8918 1.8918,5.6756 0,5.6756 -1.8919,0 1.8918,-5.6756 0,-5.6756 -2.6756,0 -4.4791,3.2825 -5.6757,5.6756 -0.846,1.6921 0.8461,3.9835 0,5.6756 -1.1965,2.3931 -3.7837,7.5675 -5.6756,5.6756 -1.8919,-1.8919 5.6756,-8.3511 5.6756,-5.6756 0,28.6721 -4.3618,4.3619 -11.3512,11.3512 -1.3378,1.3378 1.3377,4.3379 0,5.6757 -1.3378,1.3377 -4.3379,-1.3378 -5.6756,0 -1.3378,1.3377 0,3.7837 0,5.6756 0,1.8919 0,3.7837 0,5.6756 0,1.8919 0,7.5675 0,5.6756 0,-3.7837 1.6921,-14.7355 0,-11.3512 -6.1345,12.2689 -5.6757,17.8777 -5.6757,28.3781 0,11.3512 0,22.7025 0,34.0537 0,1.8919 1.3378,4.3379 0,5.6756 -1.3377,1.3378 -4.3378,-1.3377 -5.6756,0 -1.8833,1.8834 1.8834,9.468 0,11.3513 -1.3377,1.3377 -4.3378,-1.3378 -5.6756,0 -1.3378,1.3377 -1.8919,5.6756 0,5.6756 2.6755,0 5.6756,-8.3511 5.6756,-5.6756 0,28.6721 -4.3618,4.3618 -11.3512,11.3512 -2.6755,2.6755 2.6755,8.6758 0,11.3513 -1.3378,1.3377 -4.3379,-1.3378 -5.6756,0 -1.3378,1.3377 1.8918,5.6756 0,5.6756 -1.8919,0 1.8918,-5.6756 0,-5.6756 -2.6756,0 -3.0001,5.6756 -5.6757,5.6756 -4.5297,0 -11.8336,-17.5092 -5.6756,-11.3512 2.9913,2.9913 9.906,11.3512 5.6756,11.3512 -5.351,0 -6.8989,-8.383 -11.3512,-11.3512 -1.5741,-1.0495 -4.3379,1.3377 -5.6756,0 -1.3378,-1.3378 1.3377,-4.3379 0,-5.6757 -1.3378,-1.3377 -3.7838,0 -5.6756,0 -1.8919,0 -3.7838,0 -5.6757,0 -2.0843,0 -22.4741,-0.2284 -22.7025,0 -1.3377,1.3378 1.3378,4.3379 0,5.6757 -1.3377,1.3377 -3.7837,0 -5.6756,0 -1.8918,0 -3.7837,0 -5.6756,0 -1.8919,0 -7.5675,0 -5.6756,0 3.7837,0 15.135,0 11.3512,0 -5.6756,0 -11.6425,-1.7948 -17.0268,0 -1.7948,0.5982 1.8918,5.6756 0,5.6756 -1.8919,0 1.8918,-5.6756 0,-5.6756 -1.8301,0 -8.1977,9.7744 -11.3513,11.3512 -1.6921,0.8461 -4.3378,-1.3378 -5.6756,0 -1.3378,1.3378 1.3378,4.3379 0,5.6756 -1.3378,1.3378 -4.3379,-1.3377 -5.6756,0 -1.3378,1.3378 1.3377,4.3379 0,5.6756 -1.3378,1.3378 -4.3379,-1.3377 -5.6756,0 -1.3378,1.3378 0.846,3.9835 0,5.6757 -1.1966,2.393 -4.4791,3.2825 -5.6757,5.6756 -0.846,1.6921 1.3378,4.3379 0,5.6756 -1.3377,1.3378 -4.3378,-1.3377 -5.6756,0 -1.3377,1.3378 1.3378,4.3379 0,5.6756 -2.6755,2.6755 -8.6757,-2.6755 -11.3512,0 -1.3378,1.3378 1.3377,4.3379 0,5.6757 -1.3378,1.3377 -3.7838,0 -5.6757,0 -1.8918,0 -5.6756,1.8918 -5.6756,0 0,-1.8919 7.5675,0 5.6756,0 -3.7837,0 -7.5675,0 -11.3512,0 -1.8919,0 -3.9835,0.846 -5.6756,0 -2.3931,-1.1966 -3.2826,-4.4791 -5.6756,-5.6757 -1.6922,-0.846 -3.7838,0 -5.6757,0 -1.8918,0 -3.7837,0 -5.6756,0 -1.8919,0 -7.5675,0 -5.6756,0 3.7837,0 11.3512,3.7838 11.3512,0 0,-11.6979 -19.5694,-2.5425 -22.7025,-5.6756 -1.3377,-1.3377 1.8919,-5.6756 0,-5.6756 -11.1762,0 -2.5544,19.5813 -5.6756,22.7025 -1.3377,1.3377 -4.3378,-1.3378 -5.6756,0 -2.6755,2.6755 2.6755,8.6757 0,11.3512 -1.3378,1.3378 -4.3379,-1.3377 -5.6756,0 -2.6755,2.6755 2.6755,8.6757 0,11.3513 -1.3378,1.3377 -4.3379,-1.3378 -5.6756,0 -1.3378,1.3377 0.846,3.9834 0,5.6756 -1.1966,2.393 -4.4791,3.2826 -5.6757,5.6756 -0.846,1.6921 1.3378,4.3379 0,5.6756 -15.135,0 1.8919,-1.8918 -5.6756,5.6756 -1.3377,1.3378 -4.3378,-1.3377 -5.6756,0 -1.3378,1.3378 1.3378,4.3379 0,5.6757 -1.8953,1.8953 -9.4559,-1.8954 -11.3512,0 -1.3378,1.3377 1.3377,4.3378 0,5.6756 -1.3378,1.3377 -3.9835,-0.8461 -5.6757,0 -2.393,1.1965 -3.2825,4.4791 -5.6756,5.6756 -1.6921,0.8461 -4.3379,-1.3377 -5.6756,0 -1.3378,1.3378 1.3377,4.3379 0,5.6756 -1.8935,1.8935 -9.4578,-1.8934 -11.3513,0 -1.3377,1.3378 1.3378,4.3379 0,5.6757 -1.3657,1.3657 -21.3367,-1.3658 -22.7024,0 -1.3378,1.3377 1.3377,4.3378 0,5.6756 -0.2573,0.2572 -25.7021,0 -28.3781,0 -2.0843,0 -22.4741,0.2284 -22.7025,0 -1.3378,-1.3378 1.3377,-4.3379 0,-5.6756 -1.8935,-1.8935 -9.4578,1.8934 -11.3513,0 -1.3377,-1.3378 1.3378,-4.3379 0,-5.6757 -1.3377,-1.3377 -3.7837,0 -5.6756,0 -11.3512,0 -22.7025,0 -34.0537,0 -1.8919,0 -3.7838,0 -5.6757,0 -1.8918,0 -3.9834,-0.846 -5.6756,0 -2.393,1.1966 -3.2825,4.4791 -5.6756,5.6757 -2.0525,1.0262 -24.4305,0 -28.3781,0 -1.8919,0 -4.3379,-1.3378 -5.6756,0 -1.3378,1.3377 1.3377,4.3378 0,5.6756 -1.3378,1.3377 -3.9835,-0.8461 -5.6756,0 -2.3931,1.1965 -3.2826,4.4791 -5.6757,5.6756 -3.3843,1.6921 -8.6757,-2.6755 -11.3512,0 -1.3378,1.3378 1.3377,4.3379 0,5.6756 -2.6755,2.6755 -8.6757,-2.6755 -11.3513,0 -1.3377,1.3378 1.3378,4.3379 0,5.6756 -1.8814,1.8815 -9.4697,-1.8814 -11.3512,0 -1.3378,1.3378 1.3378,4.3379 0,5.6757 -1.3378,1.3377 -3.9835,-0.8461 -5.6756,0 -2.3931,1.1965 -3.2826,4.4791 -5.6756,5.6756 -1.6922,0.8461 -4.3379,-1.3378 -5.6757,0 -1.3377,1.3377 1.3378,4.3378 0,5.6756 -2.6755,2.6755 -8.6757,-2.6755 -11.3512,0 -1.3378,1.3378 1.3377,4.3379 0,5.6756 -2.6755,2.6755 -7.967,-1.6921 -11.3513,0 -2.393,1.1966 -8.3511,5.6756 -5.6756,5.6756 4.2304,0 15.5816,-5.6756 11.3513,-5.6756 -49.4144,0 -7.3526,1.677 -17.0269,11.3513 -1.3378,1.3377 -4.3379,-1.3378 -5.6756,0 -4.4368,4.4368 4.9368,9.8736 5.6756,11.3512 0,15.135 -1.8919,-1.8919 5.6756,5.6756 2.8378,2.8378 -2.8378,14.1891 0,17.0269 1.3378,1.3378 4.3379,-1.3378 5.6756,0 1.3378,1.3378 0,3.7837 0,5.6756 0,1.8919 0,3.7838 0,5.6756 0,1.8919 0,3.7838 0,5.6757 0,1.8918 1.3378,4.3378 0,5.6756 -1.3377,1.3377 -5.6756,1.8919 -5.6756,0 0,-4.3463 20.5758,-14.9002 0,5.6756 -1.3377,1.3378 -3.7837,0 -5.6756,0 -1.8919,0 -3.7837,0 -5.6756,0 -1.8919,0 -7.5675,0 -5.6756,0 3.7837,0 15.135,0 11.3512,0 -13.2431,0 -26.4862,0 -39.7293,0 -2.5561,0 -15.2996,0.8637 -17.0269,0 -2.3931,-1.1965 -3.2826,-4.4791 -5.6756,-5.6756 -3.079,-1.5395 -21.1495,1.553 -22.7025,0 -1.3378,-1.3378 1.3377,-4.3379 0,-5.6756 -2.6755,-2.6755 -8.6757,2.6755 -11.3513,0 -1.3377,-1.3378 1.3378,-4.3379 0,-5.6757 -2.6755,-2.6755 -8.6757,2.6756 -11.3512,0 -1.3378,-1.3377 1.3378,-4.3378 0,-5.6756 -1.3378,-1.3377 -4.3379,1.3378 -5.6756,0 -1.3378,-1.3377 1.3377,-4.3378 0,-5.6756 -2.6755,-2.6755 -11.3513,3.7837 -11.3513,0 0,-1.8919 3.7838,0 5.6757,0 -5.6756,1.8919 -11.2229,4.2246 -17.0269,5.6756 -1.8354,0.4589 -3.7838,0 -5.6756,0 -1.8919,0 -4.3379,1.3378 -5.6757,0 -1.3377,-1.3377 1.3378,-4.3378 0,-5.6756 -1.3377,-1.3378 -4.3378,1.3378 -5.6756,0 -2.8378,-2.8378 2.8378,-14.1891 0,-17.0269 -1.3377,-1.3377 -4.3378,1.3378 -5.6756,0 -2.6755,-2.6755 2.6755,-8.6757 0,-11.3512 -1.3378,-1.3378 -4.3379,1.3377 -5.6756,0 -1.3378,-1.3378 1.3377,-4.3379 0,-5.6756 -1.3378,-1.3378 -4.3379,1.3377 -5.6756,0 -2.6756,-2.6755 2.6755,-8.6758 0,-11.3513 -1.3378,-1.3377 -4.3379,1.3378 -5.6757,0 -1.3377,-1.3377 0.8461,-3.9835 0,-5.6756 -1.1965,-2.393 -4.4791,-3.2826 -5.6756,-5.6756 -0.8461,-1.6922 1.3378,-4.3379 0,-5.6756 -1.3377,-1.3378 -4.3379,1.3377 -5.6756,0 -1.3378,-1.3378 0.8461,-3.9835 0,-5.6757 -1.1965,-2.393 -4.4791,-3.2825 -5.6756,-5.6756 -0.8461,-1.6921 1.3377,-4.3378 0,-5.6756 -1.3378,-1.3378 -4.3379,1.3378 -5.6757,0 -1.3377,-1.3378 -1.8918,-5.6756 0,-5.6756 1.8919,0 1.8919,5.6756 0,5.6756 -11.8102,0 -2.2836,-7.9593 -5.6756,-11.3512 -1.3377,-1.3378 -3.7837,0 -5.6756,0 -1.8919,0 -7.5675,0 -5.6756,0 3.7837,0 15.135,0 11.3512,0 -20.8106,0 -41.6212,0 -62.4318,0 -1.8919,0 -3.7838,0 -5.6756,0 -1.8919,0 -4.3379,1.3377 -5.6757,0 -1.3377,-1.3378 1.3378,-4.3379 0,-5.6757 -1.3377,-1.3377 -3.7837,0 -5.6756,0 -15.135,0 -30.27,0 -45.4049,0 -2.6761,0 -28.1209,0.2573 -28.3782,0 -1.3377,-1.3377 1.3378,-4.3378 0,-5.6756 -1.3657,-1.3657 -21.3367,1.3657 -22.7024,0 -1.3378,-1.3377 1.3377,-4.3379 0,-5.6756 -0.1826,-0.1825 -15.6504,0 -17.0269,0 -1.8919,0 -7.5675,0 -5.6756,0 3.7837,0 15.135,0 11.3512,0 -5.6756,0 -11.6425,1.7948 -17.0269,0 -1.7947,-0.5983 1.3378,-4.3379 0,-5.6756 -1.3377,-1.3378 -5.6756,1.8918 -5.6756,0 0,-1.8919 5.6756,1.8918 5.6756,0 0,-11.8103 -7.9593,-2.2837 -11.3512,-5.6757 -2.6755,-2.6755 2.6755,-8.6757 0,-11.3512 -1.3378,-1.3378 -4.3379,1.3378 -5.6756,0 -2.6755,-2.6755 2.6755,-8.6757 0,-11.3512 -1.3378,-1.3378 -3.9835,0.846 -5.6756,0 -2.3931,-1.1966 -7.5675,-3.7838 -5.6757,-5.6757 1.8919,-1.8918 8.3512,5.6757 5.6757,5.6757 -4.2304,0 -7.338,-4.3379 -11.3513,-5.6757 -1.7948,-0.5982 -4.3378,1.3378 -5.6756,0 -1.3378,-1.3377 1.3378,-4.3378 0,-5.6756 -1.3378,-1.3377 -5.6756,1.8919 -5.6756,0 0,-1.8919 7.5675,0 5.6756,0 -7.5675,0 -15.135,0 -22.7025,0 -1.8919,0 -5.6756,1.8919 -5.6756,0 0,-1.8919 7.5675,0 5.6756,0 -3.7837,0 -7.5675,0 -11.3512,0 -1.8919,0 -4.3379,-1.3377 -5.6757,0 -1.3377,1.3378 1.3378,4.3379 0,5.6756 -1.3377,1.3378 -4.3378,-1.3377 -5.6756,0 -1.3377,1.3378 1.3378,4.3379 0,5.6757 -1.3377,1.3377 -4.3378,-1.3378 -5.6756,0 -1.3378,1.3377 0.8461,3.9834 0,5.6756 -1.1965,2.393 -3.7837,3.7837 -5.6756,5.6756 -1.8919,1.8919 -3.2826,4.4791 -5.6756,5.6756 -1.6922,0.8461 -4.3379,-1.3377 -5.6757,0 -1.3377,1.3378 1.3378,4.3379 0,5.6756 -1.3377,1.3378 -4.3378,-1.3377 -5.6756,0 -1.3377,1.3378 1.3378,4.3379 0,5.6757 -1.3377,1.3377 -4.3378,-1.3378 -5.6756,0 -1.3378,1.3377 1.3378,4.3378 0,5.6756 -1.3378,1.3377 -4.3379,-1.3378 -5.6756,0 -2.6755,2.6755 2.6755,8.6757 0,11.3512 -1.3378,1.3378 -4.3379,-1.3377 -5.6756,0 -2.6756,2.6755 2.6755,8.6758 0,11.3513 -1.3378,1.3377 -4.3379,-1.3378 -5.6757,0 -1.3377,1.3377 1.3378,4.3378 0,5.6756 -1.3377,1.3378 -4.3378,-1.3378 -5.6756,0 -2.6755,2.6755 2.6755,8.6757 0,11.3512 -1.3378,1.3378 -4.3379,-1.3377 -5.6756,0 -1.3378,1.3378 1.3377,4.3379 0,5.6757 -1.3378,1.3377 -4.3379,-1.3378 -5.6756,0 -1.7575,1.7574 1.7574,26.6206 0,28.3781 -1.3378,1.3377 -4.3379,-1.3378 -5.6757,0 -1.3377,1.3377 0,3.7837 0,5.6756 0,1.8919 0,3.7837 0,5.6756 0,13.2431 0,26.4862 0,39.7294 0,1.8918 -1.3377,4.3378 0,5.6756 1.3378,1.3377 4.3379,-1.3378 5.6757,0 1.3377,1.3377 -0.8461,3.9835 0,5.6756 1.1965,2.3931 3.7837,3.7838 5.6756,5.6756 1.8919,1.8919 3.2826,4.4791 5.6756,5.6757 1.6922,0.846 4.3379,-1.3378 5.6756,0 1.3378,1.3377 0,3.7837 0,5.6756 0,1.8918 0,3.7837 0,5.6756 0,2.0843 0.2284,22.4741 0,22.7025 -1.3377,1.3377 -4.3378,-1.3378 -5.6756,0 0,15.135 1.8919,-1.8919 -5.6756,5.6756 -1.3378,1.3378 0.8461,3.9835 0,5.6756 -1.1965,2.3931 -4.4791,3.2826 -5.6756,5.6756 -0.8461,1.6922 1.3377,4.3379 0,5.6757 -1.3378,1.3377 -4.3379,-1.3378 -5.6757,0 -1.3377,1.3377 1.3378,4.3378 0,5.6756 -1.3377,1.3377 -4.3378,-1.3378 -5.6756,0 -1.3377,1.3377 1.3378,4.3379 0,5.6756 -1.3377,1.3378 -4.3378,-1.3377 -5.6756,0 -1.3378,1.3378 1.3378,4.3379 0,5.6756 -1.3378,1.3378 -4.3379,-1.3377 -5.6756,0 -1.3378,1.3378 1.3377,4.3379 0,5.6757 -1.3378,1.3377 -4.3379,-1.3378 -5.6756,0 -1.3378,1.3377 0.846,3.9834 0,5.6756 -1.1966,2.393 -4.4791,3.2825 -5.6757,5.6756 -0.846,1.6921 1.3378,4.3379 0,5.6756 -1.3377,1.3378 -3.9834,-0.8461 -5.6756,0 -2.393,1.1965 -3.2826,4.4791 -5.6756,5.6756 -1.6922,0.8461 -4.3379,-1.3377 -5.6756,0 -1.3378,1.3378 1.3377,4.3379 0,5.6757 -1.3378,1.3377 -4.3379,-1.3378 -5.6757,0 -2.6755,2.6755 2.6756,8.6757 0,11.3512 -1.3377,1.3378 -4.3378,-1.3378 -5.6756,0 -7.5675,7.5675 9.4594,5.6756 -5.6756,5.6756"
         style="fill:none;fill-rule:evenodd;stroke-width:1px;stroke-linecap:butt;stroke-linejoin:miter;stroke-opacity:1" />
      <path
         id="path3453"
         d="m 2151.0606,3018.7038 c 0,5.6756 -1.3765,11.5207 0,17.0269 2.6891,10.7564 6.0578,3.0289 11.3512,5.6756 2.3931,1.1965 3.2826,4.4791 5.6757,5.6756 3.3843,1.6922 8.6757,-2.6755 11.3512,0 1.3378,1.3378 -1.3377,4.3379 0,5.6757 1.3378,1.3377 4.3379,-1.3378 5.6756,0 2.6755,2.6755 -2.6755,8.6757 0,11.3512 1.3378,1.3378 4.3379,-1.3378 5.6757,0 2.8378,2.8378 -2.8379,14.1891 0,17.0269 1.3377,1.3377 4.3378,-1.3378 5.6756,0 1.8953,1.8953 -1.8953,9.4559 0,11.3512 1.3377,1.3378 4.3378,-1.3377 5.6756,0 1.7574,1.7574 -1.7574,26.6207 0,28.3781 1.3378,1.3378 4.3379,-1.3377 5.6756,0 0.2572,0.2572 0,25.7021 0,28.3781 0,32.1619 0,-37.8375 0,-5.6756 0,15.135 0,30.27 0,45.405 0,2.0843 -0.2284,22.4741 0,22.7025 1.3378,1.3377 4.3379,-1.3378 5.6756,0 1.3378,1.3377 0,3.7837 0,5.6756 0,1.8919 0,3.7837 0,5.6756 0,13.2431 0,26.4862 0,39.7294 0,1.8918 1.3378,4.3378 0,5.6756 -1.3377,1.3377 -4.3378,-1.3378 -5.6756,0 -1.3377,1.3377 0,3.7837 0,5.6756 0,11.3512 0,22.7025 0,34.0537 0,1.8919 1.3378,4.3379 0,5.6757 -1.3377,1.3377 -4.3378,-1.3378 -5.6756,0 -0.2572,0.2572 0,25.702 0,28.3781 0,1.8918 1.3378,4.3378 0,5.6756 -1.3378,1.3377 -4.3379,-1.3378 -5.6756,0 -1.1603,1.1603 1.1251,14.7765 0,17.0268 -1.1965,2.3931 -4.4791,3.2826 -5.6756,5.6757 -1.6922,3.3843 1.6921,7.9669 0,11.3512 -1.1966,2.3931 -4.4791,3.2826 -5.6757,5.6756 -1.6921,3.3843 2.6755,8.6758 0,11.3513 -1.3377,1.3377 -4.3378,-1.3378 -5.6756,0 -2.8378,2.8378 2.8378,14.189 0,17.0268 -1.3377,1.3378 -4.3379,-1.3377 -5.6756,0 -2.8378,2.8379 2.8378,14.1891 0,17.0269 -1.3378,1.3378 -4.3379,-1.3377 -5.6756,0 -2.8378,2.8378 2.8378,14.1891 0,17.0269 -1.3378,1.3377 -4.3379,-1.3378 -5.6757,0 -2.8378,2.8378 2.8379,14.189 0,17.0268 -1.3377,1.3378 -4.3378,-1.3377 -5.6756,0 -2.8378,2.8378 2.8378,14.1891 0,17.0269 -1.3377,1.3378 -4.3378,-1.3378 -5.6756,0 -2.6755,2.6755 2.6755,8.6757 0,11.3512 -1.3378,1.3378 -4.3379,-1.3377 -5.6756,0 -11.7431,11.7431 17.9449,-0.459 -5.6756,11.3513 -1.6922,0.8461 -7.0134,1.3377 -5.6757,0 2.9914,-2.9913 14.3426,-8.6669 11.3513,-5.6756 -4.8234,4.8233 -10.9258,8.3007 -17.0269,11.3512 -1.6921,0.8461 -4.3378,-1.3377 -5.6756,0 -1.3378,1.3378 1.3378,4.3379 0,5.6756 -1.8935,1.8935 -9.4578,-1.8934 -11.3512,0 -1.3378,1.3378 1.3377,4.3379 0,5.6757 -1.3378,1.3377 -4.3379,-1.3378 -5.6757,0 0,15.1349 1.8919,-1.8919 -5.6756,5.6756 -1.3377,1.3377 1.3378,4.3378 0,5.6756 -1.3377,1.3378 -5.6756,1.8919 -5.6756,0 0,-2.6755 8.3511,-5.6756 5.6756,-5.6756 -28.6721,0 -4.3618,4.3618 -11.3512,11.3512 -1.3378,1.3378 -3.7838,0 -5.6757,0 -1.3764,0 -16.8443,0.1825 -17.0268,0 -1.3378,-1.3377 1.3377,-4.3378 0,-5.6756 -2.6755,-2.6755 -8.6758,2.6755 -11.3513,0 -1.3377,-1.3378 1.3378,-4.3379 0,-5.6756 -1.3657,-1.3658 -21.3367,1.3657 -22.7025,0 -1.3377,-1.3378 1.3378,-4.3379 0,-5.6756 -1.3377,-1.3378 -3.7837,0 -5.6756,0 -13.2431,0 -26.4862,0 -39.7293,0 -1.8919,0 -3.7838,0 -5.6756,0 -1.8919,0 -4.3379,1.3377 -5.6757,0 -1.3377,-1.3378 1.3378,-4.3379 0,-5.6757 -1.3377,-1.3377 -3.7837,0 -5.6756,0 -1.8919,0 -3.7837,0 -5.6756,0 -1.3765,0 -16.8443,0.1826 -17.0269,0 -1.3377,-1.3377 1.3378,-4.3378 0,-5.6756 -1.3657,-1.3657 -21.3367,1.3657 -22.7025,0 -1.3377,-1.3377 1.3378,-4.3379 0,-5.6756 -0.2284,-0.2284 -20.6182,0 -22.7024,0 -3.7838,0 -15.135,0 -11.3513,0 3.7838,0 15.135,0 11.3513,0 -5.6757,0 -11.6425,1.7948 -17.0269,0 -1.7948,-0.5983 1.3377,-4.3379 0,-5.6756 -1.3378,-1.3378 -3.7838,0 -5.6756,0 -1.8919,0 -3.7838,0 -5.6757,0 -2.0843,0 -22.474,0.2284 -22.7024,0 -1.3378,-1.3378 1.3377,-4.3379 0,-5.6757 -1.3378,-1.3377 -3.7838,0 -5.6757,0 -1.8918,0 -3.7837,0 -5.6756,0 -15.135,0 1.8919,1.8919 -5.6756,-5.6756 -1.3378,-1.3377 -3.7838,0 -5.6756,0 -9.4594,0 -18.9188,0 -28.3781,0 -5.6757,0 -11.3513,0 -17.0269,0 -1.8919,0 -7.5675,0 -5.6756,0 3.7837,0 11.3512,3.7838 11.3512,0 0,-6.5217 -12.954,-5.6756 -17.0268,-5.6756 -1.8919,0 -5.6757,1.8919 -5.6757,0 0,-8.0405 26.4863,16.0809 -5.6756,0 -1.6921,-0.8461 0,-3.7837 0,-5.6756 0,-1.8919 0,-3.7838 0,-5.6756 0,-1.8919 0,-3.7838 0,-5.6757 0,-1.8918 -1.3377,-4.3378 0,-5.6756 1.3378,-1.3377 4.3379,1.3378 5.6756,0 2.6755,-2.6755 -2.6755,-8.6757 0,-11.3512 1.3378,-1.3378 4.3379,1.3377 5.6757,0 1.3377,-1.3378 0,-3.7838 0,-5.6756 0,-2.6761 -0.2573,-28.1209 0,-28.3782 1.3377,-1.3377 4.3378,1.3378 5.6756,0 0.2284,-0.2284 0,-20.6181 0,-22.7024 0,-15.135 -1.8919,1.8918 5.6756,-5.6757 0.1825,-0.1825 0,-15.6503 0,-17.0268 0,-3.7723 0,-7.579 0,-11.3513 0,-1.8918 -1.8919,-5.6756 0,-5.6756 1.8919,0 0,7.5675 0,5.6756 0,-7.5675 0,-15.135 0,-22.7025 0,-2.0843 -0.2284,-22.4741 0,-22.7024 1.3378,-1.3378 3.7837,0 5.6756,0 1.8919,0 3.7838,0 5.6756,0 9.4594,0 18.9188,0 28.3781,0 1.8919,0 4.3379,-1.3378 5.6757,0 1.3377,1.3377 1.8918,5.6756 0,5.6756 -1.8919,0 0,-3.7838 0,-5.6756 -4.0179,-17.3054 -15.7256,-2.1872 -22.7025,-5.6757 -2.3931,-1.1965 -3.2826,-4.4791 -5.6756,-5.6756 -1.6922,-0.8461 -4.3379,1.3378 -5.6757,0 -1.3377,-1.3377 1.3378,-4.3379 0,-5.6756 -1.3377,-1.3378 -4.3378,1.3377 -5.6756,0 -1.3377,-1.3378 1.3378,-4.3379 0,-5.6756 -1.3377,-1.3378 -4.3378,1.3377 -5.6756,0 -1.3378,-1.3378 1.3378,-4.3379 0,-5.6757 -1.3378,-1.3377 -4.3379,1.3378 -5.6756,0 -1.3378,-1.3377 -1.8919,-5.6756 0,-5.6756 1.8918,0 0,7.5675 0,5.6756 0,-17.0268 0,-34.0537 0,-51.0805 0,-1.8919 0,-3.7838 0,-5.6757 0,-1.8918 -1.3378,-4.3378 0,-5.6756 1.3377,-1.3377 4.3378,1.3378 5.6756,0 0.5676,-0.5676 0.5676,-16.4593 0,-17.0269 -2.6755,-2.6755 -8.6757,2.6756 -11.3512,0 -1.3378,-1.3377 1.3377,-4.3378 0,-5.6756 -2.6756,-2.6755 -8.6758,2.6755 -11.3513,0 -7.5675,-7.5675 9.4594,-5.6756 -5.6756,-5.6756 -15.135,0 1.8919,1.8919 -5.6756,-5.6756 -1.3378,-1.3378 -3.9835,0.846 -5.6757,0 -2.393,-1.1965 -3.2825,-4.4791 -5.6756,-5.6756 -1.6921,-0.8461 -4.3378,1.3377 -5.6756,0 -1.3378,-1.3378 1.3378,-4.3379 0,-5.6757 -2.8378,-2.8378 -14.1891,2.8378 -17.0269,0 -1.3377,-1.3377 1.3378,-4.3378 0,-5.6756 -1.3377,-1.3377 -3.7837,0 -5.6756,0 -1.8919,0 -3.7837,0 -5.6756,0 -9.4594,0 -18.9187,0 -28.3781,0 -1.8919,0 -4.3379,-1.3377 -5.6756,0 -1.3378,1.3378 1.3377,4.3379 0,5.6756 -1.3378,1.3378 -3.7838,0 -5.6757,0 -1.8918,0 -3.7837,0 -5.6756,0 -1.8919,0 -7.5675,0 -5.6756,0 3.7837,0 15.135,0 11.3512,0 -5.6756,0 -11.3512,0 -17.0268,0 -1.8919,0 -5.6756,1.8919 -5.6756,0 0,-1.8918 7.5675,0 5.6756,0 -3.7838,0 -7.967,1.6922 -11.3513,0 -1.6921,-0.846 0,-3.7837 0,-5.6756 0,-1.8919 0,-7.5675 0,-5.6756 0,8.9917 1.6922,22.1033 -5.6756,0 -1.1281,-3.3842 0,-28.5548 0,-34.0537 0,-1.8919 1.3378,-4.3379 0,-5.6757 -1.3377,-1.3377 -4.3379,1.3378 -5.6756,0 -5.5989,-5.5988 11.6298,-11.3512 -5.6756,-11.3512 -3.7838,0 -15.135,0 -11.3513,0 3.7838,0 11.3513,3.7837 11.3513,0 0,-4.2304 -7.338,-4.3379 -11.3513,-5.6756 -3.2022,-1.0674 -13.2973,0 -17.0268,0 -1.8919,0 -7.5675,0 -5.6757,0 8.9917,0 22.1033,1.6921 0,-5.6756 -3.5895,-1.1966 -8.6757,2.6755 -11.3512,0 -1.3378,-1.3378 0,-3.7838 0,-5.6757 0,-1.8918 0,-3.7837 0,-5.6756 0,-11.3512 0,-22.7025 0,-34.0537 0,-1.8919 0,-3.7838 0,-5.6756 0,-1.8919 0.8461,-3.9835 0,-5.6757 -1.1965,-2.393 -4.4791,-3.2825 -5.6756,-5.6756 -1.6922,-3.3843 2.6755,-8.6757 0,-11.3512 -1.3378,-1.3378 -4.3379,1.3377 -5.6756,0 -1.3378,-1.3378 -1.8919,-5.6757 0,-5.6757 2.6755,0 5.6756,3.0002 5.6756,5.6757 0,1.8918 -3.9835,-0.8461 -5.6756,0 -2.3931,1.1965 -4.4791,3.2825 -5.6757,5.6756 0,15.135 1.8919,-1.8919 -5.6756,5.6756 -1.3377,1.3378 1.3378,4.3379 0,5.6756 -1.3377,1.3378 -4.3379,-1.3377 -5.6756,0 -1.3378,1.3378 1.3377,4.3379 0,5.6757 -1.3378,1.3377 -4.3379,-1.3378 -5.6756,0 -1.3378,1.3377 1.3377,4.3378 0,5.6756 -1.3378,1.3377 -4.3379,-1.3378 -5.6757,0 -1.3377,1.3377 1.3378,4.3378 0,5.6756 -1.3657,1.3657 -21.3367,-1.3657 -22.7024,0 -1.3378,1.3378 1.3377,4.3379 0,5.6756 -0.1826,0.1826 -15.6504,0 -17.0269,0 -1.8919,0 -4.3379,1.3378 -5.6756,0 -1.3378,-1.3377 1.3377,-4.3378 0,-5.6756 -2.6755,-2.6755 -11.3513,3.7837 -11.3513,0 0,-1.8919 5.6756,1.8919 5.6756,0 0,-2.2165 -10.6348,-6.392 -5.6756,-11.3512 1.3378,-1.3378 4.3379,1.3377 5.6756,0 2.6756,-2.6756 -1.6921,-7.967 0,-11.3513 1.1966,-2.393 4.4791,-3.2826 5.6757,-5.6756 0.846,-1.6922 -1.3378,-4.3379 0,-5.6756 1.3377,-1.3378 4.3378,1.3377 5.6756,0 2.8378,-2.8378 -2.8378,-14.1891 0,-17.0269 1.3377,-1.3378 4.3379,1.3378 5.6756,0 2.8378,-2.8378 -2.8378,-14.189 0,-17.0269 1.3378,-1.3377 4.3379,1.3378 5.6756,0 2.6755,-2.6755 -1.6921,-7.9669 0,-11.3512 1.1966,-2.3931 4.4791,-3.2826 5.6757,-5.6756 1.1251,-2.2504 -1.1603,-15.8666 0,-17.0269 1.3377,-1.3377 4.3378,1.3378 5.6756,0 1.3657,-1.3657 -1.3658,-21.3367 0,-22.7025 15.135,0 -1.8919,1.8919 5.6756,-5.6756 2.6755,-2.6755 8.6757,2.6755 11.3512,0 1.3378,-1.3378 -1.3377,-4.3379 0,-5.6756 1.3378,-1.3378 4.3379,1.3377 5.6757,0 1.3377,-1.3378 -1.3378,-4.3379 0,-5.6756 1.3377,-1.3378 4.3378,1.3377 5.6756,0 1.3377,-1.3378 -1.3378,-4.3379 0,-5.6757 1.3377,-1.3377 4.3379,1.3378 5.6756,0 1.3378,-1.3377 -1.3377,-4.3378 0,-5.6756 1.888,-1.888 9.4633,1.888 11.3513,0 1.3377,-1.3377 -1.3378,-4.3378 0,-5.6756 15.1349,0 -1.8919,1.8919 5.6756,-5.6756 1.888,-1.888 9.4632,1.888 11.3512,0 1.3378,-1.3378 -1.3377,-4.3379 0,-5.6756 1.3378,-1.3378 4.3379,1.3377 5.6756,0 1.3378,-1.3378 -1.3377,-4.3379 0,-5.6757 1.3378,-1.3377 4.3379,1.3378 5.6757,0 1.3377,-1.3377 -1.3378,-4.3378 0,-5.6756 1.3377,-1.3377 3.9834,0.8461 5.6756,0 7.5713,-3.7856 3.7799,-7.5656 11.3512,-11.3512 1.6922,-0.8461 4.3379,1.3377 5.6756,0 1.3378,-1.3378 -1.3377,-4.3379 0,-5.6757 1.3378,-1.3377 4.3379,1.3378 5.6757,0 1.3377,-1.3377 -1.3378,-4.3378 0,-5.6756 15.135,0 -1.8919,1.8919 5.6756,-5.6756 1.3377,-1.3378 3.9835,0.8461 5.6756,0 2.3931,-1.1965 3.2826,-4.4791 5.6756,-5.6756 1.6922,-0.8461 4.3379,1.3377 5.6757,0 1.3377,-1.3378 -1.3378,-4.3379 0,-5.6756 1.3377,-1.3378 4.3378,1.3377 5.6756,0 1.3377,-1.3378 -0.8461,-3.9835 0,-5.6757 0.5432,-1.0864 21.616,-22.1592 22.7025,-22.7025 1.6921,-0.846 4.3378,1.3378 5.6756,0 1.3377,-1.3377 -0.8461,-3.9834 0,-5.6756 11.8103,-23.6206 -0.3918,6.0675 11.3512,-5.6756 1.3378,-1.3378 -1.3377,-4.3379 0,-5.6756 1.3378,-1.3378 4.3379,1.3377 5.6757,0 1.3377,-1.3378 -1.3378,-4.3379 0,-5.6756 15.1349,0 -1.8919,1.8918 5.6756,-5.6757 1.3377,-1.3377 3.9835,0.8461 5.6756,0 6.8107,-3.4053 10.2161,-13.6215 17.0269,-17.0268 1.6921,-0.8461 4.3378,1.3377 5.6756,0 2.6755,-2.6755 -3.7838,-11.3513 0,-11.3513 1.8919,0 0,7.5675 0,5.6757 0,-3.7838 0,-7.5675 0,-11.3513 0,-1.8919 -1.3378,-4.3379 0,-5.6756 1.3377,-1.3378 4.3378,1.3377 5.6756,0 0.2284,-0.2284 0,-20.6182 0,-22.7025 0,-1.8919 0,-7.5675 0,-5.6756 0,3.7837 0,15.135 0,11.3512 0,-5.6756 0,-11.3512 0,-17.0268 0,-1.8919 0,-3.7838 0,-5.6757 0,-1.8918 -1.3378,-4.3378 0,-5.6756 1.3378,-1.3377 4.3379,1.3378 5.6756,0 2.8378,-2.8378 -2.8378,-14.189 0,-17.0268 1.3378,-1.3378 4.3379,1.3377 5.6756,0 2.8379,-2.8379 -2.8378,-14.1891 0,-17.0269 1.3378,-1.3378 4.3379,1.3377 5.6757,0 1.3377,-1.3378 0,-3.7838 0,-5.6756 0,-2.6761 -0.2573,-28.1209 0,-28.3781 1.3377,-1.3378 4.3378,1.3377 5.6756,0 1.1603,-1.1603 -1.1252,-14.7766 0,-17.0269 1.1965,-2.3931 4.4791,-3.2826 5.6756,-5.6756 1.6922,-3.3843 -1.6921,-7.967 0,-11.3513 1.1965,-2.393 4.4791,-3.2825 5.6756,-5.6756 0.7462,-1.4924 0,-19.7346 0,-22.7025 0,-1.8919 -1.8918,-5.6756 0,-5.6756 1.8919,0 0,7.5675 0,5.6756 0,-5.6756 0,-11.3512 0,-17.0268 0,-1.8919 0,-7.5675 0,-5.6757 0,3.7838 0,15.135 0,11.3513 0,-11.3513 0,-22.7025 0,-34.0538 0,-1.8918 1.3378,-4.3378 0,-5.6756 -1.3377,-1.3377 -4.3378,1.3378 -5.6756,0 -1.3377,-1.3377 0,-3.7837 0,-5.6756 0,-1.8919 0,-7.5675 0,-5.6756 0,3.7837 0,15.135 0,11.3512 0,-5.6756 1.7948,-11.6425 0,-17.0268 -0.5983,-1.7948 -5.6756,1.8918 -5.6756,0 0,-8.3512 18.8237,13.148 0,-5.6757 -44.4147,6.6075 -4.1472,-21.174 -11.3513,-28.3781 -1.3377,-1.3377 -4.3378,1.3378 -5.6756,0 -1.3377,-1.3377 1.3378,-4.3378 0,-5.6756 -1.3377,-1.3377 -4.3378,1.3378 -5.6756,0 -1.3378,-1.3377 1.3378,-4.3379 0,-5.6756 -1.3378,-1.3378 -4.3379,1.3377 -5.6756,0 -2.6755,-2.6755 2.6755,-8.6757 0,-11.3513 -2.6755,-2.6755 -8.6757,2.6756 -11.3513,0 -1.3377,-1.3377 1.3378,-4.3378 0,-5.6756 -1.888,-1.888 -9.4632,1.888 -11.3512,0 -1.3378,-1.3377 -1.8919,-5.6756 0,-5.6756 2.6755,0 8.3511,5.6756 5.6756,5.6756 -4.2303,0 -7.8314,-3.329 -11.3512,-5.6756 -2.2262,-1.4841 -7.5675,-3.7837 -5.6756,-5.6756 1.8918,-1.8919 8.3511,5.6756 5.6756,5.6756 -4.2304,0 -8.36,-2.6843 -11.3513,-5.6756 -1.3377,-1.3378 1.3378,-4.3379 0,-5.6756 -1.3377,-1.3378 -3.7837,0 -5.6756,0 -1.8919,0 -4.3379,-1.3378 -5.6756,0 -1.3378,1.3377 1.3377,4.3378 0,5.6756 -15.135,0 1.8919,-1.8919 -5.6756,5.6756 -1.3378,1.3378 -5.6757,1.8919 -5.6757,0 0,-1.8919 5.6757,-1.8919 5.6757,0 0,2.6755 -3.2826,4.4791 -5.6757,5.6756 -3.3842,1.6922 -8.6757,-2.6755 -11.3512,0 -1.3378,1.3378 1.3378,4.3379 0,5.6756 -1.3378,1.3378 -4.3379,-1.3377 -5.6756,0 -1.3378,1.3378 1.3377,4.3379 0,5.6757 -1.3378,1.3377 -4.3379,-1.3378 -5.6756,0 -1.3378,1.3377 1.3377,4.3378 0,5.6756 -1.3378,1.3377 -4.3379,-1.3378 -5.6757,0 -1.3377,1.3377 1.3378,4.3379 0,5.6756 -15.135,0 1.8919,-1.8919 -5.6756,5.6756 -1.3377,1.3378 -4.3379,-1.3377 -5.6756,0 -2.6755,2.6755 2.6755,8.6758 0,11.3513 -1.3378,1.3377 -4.3379,-1.3378 -5.6756,0 -1.3378,1.3377 1.3377,4.3378 0,5.6756 -1.3378,1.3378 -4.3379,-1.3378 -5.6757,0 -1.3377,1.3378 1.3378,4.3379 0,5.6756 -1.3377,1.3378 -4.3378,-1.3377 -5.6756,0 -1.8833,1.8833 1.8834,9.4679 0,11.3513 -1.3377,1.3377 -4.3378,-1.3378 -5.6756,0 -1.3378,1.3377 1.3378,4.3378 0,5.6756 -1.3378,1.3377 -4.3379,-1.3378 -5.6756,0 -1.3378,1.3377 1.3377,4.3378 0,5.6756 -1.3378,1.3378 -3.7838,0 -5.6756,0 -1.8919,0 -5.6757,1.8919 -5.6757,0 0,-1.8919 7.5675,0 5.6757,0 -3.7838,0 -7.5675,0 -11.3513,0 -1.8919,0 -4.3378,1.3378 -5.6756,0 -1.3378,-1.3378 1.3378,-4.3379 0,-5.6756 -1.3378,-1.3378 -5.6756,1.8919 -5.6756,0 0,-1.8919 7.5675,0 5.6756,0 -3.7838,0 -7.5675,0 -11.3512,0 -1.8919,0 -4.3379,-1.3378 -5.6757,0 -1.3377,1.3377 1.3378,4.3378 0,5.6756 -15.135,0 1.8919,-1.8919 -5.6756,5.6756 -2.6755,2.6755 -8.6757,-2.6755 -11.3512,0 -1.3378,1.3378 1.3377,4.3379 0,5.6756 -1.3378,1.3378 -3.9835,-0.846 -5.6757,0 -2.393,1.1966 -3.2825,4.4791 -5.6756,5.6757 -1.6921,0.846 -4.3378,-1.3378 -5.6756,0 -1.3378,1.3377 1.3378,4.3378 0,5.6756 -1.888,1.888 -9.4632,-1.888 -11.3512,0 -1.3378,1.3377 1.3377,4.3379 0,5.6756 -1.3378,1.3378 -4.3379,-1.3377 -5.6757,0 -1.3377,1.3378 1.3378,4.3379 0,5.6756 -1.3377,1.3378 -4.3378,-1.3377 -5.6756,0 -1.3377,1.3378 1.3378,4.3379 0,5.6757 -2.6755,2.6755 -8.6757,-2.6756 -11.3512,0 -1.3378,1.3377 1.3377,4.3378 0,5.6756 -1.3378,1.3377 -3.7838,0 -5.6757,0 -1.8918,0 -4.3378,1.3377 -5.6756,0 -1.3377,-1.3378 1.3378,-4.3379 0,-5.6756 -1.3377,-1.3378 -4.3378,1.3377 -5.6756,0 -1.3378,-1.3378 1.3378,-4.3379 0,-5.6757 -1.3378,-1.3377 -4.3379,1.3378 -5.6756,0 -1.8935,-1.8934 1.8935,-9.4577 0,-11.3512 -1.3378,-1.3378 -4.3379,1.3377 -5.6756,0 -1.3378,-1.3378 1.3377,-4.3379 0,-5.6756 -1.3378,-1.3378 -4.3379,1.3377 -5.6757,0 -1.3377,-1.3378 1.3378,-4.3379 0,-5.6757 -1.3377,-1.3377 -4.3378,1.3378 -5.6756,0 -1.3377,-1.3377 1.3378,-4.3378 0,-5.6756 -1.3377,-1.3377 -4.3378,1.3378 -5.6756,0 -1.3378,-1.3377 0.8461,-3.9835 0,-5.6756 -2.3931,-4.7861 -8.9582,-6.5651 -11.3512,-11.3512 -0.8461,-1.6922 1.3377,-4.3379 0,-5.6757 -1.3378,-1.3377 -4.3379,1.3378 -5.6757,0 -1.3377,-1.3377 1.3378,-4.3378 0,-5.6756 -1.3377,-1.3377 -4.3378,1.3378 -5.6756,0 -1.3377,-1.3377 1.3378,-4.3378 0,-5.6756 -1.3377,-1.3378 -4.3379,1.3378 -5.6756,0 -1.8935,-1.8935 1.8935,-9.4578 0,-11.3512 -1.3378,-1.3378 -4.3379,1.3377 -5.6756,0 -1.3378,-1.3378 1.3377,-4.3379 0,-5.6757 -1.3378,-1.3377 -4.3379,1.3378 -5.6757,0 -1.3377,-1.3377 1.3378,-4.3378 0,-5.6756 -1.3377,-1.3377 -4.3378,1.3378 -5.6756,0 -2.6755,-2.6755 2.6755,-8.6757 0,-11.3512 -1.3377,-1.3378 -4.3378,1.3377 -5.6756,0 -1.3378,-1.3378 1.3378,-4.3379 0,-5.6757 -1.3378,-1.3377 -4.3379,1.3378 -5.6756,0 -2.6755,-2.6755 2.6755,-8.6757 0,-11.3512 -1.3378,-1.3378 -4.3379,1.3378 -5.6756,0 -1.3378,-1.3378 1.3377,-4.3379 0,-5.6756 -1.888,-1.888 -9.4633,1.888 -11.3513,0 0,-15.135 1.8919,1.8919 -5.6756,-5.6756 -1.3378,-1.3378 0,-3.7838 0,-5.6757 0,-1.8918 -1.3378,-4.3378 0,-5.6756 1.3378,-1.3377 4.3379,1.3378 5.6756,0 1.3378,-1.3377 -1.3377,-4.3379 0,-5.6756 1.3378,-1.3378 4.3379,1.3377 5.6756,0 2.6756,-2.6755 -2.6755,-8.6757 0,-11.3513 1.3378,-1.3377 3.7838,0 5.6757,0 1.8918,0 5.6756,-1.8918 5.6756,0 0,1.8919 -5.6756,1.8919 -5.6756,0 0,-2.6755 3.2825,-4.479 5.6756,-5.6756 3.3843,-1.6921 8.6757,2.6755 11.3512,0 1.8935,-1.8934 -1.8934,-9.4577 0,-11.3512 1.3378,-1.3378 4.3379,1.3377 5.6756,0 1.8834,-1.8834 -1.8833,-9.4679 0,-11.3513 1.3378,-1.3377 4.3379,1.3378 5.6757,0 2.6755,-2.6755 -2.6755,-8.6757 0,-11.3512 7.5675,-7.5675 5.6756,9.4594 5.6756,-5.6756 0,-1.8919 0,-7.5675 0,-5.6756 0,8.9916 -1.6922,22.1032 5.6756,0 1.3303,-3.9909 -1.5557,-26.8224 0,-28.3782 1.3378,-1.3377 4.3379,1.3378 5.6756,0 2.8378,-2.8378 -2.8378,-14.189 0,-17.0268 1.3378,-1.3378 4.3379,1.3377 5.6757,0 1.3377,-1.3378 0,-3.7838 0,-5.6756 0,-1.8919 0,-3.7838 0,-5.6757 0,-9.4593 0,-18.9187 0,-28.3781 0,-1.8918 0,-3.7837 0,-5.6756 0,-1.8919 -0.8461,-3.9835 0,-5.6756 1.1965,-2.3931 4.4791,-3.2826 5.6756,-5.6756 1.7836,-3.5673 -1.7837,-19.1353 0,-22.7025 7.0134,-14.0268 5.6756,1.9591 5.6756,-11.3513 0,-1.3765 -0.1825,-16.8443 0,-17.0268 1.3378,-1.3378 4.3379,1.3377 5.6756,0 1.3378,-1.3378 0,-3.7838 0,-5.6757 0,-9.4593 0,-18.9187 0,-28.3781 0,-1.8918 0,-3.7837 0,-5.6756 0,-1.8919 -1.8919,-5.6756 0,-5.6756 1.8919,0 0,3.7837 0,5.6756 0,1.3765 0.1825,16.8444 0,17.0269 -1.3377,1.3377 -3.7837,0 -5.6756,0 23.7221,-26.0267 16.1639,-22.7025 39.7293,-22.7025 1.8919,0 4.3379,-1.3378 5.6757,0 1.3377,1.3378 -1.3378,4.3379 0,5.6756 2.6755,2.6755 11.3512,-3.7837 11.3512,0 0,1.8919 -7.0134,-1.3377 -5.6756,0 6.5217,6.5217 10.0375,5.6756 17.0269,5.6756 1.8918,0 4.3378,1.3378 5.6756,0 1.3377,-1.3377 -1.3378,-4.3378 0,-5.6756 1.7574,-1.7574 26.6206,1.7575 28.3781,0 1.3377,-1.3377 -1.3378,-4.3378 0,-5.6756 2.8378,-2.8378 14.189,2.8378 17.0269,0 1.3377,-1.3378 -1.3378,-4.3379 0,-5.6756 1.3377,-1.3378 3.7837,0 5.6756,0 1.8918,0 3.7837,0 5.6756,0 15.135,0 30.27,0 45.405,0 1.8918,0 4.3378,-1.3378 5.6756,0 1.3377,1.3377 -1.3378,4.3378 0,5.6756 1.3377,1.3378 3.7837,0 5.6756,0 1.8919,0 3.7838,0 5.6756,0 11.3513,0 22.7025,0 34.0538,0 2.556,0 15.2995,-0.8636 17.0268,0 2.3931,1.1965 3.2826,4.4791 5.6757,5.6756 1.4923,0.7462 19.7345,0 22.7024,0 17.0269,0 34.0538,0 51.0806,0 9.4594,0 18.9188,0 28.3781,0 3.7838,0 15.135,0 11.3513,0 -3.7838,0 -15.135,0 -11.3513,0 52.9725,0 5.6757,5.6756 17.0269,-5.6756 2.6755,-2.6755 8.6757,2.6755 11.3512,0 1.3378,-1.3378 -1.3377,-4.3379 0,-5.6756 1.3378,-1.3378 4.3379,1.3377 5.6757,0 2.6755,-2.6755 -2.6755,-8.6758 0,-11.3513 1.3377,-1.3377 4.3378,1.3378 5.6756,0 1.3377,-1.3377 -1.3378,-4.3378 0,-5.6756 1.3377,-1.3377 3.7837,0 5.6756,0 0,-1.8919 -0.8461,-3.9835 0,-5.6756 1.1965,-2.3931 4.4791,-3.2826 5.6756,-5.6756 0.8461,-1.6922 1.3378,-7.0134 0,-5.6757 -2.9913,2.9914 -9.9059,11.3513 -5.6756,11.3513 12.689,0 11.3513,-10.4865 11.3513,-17.0269 0,-1.8919 -1.8919,-5.6756 0,-5.6756 1.8918,0 0,7.5675 0,5.6756 0,-3.7837 0,-7.5675 0,-11.3512 0,-1.8919 -1.3378,-4.3379 0,-5.6756 1.3377,-1.3378 4.3378,1.3377 5.6756,0 1.3377,-1.3378 0,-3.7838 0,-5.6757 0,-1.8918 1.3377,-4.3378 0,-5.6756 -1.3378,-1.3377 -4.3379,1.3378 -5.6756,0 -1.3378,-1.3377 1.3377,-4.3379 0,-5.6756 -1.3378,-1.3378 -4.3379,1.3377 -5.6757,0 -1.3377,-1.3378 1.3378,-4.3379 0,-5.6756 -1.888,-1.888 -9.4632,1.888 -11.3512,0 -1.3378,-1.3378 1.3377,-4.3379 0,-5.6757 -1.3378,-1.3377 -4.3379,1.3378 -5.6756,0 -1.3378,-1.3377 1.3377,-4.3378 0,-5.6756 -1.3378,-1.3377 -4.3379,1.3378 -5.6757,0 -1.3377,-1.3377 1.3378,-4.3378 0,-5.6756 -1.3377,-1.3378 -4.3378,1.3378 -5.6756,0 -1.3377,-1.3378 1.3378,-4.3379 0,-5.6756 -1.3377,-1.3378 -4.3378,1.3377 -5.6756,0 -1.3378,-1.3378 1.3378,-4.3379 0,-5.6756 -1.3378,-1.3378 -4.3379,1.3377 -5.6756,0 -1.3378,-1.3378 1.3377,-4.3379 0,-5.6757 -1.3378,-1.3377 -4.3379,1.3378 -5.6756,0 -1.3378,-1.3377 1.3377,-4.3378 0,-5.6756 -1.3378,-1.3377 -4.3379,1.3378 -5.6757,0 -1.3377,-1.3377 1.3378,-4.3378 0,-5.6756 -1.3377,-1.3378 -4.3378,1.3378 -5.6756,0 -1.3377,-1.3378 1.3378,-4.3379 0,-5.6756 -1.3377,-1.3378 -4.3378,1.3377 -5.6756,0 -1.3378,-1.3378 1.3378,-4.3379 0,-5.6756 -0.2284,-0.2284 -20.6182,0 -22.7025,0 -1.8919,0 -7.5675,0 -5.6756,0 3.7837,0 15.135,0 11.3512,0 -22.7025,0 -45.4049,0 -68.1074,0 -1.8919,0 -3.7838,0 -5.6756,0 -1.8919,0 -4.3379,1.3377 -5.6757,0 -1.3377,-1.3378 1.3378,-4.3379 0,-5.6757 -15.135,0 1.8919,1.8919 -5.6756,-5.6756 -1.3377,-1.3377 -4.3379,1.3378 -5.6756,0 -1.3378,-1.3377 0.8461,-3.9835 0,-5.6756 -1.1965,-2.3931 -4.4791,-3.2826 -5.6756,-5.6756 -0.8461,-1.6922 -1.8919,-5.6757 0,-5.6757 1.8918,0 1.8918,5.6757 0,5.6757 -11.3403,0 -2.294,-13.6453 -5.6757,-17.0269 -1.3377,-1.3378 -4.3378,1.3378 -5.6756,0 -0.2572,-0.2572 0,-25.7021 0,-28.3781 0,-9.4594 0,-18.9187 0,-28.3781 0,-3.7667 0,-7.5846 0,-11.3513 0,-1.8918 -1.8919,-5.6756 0,-5.6756 1.8919,0 0,7.5675 0,5.6756 0,-3.7837 0,-7.5675 0,-11.3512 0,-1.8919 -1.8919,-5.6756 0,-5.6756 1.8919,0 1.8919,5.6756 0,5.6756 -2.6755,0 -3.2825,-4.4791 -5.6756,-5.6756 -1.6921,-0.8461 -3.9835,0.846 -5.6756,0 -4.6149,-2.3075 -4.6961,-9.0032 -11.3513,-5.6756 -2.393,1.1965 -3.2825,4.4791 -5.6756,5.6756 -3.5672,1.7836 -19.1352,-1.7836 -22.7025,0 -2.393,1.1965 -3.2825,4.4791 -5.6756,5.6756 -3.9203,1.9602 -26.3859,-1.9923 -28.3781,0 -1.3378,1.3378 0,3.7837 0,5.6756 0,9.4594 0,18.9188 0,28.3781 0,1.8919 -1.3378,4.3379 0,5.6757 1.3378,1.3377 3.7837,0 5.6756,0 0,1.8918 -0.8461,3.9834 0,5.6756 1.1965,2.393 4.4791,3.2825 5.6756,5.6756 0.8461,1.6921 1.8919,5.6756 0,5.6756 -1.8918,0 1.8919,-5.6756 0,-5.6756 -2.6755,0 -3.0001,5.6756 -5.6756,5.6756 -1.8919,0 1.3378,-4.3378 0,-5.6756 -1.3377,-1.3378 -4.3378,1.3378 -5.6756,0 -1.3378,-1.3378 1.3378,-4.3379 0,-5.6756 -1.3378,-1.3378 -4.3379,1.3377 -5.6756,0 -1.3378,-1.3378 1.3377,-4.3379 0,-5.6756 -1.888,-1.888 -9.4633,1.8879 -11.3513,0 -1.3377,-1.3378 1.3378,-4.3379 0,-5.6757 -2.8378,-2.8378 -14.189,2.8378 -17.0268,0 -1.3378,-1.3377 1.3377,-4.3378 0,-5.6756 -1.888,-1.888 -9.4633,1.888 -11.3513,0 -1.3377,-1.3377 1.3378,-4.3379 0,-5.6756 -1.3377,-1.3378 -4.3378,1.3377 -5.6756,0 -1.3378,-1.3378 1.3378,-4.3379 0,-5.6756 -1.3378,-1.3378 -4.3379,1.3377 -5.6756,0 -1.3378,-1.3378 1.3377,-4.3379 0,-5.6757 -1.3378,-1.3377 -4.3379,1.3378 -5.6756,0 -1.3378,-1.3377 1.3377,-4.3378 0,-5.6756 -1.888,-1.888 -9.4633,1.888 -11.3513,0 -1.3377,-1.3377 1.3378,-4.3378 0,-5.6756 -2.6755,-2.6755 -8.6757,2.6755 -11.3512,0 -1.3378,-1.3378 1.3377,-4.3379 0,-5.6756 -1.3378,-1.3378 -4.3379,1.3377 -5.6757,0 -1.3377,-1.3378 1.3378,-4.3379 0,-5.6756 -1.3377,-1.3378 -3.9834,0.846 -5.6756,0 -2.393,-1.1966 -3.7837,-3.7838 -5.6756,-5.6757 -1.8919,-1.8918 -4.4791,-3.2825 -5.6756,-5.6756 -0.8461,-1.6921 1.3377,-4.3379 0,-5.6756 -1.3378,-1.3378 -4.3379,1.3377 -5.6756,0 -2.6756,-2.6755 2.6755,-8.6757 0,-11.3513 -1.3378,-1.3377 -4.3379,1.3378 -5.6757,0 -1.8833,-1.8833 1.8834,-9.4679 0,-11.3512 -1.3377,-1.3378 -4.3378,1.3378 -5.6756,0 -1.3377,-1.3378 0,-3.7837 0,-5.6756 0,-1.8919 -1.8919,-5.6756 0,-5.6756 1.8919,0 0,7.5675 0,5.6756 0,-3.7838 0,-7.5675 0,-11.3513 0,-1.8918 1.8919,5.6757 0,5.6757 -1.8919,0 0,-3.7838 0,-5.6757"
         style="fill:none;fill-rule:evenodd;stroke-width:1px;stroke-linecap:butt;stroke-linejoin:miter;stroke-opacity:1" />
    </g>
  </g>
</svg>
