<svg xmlns="http://www.w3.org/2000/svg" width="210mm" height="297mm" viewBox="0 0 744.09448819 1052.3622047"><g fill="none" stroke="#000" stroke-width=".34"><path d="M31.05 506.01l2.384-4.769c0-.397-.177-.836 0-1.192.252-.503.941-.69 1.193-1.192.177-.356-.282-.911 0-1.192.28-.281.91.28 1.192 0 .562-.562-.562-1.823 0-2.385.28-.28.91.281 1.192 0 .28-.28-.178-.836 0-1.192.715-1.43 2.861-2.146 3.577-3.577.177-.355-.281-.91 0-1.192.28-.28.836.178 1.192 0 .502-.251.795-.795 1.192-1.192.397-.397.94-.69 1.192-1.192 0-3.18-.397.397 1.192-1.192.281-.281-.177-.837 0-1.193.252-.502.795-.794 1.193-1.192.397-.397.689-.94 1.192-1.192.355-.178 1.192-.397 1.192 0s-1.192.397-1.192 0c0-.562.69-.94 1.192-1.192.355-.178.911.28 1.192 0 .281-.281-.397-1.192 0-1.192.398 0 0 .794 0 1.192"/><path d="M50.125 480.974c-3.635 0-.016-1.209-1.192-2.385-.281-.28-.795 0-1.192 0h-9.538c5.08-7.62 2.743-5.126 5.961-8.345.398-.397.941-.69 1.192-1.192.178-.356-.28-.911 0-1.192.281-.281.912.28 1.193 0 .28-.281-.281-.912 0-1.193.28-.28.91.281 1.192 0 .28-.28-.281-.91 0-1.192.28-.28.91.281 1.192 0 .28-.28-.281-.911 0-1.192.28-.281.911.281 1.192 0 .281-.281 0-.795 0-1.192V446.4c0-.397-.28-.911 0-1.192.281-.281.911.28 1.192 0 .281-.281-.28-.911 0-1.192.562-.562 1.823.562 2.385 0 .28-.281-.281-.912 0-1.193.28-.28.91.281 1.192 0 .038-.038 0-3.287 0-3.576V430.9c0-.397-.281-.91 0-1.192.281-.28.911.281 1.192 0 .281-.28-.28-.911 0-1.192.596-.596 2.98.596 3.577 0 .28-.281-.281-.911 0-1.192.038-.039 3.287 0 3.576 0h9.538c.397 0 .911-.281 1.192 0 .281.28-.28.91 0 1.192.562.562 1.823-.562 2.385 0 .28.28-.281.911 0 1.192.562.562 1.822-.562 2.384 0 .281.281-.281.911 0 1.192.281.281.795 0 1.192 0h1.192c-.794 0-2.384-.794-2.384 0 0 3.283 2.721.337 3.577 1.193.28.28-.281.91 0 1.192.28.28.836-.178 1.192 0 .502.251.69.94 1.192 1.192.355.178.911-.281 1.192 0 .562.562-.562 1.822 0 2.384.281.281.911-.28 1.192 0 .281.281.281.912 0 1.193-.28.28-.794 0-1.192 0 0-11.883-1.124-1.329 1.192-5.961.178-.356-.177-.837 0-1.193.252-.502.941-.69 1.193-1.192.177-.355-.178-.837 0-1.192.25-.503.94-.69 1.192-1.192.178-.356-.281-.911 0-1.192.28-.281.911.28 1.192 0 .281-.281-.281-.912 0-1.193.281-.28.911.281 1.192 0 .281-.28-.28-.91 0-1.192.281-.28.911.281 1.192 0 .281-.28-.28-.911 0-1.192.562-.562 1.823.562 2.385 0 .28-.281-.398-1.192 0-1.192.397 0-.281.91 0 1.192.28.28.911-.281 1.192 0 .281.28-.281.911 0 1.192.281.281.911-.28 1.192 0 .281.281-.28.911 0 1.192.281.281.911-.28 1.192 0 .281.281-.28.912 0 1.193.281.28.912-.281 1.193 0 .28.28-.281.91 0 1.192.596.596 2.98-.596 3.576 0 .281.28-.28.91 0 1.192.281.28.795 0 1.192 0h11.922c.398 0 .912-.281 1.193 0 1.59 1.59-1.987 1.192 1.192 1.192h2.384-2.384 3.576c.398 0 1.193-.397 1.193 0 0 .398-1.59 0-1.193 0h2.385c.397 0 1.192-.397 1.192 0 0 .398-.795 0-1.192 0l3.576-1.192c0-.397-.28-.911 0-1.192.281-.281.837.177 1.193 0 .502-.252.69-.941 1.192-1.192.355-.178.837.177 1.192 0 .318-.16 2.067-2.226 2.385-2.385.355-.178.836.178 1.192 0 1.005-.503 1.379-1.882 2.384-2.384.356-.178.911.28 1.192 0 .281-.281-.28-.911 0-1.193.281-.28.837.178 1.193 0 .502-.25.69-.94 1.192-1.192.355-.177.91.281 1.192 0 .28-.28-.281-.91 0-1.192.28-.28.911.281 1.192 0 .281-.28-.28-.911 0-1.192.281-.281.837.178 1.192 0 .503-.251.69-.941 1.193-1.192.355-.178.91.28 1.192 0 .28-.281-.281-.911 0-1.193.28-.28.91.282 1.192 0 .28-.28-.281-.91 0-1.192.28-.28.911.281 1.192 0 .281-.28 0-.795 0-1.192 0-.397.281-.911 0-1.192-.28-.281-.911.28-1.192 0-.281-.281.178-.837 0-1.192-.251-.503-.94-.69-1.192-1.193-.178-.355.28-.91 0-1.192-.281-.28-.911.281-1.192 0-.281-.28.28-.91 0-1.192-.281-.28-.912.281-1.193 0-.28-.28.281-.911 0-1.192-.397-.398-1.987.397-2.384 0-.281-.281.28-.911 0-1.192-.281-.281-.911.28-1.192 0-.281-.281.28-.912 0-1.193-.281-.28-.911.281-1.192 0-.281-.28-.281-.91 0-1.192.596-.596 2.98.596 3.576 0 .281-.28-.28-.91 0-1.192.562-.562 1.823.562 2.385 0 .28-.28-.281-.911 0-1.192.562-.562 1.822.562 2.384 0 .28-.281-.281-.911 0-1.192.562-.562 1.822.562 2.384 0 .281-.281-.28-.912 0-1.193.281-.28 1.193-.397 1.193 0 0 .562-1.193 1.755-1.193 1.193 0-6.023.917-.917 2.385-2.385.562-.562-.562-1.822 0-2.384.28-.281.911.28 1.192 0 .281-.281-.178-.837 0-1.192.503-1.006 1.882-1.38 2.384-2.385.178-.355-.28-.91 0-1.192.281-.28.912.281 1.193 0 .28-.28-.281-.911 0-1.192.28-.281.91.28 1.192 0 .28-.281-.281-.911 0-1.192.28-.281 1.192-.398 1.192 0 0 .397-1.192.397-1.192 0 0-.562.69-.941 1.192-1.193.71-.355 1.673.356 2.384 0 .503-.25.69-.94 1.193-1.192.472-.236 3.332.244 3.576 0 .281-.28-.28-.911 0-1.192.039-.038 3.288 0 3.577 0h1.192c.397 0 .837.178 1.192 0 .503-.251.69-.94 1.192-1.192.356-.178.795 0 1.193 0h1.192c.397 0 1.192-.398 1.192 0 0 .397-1.59 0-1.192 0h3.576c.398 0 .912.28 1.193 0 .28-.281-.281-.911 0-1.192.048-.048 4.33 0 4.768 0h1.193c.397 0 1.192-.398 1.192 0 0 .397-1.59 0-1.192 0h2.384c.397 0 .911-.281 1.192 0 .281.28-.28.91 0 1.192.281.28.911-.281 1.192 0 .281.28-.177.837 0 1.192.252.503.941.69 1.193 1.192.177.356.397 1.192 0 1.192-.398 0-.398-1.192 0-1.192.562 0 .69.941 1.192 1.192.355.178.795 0 1.192 0h9.538c.397 0 .91.281 1.192 0 .28-.28-.281-.91 0-1.192.596-.596 2.98.596 3.576 0 .12-.119.12-3.457 0-3.576-.28-.281-.91.28-1.192 0-.369-.37.37-5.592 0-5.961-.28-.281-.91.28-1.192 0-.281-.281 0-.795 0-1.193v-8.345c0-.397-.281-.911 0-1.192.281-.281.911.28 1.192 0 .281-.281-.28-.911 0-1.192.281-.281 1.192-.398 1.192 0 0 .562-.794.794-1.192 1.192-.609 4.619 4.528-2.625 5.961-1.192.281.28-.28.91 0 1.192.562.562 1.823-.562 2.385 0 .28.28-.281.911 0 1.192.562.562 1.822-.562 2.384 0 .281.281-.28.911 0 1.192.281.281.911-.28 1.192 0 .281.281-.28.911 0 1.192.281.281.911-.28 1.192 0 .281.281-.28.912 0 1.193 3.18 0-.397-.398 1.193 1.192.28.28.91-.281 1.192 0 .28.28-.281.911 0 1.192.28.281.911-.281 1.192 0 .281.281-.28.911 0 1.192.281.281.911-.28 1.192 0 .281.281-.28.911 0 1.192.281.281.911-.28 1.192 0 .281.281-.28.912 0 1.193.281.28.912-.281 1.193 0 .28.28-.281.91 0 1.192.28.28.91-.281 1.192 0 .28.28-.281.911 0 1.192.397.397 1.987-.397 2.384 0 .281.281-.28.911 0 1.192.562.562 1.823-.562 2.385 0 .28.281-.281.911 0 1.192.562.562 1.822-.562 2.384 0 .281.281-.28.912 0 1.193.596.596 2.98-.596 3.577 0 .28.28-.281.91 0 1.192.562.562 1.822-.562 2.384 0 .281.28-.28.911 0 1.192.281.281.795 0 1.192 0h5.961c.398 0 .912-.281 1.193 0 .28.281-.281.911 0 1.192.596.596 2.98-.596 3.576 0 .281.281-.28.911 0 1.192.37.37 5.592-.369 5.961 0 .281.281-.28.912 0 1.193.596.596 2.98-.596 3.577 0 .28.28-.281.91 0 1.192.28.28.795 0 1.192 0h9.538c.397 0 .91-.281 1.192 0 .28.28-.281.911 0 1.192 1.59 1.59 1.192-1.987 1.192 1.192l-3.577-4.769c-.397 0-.91.281-1.192 0-.397-.397.398-1.987 0-2.384-.28-.281-.911.281-1.192 0-.281-.281 0-.795 0-1.192 0-.398-.281-.911 0-1.192.281-.281.911.28 1.192 0 .281-.281-.28-.912 0-1.193.281-.28.911.281 1.192 0 .281-.28-.28-.91 0-1.192.281-.28.912.281 1.193 0 .28-.28-.281-.911 0-1.192.28-.281.91.281 1.192 0 .28-.281-.281-.911 0-1.192.28-.281.837.178 1.192 0 .503-.252.795-.795 1.192-1.192.398-.398.941-.69 1.192-1.193.178-.355-.28-.91 0-1.192.281-.28.912.281 1.193 0 .28-.28-.281-.911 0-1.192.28-.281.91.281 1.192 0 .28-.281-.281-.911 0-1.192.28-.281.911.28 1.192 0 .281-.281-.281-.911 0-1.192.281-.281.837.177 1.192 0 .503-.252.69-.941 1.192-1.193.711-.355 1.823.562 2.385 0 .28-.28-.281-.91 0-1.192.287-.287 4.482.287 4.769 0 .28-.28-.281-.911 0-1.192.28-.281.794 0 1.192 0 .829 0 5.53-.216 5.96 0 .504.251.69.94 1.193 1.192.355.178.911-.28 1.192 0 .281.281-.28.911 0 1.192.397.397 1.988-.397 2.385 0 2.796 2.796-3.673 0-1.193 0 .89 0 1.542.912 2.385 1.193.377.125.911-.281 1.192 0 .281.28-.28.91 0 1.192.281.28.911-.281 1.192 0 .281.28-.28.911 0 1.192.397.397 1.988-.397 2.385 0 .28.281-.281.911 0 1.192.28.281.91-.28 1.192 0 .28.281-.281.911 0 1.192.28.281.911-.28 1.192 0 .281.281-.28.912 0 1.193.281.28.911-.281 1.192 0 .281.28-.28.91 0 1.192.281.28.911-.281 1.192 0 .281.28 0 .795 0 1.192.398 0 .837-.178 1.193 0 .502.251.69.94 1.192 1.192.355.178 1.473.281 1.192 0-.628-.628-2.384-2.08-2.384-1.192 0 6.551 2.202 1.01 3.576 2.384.281.281-.28.912 0 1.193.281.28.795 0 1.192 0h7.154c.397 0 .91.28 1.192 0 .28-.281 0-.795 0-1.193.397 0 .911.281 1.192 0 .281-.28-.28-.91 0-1.192.281-.28.795 0 1.192 0h2.385-2.385 4.769c.397 0 .911-.28 1.192 0 .281.281-.28.911 0 1.192.397.397 1.988-.397 2.385 0 .28.281-.281.912 0 1.193.397.397 1.987-.398 2.384 0 .281.28-.28.91 0 1.192.596.596 2.98-.596 3.577 0 .28.28-.281.911 0 1.192.048.048 4.33 0 4.769 0h1.192-2.385 3.577c.397 0 1.192-.397 1.192 0s-1.59 0-1.192 0c.795 0 1.673.355 2.384 0 .356-.178-.28-.911 0-1.192.397-.397 1.988.397 2.385 0 .28-.281-.281-.911 0-1.192.28-.281.836.177 1.192 0 .503-.252.795-.795 1.192-1.193.398-.397.941-.69 1.192-1.192.178-.355-.28-.911 0-1.192.281-.281.912.281 1.193 0 .28-.281-.281-.911 0-1.192.28-.281.91.28 1.192 0 .28-.281-.281-.911 0-1.192.28-.281.911.28 1.192 0 .281-.281-.281-.912 0-1.193.281-.28.911.281 1.192 0 .281-.28-.28-.91 0-1.192.281-.28.911.281 1.192 0 .281-.28-.28-.911 0-1.192.281-.281.912.281 1.193 0 .28-.281-.281-.911 0-1.192.28-.281.836.178 1.192 0 .502-.252.69-.941 1.192-1.192.355-.178 1.192-.398 1.192 0 0 .397-1.192.397-1.192 0 0-.562.69-.941 1.192-1.193.473-.236 3.333.244 3.577 0 .28-.28-.281-.91 0-1.192.28-.28.795 0 1.192 0h7.153c.398 0 .911-.28 1.192 0 .281.281-.28.911 0 1.192.281.281.795 0 1.193 0h3.576c.398 0 1.192-.397 1.192 0 0 .357-3.954-.784 0 1.193.356.177.912-.281 1.193 0 .562.562-.562 1.822 0 2.384.28.281.91-.281 1.192 0 .562.562-.562 1.822 0 2.384.28.281.911-.28 1.192 0 .281.281-.178.837 0 1.193.251.502.94.69 1.192 1.192.356.71-.562 1.822 0 2.384.281.281.911-.28 1.192 0 .562.562-.562 1.823 0 2.385.287.287 4.482-.287 4.77 0 1.589 1.59-1.988 1.192 1.191 1.192-.609-7.197 4.529.24 5.961-1.192.281-.281-.28-.912 0-1.193.281-.28.912.281 1.193 0 .28-.28-.281-.91 0-1.192.28-.28 1.192-.397 1.192 0 0 .398-1.59 0-1.192 0h4.768c-4.657 0-1.547-.355 0 1.192.281.281-.28.912 0 1.193.281.28.837-.178 1.193 0 .502.251 1.59.794 1.192 1.192-.398.397-1.754-1.192-1.192-1.192.888 0 1.541.91 2.384 1.192.377.125.795 0 1.192 0h1.192c.398 0 1.193-.398 1.193 0 0 .397-1.59 0-1.193 0h3.577c.438 0 4.72.048 4.769 0 .28-.281-.281-.911 0-1.192.397-.397 1.987.397 2.384 0 .281-.281-.177-.837 0-1.193.795-1.59 1.59-.794 2.385-2.384.177-.355-.281-.911 0-1.192.28-.281.91.28 1.192 0 .28-.281-.281-.911 0-1.192.28-.281.911.28 1.192 0 .281-.281-.28-.912 0-1.193.281-.28.911.281 1.192 0 .281-.28-.28-.91 0-1.192.281-.28.911.281 1.193 0 .28-.28-.282-.911 0-1.192.397-.397 1.986.397 2.384 0 .28-.281-.281-.911 0-1.192.28-.281.837.178 1.192 0 .503-.252.69-.941 1.192-1.192.356-.178.911.28 1.193 0 .28-.281-.282-.912 0-1.193.397-.397 1.986.398 2.384 0 .28-.28-.281-.91 0-1.192.28-.28.911.281 1.192 0 .281-.28-.28-.911 0-1.192.397-.397 1.987.397 2.385 0 .28-.281-.281-.911 0-1.192.28-.281.91.28 1.192 0 .28-.281-.281-.911 0-1.192.28-.281.91.28 1.192 0 .28-.281-.281-.912 0-1.193.287-.286 4.482.287 4.769 0 .28-.28-.281-.91 0-1.192.28-.28.795 0 1.192 0h2.384c-.794 0-2.384.795-2.384 0 0-1.52 3.87-1.192 4.769-1.192h1.192-2.384c1.192 0 2.445-.377 3.576 0 .377.126-.28.911 0 1.192.281.281.911-.28 1.192 0 .281.281-.28.911 0 1.192.281.281.912-.28 1.193 0 .28.281-.178.837 0 1.193.25.502.794.794 1.192 1.192.397.397.69.94 1.192 1.192.355.178.911-.281 1.192 0 .281.281-.28.911 0 1.192.397.397 1.988-.397 2.385 0 .28.281-.281.911 0 1.192.397.398 1.987-.397 2.384 0 .281.281-.281.912 0 1.193.37.369 5.592-.37 5.961 0 .281.28-.281.91 0 1.192.562.562 1.673-.356 2.384 0 .503.251.69.94 1.193 1.192.71.355 1.822-.562 2.384 0 .281.281-.281.911 0 1.192.562.562 1.822-.562 2.384 0 .281.281-.28.911 0 1.192.281.281.795 0 1.193 0h1.192c.397 0 .837-.177 1.192 0 .31.156 1.452 2.125 2.384 1.193.281-.281-.177-.837 0-1.193 2.481-4.961-.082 1.275 2.385-1.192.28-.28-.281-.911 0-1.192.28-.281.795 0 1.192 0 .397 0 .911-.281 1.192 0 .281.281-.28.911 0 1.192.281.281.911-.28 1.192 0 .281.281-.28.911 0 1.192.281.281.912-.28 1.193 0 .28.281-.281.912 0 1.193.28.28.836-.178 1.192 0 .503.251.69.94 1.192 1.192.355.178.911-.281 1.192 0 .281.28 0 .795 0 1.192.398 0 .911-.281 1.192 0 .281.281-.28.911 0 1.192.281.281.912-.28 1.193 0 .28.281-.281.911 0 1.192.175.176 3.576-.14 3.576 0 0 .398-1.59 0-1.192 0 .795 0 1.63.252 2.384 0 .808-.269 2.666-3.12 3.577-3.576.356-.178.837.178 1.192 0 .503-.252.69-.941 1.192-1.192.356-.178.912.28 1.193 0 .28-.281-.281-.912 0-1.193.562-.562 1.822.562 2.384 0 .281-.28-.28-.91 0-1.192.281-.28.837.178 1.192 0 .503-.251.69-.94 1.192-1.192.711-.355 1.823.562 2.385 0 .28-.281-.281-.911 0-1.192.397-.398 1.987.397 2.384 0 .281-.281-.28-.911 0-1.192.596-.596 2.98.596 3.577 0 .28-.281-.281-.912 0-1.193.28-.28.911.281 1.192 0 .281-.28-.28-.91 0-1.192.281-.28.911.281 1.192 0 .281-.28-.28-.911 0-1.192.281-.281.912.281 1.192 0 .563-.562-.562-1.822 0-2.384.282-.281.912.28 1.193 0 .562-.562-.562-1.823 0-2.385.28-.28.91.281 1.192 0 .596-.596-.596-2.98 0-3.576.28-.281.911.28 1.192 0 .281-.281 0-.795 0-1.193 0-.397.281-.91 0-1.192-.28-.28-.795 0-1.192 0h10.73c.397 0 .91-.28 1.192 0 .28.281-.281.911 0 1.192.397.398 1.987-.397 2.384 0 .281.281-.28.912 0 1.193.281.28.912-.281 1.193 0 .28.28-.281.91 0 1.192.28.28.836-.178 1.192 0 .502.251.69.94 1.192 1.192.355.178.911-.281 1.192 0 .281.281-.28.911 0 1.192.281.281.911-.28 1.192 0 .281.281-.28.911 0 1.192.281.281.912-.28 1.193 0 .28.281-.281.912 0 1.193.28.28.91-.281 1.192 0 .28.28-.281.91 0 1.192.28.28.911-.281 1.192 0 1.59 1.59-1.987 1.192 1.192 1.192.29 0 3.538.038 3.577 0 .28-.281-.281-.911 0-1.192.28-.281.911.28 1.192 0 .281-.281-.281-.911 0-1.192.281-.281.911.28 1.192 0 .281-.281-.28-.912 0-1.193.281-.28.911.281 1.192 0 .281-.28-.28-.91 0-1.192.281-.28.912.281 1.193 0 .28-.28-.281-.911 0-1.192.28-.281.91.281 1.192 0 .28-.281-.281-.911 0-1.192.28-.281.911.28 1.192 0 .281-.281-.281-.911 0-1.192.397-.397 1.987.397 2.384 0 .281-.281-.28-.912 0-1.193.281-.28.795 0 1.193 0h10.729c.29 0 3.539.039 3.577 0 .281-.28-.281-.91 0-1.192.281-.28.837.178 1.192 0 .503-.251.69-.94 1.192-1.192.356-.178.912.281 1.193 0 .28-.281-.281-.911 0-1.192.28-.281.91.28 1.192 0 .28-.281-.281-.911 0-1.192.28-.281.911.28 1.192 0 .281-.281-.281-.912 0-1.193.281-.28.911.281 1.192 0 .281-.28 0-.794 0-1.192v-2.384 2.384c0-1.192-.377-2.445 0-3.576.046-.138 3.302 0 3.577 0 3.18 0-.398-.398 1.192 1.192.397.397 1.987-.397 2.384 0 .281.28-.28.911 0 1.192.281.281.912-.281 1.193 0 .28.281-.281.911 0 1.192.28.281.836-.178 1.192 0 .503.252.69.941 1.192 1.192.355.178.911-.28 1.192 0 .281.281-.28.912 0 1.193.281.28.911-.281 1.192 0 .562.562-.562 1.822 0 2.384.281.281.912-.281 1.193 0 .28.281 0 .795 0 1.192 0 .398.397 1.192 0 1.192-.398 0 0-1.59 0-1.192v3.577c0 .397.177.837 0 1.192-.252.503-.941.69-1.193 1.192-.181.363 0 3.04 0 3.577v8.345c0 .398.398 1.192 0 1.192-.397 0 0-1.59 0-1.192v2.385c0 .397-.28.91 0 1.192.281.28.912-.281 1.193 0 .562.562-.562 1.822 0 2.384.28.281.91-.28 1.192 0 .28.281-.281.911 0 1.192.28.281.911-.28 1.192 0 .281.281-.281.912 0 1.193.281.28.911-.281 1.192 0 .281.28-.177.836 0 1.192.252.502.941.69 1.192 1.192.795 1.59-1.192 1.192 1.193 1.192 3.179 0-.398-.397 1.192 1.192.28.281.911-.28 1.192 0 .281.281 0 .795 0 1.193v15.498c0 3.18-.397-.397 1.192 1.192.054.055 0 5.4 0 5.961v15.499c0 .398-.28.911 0 1.192.281.281.911-.28 1.192 0 .562.562-.562 1.823 0 2.385.281.28.912-.281 1.193 0 .287.287-.287 4.482 0 4.769.28.28.91-.281 1.192 0 .28.28-.281.91 0 1.192.28.28.911-.281 1.192 0 .281.28-.178.836 0 1.192.251.503.94.69 1.192 1.192.178.356-.28.911 0 1.192.281.281.911-.28 1.193 0 .28.281-.282.912 0 1.193.28.28.91-.281 1.192 0 .562.562-.562 1.822 0 2.384.28.281.91-.281 1.192 0 .28.281-.281.911 0 1.192.28.281.911-.28 1.192 0 .281.281-.28.911 0 1.192.397.397 1.987-.397 2.385 0 .28.281-.282.912 0 1.193.28.28.91-.281 1.192 0 .28.28-.281.91 0 1.192.397.397 1.987-.398 2.384 0 .281.28-.28.911 0 1.192.596.596 2.98-.596 3.577 0 .28.281-.281.911 0 1.192.562.562 1.673-.355 2.384 0 .503.252.69.941 1.192 1.192.356.178.912-.28 1.193 0 .28.281-.281.912 0 1.193.28.28 1.192-.398 1.192 0 0 .397-1.192-.398-1.192 0 0 1.693 2.728 1.192 3.576 1.192h1.192-2.384 3.577c.397 0 .836-.178 1.192 0 .502.251.69.94 1.192 1.192.355.178.795 0 1.192 0h8.346c.397 0 .91-.281 1.192 0 .28.281-.281.911 0 1.192.562.562 1.673-.355 2.384 0 .503.252.69.941 1.192 1.192.356.178.912-.28 1.193 0 .28.281-.281.912 0 1.193.562.562 1.673-.356 2.384 0 .503.25.69.94 1.192 1.192.356.178.837-.178 1.192 0 .503.251.69.94 1.193 1.192.71.355 1.822-.562 2.384 0 .281.281-.281.911 0 1.192.397.398 1.987-.397 2.384 0 .281.281-.28.911 0 1.192.281.281.912-.28 1.193 0 .28.281-.281.912 0 1.193.28.28.91-.281 1.192 0 .28.28-.281.91 0 1.192.28.28.911-.281 1.192 0 .281.28.397 1.192 0 1.192s-.397-1.192 0-1.192c.562 0 .94.69 1.192 1.192.356.71-.562 1.822 0 2.384.281.281.911-.28 1.192 0 .597.597-.596 2.98 0 3.577 1.59 1.59 1.193-1.987 1.193 1.192v-1.192 5.961c-3.689-1.337-7.012-1.192-10.73-1.192h-1.192c-.398 0-.912-.281-1.193 0-.28.28.281.911 0 1.192-.397.397-1.987-.397-2.384 0-.281.281.281.911 0 1.192-.281.281-.837-.178-1.192 0-.503.252-.69.941-1.192 1.192-.711.356-1.823-.562-2.385 0-1.59 1.59 1.987 1.193-1.192 1.193-3.301 0 .917 1.192-2.384 1.192-.398 0-1.193.397-1.193 0 0-.398 1.193-.398 1.193 0 0 .562-.69.94-1.193 1.192-.313.157-4.145 0-4.768 0h-1.193c-.397 0-1.192.397-1.192 0s1.59 0 1.192 0h-5.96c-.398 0-.912-.281-1.193 0-.28.281.281.911 0 1.192-.28.281-.795 0-1.192 0h-1.192 2.384-3.576c-.398 0-.912-.28-1.193 0-.28.281 0 .795 0 1.192 0 .563-.054 5.907 0 5.961.281.281.912-.28 1.193 0 .038.039 0 3.288 0 3.577v1.192c0 .398-.281.911 0 1.192.28.281.91-.28 1.192 0 .054.054 0 5.4 0 5.961v15.499c0 .398.28.911 0 1.192-.281.281-.911-.28-1.192 0-.562.562.355 1.674 0 2.385-.252.502-.941.69-1.193 1.192-.177.355.178.837 0 1.192-.251.503-.94.69-1.192 1.192-.178.356.281.912 0 1.193-.28.28-.911-.281-1.192 0-.281.28.28.91 0 1.192-.281.28-.911-.281-1.192 0-.281.28.28.91 0 1.192-.281.28-.911-.281-1.192 0-.282.28.28.911 0 1.192-.282.281-.837-.178-1.193 0-1.005.503-1.379 1.882-2.384 2.385-.356.177-.911-.281-1.192 0-.281.28.28.91 0 1.192-.281.28-.912-.281-1.192 0-.282.28.28.91 0 1.192-.398.397-1.988-.397-2.385 0-.28.28 0 .795 0 1.192-.397 0-.911-.28-1.192 0-.281.281.28.911 0 1.192-.281.281-.837-.177-1.192 0-.503.252-.69.941-1.192 1.193-.711.355-1.823-.562-2.385 0-.28.28 0 .794 0 1.192-.397 0-.911-.281-1.192 0-.281.28.28.91 0 1.192-.281.28-.837-.178-1.192 0-.503.251-.69.94-1.193 1.192-.355.178-.91-.28-1.192 0-.28.281 0 .795 0 1.192-.397 0-.91-.28-1.192 0-.28.281.281.912 0 1.193-.562.562-1.822-.562-2.384 0-.281.28.28.91 0 1.192-.397.397-1.988-.397-2.385 0-.28.28.281.911 0 1.192-.397.397-1.987-.397-2.384 0-.281.281.28.911 0 1.192-.398.398-1.987-.397-2.385 0-.28.281 0 .795 0 1.192-.397 0-.91-.28-1.192 0-.28.281.281.912 0 1.193-.28.28-.91-.281-1.192 0-.281.28.397 1.192 0 1.192s0-1.59 0-1.192v7.154c0 .397.178.837 0 1.192-.251.503-.94.69-1.192 1.192-.178.356.28.911 0 1.192-.562.562-1.823-.562-2.385 0-.28.281.281.912 0 1.193-.28.28-.91-.281-1.192 0-.28.28-.397 1.192 0 1.192.913 0 3.13-4.322-1.192 0-.281.28.281.911 0 1.192-.281.281-.795 0-1.192 0 0 .397.178.837 0 1.192-.252.503-.941.69-1.192 1.192-.178.356-.281 1.474 0 1.193.628-.629 2.08-2.385 1.192-2.385-2.666 0-2.385 2.203-2.385 3.577 0 .397.281.911 0 1.192-.28.281-.91-.281-1.192 0-.28.281.178.837 0 1.192-.251.503-.94.69-1.192 1.192-.355.711.562 1.823 0 2.385-.281.28-.911-.281-1.192 0-.562.562.562 1.822 0 2.384-.281.281-.911-.28-1.192 0-.287.287.287 4.482 0 4.769-.281.281-.912-.281-1.193 0-.596.596.597 2.98 0 3.577-.28.28-.91-.281-1.192 0-.596.596.596 2.98 0 3.576-.28.281-.911-.28-1.192 0-.281.281.281.911 0 1.192-.281.281-.911-.28-1.192 0-.281.281.28.912 0 1.193-.287.287-4.482-.287-4.769 0-.281.28.281.91 0 1.192-.281.28-.795 0-1.192 0h-5.961c-.398 0-.911-.281-1.192 0-.281.28.28.911 0 1.192-.281.281-.795 0-1.193 0-1.455 0-2.749-.463-3.576 1.192-1.06 2.12.662.663 1.192 1.192.281.281-.281.912 0 1.193.281.28.911-.281 1.192 0 .281.28-.28.91 0 1.192.281.28.911-.281 1.192 0 .281.28-.28.911 0 1.192.281.281.912-.28 1.193 0 .28.281-.281.911 0 1.192.28.281.91-.28 1.192 0 .28.281-.281.911 0 1.192.28.281.911-.28 1.192 0 .281.281-.281.912 0 1.193.281.28.911-.281 1.192 0 .281.28 0 .794 0 1.192 0 .397.281.911 0 1.192-.28.281-.911-.28-1.192 0-.281.281.281.911 0 1.192-.397.398-1.987-.397-2.384 0-.281.281.28.911 0 1.192-.281.282-.912-.28-1.193 0-.28.282.281.912 0 1.193-.596.596-2.98-.596-3.576 0-.281.28.28.91 0 1.192-.398.397-1.987-.398-2.385 0-.28.28.281.911 0 1.192-.562.562-1.822-.562-2.384 0-.281.281.281.911 0 1.192-.562.562-1.674-.355-2.384 0-.503.252-.69.941-1.193 1.192-.355.178-.794 0-1.192 0h-2.384 2.384c-11.127 0-1.192 1.193-3.576-1.192-.281-.28-.912.281-1.193 0-.28-.28.281-.91 0-1.192-.562-.562-1.673.356-2.384 0-.503-.251-.69-.94-1.192-1.192-.356-.178-.911.28-1.192 0-.281-.281.28-.911 0-1.192-.281-.281-.912.28-1.193 0-.562-.562.562-1.823 0-2.385-.28-.28-.91.281-1.192 0-.28-.28.178-.836 0-1.192-.251-.503-.94-.69-1.192-1.192-.178-.356.28-.911 0-1.192-.281-.281-.911.28-1.192 0-.562-.562.562-1.823 0-2.385-.281-.28-.911.281-1.192 0-.562-.562.562-1.822 0-2.384-.281-.281-.912.28-1.193 0-.054-.054 0-5.399 0-5.961 0-.398.281-.911 0-1.192-.28-.281-.91.28-1.192 0-.28-.281.281-.912 0-1.193-.28-.28-.911.281-1.192 0-.281-.28.28-.91 0-1.192-.281-.28-1.192.398-1.192 0 0-.397 1.59 0 1.192 0h-11.922c-.398 0-.911-.28-1.192 0-.281.281.28.911 0 1.192-.281.281-.795 0-1.193 0-.562 0-5.906-.054-5.96 0-.282.281.28.912 0 1.193-.327.326-4.123-.324-4.77 0-.502.251-.689.94-1.192 1.192-.472.236-3.332-.244-3.576 0-.281.28.28.911 0 1.192-.596.596-2.98-.596-3.577 0-.28.281.281.911 0 1.192-.28.281-.836-.177-1.192 0-.503.252-.69.941-1.192 1.192-.356.178-.911-.28-1.192 0-.281.281.28.912 0 1.193-.281.28-.912-.281-1.193 0-.28.28.281.91 0 1.192-.28.28-.91-.281-1.192 0-.28.28.281.911 0 1.192-.28.281-.911-.28-1.192 0-.28.281.281.911 0 1.192-.28.281-.911-.28-1.192 0-.281.281.28.911 0 1.192-.562.562-1.823-.562-2.385 0-.28.281.281.912 0 1.193-.28.28-.91-.281-1.192 0-.28.28.178.836 0 1.192-.251.503-.94.69-1.192 1.192-.178.356.281.911 0 1.192-1.59 1.59-1.192-1.987-1.192 1.192"/><path d="M503.162 607.347c0 1.59-.386 3.227 0 4.77.096.385.837-.179 1.192 0 .503.25.69.94 1.192 1.191.356.178.912-.28 1.193 0 .28.281-.281.911 0 1.192.28.282.91-.28 1.192 0 .28.282-.281.912 0 1.193.28.28.911-.281 1.192 0 .281.28-.28.91 0 1.192.281.28.911-.281 1.192 0 .281.28-.28.911 0 1.192.397.397 1.988-.397 2.385 0 .28.281-.281.911 0 1.192.28.281.836-.177 1.192 0 .503.252.69.941 1.192 1.192.356.178.911-.28 1.192 0 .562.563-.562 1.823 0 2.385.281.28.911-.281 1.192 0 .281.28-.28.911 0 1.192.281.281.912-.28 1.193 0 .562.562-.562 1.823 0 2.385.28.28.91-.281 1.192 0 .28.28-.281.91 0 1.192.28.28.911-.281 1.192 0 .281.28.397 1.192 0 1.192s0-1.59 0-1.192v2.384c0 .398.281.911 0 1.192-.28.281-.911-.28-1.192 0-.281.281 0 .795 0 1.193-.398 0-.911-.281-1.192 0-.281.28.28.91 0 1.192-.281.28-.837-.178-1.193 0-.502.251-.69.94-1.192 1.192-.71.355-1.673-.356-2.384 0-.503.251-.69.94-1.192 1.192-.75.375-4.02-.375-4.77 0-.502.251-.689.941-1.191 1.192-.356.178-.837-.177-1.193 0-.502.252-.69.941-1.192 1.193-.823.411-5.542-.419-5.96 0-.282.28.28.91 0 1.192-.37.369-5.593-.37-5.962 0-.28.28.281.91 0 1.192-.28.281-.795 0-1.192 0h-7.153c-.398 0-.911.281-1.192 0-.281-.281.28-.911 0-1.192-.397-.397-1.988.397-2.385 0-.048-.048 0-4.331 0-4.77 0-.396-.28-.91 0-1.191.281-.281.911.28 1.192 0 .596-.596-.596-2.98 0-3.577.281-.28.912.281 1.193 0 .562-.562-.795-2.384 0-2.384.397 0 .397 1.192 0 1.192-.562 0-.69-.94-1.193-1.192-.355-.178-.794 0-1.192 0h-7.153c-.397 0-.837.177-1.192 0-.503-.252-.69-.941-1.192-1.192-.356-.178-.912.28-1.193 0-.28-.281.281-.912 0-1.193-.397-.397-1.987.398-2.384 0-.281-.28.281-.91 0-1.192-.562-.562-1.822.562-2.384 0-.281-.28.28-.911 0-1.192-.562-.562-1.674.355-2.385 0-.503-.251-.69-.941-1.192-1.192-.355-.178-.911.28-1.192 0-.281-.281.28-.911 0-1.193-.398-.397-1.987.398-2.385 0-.28-.28.281-.91 0-1.192-.28-.28-.91.281-1.192 0-.28-.28.281-.91 0-1.192-.28-.28-.911.281-1.192 0-.281-.28.28-.911 0-1.192-.281-.281-.911.28-1.192 0-.281-.281 0-.795 0-1.192 0-.438-.048-4.721 0-4.77.28-.28.91.282 1.192 0 .562-.561-.562-1.822 0-2.384.28-.28.911.282 1.192 0 .562-.562-.562-1.822 0-2.384.281-.28.911.281 1.192 0 .562-.562-.562-1.822 0-2.384.281-.281.912.28 1.193 0 .28-.281 0-.795 0-1.193 0-.289.038-3.538 0-3.576-2.796-2.796 0 3.673 0 1.192 0-1.013-2.546-4.253-3.577-4.769-.636-.317-1.749.318-2.384 0-.503-.251-.69-.94-1.193-1.192-.71-.355-1.822.562-2.384 0-.281-.28.28-.911 0-1.192-.281-.281-.837.178-1.192 0-.503-.251-.69-.941-1.192-1.192-.356-.178-.912.28-1.193 0-.28-.281.178-.837 0-1.193-2.48-4.961.083 1.275-2.384-1.192-.281-.28.28-.91 0-1.192-.281-.28-.911.281-1.192 0-.281-.28.28-.911 0-1.192-.398-.398-1.987.397-2.385 0-.28-.281.281-.911 0-1.192-.28-.281-.91.28-1.192 0-.28-.281.281-.912 0-1.193-.397-.397-1.987.398-2.384 0-.562-.562.562-1.822 0-2.384-.281-.281-.912.281-1.192 0-.282-.281 0-.795 0-1.192v-5.961c0-.398.28-.911 0-1.192-.282-.281-.912.28-1.193 0-.28-.281 0-.795 0-1.193v-9.537c0-.398.281-.911 0-1.192-.28-.281-.91.28-1.192 0-.12-.12-.12-3.458 0-3.577 1.59-1.59 1.192 1.987 1.192-1.192"/><path d="M434.014 557.275c-4.082 1.245-3.685-3.631-5.96-4.769-.356-.178-.912.281-1.193 0-.28-.281.281-.911 0-1.192-.596-.596-2.98.596-3.577 0-.28-.281.281-.911 0-1.192-.397-.397-1.987.397-2.384 0-.28-.281.281-.912 0-1.193-.287-.287-4.482.287-4.769 0-.28-.28.281-.91 0-1.192-.28-.28-.795 0-1.192 0h-3.577c-.397 0-1.192.398-1.192 0 0-.397.911-.28 1.192 0 .281.281-.28.911 0 1.192.281.281.912-.28 1.193 0 .28.281 0 .795 0 1.193v1.192c0 3.179-.398-.398 1.192 1.192.596.596-.596 2.98 0 3.577 1.59 1.59 1.192-1.987 1.192 1.192v1.192c0 8.456.843.698-1.192 4.769-.477.954.477 2.623 0 3.576-.251.503-.941.69-1.192 1.193-.216.43 0 5.131 0 5.96 0 .438-.048 4.721 0 4.77.28.28.91-.282 1.192 0 .287.286-.287 4.481 0 4.768.28.281.911-.28 1.192 0 .562.562-.355 1.674 0 2.385.251.502.94.69 1.192 1.192.157.313 0 4.145 0 4.769 0 .623.157 4.455 0 4.768-.251.503-.94.69-1.192 1.193-.362.724.362 6.429 0 7.153-.251.503-.94.69-1.192 1.192-.412.824.418 5.543 0 5.961-.281.281-.911-.28-1.192 0-.596.596.596 2.98 0 3.577-1.59 1.59-1.193-1.987-1.193 1.192v2.384c0-1.888.356-4.643-1.192 0-.125.377.281.912 0 1.192-.28.282-.91-.28-1.192 0-.562.563.562 1.823 0 2.385-.281.28-.911-.281-1.192 0-.281.28.28.911 0 1.192-.281.281-.911-.28-1.192 0-.281.281.177.837 0 1.192-.252.503-.941.69-1.193 1.193-.177.355.281.91 0 1.192-.28.28-.836-.178-1.192 0-4.961 2.48 1.275-.083-1.192 2.384-.281.281-.911-.28-1.192 0-.281.281.28.911 0 1.192-.281.281-.911-.28-1.192 0-.281.281.28.912 0 1.193-.281.28-.912-.281-1.193 0-.28.28.178.836 0 1.192-.25.502-.94.69-1.192 1.192-.178.355.281.911 0 1.192-.28.281-.911-.28-1.192 0-.281.281.281.911 0 1.192-.281.281-.911-.28-1.192 0-.562.562.562 1.823 0 2.385-.281.28-.911-.281-1.192 0-.281.28.28.91 0 1.192-.281.281-.912-.281-1.193 0-.28.281.281.911 0 1.192-.28.281-.91-.28-1.192 0-.28.281.281.911 0 1.192-.28.281-.911-.28-1.192 0-.562.562.562 1.823 0 2.385-.281.28-.911-.281-1.192 0-.596.596.596 2.98 0 3.576-.281.281-.911-.28-1.192 0-.597.596.596 2.98 0 3.577-.281.281-.912-.281-1.193 0-.28.281 0 .795 0 1.192v11.922c0 .562.054 5.907 0 5.961-.28.281-.91-.28-1.192 0-.28.281 0 .795 0 1.192v14.307c-1.192-1.192-2.822-2.069-3.576-3.577-.252-.502.94-.69 1.192-1.192.122-.245.168-3.408 0-3.577-.281-.28-.911.281-1.192 0-2.467-2.466 3.769.097-1.193-2.384-.355-.178-.91.281-1.192 0-.28-.281.281-.911 0-1.192-.28-.281-.795 0-1.192 0h-1.192c-3.18 0 .397.397-1.192-1.192-.597-.596-2.98.596-3.577 0-.281-.281.281-.912 0-1.193-.397-.397-1.987.397-2.384 0-.281-.28.28-.91 0-1.192-.398-.397-1.987.398-2.385 0-.28-.28.281-.911 0-1.192-.596-.596-2.98.596-3.576 0-.281-.281.28-.911 0-1.192-.398-.398-1.987.397-2.385 0-.28-.281.281-.911 0-1.192-.397-.398-1.987.397-2.384 0-.281-.281.28-.912 0-1.193-.596-.596-2.98.597-3.577 0-.28-.28.281-.91 0-1.192-.562-.562-1.673.356-2.384 0-.503-.251-.69-.94-1.192-1.192-.711-.355-1.823.562-2.385 0-.28-.281.281-.911 0-1.192-.28-.281-1.192.397-1.192 0 0-.398 1.473.28 1.192 0-.628-.629-1.541-.911-2.384-1.192-.377-.126-.911.28-1.192 0-.281-.281.28-.912 0-1.193-.281-.28-.912.281-1.193 0-.28-.28.281-.91 0-1.192-.28-.28-.91.281-1.192 0-.28-.28.281-.911 0-1.192-.28-.281-.837.178-1.192 0-.503-.251-.69-.94-1.192-1.192-.356-.178-.911.28-1.192 0-.281-.281.28-.911 0-1.192-.398-.398-1.987.397-2.385 0-.28-.281.281-.912 0-1.193-.596-.596-2.98.596-3.577 0-.28-.28.282-.91 0-1.192-.596-.596-2.98.596-3.576 0-.281-.28.28-.911 0-1.192-.281-.281-.837.178-1.192 0-.503-.251-.69-.94-1.193-1.192-.355-.178-.794 0-1.192 0-.397-.398-.69-.941-1.192-1.192-.71-.356-1.822.562-2.384 0-.281-.281.28-.912 0-1.193-.562-.562-1.674.356-2.385 0-.502-.251-.69-.94-1.192-1.192-.71-.355-1.822.562-2.384 0-.281-.28.28-.911 0-1.192-.287-.287-4.482.287-4.77 0-.28-.281.282-.911 0-1.192-.397-.398-1.986.397-2.384 0-.28-.281.281-.911 0-1.192-.397-.398-1.987.397-2.384 0-.28-.281.281-.912 0-1.193-.397-.397-1.987.398-2.384 0-.281-.28.28-.91 0-1.192-.397-.397-1.988.397-2.385 0-.28-.28.281-.911 0-1.192-.243-.244-3.104.236-3.576 0-.503-.251-.69-.94-1.193-1.192-.71-.356-1.673.355-2.384 0-.503-.252-.69-.941-1.192-1.192-.356-.178-.911.28-1.192 0-1.59-1.59 1.987-1.193-1.193-1.193h-8.345c-.397 0-.911-.28-1.192 0-.281.281.28.912 0 1.193-.281.28-.795 0-1.192 0h-5.961c-.398 0-.912-.281-1.193 0-.28.28.281.91 0 1.192-.038.038-3.287 0-3.576 0h-1.192c-.398 0-.912-.281-1.193 0-.28.28.281.91 0 1.192-.28.281-.794 0-1.192 0h-3.576c-.398 0-1.193.397-1.193 0s1.193.397 1.193 0c0-2.48-1.672-.48-2.385-1.192-.596-.596.596-2.98 0-3.577-.28-.28-.911.281-1.192 0-.281-.28 0-.795 0-1.192 0-.397-.397-1.192 0-1.192s0 1.59 0 1.192c0-1.706.562-2.7-1.192-3.577-.711-.355-1.823.562-2.385 0-.28-.28.281-.91 0-1.192-.28-.28-.836.178-1.192 0-.503-.251-.69-.94-1.192-1.192-.355-.178-.911.28-1.192 0-.281-.281.28-.911 0-1.192-.281-.281-.911.28-1.192 0-.281-.281.28-.911 0-1.192-.562-.562-1.823.562-2.385 0-.28-.281.281-.912 0-1.193-.28-.28-.795 0-1.192 0h-1.192c-.398 0-1.192.398-1.192 0 0-.397 1.59 0 1.192 0-.795 0-1.674.356-2.385 0-.355-.177.281-.91 0-1.192-.28-.28-.91.281-1.192 0-.28-.28.178-.837 0-1.192-.251-.503-.94-.69-1.192-1.192-.178-.356 0-.795 0-1.193v-1.192c0-.397-.397-1.192 0-1.192s0 1.59 0 1.192c0-.795.251-1.63 0-2.384-.178-.533-.941-.69-1.192-1.192-.032-.063-.032-3.515 0-3.577.251-.503.94-.69 1.192-1.192.355-.711-.562-1.823 0-2.385.28-.28.911.282 1.192 0 .281-.28-.28-.91 0-1.192.281-.28.911.281 1.192 0 .281-.28-.28-.91 0-1.192.281-.28.912.281 1.193 0 .562-.562-.562-1.822 0-2.384.28-.281.91.28 1.192 0 .28-.281-.398-1.193 0-1.193.397 0 0 1.59 0 1.193 0-6.756.795-.398-1.192-2.385-.281-.28.28-.91 0-1.192-.281-.28-.912.281-1.193 0-.562-.562.562-1.822 0-2.384-.28-.281-.91.28-1.192 0-.28-.281.281-.912 0-1.193-.28-.28-.911.281-1.192 0-.562-.562.355-1.673 0-2.384-.251-.503-.941-.69-1.192-1.192-.178-.356.28-.911 0-1.192-.281-.281-.911.28-1.192 0-.562-.562.562-1.823 0-2.385-.282-.28-.912.281-1.193 0-.287-.287.287-4.482 0-4.769-.28-.28-.91.281-1.192 0-.28-.28 0-.794 0-1.192v-1.192 2.384c-.397 1.193-.887 2.358-1.192 3.577-.193.771 0 1.59 0 2.384v4.77c0 .397.28.91 0 1.191-.281.281-.911-.28-1.192 0-.281.281.397 1.193 0 1.193-.398 0 0-1.59 0-1.193v3.577c0 .397.28.911 0 1.192-.281.281-.911-.28-1.192 0-.282.281.397 1.192 0 1.192-.398 0 0-1.59 0-1.192 0 .795.355 1.674 0 2.385-.178.355-.912-.281-1.193 0-.28.28.178.836 0 1.192-.251.503-.794 1.59-1.192 1.192-.397-.397 1.754-1.192 1.192-1.192-6.022 0-.916.916-2.384 2.384-.281.281-.911-.28-1.192 0-.281.281.28.911 0 1.192-.281.282-.912-.28-1.193 0-.28.282.281.912 0 1.193-.28.28-.91-.281-1.192 0-.28.28.281.91 0 1.192-.28.28-.91-.281-1.192 0-.28.28.281.911 0 1.192-.562.562-1.822-.562-2.384 0-.281.281.28.911 0 1.192-.281.281-.912-.28-1.193 0-.28.281.281.911 0 1.192-.119.12-3.457.12-3.576 0-.281-.28.28-.91 0-1.192-.281-.28-.911.281-1.192 0-.562-.562.562-1.822 0-2.384-.281-.281-.912.28-1.193 0-.28-.281.178-.837 0-1.192-.25-.503-.94-.69-1.192-1.193-.177-.355.281-.91 0-1.192-.28-.28-.91.281-1.192 0-.562-.562.562-1.822 0-2.384-.28-.281-.911.28-1.192 0-.562-.562.562-1.823 0-2.385-.281-.28-.911.281-1.192 0-.281-.28.28-.91 0-1.192-.281-.28-.912.281-1.193 0-.28-.28.281-.91 0-1.192-.562-.562-1.822.562-2.384 0-.281-.28.281-.911 0-1.192-.281-.281-.837.178-1.192 0-.503-.251-.69-.941-1.192-1.192-.356-.178-.912.28-1.193 0-.28-.281.281-.912 0-1.193-.397-.397-1.987.398-2.384 0-.281-.28.281-.91 0-1.192-.054-.054-5.399 0-5.961 0h-9.538 2.385c-1.192 0-2.446-.377-3.577 0-.377.126.178.837 0 1.192-1.473 2.947-1.192-.411-1.192 2.385l-7.153-4.769c0-.397.28-.911 0-1.192-.281-.281-.911.28-1.192 0-.281-.281.28-.911 0-1.192-.281-.281-.912.28-1.193 0-.562-.562.562-1.823 0-2.385-.28-.28-.91.281-1.192 0-.562-.562.562-1.822 0-2.384-.28-.281-.911.28-1.192 0-.562-.562.562-1.823 0-2.385-.281-.28-.911.281-1.192 0-.596-.596.596-2.98 0-3.576-.281-.281-.911.28-1.192 0-.597-.596.596-2.98 0-3.577-.281-.28-.912.281-1.193 0-.28-.28 0-.795 0-1.192 0-.562.054-5.907 0-5.961-.28-.281-.91.281-1.192 0-.048-.048 0-4.331 0-4.769v-13.114 2.384c0-1.192.377-2.445 0-3.576-.125-.377-1.192.397-1.192 0 0-1.69 5.564 3.378-1.192 0-.356-.178.28-.911 0-1.192-.281-.281-.795 0-1.192 0-.438 0-4.721-.048-4.77 0-.561.562.563 1.822 0 2.384-.28.281-.91-.281-1.191 0s.177.837 0 1.192c-.252.503-.941.69-1.193 1.192-.177.356.281.912 0 1.193-.28.28-.91-.281-1.192 0-.28.28.281.91 0 1.192-.562.562-1.822-.562-2.384 0-.281.28.28.911 0 1.192-.12.12-3.458.12-3.577 0-.28-.281.281-.911 0-1.192-.562-.562-1.822.562-2.384 0-.281-.281.28-.911 0-1.192-.281-.281-.911.28-1.192 0-.281-.281.28-.912 0-1.193-.281-.28-.912.281-1.193 0-.28-.28.281-.91 0-1.192-.28-.28-.91.281-1.192 0-.28-.28.281-.911 0-1.192-.562-.562-1.822.562-2.384 0-.281-.281.28-.911 0-1.192-.281-.281-.911.28-1.192 0-.281-.281.28-.911 0-1.192-.281-.281-.912.28-1.193 0-.28-.281.281-.912 0-1.193-.562-.562-2.384.795-2.384 0 0-1.689 5.564 3.378-1.192 0-3.18-1.59 3.576-1.192-1.192-1.192h-8.346c-.397 0-.911.281-1.192 0-.281-.28.28-.911 0-1.192-.281-.281-.795 0-1.192 0h-2.385 2.385-5.962c-.398 0-1.193.397-1.193 0s1.193.397 1.193 0c0-.562-1.193-.63-1.193-1.192 0-.562.941-.69 1.193-1.192.177-.356 0-.795 0-1.193v-8.345c0-2.178-.286-1.192-2.385-1.192h-1.192 2.384-7.153c-.397 0-.911.28-1.192 0-.28-.281.281-.911 0-1.192-.562-.562-1.822.562-2.384 0-.281-.281.28-.912 0-1.193-.398-.397-1.987.398-2.385 0-.28-.28.281-.91 0-1.192-.562-.562-1.822.562-2.384 0-.281-.28.28-.911 0-1.192-.562-.562-1.823.562-2.385 0-.28-.281.281-.911 0-1.192-.562-.562-2.384.795-2.384 0 0-.398.795 0 1.192 0h1.192c-.794-1.987-1.707-3.931-2.384-5.961-.118-.354-.122-5.717 0-5.961.251-.503.94-.69 1.192-1.192.178-.356 0-.795 0-1.193v-1.192c0-.397-.397-1.192 0-1.192.398 0 .398 1.192 0 1.192-.562 0-.69-.94-1.192-1.192-.473-.236-3.333.244-3.577 0-.28-.281.281-.911 0-1.192-.28-.281-.794 0-1.192 0h-8.344c-.398 0-.911.28-1.192 0-.281-.281.28-.912 0-1.193-.281-.28-.795 0-1.193 0H69.2c-.289 0-3.538.039-3.576 0-.281-.28.28-.91 0-1.192-.281-.28-.795 0-1.192 0H41.78c-.398 0-.911.281-1.192 0-.281-.28.28-.91 0-1.192-.039-.038-3.288 0-3.577 0-.397 0-.911-.28-1.192 0-.281.281.28.911 0 1.192-.281.281-.795 0-1.192 0-.398 0-1.193.398-1.193 0 0-.397 1.59 0 1.193 0h-2.385c-.397 0-1.192.398-1.192 0 0-.397 1.59 0 1.192 0-.795 0-1.822-.562-2.384 0-.398.398.94.69 1.192 1.192.178.356 0 .795 0 1.193 1.318-3.954 1.192-2.32 1.192-4.77 0-.397-.28-.91 0-1.191.281-.281.911.28 1.192 0 .281-.281.281-.912 0-1.193-.28-.28-.794 0-1.192 0"/></g></svg>