<?xml version="1.0" encoding="UTF-8" standalone="no"?>
<!-- Created with Inkscape (http://www.inkscape.org/) -->

<svg
   xmlns:dc="http://purl.org/dc/elements/1.1/"
   xmlns:cc="http://creativecommons.org/ns#"
   xmlns:rdf="http://www.w3.org/1999/02/22-rdf-syntax-ns#"
   xmlns:svg="http://www.w3.org/2000/svg"
   xmlns="http://www.w3.org/2000/svg"
   xmlns:sodipodi="http://sodipodi.sourceforge.net/DTD/sodipodi-0.dtd"
   xmlns:inkscape="http://www.inkscape.org/namespaces/inkscape"
   width="210mm"
   height="297mm"
   viewBox="0 0 744.09448819 1052.3622047"
   id="svg3380"
   version="1.1"
   inkscape:version="0.91 r13725"
   sodipodi:docname="jungle mouseover line.svg">
  <defs
     id="defs3382" />
  <sodipodi:namedview
     id="base"
     pagecolor="#ffffff"
     bordercolor="#666666"
     borderopacity="1.0"
     inkscape:pageopacity="0.0"
     inkscape:pageshadow="2"
     inkscape:zoom="0.35"
     inkscape:cx="375"
     inkscape:cy="520"
     inkscape:document-units="px"
     inkscape:current-layer="layer1"
     showgrid="false"
     inkscape:window-width="1366"
     inkscape:window-height="706"
     inkscape:window-x="-8"
     inkscape:window-y="-8"
     inkscape:window-maximized="1" />
  <metadata
     id="metadata3385">
    <rdf:RDF>
      <cc:Work
         rdf:about="">
        <dc:format>image/svg+xml</dc:format>
        <dc:type
           rdf:resource="http://purl.org/dc/dcmitype/StillImage" />
      </cc:Work>
    </rdf:RDF>
  </metadata>
  <g
     inkscape:label="Layer 1"
     inkscape:groupmode="layer"
     id="layer1">
    <g
       transform="matrix(0.34000712,0,0,0.34000712,-1092.0047,-410.6681)"
       style="display:inline"
       id="g3361">
      <path
         inkscape:connector-curvature="0"
         id="path3347"
         d="m 3303.0326,2696.0558 c 2.3376,-4.6752 4.6752,-9.3504 7.0128,-14.0256 0,-1.1688 -0.5227,-2.461 0,-3.5064 0.7392,-1.4784 2.7672,-2.028 3.5064,-3.5064 0.5227,-1.0454 -0.8265,-2.6799 0,-3.5064 0.8265,-0.8265 2.68,0.8265 3.5064,0 1.653,-1.6529 -1.6529,-5.3599 0,-7.0128 0.8265,-0.8265 2.68,0.8265 3.5064,0 0.8265,-0.8265 -0.5227,-2.461 0,-3.5064 2.1039,-4.2077 8.4154,-6.3115 10.5192,-10.5192 0.5227,-1.0454 -0.8264,-2.6799 0,-3.5064 0.8265,-0.8265 2.461,0.5227 3.5064,0 1.4785,-0.7392 2.3376,-2.3376 3.5064,-3.5064 1.1688,-1.1688 2.7672,-2.028 3.5064,-3.5064 0,-9.3504 -1.1688,1.1688 3.5065,-3.5064 0.8264,-0.8265 -0.5228,-2.461 0,-3.5064 0.7392,-1.4785 2.3376,-2.3376 3.5064,-3.5064 1.1688,-1.1688 2.0279,-2.7672 3.5064,-3.5064 1.0454,-0.5227 3.5064,-1.1688 3.5064,0 0,1.1688 -3.5064,1.1688 -3.5064,0 0,-1.653 2.0279,-2.7672 3.5064,-3.5064 1.0454,-0.5227 2.6799,0.8264 3.5064,0 0.8264,-0.8265 -1.1688,-3.5064 0,-3.5064 1.1688,0 0,2.3376 0,3.5064"
         style="fill:none;fill-rule:evenodd;stroke:#000000;stroke-width:1px;stroke-linecap:butt;stroke-linejoin:miter;stroke-opacity:1" />
      <path
         inkscape:connector-curvature="0"
         id="path3349"
         d="m 3359.1351,2622.4214 c -10.6913,0 -0.047,-3.5539 -3.5064,-7.0129 -0.8265,-0.8264 -2.3376,0 -3.5064,0 -9.3504,0 -18.7009,0 -28.0513,0 14.9425,-22.4137 8.0659,-15.0786 17.532,-24.5448 1.1689,-1.1688 2.7672,-2.028 3.5065,-3.5064 0.5227,-1.0454 -0.8265,-2.6799 0,-3.5064 0.8264,-0.8265 2.6799,0.8265 3.5064,0 0.8264,-0.8265 -0.8265,-2.6799 0,-3.5064 0.8264,-0.8265 2.6799,0.8265 3.5064,0 0.8264,-0.8265 -0.8265,-2.6799 0,-3.5064 0.8264,-0.8265 2.6799,0.8265 3.5064,0 0.8264,-0.8265 -0.8265,-2.6799 0,-3.5064 0.8264,-0.8265 2.6799,0.8265 3.5064,0 0.8264,-0.8265 0,-2.3376 0,-3.5064 0,-1.1688 0,-2.3376 0,-3.5064 0,-9.3504 0,-18.7008 0,-28.0512 0,-5.844 0,-11.6881 0,-17.5321 0,-1.1688 -0.8265,-2.6799 0,-3.5064 0.8264,-0.8264 2.6799,0.8265 3.5064,0 0.8264,-0.8264 -0.8265,-2.6799 0,-3.5064 1.6529,-1.6529 5.3598,1.653 7.0128,0 0.8264,-0.8264 -0.8265,-2.6799 0,-3.5064 0.8264,-0.8264 2.6799,0.8265 3.5064,0 0.1128,-0.1127 0,-9.6688 0,-10.5192 0,-8.1816 0,-16.3632 0,-24.5448 0,-1.1688 -0.8265,-2.68 0,-3.5064 0.8265,-0.8265 2.6799,0.8264 3.5064,0 0.8265,-0.8265 -0.8265,-2.68 0,-3.5064 1.7532,-1.7532 8.766,1.7532 10.5192,0 0.8265,-0.8265 -0.8265,-2.68 0,-3.5064 0.1128,-0.1128 9.6688,0 10.5192,0 15.0852,0 10.0653,0 24.5448,0 1.1688,0 2.3376,0 3.5064,0 1.1688,0 2.68,-0.8265 3.5065,0 0.8264,0.8264 -0.8265,2.6799 0,3.5064 1.6529,1.6529 5.3598,-1.653 7.0128,0 0.8264,0.8264 -0.8265,2.6799 0,3.5064 1.6529,1.6529 5.3598,-1.653 7.0128,0 0.8264,0.8264 -0.8265,2.6799 0,3.5064 0.8264,0.8265 2.3376,0 3.5064,0 1.1688,0 4.6752,0 3.5064,0 -2.3376,0 -7.0128,-2.3376 -7.0128,0 0,9.6554 8.003,0.9902 10.5192,3.5064 0.8264,0.8265 -0.8265,2.6799 0,3.5064 0.8264,0.8265 2.461,-0.5227 3.5064,0 1.4784,0.7392 2.028,2.7672 3.5064,3.5064 1.0454,0.5227 2.6799,-0.8265 3.5064,0 1.6529,1.6529 -1.6529,5.3599 0,7.0128 0.8265,0.8265 2.6799,-0.8265 3.5064,0 0.8265,0.8265 0.8265,2.6799 0,3.5064 -0.8265,0.8265 -2.3376,0 -3.5064,0 0,-34.9465 -3.3059,-3.9075 3.5064,-17.532 0.5227,-1.0454 -0.5227,-2.461 0,-3.5064 0.7392,-1.4784 2.7672,-2.028 3.5064,-3.5064 0.5227,-1.0454 -0.5227,-2.461 0,-3.5064 0.7392,-1.4785 2.7672,-2.028 3.5064,-3.5064 0.5227,-1.0454 -0.8265,-2.68 0,-3.5064 0.8265,-0.8265 2.6799,0.8264 3.5064,0 0.8265,-0.8265 -0.8265,-2.68 0,-3.5064 0.8265,-0.8265 2.6799,0.8264 3.5064,0 0.8265,-0.8265 -0.8265,-2.68 0,-3.5064 0.8265,-0.8265 2.6799,0.8264 3.5064,0 0.8265,-0.8265 -0.8265,-2.68 0,-3.5064 1.6529,-1.653 5.3599,1.6529 7.0128,0 0.8265,-0.8265 -1.1688,-3.5064 0,-3.5064 1.1688,0 -0.8264,2.6799 0,3.5064 0.8265,0.8264 2.68,-0.8265 3.5064,0 0.8265,0.8264 -0.8264,2.6799 0,3.5064 0.8265,0.8264 2.68,-0.8265 3.5064,0 0.8265,0.8264 -0.8264,2.6799 0,3.5064 0.8265,0.8264 2.68,-0.8265 3.5064,0 0.8265,0.8264 -0.8264,2.6799 0,3.5064 0.8265,0.8264 2.68,-0.8265 3.5064,0 0.8265,0.8264 -0.8264,2.6799 0,3.5064 1.7532,1.7532 8.766,-1.7532 10.5193,0 0.8264,0.8264 -0.8265,2.6799 0,3.5064 0.8264,0.8264 2.3376,0 3.5064,0 1.1688,0 2.3376,0 3.5064,0 9.3504,0 18.7008,0 28.0512,0 1.1688,0 2.3376,0 3.5064,0 1.1688,0 2.6799,-0.8265 3.5064,0 4.6752,4.6752 -5.844,3.5064 3.5064,3.5064 2.3376,0 9.3504,0 7.0128,0 -2.3376,0 -9.3504,0 -7.0128,0 3.5064,0 7.0128,0 10.5192,0 1.1688,0 3.5064,-1.1688 3.5064,0 0,1.1688 -4.6752,0 -3.5064,0 2.3376,0 4.6752,0 7.0128,0 1.1688,0 3.5064,-1.1688 3.5064,0 0,1.1688 -2.3376,0 -3.5064,0 3.5064,-1.1688 7.0128,-2.3376 10.5192,-3.5064 0,-1.1688 -0.8264,-2.68 0,-3.5064 0.8265,-0.8265 2.461,0.5227 3.5064,0 1.4785,-0.7392 2.028,-2.7672 3.5064,-3.5064 1.0455,-0.5227 2.461,0.5227 3.5064,0 0.9338,-0.4669 6.0791,-6.546 7.0129,-7.0128 1.0454,-0.5227 2.461,0.5227 3.5064,0 2.9568,-1.4785 4.0559,-5.5344 7.0128,-7.0128 1.0454,-0.5228 2.6799,0.8264 3.5064,0 0.8264,-0.8265 -0.8265,-2.68 0,-3.5065 0.8264,-0.8264 2.461,0.5228 3.5064,0 1.4784,-0.7392 2.028,-2.7671 3.5064,-3.5064 1.0454,-0.5227 2.6799,0.8265 3.5064,0 0.8265,-0.8264 -0.8265,-2.6799 0,-3.5064 0.8265,-0.8264 2.6799,0.8265 3.5064,0 0.8265,-0.8264 -0.8265,-2.6799 0,-3.5064 0.8265,-0.8264 2.461,0.5227 3.5064,0 1.4784,-0.7392 2.028,-2.7672 3.5064,-3.5064 1.0454,-0.5227 2.6799,0.8265 3.5064,0 0.8265,-0.8264 -0.8265,-2.6799 0,-3.5064 0.8265,-0.8264 2.6799,0.8265 3.5064,0 0.8265,-0.8264 -0.8265,-2.6799 0,-3.5064 0.8265,-0.8264 2.6799,0.8265 3.5064,0 0.8265,-0.8264 0,-2.3376 0,-3.5064 0,-1.1688 0.8265,-2.6799 0,-3.5064 -0.8265,-0.8265 -2.6799,0.8265 -3.5064,0 -0.8265,-0.8265 0.5227,-2.461 0,-3.5064 -0.7392,-1.4784 -2.7672,-2.028 -3.5064,-3.5064 -0.5227,-1.0454 0.8265,-2.6799 0,-3.5064 -0.8265,-0.8265 -2.6799,0.8265 -3.5064,0 -0.8265,-0.8265 0.8265,-2.6799 0,-3.5064 -0.8265,-0.8265 -2.6799,0.8265 -3.5064,0 -0.8265,-0.8265 0.8265,-2.6799 0,-3.5064 -1.169,-1.169 -5.8439,1.1689 -7.0128,0 -0.8265,-0.8265 0.8265,-2.6799 0,-3.5064 -0.8265,-0.8265 -2.68,0.8265 -3.5064,0 -0.8265,-0.8265 0.8264,-2.6799 0,-3.5064 -0.8265,-0.8265 -2.68,0.8265 -3.5064,0 -0.8265,-0.8265 -0.8265,-2.6799 0,-3.5064 1.7532,-1.7532 8.766,1.7532 10.5192,0 0.8265,-0.8265 -0.8265,-2.68 0,-3.5064 1.6529,-1.653 5.3599,1.6529 7.0128,0 0.8265,-0.8265 -0.8265,-2.68 0,-3.5064 1.6529,-1.653 5.3599,1.6529 7.0128,0 0.8265,-0.8265 -0.8265,-2.68 0,-3.5064 1.6529,-1.653 5.3599,1.6529 7.0128,0 0.8265,-0.8265 -0.8265,-2.68 0,-3.5064 0.8265,-0.8265 3.5064,-1.1688 3.5064,0 0,1.6529 -3.5064,5.1593 -3.5064,3.5064 0,-17.7137 2.6948,-2.6948 7.0128,-7.0128 1.653,-1.653 -1.6529,-5.3599 0,-7.0128 0.8265,-0.8265 2.68,0.8264 3.5064,0 0.8265,-0.8265 -0.5227,-2.461 0,-3.5064 1.4785,-2.9569 5.5344,-4.056 7.0128,-7.0129 0.5227,-1.0454 -0.8264,-2.6799 0,-3.5064 0.8265,-0.8264 2.68,0.8265 3.5064,0 0.8265,-0.8264 -0.8264,-2.6799 0,-3.5064 0.8265,-0.8264 2.68,0.8265 3.5064,0 0.8265,-0.8264 -0.8264,-2.6799 0,-3.5064 0.8265,-0.8264 3.5064,-1.1688 3.5064,0 0,1.1688 -3.5064,1.1688 -3.5064,0 0,-1.6529 2.028,-2.7672 3.5064,-3.5064 2.0909,-1.0454 4.922,1.0454 7.0129,0 1.4784,-0.7392 2.0279,-2.7672 3.5064,-3.5064 1.3902,-0.6951 9.8023,0.7169 10.5192,0 0.8264,-0.8264 -0.8265,-2.6799 0,-3.5064 0.1127,-0.1127 9.6688,0 10.5192,0 1.1688,0 2.3376,0 3.5064,0 1.1688,0 2.461,0.5227 3.5064,0 1.4784,-0.7392 2.028,-2.7672 3.5064,-3.5064 1.0454,-0.5227 2.3376,0 3.5064,0 1.1688,0 2.3376,0 3.5064,0 1.1688,0 3.5064,-1.1688 3.5064,0 0,1.1688 -4.6752,0 -3.5064,0 3.5064,0 7.0128,0 10.5192,0 1.1688,0 2.68,0.8265 3.5064,0 0.8265,-0.8265 -0.8264,-2.6799 0,-3.5064 0.1411,-0.1411 12.738,0 14.0256,0 1.1688,0 2.3376,0 3.5064,0 1.1688,0 3.5064,-1.1688 3.5064,0 0,1.1688 -4.6752,0 -3.5064,0 2.3376,0 4.6752,0 7.0128,0 1.1688,0 2.68,-0.8265 3.5064,0 0.8265,0.8265 -0.8264,2.6799 0,3.5064 0.8265,0.8265 2.68,-0.8265 3.5065,0 0.8264,0.8265 -0.5227,2.461 0,3.5064 0.7392,1.4784 2.7671,2.028 3.5064,3.5064 0.5227,1.0454 1.1688,3.5064 0,3.5064 -1.1688,0 -1.1688,-3.5064 0,-3.5064 1.6529,0 2.0279,2.7672 3.5064,3.5064 1.0454,0.5227 2.3376,0 3.5064,0 1.1688,0 2.3376,0 3.5064,0 7.0128,0 14.0256,0 21.0384,0 1.1688,0 2.3376,0 3.5064,0 1.1688,0 2.6799,0.8265 3.5064,0 0.8265,-0.8264 -0.8265,-2.6799 0,-3.5064 1.7532,-1.7532 8.766,1.7532 10.5192,0 0.3507,-0.3506 0.3507,-10.1685 0,-10.5192 -0.8265,-0.8265 -2.6799,0.8265 -3.5064,0 -1.0857,-1.0857 1.0858,-16.4463 0,-17.532 -0.8265,-0.8265 -2.6799,0.8265 -3.5064,0 -0.8265,-0.8265 0,-2.3376 0,-3.5064 0,-1.1688 0,-2.3376 0,-3.5064 0,-7.0128 0,-14.0256 0,-21.0384 0,-1.1688 -0.8265,-2.68 0,-3.5064 0.8265,-0.8265 2.6799,0.8264 3.5064,0 0.8265,-0.8265 -0.8265,-2.68 0,-3.5064 0.8265,-0.8265 3.5064,-1.1689 3.5064,0 0,1.6529 -2.3376,2.3376 -3.5064,3.5064 -1.7919,13.5856 13.3179,-7.7206 17.532,-3.5064 0.8265,0.8264 -0.8264,2.6799 0,3.5064 1.653,1.6529 5.3599,-1.653 7.0128,0 0.8265,0.8264 -0.8264,2.6799 0,3.5064 1.653,1.6529 5.3599,-1.653 7.0128,0 0.8265,0.8264 -0.8264,2.6799 0,3.5064 0.8265,0.8264 2.68,-0.8265 3.5065,0 0.8264,0.8264 -0.8265,2.6799 0,3.5064 0.8264,0.8264 2.6799,-0.8265 3.5064,0 0.8264,0.8264 -0.8265,2.6799 0,3.5064 9.3504,0 -1.1688,-1.1688 3.5064,3.5064 0.8264,0.8264 2.6799,-0.8265 3.5064,0 0.8264,0.8264 -0.8265,2.6799 0,3.5064 0.8264,0.8264 2.6799,-0.8265 3.5064,0 0.8264,0.8264 -0.8265,2.6799 0,3.5064 0.8264,0.8265 2.6799,-0.8265 3.5064,0 0.8264,0.8265 -0.8265,2.6799 0,3.5064 0.8264,0.8265 2.6799,-0.8265 3.5064,0 0.8264,0.8265 -0.8265,2.6799 0,3.5064 0.8264,0.8265 2.6799,-0.8265 3.5064,0 0.8264,0.8265 -0.8265,2.6799 0,3.5064 0.8264,0.8265 2.6799,-0.8265 3.5064,0 0.8265,0.8265 -0.8265,2.6799 0,3.5064 1.1678,1.1678 5.845,-1.1678 7.0128,0 0.8265,0.8265 -0.8265,2.6799 0,3.5064 1.6529,1.6529 5.3599,-1.6529 7.0128,0 0.8265,0.8265 -0.8265,2.6799 0,3.5064 1.6529,1.6529 5.3599,-1.6529 7.0128,0 0.8265,0.8265 -0.8265,2.6799 0,3.5064 1.7532,1.7532 8.766,-1.7532 10.5192,0 0.8265,0.8265 -0.8264,2.6799 0,3.5064 1.653,1.653 5.3599,-1.6529 7.0128,0 0.8265,0.8265 -0.8264,2.68 0,3.5064 0.8265,0.8265 2.3376,0 3.5064,0 5.844,0 11.688,0 17.5321,0 1.1688,0 2.6799,-0.8264 3.5064,0 0.8264,0.8265 -0.8265,2.68 0,3.5064 1.7532,1.7532 8.766,-1.7532 10.5192,0 0.8264,0.8265 -0.8265,2.68 0,3.5064 1.0857,1.0858 16.4462,-1.0857 17.532,0 0.8265,0.8265 -0.8265,2.68 0,3.5064 1.7532,1.7532 8.766,-1.7532 10.5192,0 0.8265,0.8265 -0.8265,2.68 0,3.5064 0.8265,0.8265 2.3376,0 3.5064,0 1.1688,0 2.3376,0 3.5064,0 8.1816,0 16.3632,0 24.5448,0 1.1688,0 2.68,-0.8264 3.5064,0 0.8265,0.8265 -0.8264,2.68 0,3.5064 4.6752,4.6752 3.5064,-5.844 3.5064,3.5064 -3.5064,-4.6752 -7.0128,-9.3504 -10.5192,-14.0256 -1.1688,0 -2.6799,0.8265 -3.5064,0 -1.1689,-1.1689 1.169,-5.8438 0,-7.0128 -0.8264,-0.8264 -2.6799,0.8265 -3.5064,0 -0.8264,-0.8264 0,-2.3376 0,-3.5064 0,-1.1688 -0.8264,-2.6799 0,-3.5064 0.8265,-0.8265 2.68,0.8265 3.5064,0 0.8265,-0.8265 -0.8264,-2.6799 0,-3.5064 0.8265,-0.8265 2.68,0.8265 3.5064,0 0.8265,-0.8265 -0.8264,-2.6799 0,-3.5064 0.8265,-0.8265 2.68,0.8265 3.5064,0 0.8265,-0.8265 -0.8264,-2.6799 0,-3.5064 0.8265,-0.8265 2.68,0.8265 3.5064,0 0.8265,-0.8265 -0.8264,-2.6799 0,-3.5064 0.8265,-0.8265 2.461,0.5227 3.5064,0 1.4785,-0.7392 2.3376,-2.3376 3.5064,-3.5064 1.1689,-1.1688 2.7672,-2.028 3.5065,-3.5064 0.5227,-1.0454 -0.8265,-2.6799 0,-3.5064 0.8264,-0.8265 2.6799,0.8265 3.5064,0 0.8264,-0.8265 -0.8265,-2.68 0,-3.5064 0.8264,-0.8265 2.6799,0.8264 3.5064,0 0.8264,-0.8265 -0.8265,-2.68 0,-3.5064 0.8264,-0.8265 2.6799,0.8264 3.5064,0 0.8264,-0.8265 -0.8265,-2.68 0,-3.5064 0.8264,-0.8265 2.461,0.5227 3.5064,0 1.4784,-0.7392 2.0279,-2.7672 3.5064,-3.5064 2.0908,-1.0454 5.3598,1.6529 7.0128,0 0.8264,-0.8265 -0.8265,-2.68 0,-3.5064 0.8437,-0.8438 13.1818,0.8437 14.0256,0 0.8265,-0.8265 -0.8265,-2.68 0,-3.5064 0.8265,-0.8265 2.3376,0 3.5064,0 2.4388,0 16.264,-0.6341 17.532,0 1.4785,0.7392 2.028,2.7671 3.5064,3.5064 1.0454,0.5227 2.68,-0.8265 3.5064,0 0.8265,0.8264 -0.8264,2.6799 0,3.5064 1.1678,1.1678 5.845,-1.1678 7.0128,0 8.2232,8.2231 -10.8028,0 -3.5064,0 2.6136,0 4.5334,2.6799 7.0128,3.5064 1.1089,0.3696 2.68,-0.8265 3.5064,0 0.8265,0.8264 -0.8264,2.6799 0,3.5064 0.8265,0.8264 2.68,-0.8265 3.5064,0 0.8265,0.8264 -0.8264,2.6799 0,3.5064 1.1679,1.1678 5.845,-1.1678 7.0129,0 0.8264,0.8264 -0.8265,2.6799 0,3.5064 0.8264,0.8265 2.6799,-0.8265 3.5064,0 0.8264,0.8265 -0.8265,2.6799 0,3.5064 0.8264,0.8265 2.6799,-0.8265 3.5064,0 0.8264,0.8265 -0.8265,2.6799 0,3.5064 0.8264,0.8265 2.6799,-0.8265 3.5064,0 0.8264,0.8265 -0.8265,2.6799 0,3.5064 0.8264,0.8265 2.6799,-0.8265 3.5064,0 0.8264,0.8265 0,2.3376 0,3.5064 1.1688,0 2.461,-0.5227 3.5064,0 1.4784,0.7392 2.028,2.7672 3.5064,3.5064 1.0454,0.5227 4.3329,0.8265 3.5064,0 -1.8481,-1.848 -7.0128,-6.1199 -7.0128,-3.5064 0,19.268 6.4785,2.9721 10.5192,7.0128 0.8265,0.8265 -0.8265,2.6799 0,3.5064 0.8265,0.8265 2.3376,0 3.5064,0 5.844,0 11.688,0 17.532,0 1.1688,0 2.3376,0 3.5064,0 1.1688,0 2.68,0.8265 3.5064,0 0.8265,-0.8265 0,-2.3376 0,-3.5064 1.1688,0 2.68,0.8265 3.5064,0 0.8265,-0.8265 -0.8264,-2.6799 0,-3.5064 0.8265,-0.8265 2.3376,0 3.5064,0 1.1688,0 2.3376,0 3.5064,0 1.1688,0 4.6752,0 3.5064,0 -2.3376,0 -9.3504,0 -7.0128,0 3.5064,0 7.0128,0 10.5192,0 1.1688,0 2.3376,0 3.5064,0 1.1688,0 2.68,-0.8265 3.5065,0 0.8264,0.8265 -0.8265,2.6799 0,3.5064 1.1678,1.1678 5.845,-1.1678 7.0128,0 0.8264,0.8265 -0.8265,2.6799 0,3.5064 1.1689,1.169 5.8438,-1.1689 7.0128,0 0.8264,0.8265 -0.8265,2.6799 0,3.5064 1.7532,1.7532 8.766,-1.7532 10.5192,0 0.8264,0.8265 -0.8265,2.68 0,3.5064 0.1411,0.1411 12.7379,0 14.0256,0 1.1688,0 4.6752,0 3.5064,0 -2.3376,0 -9.3504,0 -7.0128,0 3.5064,0 7.0128,0 10.5192,0 1.1688,0 3.5064,-1.1688 3.5064,0 0,1.1688 -4.6752,0 -3.5064,0 2.3376,0 4.922,1.0454 7.0128,0 1.0454,-0.5227 -0.8265,-2.6799 0,-3.5064 1.1678,-1.1678 5.845,1.1678 7.0128,0 0.8265,-0.8265 -0.8264,-2.6799 0,-3.5064 0.8265,-0.8265 2.461,0.5227 3.5064,0 1.4785,-0.7392 2.3376,-2.3376 3.5064,-3.5064 1.1688,-1.1688 2.7672,-2.028 3.5064,-3.5064 0.5227,-1.0454 -0.8264,-2.6799 0,-3.5064 0.8265,-0.8265 2.68,0.8265 3.5064,0 0.8265,-0.8265 -0.8264,-2.6799 0,-3.5064 0.8265,-0.8265 2.68,0.8265 3.5064,0 0.8265,-0.8265 -0.8264,-2.6799 0,-3.5064 0.8265,-0.8265 2.68,0.8265 3.5064,0 0.8265,-0.8265 -0.8264,-2.6799 0,-3.5064 0.8265,-0.8265 2.68,0.8265 3.5064,0 0.8265,-0.8265 -0.8264,-2.6799 0,-3.5064 0.8265,-0.8265 2.68,0.8265 3.5065,0 0.8264,-0.8265 -0.8265,-2.68 0,-3.5064 0.8264,-0.8265 2.6799,0.8264 3.5064,0 0.8264,-0.8265 -0.8265,-2.68 0,-3.5064 0.8264,-0.8265 2.461,0.5227 3.5064,0 1.4784,-0.7392 2.0279,-2.7672 3.5064,-3.5064 1.0454,-0.5227 3.5064,-1.1688 3.5064,0 0,1.1688 -3.5064,1.1688 -3.5064,0 0,-1.653 2.0279,-2.7672 3.5064,-3.5064 1.3902,-0.6952 9.8023,0.7168 10.5192,0 0.8264,-0.8265 -0.8265,-2.68 0,-3.5064 0.8264,-0.8265 2.3376,0 3.5064,0 5.844,0 11.688,0 17.532,0 1.1688,0 2.3376,0 3.5064,0 1.1688,0 2.6799,-0.8265 3.5064,0 0.8265,0.8264 -0.8265,2.6799 0,3.5064 0.8265,0.8264 2.3376,0 3.5064,0 1.1688,0 2.3376,0 3.5064,0 13.2464,0 -15.584,0 7.0128,0 1.1688,0 3.5064,-1.1688 3.5064,0 0,1.0477 -11.6292,-2.3083 0,3.5064 1.0454,0.5227 2.68,-0.8265 3.5064,0 1.653,1.6529 -1.6529,5.3598 0,7.0128 0.8265,0.8264 2.68,-0.8265 3.5064,0 1.653,1.6529 -1.6529,5.3599 0,7.0128 0.8265,0.8265 2.68,-0.8265 3.5064,0 0.8265,0.8265 -0.5227,2.461 0,3.5064 0.7393,1.4784 2.7672,2.028 3.5064,3.5064 1.0455,2.0908 -1.6529,5.3599 0,7.0128 0.8265,0.8265 2.68,-0.8265 3.5065,0 1.6529,1.6529 -1.653,5.3599 0,7.0128 0.8437,0.8438 13.1818,-0.8437 14.0256,0 4.6752,4.6752 -5.844,3.5064 3.5064,3.5064 -1.7919,-21.1653 13.3178,0.7078 17.532,-3.5064 0.8265,-0.8265 -0.8265,-2.6799 0,-3.5064 0.8265,-0.8265 2.6799,0.8265 3.5064,0 0.8265,-0.8265 -0.8265,-2.6799 0,-3.5064 0.8265,-0.8265 3.5064,-1.1688 3.5064,0 0,1.1688 -4.6752,0 -3.5064,0 0.9048,0 8.314,0 10.5192,0 1.1688,0 4.6752,0 3.5064,0 -13.6976,0 -4.5518,-1.0454 0,3.5064 0.8265,0.8265 -0.8265,2.6799 0,3.5064 0.8265,0.8265 2.461,-0.5227 3.5064,0 1.4784,0.7392 4.6752,2.3376 3.5064,3.5064 -1.1688,1.1688 -5.1593,-3.5064 -3.5064,-3.5064 2.6135,0 4.5334,2.6799 7.0128,3.5064 1.1088,0.3696 2.3376,0 3.5064,0 1.1688,0 2.3376,0 3.5064,0 1.1688,0 3.5064,-1.1688 3.5064,0 0,1.1688 -4.6752,0 -3.5064,0 3.5064,0 7.0128,0 10.5192,0 1.2877,0 13.8846,0.1411 14.0257,0 0.8264,-0.8265 -0.8265,-2.6799 0,-3.5064 1.1678,-1.1678 5.845,1.1678 7.0128,0 0.8264,-0.8265 -0.5227,-2.461 0,-3.5064 2.3379,-4.6758 4.6749,-2.337 7.0128,-7.0128 0.5227,-1.0454 -0.8265,-2.6799 0,-3.5064 0.8264,-0.8265 2.6799,0.8265 3.5064,0 0.8264,-0.8265 -0.8265,-2.6799 0,-3.5064 0.8264,-0.8265 2.6799,0.8265 3.5064,0 0.8265,-0.8265 -0.8265,-2.6799 0,-3.5064 0.8265,-0.8265 2.6799,0.8265 3.5064,0 0.8265,-0.8265 -0.8265,-2.6799 0,-3.5064 0.8265,-0.8265 2.6799,0.8265 3.5064,0 0.8265,-0.8265 -0.8265,-2.68 0,-3.5064 1.1689,-1.169 5.8439,1.1689 7.0128,0 0.8265,-0.8265 -0.8265,-2.68 0,-3.5064 0.8265,-0.8265 2.461,0.5227 3.5064,0 1.4784,-0.7392 2.028,-2.7672 3.5064,-3.5064 1.0454,-0.5227 2.6799,0.8264 3.5064,0 0.8265,-0.8265 -0.8265,-2.68 0,-3.5064 1.169,-1.169 5.8439,1.1689 7.0128,0 0.8265,-0.8265 -0.8264,-2.68 0,-3.5064 0.8265,-0.8265 2.68,0.8264 3.5064,0 0.8265,-0.8265 -0.8264,-2.68 0,-3.5064 1.1678,-1.1678 5.845,1.1678 7.0128,0 0.8265,-0.8265 -0.8264,-2.68 0,-3.5064 0.8265,-0.8265 2.68,0.8264 3.5064,0 0.8265,-0.8265 -0.8264,-2.68 0,-3.5064 0.8265,-0.8265 2.68,0.8264 3.5064,0 0.8265,-0.8265 -0.8264,-2.68 0,-3.5065 0.8438,-0.8437 13.1819,0.8438 14.0257,0 0.8264,-0.8264 -0.8265,-2.6799 0,-3.5064 0.8264,-0.8264 2.3376,0 3.5064,0 1.1688,0 2.3376,0 3.5064,0 1.1688,0 4.6752,0 3.5064,0 -2.3376,0 -7.0128,2.3376 -7.0128,0 0,-4.4726 11.3809,-3.5064 14.0256,-3.5064 1.1688,0 4.6752,0 3.5064,0 -2.3376,0 -9.3504,0 -7.0128,0 3.5064,0 7.1927,-1.1088 10.5192,0 1.1088,0.3696 -0.8265,2.68 0,3.5064 0.8265,0.8265 2.6799,-0.8264 3.5064,0 0.8265,0.8265 -0.8265,2.68 0,3.5064 0.8265,0.8265 2.6799,-0.8264 3.5064,0 0.8265,0.8265 -0.5227,2.461 0,3.5065 0.7392,1.4784 2.3376,2.3376 3.5064,3.5064 1.1688,1.1688 2.028,2.7671 3.5064,3.5064 1.0454,0.5227 2.6799,-0.8265 3.5064,0 0.8265,0.8264 -0.8265,2.6799 0,3.5064 1.1678,1.1678 5.845,-1.1678 7.0128,0 0.8265,0.8264 -0.8265,2.6799 0,3.5064 1.169,1.1689 5.8439,-1.169 7.0128,0 0.8265,0.8264 -0.8264,2.6799 0,3.5064 1.0858,1.0857 16.4463,-1.0858 17.532,0 0.8265,0.8264 -0.8264,2.6799 0,3.5064 1.653,1.6529 4.922,-1.0454 7.0129,0 1.4784,0.7392 2.0279,2.7672 3.5064,3.5064 2.0908,1.0454 5.3598,-1.653 7.0128,0 0.8264,0.8264 -0.8265,2.6799 0,3.5064 1.6529,1.6529 5.3598,-1.653 7.0128,0 0.8264,0.8265 -0.8265,2.6799 0,3.5064 0.8264,0.8265 2.3376,0 3.5064,0 1.1688,0 2.3376,0 3.5064,0 1.1688,0 2.461,-0.5227 3.5064,0 0.9129,0.4564 4.2717,6.2474 7.0128,3.5064 0.8265,-0.8265 -0.5227,-2.461 0,-3.5064 7.2964,-14.5928 -0.2421,3.7485 7.0128,-3.5064 0.8265,-0.8265 -0.8265,-2.68 0,-3.5064 0.8265,-0.8265 2.3376,0 3.5064,0 1.1688,0 2.6799,-0.8265 3.5064,0 0.8265,0.8264 -0.8265,2.6799 0,3.5064 0.8265,0.8265 2.6799,-0.8265 3.5064,0 0.8265,0.8265 -0.8265,2.6799 0,3.5064 0.8265,0.8265 2.6799,-0.8265 3.5064,0 0.8265,0.8265 -0.8265,2.6799 0,3.5064 0.8265,0.8265 2.461,-0.5227 3.5064,0 1.4785,0.7392 2.028,2.7672 3.5064,3.5064 1.0454,0.5227 2.68,-0.8265 3.5064,0 0.8265,0.8265 0,2.3376 0,3.5064 1.1688,0 2.68,-0.8265 3.5064,0 0.8265,0.8265 -0.8264,2.6799 0,3.5064 0.8265,0.8265 2.68,-0.8265 3.5064,0 0.8265,0.8265 -0.8264,2.6799 0,3.5064 0.5157,0.5157 10.5192,-0.4125 10.5192,0 0,1.1688 -4.6752,0 -3.5064,0 2.3376,0 4.7952,0.7392 7.0129,0 2.3743,-0.7914 7.8407,-9.18 10.5192,-10.5192 1.0454,-0.5227 2.461,0.5227 3.5064,0 1.4784,-0.7392 2.0279,-2.7672 3.5064,-3.5064 1.0454,-0.5227 2.6799,0.8265 3.5064,0 0.8264,-0.8265 -0.8265,-2.6799 0,-3.5064 1.6529,-1.6529 5.3599,1.6529 7.0128,0 0.8265,-0.8265 -0.8265,-2.6799 0,-3.5064 0.8265,-0.8265 2.461,0.5227 3.5064,0 1.4784,-0.7392 2.028,-2.7672 3.5064,-3.5064 2.0908,-1.0454 5.3599,1.6529 7.0128,0 0.8265,-0.8265 -0.8265,-2.68 0,-3.5064 1.169,-1.169 5.8439,1.1689 7.0128,0 0.8265,-0.8265 -0.8265,-2.68 0,-3.5064 1.7532,-1.7532 8.766,1.7532 10.5192,0 0.8265,-0.8265 -0.8264,-2.68 0,-3.5064 0.8265,-0.8265 2.68,0.8264 3.5064,0 0.8265,-0.8265 -0.8264,-2.68 0,-3.5064 0.8265,-0.8265 2.68,0.8264 3.5064,0 0.8265,-0.8265 -0.8264,-2.68 0,-3.5064 0.8265,-0.8265 2.68,0.8264 3.5064,0 1.653,-1.653 -1.6529,-5.3599 0,-7.0128 0.8265,-0.8265 2.68,0.8264 3.5064,0 1.653,-1.653 -1.6529,-5.3599 0,-7.0129 0.8265,-0.8264 2.68,0.8265 3.5064,0 1.7532,-1.7532 -1.7532,-8.766 0,-10.5192 0.8265,-0.8264 2.68,0.8265 3.5064,0 0.8265,-0.8264 0,-2.3376 0,-3.5064 0,-1.1688 0.8265,-2.6799 0,-3.5064 -0.8264,-0.8264 -2.3376,0 -3.5064,0 10.5192,0 21.0385,0 31.5577,0 1.1688,0 2.6799,-0.8264 3.5064,0 0.8264,0.8265 -0.8265,2.68 0,3.5064 1.1689,1.169 5.8438,-1.1689 7.0128,0 0.8265,0.8265 -0.8265,2.68 0,3.5064 0.8265,0.8265 2.6799,-0.8264 3.5064,0 0.8265,0.8265 -0.8265,2.68 0,3.5064 0.8265,0.8265 2.461,-0.5227 3.5064,0 1.4784,0.7392 2.028,2.7672 3.5064,3.5064 1.0454,0.5227 2.6799,-0.8264 3.5064,0 0.8265,0.8265 -0.8265,2.68 0,3.5064 0.8265,0.8265 2.6799,-0.8264 3.5064,0 0.8265,0.8265 -0.8265,2.68 0,3.5064 0.8265,0.8265 2.6799,-0.8264 3.5064,0 0.8265,0.8265 -0.8265,2.68 0,3.5065 0.8265,0.8264 2.68,-0.8265 3.5064,0 0.8265,0.8264 -0.8264,2.6799 0,3.5064 0.8265,0.8264 2.68,-0.8265 3.5064,0 4.6752,4.6752 -5.844,3.5064 3.5064,3.5064 0.8504,0 10.4065,0.1127 10.5192,0 0.8265,-0.8265 -0.8264,-2.68 0,-3.5064 0.8265,-0.8265 2.68,0.8264 3.5064,0 0.8265,-0.8265 -0.8264,-2.68 0,-3.5064 0.8265,-0.8265 2.68,0.8264 3.5064,0 0.8265,-0.8265 -0.8264,-2.68 0,-3.5065 0.8265,-0.8264 2.68,0.8265 3.5065,0 0.8264,-0.8264 -0.8265,-2.6799 0,-3.5064 0.8264,-0.8264 2.6799,0.8265 3.5064,0 0.8264,-0.8264 -0.8265,-2.6799 0,-3.5064 0.8264,-0.8264 2.6799,0.8265 3.5064,0 0.8264,-0.8264 -0.8265,-2.6799 0,-3.5064 0.8264,-0.8264 2.6799,0.8265 3.5064,0 0.8264,-0.8264 -0.8265,-2.6799 0,-3.5064 1.1678,-1.1678 5.845,1.1678 7.0128,0 0.8264,-0.8264 -0.8265,-2.6799 0,-3.5064 0.8264,-0.8264 2.3376,0 3.5064,0 1.1688,0 2.3376,0 3.5064,0 9.3504,0 18.7008,0 28.0512,0 0.8504,0 10.4065,0.1128 10.5192,0 0.8265,-0.8264 -0.8264,-2.6799 0,-3.5064 0.8265,-0.8264 2.461,0.5227 3.5064,0 1.4785,-0.7392 2.028,-2.7672 3.5064,-3.5064 1.0454,-0.5227 2.68,0.8265 3.5064,0 0.8265,-0.8264 -0.8264,-2.6799 0,-3.5064 0.8265,-0.8265 2.68,0.8265 3.5064,0 0.8265,-0.8265 -0.8264,-2.6799 0,-3.5064 0.8265,-0.8265 2.68,0.8265 3.5064,0 0.8265,-0.8265 -0.8264,-2.6799 0,-3.5064 0.8265,-0.8265 2.68,0.8265 3.5064,0 0.8265,-0.8265 0,-2.3376 0,-3.5064 0,-1.1688 0,-2.3376 0,-3.5064 0,-1.1688 0,-4.6752 0,-3.5064 0,2.3376 0,9.3504 0,7.0128 0,-3.5064 -1.1088,-7.1927 0,-10.5192 0.1349,-0.4046 9.7101,0 10.5193,0 9.3504,0 -1.1688,-1.1688 3.5064,3.5064 1.1678,1.1678 5.845,-1.1678 7.0128,0 0.8264,0.8265 -0.8265,2.6799 0,3.5064 0.8264,0.8265 2.6799,-0.8265 3.5064,0 0.8264,0.8265 -0.8265,2.6799 0,3.5064 0.8264,0.8265 2.461,-0.5227 3.5064,0 1.4784,0.7392 2.028,2.7672 3.5064,3.5064 1.0454,0.5227 2.6799,-0.8265 3.5064,0 0.8265,0.8265 -0.8265,2.6799 0,3.5064 0.8265,0.8265 2.6799,-0.8265 3.5064,0 1.6529,1.6529 -1.6529,5.3599 0,7.0128 0.8265,0.8265 2.6799,-0.8264 3.5064,0 0.8265,0.8265 0,2.3376 0,3.5064 0,1.1688 1.1688,3.5064 0,3.5064 -1.1688,0 0,-4.6752 0,-3.5064 0,2.3376 0,4.6752 0,7.0128 0,1.1688 0,2.3376 0,3.5064 0,1.1688 0.5227,2.461 0,3.5064 -0.7392,1.4785 -2.7672,2.028 -3.5064,3.5064 -0.5336,1.0672 0,8.9401 0,10.5193 0,2.3376 0,4.6752 0,7.0128 0,1.1688 0,4.6752 0,3.5064 0,-2.3376 0,-9.3504 0,-7.0128 0,7.0128 0,14.0256 0,21.0384 0,1.1688 1.1688,3.5064 0,3.5064 -1.1688,0 0,-4.6752 0,-3.5064 0,2.3376 0,4.6752 0,7.0128 0,1.1688 -0.8265,2.6799 0,3.5064 0.8265,0.8265 2.6799,-0.8265 3.5064,0 1.6529,1.6529 -1.6529,5.3599 0,7.0128 0.8265,0.8265 2.6799,-0.8265 3.5064,0 0.8265,0.8265 -0.8265,2.6799 0,3.5064 0.8265,0.8265 2.6799,-0.8265 3.5064,0 0.8265,0.8265 -0.8265,2.6799 0,3.5064 0.8265,0.8265 2.6799,-0.8265 3.5064,0 0.8265,0.8265 -0.5227,2.461 0,3.5064 0.7392,1.4784 2.7672,2.028 3.5064,3.5064 2.3376,4.6752 -3.5064,3.5064 3.5064,3.5064 9.3504,0 -1.1688,-1.1688 3.5064,3.5064 0.8265,0.8265 2.68,-0.8264 3.5064,0 0.8265,0.8265 0,2.3376 0,3.5064 0,1.1688 0,2.3376 0,3.5064 0,14.0257 0,28.0513 0,42.0769 0,9.3504 -1.1688,-1.1688 3.5064,3.5064 0.1589,0.1589 0,15.8787 0,17.532 0,14.0256 0,28.0512 0,42.0769 0,1.1688 0,2.3376 0,3.5064 0,1.1688 -0.8264,2.6799 0,3.5064 0.8265,0.8264 2.68,-0.8265 3.5064,0 1.653,1.6529 -1.6529,5.3598 0,7.0128 0.8265,0.8264 2.68,-0.8265 3.5064,0 0.8438,0.8437 -0.8437,13.1818 0,14.0256 0.8265,0.8265 2.68,-0.8265 3.5064,0 0.8265,0.8265 -0.8264,2.6799 0,3.5064 0.8265,0.8265 2.68,-0.8265 3.5064,0 0.8265,0.8265 -0.5227,2.461 0,3.5064 0.7393,1.4784 2.7672,2.028 3.5064,3.5064 0.5228,1.0454 -0.8264,2.6799 0,3.5064 0.8265,0.8265 2.68,-0.8265 3.5065,0 0.8264,0.8265 -0.8265,2.6799 0,3.5064 0.8264,0.8265 2.6799,-0.8265 3.5064,0 1.6529,1.6529 -1.653,5.3599 0,7.0128 0.8264,0.8265 2.6799,-0.8265 3.5064,0 0.8264,0.8265 -0.8265,2.68 0,3.5064 0.8264,0.8265 2.6799,-0.8264 3.5064,0 0.8264,0.8265 -0.8265,2.68 0,3.5064 1.1678,1.1678 5.845,-1.1678 7.0128,0 0.8264,0.8265 -0.8265,2.68 0,3.5064 0.8264,0.8265 2.6799,-0.8264 3.5064,0 0.8264,0.8265 -0.8265,2.68 0,3.5064 1.1689,1.169 5.8438,-1.1689 7.0128,0 0.8265,0.8265 -0.8265,2.68 0,3.5064 1.7532,1.7532 8.766,-1.7532 10.5192,0 0.8265,0.8265 -0.8265,2.68 0,3.5064 1.6529,1.653 4.922,-1.0454 7.0128,0 1.4784,0.7393 2.028,2.7672 3.5064,3.5064 1.0454,0.5227 2.6799,-0.8264 3.5064,0 0.8265,0.8265 -0.8265,2.68 0,3.5064 0.8265,0.8265 3.5064,-1.1688 3.5064,0 0,1.1689 -3.5064,-1.1688 -3.5064,0 0,4.9793 8.0262,3.5065 10.5192,3.5065 1.1688,0 4.6752,0 3.5064,0 -2.3376,0 -9.3504,0 -7.0128,0 3.5064,0 7.0128,0 10.5192,0 1.1688,0 2.461,-0.5228 3.5064,0 1.4785,0.7392 2.028,2.7671 3.5064,3.5064 1.0454,0.5227 2.3376,0 3.5064,0 1.1688,0 2.3376,0 3.5064,0 5.8441,0 11.6881,0 17.5321,0 1.1688,0 2.3376,0 3.5064,0 1.1688,0 2.6799,-0.8265 3.5064,0 0.8264,0.8264 -0.8265,2.6799 0,3.5064 1.6529,1.6529 4.922,-1.0454 7.0128,0 1.4784,0.7392 2.028,2.7672 3.5064,3.5064 1.0454,0.5227 2.6799,-0.8265 3.5064,0 0.8265,0.8264 -0.8265,2.6799 0,3.5064 1.6529,1.6529 4.922,-1.0454 7.0128,0 1.4784,0.7392 2.028,2.7672 3.5064,3.5064 1.0454,0.5227 2.461,-0.5227 3.5064,0 1.4784,0.7392 2.028,2.7672 3.5064,3.5064 2.0908,1.0454 5.3599,-1.653 7.0128,0 0.8265,0.8264 -0.8264,2.6799 0,3.5064 1.169,1.1689 5.8439,-1.169 7.0128,0 0.8265,0.8264 -0.8264,2.6799 0,3.5064 0.8265,0.8265 2.68,-0.8265 3.5064,0 0.8265,0.8265 -0.8264,2.6799 0,3.5064 0.8265,0.8265 2.68,-0.8265 3.5064,0 0.8265,0.8265 -0.8264,2.6799 0,3.5064 0.8265,0.8265 2.68,-0.8265 3.5064,0 0.8265,0.8265 1.1688,3.5064 0,3.5064 -1.1688,0 -1.1688,-3.5064 0,-3.5064 1.653,0 2.7672,2.028 3.5064,3.5064 1.0455,2.0908 -1.6529,5.3599 0,7.0128 0.8265,0.8265 2.68,-0.8265 3.5065,0 1.7532,1.7532 -1.7533,8.766 0,10.5192 4.6752,4.6752 3.5064,-5.844 3.5064,3.5064 0,1.1688 0,4.6752 0,3.5064 0,-2.3376 0,-9.3504 0,-7.0128 0,5.844 0,11.688 0,17.532 -10.8484,-3.9317 -20.6229,-3.5064 -31.5577,-3.5064 -1.1688,0 -2.3376,0 -3.5064,0 -1.1688,0 -2.6799,-0.8264 -3.5064,0 -0.8265,0.8265 0.8265,2.68 0,3.5064 -1.1689,1.169 -5.8438,-1.1689 -7.0128,0 -0.8265,0.8265 0.8265,2.68 0,3.5064 -0.8265,0.8265 -2.461,-0.5227 -3.5064,0 -1.4784,0.7393 -2.028,2.7672 -3.5064,3.5064 -2.0908,1.0455 -5.3599,-1.6529 -7.0128,0 -4.6752,4.6753 5.844,3.5065 -3.5064,3.5065 -9.7099,0 2.6971,3.5064 -7.0128,3.5064 -1.1688,0 -3.5064,1.1688 -3.5064,0 0,-1.1688 3.5064,-1.1688 3.5064,0 0,1.6529 -2.028,2.7671 -3.5064,3.5064 -0.922,0.4609 -12.1921,0 -14.0256,0 -1.1688,0 -2.3376,0 -3.5065,0 -1.1688,0 -3.5064,1.1688 -3.5064,0 0,-1.1688 4.6753,0 3.5064,0 -5.844,0 -11.688,0 -17.532,0 -1.1688,0 -2.6799,-0.8265 -3.5064,0 -0.8264,0.8264 0.8265,2.6799 0,3.5064 -0.8264,0.8264 -2.3376,0 -3.5064,0 -1.1688,0 -4.6752,0 -3.5064,0 2.3376,0 9.3504,0 7.0128,0 -3.5064,0 -7.0128,0 -10.5192,0 -1.1688,0 -2.6799,-0.8265 -3.5064,0 -0.8265,0.8264 0,2.3376 0,3.5064 0,1.6532 -0.1589,17.3731 0,17.532 0.8265,0.8265 2.6799,-0.8265 3.5064,0 0.1128,0.1128 0,9.6688 0,10.5192 0,1.1688 0,2.3376 0,3.5064 0,1.1688 -0.8265,2.6799 0,3.5064 0.8265,0.8265 2.6799,-0.8265 3.5064,0 0.1589,0.1589 0,15.8788 0,17.532 0,14.0256 0,28.0513 0,42.0769 0,1.1688 0,2.3376 0,3.5064 0,1.1688 0.8265,2.6799 0,3.5064 -0.8265,0.8265 -2.6799,-0.8265 -3.5064,0 -1.6529,1.6529 1.0454,4.922 0,7.0128 -0.7392,1.4784 -2.7672,2.028 -3.5064,3.5064 -0.5227,1.0454 0.5227,2.461 0,3.5064 -0.7392,1.4784 -2.7672,2.028 -3.5064,3.5064 -0.5227,1.0454 0.8265,2.6799 0,3.5064 -0.8265,0.8265 -2.6799,-0.8265 -3.5064,0 -0.8265,0.8265 0.8265,2.6799 0,3.5064 -0.8265,0.8265 -2.6799,-0.8265 -3.5064,0 -0.8265,0.8265 0.8265,2.6799 0,3.5064 -0.8265,0.8265 -2.6799,-0.8265 -3.5064,0 -0.8265,0.8265 0.8265,2.68 0,3.5064 -0.8265,0.8265 -2.461,-0.5227 -3.5064,0 -2.9569,1.4784 -4.056,5.5344 -7.0128,7.0128 -1.0454,0.5227 -2.68,-0.8264 -3.5064,0 -0.8265,0.8265 0.8264,2.68 0,3.5064 -0.8265,0.8265 -2.68,-0.8264 -3.5064,0 -0.8265,0.8265 0.8264,2.68 0,3.5064 -1.1678,1.1678 -5.845,-1.1678 -7.0128,0 -0.8265,0.8265 0,2.3376 0,3.5064 -1.1688,0 -2.68,-0.8264 -3.5064,0 -0.8265,0.8265 0.8264,2.68 0,3.5064 -0.8265,0.8265 -2.461,-0.5227 -3.5064,0 -1.4785,0.7393 -2.028,2.7672 -3.5064,3.5064 -2.0909,1.0455 -5.3599,-1.6529 -7.0129,0 -0.8264,0.8265 0,2.3377 0,3.5065 -1.1688,0 -2.6799,-0.8265 -3.5064,0 -0.8264,0.8264 0.8265,2.6799 0,3.5064 -0.8264,0.8264 -2.461,-0.5227 -3.5064,0 -1.4784,0.7392 -2.0279,2.7671 -3.5064,3.5064 -1.0454,0.5227 -2.6799,-0.8265 -3.5064,0 -0.8264,0.8264 0,2.3376 0,3.5064 -1.1688,0 -2.6799,-0.8265 -3.5064,0 -0.8264,0.8264 0.8265,2.6799 0,3.5064 -1.6529,1.6529 -5.3598,-1.653 -7.0128,0 -0.8265,0.8264 0.8265,2.6799 0,3.5064 -1.1678,1.1678 -5.845,-1.1678 -7.0128,0 -0.8265,0.8264 0.8265,2.6799 0,3.5064 -1.1689,1.1689 -5.8439,-1.169 -7.0128,0 -0.8265,0.8264 0.8265,2.6799 0,3.5064 -1.1689,1.1689 -5.8439,-1.169 -7.0128,0 -0.8265,0.8264 0,2.3376 0,3.5064 -1.1688,0 -2.6799,-0.8265 -3.5064,0 -0.8265,0.8265 0.8265,2.6799 0,3.5064 -0.8265,0.8265 -2.6799,-0.8265 -3.5064,0 -0.8265,0.8265 1.1688,3.5064 0,3.5064 -1.1688,0 0,-4.6752 0,-3.5064 0,5.844 0,11.688 0,17.532 0,1.1688 0,2.3376 0,3.5064 0,1.1688 0.5227,2.461 0,3.5064 -0.7392,1.4784 -2.7672,2.028 -3.5064,3.5064 -0.5227,1.0454 0.8264,2.68 0,3.5064 -1.653,1.653 -5.3599,-1.6529 -7.0128,0 -0.8265,0.8265 0.8264,2.68 0,3.5064 -0.8265,0.8265 -2.68,-0.8264 -3.5064,0 -0.8265,0.8265 -1.1688,3.5064 0,3.5064 2.6851,0 9.2053,-12.7117 -3.5064,0 -0.8265,0.8265 0.8264,2.68 0,3.5064 -0.8265,0.8265 -2.3376,0 -3.5064,0 0,1.1688 0.5227,2.461 0,3.5064 -0.7393,1.4785 -2.7672,2.028 -3.5064,3.5064 -0.5227,1.0455 -0.8265,4.3329 0,3.5064 1.848,-1.848 6.1199,-7.0128 3.5064,-7.0128 -7.8393,0 -7.0128,6.4786 -7.0128,10.5193 0,1.1688 0.8264,2.6799 0,3.5064 -0.8265,0.8264 -2.68,-0.8265 -3.5065,0 -0.8264,0.8264 0.5228,2.461 0,3.5064 -0.7392,1.4784 -2.7671,2.0279 -3.5064,3.5064 -1.0454,2.0908 1.653,5.3598 0,7.0128 -0.8264,0.8264 -2.6799,-0.8265 -3.5064,0 -1.6529,1.6529 1.653,5.3598 0,7.0128 -0.8264,0.8264 -2.6799,-0.8265 -3.5064,0 -0.8437,0.8437 0.8438,13.1818 0,14.0256 -0.8264,0.8265 -2.6799,-0.8265 -3.5064,0 -1.7532,1.7532 1.7532,8.766 0,10.5192 -0.8264,0.8265 -2.6799,-0.8265 -3.5064,0 -1.7532,1.7532 1.7532,8.766 0,10.5192 -0.8264,0.8265 -2.6799,-0.8264 -3.5064,0 -0.8264,0.8265 0.8265,2.68 0,3.5064 -0.8264,0.8265 -2.6799,-0.8264 -3.5064,0 -0.8264,0.8265 0.8265,2.68 0,3.5064 -0.8437,0.8438 -13.1818,-0.8437 -14.0256,0 -0.8265,0.8265 0.8265,2.68 0,3.5064 -0.8265,0.8265 -2.3376,0 -3.5064,0 -5.844,0 -11.688,0 -17.532,0 -1.1688,0 -2.68,-0.8264 -3.5064,0 -0.8265,0.8265 0.8264,2.68 0,3.5064 -0.8265,0.8265 -2.3376,0 -3.5064,0 -4.2802,0 -8.0857,-1.3606 -10.5192,3.5064 -3.1168,6.2336 1.948,1.948 3.5064,3.5064 0.8264,0.8265 -0.8265,2.68 0,3.5065 0.8264,0.8264 2.6799,-0.8265 3.5064,0 0.8264,0.8264 -0.8265,2.6799 0,3.5064 0.8264,0.8264 2.6799,-0.8265 3.5064,0 0.8264,0.8264 -0.8265,2.6799 0,3.5064 0.8264,0.8264 2.6799,-0.8265 3.5064,0 0.8264,0.8264 -0.8265,2.6799 0,3.5064 0.8264,0.8264 2.6799,-0.8265 3.5064,0 0.8264,0.8264 -0.8265,2.6799 0,3.5064 0.8264,0.8264 2.6799,-0.8265 3.5064,0 0.8265,0.8264 -0.8265,2.6799 0,3.5064 0.8265,0.8264 2.6799,-0.8265 3.5064,0 0.8265,0.8264 0,2.3376 0,3.5064 0,1.1688 0.8265,2.6799 0,3.5064 -0.8265,0.8264 -2.6799,-0.8265 -3.5064,0 -0.8265,0.8264 0.8265,2.6799 0,3.5064 -1.169,1.1689 -5.8439,-1.169 -7.0128,0 -0.8265,0.8265 0.8264,2.6799 0,3.5064 -0.8265,0.8265 -2.68,-0.8265 -3.5064,0 -0.8265,0.8265 0.8264,2.6799 0,3.5064 -1.7532,1.7532 -8.766,-1.7532 -10.5192,0 -0.8265,0.8265 0.8264,2.6799 0,3.5064 -1.169,1.1689 -5.8439,-1.169 -7.0128,0 -0.8265,0.8265 0.8264,2.6799 0,3.5064 -1.653,1.6529 -5.3599,-1.6529 -7.0129,0 -0.8264,0.8265 0.8265,2.6799 0,3.5064 -1.6529,1.6529 -4.922,-1.0454 -7.0128,0 -1.4784,0.7392 -2.0279,2.7672 -3.5064,3.5064 -1.0454,0.5227 -2.3376,0 -3.5064,0 -1.1688,0 -2.3376,0 -3.5064,0 -1.1688,0 -4.6752,0 -3.5064,0 2.3376,0 9.3504,0 7.0128,0 -32.7264,0 -3.5064,3.5064 -10.5192,-3.5064 -0.8265,-0.8265 -2.6799,0.8265 -3.5064,0 -0.8265,-0.8265 0.8265,-2.6799 0,-3.5064 -1.6529,-1.6529 -4.922,1.0454 -7.0128,0 -1.4784,-0.7392 -2.028,-2.7672 -3.5064,-3.5064 -1.0454,-0.5227 -2.6799,0.8265 -3.5064,0 -0.8265,-0.8265 0.8265,-2.6799 0,-3.5064 -0.8265,-0.8265 -2.6799,0.8265 -3.5064,0 -1.6529,-1.6529 1.6529,-5.3599 0,-7.0128 -0.8265,-0.8265 -2.6799,0.8265 -3.5064,0 -0.8265,-0.8265 0.5227,-2.461 0,-3.5064 -0.7392,-1.4785 -2.7672,-2.028 -3.5064,-3.5064 -0.5227,-1.0454 0.8264,-2.68 0,-3.5064 -0.8265,-0.8265 -2.68,0.8264 -3.5064,0 -1.653,-1.653 1.6529,-5.3599 0,-7.0128 -0.8265,-0.8265 -2.68,0.8264 -3.5064,0 -1.653,-1.653 1.6529,-5.3599 0,-7.0128 -0.8265,-0.8265 -2.68,0.8264 -3.5064,0 -0.1589,-0.159 0,-15.8788 0,-17.5321 0,-1.1688 0.8264,-2.6799 0,-3.5064 -0.8265,-0.8264 -2.68,0.8265 -3.5064,0 -0.8265,-0.8264 0.8264,-2.6799 0,-3.5064 -0.8265,-0.8264 -2.68,0.8265 -3.5064,0 -0.8265,-0.8264 0.8264,-2.6799 0,-3.5064 -0.8265,-0.8264 -3.5064,1.1688 -3.5064,0 0,-1.1688 4.6752,0 3.5064,0 -10.5193,0 -21.0385,0 -31.5577,0 -1.1688,0 -2.3376,0 -3.5064,0 -1.1688,0 -2.6799,-0.8264 -3.5064,0 -0.8265,0.8265 0.8265,2.68 0,3.5064 -0.8265,0.8265 -2.3376,0 -3.5064,0 -1.6532,0 -17.3731,-0.1589 -17.532,0 -0.8265,0.8265 0.8265,2.68 0,3.5064 -0.9594,0.9595 -12.1234,-0.9511 -14.0256,0 -1.4785,0.7392 -2.028,2.7672 -3.5064,3.5064 -1.3903,0.6952 -9.8024,-0.7168 -10.5192,0 -0.8265,0.8265 0.8264,2.68 0,3.5064 -1.7532,1.7532 -8.766,-1.7532 -10.5193,0 -0.8264,0.8265 0.8265,2.68 0,3.5064 -0.8264,0.8265 -2.4609,-0.5227 -3.5064,0 -1.4784,0.7393 -2.0279,2.7672 -3.5064,3.5064 -1.0454,0.5228 -2.6799,-0.8264 -3.5064,0 -0.8264,0.8265 0.8265,2.68 0,3.5065 -0.8264,0.8264 -2.6799,-0.8265 -3.5064,0 -0.8264,0.8264 0.8265,2.6799 0,3.5064 -0.8264,0.8264 -2.6799,-0.8265 -3.5064,0 -0.8264,0.8264 0.8265,2.6799 0,3.5064 -0.8264,0.8264 -2.6799,-0.8265 -3.5064,0 -0.8264,0.8264 0.8265,2.6799 0,3.5064 -0.8264,0.8264 -2.6799,-0.8265 -3.5064,0 -0.8264,0.8264 0.8265,2.6799 0,3.5064 -1.6529,1.6529 -5.3599,-1.653 -7.0128,0 -0.8265,0.8264 0.8265,2.6799 0,3.5064 -0.8265,0.8264 -2.6799,-0.8265 -3.5064,0 -0.8265,0.8264 0.5227,2.461 0,3.5064 -0.7392,1.4784 -2.7672,2.0279 -3.5064,3.5064 -0.5227,1.0454 0.8265,2.6799 0,3.5064 -4.6752,4.6752 -3.5064,-5.844 -3.5064,3.5064"
         style="fill:none;fill-rule:evenodd;stroke:#000000;stroke-width:1px;stroke-linecap:butt;stroke-linejoin:miter;stroke-opacity:1" />
      <path
         inkscape:connector-curvature="0"
         id="path3355"
         d="m 4691.5686,2994.1002 c 0,4.6752 -1.1339,9.49 0,14.0256 0.2835,1.1339 2.461,-0.5227 3.5064,0 1.4784,0.7392 2.028,2.7672 3.5064,3.5064 1.0454,0.5227 2.6799,-0.8265 3.5064,0 0.8265,0.8265 -0.8265,2.6799 0,3.5064 0.8265,0.8265 2.68,-0.8265 3.5064,0 0.8265,0.8265 -0.8264,2.6799 0,3.5064 0.8265,0.8265 2.68,-0.8265 3.5064,0 0.8265,0.8265 -0.8264,2.6799 0,3.5064 0.8265,0.8265 2.68,-0.8265 3.5064,0 0.8265,0.8265 -0.8264,2.68 0,3.5064 1.1678,1.1678 5.845,-1.1678 7.0128,0 0.8265,0.8265 -0.8264,2.68 0,3.5064 0.8265,0.8265 2.461,-0.5227 3.5064,0 1.4785,0.7392 2.028,2.7672 3.5064,3.5064 1.0455,0.5227 2.68,-0.8264 3.5064,0 1.653,1.653 -1.6529,5.3599 0,7.0128 0.8265,0.8265 2.68,-0.8264 3.5065,0 0.8264,0.8265 -0.8265,2.68 0,3.5064 0.8264,0.8265 2.6799,-0.8264 3.5064,0 1.6529,1.653 -1.653,5.3599 0,7.0128 0.8264,0.8265 2.6799,-0.8264 3.5064,0 0.8264,0.8265 -0.8265,2.68 0,3.5065 0.8264,0.8264 2.6799,-0.8265 3.5064,0 0.8264,0.8264 1.1688,3.5064 0,3.5064 -1.1688,0 0,-4.6752 0,-3.5064 0,2.3376 0,4.6752 0,7.0128 0,1.1688 0.8264,2.6799 0,3.5064 -0.8265,0.8264 -2.68,-0.8265 -3.5064,0 -0.8265,0.8264 0,2.3376 0,3.5064 -1.1688,0 -2.68,-0.8265 -3.5064,0 -0.8265,0.8264 0.8264,2.6799 0,3.5064 -0.8265,0.8264 -2.461,-0.5227 -3.5064,0 -1.4785,0.7392 -2.028,2.7672 -3.5065,3.5064 -2.0908,1.0454 -4.9219,-1.0454 -7.0128,0 -1.4784,0.7392 -2.0279,2.7672 -3.5064,3.5064 -2.2038,1.1019 -11.8217,-1.1019 -14.0256,0 -1.4784,0.7392 -2.028,2.7672 -3.5064,3.5064 -1.0454,0.5227 -2.461,-0.5227 -3.5064,0 -1.4784,0.7392 -2.028,2.7672 -3.5064,3.5064 -2.422,1.211 -16.3012,-1.2308 -17.532,0 -0.8265,0.8265 0.8265,2.6799 0,3.5064 -1.0858,1.0857 -16.4463,-1.0858 -17.532,0 -0.8265,0.8265 0.8264,2.6799 0,3.5064 -0.8265,0.8265 -2.3376,0 -3.5064,0 -5.844,0 -11.688,0 -17.5321,0 -1.1688,0 -2.3376,0 -3.5064,0 -1.1688,0 -2.6799,0.8265 -3.5064,0 -0.8264,-0.8265 0.8265,-2.6799 0,-3.5064 -1.1678,-1.1678 -5.845,1.1678 -7.0128,0 -0.1411,-0.1411 0,-12.7379 0,-14.0256 0,-1.1688 -0.8264,-2.68 0,-3.5064 0.8265,-0.8265 2.68,0.8264 3.5064,0 1.7532,-1.7532 -1.7532,-8.766 0,-10.5192 0.8265,-0.8265 2.68,0.8264 3.5064,0 1.653,-1.653 -2.3376,-7.0128 0,-7.0128 1.1688,0 1.1688,3.5064 0,3.5064 -1.6529,0 -2.0279,-2.7672 -3.5064,-3.5064 -1.0454,-0.5228 -2.3376,0 -3.5064,0 -5.844,0 -11.688,0 -17.532,0 -1.1688,0 -2.3376,0 -3.5064,0 -1.1688,0 -2.461,0.5227 -3.5064,0 -1.4784,-0.7393 -2.028,-2.7672 -3.5064,-3.5065 -1.0454,-0.5227 -2.6799,0.8265 -3.5064,0 -0.8265,-0.8264 0.8265,-2.6799 0,-3.5064 -1.169,-1.1689 -5.8439,1.169 -7.0128,0 -0.8265,-0.8264 0.8265,-2.6799 0,-3.5064 -1.653,-1.6529 -5.3599,1.653 -7.0128,0 -0.8265,-0.8264 0.8264,-2.6799 0,-3.5064 -1.653,-1.6529 -4.922,1.0454 -7.0128,0 -1.4785,-0.7392 -2.028,-2.7672 -3.5064,-3.5064 -1.0454,-0.5227 -2.68,0.8265 -3.5064,0 -0.8265,-0.8264 0.8264,-2.6799 0,-3.5064 -1.169,-1.1689 -5.8439,1.169 -7.0128,0 -0.8265,-0.8264 0.8264,-2.6799 0,-3.5064 -0.8265,-0.8264 -2.68,0.8265 -3.5065,0 -0.8264,-0.8264 0.8265,-2.6799 0,-3.5064 -0.8264,-0.8264 -2.6799,0.8265 -3.5064,0 -0.8264,-0.8264 0.8265,-2.6799 0,-3.5064 -0.8264,-0.8265 -2.6799,0.8265 -3.5064,0 -0.8264,-0.8265 0,-2.3376 0,-3.5064 0,-1.2877 -0.1411,-13.8845 0,-14.0256 0.8265,-0.8265 2.68,0.8265 3.5064,0 1.653,-1.6529 -1.6529,-5.3599 0,-7.0128 0.8265,-0.8265 2.68,0.8265 3.5064,0 1.653,-1.6529 -1.6529,-5.3599 0,-7.0128 0.8265,-0.8265 2.68,0.8264 3.5065,0 1.6529,-1.653 -1.653,-5.3599 0,-7.0128 0.8264,-0.8265 2.6799,0.8264 3.5064,0 0.8264,-0.8265 0,-2.3376 0,-3.5064 0,-0.8504 0.1127,-10.4065 0,-10.5192 -8.2232,-8.2232 0,10.8028 0,3.5064 0,-2.9796 -7.4866,-12.5093 -10.5193,-14.0257 -1.8689,-0.9344 -5.1439,0.9345 -7.0128,0 -1.4784,-0.7392 -2.0279,-2.7671 -3.5064,-3.5064 -2.0908,-1.0454 -5.3598,1.653 -7.0128,0 -0.8264,-0.8264 0.8265,-2.6799 0,-3.5064 -0.8264,-0.8264 -2.461,0.5227 -3.5064,0 -1.4784,-0.7392 -2.028,-2.7672 -3.5064,-3.5064 -1.0454,-0.5227 -2.6799,0.8265 -3.5064,0 -0.8265,-0.8264 0.5227,-2.461 0,-3.5064 -7.2964,-14.5928 0.2421,3.7485 -7.0128,-3.5064 -0.8265,-0.8264 0.8265,-2.6799 0,-3.5064 -0.8265,-0.8264 -2.6799,0.8265 -3.5064,0 -0.8265,-0.8264 0.8265,-2.6799 0,-3.5064 -1.169,-1.1689 -5.8439,1.169 -7.0128,0 -0.8265,-0.8265 0.8265,-2.6799 0,-3.5064 -0.8265,-0.8265 -2.6799,0.8265 -3.5064,0 -0.8265,-0.8265 0.8265,-2.6799 0,-3.5064 -1.169,-1.1689 -5.8439,1.169 -7.0128,0 -1.653,-1.6529 1.6529,-5.3599 0,-7.0128 -0.8265,-0.8265 -2.68,0.8265 -3.5064,0 -0.8265,-0.8265 0,-2.3376 0,-3.5064 0,-5.844 0,-11.688 0,-17.532 0,-1.1688 0.8264,-2.68 0,-3.5064 -0.8265,-0.8265 -2.68,0.8264 -3.5064,0 -0.8265,-0.8265 0,-2.3376 0,-3.5064 0,-8.1816 0,-16.3633 0,-24.5449 0,-1.1688 0,-2.3376 0,-3.5064 0,-1.1688 0.8264,-2.6799 0,-3.5064 -0.8265,-0.8264 -2.68,0.8265 -3.5064,0 -0.3507,-0.3506 -0.3507,-10.1685 0,-10.5192 4.6752,-4.6752 3.5064,5.844 3.5064,-3.5064"
         style="fill:none;fill-rule:evenodd;stroke:#000000;stroke-width:1px;stroke-linecap:butt;stroke-linejoin:miter;stroke-opacity:1" />
      <path
         inkscape:connector-curvature="0"
         id="path3357"
         d="m 4488.1972,2846.8312 c -12.0074,3.6629 -10.8382,-10.6787 -17.5321,-14.0256 -1.0454,-0.5227 -2.6799,0.8265 -3.5064,0 -0.8264,-0.8265 0.8265,-2.6799 0,-3.5064 -1.7532,-1.7532 -8.766,1.7532 -10.5192,0 -0.8264,-0.8265 0.8265,-2.6799 0,-3.5064 -1.1678,-1.1678 -5.845,1.1678 -7.0128,0 -0.8264,-0.8265 0.8265,-2.6799 0,-3.5064 -0.8437,-0.8438 -13.1818,0.8437 -14.0256,0 -0.8265,-0.8265 0.8265,-2.68 0,-3.5064 -0.8265,-0.8265 -2.3376,0 -3.5064,0 -1.1688,0 -2.3376,0 -3.5064,0 -2.3379,0 -4.6749,0 -7.0128,0 -1.1688,0 -3.5064,1.1688 -3.5064,0 0,-1.1688 2.6799,-0.8265 3.5064,0 0.8265,0.8264 -0.8265,2.6799 0,3.5064 0.8265,0.8265 2.6799,-0.8265 3.5064,0 0.8265,0.8265 0,2.3376 0,3.5064 0,1.1688 0,2.3376 0,3.5064 0,9.3504 -1.1688,-1.1688 3.5064,3.5064 1.7532,1.7532 -1.7532,8.766 0,10.5192 4.6752,4.6752 3.5064,-5.844 3.5064,3.5064 0,2.3376 0,4.6752 0,7.0128 0,1.1688 0,4.6752 0,3.5064 0,-2.3376 0,-9.3504 0,-7.0128 0,24.87 2.4794,2.054 -3.5064,14.0256 -1.4026,2.8052 1.4026,7.7141 0,10.5192 -0.7392,1.4785 -2.7672,2.028 -3.5064,3.5064 -0.634,1.2681 0,15.0932 0,17.5321 0,1.2876 -0.1411,13.8845 0,14.0256 0.8265,0.8265 2.6799,-0.8265 3.5064,0 0.8438,0.8437 -0.8437,13.1819 0,14.0256 0.8265,0.8265 2.6799,-0.8265 3.5064,0 1.6529,1.6529 -1.0454,4.922 0,7.0128 0.7392,1.4784 2.7672,2.028 3.5064,3.5064 0.461,0.922 0,12.1921 0,14.0256 0,1.8336 0.461,13.1037 0,14.0256 -0.7392,1.4785 -2.7672,2.028 -3.5064,3.5065 -1.0646,2.1291 1.0646,18.9092 0,21.0384 -0.7392,1.4784 -2.7672,2.0279 -3.5064,3.5064 -1.211,2.422 1.2308,16.3012 0,17.532 -0.8265,0.8265 -2.6799,-0.8265 -3.5064,0 -1.7532,1.7532 1.7532,8.766 0,10.5192 -4.6752,4.6752 -3.5064,-5.844 -3.5064,3.5064 0,2.3376 0,9.3504 0,7.0128 0,-5.555 1.0454,-13.6554 -3.5064,0 -0.3696,1.1088 0.8265,2.68 0,3.5064 -0.8265,0.8265 -2.6799,-0.8264 -3.5064,0 -1.6529,1.653 1.6529,5.3599 0,7.0128 -0.8265,0.8265 -2.68,-0.8264 -3.5064,0 -0.8265,0.8265 0.8264,2.68 0,3.5064 -0.8265,0.8265 -2.68,-0.8264 -3.5064,0 -0.8265,0.8265 0.5227,2.461 0,3.5064 -0.7392,1.4785 -2.7672,2.028 -3.5064,3.5064 -0.5227,1.0455 0.8264,2.68 0,3.5065 -0.8265,0.8264 -2.461,-0.5228 -3.5064,0 -14.5928,7.2964 3.7484,-0.2421 -3.5064,7.0128 -0.8265,0.8264 -2.68,-0.8265 -3.5064,0 -0.8265,0.8264 0.8264,2.6799 0,3.5064 -0.8265,0.8264 -2.68,-0.8265 -3.5064,0 -0.8265,0.8264 0.8264,2.6799 0,3.5064 -0.8265,0.8264 -2.68,-0.8265 -3.5064,0 -0.8265,0.8264 0.5227,2.461 0,3.5064 -0.7393,1.4784 -2.7672,2.0279 -3.5065,3.5064 -0.5227,1.0454 0.8265,2.6799 0,3.5064 -0.8264,0.8264 -2.6799,-0.8265 -3.5064,0 -0.8264,0.8264 0.8265,2.6799 0,3.5064 -0.8264,0.8265 -2.6799,-0.8265 -3.5064,0 -1.6529,1.6529 1.653,5.3599 0,7.0128 -0.8264,0.8265 -2.6799,-0.8265 -3.5064,0 -0.8264,0.8265 0.8265,2.6799 0,3.5064 -0.8264,0.8265 -2.6799,-0.8265 -3.5064,0 -0.8264,0.8265 0.8265,2.6799 0,3.5064 -0.8264,0.8265 -2.6799,-0.8265 -3.5064,0 -0.8264,0.8265 0.8265,2.6799 0,3.5064 -0.8264,0.8265 -2.6799,-0.8265 -3.5064,0 -1.6529,1.6529 1.653,5.3599 0,7.0128 -0.8264,0.8265 -2.6799,-0.8265 -3.5064,0 -1.7532,1.7532 1.7532,8.766 0,10.5192 -0.8264,0.8265 -2.6799,-0.8264 -3.5064,0 -1.7532,1.7532 1.7532,8.766 0,10.5192 -0.8265,0.8265 -2.6799,-0.8264 -3.5064,0 -0.8265,0.8265 0,2.3376 0,3.5064 0,1.1688 0,2.3376 0,3.5064 0,10.5193 0,21.0385 0,31.5577 0,1.6532 0.1589,17.3731 0,17.532 -0.8265,0.8265 -2.6799,-0.8265 -3.5064,0 -0.8265,0.8265 0,2.3376 0,3.5064 0,1.1688 0,2.3376 0,3.5064 0,12.8568 0,25.7136 0,38.5705 -3.5064,-3.5064 -8.3016,-6.084 -10.5192,-10.5193 -0.7392,-1.4784 2.7672,-2.0279 3.5064,-3.5064 0.3596,-0.7192 0.4945,-10.0247 0,-10.5192 -0.8265,-0.8264 -2.6799,0.8265 -3.5064,0 -7.2549,-7.2548 11.0864,0.2836 -3.5064,-7.0128 -1.0454,-0.5227 -2.6799,0.8265 -3.5064,0 -0.8265,-0.8265 0.8265,-2.6799 0,-3.5064 -0.8265,-0.8265 -2.3376,0 -3.5064,0 -1.1688,0 -2.3376,0 -3.5064,0 -9.3504,0 1.1688,1.1688 -3.5064,-3.5064 -1.7532,-1.7532 -8.766,1.7532 -10.5192,0 -0.8265,-0.8265 0.8264,-2.6799 0,-3.5064 -1.1678,-1.1678 -5.845,1.1678 -7.0128,0 -0.8265,-0.8265 0.8264,-2.6799 0,-3.5064 -1.169,-1.1689 -5.8439,1.169 -7.0129,0 -0.8264,-0.8265 0.8265,-2.6799 0,-3.5064 -1.7532,-1.7532 -8.766,1.7532 -10.5192,0 -0.8264,-0.8265 0.8265,-2.6799 0,-3.5064 -1.1689,-1.169 -5.8438,1.1689 -7.0128,0 -0.8264,-0.8265 0.8265,-2.6799 0,-3.5064 -1.1689,-1.169 -5.8438,1.1689 -7.0128,0 -0.8264,-0.8265 0.8265,-2.6799 0,-3.5064 -1.7532,-1.7532 -8.766,1.7532 -10.5192,0 -0.8265,-0.8265 0.8265,-2.68 0,-3.5064 -1.6529,-1.653 -4.922,1.0454 -7.0128,0 -1.4784,-0.7392 -2.028,-2.7672 -3.5064,-3.5064 -2.0908,-1.0454 -5.3599,1.6529 -7.0128,0 -0.8265,-0.8265 0.8265,-2.68 0,-3.5064 -0.8265,-0.8265 -3.5064,1.1688 -3.5064,0 0,-1.1688 4.3329,0.8264 3.5064,0 -1.8481,-1.8481 -4.5334,-2.68 -7.0128,-3.5064 -1.1088,-0.3696 -2.68,0.8264 -3.5064,0 -0.8265,-0.8265 0.8264,-2.68 0,-3.5064 -0.8265,-0.8265 -2.68,0.8264 -3.5064,0 -0.8265,-0.8265 0.8264,-2.68 0,-3.5064 -0.8265,-0.8265 -2.68,0.8264 -3.5064,0 -0.8265,-0.8265 0.8264,-2.68 0,-3.5064 -0.8265,-0.8265 -2.461,0.5227 -3.5064,0 -1.4785,-0.7393 -2.028,-2.7672 -3.5064,-3.5064 -1.0454,-0.5228 -2.68,0.8264 -3.5064,0 -0.8265,-0.8265 0.8264,-2.68 0,-3.5065 -1.169,-1.1689 -5.8439,1.169 -7.0129,0 -0.8264,-0.8264 0.8265,-2.6799 0,-3.5064 -1.7532,-1.7532 -8.766,1.7532 -10.5192,0 -0.8264,-0.8264 0.8265,-2.6799 0,-3.5064 -1.7532,-1.7532 -8.766,1.7532 -10.5192,0 -0.8264,-0.8264 0.8265,-2.6799 0,-3.5064 -0.8264,-0.8264 -2.461,0.5227 -3.5064,0 -1.4784,-0.7392 -2.028,-2.7672 -3.5064,-3.5064 -1.0454,-0.5227 -2.3376,0 -3.5064,0 -1.1688,-1.1688 -2.028,-2.7672 -3.5064,-3.5064 -2.0908,-1.0454 -5.3599,1.653 -7.0128,0 -0.8265,-0.8264 0.8265,-2.6799 0,-3.5064 -1.6529,-1.6529 -4.922,1.0454 -7.0128,0 -1.4784,-0.7392 -2.028,-2.7672 -3.5064,-3.5064 -2.0908,-1.0454 -5.3599,1.653 -7.0128,0 -0.8265,-0.8264 0.8264,-2.6799 0,-3.5064 -0.8438,-0.8437 -13.1819,0.8438 -14.0256,0 -0.8265,-0.8265 0.8264,-2.6799 0,-3.5064 -1.169,-1.1689 -5.8439,1.169 -7.0128,0 -0.8265,-0.8265 0.8264,-2.6799 0,-3.5064 -1.1679,-1.1678 -5.845,1.1678 -7.0129,0 -0.8264,-0.8265 0.8265,-2.6799 0,-3.5064 -1.1689,-1.1689 -5.8438,1.169 -7.0128,0 -0.8264,-0.8265 0.8265,-2.6799 0,-3.5064 -1.1678,-1.1678 -5.845,1.1678 -7.0128,0 -0.8264,-0.8265 0.8265,-2.6799 0,-3.5064 -0.7168,-0.7168 -9.1289,0.6951 -10.5192,0 -1.4784,-0.7392 -2.028,-2.7672 -3.5064,-3.5064 -2.0908,-1.0454 -4.922,1.0454 -7.0128,0 -1.4784,-0.7392 -2.028,-2.7672 -3.5064,-3.5064 -1.0454,-0.5227 -2.6799,0.8265 -3.5064,0 -4.6752,-4.6752 5.844,-3.5064 -3.5064,-3.5064 -8.1816,0 -16.3632,0 -24.5448,0 -1.1688,0 -2.68,-0.8265 -3.5064,0 -0.8265,0.8265 0.8264,2.6799 0,3.5064 -0.8265,0.8265 -2.3376,0 -3.5064,0 -5.844,0 -11.6881,0 -17.5321,0 -1.1688,0 -2.6799,-0.8265 -3.5064,0 -0.8264,0.8265 0.8265,2.6799 0,3.5064 -0.1127,0.1128 -9.6688,0 -10.5192,0 -1.1688,0 -2.3376,0 -3.5064,0 -1.1688,0 -2.6799,-0.8265 -3.5064,0 -0.8265,0.8265 0.8265,2.6799 0,3.5064 -0.8265,0.8265 -2.3376,0 -3.5064,0 -1.1688,0 -2.3376,0 -3.5064,0 -2.3376,0 -4.6752,0 -7.0128,0 -1.1688,0 -3.5064,1.1688 -3.5064,0 0,-1.1688 3.5064,1.1688 3.5064,0 0,-7.2964 -4.9173,-1.4109 -7.0128,-3.5064 -1.7532,-1.7532 1.7532,-8.766 0,-10.5192 -0.8265,-0.8265 -2.6799,0.8264 -3.5064,0 -0.8265,-0.8265 0,-2.3376 0,-3.5064 0,-1.1688 -1.1688,-3.5064 0,-3.5064 1.1688,0 0,4.6752 0,3.5064 0,-5.0176 1.6529,-7.9396 -3.5064,-10.5192 -2.0908,-1.0454 -5.3599,1.6529 -7.0128,0 -0.8265,-0.8265 0.8264,-2.68 0,-3.5064 -0.8265,-0.8265 -2.461,0.5227 -3.5064,0 -1.4785,-0.7393 -2.028,-2.7672 -3.5064,-3.5064 -1.0454,-0.5227 -2.68,0.8264 -3.5064,0 -0.8265,-0.8265 0.8264,-2.68 0,-3.5064 -0.8265,-0.8265 -2.68,0.8264 -3.5064,0 -0.8265,-0.8265 0.8264,-2.68 0,-3.5065 -1.653,-1.6529 -5.3599,1.653 -7.0129,0 -0.8264,-0.8264 0.8265,-2.6799 0,-3.5064 -0.8264,-0.8264 -2.3376,0 -3.5064,0 -1.1688,0 -2.3376,0 -3.5064,0 -1.1688,0 -3.5064,1.1688 -3.5064,0 0,-1.1688 4.6752,0 3.5064,0 -2.3376,0 -4.922,1.0455 -7.0128,0 -1.0454,-0.5227 0.8265,-2.6799 0,-3.5064 -0.8264,-0.8264 -2.6799,0.8265 -3.5064,0 -0.8264,-0.8264 0.5227,-2.461 0,-3.5064 -0.7392,-1.4784 -2.7672,-2.0279 -3.5064,-3.5064 -0.5227,-1.0454 0,-2.3376 0,-3.5064 0,-1.1688 0,-2.3376 0,-3.5064 0,-1.1688 -1.1688,-3.5064 0,-3.5064 1.1688,0 0,4.6752 0,3.5064 0,-2.3376 0.7392,-4.7951 0,-7.0128 -0.5227,-1.5681 -2.7672,-2.028 -3.5064,-3.5064 -0.092,-0.1834 -0.092,-10.3358 0,-10.5192 0.7392,-1.4784 2.7672,-2.028 3.5064,-3.5064 1.0454,-2.0908 -1.6529,-5.3599 0,-7.0128 0.8265,-0.8265 2.68,0.8265 3.5064,0 0.8265,-0.8265 -0.8264,-2.6799 0,-3.5064 0.8265,-0.8265 2.68,0.8265 3.5064,0 0.8265,-0.8265 -0.8264,-2.68 0,-3.5064 0.8265,-0.8265 2.68,0.8264 3.5064,0 1.653,-1.653 -1.6529,-5.3599 0,-7.0128 0.8265,-0.8265 2.68,0.8264 3.5064,0 0.8265,-0.8265 -1.1688,-3.5064 0,-3.5064 1.1688,0 0,4.6752 0,3.5064 0,-19.8697 2.3376,-1.1688 -3.5064,-7.0128 -0.8264,-0.8265 0.8265,-2.68 0,-3.5064 -0.8264,-0.8265 -2.6799,0.8264 -3.5064,0 -1.6529,-1.653 1.653,-5.3599 0,-7.0128 -0.8264,-0.8265 -2.6799,0.8264 -3.5064,0 -0.8264,-0.8265 0.8265,-2.68 0,-3.5065 -0.8264,-0.8264 -2.6799,0.8265 -3.5064,0 -1.6529,-1.6529 1.0454,-4.9219 0,-7.0128 -0.7392,-1.4784 -2.7672,-2.0279 -3.5064,-3.5064 -0.5227,-1.0454 0.8265,-2.6799 0,-3.5064 -0.8264,-0.8264 -2.6799,0.8265 -3.5064,0 -1.6529,-1.6529 1.653,-5.3598 0,-7.0128 -0.8265,-0.8264 -2.6799,0.8265 -3.5064,0 -0.8437,-0.8437 0.8438,-13.1818 0,-14.0256 -0.8265,-0.8265 -2.6799,0.8265 -3.5064,0 -0.8265,-0.8265 0,-2.3376 0,-3.5064 0,-1.1688 0,-4.6752 0,-3.5064 0,2.3376 0,4.6752 0,7.0128 -1.1688,3.5064 -2.61,6.9335 -3.5064,10.5192 -0.5669,2.2678 0,4.6752 0,7.0128 0,4.6752 0,9.3504 0,14.0256 0,1.1688 0.8265,2.68 0,3.5064 -0.8265,0.8265 -2.6799,-0.8264 -3.5064,0 -0.8265,0.8265 1.1688,3.5065 0,3.5065 -1.1688,0 0,-4.6753 0,-3.5065 0,3.5065 0,7.0129 0,10.5193 0,1.1688 0.8265,2.6799 0,3.5064 -0.8265,0.8264 -2.6799,-0.8265 -3.5064,0 -0.8265,0.8264 1.1688,3.5064 0,3.5064 -1.1688,0 0,-4.6752 0,-3.5064 0,2.3376 1.0454,4.922 0,7.0128 -0.5227,1.0454 -2.6799,-0.8265 -3.5064,0 -0.8265,0.8264 0.5227,2.461 0,3.5064 -0.7392,1.4784 -2.3376,4.6752 -3.5064,3.5064 -1.1688,-1.1688 5.1593,-3.5064 3.5064,-3.5064 -17.7137,0 -2.6948,2.6947 -7.0128,7.0128 -0.8265,0.8265 -2.68,-0.8265 -3.5064,0 -0.8265,0.8265 0.8264,2.6799 0,3.5064 -0.8265,0.8265 -2.68,-0.8265 -3.5064,0 -0.8265,0.8265 0.8264,2.6799 0,3.5064 -0.8265,0.8265 -2.68,-0.8265 -3.5064,0 -0.8265,0.8265 0.8264,2.6799 0,3.5064 -0.8265,0.8265 -2.68,-0.8265 -3.5064,0 -0.8265,0.8265 0.8264,2.6799 0,3.5064 -1.653,1.6529 -5.3599,-1.6529 -7.0128,0 -0.8265,0.8265 0.8264,2.6799 0,3.5064 -0.8265,0.8265 -2.68,-0.8265 -3.5064,0 -0.8265,0.8265 0.8264,2.6799 0,3.5064 -0.3507,0.3506 -10.1686,0.3506 -10.5193,0 -0.8264,-0.8265 0.8265,-2.6799 0,-3.5064 -0.8264,-0.8265 -2.6799,0.8265 -3.5064,0 -1.6529,-1.6529 1.653,-5.3599 0,-7.0128 -0.8264,-0.8265 -2.6799,0.8265 -3.5064,0 -0.8264,-0.8265 0.5227,-2.461 0,-3.5064 -0.7392,-1.4784 -2.7672,-2.028 -3.5064,-3.5064 -0.5227,-1.0454 0.8265,-2.6799 0,-3.5064 -0.8264,-0.8265 -2.6799,0.8265 -3.5064,0 -1.6529,-1.653 1.653,-5.3599 0,-7.0128 -0.8264,-0.8265 -2.6799,0.8264 -3.5064,0 -1.6529,-1.653 1.653,-5.3599 0,-7.0128 -0.8264,-0.8265 -2.6799,0.8264 -3.5064,0 -0.8264,-0.8265 0.8265,-2.68 0,-3.5064 -0.8264,-0.8265 -2.6799,0.8264 -3.5064,0 -0.8265,-0.8265 0.8265,-2.68 0,-3.5064 -1.6529,-1.653 -5.3599,1.6529 -7.0128,0 -0.8265,-0.8265 0.8265,-2.68 0,-3.5064 -0.8265,-0.8265 -2.461,0.5227 -3.5064,0 -1.4784,-0.7393 -2.028,-2.7672 -3.5064,-3.5064 -1.0454,-0.5228 -2.6799,0.8264 -3.5064,0 -0.8265,-0.8265 0.8265,-2.68 0,-3.5065 -1.169,-1.1689 -5.8439,1.169 -7.0128,0 -0.8265,-0.8264 0.8265,-2.6799 0,-3.5064 -0.1589,-0.1589 -15.8788,0 -17.532,0 -7.0128,0 -14.0257,0 -21.0385,0 -2.3376,0 -9.3504,0 -7.0128,0 2.3376,0 9.3504,0 7.0128,0 -3.5064,0 -7.1927,-1.1088 -10.5192,0 -1.1088,0.3696 0.5227,2.461 0,3.5064 -4.3328,8.6658 -3.5064,-1.2103 -3.5064,7.0129 -7.0128,-4.6752 -14.0256,-9.3504 -21.0384,-14.0257 0,-1.1688 0.8265,-2.6799 0,-3.5064 -0.8265,-0.8264 -2.6799,0.8265 -3.5064,0 -0.8265,-0.8264 0.8265,-2.6799 0,-3.5064 -0.8265,-0.8264 -2.6799,0.8265 -3.5064,0 -1.6529,-1.6529 1.6529,-5.3598 0,-7.0128 -0.8265,-0.8264 -2.6799,0.8265 -3.5064,0 -1.6529,-1.6529 1.6529,-5.3599 0,-7.0128 -0.8265,-0.8265 -2.6799,0.8265 -3.5064,0 -1.6529,-1.6529 1.6529,-5.3599 0,-7.0128 -0.8265,-0.8265 -2.68,0.8265 -3.5064,0 -1.7532,-1.7532 1.7532,-8.766 0,-10.5192 -0.8265,-0.8265 -2.68,0.8265 -3.5064,0 -1.7532,-1.7532 1.7532,-8.766 0,-10.5192 -0.8265,-0.8265 -2.68,0.8264 -3.5064,0 -0.8265,-0.8265 0,-2.3376 0,-3.5064 0,-1.6533 0.1589,-17.3731 0,-17.532 -0.8265,-0.8265 -2.68,0.8264 -3.5064,0 -0.1411,-0.1411 0,-12.738 0,-14.0257 0,-9.3504 0,-18.7008 0,-28.0512 0,-2.3376 0,-4.6752 0,-7.0128 0,-1.1688 0,-4.6752 0,-3.5064 0,2.3376 0,9.3504 0,7.0128 0,-3.5064 1.1088,-7.1927 0,-10.5192 -0.3696,-1.1088 -3.5064,1.1688 -3.5064,0 0,-4.9674 16.3632,9.9348 -3.5064,0 -1.0454,-0.5227 0.8264,-2.6799 0,-3.5064 -0.8265,-0.8265 -2.3376,0 -3.5064,0 -1.2877,0 -13.8846,-0.1411 -14.0257,0 -1.6529,1.6529 1.653,5.3599 0,7.0128 -0.8264,0.8265 -2.6799,-0.8265 -3.5064,0 -0.8264,0.8265 0.5227,2.461 0,3.5064 -0.7392,1.4784 -2.7672,2.028 -3.5064,3.5064 -0.5227,1.0454 0.8265,2.6799 0,3.5064 -0.8264,0.8265 -2.6799,-0.8265 -3.5064,0 -0.8264,0.8265 0.8265,2.6799 0,3.5064 -1.6529,1.6529 -5.3598,-1.6529 -7.0128,0 -0.8264,0.8265 0.8265,2.6799 0,3.5064 -0.3506,0.3507 -10.1686,0.3507 -10.5192,0 -0.8265,-0.8265 0.8265,-2.6799 0,-3.5064 -1.6529,-1.6529 -5.3599,1.6529 -7.0128,0 -0.8265,-0.8265 0.8265,-2.6799 0,-3.5064 -0.8265,-0.8265 -2.6799,0.8265 -3.5064,0 -0.8265,-0.8265 0.8265,-2.6799 0,-3.5064 -0.8265,-0.8265 -2.6799,0.8265 -3.5064,0 -0.8265,-0.8265 0.8265,-2.6799 0,-3.5064 -0.8265,-0.8265 -2.6799,0.8265 -3.5064,0 -0.8265,-0.8265 0.8265,-2.6799 0,-3.5064 -1.6529,-1.6529 -5.3599,1.6529 -7.0128,0 -0.8265,-0.8265 0.8264,-2.6799 0,-3.5064 -0.8265,-0.8265 -2.68,0.8265 -3.5064,0 -0.8265,-0.8265 0.8264,-2.6799 0,-3.5064 -0.8265,-0.8265 -2.68,0.8265 -3.5064,0 -0.8265,-0.8265 0.8264,-2.6799 0,-3.5064 -1.653,-1.6529 -7.0128,2.3376 -7.0128,0 0,-4.9674 16.3632,9.9348 -3.5064,0 -9.3505,-4.6752 10.5192,-3.5064 -3.5064,-3.5064 -8.1817,0 -16.3633,0 -24.5449,0 -1.1688,0 -2.6799,0.8264 -3.5064,0 -0.8264,-0.8265 0.8265,-2.68 0,-3.5064 -0.8264,-0.8265 -2.3376,0 -3.5064,0 -1.1688,0 -2.3376,0 -3.5064,0 -1.1688,0 -4.6752,0 -3.5064,0 2.3376,0 9.3504,0 7.0128,0 -4.6752,0 -9.3504,0 -14.0256,0 -1.1688,0 -2.3376,0 -3.5064,0 -1.1688,0 -3.5064,1.1688 -3.5064,0 0,-1.1688 3.5064,1.1688 3.5064,0 0,-1.653 -3.5064,-1.8535 -3.5064,-3.5064 0,-1.653 2.7672,-2.028 3.5064,-3.5064 0.5227,-1.0454 0,-2.3376 0,-3.5064 0,-1.1688 0,-2.3376 0,-3.5064 0,-7.0128 0,-14.0257 0,-21.0385 0,-6.4065 -0.841,-3.5064 -7.0128,-3.5064 -1.1688,0 -4.6752,0 -3.5064,0 2.3376,0 9.3504,0 7.0128,0 -7.0128,0 -14.0256,0 -21.0384,0 -1.1688,0 -2.68,0.8265 -3.5064,0 -0.8265,-0.8264 0.8264,-2.6799 0,-3.5064 -1.653,-1.6529 -5.3599,1.653 -7.0128,0 -0.8265,-0.8264 0.8264,-2.6799 0,-3.5064 -1.169,-1.1689 -5.8439,1.169 -7.0128,0 -0.8265,-0.8264 0.8264,-2.6799 0,-3.5064 -1.653,-1.6529 -5.3599,1.653 -7.0129,0 -0.8264,-0.8264 0.8265,-2.6799 0,-3.5064 -1.6529,-1.6529 -5.3598,1.653 -7.0128,0 -0.8264,-0.8265 0.8265,-2.6799 0,-3.5064 -1.6529,-1.6529 -7.0128,2.3376 -7.0128,0 0,-1.1688 2.3376,0 3.5064,0 1.1688,0 2.3376,0 3.5064,0 -2.3376,-5.844 -5.0224,-11.5608 -7.0128,-17.532 -0.3471,-1.0413 -0.3598,-16.8123 0,-17.532 0.7392,-1.4785 2.7672,-2.028 3.5064,-3.5064 0.5227,-1.0454 0,-2.3376 0,-3.5064 0,-1.1688 0,-2.3376 0,-3.5064 0,-1.1688 -1.1688,-3.5064 0,-3.5064 1.1688,0 1.1688,3.5064 0,3.5064 -1.6529,0 -2.0279,-2.7672 -3.5064,-3.5064 -1.3902,-0.6952 -9.8023,0.7168 -10.5192,0 -0.8265,-0.8265 0.8265,-2.68 0,-3.5064 -0.8265,-0.8265 -2.3376,0 -3.5064,0 -7.0128,0 -14.0256,0 -21.0384,0 -1.1688,0 -2.3376,0 -3.5064,0 -1.1688,0 -2.68,0.8264 -3.5064,0 -0.8265,-0.8265 0.8264,-2.68 0,-3.5065 -0.8265,-0.8264 -2.3376,0 -3.5064,0 -1.1688,0 -2.3376,0 -3.5064,0 -10.5192,0 -21.0385,0 -31.5577,0 -0.8504,0 -10.4064,0.1128 -10.5192,0 -0.8264,-0.8264 0.8265,-2.6799 0,-3.5064 -0.8264,-0.8264 -2.3376,0 -3.5064,0 -1.1688,0 -2.3376,0 -3.5064,0 -14.0256,0 -28.0512,0 -42.0768,0 -7.0128,0 -14.0257,0 -21.0385,0 -1.1688,0 -2.6799,0.8265 -3.5064,0 -0.8264,-0.8264 0.8265,-2.6799 0,-3.5064 -0.1127,-0.1127 -9.6688,0 -10.5192,0 -1.1688,0 -2.6799,-0.8264 -3.5064,0 -0.8264,0.8265 0.8265,2.68 0,3.5064 -0.8264,0.8265 -2.3376,0 -3.5064,0 -1.1688,0 -3.5064,1.1688 -3.5064,0 0,-1.1688 4.6752,0 3.5064,0 -2.3376,0 -4.6752,0 -7.0128,0 -1.1688,0 -3.5064,1.1688 -3.5064,0 0,-1.1688 4.6752,0 3.5064,0 -2.3376,0 -5.3599,-1.6529 -7.0128,0 -1.1688,1.1688 2.7672,2.028 3.5064,3.5064 0.5227,1.0455 0,2.3377 0,3.5065 3.876,-11.6281 3.5064,-6.8232 3.5064,-14.0257 0,-1.1688 -0.8265,-2.6799 0,-3.5064 0.8265,-0.8264 2.6799,0.8265 3.5064,0 0.8265,-0.8264 0.8265,-2.6799 0,-3.5064 -0.8265,-0.8264 -2.3376,0 -3.5064,0"
         style="fill:none;fill-rule:evenodd;stroke:#000000;stroke-width:1px;stroke-linecap:butt;stroke-linejoin:miter;stroke-opacity:1" />
    </g>
  </g>
</svg>
