<svg xmlns="http://www.w3.org/2000/svg" width="210mm" height="297mm" viewBox="0 0 744.09448819 1052.3622047"><path d="M138.52 426.482c-1.018-2.385-1.004-3.792-1.004-6.02 0-.335.237-.767 0-1.004-.236-.236-.767.237-1.003 0-.046-.045 0-4.544 0-5.017 0-.243-.033-2.978 0-3.01.236-.237.767.236 1.003 0 .04-.04 0-3.646 0-4.014v-8.028c0-.334-.236-.767 0-1.003.237-.237.767.236 1.004 0 .04-.04 0-3.646 0-4.014 0-.525-.132-3.75 0-4.014.211-.423.791-.58 1.003-1.003.347-.694-.352-4.665 0-5.018.237-.236.767.237 1.003 0 .033-.032 0-2.767 0-3.01v-2.007c0-.335-.15-.704 0-1.003 1.015-2.03 2.33-.322 3.01-1.004.237-.236-.236-.767 0-1.003.336-.335 1.673.334 2.008 0 .236-.237-.237-.767 0-1.004.473-.473 1.534.473 2.007 0 .236-.236-.237-.767 0-1.003.473-.473 1.534.473 2.007 0 .236-.237-.237-.767 0-1.004.334-.335 1.672.335 2.006 0 .237-.236-.236-.767 0-1.003.237-.237.767.236 1.004 0 .236-.237-.237-.767 0-1.004.236-.236.767.237 1.003 0 .237-.236-.236-.767 0-1.003.237-.237.767.236 1.004 0 .236-.237-.237-.767 0-1.004.473-.473 1.534.473 2.007 0 .236-.236-.237-.767 0-1.003.236-.237.767.236 1.003 0 1.338-1.338-1.672-1.004 1.004-1.004.334 0 1.003-.334 1.003 0 0 .335-1.003.335-1.003 0 0-2.088 1.407-.403 2.007-1.003.236-.236-.237-.767 0-1.003.473-.473 1.408.299 2.006 0 .424-.212.58-.792 1.004-1.004.598-.299 1.534.473 2.007 0 .236-.236-.237-.767 0-1.003.473-.473 1.534.473 2.007 0 .236-.237-.237-.767 0-1.004.473-.473 1.534.473 2.007 0 .236-.236-.237-.767 0-1.003.236-.237.767.236 1.003 0 .237-.237-.236-.767 0-1.004.237-.236.767.237 1.004 0 .236-.236-.237-.767 0-1.003.236-.237.767.236 1.003 0 .237-.237-.236-.767 0-1.004.237-.236.767.237 1.004 0 .236-.236-.237-.767 0-1.003.236-.237.766.236 1.003 0 .333-.333-.333-1.674 0-2.007.236-.236.767.237 1.003 0 .237-.236-.236-.767 0-1.003.237-.237.767.236 1.004 0 .473-.473-.473-1.534 0-2.007.236-.237.767.236 1.003 0 .473-.473-.473-1.534 0-2.007.237-.237.767.236 1.004 0 .236-.237-.237-.767 0-1.004.236-.236.767.237 1.003 0 .473-.473-.473-1.534 0-2.007.237-.236.767.237 1.004 0 .473-.473-.473-1.533 0-2.007.236-.236.767.237 1.003 0 .473-.473-.473-1.533 0-2.006.237-.237.767.236 1.004 0 .473-.473-.473-1.534 0-2.007.236-.237.767.236 1.003 0 .473-.473-.473-1.534 0-2.007.237-.237.767.236 1.004 0 .236-.237 0-.67 0-1.004.334 0 .766.237 1.003 0 .237-.236-.15-.704 0-1.003.212-.423.792-.58 1.003-1.004.15-.299-.15-.704 0-1.003.212-.423.792-.58 1.004-1.004.15-.299-.237-.766 0-1.003.236-.237.767.237 1.003 0 .237-.237-.15-.704 0-1.003.212-.424.792-.58 1.004-1.004.15-.3-.237-.767 0-1.003.236-.237.767.236 1.003 0 .237-.237-.236-.767 0-1.004.237-.236.767.237 1.004 0 .236-.236-.335-1.003 0-1.003.334 0-.335 1.003 0 1.003.473 0 .58-.792 1.003-1.003.3-.15.767.236 1.004 0 .236-.237-.237-.767 0-1.004.236-.236.669 0 1.003 0 .335 0 1.004-.334 1.004 0 0 .335-1.338 0-1.004 0h2.007c.335 0 1.003-.334 1.003 0 0 .335-1.003-.334-1.003 0 0 1.24 1.407 1.004 2.007 1.004h2.007-2.007 3.01c.335 0 1.004-.335 1.004 0 0 1.421-4.683-2.843 1.003 0 .3.15-.236.767 0 1.003.237.237.67 0 1.004 0h2.007-2.007 3.01c.335 0 .767-.236 1.004 0 .236.237-.237.767 0 1.004.236.236 1.003-.335 1.003 0 0 .334-1.338 0-1.003 0 .668 0 1.408-.3 2.006 0 .3.15.237.767 0 1.003-.236.237-.767-.236-1.003 0-.237.237.236.767 0 1.004-.237.236-.767-.237-1.003 0-.237.236.236.766 0 1.003-.237.237-.767-.237-1.004 0-.473.473.473 1.534 0 2.007-.236.236-.704-.15-1.003 0-.847.423-1.161 1.584-2.007 2.007-.3.15-.767-.237-1.004 0-.236.236-.236.767 0 1.003.237.237.67 0 1.004 0h7.024c-.67 0-2.007-.669-2.007 0 0 1.153 2.29 1.004 3.01 1.004.698 0 4.655-.182 5.018 0 .423.211.58.792 1.003 1.003.398.2 2.805-.205 3.01 0 .237.237-.236.767 0 1.004.473.473 1.534-.473 2.007 0 .237.236-.236.767 0 1.003.473.473 1.534-.473 2.007 0 .237.237-.236.767 0 1.004.473.473 1.409-.3 2.007 0 .423.211.58.791 1.004 1.003.398.199 2.805-.205 3.01 0 1.338 1.338-1.672 1.003 1.003 1.003.244 0 2.979-.032 3.01 0 .237.237-.236.767 0 1.004.503.502 2.51-.502 3.011 0 .237.236-.236.767 0 1.003.473.473 1.534-.473 2.007 0 .237.237-.236.767 0 1.004.237.236.767-.237 1.004 0 .236.236-.237.767 0 1.003.236.237.766-.236 1.003 0 .237.237-.237.767 0 1.004.237.236.669 0 1.003 0 0 .334-.236.767 0 1.003.237.237.767-.236 1.004 0 .236.237-.15.704 0 1.004 3.328 3.328-.473-.946 1.003 2.007.212.423.792.58 1.004 1.003.299.598-.473 1.534 0 2.007.236.236.767-.237 1.003 0 .237.236 0 .669 0 1.003v16.056c0 .452.153 2.705 0 3.01-.211.423-.792.58-1.003 1.004-.13.259 0 5.309 0 6.02 0 .335.15.705 0 1.004-.212.423-.792.58-1.004 1.003-.181.363 0 4.32 0 5.017 0 .335-.236.767 0 1.004.237.236.767-.237 1.004 0 .205.205-.2 2.612 0 3.01.211.423.792.58 1.003 1.004.15.299 0 .669 0 1.003v-1.002c0 1.003-.317 2.058 0 3.01.106.317.67 0 1.004 0v2.006c0-.669-.67-2.007 0-2.007 1.28 0 1.003 3.257 1.003 4.014l1.004 4.014c.334.334.792.58 1.003 1.003.2.398-.205 2.805 0 3.01.237.237.767-.236 1.004 0 .205.206-.2 2.613 0 3.011 1.24 2.48 1.003-.346 1.003 2.007 0 2.676-.334-.335 1.004 1.003.501.502-.502 2.509 0 3.01.236.237.766-.236 1.003 0 .502.502-.502 2.51 0 3.011.236.237.767-.236 1.003 0 .502.502-.501 2.509 0 3.01.237.237.767-.236 1.004 0 .473.473-.473 1.534 0 2.007.236.237.767-.236 1.003 0 .473.473-.473 1.534 0 2.007.237.237.767-.236 1.004 0 .236.237-.15.705 0 1.004 3.328 3.328-.473-.946 1.003 2.007.212.423.792.58 1.004 1.003.299.598-.473 1.534 0 2.007.236.237.767-.237 1.003 0 .502.502-.502 2.509 0 3.01.237.237.767-.236 1.004 0 .236.237-.237.767 0 1.004.236.236.767-.237 1.003 0 .473.473-.473 1.534 0 2.007.237.236.767-.237 1.004 0 .236.236-.15.704 0 1.003.211.423.791.58 1.003 1.004.15.299-.237.767 0 1.003.236.237.767-.236 1.003 0 .502.502-.501 2.509 0 3.01.237.237.767-.236 1.004 0 .236.237-.237.767 0 1.004.236.236.767-.237 1.003 0 .237.236-.236.767 0 1.003.237.237.767-.236 1.004 0 .236.237.334 1.004 0 1.004-.335 0 0-.67 0-1.004 1.338.67 2.625 1.452 4.014 2.007.4.16 2.831-.179 3.01 0 .237.237-.237.767 0 1.004.473.473 1.534-.473 2.007 0 .236.236-.237.767 0 1.003.236.237.767-.236 1.003 0 .237.237-.15.705 0 1.004.212.423.792.58 1.004 1.003.15.3-.237.767 0 1.004.236.236.767-.237 1.003 0 .237.236-.236.767 0 1.003.473.473 1.409-.3 2.007 0 .423.212.58.792 1.004 1.004.299.15 1.003-.335 1.003 0 0 .334-1.338 0-1.003 0 5.686 0 .334.668 2.007-1.004.501-.502 2.508.502 3.01 0 .236-.236-.237-.767 0-1.003.236-.237.669 0 1.003 0 .335 0 1.004-.335 1.004 0 0 .334-1.004.334-1.004 0 0-1.425 2.297-1.004 3.01-1.004h1.004c-.669 0-2.007.67-2.007 0 0-.748 1.298-.767 2.007-1.003.946-.315 5.37.325 6.02 0 .424-.212.581-.792 1.004-1.004.3-.15.767.237 1.004 0 .473-.473-.473-1.534 0-2.007.473-.473 1.534.473 2.007 0 .236-.236-.237-.767 0-1.003.045-.046 4.544 0 5.017 0h1.004c.334 0 1.003-.335 1.003 0 0 .334-1.338 0-1.003 0h4.013-2.007 3.01c.335 0 1.004-.335 1.004 0 0 .334-1.338 0-1.003 0 .669 0 1.408.299 2.007 0 .299-.15-.237-.767 0-1.004.236-.236.669 0 1.003 0 .335 0 1.004-.334 1.004 0 0 .335-1.004.335-1.004 0 0-2.088 1.407-.403 2.007-1.003.237-.237-.236-.767 0-1.004.237-.236.67 0 1.004 0 0-.334-.237-.766 0-1.003.236-.236.766.237 1.003 0 .032-.032 0-2.767 0-3.01v-2.007c0-.335.237-.767 0-1.004-.237-.236-1.003-.334-1.003 0 0 .473 1.476 1.004 1.003 1.004-5.07 0-.771-.771-2.007-2.007-.241-.242-3.772.241-4.014 0-.236-.237.237-.767 0-1.004-.236-.236-.669 0-1.003 0h-1.004 2.007-2.007c2.676 0-.334.335 1.004-1.003.236-.237.767.236 1.003 0 .237-.237-.236-.767 0-1.004.237-.236.767.237 1.004 0 .473-.473-.473-1.533 0-2.006.236-.237.767.236 1.003 0 .237-.237-.236-.767 0-1.004.237-.236.767.237 1.004 0 .236-.236-.237-.767 0-1.003.236-.237.767.236 1.003 0 .473-.473-.473-1.534 0-2.007.237-.237.767.236 1.004 0 .236-.237-.237-.767 0-1.004.236-.236.766.237 1.003 0 .237-.236-.237-.767 0-1.003 2.676 0-.335.334 1.003-1.004.04-.04 3.646 0 4.014 0h1.004-2.007 4.014c.334 0 .767-.236 1.003 0 .237.237.335 1.004 0 1.004-.473 0-1.476-1.004-1.003-1.004.748 0 1.297.767 2.007 1.004.63.21 3.206 0 4.013 0h3.011-2.007 3.01c.335 0 1.004-.335 1.004 0 0 .334-1.004.334-1.004 0 0-.392 1.88-1.13 1.004-2.007-.237-.237-.767.236-1.004 0-.236-.237.15-.704 0-1.004-.211-.423-.792-.58-1.003-1.003-.15-.3.15-.704 0-1.003-.212-.424-.792-.58-1.004-1.004-.15-.3.237-.767 0-1.003-.236-.237-.767.236-1.003 0-.032-.033 0-2.767 0-3.01 0-.335-.237-.768 0-1.004.236-.237.767.236 1.003 0 .473-.473-.669-2.007 0-2.007.335 0-.334 1.003 0 1.003 2.088 0 .404-1.407 1.004-2.007.236-.236.704.15 1.003 0 .423-.211.58-.791 1.004-1.003.299-.15.767.236 1.003 0 .237-.237-.236-.767 0-1.003.473-.474 1.534.473 2.007 0 .237-.237-.236-.767 0-1.004.473-.473 1.534.473 2.007 0 .236-.236-.237-.767 0-1.003.236-.237.767.236 1.003 0 .237-.237-.236-.767 0-1.004.237-.236.767.237 1.004 0 2.076-2.076-3.173.081 1.003-2.007.3-.15.767.237 1.004 0 .236-.236-.237-.767 0-1.003.236-.237.767.236 1.003 0 .237-.237-.236-.767 0-1.004.237-.236.767.237 1.004 0 .473-.473-.473-1.534 0-2.007.236-.236.767.237 1.003 0 .148-.147-.118-3.01 0-3.01.3 0-.66 3.328 1.004 0 .199-.398-.206-2.805 0-3.01.236-.237.767.236 1.003 0 .473-.473-.473-1.534 0-2.007 1.338-1.338 1.004 1.672 1.004-1.004v-2.007c0 .67-.67 2.007 0 2.007 2.068 0 .449-3.46 1.003-4.014.236-.236.767.237 1.003 0 .473-.473-.473-1.533 0-2.006.237-.237.767.236 1.004 0 .473-.473-.473-1.534 0-2.007 1.338-1.338 1.003 1.672 1.003-1.004v-3.01c0-.335-.334-1.004 0-1.004.335 0 0 1.338 0 1.004v-3.01c0-.335.237-.767 0-1.004-.236-.237-.767.237-1.003 0-.502-.502.502-2.509 0-3.01-1.338-1.338-1.004 1.672-1.004-1.004v-5.017c0 .669-.669 2.007 0 2.007 2.764 0 .284-2.29 1.004-3.01.236-.237 1.003-.335 1.003 0 0 1.476-3.328-2.325 0 1.003 1.004-.67 1.932-1.468 3.01-2.007.61-.305 5.412.305 6.021 0 .424-.212.58-.792 1.004-1.004.544-.272 3.74.275 4.014 0 .236-.236-.237-.766 0-1.003.473-.473 1.408.3 2.007 0 .423-.211.58-.792 1.003-1.003.598-.3 1.409.299 2.007 0 .423-.212.58-.792 1.003-1.004.694-.346 4.666.352 5.018 0 .236-.236-.237-.767 0-1.003.334-.335 1.672.334 2.007 0 .236-.237-.237-.767 0-1.004.31-.31 4.706.31 5.017 0 .236-.236-.237-.767 0-1.003.241-.242 3.772.241 4.014 0 .236-.237-.237-.767 0-1.004.473-.473 1.534.473 2.007 0 .236-.236-.237-.767 0-1.003.501-.502 2.508.502 3.01 0 .237-.237-.236-.767 0-1.004.275-.274 3.47.273 4.014 0 .423-.211.58-.792 1.003-1.003.693-.347 4.665.352 5.018 0 .236-.237-.237-.767 0-1.004.205-.205 2.612.2 3.01 0 .423-.211.58-.791 1.003-1.003.637-.318 4.692.325 5.018 0 .236-.236-.237-.767 0-1.003.205-.206 2.612.198 3.01 0 .423-.212.58-.792 1.004-1.004.598-.3 1.408.3 2.006 0 .424-.211.58-.792 1.004-1.003.598-.3 1.534.473 2.007 0 .236-.237-.237-.767 0-1.004.473-.473 1.408.3 2.007 0 .423-.211.58-.792 1.003-1.003.803-.402 2.208.401 3.01 0 .424-.212.58-.792 1.004-1.004.305-.152 2.558 0 3.01 0 2.354 0-.473.237 2.007-1.003.631-.316 3.383.315 4.014 0 .423-.212.58-.792 1.004-1.004.802-.401 2.207.402 3.01 0 .423-.211.58-.792 1.003-1.003.398-.199 2.806.205 3.01 0 .237-.237-.236-.767 0-1.004.474-.473 1.41.3 2.008 0 .423-.211.58-.791 1.003-1.003.398-.199 2.805.205 3.01 0 .237-.237-.236-.767 0-1.003.275-.275 3.47.272 4.014 0 .423-.212.58-.792 1.004-1.004.63-.315 3.383.315 4.014 0 2.48-1.24-.347-1.003 2.007-1.003.243 0 2.978.032 3.01 0 .236-.237-.237-.767 0-1.004.236-.236.669 0 1.003 0 .473 0 4.972.046 5.018 0 .236-.236-.237-.767 0-1.003.205-.205 2.612.199 3.01 0 .423-.212.58-.792 1.003-1.004.599-.299 1.534.473 2.007 0 .237-.236-.236-.767 0-1.003.237-.237.67 0 1.004 0h1.003-2.007 3.01c.37 0 3.974.04 4.015 0 .236-.237-.237-.767 0-1.004.501-.501 2.508.502 3.01 0 .236-.236-.237-.767 0-1.003.473-.473 1.534.473 2.007 0 .236-.237-.237-.767 0-1.004.241-.241 3.772.242 4.014 0 .236-.236-.237-.766 0-1.003.241-.241 3.772.241 4.014 0 .236-.237-.237-.767 0-1.003.205-.206 2.612.198 3.01 0 .423-.212.58-.792 1.003-1.004.803-.401 2.208.401 3.01 0 .424-.211.581-.792 1.004-1.003.3-.15.67 0 1.004 0h7.023c.453 0 2.706.152 3.011 0 .423-.212.58-.792 1.004-1.004.363-.181 4.319 0 5.017 0 .334 0 .767-.236 1.003 0 .237.237-.236.767 0 1.004.033.032 2.767 0 3.01 0h15.053c.334 0 .767-.237 1.003 0 .237.236-.236.767 0 1.003.502.502 2.509-.502 3.01 0 .237.237-.236.767 0 1.004.473.473 1.409-.3 2.007 0 .423.211.58.791 1.004 1.003.598.3 1.534-.473 2.007 0 .236.237-.237.767 0 1.003.473.473 1.408-.299 2.007 0 .423.212.58.792 1.003 1.004.398.199 2.805-.205 3.01 0 .237.236-.236.767 0 1.003.206.206 2.613-.199 3.01 0 .424.212.581.792 1.004 1.004.264.132 3.49 0 4.014 0h4.014-2.007c7.117 0 .588-.71 4.014 1.003.398.2 2.805-.205 3.01 0 .237.237-.236.767 0 1.004.473.473 1.409-.3 2.007 0 .423.211.58.792 1.004 1.003.299.15.767-.236 1.003 0 .237.237-.236.767 0 1.004.237.236.669 0 1.003 0 0 .334-.236.767 0 1.003.237.237.767-.236 1.004 0 .236.237-.237.767 0 1.004.236.236.767-.237 1.003 0 .237.236-.15.704 0 1.003.212.423.792.58 1.004 1.003.15.3-.237.767 0 1.004.236.236.767-.237 1.003 0 .237.236-.15.704 0 1.003.212.423.792.58 1.004 1.004.15.299-.237.767 0 1.003.236.237.767-.236 1.003 0 .473.473-.473 1.534 0 2.007.237.237.767-.236 1.004 0 .473.473-.473 1.534 0 2.007.236.237.767-.236 1.003 0 .237.237-.236.767 0 1.004.237.236.767-.237 1.004 0 .473.473-.473 1.533 0 2.006.236.237.767-.236 1.003 0 .473.474-.473 1.534 0 2.007.237.237.767-.236 1.004 0 .473.473-.474 1.534 0 2.007.236.237.766-.236 1.003 0 .502.502-.502 2.509 0 3.01.236.237.767-.236 1.003 0 .473.474-.473 1.535 0 2.008.237.236.767-.237 1.004 0 .236.236-.237.767 0 1.003.236.237.767-.236 1.003 0 .473.473-.473 1.534 0 2.007.237.236.767-.237 1.004 0 .236.236-.237.767 0 1.003.236.237.669 0 1.003 0h2.007c.335 0 .767-.236 1.004 0 .236.237.334 1.004 0 1.004-.335 0-.237-.767 0-1.004.236-.236.704.15 1.003 0 .423-.211.58-.791 1.004-1.003.299-.15.704.15 1.003 0 .423-.212.58-.792 1.003-1.004.3-.15.767.237 1.004 0 .236-.236-.237-.766 0-1.003.335-.335 1.672.335 2.007 0 .236-.236-.237-.767 0-1.003.236-.237.767.236 1.003 0 .237-.237-.334-1.004 0-1.004.67 0-.473 1.534 0 2.007.237.237.767-.236 1.004 0 .501.502-.502 2.509 0 3.01.236.237.767-.236 1.003 0 .473.473-.473 1.534 0 2.007.237.237.67 0 1.004 0 .334 0 .704.15 1.003 0 .423-.211.58-.792 1.004-1.003.299-.15.704.15 1.003 0 .423-.212.58-.792 1.003-1.004.3-.15.767.237 1.004 0 .236-.236-.237-.767 0-1.003.236-.237.767.236 1.003 0 .237-.237-.236-.767 0-1.004.473-.473 1.534.474 2.007 0 .237-.236-.236-.766 0-1.003.473-.473 1.534.473 2.007 0 .237-.236-.236-.767 0-1.003.473-.473 1.534.473 2.007 0 .237-.237-.236-.767 0-1.004.237-.236.67 0 1.004 0 0-.334-.237-.767 0-1.003.31-.311 4.706.31 5.017 0 .236-.237-.237-.767 0-1.004.236-.236.669 0 1.003 0 .712 0 5.762.13 6.021 0 .423-.211.58-.792 1.003-1.003.599-.3 1.534.473 2.007 0 .237-.237-.236-.767 0-1.004.473-.473 1.409.3 2.007 0 .423-.211.58-.792 1.004-1.003.63-.316 3.383.315 4.014 0 .423-.212.58-.792 1.003-1.004.264-.132 3.49 0 4.014 0 .243 0 2.978.033 3.01 0 .237-.236-.236-.767 0-1.003.033-.032 2.767 0 3.01 0h1.004c.335 0 1.004-.335 1.004 0 0 .334-1.004.334-1.004 0 0-1.425 3.546-1.004 1.004-1.004h-1.004c-1.166 2.75-1.003 5.212-1.003 8.028v1.004c0 .334-.15.704 0 1.003.211.423.792.58 1.003 1.003.182.363 0 4.32 0 5.018v16.055c0 .335.335 1.004 0 1.004-.334 0 0-1.338 0-1.004v2.007c0 .334.237.767 0 1.003-.236.237-.767-.236-1.003 0-.237.237.236.767 0 1.004-.237.236-.767-.237-1.004 0-.236.236.237.767 0 1.003-.236.237-.767-.236-1.003 0-.237.237.236.767 0 1.004-.237.236-.767-.237-1.004 0-.236.236.237.767 0 1.003-.236.237-.767-.236-1.003 0-.237.237.236.767 0 1.004-.237.236-.767-.237-1.004 0-.236.236.237.767 0 1.003-.236.237-.767-.236-1.003 0-.237.237.236.767 0 1.004-.237.236-.767-.237-1.004 0-.236.236.237.767 0 1.003-.236.237-.766-.236-1.003 0-.237.237.15.704 0 1.004-.602 1.204-2.408 1.806-3.01 3.01-.15.3.15.704 0 1.003-.212.423-.67.67-1.004 1.004-.334.334-.58.792-1.003 1.003-.3.15-.767-.236-1.004 0-.236.237.15.705 0 1.004-.602 1.204-2.408 1.806-3.01 3.01-.15.3.236.767 0 1.004-.237.236-.767-.237-1.004 0-.236.236.237.767 0 1.003-.236.237-.767-.236-1.003 0-.473.473.473 1.534 0 2.007-.237.236-.767-.237-1.004 0-.236.236 0 .669 0 1.003v1.004c1.169 7.852-3.743.733-5.017 2.007-.236.236.237.767 0 1.003-.236.237-.767-.236-1.003 0-.237.237.236.767 0 1.004-.237.236-.767-.237-1.004 0-.236.236.237.767 0 1.003-.473.473-1.534-.473-2.007 0-.236.237.237.767 0 1.004-.473.473-1.533-.473-2.007 0-.236.236.237.767 0 1.003-.236.237-.766-.236-1.003 0-.237.237.237.767 0 1.004-.473.473-1.534-.474-2.007 0-.236.236.237.766 0 1.003-.236.236-.767-.237-1.003 0-.237.236.334 1.003 0 1.003-.335 0 .334-1.003 0-1.003-.473 0-.58.792-1.004 1.003-.299.15-1.003.335-1.003 0 0-.334 1.338 0 1.003 0-.669 0-1.372-.211-2.007 0-.448.15-.58.792-1.003 1.004-.599.3-1.534-.473-2.007 0-.237.236.236.767 0 1.003-.473.473-1.534-.473-2.007 0-.237.237.237.767 0 1.004-.473.473-1.409-.3-2.007 0-.423.211-1.476 1.003-1.003 1.003.748 0 2.755-1.003 2.007-1.003-1.058 0-1.985.747-3.01 1.003-.325.081-.768-.236-1.004 0-1.338 1.338 1.672 1.004-1.004 1.004h-1.003 2.007c-1.004 0-2.059-.318-3.01 0-.318.105 0 .669 0 1.003h-2.008c-.334 0-.766-.236-1.003 0-.237.237.237.767 0 1.004-.473.473-1.534-.473-2.007 0-.236.236.237.767 0 1.003-.502.502-2.509-.502-3.01 0-.237.237.236.767 0 1.004-.237.236-.67 0-1.004 0-.334 0-1.003.334-1.003 0 0-.335 1.24-.237 1.003 0-2.367 2.367-3.01-.594-3.01 2.006 0 2.676.334-.334-1.004 1.004-.473.473.473 1.534 0 2.007-.236.236-.767-.237-1.003 0-.237.236.236.767 0 1.003-.237.237-.767-.236-1.003 0-.474.473.473 1.534 0 2.007-.237.237-.67 0-1.004 0 0 .335.237.767 0 1.004-.236.236-.767-.237-1.003 0-.473.473.473 1.534 0 2.007-.237.236-.767-.237-1.004 0-.236.236.237.767 0 1.003-.236.237-.767-.236-1.003 0-.237.237.236.767 0 1.003-.237.237-.767-.236-1.004 0-.236.237.15.705 0 1.004-.211.423-.792.58-1.003 1.003-.15.3.236.767 0 1.004-.237.236-.705-.15-1.004 0-.423.211-.669 1.338-1.003 1.003-.335-.334 1.476-1.003 1.003-1.003-5.069 0-.77.771-2.007 2.007-.236.236-.767-.237-1.003 0-.237.236.236.767 0 1.003-.237.237-.767-.236-1.004 0-.236.237.237.767 0 1.004-.236.236-1.003.334-1.003 0 0-.074 2.826.092 3.01 0 .423-.212.58-.792 1.004-1.004.299-.15.767.237 1.003 0 .237-.236-.236-.767 0-1.003.473-.473 1.534.473 2.007 0 .237-.237-.236-.767 0-1.004.473-.473 1.534.473 2.007 0 .237-.236-.236-.767 0-1.003.237-.237.767.236 1.004 0 .236-.237-.237-.767 0-1.004.473-.473 1.533.473 2.007 0 .236-.236-.237-.767 0-1.003.236-.237.766-.237 1.003 0 .236.236-.237.767 0 1.003.236.237.767-.236 1.003 0 .237.237-.236.767 0 1.004.237.236.767-.237 1.004 0 .236.236-.237.767 0 1.003.236.237.767-.236 1.003 0 .473.473-.473 1.534 0 2.007.237.237.767-.236 1.004 0 .473.473-.473 1.534 0 2.007.236.237.767-.236 1.003 0 .473.473-.473 1.534 0 2.007.237.237.767-.236 1.004 0 .236.237-.237.767 0 1.003.334.335 1.672-.334 2.007 0 .236.237-.237.767 0 1.004.04.04 3.645 0 4.013 0 2.676 0-.334-.335 1.004 1.003.236.237.669 0 1.003 0h2.007-2.007 14.049c.334 0 .767-.236 1.003 0 .237.237-.236.767 0 1.004.237.236.67 0 1.004 0 .243 0 2.978.032 3.01 0 .237-.237-.237-.767 0-1.004.473-.473 1.534.473 2.007 0 .236-.236-.237-.767 0-1.003.473-.473 1.534.473 2.007 0 .236-.237-.237-.767 0-1.004.502-.501 2.508.502 3.01 0 .237-.236-.236-.766 0-1.003.502-.502 2.509.502 3.01 0 .237-.236-.236-.767 0-1.003 2.676 0-.334.334 1.004-1.004.205-.205 2.613.2 3.01 0 .424-.211.58-.792 1.004-1.003.544-.273 3.74.274 4.014 0 .236-.237-.237-.767 0-1.004.473-.473 1.408.3 2.007 0 3.328-3.328-.946.473 2.007-1.003.423-.212.58-.792 1.003-1.004.3-.15.767.237 1.003 0 .237-.236-.236-.767 0-1.003.237-.237.705.15 1.004 0 .423-.212.58-.792 1.003-1.004.3-.15.767.237 1.004 0 .236-.236-.237-.767 0-1.003.236-.237.767.236 1.003 0 .237-.237-.236-.767 0-1.004.237-.236.767.237 1.004 0 .236-.236-.237-.766 0-1.003.236-.236.767.237 1.003 0 .237-.236-.236-.767 0-1.003.237-.237.767.236 1.004 0 .236-.237-.237-.767 0-1.004.236-.236.767.237 1.003 0 .237-.236-.236-.767 0-1.003.237-.237.767.236 1.004 0 .236-.237-.335-1.004 0-1.004.334 0-.335 1.004 0 1.004.473 0 .58-.792 1.003-1.004.3-.15.669 0 1.003 0h1.004-2.007 3.01c.335 0 .767.237 1.004 0 1.338-1.338-1.673-1.003 1.003-1.003h7.025-2.006 3.01c.334 0 .767-.237 1.003 0 .237.236-.236.767 0 1.003.237.237.67 0 1.004 0h21.072c.335 0 .767.237 1.004 0 .236-.236-.237-.767 0-1.003.032-.033 2.767 0 3.01 0h8.028c.452 0 2.705-.153 3.01 0 .423.211.58.792 1.004 1.003.544.272 3.739-.274 4.014 0 .236.237-.237.767 0 1.004.473.473 2.006-.67 2.006 0 0 .334-1.003-.335-1.003 0 0 .473.792.58 1.003 1.003.982 1.964-1.513.51-2.006 1.004-.237.236.236.767 0 1.003-.237.237-.767-.236-1.004 0-.236.237.237.767 0 1.003-.236.237-.767-.236-1.003 0-.237.237.236.767 0 1.004-.237.236-.705-.15-1.004 0-.423.211-.58.792-1.003 1.003-.3.15-.767-.236-1.004 0-.236.237.237.767 0 1.004-.236.236-.767-.237-1.003 0-.237.236.236.767 0 1.003-.473.473-1.534-.473-2.007 0-.237.237.236.767 0 1.004-.237.236-.67 0-1.004 0-.334 0-1.003.334-1.003 0 0-.335 1.338 0 1.003 0-.669 0-1.408-.3-2.006 0-.3.15.236.767 0 1.003-.502.502-2.51-.502-3.01 0-.237.237.236.767 0 1.004-.242.241-3.773-.242-4.015 0-.236.236.237.767 0 1.003-.236.237-.669 0-1.003 0h-2.008c-.335 0-.767-.236-1.003 0-.237.237.236.767 0 1.004-.242.241-3.773-.242-4.014 0-.237.236.236.767 0 1.003-.502.502-2.509-.502-3.01 0-.237.237.236.767 0 1.003-.474.474-1.535-.473-2.008 0-.236.237.237.767 0 1.004-.236.236-.704-.15-1.003 0-3.328 3.328.946-.473-2.007 1.003-.423.212-.58.792-1.003 1.004-.3.15-.705-.15-1.004 0-.423.211-.58.792-1.003 1.003-.3.15-.767-.236-1.004 0-.236.237.237.767 0 1.004-.236.236-.669 0-1.003 0H684.4h2.007c-1.004 0-2.059-.318-3.01 0-.318.106.236.767 0 1.003-.335.335-1.673-.334-2.008 0-.236.237.237.767 0 1.004-.473.473-1.408-.3-2.006 0-.424.211-.58.792-1.004 1.003-.3.15-.704-.15-1.003 0-.423.212-.58.792-1.004 1.004-.299.15-.767-.237-1.003 0-.237.236.236.767 0 1.003-.237.237-.705-.15-1.004 0-.423.212-.58.792-1.003 1.004-.3.15-.767-.237-1.004 0-.236.236.237.766 0 1.003-.236.236-.767-.237-1.003 0-.237.236.236.767 0 1.003-.237.237-.767-.236-1.004 0-.236.237.237.767 0 1.004-.473.473-1.533-.473-2.006 0-.237.236.236.767 0 1.003-.237.237-.767-.236-1.004 0-.236.237.237.767 0 1.004-.473.473-1.534-.473-2.007 0-.236.236.237.767 0 1.003-.205.205-2.612-.199-3.01 0-.423.212-.58.792-1.004 1.004-.305.152-2.558 0-3.01 0h-13.045c-.334 0-.767-.237-1.003 0-.237.236.236.767 0 1.003-.237.237-.67 0-1.004 0h-9.031c-.334 0-.767-.236-1.003 0-.237.237.236.767 0 1.004-.275.274-3.47-.273-4.014 0-.423.211-.58.792-1.004 1.003-.398.199-2.805-.205-3.01 0-.237.237.236.767 0 1.004-.242.241-3.772-.242-4.014 0-.236.236.237.766 0 1.003-.045.045-4.544 0-5.017 0h-7.025 2.007-5.017c-.334 0-.767.237-1.003 0-.237-.237.236-.767 0-1.003-.04-.04-3.646 0-4.014 0-.335 0-1.003.334-1.003 0 0-.335 1.337 0 1.003 0-.669 0-1.409-.3-2.007 0-.3.15.237.766 0 1.003-.236.237-.669 0-1.003 0h-2.007c.669 0 2.007-.669 2.007 0 0 1.877-5.558.54-6.021 1.003-1.338 1.338 1.672 1.004-1.004 1.004h-1.003c-.335 0-.704-.15-1.004 0-.423.211-.58.792-1.003 1.003-.598.3-1.534-.473-2.007 0-.236.237.237.767 0 1.004-.236.236-.767-.237-1.003 0-.237.236.236.767 0 1.003-.237.237-.767-.236-1.004 0-.236.237.237.767 0 1.004-.236.236-1.003.334-1.003 0 0-.335 1.338 0 1.003 0-.669 0-1.408-.3-2.007 0-.299.15-.236.767 0 1.003.473.473 1.534-.473 2.007 0 .237.237-.236.767 0 1.004.148.147 3.01-.118 3.01 0 0 .334-1.337 0-1.003 0 .67 0 1.409-.3 2.007 0 .3.15.237.767 0 1.003-.236.237-.767-.236-1.003 0-.237.237.236.767 0 1.004-.473.473-1.534-.473-2.007 0-.237.236.236.766 0 1.003-.242.241-3.773-.241-4.014 0-.237.237.236.767 0 1.003-.335.335-1.673-.334-2.007 0-.237.237.236.767 0 1.004-.237.236-.767-.237-1.004 0-.236.236.237.767 0 1.003-.236.237-.704-.15-1.003 0-.423.212-.58.792-1.003 1.004-.599.299-1.534-.473-2.007 0-.237.236.236.767 0 1.003-.473.473-1.534-.473-2.007 0-.237.237.236.767 0 1.004-.473.473-1.409-.3-2.007 0-.423.211-.58.792-1.004 1.003-.299.15-.767-.236-1.003 0-.237.237.236.767 0 1.004-.237.236-.767-.237-1.004 0-.236.236.237.767 0 1.003-.473.473-1.533-.473-2.006 0-.237.237.236.767 0 1.004-.237.236-.767-.237-1.004 0-.236.236.237.767 0 1.003-.236.237-.767-.236-1.003 0-.237.237.236.767 0 1.003-.237.237-.767-.236-1.004 0-.236.237.237.767 0 1.004-.236.236-.767-.237-1.003 0-.237.236.236.767 0 1.003-.237.237-.767-.236-1.004 0-.236.237.237.767 0 1.004-.236.236-.767-.237-1.003 0-.237.236.236.767 0 1.003-.237.237-.767-.236-1.004 0-.236.237.237.767 0 1.004-.236.236-.767-.237-1.003 0-.237.236.236.767 0 1.003-.502.502-2.509-.502-3.01 0-.237.237.236.767 0 1.004-.237.236-.67 0-1.004 0h-1.003c.669 0 2.007.669 2.007 0 0-2.763-2.29-.284-3.01-1.004-.237-.236.236-.767 0-1.003-.237-.237-.768.236-1.004 0-.237-.237 0-.67 0-1.004v-11.038c0-.334.15-.704 0-1.003-.212-.423-.792-.58-1.004-1.004-.299-.598.473-1.534 0-2.007-.236-.236-.767.237-1.003 0-.237-.236.15-.704 0-1.003-.212-.423-.792-.58-1.004-1.003-.15-.3.237-.767 0-1.004-.236-.236-.767.237-1.003 0-.237-.236 0-.669 0-1.003-.335 0-.767.236-1.004 0-.236-.237.237-.767 0-1.004-.236-.236-.767.237-1.003 0-.237-.236.15-.704 0-1.003-.212-.423-.792-.58-1.004-1.004-.15-.299.237-.767 0-1.003-.236-.237-.766.236-1.003 0-.236-.237.237-.767 0-1.004-.045-.045-4.544 0-5.017 0h1.003-11.038c-.334 0-.767-.236-1.003 0-.237.237.236.767 0 1.004-.242.241-3.773-.242-4.014 0-.237.236.236.767 0 1.003-.502.502-2.509-.501-3.01 0-.237.237.236.767 0 1.004-.502.501-2.51-.502-3.01 0-.237.236.236.767 0 1.003-.474.473-1.41-.299-2.008 0-.423.212-.58.792-1.003 1.004-.3.15-.767-.237-1.004 0-.236.236.237.767 0 1.003-.241.242-3.772-.241-4.013 0-.237.237.236.767 0 1.004-.033.032-2.767 0-3.01 0-.335 0-.768.236-1.004 0-.237-.237.236-.767 0-1.004-.502-.502-2.509.502-3.01 0-.237-.236.236-.767 0-1.003-.311-.311-4.707.31-5.018 0-.236-.237.237-.767 0-1.004-.236-.236-.669 0-1.003 0h-5.018c-.334 0-.767-.236-1.003 0-.237.237.236.767 0 1.004-.04.04-3.645 0-4.014 0-.243 0-2.978-.033-3.01 0-.237.236.236.767 0 1.003-.237.237-.67 0-1.004 0h-4.014 2.007-4.014c-.334 0-.766-.236-1.003 0-.032.032 0 2.767 0 3.01-1.672.67-3.345 1.338-5.017 2.007-.335.335-.58.792-1.004 1.004-.299.15-.767-.237-1.003 0-.237.236.236.767 0 1.003-.237.237-.767-.236-1.004 0-.236.237.237.767 0 1.004-.236.236-.767-.237-1.003 0-.237.236.236.767 0 1.003-.237.237-.767-.236-1.004 0-.236.237.237.767 0 1.004-.236.236-.704-.15-1.003 0-.846.423-1.16 1.583-2.007 2.007-.3.15-.767-.237-1.003 0-.237.236.236.767 0 1.003-.237.237-.767-.236-1.004 0-.236.237.237.767 0 1.003-.236.237-.767-.236-1.003 0-.237.237.236.767 0 1.004-.237.236-.767-.237-1.004 0-.236.236.237.767 0 1.003-.236.237-.767-.236-1.003 0-.237.237.236.767 0 1.004-.237.236-.767-.237-1.004 0-.236.236.15.704 0 1.003-.211.423-.792.58-1.003 1.004-.15.299.236.767 0 1.003-.237.237-.767-.236-1.004 0-.236.237.237.767 0 1.004-.236.236-.767-.237-1.003 0-.237.236.15.704 0 1.003-.212.423-.669.67-1.003 1.004-.335.334-.58.792-1.004 1.003-.3.15-.767-.236-1.003 0-.237.237.236.767 0 1.004-.473.473-1.534-.474-2.007 0-.237.236.236.766 0 1.003-.237.236-.767-.237-1.004 0-.236.236.237.767 0 1.003-.236.237-.767-.236-1.003 0-.237.237.236.767 0 1.004-.237.236-.705-.15-1.004 0-.423.211-.58.792-1.003 1.003-.3.15-.767-.236-1.004 0-.236.237.237.767 0 1.004-.236.236-.767-.237-1.003 0-.237.236.236.767 0 1.003-.335.335-1.672-.334-2.007 0-.237.237.237.767 0 1.004-.473.473-1.534-.473-2.007 0-.236.236.237.767 0 1.003-.473.473-1.534-.473-2.007 0-.236.237.237.767 0 1.004-.334.334-1.672-.335-2.007 0-.236.236.237.767 0 1.003-.473.473-1.408-.3-2.007 0-.423.212-.58.792-1.003 1.004-.264.131-3.49 0-4.014 0-.525 0-3.75.131-4.014 0-.423-.212-.58-.792-1.003-1.004-.545-.272-3.74.275-4.014 0-.237-.236.236-.767 0-1.003-.237-.237-.669 0-1.003 0h-6.021c-.335 0-.767.236-1.004 0-.236-.237.237-.767 0-1.004-.205-.205-2.612.2-3.01 0-.423-.211-.58-.792-1.003-1.003-.26-.13-5.31 0-6.021 0-.335 0-.767-.237-1.004 0-.236.236.237.767 0 1.003-.236.237-.669 0-1.003 0h-12.042c-.368 0-3.973-.04-4.013 0-.237.237.236.767 0 1.004-.237.236-.767-.237-1.004 0-.236.236.237.767 0 1.003-.236.237-.767-.236-1.003 0-.237.237.236.767 0 1.004-.237.236-.767-.237-1.004 0-.473.473.473 1.533 0 2.006-.236.237-.767-.236-1.003 0-.237.237.15.705 0 1.004-.212.423-.67.669-1.004 1.003-.334.335-.58.792-1.003 1.004-.3.15-.767-.237-1.004 0-.236.236.237.767 0 1.003-.236.237-.669 0-1.003 0h-6.021c-.334 0-.767.237-1.003 0-.237-.236.236-.767 0-1.003-.473-.473-1.534.473-2.007 0-.237-.237.236-.767 0-1.004-.237-.236-.767.237-1.004 0-.236-.236.237-.767 0-1.003-.334-.334-1.672.334-2.007 0-1.338-1.338 1.673-1.004-1.003-1.004s.334.335-1.003-1.003c-.474-.473-1.534.473-2.007 0-.237-.237-.335-1.003 0-1.003.473 0 1.476 1.003 1.003 1.003-.748 0-1.297-.767-2.007-1.003-.317-.106-.767.236-1.003 0-.237-.237.236-.767 0-1.004-.237-.236-.767-.236-1.004 0-.236.237 0 .67 0 1.004l-5.017 2.006c0 .335.236.767 0 1.004-.237.236-.704-.15-1.003 0-.424.211-.58.792-1.004 1.003-.3.15-.767-.236-1.003 0-.237.237.236.767 0 1.004-.237.236-.767-.237-1.004 0-.236.236.237.767 0 1.003-.236.237-.704-.15-1.003 0-.423.212-.58.792-1.004 1.004-.299.15-.767-.237-1.003 0-.237.236.236.767 0 1.003-.237.237-.705-.15-1.004 0-.423.212-.58.792-1.003 1.004-.3.15-.767-.237-1.004 0-.236.236.237.767 0 1.003-.236.237-.669 0-1.003 0H336.2c-.334 0-.766-.236-1.003 0-.237.237.237.767 0 1.004-.1.1-2.91.1-3.01 0-.237-.237.236-.767 0-1.004-.473-.473-1.534.473-2.007 0-.237-.236.236-.767 0-1.003-.473-.473-1.534.473-2.007 0-.237-.237.236-.767 0-1.004-.237-.236-.767.237-1.004 0-.236-.236.237-.767 0-1.003-.236-.237-.767.236-1.003 0-.237-.237.236-.767 0-1.004-.237-.236-.767.237-1.004 0-.236-.236.237-.767 0-1.003-.236-.237-.766.236-1.003 0-.237-.237.237-.767 0-1.004-.237-.236-.767.237-1.003 0-.237-.236.236-.767 0-1.003-.033-.032-2.767 0-3.01 0-.335 0-.768-.237-1.004 0-.205.205.199 2.612 0 3.01-.212.423-.792.58-1.004 1.004-.199.398.205 2.805 0 3.01-.236.237-.767-.236-1.003 0-.237.237.236.767 0 1.004-.237.236-.767-.237-1.004 0-.236.236.237.766 0 1.003-.236.237-.767-.237-1.003 0-.237.237 0 .669 0 1.003-.335 0-.767-.236-1.004 0-.236.237.237.767 0 1.004-.473.473-1.533-.473-2.006 0-.237.236.236.767 0 1.003-.474.473-1.41-.299-2.007 0-.424.212-.58.792-1.004 1.004-.299.15-.669 0-1.003 0H307.1c-.368 0-3.973.04-4.014 0-.236-.237.237-.767 0-1.004-.501-.501-2.508.502-3.01 0-.236-.236.237-.767 0-1.003-.236-.237-.767.236-1.003 0-.237-.237.236-.767 0-1.004-.237-.236-.767.237-1.004 0-.236-.236.237-.766 0-1.003-.502-.502-2.509.502-3.01 0-.237-.237.236-.767 0-1.003-.473-.473-1.534.473-2.007 0-.237-.237.236-.767 0-1.004-.473-.473-1.409.3-2.007 0-.423-.211-.58-.792-1.004-1.003-.397-.2-2.805.205-3.01 0-.236-.237.237-.767 0-1.004-.236-.236-.669 0-1.003 0-.698 0-4.655.182-5.018 0-2.48-1.24.347-1.003-2.007-1.003H278h2.007c-1.004 0-2.059.317-3.01 0-.318-.106.236-.767 0-1.004-.237-.236-.67 0-1.004 0h-2.007 2.007c-1.003 0-2.058-.317-3.01 0-.318.106.236.767 0 1.004-.473.473-1.534-.473-2.007 0-.237.236.236.767 0 1.003-.237.237-.767-.236-1.004 0-.236.237.237.767 0 1.004-.236.236-.767-.237-1.003 0-.237.236.15.704 0 1.003-.212.423-.792.58-1.004 1.004-.15.299.237.766 0 1.003-.236.237-.767-.237-1.003 0-.473.473.3 1.409 0 2.007-.212.423-.792.58-1.003 1.003-.15.3.236.767 0 1.004-.237.236-.767-.237-1.004 0-.236.236.237.767 0 1.003-.236.237-.767-.236-1.003 0-.237.237.236.767 0 1.004-.237.236-.767-.237-1.004 0-.236.236.237.767 0 1.003-.502.502-2.508-.502-3.01 0-.237.237.236.767 0 1.004-.033.032-2.767 0-3.01 0h-7.025 2.007-3.01c-.335 0-1.004.334-1.004 0 0-.335 1.338 0 1.004 0h-2.007c-.335 0-1.004.334-1.004 0 0-1.422 4.683 2.843-1.003 0-.598-.3.473-1.534 0-2.007-.237-.237-.767.236-1.004 0-.236-.237.237-.767 0-1.004-.236-.236-.766.237-1.003 0-.473-.473.473-1.534 0-2.007-.237-.236-.767.237-1.003 0-.237-.236 0-.669 0-1.003-.335 0-.767.236-1.004 0-.99-.99 2.056-2.007-1.003-2.007h-9.031c-.335 0-.767-.237-1.004 0-.236.237.237.767 0 1.003-.236.237-.767-.236-1.003 0-.237.237.236.767 0 1.004-.237.236-.767-.237-1.004 0-.236.236.237.767 0 1.003-.236.237-.767-.236-1.003 0-.237.237.236.767 0 1.004-.237.236-.767-.237-1.004 0-.236.236.237.767 0 1.003-.236.237-.767-.236-1.003 0-.237.237.236.767 0 1.004-.237.236-.767-.237-1.004 0-.236.236.237.767 0 1.003-.473.473-1.534-.473-2.007 0-.236.237.237.767 0 1.004-.236.236-.767-.237-1.003 0-.237.236.236.767 0 1.003-.237.237-1.003.335-1.003 0 0-.473 1.476-1.003 1.003-1.003-1.058 0-2.262 1.751-3.01 1.003-.237-.236.236-.767 0-1.003-.237-.237-.767.236-1.004 0-.236-.237.237-.767 0-1.004-.236-.236-.767.237-1.003 0-.237-.236.236-.767 0-1.003-.473-.473-1.534.473-2.007 0-.237-.237.236-.767 0-1.004-.033-.032-2.767 0-3.01 0-2.676 0 .334-.334-1.004 1.004-.502.501-2.509-.502-3.01 0-.237.236.236.767 0 1.003-.237.237-.67 0-1.004 0-.334 0-.767.237-1.003 0-.237-.236.236-.767 0-1.003-.237-.237-.767.236-1.004 0-.236-.237.237-.767 0-1.004-.236-.236-.767.237-1.003 0-.473-.473.473-1.534 0-2.007-.237-.236-.767.237-1.004 0-.236-.236 0-.669 0-1.003-.334 0-.767.236-1.003 0-.237-.237.236-.767 0-1.004-.473-.473-1.534.474-2.007 0-.237-.236.236-.766 0-1.003-.237-.237-.67 0-1.004 0h-1.003 2.007-4.014c-.334 0-.704.15-1.003 0-.423-.212-.58-.792-1.004-1.003-.305-.153-2.558 0-3.01 0-.335 0-.767-.237-1.004 0-.236.236.237.766 0 1.003-.473.473-1.534-.473-2.007 0 0 2.676.335-.334-1.003 1.003-.237.237.15.705 0 1.004-.212.423-.792.58-1.003 1.003-.15.3.236.767 0 1.004-.237.236-.767-.237-1.004 0-.473.473.473 1.534 0 2.007-.236.236-.767-.237-1.003 0-.473.473.473 1.534 0 2.007-.237.236-.767-.237-1.004 0-.473.473.473 1.534 0 2.007-.236.236-.767-.237-1.003 0-.237.236.236.767 0 1.003-.237.237-.767-.236-1.004 0-.236.237.237.767 0 1.003-.032.033-2.767 0-3.01 0-.335 0-.767.237-1.004 0-.236-.236.237-.766 0-1.003-.241-.241-3.772.241-4.013 0-.237-.236.236-.767 0-1.003-.242-.242-3.773.241-4.014 0-.237-.237.236-.767 0-1.004-.237-.236-.67 0-1.004 0h-2.006c1.59 0 3.908.3 0-1.003-.634-.212-1.408.299-2.007 0-.423-.212-.58-.792-1.003-1.004-.3-.15-.669 0-1.003 0-.335-.334-.58-.792-1.004-1.003-.299-.15-.767.236-1.003 0-.237-.237.236-.767 0-1.004-.237-.236-.67 0-1.004 0 0-.334.237-.767 0-1.003-.236-.237-.704.15-1.003 0-.423-.212-.58-.792-1.004-1.004-.299-.15-.767.237-1.003 0-.237-.236.236-.767 0-1.003-.237-.237-.767.236-1.004 0-.236-.237.237-.767 0-1.004-.236-.236-.767.237-1.003 0-.237-.236.236-.766 0-1.003-.473-.473-1.534.473-2.007 0-.237-.237.237-.767 0-1.003-.237-.237-.767.236-1.003 0-.237-.237.236-.767 0-1.004-.237-.236-.705.15-1.004 0-.423-.211-.53-1.003-1.003-1.003-.335 0 0 .669 0 1.003v9.031c0 .335.334 1.004 0 1.004-.335 0-.15-.705 0-1.004 1.24-2.48 1.003.347 1.003-2.007-1.338.67-2.731 1.238-4.014 2.007-.405.244-.58.792-1.003 1.004-.3.15-.767-.237-1.004 0-.236.236.237.767 0 1.003-.236.237-.669 0-1.003 0h-1.004c-.334 0-1.003.335-1.003 0 0-.334 1.338 0 1.003 0h-2.006c-.335 0-.767.237-1.004 0-.236-.236.237-.767 0-1.003-.236-.237-.767.236-1.003 0-.237-.237.236-.767 0-1.004-.237-.236-.767.237-1.004 0-.236-.236.237-.767 0-1.003-.1-.1-2.91-.1-3.01 0-.237.236.236.767 0 1.003-.237.237-.704-.15-1.004 0-.423.212-.58.792-1.003 1.004-.803.401-2.208-.402-3.01 0-.424.211-.58.792-1.004 1.003-.398.199-2.805-.205-3.01 0-.237.237.236.767 0 1.004-.04.04-3.646 0-4.014 0-.335 0-.767.236-1.004 0 0-2.676.335.334-1.003-1.004-.237-.236.236-.767 0-1.003-.333-.333-1.674.333-2.007 0-.236-.237.237-.767 0-1.004-.236-.236-.767.237-1.003 0-.237-.236.236-.767 0-1.003-.237-.237-.767.236-1.004 0-.236-.237.237-.767 0-1.004-.236-.236-.767.237-1.003 0-.237-.236.236-.767 0-1.003-.237-.237-.767.236-1.004 0-.236-.237.237-.767 0-1.004-.236-.236-.767.237-1.003 0-.237-.236.236-.767 0-1.003-.237-.237-.767.236-1.004 0-.236-.237.237-.767 0-1.004-.236-.236-.704.15-1.003 0-3.328-3.328.946.474-2.007-1.003-.423-.212-.58-.792-1.004-1.003-.299-.15-.766.236-1.003 0-.237-.237.237-.767 0-1.004-.473-.473-1.534.473-2.007 0-.236-.236.237-.767 0-1.003-.502-.502-2.509.501-3.01 0-.237-.237.236-.767 0-1.004-.237-.236-.67 0-1.004 0h-6.021c-.335 0-.767-.236-1.004 0-.236.237.237.767 0 1.004-.236.236-.767-.237-1.003 0-.237.236.236.767 0 1.003-.237.237-.767-.236-1.004 0-.236.237.237.767 0 1.004-.236.236-.767-.237-1.003 0-.237.236.236.766 0 1.003-.237.237-.705-.15-1.004 0-.423.212-.58.792-1.003 1.003-.3.15-.767-.236-1.004 0-.236.237.237.767 0 1.004-.335.335-1.671-.335-2.007 0-.236.236.237.767 0 1.003-.501.502-2.508-.501-3.01 0-.236.237.237.767 0 1.004-.236.236-.669 0-1.003 0-.335 0-1.004.334-1.004 0 0-.335 1.338 0 1.004 0H69.28c6.725 0-4.988-.03-5.017 0-.237.236.236.767 0 1.003-.473.473-1.534-.473-2.007 0-.237.237.236.767 0 1.004-.237.236-.704-.15-1.004 0-.423.211-.58.792-1.003 1.003-.3.15-.767-.236-1.004 0-.236.237.237.767 0 1.004-.236.236-.704-.15-1.003 0-.423.211-.58.792-1.003 1.003-.599.3-1.534-.473-2.007 0-.237.237.236.767 0 1.004-.033.032-2.767 0-3.01 0h-1.004 2.007-5.017 2.007-3.01c-.243 0-2.978.032-3.01 0-1.338-1.338 1.672-1.004-1.004-1.004h-2.007 2.007c-9.365 0-1.003 1.004-3.01-1.003-.335-.335-1.672.334-2.007 0-.237-.237.236-.767 0-1.004-.237-.236-.767.237-1.004 0-.236-.236.237-.767 0-1.003-.236-.237-.766.236-1.003 0-.237-.237-.335-1.004 0-1.004.334 0 .334 1.004 0 1.004-.902 0-1.387-2.007-1.003-2.007.334 0 0 .669 0 1.003l2.006-3.01c0-.335-.15-.704 0-1.004.212-.423.792-.58 1.004-1.003.199-.398-.205-2.805 0-3.01.236-.237.767.236 1.003 0 .335-.335-.335-1.672 0-2.007.237-.237.767.236 1.004 0 .236-.237-.237-.767 0-1.004.236-.236.767.237 1.003 0 .237-.236-.236-.767 0-1.003.237-.237.767.236 1.004 0 .236-.237-.237-.767 0-1.004.236-.236.767.237 1.003 0 .237-.236-.236-.767 0-1.003.237-.237.767.236 1.004 0 .236-.237-.15-.704 0-1.004.423-.846 1.583-1.16 2.007-2.006.892-1.784-.558-.558-1.004-1.004-.236-.236.237-.767 0-1.003-1.338-1.338-1.003 1.672-1.003-1.004v-7.024c0-.335-.237-.767 0-1.003 1.338-1.338 1.003 1.672 1.003-1.004 0-.334.237-.767 0-1.003-.236-.237-.669 0-1.003 0H43.19c.67 0 2.007.669 2.007 0 0-2.764-2.29-.284-3.01-1.004-.237-.236.236-.767 0-1.003-.237-.237-.767.236-1.004 0-.236-.237.237-.767 0-1.004-.236-.236-.767.237-1.003 0-.237-.236.15-.704 0-1.003-2.088-4.176.069 1.073-2.007-1.004-.237-.236.236-.767 0-1.003-.237-.237-.767.236-1.004 0-.236-.237.237-.767 0-1.004-.236-.236-.766.237-1.003 0-.237-.236.237-.767 0-1.003-.237-.237-.704.15-1.003 0-.424-.212-.58-.792-1.004-1.004-.3-.15-.767.237-1.003 0-.473-.473.473-1.533 0-2.006-.237-.237-.767.236-1.004 0-.236-.237 0-.67 0-1.004v-8.028c0-.334-.236-.766 0-1.003.237-.237.767.237 1.004 0 .473-.473-.473-1.534 0-2.007.236-.236.767.237 1.003 0 .335-.335-.335-1.672 0-2.007.237-.236.767.237 1.004 0 .236-.236-.237-.767 0-1.003.236-.237.766.236 1.003 0 .237-.237-.237-.767 0-1.004.237-.236.767.237 1.003 0 .237-.236-.236-.767 0-1.003.237-.237.767.236 1.004 0 .236-.237 0-.67 0-1.004v-5.017 2.007c0-1.003.317-2.058 0-3.01-.106-.318-.767.236-1.004 0-.236-.237 0-.67 0-1.004 0-.368-.04-3.973 0-4.014.237-.236.767.237 1.004 0 .236-.236-.237-.767 0-1.003.236-.237.767.236 1.003 0 .237-.237-.236-.767 0-1.004.237-.236.767.237 1.004 0 .236-.236-.237-.767 0-1.003.236-.237.704.15 1.003 0 .423-.212.58-.792 1.004-1.003.299-.15.767.236 1.003 0 .237-.237-.236-.767 0-1.004.237-.236.767.237 1.004 0 .236-.236-.237-.767 0-1.003 2.076-2.077-.082 3.172 2.007-1.004.15-.299-.237-.767 0-1.003.236-.237.766.236 1.003 0 .237-.237-.237-.767 0-1.004.237-.236.767.237 1.003 0 .502-.501-.501-2.508 0-3.01.237-.237.767.236 1.004 0 .473-.473-.3-1.409 0-2.007.211-.423.792-.58 1.003-1.004.15-.299-.236-.766 0-1.003.502-.502 2.509.502 3.01 0 .237-.236-.236-.767 0-1.003.502-.502 2.51.501 3.011 0 .237-.237-.236-.767 0-1.004.502-.502 2.509.502 3.01 0 .237-.236-.236-.767 0-1.003.237-.237.705.15 1.004 0 .423-.212.58-.792 1.003-1.004.3-.15.767.237 1.004 0 .236-.236-.237-.767 0-1.003.473-.473 1.534.473 2.007 0 .236-.237-.237-.767 0-1.004.333-.333 1.674.333 2.007 0 .473-.473-.473-1.534 0-2.007.236-.236.767.237 1.003 0 .237-.236-.15-.704 0-1.003.212-.423.792-.58 1.004-1.004.299-.598-.473-1.533 0-2.006.236-.237.767.236 1.003 0 .237-.237-.15-.705 0-1.004.212-.423.792-.58 1.003-1.003.15-.3-.236-.767 0-1.004.237-.236.767.237 1.004 0 .236-.236-.15-.704 0-1.003.212-.423.792-.58 1.003-1.004.15-.299-.236-.767 0-1.003.333-.333 1.674.333 2.007 0 .237-.237-.236-.767 0-1.004.502-.501 2.509.502 3.01 0 .237-.236-.236-.767 0-1.003.237-.237.705.15 1.004 0 .423-.212.58-.792 1.004-1.004.299-.15.767.237 1.003 0 .237-.236-.236-.766 0-1.003.237-.237.767.237 1.004 0 .236-.237-.237-.767 0-1.003.333-.333 1.673.333 2.006 0 .237-.237-.236-.767 0-1.004.206-.205 2.613.199 3.01 0 .424-.211.581-.792 1.004-1.003.398-.2 2.805.205 3.01 0 .237-.237-.236-.767 0-1.004.237-.236.67 0 1.004 0 .335 0 .767-.236 1.004 0 2.353 2.353-3.092 0-1.004 0 .748 0 1.297.767 2.007 1.004.317.105.767-.237 1.003 0 .237.236-.236.767 0 1.003.474.473 1.534-.473 2.007 0 .237.237-.236.767 0 1.004.237.236.67 0 1.004 0h1.003c2.676 0-.334-.335 1.004 1.003.045.045 4.544 0 5.017 0 .335 0 .767.237 1.003 0 .237-.237-.236-.767 0-1.003.242-.242 3.773.241 4.014 0 .237-.237-.236-.767 0-1.004.473-.473 1.534.473 2.007 0 .237-.236-.236-.767 0-1.003.502-.502 2.509.501 3.01 0 .237-.237-.236-.767 0-1.004.502-.502 2.51.502 3.01 0 .237-.236-.236-.767 0-1.003.474-.473 1.41.299 2.008 0 .423-.212.58-.792 1.003-1.004.545-.272 3.74.275 4.014 0 .237-.236-.236-.767 0-1.003.275-.275 3.47.272 4.014 0 .423-.212.58-.792 1.003-1.004.398-.199 2.806.205 3.01 0 .237-.236-.236-.767 0-1.003.237-.237.67 0 1.004 0h1.004-2.007 3.01c0-.335-.317-.898 0-1.004.952-.317 2.007 0 3.01 0z" fill="none" stroke="#000" stroke-width=".177"/></svg>