<?xml version="1.0" encoding="UTF-8" standalone="no"?>
<!-- Created with Inkscape (http://www.inkscape.org/) -->

<svg
   xmlns:dc="http://purl.org/dc/elements/1.1/"
   xmlns:cc="http://creativecommons.org/ns#"
   xmlns:rdf="http://www.w3.org/1999/02/22-rdf-syntax-ns#"
   xmlns:svg="http://www.w3.org/2000/svg"
   xmlns="http://www.w3.org/2000/svg"
   xmlns:sodipodi="http://sodipodi.sourceforge.net/DTD/sodipodi-0.dtd"
   xmlns:inkscape="http://www.inkscape.org/namespaces/inkscape"
   width="210mm"
   height="297mm"
   viewBox="0 0 744.09448819 1052.3622047"
   id="svg3652"
   version="1.1"
   inkscape:version="0.91 r13725"
   sodipodi:docname="northern mountains mouseover line.svg">
  <defs
     id="defs3654" />
  <sodipodi:namedview
     id="base"
     pagecolor="#ffffff"
     bordercolor="#666666"
     borderopacity="1.0"
     inkscape:pageopacity="0.0"
     inkscape:pageshadow="2"
     inkscape:zoom="0.35"
     inkscape:cx="375"
     inkscape:cy="520"
     inkscape:document-units="px"
     inkscape:current-layer="layer1"
     showgrid="false"
     inkscape:window-width="1366"
     inkscape:window-height="706"
     inkscape:window-x="-8"
     inkscape:window-y="-8"
     inkscape:window-maximized="1" />
  <metadata
     id="metadata3657">
    <rdf:RDF>
      <cc:Work
         rdf:about="">
        <dc:format>image/svg+xml</dc:format>
        <dc:type
           rdf:resource="http://purl.org/dc/dcmitype/StillImage" />
        <dc:title></dc:title>
      </cc:Work>
    </rdf:RDF>
  </metadata>
  <g
     inkscape:label="Layer 1"
     inkscape:groupmode="layer"
     id="layer1">
    <path
       style="fill:none;fill-rule:evenodd;stroke:#000000;stroke-width:0.17680115px;stroke-linecap:butt;stroke-linejoin:miter;stroke-opacity:1"
       d="m 138.51955,426.48244 c -1.018,-2.38509 -1.00348,-3.79246 -1.00348,-6.02074 0,-0.33449 0.23652,-0.76694 0,-1.00345 -0.23651,-0.23652 -0.76693,0.23651 -1.00345,0 -0.0455,-0.0455 0,-4.54416 0,-5.01727 0,-0.24338 -0.0323,-2.97812 0,-3.01038 0.23652,-0.23653 0.76694,0.23651 1.00345,0 0.0404,-0.0404 0,-3.64533 0,-4.01383 0,-2.67589 0,-5.35178 0,-8.02766 0,-0.33447 -0.23651,-0.76692 0,-1.00345 0.23652,-0.23653 0.76693,0.23653 1.00348,0 0.0404,-0.0404 0,-3.64532 0,-4.01383 0,-0.52473 -0.13195,-3.74997 0,-4.01383 0.21151,-0.42309 0.79189,-0.58035 1.00344,-1.00346 0.34655,-0.69311 -0.35224,-4.66503 0,-5.01728 0.23652,-0.23651 0.76693,0.23654 1.00345,0 0.0323,-0.0322 0,-2.767 0,-3.01037 0,-0.33447 0,-1.33794 0,-1.00345 0,0.66898 0,2.67589 0,2.00692 0,-1.00347 0,-2.00692 0,-3.01037 0,-0.3345 -0.14956,-0.7043 0,-1.00345 1.01475,-2.02949 2.32868,-0.32181 3.01036,-1.00346 0.23655,-0.23653 -0.23652,-0.76695 0,-1.00347 0.33479,-0.33475 1.67216,0.33477 2.00692,0 0.23651,-0.2365 -0.23652,-0.76693 0,-1.00345 0.47307,-0.47303 1.53389,0.47302 2.00692,0 0.23651,-0.23651 -0.23652,-0.76694 0,-1.00346 0.47303,-0.47303 1.53389,0.47304 2.00692,0 0.23651,-0.23652 -0.23652,-0.76694 0,-1.00344 0.33476,-0.33478 1.67213,0.33475 2.00693,0 0.23648,-0.23654 -0.23655,-0.76695 0,-1.00347 0.23648,-0.23651 0.76692,0.23652 1.00344,0 0.23651,-0.23651 -0.23652,-0.76694 0,-1.00345 0.23651,-0.23651 0.76695,0.23651 1.00344,0 0.23655,-0.23651 -0.23649,-0.76693 0,-1.00346 0.23655,-0.23654 0.76696,0.23653 1.00348,0 0.23651,-0.23654 -0.23652,-0.76695 0,-1.00346 0.47303,-0.47303 1.53389,0.47304 2.00693,0 0.23647,-0.23652 -0.23656,-0.76695 0,-1.00345 0.23647,-0.23652 0.76692,0.2365 1.00343,0 1.33793,-1.33794 -1.67243,-1.00347 1.00344,-1.00347 0.33449,0 1.00345,-0.33447 1.00345,0 0,0.33449 -1.00345,0.33449 -1.00345,0 0,-2.08807 1.40722,-0.40376 2.00692,-1.00345 0.23652,-0.23651 -0.23651,-0.76695 0,-1.00345 0.47304,-0.47304 1.40857,0.29916 2.00692,0 0.4231,-0.21155 0.58035,-0.79192 1.00345,-1.00346 0.59835,-0.29917 1.53389,0.47304 2.00692,0 0.23652,-0.23652 -0.23651,-0.76694 0,-1.00347 0.47303,-0.47303 1.53388,0.47305 2.00692,0 0.23652,-0.23651 -0.23651,-0.76692 0,-1.00345 0.47304,-0.47304 1.53389,0.47304 2.00691,0 0.23652,-0.2365 -0.2365,-0.76693 0,-1.00345 0.23652,-0.23652 0.76694,0.23652 1.00345,0 0.23652,-0.23652 -0.23651,-0.76695 0,-1.00346 0.23652,-0.23651 0.76697,0.23651 1.00345,0 0.23655,-0.23651 -0.23648,-0.76694 0,-1.00344 0.23655,-0.23653 0.76696,0.2365 1.00347,0 0.23652,-0.23653 -0.23651,-0.76695 0,-1.00348 0.23652,-0.23651 0.76693,0.23653 1.00345,0 0.23652,-0.23651 -0.23652,-0.76692 0,-1.00346 0.23652,-0.2365 0.76692,0.23654 1.00347,0 0.33297,-0.33296 -0.333,-1.67392 0,-2.0069 0.23648,-0.23652 0.76692,0.23652 1.00345,0 0.23652,-0.23652 -0.23653,-0.76694 0,-1.00344 0.23652,-0.23653 0.76692,0.2365 1.00344,0 0.47303,-0.47306 -0.47303,-1.5339 0,-2.00693 0.23651,-0.23651 0.76696,0.23652 1.00348,0 0.47302,-0.47303 -0.47303,-1.53387 0,-2.00691 0.23651,-0.23652 0.76693,0.23651 1.00345,0 0.2365,-0.23652 -0.23652,-0.76695 0,-1.00347 0.2365,-0.23651 0.76692,0.23652 1.00347,0 0.47303,-0.47302 -0.47303,-1.53387 0,-2.00689 0.23648,-0.23654 0.76692,0.23651 1.00344,0 0.47304,-0.47305 -0.47303,-1.53388 0,-2.00692 0.23652,-0.23652 0.76693,0.23651 1.00345,0 0.47303,-0.47305 -0.47304,-1.53389 0,-2.00692 0.23651,-0.2365 0.76695,0.23652 1.00343,0 0.47307,-0.47303 -0.47303,-1.53388 0,-2.00691 0.23656,-0.23652 0.76696,0.23651 1.00348,0 0.47304,-0.47303 -0.47303,-1.53389 0,-2.00691 0.23652,-0.23652 0.76693,0.23652 1.00344,0 0.23652,-0.23652 0,-0.66897 0,-1.00346 0.3345,0 0.76697,0.23653 1.00349,0 0.2365,-0.23653 -0.14959,-0.70429 0,-1.00345 0.21154,-0.42311 0.7919,-0.58036 1.00344,-1.00346 0.14959,-0.29917 -0.14959,-0.70428 0,-1.00346 0.21155,-0.42309 0.79189,-0.58036 1.00348,-1.00346 0.14955,-0.29917 -0.23652,-0.76693 0,-1.00346 0.23652,-0.23651 0.76692,0.23653 1.00344,0 0.23651,-0.23651 -0.14959,-0.70427 0,-1.00345 0.21154,-0.42309 0.79193,-0.58036 1.00344,-1.00344 0.14959,-0.29918 -0.23651,-0.76695 0,-1.00348 0.23656,-0.2365 0.76696,0.23653 1.00348,0 0.23651,-0.2365 -0.23652,-0.76692 0,-1.00346 0.23651,-0.2365 0.76693,0.23654 1.00343,0 0.23653,-0.2365 -0.33445,-1.00344 0,-1.00344 0.33451,0 -0.33445,1.00344 0,1.00344 0.47305,0 0.58036,-0.7919 1.0035,-1.00344 0.29913,-0.14959 0.76692,0.2365 1.00343,0 0.23652,-0.23653 -0.23651,-0.76694 0,-1.00345 0.23652,-0.23653 0.66894,0 1.00345,0 0.33449,0 1.00348,-0.3345 1.00348,0 0,0.33447 -1.33799,0 -1.00348,0 0.66899,0 1.33796,0 2.00691,0 0.3345,0 1.00349,-0.3345 1.00349,0 0,0.33447 -1.00349,-0.3345 -1.00349,0 0,1.23995 1.40722,1.00345 2.00692,1.00345 0.66895,0 2.67587,0 2.00693,0 -0.66899,0 -2.67591,0 -2.00693,0 1.00344,0 2.00693,0 3.01037,0 0.33449,0 1.00348,-0.33449 1.00348,0 0,1.42156 -4.68283,-2.84312 1.00344,0 0.29914,0.14959 -0.23651,0.76694 0,1.00344 0.23652,0.23654 0.66895,0 1.00344,0 0.3345,0 0.66899,0 1.00345,0 0.33449,0 1.33797,0 1.00347,0 -0.66898,0 -2.67587,0 -2.00692,0 1.00345,0 2.00692,0 3.01037,0 0.33449,0 0.76697,-0.2365 1.00348,0 0.23652,0.23654 -0.23651,0.76696 0,1.00346 0.23652,0.23653 1.00344,-0.33447 1.00344,0 0,0.3345 -1.33794,0 -1.00344,0 0.66899,0 1.40855,-0.29916 2.00691,0 0.29915,0.1496 0.23652,0.76695 0,1.00348 -0.23651,0.23651 -0.76696,-0.23653 -1.00347,0 -0.23652,0.23651 0.23651,0.76692 0,1.00344 -0.23652,0.23651 -0.76692,-0.23652 -1.00344,0 -0.23651,0.23651 0.23652,0.76694 0,1.00345 -0.23651,0.23653 -0.76698,-0.23651 -1.00348,0 -0.47303,0.47305 0.47302,1.53387 0,2.00692 -0.23652,0.23652 -0.70427,-0.14958 -1.00345,0 -0.84619,0.4231 -1.16073,1.58381 -2.00692,2.00692 -0.29914,0.14959 -0.76692,-0.23653 -1.00344,0 -0.23651,0.2365 -0.23651,0.76692 0,1.00345 0.23652,0.23653 0.66895,0 1.00344,0 2.00692,0 4.01385,0 6.02076,0 0.33446,0 1.33795,0 1.00345,0 -0.66899,0 -2.00692,-0.66896 -2.00692,0 0,1.15304 2.29028,1.00346 3.01036,1.00346 0.69794,0 4.6544,-0.18144 5.01729,0 0.42313,0.21156 0.58038,0.79191 1.00347,1.00345 0.39786,0.19893 2.80521,-0.20515 3.01037,0 0.23651,0.23652 -0.23652,0.76694 0,1.00346 0.47303,0.47303 1.53385,-0.47303 2.00688,0 0.23656,0.23651 -0.23648,0.76693 0,1.00346 0.47302,0.47303 1.53393,-0.47304 2.00696,0 0.23648,0.23652 -0.23655,0.76695 0,1.00345 0.47303,0.47303 1.40853,-0.29916 2.00688,0 0.4231,0.21154 0.58038,0.79191 1.00344,1.00346 0.39791,0.19894 2.80526,-0.20516 3.01041,0 1.33793,1.33793 -1.67244,1.00346 1.00344,1.00346 0.24336,0 2.9781,-0.0322 3.0104,0 0.23651,0.23651 -0.23656,0.76693 0,1.00346 0.50172,0.50172 2.5086,-0.50173 3.01037,0 0.23651,0.23651 -0.23652,0.76692 0,1.00346 0.47303,0.47302 1.53384,-0.47305 2.00687,0 0.23655,0.23651 -0.23652,0.76694 0,1.00344 0.23655,0.23652 0.76697,-0.2365 1.00348,0 0.23652,0.23652 -0.23651,0.76694 0,1.00345 0.23652,0.23652 0.76693,-0.23651 1.00344,0 0.23652,0.23652 -0.23651,0.76695 0,1.00347 0.23652,0.23651 0.66899,0 1.00348,0 0,0.33448 -0.23651,0.76693 0,1.00346 0.23652,0.23651 0.76694,-0.23653 1.00345,0 0.23652,0.23651 -0.14959,0.70428 0,1.00345 3.32804,3.32805 -0.47303,-0.94606 1.00344,2.00693 0.21155,0.42307 0.79194,0.58035 1.00348,1.00344 0.29918,0.59836 -0.47304,1.53388 0,2.0069 0.23652,0.23654 0.76692,-0.2365 1.00344,0 0.23652,0.23654 0,0.66899 0,1.00346 0,0.3345 0,0.66898 0,1.00348 0,2.67587 0,5.35174 0,8.02763 0,2.34142 0,4.68281 0,7.0242 0,0.4519 0.15272,2.705 0,3.01038 -0.21155,0.42308 -0.79189,0.58035 -1.00344,1.00346 -0.12972,0.25943 0,5.30948 0,6.02072 0,0.3345 0.14959,0.70429 0,1.00346 -0.21154,0.4231 -0.79193,0.58037 -1.00348,1.00345 -0.18141,0.36289 0,4.31934 0,5.0173 0,0.33447 -0.23648,0.76693 0,1.00345 0.23655,0.2365 0.76697,-0.23652 1.00348,0 0.20515,0.20515 -0.19893,2.6125 0,3.01037 0.21155,0.4231 0.79189,0.58036 1.00344,1.00346 0.14959,0.29917 0,0.66897 0,1.00346 0,0.33449 0,1.33793 0,1.00345 0,-0.66896 0,-2.6759 0,-2.00691 0,1.00346 -0.3173,2.05841 0,3.01036 0.10579,0.31731 0.66899,0 1.00347,0 0,0.33449 0,0.66899 0,1.00346 0,0.33448 0,1.33793 0,1.00346 0,-0.66898 -0.66898,-2.00692 0,-2.00692 1.27993,0 1.00345,3.25697 1.00345,4.01383 0.3345,1.33794 0.66895,2.67588 1.00344,4.01383 0.3345,0.33448 0.79194,0.58037 1.00348,1.00344 0.19894,0.39788 -0.20514,2.80523 0,3.01039 0.23652,0.23651 0.76693,-0.23653 1.00345,0 0.20514,0.20514 -0.19894,2.6125 0,3.01038 1.23995,2.47993 1.00347,-0.34638 1.00347,2.00689 0,2.6759 -0.33449,-0.33448 1.00345,1.00345 0.50172,0.50174 -0.50172,2.50866 0,3.01038 0.23652,0.23651 0.76692,-0.23652 1.00344,0 0.50172,0.50173 -0.50172,2.50863 0,3.01036 0.23651,0.23652 0.76696,-0.23651 1.00343,0 0.50177,0.50175 -0.50171,2.50865 0,3.01038 0.23656,0.23652 0.76698,-0.23651 1.00349,0 0.47303,0.47303 -0.47303,1.53388 0,2.00692 0.23651,0.2365 0.76693,-0.23653 1.00344,0 0.47303,0.47303 -0.47303,1.53388 0,2.00691 0.23651,0.23652 0.76696,-0.23654 1.00348,0 0.23651,0.23652 -0.14958,0.70428 0,1.00345 3.32804,3.32805 -0.47303,-0.94607 1.00345,2.00693 0.21154,0.42307 0.79189,0.58034 1.00347,1.00344 0.29915,0.59836 -0.47307,1.53388 0,2.0069 0.23652,0.23653 0.76692,-0.2365 1.00344,0 0.50173,0.50173 -0.50171,2.50866 0,3.01038 0.23652,0.23652 0.76693,-0.23651 1.00344,0 0.23656,0.23652 -0.23651,0.76695 0,1.00346 0.23656,0.23652 0.76697,-0.23651 1.00349,0 0.47302,0.47303 -0.47303,1.53387 0,2.00692 0.2365,0.23651 0.76693,-0.23653 1.00343,0 0.23652,0.23651 -0.14958,0.70427 0,1.00345 0.21156,0.42309 0.7919,0.58035 1.00349,1.00345 0.14955,0.29917 -0.23655,0.76695 0,1.00346 0.23648,0.23652 0.76692,-0.23651 1.00344,0 0.50171,0.50172 -0.50172,2.50865 0,3.01037 0.23651,0.23651 0.76696,-0.23652 1.00344,0 0.23656,0.23651 -0.23648,0.76694 0,1.00345 0.23656,0.23654 0.76696,-0.23651 1.00348,0 0.23651,0.23654 -0.23652,0.76695 0,1.00346 0.23651,0.23652 0.76692,-0.23651 1.00343,0 0.23653,0.23652 0.33451,1.00347 0,1.00347 -0.33448,0 0,-0.66899 0,-1.00347 1.33799,0.66898 2.62498,1.45136 4.01382,2.00693 0.40132,0.16051 2.83137,-0.17902 3.01039,0 0.23652,0.23649 -0.23651,0.76692 0,1.00344 0.47304,0.47304 1.53386,-0.47303 2.00689,0 0.23655,0.23653 -0.23647,0.76695 0,1.00346 0.23655,0.23652 0.76697,-0.23651 1.00348,0 0.23652,0.23652 -0.14959,0.70429 0,1.00346 0.21155,0.4231 0.79193,0.58036 1.00345,1.00346 0.14958,0.29917 -0.23653,0.76692 0,1.00346 0.2365,0.23649 0.76696,-0.23654 1.00347,0 0.23652,0.23649 -0.23651,0.76692 0,1.00344 0.47303,0.47303 1.40856,-0.29916 2.00691,0 0.4231,0.21155 0.58036,0.79191 1.00345,1.00346 0.29918,0.14959 1.00344,-0.33447 1.00344,0 0,0.33449 -1.33793,0 -1.00344,0 5.68624,0 0.3345,0.66898 2.00693,-1.00346 0.50171,-0.50173 2.50863,0.50173 3.01036,0 0.23652,-0.23652 -0.23652,-0.76695 0,-1.00344 0.23652,-0.23654 0.66895,0 1.00344,0 0.33449,0 1.00347,-0.3345 1.00347,0 0,0.33448 -1.00347,0.33448 -1.00347,0 0,-1.42497 2.29694,-1.00346 3.0104,-1.00346 0.33445,0 1.33794,0 1.00345,0 -0.669,0 -2.00693,0.66896 -2.00693,0 0,-0.74795 1.29737,-0.76695 2.00693,-1.00346 0.94535,-0.31512 5.37015,0.32528 6.02071,0 0.42311,-0.21155 0.58039,-0.79192 1.00345,-1.00346 0.29918,-0.14959 0.76696,0.23652 1.00348,0 0.47303,-0.47303 -0.47304,-1.53387 0,-2.0069 0.47303,-0.47304 1.53388,0.47303 2.00692,0 0.23651,-0.23653 -0.23652,-0.76696 0,-1.00346 0.0454,-0.0454 4.54414,0 5.01729,0 0.33448,0 0.66894,0 1.00343,0 0.3345,0 1.00349,-0.33449 1.00349,0 0,0.33447 -1.33798,0 -1.00349,0 0.669,0 1.33794,0 2.00692,0 0.66895,0 2.67587,0 2.00692,0 -0.66897,0 -2.6759,0 -2.00692,0 1.00345,0 2.00692,0 3.01037,0 0.33449,0 1.00348,-0.33449 1.00348,0 0,0.33447 -1.33798,0 -1.00348,0 0.66898,0 1.40856,0.29917 2.00692,0 0.29915,-0.14959 -0.23651,-0.76695 0,-1.00347 0.23652,-0.23651 0.66895,0 1.00344,0 0.33449,0 1.00345,-0.33447 1.00345,0 0,0.33448 -1.00345,0.33448 -1.00345,0 0,-2.08808 1.40722,-0.40377 2.00692,-1.00346 0.23652,-0.23651 -0.23652,-0.76694 0,-1.00345 0.23652,-0.23652 0.66899,0 1.00345,0 0,-0.33448 -0.23652,-0.76695 0,-1.00345 0.23651,-0.23652 0.76696,0.2365 1.00348,0 0.0323,-0.0322 0,-2.767 0,-3.01038 0,-5.68625 0,6.68972 0,1.00346 0,-1.00346 0,-2.00691 0,-3.01036 0,-0.33449 0.23651,-0.76694 0,-1.00347 -0.23652,-0.23651 -1.00348,-0.33448 -1.00348,0 0,0.47304 1.4765,1.00347 1.00348,1.00347 -5.06927,0 -0.77121,-0.77119 -2.00693,-2.00692 -0.24146,-0.24146 -3.77237,0.24145 -4.0138,0 -0.23655,-0.23651 0.23647,-0.76694 0,-1.00346 -0.23655,-0.23651 -0.66899,0 -1.00348,0 -0.3345,0 -1.33793,0 -1.00345,0 0.66895,0 2.67587,0 2.00693,0 -1.00348,0 -2.00693,0 -3.0104,0 -0.3345,0 0.66899,0 1.00347,0 2.67587,0 -0.33448,0.33449 1.00345,-1.00344 0.23652,-0.23653 0.76693,0.2365 1.00348,0 0.23647,-0.23653 -0.23655,-0.76695 0,-1.00348 0.23647,-0.23651 0.76693,0.23653 1.00344,0 0.47303,-0.47303 -0.47303,-1.53388 0,-2.0069 0.23652,-0.23653 0.76692,0.23651 1.00344,0 0.23652,-0.23653 -0.23652,-0.76694 0,-1.00346 0.23652,-0.23652 0.76697,0.23652 1.00345,0 0.23655,-0.23652 -0.23648,-0.76694 0,-1.00344 0.23655,-0.23654 0.76695,0.2365 1.00347,0 0.47303,-0.47305 -0.47302,-1.5339 0,-2.00693 0.23652,-0.2365 0.76693,0.23652 1.00345,0 0.23651,-0.2365 -0.23652,-0.76693 0,-1.00345 0.23651,-0.23654 0.76696,0.23652 1.00348,0 0.23651,-0.23654 -0.23652,-0.76695 0,-1.00346 2.67587,0 -0.3345,0.33449 1.00344,-1.00345 0.0404,-0.0404 3.64534,0 4.01384,0 0.3345,0 1.33794,0 1.00344,0 -0.66894,0 -2.67587,0 -2.00692,0 1.00348,0 2.00692,0 3.0104,0 0.33446,0 0.66895,0 1.00345,0 0.33445,0 0.76692,-0.23653 1.00344,0 0.23655,0.2365 0.33448,1.00345 0,1.00345 -0.47304,0 -1.47647,-1.00345 -1.00344,-1.00345 0.74791,0 1.29732,0.76693 2.00691,1.00345 0.62981,0.20993 3.20599,0 4.0138,0 0.66899,0 1.33795,0 2.00693,0 0.33449,0 1.33793,0 1.00348,0 -0.66899,0 -2.67591,0 -2.00696,0 1.00348,0 2.00696,0 3.0104,0 0.33449,0 1.00344,-0.33449 1.00344,0 0,0.33449 -1.00344,0.33449 -1.00344,0 0,-0.39188 1.88026,-1.13013 1.00344,-2.00692 -0.23651,-0.2365 -0.76693,0.23652 -1.00344,0 -0.23652,-0.2365 0.14959,-0.70427 0,-1.00345 -0.21155,-0.42309 -0.79193,-0.58038 -1.00344,-1.00345 -0.14963,-0.29919 0.14955,-0.7043 0,-1.00346 -0.21158,-0.42311 -0.79193,-0.58036 -1.00348,-1.00347 -0.14959,-0.29916 0.23652,-0.76692 0,-1.00345 -0.23651,-0.2365 -0.76693,0.23653 -1.00348,0 -0.0323,-0.0322 0,-2.76699 0,-3.01036 0,-0.33448 -0.23648,-0.76694 0,-1.00347 0.23655,-0.23651 0.76697,0.23653 1.00348,0 0.47303,-0.47303 -0.66898,-2.00691 0,-2.00691 0.33449,0 -0.33449,1.00345 0,1.00345 2.08808,0 0.40374,-1.4072 1.00348,-2.0069 0.23648,-0.23652 0.70426,0.14958 1.00344,0 0.42309,-0.21155 0.58035,-0.79191 1.00344,-1.00344 0.29918,-0.1496 0.76697,0.2365 1.00344,0 0.23655,-0.23653 -0.23647,-0.76695 0,-1.00348 0.47303,-0.47303 1.5339,0.47303 2.00693,0 0.23651,-0.23651 -0.23652,-0.76693 0,-1.00346 0.47302,-0.47302 1.53388,0.47304 2.00692,0 0.23652,-0.2365 -0.23651,-0.76693 0,-1.00344 0.23652,-0.23653 0.76696,0.23651 1.00344,0 0.23655,-0.23653 -0.23648,-0.76695 0,-1.00346 0.23655,-0.23652 0.76696,0.23651 1.00347,0 2.07618,-2.0762 -3.17267,0.0811 1.00345,-2.00693 0.29918,-0.14956 0.76692,0.23653 1.00347,0 0.23652,-0.2365 -0.23655,-0.76692 0,-1.00344 0.23652,-0.23653 0.76694,0.23652 1.00345,0 0.23652,-0.23653 -0.23651,-0.76694 0,-1.00345 0.23652,-0.23654 0.76693,0.23651 1.00345,0 0.47306,-0.47304 -0.47303,-1.5339 0,-2.00693 0.2365,-0.23651 0.76696,0.23652 1.00347,0 0.14755,-0.14756 -0.11807,-3.01036 0,-3.01036 0.29985,0 -0.66057,3.32804 1.00345,0 0.19893,-0.39787 -0.20515,-2.80523 0,-3.01037 0.23651,-0.23653 0.76696,0.23653 1.00347,0 0.47304,-0.47304 -0.47303,-1.53388 0,-2.00691 1.33794,-1.33794 1.00344,1.67241 1.00344,-1.00346 0,-0.47147 0,-4.284 0,-2.00692 0,0.66897 -0.66899,2.00692 0,2.00692 2.06822,0 0.44952,-3.4599 1.00348,-4.01382 0.23648,-0.23652 0.76693,0.23651 1.00345,0 0.47302,-0.47305 -0.47303,-1.53389 0,-2.00693 0.23651,-0.2365 0.76692,0.23654 1.00344,0 0.47303,-0.47302 -0.47303,-1.53387 0,-2.00689 1.33793,-1.33795 1.00344,1.67241 1.00344,-1.00348 0,-1.00345 0,-2.00691 0,-3.01035 0,-0.33449 -0.33446,-1.00346 0,-1.00346 0.33449,0 0,1.33794 0,1.00346 0,-1.00346 0,-2.00693 0,-3.01038 0,-0.33449 0.23656,-0.76693 0,-1.00345 -0.23647,-0.23652 -0.76693,0.23652 -1.00344,0 -0.50172,-0.50173 0.50172,-2.50866 0,-3.01038 -1.33794,-1.33794 -1.00344,1.67243 -1.00344,-1.00345 0,-1.33795 0,-2.67589 0,-4.01382 0,-0.3345 0,-1.33796 0,-1.00346 0,0.66896 -0.66899,2.00691 0,2.00691 2.76317,0 0.28336,-2.29029 1.00344,-3.01037 0.23651,-0.23652 1.00344,-0.33448 1.00344,0 0,1.47649 -3.32799,-2.3246 0,1.00346 1.00348,-0.66896 1.93171,-1.46758 3.0104,-2.00691 0.60934,-0.30466 5.41143,0.30465 6.02073,0 0.42309,-0.21156 0.58035,-0.7919 1.00344,-1.00347 0.54437,-0.27216 3.73926,0.27458 4.01384,0 0.23652,-0.2365 -0.23651,-0.76692 0,-1.00345 0.47303,-0.47304 1.40856,0.29918 2.00693,0 0.42308,-0.21154 0.58034,-0.79191 1.00343,-1.00345 0.59837,-0.29919 1.40857,0.29916 2.00692,0 0.4231,-0.21155 0.58035,-0.79192 1.00349,-1.00346 0.6931,-0.34656 4.66503,0.35223 5.01724,0 0.23652,-0.23652 -0.23652,-0.76694 0,-1.00347 0.33439,-0.33435 1.67258,0.33437 2.00692,0 0.23652,-0.23651 -0.23651,-0.76692 0,-1.00345 0.31072,-0.31071 4.70657,0.31073 5.01729,0 0.23652,-0.2365 -0.23653,-0.76693 0,-1.00345 0.24146,-0.24146 3.77237,0.24145 4.01384,0 0.23652,-0.23652 -0.23655,-0.76695 0,-1.00346 0.47303,-0.47302 1.53385,0.47303 2.00689,0 0.23651,-0.23651 -0.23652,-0.76694 0,-1.00344 0.50175,-0.50173 2.50864,0.50172 3.01035,0 0.23656,-0.23653 -0.23647,-0.76695 0,-1.00348 0.27459,-0.27455 3.46947,0.27218 4.01385,0 0.42309,-0.21154 0.58038,-0.79191 1.00343,-1.00346 0.69314,-0.34655 4.66509,0.35225 5.01729,0 0.23656,-0.2365 -0.23648,-0.76692 0,-1.00344 0.20515,-0.20515 2.61254,0.19893 3.0104,0 0.42305,-0.21155 0.58035,-0.79191 1.00344,-1.00346 0.63688,-0.31845 4.69196,0.32532 5.01729,0 0.23652,-0.23652 -0.23652,-0.76694 0,-1.00344 0.20515,-0.20517 2.6125,0.1989 3.01036,0 0.4231,-0.21157 0.58039,-0.79191 1.00345,-1.00348 0.59835,-0.29917 1.40859,0.29919 2.00692,0 0.42309,-0.21155 0.58038,-0.79191 1.00347,-1.00345 0.59833,-0.29917 1.53386,0.47303 2.00689,0 0.23655,-0.23651 -0.23647,-0.76694 0,-1.00345 0.47303,-0.47303 1.40859,0.29917 2.00693,0 0.42308,-0.21155 0.58034,-0.79191 1.00347,-1.00346 0.80276,-0.40139 2.20756,0.40138 3.01036,0 0.42309,-0.21155 0.58035,-0.79191 1.00344,-1.00347 0.3054,-0.15268 2.55847,0 3.01037,0 2.35328,0 -0.47304,0.23652 2.00692,-1.00345 0.6307,-0.31534 3.38314,0.31536 4.01385,0 0.42309,-0.21154 0.58034,-0.79191 1.00343,-1.00344 0.80277,-0.40138 2.2076,0.40138 3.01036,0 0.4231,-0.21155 0.58036,-0.79192 1.00348,-1.00346 0.39787,-0.19894 2.80521,0.20513 3.01036,0 0.23652,-0.23653 -0.23651,-0.76695 0,-1.00346 0.47303,-0.47305 1.40856,0.29916 2.00691,0 0.42309,-0.21156 0.58035,-0.79191 1.00345,-1.00346 0.39787,-0.19893 2.80525,0.20513 3.01038,0 0.23651,-0.23651 -0.23652,-0.76694 0,-1.00346 0.27455,-0.27457 3.46946,0.27218 4.01383,0 0.42309,-0.21153 0.58035,-0.79191 1.00346,-1.00345 0.63068,-0.31535 3.38312,0.31534 4.01382,0 2.47994,-1.23998 -0.34636,-1.00346 2.00691,-1.00346 0.24337,0 2.97809,0.0322 3.01037,0 0.23652,-0.23652 -0.23652,-0.76694 0,-1.00346 0.23652,-0.23651 0.66897,0 1.00346,0 0.47311,0 4.97181,0.0455 5.01728,0 0.23652,-0.23651 -0.23652,-0.76693 0,-1.00345 0.20514,-0.20515 2.6125,0.19893 3.01036,0 0.4231,-0.21155 0.58036,-0.79192 1.00346,-1.00346 0.59835,-0.29916 1.53388,0.47304 2.00691,0 0.23653,-0.23653 -0.2365,-0.76695 0,-1.00345 0.23653,-0.23653 0.66898,0 1.00346,0 0.33448,0 1.33793,0 1.00346,0 -0.66898,0 -2.67588,0 -2.00692,0 1.00346,0 2.00692,0 3.01037,0 0.36852,0 3.97346,0.0404 4.01383,0 0.23651,-0.23653 -0.23652,-0.76695 0,-1.00346 0.50173,-0.50172 2.50863,0.50173 3.01036,0 0.23653,-0.23651 -0.23651,-0.76694 0,-1.00346 0.47305,-0.47305 1.53389,0.47304 2.00693,0 0.2365,-0.23651 -0.23653,-0.76693 0,-1.00346 0.24145,-0.24146 3.77235,0.24148 4.01382,0 0.23651,-0.23651 -0.23652,-0.76693 0,-1.00346 0.24146,-0.24145 3.77236,0.24146 4.01384,0 0.2365,-0.23651 -0.23654,-0.76694 0,-1.00345 0.20513,-0.20514 2.6125,0.19893 3.01035,0 0.4231,-0.21154 0.58037,-0.7919 1.00345,-1.00344 0.80277,-0.40139 2.20761,0.40137 3.01038,0 0.4231,-0.21156 0.58037,-0.79192 1.00346,-1.00348 0.29918,-0.14957 0.66897,0 1.00346,0 0.33447,0 0.66897,0 1.00345,0 2.00691,0 4.01383,0 6.02074,0 0.45192,0 2.70499,0.1527 3.01037,0 0.42308,-0.21154 0.58035,-0.79191 1.00345,-1.00346 0.36289,-0.18142 4.31934,0 5.01728,0 0.3345,0 0.76694,-0.2365 1.00345,0 0.23654,0.23654 -0.23651,0.76696 0,1.00346 0.0322,0.0322 2.76701,0 3.01038,0 4.6828,0 9.36561,0 14.04839,0 0.33449,0 0.66897,0 1.00345,0 0.33449,0 0.76695,-0.2365 1.00346,0 0.23652,0.23653 -0.23651,0.76695 0,1.00348 0.50172,0.50172 2.50865,-0.50175 3.01038,0 0.23651,0.23651 -0.23653,0.76692 0,1.00344 0.47302,0.47304 1.40857,-0.29917 2.0069,0 0.4231,0.21155 0.58037,0.79192 1.00347,1.00345 0.59835,0.29917 1.53387,-0.47302 2.00691,0 0.23651,0.23653 -0.23652,0.76695 0,1.00346 0.47303,0.47303 1.40857,-0.29917 2.00693,0 0.42307,0.21154 0.58034,0.79191 1.00344,1.00346 0.39786,0.19893 2.80522,-0.20515 3.01036,0 0.23653,0.23652 -0.2365,0.76695 0,1.00346 0.20514,0.20515 2.61252,-0.19894 3.01037,0 0.42311,0.21155 0.58037,0.79191 1.00346,1.00346 0.26385,0.13192 3.4891,0 4.01383,0 1.00345,0 2.00692,0 3.01038,0 0.33447,0 1.33793,0 1.00345,0 -0.66898,0 -2.6759,0 -2.00691,0 7.11724,0 0.58781,-0.70956 4.01381,1.00345 0.39788,0.19894 2.80523,-0.20514 3.01038,0 0.23652,0.23653 -0.23653,0.76694 0,1.00346 0.47302,0.47302 1.40857,-0.29917 2.00689,0 0.42311,0.21156 0.58038,0.79191 1.00347,1.00345 0.29917,0.14959 0.76693,-0.23651 1.00345,0 0.23651,0.23652 -0.23652,0.76694 0,1.00346 0.23651,0.23651 0.66897,0 1.00346,0 0,0.33447 -0.23651,0.76693 0,1.00346 0.23652,0.23652 0.76694,-0.23653 1.00345,0 0.23652,0.23652 -0.23651,0.76695 0,1.00345 0.23652,0.23652 0.76695,-0.2365 1.00347,0 0.23651,0.23652 -0.14959,0.70428 0,1.00346 0.21154,0.4231 0.79191,0.58036 1.00346,1.00346 0.14959,0.29916 -0.23653,0.76693 0,1.00346 0.2365,0.23651 0.76693,-0.23653 1.00344,0 0.23653,0.23651 -0.14958,0.70429 0,1.00346 0.21155,0.4231 0.79191,0.58035 1.00346,1.00344 0.14958,0.29918 -0.23652,0.76694 0,1.00345 0.23653,0.23652 0.76694,-0.23651 1.00345,0 0.47305,0.47306 -0.47304,1.5339 0,2.00693 0.23653,0.23651 0.76695,-0.23653 1.00347,0 0.47303,0.47302 -0.47303,1.53388 0,2.0069 0.23651,0.23653 0.76693,-0.23651 1.00345,0 0.23651,0.23653 -0.23652,0.76695 0,1.00348 0.23651,0.2365 0.76695,-0.23653 1.00345,0 0.47304,0.47302 -0.47302,1.53387 0,2.0069 0.23654,0.23652 0.76695,-0.23653 1.00346,0 0.47303,0.47302 -0.47303,1.53387 0,2.0069 0.23652,0.23653 0.76695,-0.23651 1.00347,0 0.47303,0.47305 -0.47305,1.5339 0,2.00692 0.23651,0.23651 0.76693,-0.23651 1.00345,0 0.50173,0.50173 -0.50173,2.50863 0,3.01036 0.23651,0.23653 0.76693,-0.23651 1.00346,0 0.47303,0.47305 -0.47304,1.53389 0,2.00693 0.23652,0.2365 0.76695,-0.23653 1.00344,0 0.23654,0.2365 -0.23649,0.76694 0,1.00345 0.23654,0.23653 0.76695,-0.23651 1.00346,0 0.47305,0.47304 -0.47303,1.53388 0,2.00692 0.23652,0.2365 0.76695,-0.23652 1.00347,0 0.2365,0.2365 -0.23652,0.76693 0,1.00345 0.2365,0.23651 0.66896,0 1.00345,0 0.3345,0 0.66897,0 1.00346,0 0.33448,0 0.66898,0 1.00345,0 0.33449,0 0.76694,-0.23652 1.00346,0 0.23651,0.23651 0.33448,1.00346 0,1.00346 -0.33448,0 -0.23652,-0.76695 0,-1.00346 0.23651,-0.23652 0.70428,0.14958 1.00346,0 0.42309,-0.21153 0.58035,-0.79191 1.00346,-1.00345 0.29916,-0.14959 0.70429,0.14958 1.00345,0 0.42311,-0.21156 0.58037,-0.7919 1.00345,-1.00347 0.29918,-0.14957 0.76694,0.23653 1.00347,0 0.2365,-0.2365 -0.23653,-0.76692 0,-1.00345 0.33466,-0.33469 1.67222,0.33468 2.00691,0 0.23651,-0.23651 -0.23653,-0.76695 0,-1.00345 0.23651,-0.23653 0.76694,0.2365 1.00345,0 0.23652,-0.23653 -0.33449,-1.00346 0,-1.00346 0.66898,0 -0.47304,1.53387 0,2.00691 0.23652,0.23653 0.76694,-0.23651 1.00344,0 0.50176,0.50172 -0.50172,2.50866 0,3.01037 0.23654,0.23651 0.76696,-0.23652 1.00348,0 0.47303,0.47304 -0.47305,1.53388 0,2.00692 0.23651,0.23651 0.66896,0 1.00346,0 0.33448,0 0.70428,0.14959 1.00345,0 0.42309,-0.21155 0.58036,-0.79192 1.00345,-1.00346 0.29919,-0.14959 0.70426,0.14959 1.00345,0 0.42309,-0.21155 0.58038,-0.79191 1.00347,-1.00346 0.29915,-0.14959 0.76693,0.23651 1.00345,0 0.23652,-0.23652 -0.23652,-0.76695 0,-1.00345 0.23652,-0.23652 0.76697,0.2365 1.00345,0 0.23655,-0.23652 -0.23648,-0.76694 0,-1.00347 0.47302,-0.47303 1.53388,0.47304 2.00692,0 0.23651,-0.2365 -0.23652,-0.76692 0,-1.00345 0.47303,-0.47304 1.53389,0.47304 2.00691,0 0.23652,-0.23651 -0.23652,-0.76695 0,-1.00345 0.47303,-0.47304 1.5339,0.47303 2.00692,0 0.23652,-0.23653 -0.23651,-0.76696 0,-1.00346 0.23652,-0.23652 0.66895,0 1.00345,0 0,-0.33448 -0.23652,-0.76694 0,-1.00347 0.31072,-0.31071 4.70657,0.31074 5.01728,0 0.23651,-0.23651 -0.23652,-0.76692 0,-1.00345 0.23651,-0.2365 0.66898,0 1.00348,0 0.71122,0 5.76129,0.12972 6.02073,0 0.42309,-0.21154 0.58034,-0.79191 1.00343,-1.00345 0.59837,-0.29917 1.5339,0.47303 2.00693,0 0.23652,-0.23652 -0.23651,-0.76695 0,-1.00346 0.47303,-0.47302 1.40856,0.29918 2.00693,0 0.42308,-0.21154 0.58034,-0.7919 1.00343,-1.00344 0.63069,-0.31537 3.38314,0.31533 4.01384,0 0.4231,-0.21156 0.58036,-0.79191 1.00345,-1.00348 0.26387,-0.13191 3.48913,0 4.01383,0 0.24337,0 2.97811,0.0322 3.01037,0 0.23652,-0.23651 -0.23651,-0.76692 0,-1.00346 0.0323,-0.0322 2.767,0 3.01036,0 0.3345,0 0.669,0 1.00345,0 0.33449,0 1.00347,-0.33447 1.00347,0 0,0.3345 -1.00347,0.3345 -1.00347,0 0,-1.42494 3.54632,-1.00344 1.00347,-1.00344 -0.33449,0 -0.66898,0 -1.00347,0 -1.16617,2.74862 -1.00345,5.21105 -1.00345,8.02765 0,0.33447 0,0.66897 0,1.00346 0,0.33449 -0.14958,0.70428 0,1.00345 0.21155,0.4231 0.79194,0.58037 1.00345,1.00345 0.18144,0.36289 0,4.31934 0,5.01729 0,4.01382 0,8.02765 0,12.04147 0,1.33796 0,2.67589 0,4.01383 0,0.3345 0.33449,1.00345 0,1.00345 -0.33445,0 0,-1.33793 0,-1.00345 0,0.66897 0,1.33796 0,2.00691 0,0.33449 0.23655,0.76695 0,1.00347 -0.23652,0.23651 -0.76692,-0.23652 -1.00345,0 -0.23652,0.23651 0.23653,0.76693 0,1.00345 -0.23652,0.2365 -0.76692,-0.23652 -1.00344,0 -0.23651,0.2365 0.23652,0.76693 0,1.00345 -0.23651,0.23653 -0.76696,-0.23652 -1.00347,0 -0.23652,0.23653 0.23651,0.76695 0,1.00346 -0.23652,0.23653 -0.76693,-0.23651 -1.00345,0 -0.23651,0.23653 0.23652,0.76695 0,1.00346 -0.23651,0.23651 -0.76692,-0.23651 -1.00344,0 -0.23655,0.23651 0.23652,0.76694 0,1.00346 -0.23655,0.23651 -0.76696,-0.23652 -1.00348,0 -0.23651,0.23651 0.23652,0.76692 0,1.00346 -0.23651,0.23649 -0.76693,-0.23654 -1.00345,0 -0.2365,0.23649 0.23652,0.76692 0,1.00345 -0.2365,0.23653 -0.76695,-0.23653 -1.00347,0 -0.23652,0.23653 0.23652,0.76694 0,1.00345 -0.23652,0.23652 -0.76692,-0.23651 -1.00344,0 -0.23652,0.23652 0.14959,0.70428 0,1.00346 -0.60209,1.20414 -2.40829,1.80623 -3.01037,3.01037 -0.14958,0.29918 0.1496,0.70428 0,1.00345 -0.21154,0.4231 -0.66898,0.66898 -1.00348,1.00347 -0.33449,0.33447 -0.58034,0.79191 -1.00344,1.00346 -0.29917,0.14959 -0.76693,-0.23654 -1.00344,0 -0.23656,0.23651 0.14955,0.70428 0,1.00345 -0.60207,1.20414 -2.40832,1.80621 -3.0104,3.01037 -0.14958,0.29917 0.23655,0.76693 0,1.00346 -0.23648,0.23651 -0.76692,-0.23653 -1.00344,0 -0.23651,0.23651 0.23652,0.76694 0,1.00344 -0.23651,0.23653 -0.76693,-0.2365 -1.00344,0 -0.47303,0.47304 0.47303,1.53387 0,2.00694 -0.23652,0.2365 -0.76697,-0.23653 -1.00349,0 -0.2365,0.2365 0,0.66895 0,1.00344 0,0.33447 0,0.66897 0,1.00345 1.16823,7.85257 -3.74356,0.73323 -5.01728,2.00691 -0.23651,0.23653 0.23652,0.76695 0,1.00347 -0.23651,0.23651 -0.76693,-0.23652 -1.00343,0 -0.23652,0.23651 0.2365,0.76693 0,1.00345 -0.23652,0.23651 -0.76693,-0.23652 -1.00345,0 -0.23655,0.23651 0.23652,0.76693 0,1.00346 -0.47303,0.47303 -1.53389,-0.47304 -2.00692,0 -0.23652,0.23652 0.23652,0.76695 0,1.00345 -0.47303,0.47304 -1.53389,-0.47304 -2.00692,0 -0.23652,0.23653 0.23651,0.76694 0,1.00345 -0.23652,0.23652 -0.76697,-0.23651 -1.00344,0 -0.23655,0.23652 0.23647,0.76695 0,1.00347 -0.47303,0.47304 -1.5339,-0.47303 -2.00693,0 -0.23651,0.2365 0.23652,0.76692 0,1.00346 -0.23651,0.2365 -0.76692,-0.23654 -1.00347,0 -0.23648,0.2365 0.33449,1.00345 0,1.00345 -0.33449,0 0.33449,-1.00345 0,-1.00345 -0.47304,0 -0.58036,0.79191 -1.00345,1.00345 -0.29918,0.14959 -1.00344,0.33448 -1.00344,0 0,-0.3345 1.33794,0 1.00344,0 -0.66894,0 -1.37228,-0.21154 -2.00691,0 -0.44878,0.14959 -0.58035,0.79191 -1.00345,1.00345 -0.59836,0.29918 -1.53389,-0.47303 -2.00692,0 -0.23652,0.23652 0.23652,0.76694 0,1.00347 -0.47303,0.47303 -1.53385,-0.47304 -2.00692,0 -0.23652,0.2365 0.23652,0.76693 0,1.00345 -0.47303,0.47304 -1.40856,-0.29918 -2.0069,0 -0.42309,0.21155 -1.47649,1.00346 -1.00345,1.00346 0.74792,0 2.75486,-1.00346 2.0069,-1.00346 -1.05773,0 -1.98421,0.74692 -3.01036,1.00346 -0.3245,0.0811 -0.76694,-0.23654 -1.00348,0 -1.33793,1.33793 1.67244,1.00345 -1.00344,1.00345 -0.33449,0 -1.33794,0 -1.00345,0 0.66896,0 2.67588,0 2.00689,0 -1.00344,0 -2.0584,-0.31733 -3.01035,0 -0.31732,0.10577 0,0.66898 0,1.00345 -0.33449,0 -0.66897,0 -1.00345,0 -0.33449,0 -0.66898,0 -1.00347,0 -0.33447,0 -0.76693,-0.23651 -1.00345,0 -0.2365,0.23653 0.23652,0.76694 0,1.00348 -0.47304,0.47303 -1.53388,-0.47305 -2.00691,0 -0.23652,0.2365 0.23651,0.76692 0,1.00344 -0.50173,0.50173 -2.50865,-0.50173 -3.01037,0 -0.23653,0.23652 0.23652,0.76693 0,1.00346 -0.23653,0.23651 -0.66896,0 -1.00346,0 -0.33449,0 -1.00345,0.33449 -1.00345,0 0,-0.33449 1.23996,-0.23653 1.00345,0 -2.36724,2.36724 -3.01038,-0.59331 -3.01038,2.0069 0,2.67589 0.3345,-0.33448 -1.00344,1.00348 -0.47304,0.47302 0.47303,1.53387 0,2.0069 -0.23653,0.23652 -0.76695,-0.23651 -1.00346,0 -0.23652,0.23652 0.23651,0.76694 0,1.00345 -0.23652,0.23653 -0.76694,-0.23651 -1.00345,0 -0.47305,0.47304 0.47303,1.53389 0,2.00692 -0.23652,0.23651 -0.66897,0 -1.00347,0 0,0.33449 0.23652,0.76694 0,1.00345 -0.23651,0.23654 -0.76692,-0.23651 -1.00346,0 -0.47302,0.47303 0.47304,1.53388 0,2.00691 -0.2365,0.23653 -0.76694,-0.2365 -1.00345,0 -0.23652,0.23653 0.23651,0.76695 0,1.00347 -0.23652,0.2365 -0.76694,-0.23652 -1.00345,0 -0.23652,0.2365 0.23651,0.76693 0,1.00345 -0.23652,0.23651 -0.76694,-0.23652 -1.00347,0 -0.23651,0.23651 0.14959,0.70429 0,1.00345 -0.21154,0.42311 -0.79191,0.58037 -1.00345,1.00346 -0.14957,0.29918 0.23653,0.76695 0,1.00347 -0.23652,0.2365 -0.70429,-0.14959 -1.00346,0 -0.42309,0.21154 -0.66896,1.33793 -1.00344,1.00346 -0.3345,-0.3345 1.47648,-1.00346 1.00344,-1.00346 -5.06925,0 -0.77117,0.77117 -2.0069,2.0069 -0.23652,0.23653 -0.76695,-0.23652 -1.00347,0 -0.23651,0.23653 0.23652,0.76695 0,1.00346 -0.23651,0.23652 -0.76693,-0.23651 -1.00345,0 -0.23651,0.23652 0.23652,0.76695 0,1.00346 -0.23651,0.23651 -1.00346,0.33447 -1.00346,0 0,-0.0737 2.82626,0.0921 3.01038,0 0.42309,-0.21155 0.58035,-0.79192 1.00346,-1.00346 0.29916,-0.14959 0.76693,0.23652 1.00344,0 0.23653,-0.23651 -0.23651,-0.76693 0,-1.00346 0.47304,-0.47303 1.53387,0.47304 2.00691,0 0.23653,-0.23652 -0.23651,-0.76695 0,-1.00344 0.47305,-0.47304 1.53389,0.47303 2.00692,0 0.23651,-0.23653 -0.23652,-0.76696 0,-1.00346 0.23651,-0.23652 0.76695,0.2365 1.00345,0 0.23654,-0.23652 -0.2365,-0.76695 0,-1.00347 0.47304,-0.47304 1.53388,0.47303 2.00693,0 0.23651,-0.23651 -0.23652,-0.76692 0,-1.00346 0.23651,-0.23651 0.76693,-0.23651 1.00345,0 0.23651,0.23654 -0.23652,0.76695 0,1.00346 0.23651,0.23652 0.76693,-0.23651 1.00346,0 0.23652,0.23652 -0.23653,0.76695 0,1.00347 0.23652,0.2365 0.76695,-0.23652 1.00344,0 0.23654,0.2365 -0.23649,0.76693 0,1.00346 0.23654,0.23649 0.76695,-0.23653 1.00346,0 0.47305,0.47303 -0.47303,1.53387 0,2.0069 0.23652,0.23652 0.76695,-0.23651 1.00347,0 0.47304,0.47303 -0.47305,1.53387 0,2.00692 0.2365,0.23651 0.76692,-0.23653 1.00345,0 0.47304,0.47303 -0.47303,1.53387 0,2.0069 0.23651,0.23653 0.76693,-0.23652 1.00346,0 0.23652,0.23653 -0.23653,0.76695 0,1.00346 0.33434,0.33437 1.67255,-0.33435 2.00691,0 0.23651,0.23652 -0.23652,0.76694 0,1.00345 0.0404,0.0404 3.64531,0 4.01382,0 2.67589,0 -0.33447,-0.33447 1.00347,1.00347 0.2365,0.23651 0.66896,0 1.00345,0 0.33449,0 0.66897,0 1.00346,0 0.33449,0 1.33794,0 1.00345,0 -0.66896,0 -2.67588,0 -2.00691,0 4.68279,0 9.36557,0 14.0484,0 0.3345,0 0.76692,-0.23653 1.00344,0 0.23652,0.23651 -0.23652,0.76693 0,1.00346 0.23652,0.2365 0.66896,0 1.00345,0 0.24336,0 2.97814,0.0322 3.0104,0 0.23647,-0.23653 -0.23655,-0.76695 0,-1.00346 0.47302,-0.47303 1.53384,0.47303 2.00689,0 0.23651,-0.23653 -0.23653,-0.76694 0,-1.00347 0.47303,-0.47303 1.53388,0.47306 2.00691,0 0.23651,-0.23651 -0.23652,-0.76693 0,-1.00345 0.50172,-0.50173 2.50865,0.50173 3.01036,0 0.23652,-0.23651 -0.23651,-0.76693 0,-1.00346 0.50172,-0.50173 2.50864,0.50173 3.01036,0 0.23656,-0.23652 -0.23651,-0.76695 0,-1.00344 2.67591,0 -0.33445,0.33448 1.00349,-1.00346 0.20514,-0.20514 2.61249,0.19892 3.01036,0 0.4231,-0.21157 0.58039,-0.79191 1.00344,-1.00346 0.54441,-0.27218 3.73926,0.27456 4.01384,0 0.23652,-0.23651 -0.23651,-0.76694 0,-1.00346 0.47304,-0.47303 1.40856,0.29918 2.00692,0 3.32804,-3.32804 -0.94606,0.47303 2.00693,-1.00346 0.42305,-0.21154 0.58035,-0.79192 1.00344,-1.00344 0.29918,-0.14961 0.76692,0.23649 1.00344,0 0.23652,-0.23653 -0.23652,-0.76696 0,-1.00346 0.23652,-0.23652 0.7043,0.14958 1.00347,0 0.4231,-0.21156 0.58036,-0.79191 1.00345,-1.00347 0.29918,-0.14957 0.76693,0.23652 1.00348,0 0.23652,-0.23651 -0.23655,-0.76692 0,-1.00346 0.23652,-0.23651 0.76693,0.23654 1.00344,0 0.23652,-0.23651 -0.23651,-0.76694 0,-1.00345 0.23652,-0.23652 0.76693,0.23651 1.00345,0 0.23651,-0.23652 -0.23652,-0.76695 0,-1.00345 0.23651,-0.23652 0.76696,0.2365 1.00347,0 0.23652,-0.23652 -0.23651,-0.76694 0,-1.00347 0.23652,-0.2365 0.76692,0.23653 1.00344,0 0.23653,-0.2365 -0.23652,-0.76693 0,-1.00345 0.23653,-0.23651 0.76693,0.23652 1.00345,0 0.23655,-0.23651 -0.23652,-0.76692 0,-1.00346 0.23655,-0.23651 0.76696,0.23654 1.00347,0 0.23652,-0.23651 -0.33449,-1.00345 0,-1.00345 0.3345,0 -0.33449,1.00345 0,1.00345 0.47303,0 0.58035,-0.7919 1.00345,-1.00345 0.29917,-0.14959 0.66898,0 1.00348,0 0.33445,0 1.33793,0 1.00344,0 -0.66899,0 -2.67587,0 -2.00692,0 1.00348,0 2.00692,0 3.01037,0 0.33448,0 0.76695,0.23651 1.00347,0 1.33794,-1.33794 -1.67243,-1.00345 1.00344,-1.00345 1.67243,0 3.34486,0 5.01729,0 0.66898,0 2.6759,0 2.00692,0 -0.66895,0 -2.67591,0 -2.00692,0 1.00348,0 2.00692,0 3.01035,0 0.3345,0 0.76698,-0.23653 1.00345,0 0.23655,0.23651 -0.23647,0.76693 0,1.00345 0.23655,0.23651 0.66899,0 1.00348,0 0.33449,0 0.66898,0 1.00348,0 4.68279,0 9.36558,0 14.04838,0 2.00691,0 4.01383,0 6.02072,0 0.3345,0 0.76697,0.23651 1.00344,0 0.23656,-0.23652 -0.23647,-0.76694 0,-1.00345 0.0323,-0.0323 2.76704,0 3.0104,0 2.67587,0 5.35178,0 8.02765,0 0.4519,0 2.70497,-0.1527 3.01036,0 0.4231,0.21155 0.58036,0.79191 1.00349,1.00345 0.54431,0.27219 3.73925,-0.27456 4.01379,0 0.23652,0.23651 -0.23651,0.76694 0,1.00345 0.47304,0.47303 2.00693,-0.66896 2.00693,0 0,0.3345 -1.00344,-0.33449 -1.00344,0 0,0.47303 0.7919,0.58037 1.00344,1.00346 0.982,1.96403 -1.51377,0.5103 -2.00693,1.00345 -0.23651,0.23653 0.23652,0.76695 0,1.00347 -0.23651,0.2365 -0.76692,-0.23652 -1.00347,0 -0.23648,0.2365 0.23655,0.76693 0,1.00345 -0.23648,0.23651 -0.76692,-0.23652 -1.00345,0 -0.23651,0.23651 0.23653,0.76694 0,1.00345 -0.23651,0.23654 -0.70425,-0.14958 -1.00343,0 -0.4231,0.21155 -0.58039,0.79192 -1.00344,1.00346 -0.29919,0.1496 -0.76698,-0.23651 -1.00349,0 -0.23651,0.23652 0.23651,0.76695 0,1.00347 -0.23651,0.2365 -0.76693,-0.23652 -1.00344,0 -0.23651,0.2365 0.23651,0.76693 0,1.00346 -0.47303,0.47303 -1.53389,-0.47304 -2.00692,0 -0.23652,0.23649 0.23651,0.76692 0,1.00344 -0.23652,0.23653 -0.66899,0 -1.00344,0 -0.33449,0 -1.00348,0.33449 -1.00348,0 0,-0.33449 1.33793,0 1.00348,0 -0.66899,0 -1.40861,-0.29916 -2.00692,0 -0.29918,0.1496 0.23651,0.76695 0,1.00346 -0.50173,0.50172 -2.50864,-0.50173 -3.01037,0 -0.23651,0.23652 0.23652,0.76695 0,1.00346 -0.24146,0.24146 -3.77237,-0.24146 -4.01383,0 -0.23653,0.23651 0.23651,0.76693 0,1.00346 -0.23653,0.23651 -0.669,0 -1.00349,0 -0.33446,0 -0.66894,0 -1.00344,0 -0.33445,0 -0.66895,0 -1.00345,0 -0.33449,0 -0.76696,-0.23653 -1.00344,0 -0.23655,0.23651 0.23648,0.76692 0,1.00346 -0.24146,0.24146 -3.77237,-0.24146 -4.01383,0 -0.23652,0.23649 0.23652,0.76692 0,1.00344 -0.50173,0.50173 -2.50865,-0.50173 -3.01038,0 -0.2365,0.23653 0.23653,0.76695 0,1.00346 -0.47302,0.47302 -1.53388,-0.47303 -2.00691,0 -0.23651,0.23652 0.23652,0.76694 0,1.00345 -0.23651,0.23653 -0.7043,-0.14958 -1.00344,0 -3.32808,3.32805 0.94606,-0.47303 -2.00692,1.00347 -0.4231,0.21155 -0.58035,0.79192 -1.00349,1.00346 -0.29913,0.14959 -0.70426,-0.1496 -1.00344,0 -0.42309,0.21154 -0.58035,0.7919 -1.00344,1.00345 -0.29918,0.14958 -0.76696,-0.23651 -1.00348,0 -0.23651,0.23652 0.23652,0.76694 0,1.00344 -0.23651,0.23653 -0.66895,0 -1.00343,0 -0.3345,0 -0.66899,0 -1.00345,0 -0.3345,0 -1.33797,0 -1.00348,0 0.66898,0 2.67591,0 2.00693,0 -1.00345,0 -2.05843,-0.31731 -3.01041,0 -0.31731,0.10579 0.23655,0.76696 0,1.00348 -0.33434,0.33435 -1.67253,-0.33437 -2.00688,0 -0.23652,0.23651 0.23651,0.76692 0,1.00346 -0.47304,0.47302 -1.40856,-0.29919 -2.00692,0 -0.4231,0.21154 -0.58035,0.7919 -1.00344,1.00344 -0.29919,0.14959 -0.70431,-0.14959 -1.00348,0 -0.4231,0.21155 -0.58035,0.79191 -1.00344,1.00345 -0.29918,0.14959 -0.76697,-0.23651 -1.00345,0 -0.23655,0.23653 0.23648,0.76695 0,1.00346 -0.23655,0.23652 -0.7043,-0.14958 -1.00348,0 -0.42309,0.21156 -0.58035,0.79191 -1.00344,1.00347 -0.29918,0.14958 -0.76692,-0.23652 -1.00347,0 -0.23648,0.23651 0.23655,0.76693 0,1.00345 -0.23648,0.23651 -0.76694,-0.23652 -1.00345,0 -0.23652,0.23651 0.23651,0.76695 0,1.00345 -0.23652,0.23653 -0.76692,-0.2365 -1.00344,0 -0.23651,0.23653 0.23652,0.76695 0,1.00346 -0.47303,0.47303 -1.5339,-0.47303 -2.00693,0 -0.23651,0.23653 0.23652,0.76695 0,1.00347 -0.23651,0.23651 -0.76692,-0.23652 -1.00347,0 -0.23652,0.23651 0.23655,0.76693 0,1.00344 -0.47304,0.47304 -1.53386,-0.47302 -2.00689,0 -0.23651,0.23652 0.23652,0.76694 0,1.00346 -0.20514,0.20514 -2.61253,-0.19894 -3.01036,0 -0.42314,0.21154 -0.58039,0.79192 -1.00348,1.00345 -0.30539,0.15271 -2.55843,0 -3.01036,0 -2.67587,0 -5.35177,0 -8.02764,0 -1.67244,0 -3.34487,0 -5.01729,0 -0.33449,0 -0.76693,-0.2365 -1.00349,0 -0.23651,0.23653 0.23656,0.76695 0,1.00346 -0.23651,0.23652 -0.66895,0 -1.00343,0 -0.33449,0 -0.66899,0 -1.00344,0 -2.67587,0 -5.35178,0 -8.02765,0 -0.3345,0 -0.76697,-0.23651 -1.00348,0 -0.23652,0.23652 0.23651,0.76695 0,1.00346 -0.27455,0.27456 -3.46947,-0.27218 -4.01381,0 -0.42309,0.21155 -0.58039,0.79191 -1.00347,1.00346 -0.39787,0.19892 -2.80523,-0.20514 -3.01037,0 -0.23652,0.2365 0.23652,0.76692 0,1.00346 -0.24146,0.24145 -3.77237,-0.24146 -4.01382,0 -0.23653,0.23652 0.23652,0.76694 0,1.00345 -0.0454,0.0454 -4.54417,0 -5.01728,0 -1.67243,0 -3.34485,0 -5.01728,0 -0.69374,0 -3.73507,0 -2.00692,0 0.66897,0 2.67588,0 2.00692,0 -1.33795,0 -2.67589,0 -4.01383,0 -0.33449,0 -0.66896,0 -1.00346,0 -0.33449,0 -0.76695,0.23652 -1.00345,0 -0.23652,-0.23651 0.2365,-0.76693 0,-1.00345 -0.0404,-0.0404 -3.64532,0 -4.01383,0 -0.33449,0 -1.00345,0.33448 -1.00345,0 0,-0.33449 1.33792,0 1.00345,0 -0.66899,0 -1.40858,-0.29917 -2.00692,0 -0.29917,0.14958 0.23652,0.76694 0,1.00345 -0.23651,0.23652 -0.66896,0 -1.00346,0 -0.33448,0 -0.66895,0 -1.00345,0 -0.33448,0 -1.33794,0 -1.00345,0 0.66897,0 2.0069,-0.66897 2.0069,0 0,1.87689 -5.55766,0.54039 -6.02072,1.00345 -1.33796,1.33793 1.67241,1.00346 -1.00346,1.00346 -0.3345,0 -0.66898,0 -1.00347,0 -0.33447,0 -0.70427,-0.14958 -1.00345,0 -0.42309,0.21155 -0.58037,0.79192 -1.00346,1.00346 -0.59834,0.29917 -1.53387,-0.47303 -2.00692,0 -0.23649,0.23651 0.23654,0.76695 0,1.00346 -0.23649,0.23651 -0.76692,-0.23651 -1.00344,0 -0.23651,0.23651 0.23652,0.76694 0,1.00345 -0.23651,0.23652 -0.76693,-0.23651 -1.00345,0 -0.23653,0.23652 0.23652,0.76694 0,1.00347 -0.23653,0.2365 -1.00346,0.33447 -1.00346,0 0,-0.33449 1.33794,0 1.00346,0 -0.66897,0 -1.40859,-0.29919 -2.00691,0 -0.29919,0.14957 -0.23653,0.76693 0,1.00345 0.47303,0.47303 1.53388,-0.47304 2.00691,0 0.23652,0.23651 -0.23653,0.76692 0,1.00345 0.14757,0.14756 3.01036,-0.11805 3.01036,0 0,0.33449 -1.33794,0 -1.00347,0 0.66898,0 1.40858,-0.29916 2.00692,0 0.29917,0.14959 0.23651,0.76695 0,1.00345 -0.23652,0.23652 -0.76693,-0.2365 -1.00345,0 -0.23653,0.23652 0.23652,0.76694 0,1.00345 -0.47303,0.47306 -1.53388,-0.47302 -2.00691,0 -0.23651,0.23653 0.23652,0.76695 0,1.00348 -0.24146,0.24146 -3.77236,-0.24148 -4.01383,0 -0.23651,0.2365 0.23652,0.76693 0,1.00345 -0.33435,0.33434 -1.67256,-0.33438 -2.0069,0 -0.23653,0.23651 0.23652,0.76693 0,1.00345 -0.23653,0.23652 -0.76696,-0.23652 -1.00345,0 -0.23654,0.23652 0.23649,0.76695 0,1.00345 -0.23654,0.23653 -0.7043,-0.14957 -1.00346,0 -0.42311,0.21157 -0.58036,0.79191 -1.00347,1.00346 -0.59835,0.29919 -1.53388,-0.47303 -2.00691,0 -0.23652,0.23653 0.23651,0.76694 0,1.00347 -0.47303,0.47303 -1.53387,-0.47304 -2.00692,0 -0.23651,0.23651 0.23653,0.76693 0,1.00345 -0.47303,0.47302 -1.40856,-0.29918 -2.00691,0 -0.42308,0.21155 -0.58036,0.79191 -1.00346,1.00345 -0.29917,0.14959 -0.76694,-0.23651 -1.00344,0 -0.23653,0.23653 0.2365,0.76695 0,1.00345 -0.23653,0.23653 -0.76694,-0.2365 -1.00347,0 -0.2365,0.23653 0.23653,0.76695 0,1.00348 -0.47303,0.47302 -1.53388,-0.47305 -2.00691,0 -0.23652,0.2365 0.23653,0.76693 0,1.00344 -0.23652,0.23651 -0.76694,-0.23651 -1.00345,0 -0.23652,0.23651 0.23651,0.76694 0,1.00346 -0.23652,0.23654 -0.76695,-0.23652 -1.00344,0 -0.23654,0.23654 0.23649,0.76695 0,1.00346 -0.23654,0.23652 -0.76696,-0.23651 -1.00349,0 -0.2365,0.23652 0.23653,0.76695 0,1.00345 -0.2365,0.23652 -0.76693,-0.2365 -1.00344,0 -0.23652,0.23652 0.23651,0.76695 0,1.00347 -0.23652,0.2365 -0.76694,-0.23652 -1.00345,0 -0.23652,0.2365 0.23651,0.76693 0,1.00345 -0.23652,0.23651 -0.76695,-0.23652 -1.00346,0 -0.23652,0.23651 0.23651,0.76695 0,1.00345 -0.23652,0.23653 -0.76694,-0.2365 -1.00347,0 -0.23651,0.23653 0.23653,0.76696 0,1.00346 -0.23651,0.23652 -0.76693,-0.2365 -1.00346,0 -0.2365,0.23652 0.23653,0.76694 0,1.00347 -0.50172,0.50173 -2.50863,-0.50175 -3.01035,0 -0.23653,0.23651 0.2365,0.76692 0,1.00346 -0.23653,0.23649 -0.66898,0 -1.00347,0 -0.33447,0 -1.33794,0 -1.00346,0 0.66899,0 2.00693,0.66895 2.00693,0 0,-2.7632 -2.2903,-0.28339 -3.01038,-1.00346 -0.23653,-0.23653 0.23652,-0.76695 0,-1.00347 -0.23653,-0.2365 -0.76694,0.23652 -1.00345,0 -0.23652,-0.2365 0,-0.66896 0,-1.00346 0,-1.67243 0,-3.34484 0,-5.01728 0,-1.67243 0,-3.34485 0,-5.01728 0,-0.33449 0,-0.66898 0,-1.00345 0,-0.33449 0.14957,-0.70428 0,-1.00347 -0.21156,-0.42308 -0.79192,-0.58035 -1.00347,-1.00346 -0.29917,-0.59835 0.47305,-1.53388 0,-2.0069 -0.2365,-0.23652 -0.76693,0.23651 -1.00345,0 -0.23651,-0.23652 0.14959,-0.70429 0,-1.00345 -0.21155,-0.42311 -0.79192,-0.58038 -1.00345,-1.00348 -0.1496,-0.29916 0.23652,-0.76693 0,-1.00345 -0.23653,-0.2365 -0.76695,0.23652 -1.00346,0 -0.23653,-0.2365 0,-0.66896 0,-1.00345 -0.33448,0 -0.76695,0.23652 -1.00346,0 -0.23651,-0.23653 0.23651,-0.76694 0,-1.00345 -0.23651,-0.23652 -0.76694,0.23651 -1.00346,0 -0.23651,-0.23652 0.14959,-0.7043 0,-1.00345 -0.21154,-0.42311 -0.79191,-0.58037 -1.00346,-1.00347 -0.14959,-0.29917 0.23654,-0.76694 0,-1.00345 -0.2365,-0.23651 -0.76692,0.23651 -1.00344,0 -0.23653,-0.23651 0.23652,-0.76695 0,-1.00346 -0.0454,-0.0454 -4.54417,0 -5.01729,0 -5.68626,0 6.68972,0 1.00345,0 -3.34484,0 -6.68971,0 -10.03456,0 -0.33449,0 -0.66897,0 -1.00345,0 -0.33449,0 -0.76695,-0.23653 -1.00348,0 -0.2365,0.23651 0.23653,0.76695 0,1.00346 -0.24145,0.24146 -3.77234,-0.24146 -4.0138,0 -0.23653,0.23651 0.23651,0.76694 0,1.00345 -0.50172,0.50172 -2.50865,-0.50174 -3.01038,0 -0.23652,0.23652 0.23653,0.76694 0,1.00347 -0.50172,0.50172 -2.50865,-0.50175 -3.01036,0 -0.23651,0.2365 0.23652,0.76693 0,1.00345 -0.47305,0.47303 -1.40857,-0.29918 -2.00692,0 -0.4231,0.21154 -0.58036,0.79191 -1.00345,1.00345 -0.29918,0.14959 -0.76694,-0.23653 -1.00347,0 -0.2365,0.23652 0.23653,0.76695 0,1.00345 -0.24146,0.24146 -3.77235,-0.24145 -4.0138,0 -0.23654,0.23652 0.2365,0.76694 0,1.00345 -0.0323,0.0322 -2.76701,0 -3.01038,0 -0.3345,0 -0.76695,0.23653 -1.00346,0 -0.23652,-0.23651 0.23651,-0.76693 0,-1.00345 -0.50172,-0.50172 -2.50864,0.50173 -3.01037,0 -0.23651,-0.2365 0.23652,-0.76693 0,-1.00345 -0.31071,-0.31071 -4.70657,0.31071 -5.01728,0 -0.23653,-0.23653 0.23651,-0.76694 0,-1.00345 -0.23653,-0.23652 -0.66897,0 -1.00346,0 -0.33449,0 -0.66897,0 -1.00344,0 -5.68628,0 6.68969,0 1.00344,0 -1.33794,0 -2.67589,0 -4.01383,0 -0.33448,0 -0.66898,0 -1.00345,0 -0.33449,0 -0.76695,-0.23652 -1.00346,0 -0.23651,0.23651 0.23651,0.76692 0,1.00345 -0.0404,0.0404 -3.64531,0 -4.01383,0 -0.24335,0 -2.9781,-0.0322 -3.01036,0 -0.23652,0.23652 0.23652,0.76695 0,1.00345 -0.23652,0.23652 -0.66899,0 -1.00346,0 -0.33449,0 -0.66898,0 -1.00345,0 -0.66897,0 -1.33795,0 -2.00693,0 -0.33447,0 -1.33793,0 -1.00344,0 0.66897,0 2.67588,0 2.0069,0 -1.00346,0 -2.0069,0 -3.01036,0 -0.33449,0 -0.66898,0 -1.00347,0 -0.33447,0 -0.76692,-0.2365 -1.00345,0 -0.0322,0.0323 0,2.76701 0,3.01038 -1.67243,0.66896 -3.34485,1.33794 -5.01728,2.0069 -0.3345,0.33449 -0.58037,0.79191 -1.00345,1.00346 -0.29916,0.14958 -0.76695,-0.23652 -1.00345,0 -0.23654,0.23653 0.2365,0.76694 0,1.00347 -0.23654,0.23651 -0.76695,-0.23653 -1.00346,0 -0.23652,0.23651 0.23651,0.76693 0,1.00345 -0.23652,0.23651 -0.76695,-0.23652 -1.00347,0 -0.2365,0.23651 0.23652,0.76694 0,1.00345 -0.2365,0.23653 -0.76692,-0.23651 -1.00345,0 -0.2365,0.23653 0.23653,0.76695 0,1.00345 -0.2365,0.23653 -0.70429,-0.14957 -1.00345,0 -0.84619,0.42311 -1.16074,1.58382 -2.00692,2.00692 -0.29917,0.1496 -0.76693,-0.23651 -1.00346,0 -0.23651,0.23651 0.23653,0.76694 0,1.00346 -0.23651,0.23654 -0.76692,-0.23652 -1.00346,0 -0.23652,0.23654 0.23654,0.76695 0,1.00346 -0.23652,0.23652 -0.76695,-0.23651 -1.00345,0 -0.23652,0.23652 0.2365,0.76695 0,1.00345 -0.23652,0.23652 -0.76694,-0.2365 -1.00345,0 -0.23652,0.23652 0.23651,0.76695 0,1.00347 -0.23652,0.2365 -0.76694,-0.23652 -1.00346,0 -0.23651,0.2365 0.23652,0.76693 0,1.00345 -0.23651,0.23651 -0.76693,-0.23652 -1.00348,0 -0.23647,0.23651 0.14959,0.70429 0,1.00345 -0.21155,0.42311 -0.79189,0.58037 -1.00344,1.00346 -0.14959,0.29918 0.23652,0.76694 0,1.00347 -0.23651,0.23651 -0.76692,-0.23653 -1.00344,0 -0.23655,0.23651 0.23652,0.76692 0,1.00346 -0.23655,0.23649 -0.76696,-0.23654 -1.00348,0 -0.23651,0.23649 0.1496,0.70428 0,1.00344 -0.21154,0.42309 -0.66895,0.66896 -1.00343,1.00346 -0.33449,0.33449 -0.58036,0.7919 -1.00348,1.00345 -0.29915,0.14959 -0.76693,-0.23651 -1.00345,0 -0.23651,0.23652 0.23652,0.76693 0,1.00347 -0.47303,0.47303 -1.53386,-0.47305 -2.00693,0 -0.2365,0.23651 0.23652,0.76692 0,1.00346 -0.2365,0.23649 -0.76692,-0.23654 -1.00343,0 -0.23652,0.23649 0.23651,0.76692 0,1.00345 -0.23652,0.23652 -0.76692,-0.23653 -1.00348,0 -0.23651,0.23652 0.23656,0.76694 0,1.00345 -0.23651,0.23652 -0.70426,-0.14958 -1.00344,0 -0.4231,0.21155 -0.58035,0.79191 -1.00344,1.00344 -0.29919,0.1496 -0.76697,-0.2365 -1.00348,0 -0.23652,0.23654 0.23651,0.76695 0,1.00348 -0.23652,0.23651 -0.76694,-0.23653 -1.00344,0 -0.23652,0.23651 0.2365,0.76693 0,1.00345 -0.33469,0.33469 -1.67225,-0.33468 -2.00693,0 -0.23652,0.23651 0.23652,0.76694 0,1.00345 -0.47303,0.47303 -1.53388,-0.47302 -2.00691,0 -0.23652,0.23653 0.23651,0.76695 0,1.00346 -0.47304,0.47303 -1.53386,-0.47304 -2.00689,0 -0.23655,0.23652 0.23648,0.76695 0,1.00347 -0.33467,0.33467 -1.67224,-0.33468 -2.00692,0 -0.23652,0.23651 0.23651,0.76693 0,1.00345 -0.47303,0.47303 -1.40857,-0.29918 -2.00693,0 -0.42308,0.21155 -0.58034,0.79191 -1.00344,1.00345 -0.26386,0.13193 -3.48912,0 -4.01384,0 -0.52472,0 -3.74998,0.13193 -4.0138,0 -0.42313,-0.21154 -0.58038,-0.7919 -1.00348,-1.00345 -0.54437,-0.27219 -3.73926,0.27457 -4.01381,0 -0.23656,-0.23652 0.23648,-0.76694 0,-1.00345 -0.23656,-0.23652 -0.66898,0 -1.00348,0 -2.00692,0 -4.0138,0 -6.02072,0 -0.33449,0 -0.76693,0.23651 -1.00349,0 -0.23648,-0.23652 0.23656,-0.76695 0,-1.00347 -0.20514,-0.20515 -2.61249,0.19893 -3.01032,0 -0.42313,-0.21154 -0.58038,-0.79191 -1.00347,-1.00346 -0.25944,-0.12971 -5.30951,0 -6.02073,0 -0.3345,0 -0.76697,-0.23651 -1.00347,0 -0.23652,0.23653 0.2365,0.76695 0,1.00346 -0.23652,0.23652 -0.669,0 -1.00345,0 -0.3345,0 -0.66899,0 -1.00348,0 -3.67932,0 -7.35866,0 -11.03801,0 -0.36851,0 -3.97344,-0.0404 -4.01381,0 -0.23651,0.23652 0.23651,0.76695 0,1.00347 -0.23651,0.23651 -0.76696,-0.23652 -1.00348,0 -0.23651,0.23651 0.23652,0.76693 0,1.00345 -0.23651,0.23651 -0.76692,-0.23652 -1.00343,0 -0.23652,0.23651 0.23651,0.76693 0,1.00345 -0.23652,0.23653 -0.76697,-0.23652 -1.00349,0 -0.47303,0.47304 0.47307,1.53387 0,2.00691 -0.23651,0.23652 -0.76692,-0.23651 -1.00344,0 -0.23651,0.23652 0.1496,0.70429 0,1.00346 -0.21154,0.4231 -0.66894,0.66897 -1.00344,1.00346 -0.3345,0.3345 -0.58038,0.79191 -1.00349,1.00345 -0.29916,0.1496 -0.76692,-0.23652 -1.00343,0 -0.23652,0.23653 0.23651,0.76695 0,1.00346 -0.23652,0.23652 -0.66899,0 -1.00348,0 -1.67239,0 -3.34486,0 -5.01729,0 -0.33446,0 -0.66894,0 -1.00344,0 -0.33449,0 -0.76692,0.23652 -1.00344,0 -0.23652,-0.23651 0.23652,-0.76693 0,-1.00346 -0.47303,-0.47303 -1.53389,0.47304 -2.00692,0 -0.23652,-0.23652 0.23652,-0.76695 0,-1.00345 -0.23652,-0.23652 -0.76692,0.2365 -1.00348,0 -0.23647,-0.23652 0.23656,-0.76694 0,-1.00346 -0.33434,-0.33436 -1.67254,0.33435 -2.00688,0 -1.33794,-1.33793 1.67242,-1.00346 -1.00345,-1.00346 -2.6759,0 0.33446,0.33449 -1.00348,-1.00346 -0.47302,-0.47303 -1.53388,0.47304 -2.00691,0 -0.23652,-0.23651 -0.3345,-1.00345 0,-1.00345 0.47303,0 1.47651,1.00345 1.00347,1.00345 -0.74794,0 -1.29738,-0.76692 -2.00692,-1.00345 -0.31733,-0.10577 -0.76697,0.23653 -1.00347,0 -0.23652,-0.23652 0.2365,-0.76694 0,-1.00345 -0.23652,-0.23652 -0.76693,-0.23652 -1.00345,0 -0.23651,0.23651 0,0.66897 0,1.00345 -1.67242,0.66897 -3.34485,1.33795 -5.01728,2.00691 0,0.33449 0.23652,0.76695 0,1.00346 -0.23651,0.23652 -0.70431,-0.14958 -1.00344,0 -0.42314,0.21156 -0.58039,0.79192 -1.00348,1.00346 -0.29918,0.14959 -0.76693,-0.23652 -1.00345,0 -0.23651,0.2365 0.23652,0.76693 0,1.00345 -0.23651,0.23653 -0.76693,-0.23652 -1.00348,0 -0.23647,0.23653 0.23655,0.76695 0,1.00346 -0.23647,0.23652 -0.70426,-0.14957 -1.00344,0 -0.42309,0.21156 -0.58035,0.79191 -1.00344,1.00346 -0.29918,0.14958 -0.76696,-0.23651 -1.00344,0 -0.23655,0.23651 0.23648,0.76693 0,1.00345 -0.23655,0.23652 -0.7043,-0.14958 -1.00348,0 -0.42309,0.21155 -0.58035,0.79192 -1.00348,1.00346 -0.29914,0.1496 -0.76693,-0.23653 -1.00345,0 -0.2365,0.2365 0.23652,0.76695 0,1.00345 -0.2365,0.23653 -0.66894,0 -1.00343,0 -0.3345,0 -0.66899,0 -1.00345,0 -0.33449,0 -0.76696,-0.2365 -1.00347,0 -0.23652,0.23653 0.23651,0.76695 0,1.00346 -0.10033,0.10035 -2.91004,0.10035 -3.01036,0 -0.23652,-0.23651 0.23651,-0.76693 0,-1.00346 -0.47303,-0.47303 -1.5339,0.47304 -2.00693,0 -0.23651,-0.2365 0.23651,-0.76695 0,-1.00345 -0.47303,-0.47304 -1.53389,0.47303 -2.00692,0 -0.23652,-0.23653 0.23651,-0.76694 0,-1.00346 -0.23652,-0.23652 -0.76692,0.23652 -1.00344,0 -0.23652,-0.23652 0.23652,-0.76694 0,-1.00345 -0.23652,-0.23651 -0.76692,0.23651 -1.00348,0 -0.23648,-0.23651 0.23656,-0.76694 0,-1.00346 -0.23648,-0.23651 -0.76693,0.23652 -1.00344,0 -0.23652,-0.23651 0.23651,-0.76693 0,-1.00346 -0.23652,-0.23652 -0.76693,0.23653 -1.00344,0 -0.23652,-0.23652 0.23651,-0.76695 0,-1.00345 -0.23652,-0.23652 -0.76697,0.2365 -1.00348,0 -0.23652,-0.23652 0.23651,-0.76694 0,-1.00346 -0.0323,-0.0322 -2.76701,0 -3.01037,0 -0.33449,0 -0.76692,-0.23651 -1.00344,0 -0.20514,0.20516 0.19893,2.61251 0,3.01037 -0.21154,0.4231 -0.79193,0.58036 -1.00344,1.00346 -0.19897,0.39786 0.20511,2.80523 0,3.01036 -0.23655,0.23653 -0.76696,-0.2365 -1.00348,0 -0.23651,0.23653 0.23652,0.76695 0,1.00346 -0.23651,0.23651 -0.76693,-0.23651 -1.00345,0 -0.2365,0.23651 0.23652,0.76694 0,1.00346 -0.2365,0.23651 -0.76695,-0.23652 -1.00347,0 -0.23652,0.23651 0,0.66897 0,1.00346 -0.3345,0 -0.76693,-0.23653 -1.00345,0 -0.23651,0.23651 0.23652,0.76693 0,1.00346 -0.47303,0.47303 -1.53388,-0.47304 -2.00692,0 -0.23651,0.23651 0.23653,0.76694 0,1.00345 -0.47303,0.47302 -1.40856,-0.29917 -2.00691,0 -0.4231,0.21154 -0.58035,0.7919 -1.00345,1.00345 -0.29917,0.14958 -0.66898,0 -1.00344,0 -0.33449,0 -0.66898,0 -1.00348,0 -0.36851,0 -3.97343,0.0404 -4.01384,0 -0.23648,-0.23651 0.23655,-0.76693 0,-1.00345 -0.50173,-0.50174 -2.5086,0.50172 -3.01033,0 -0.23655,-0.23651 0.23648,-0.76694 0,-1.00345 -0.23655,-0.23653 -0.76696,0.23651 -1.00347,0 -0.23652,-0.23653 0.23651,-0.76695 0,-1.00346 -0.23652,-0.23653 -0.76693,0.23651 -1.00349,0 -0.23648,-0.23653 0.23656,-0.76695 0,-1.00346 -0.50172,-0.50174 -2.5086,0.50173 -3.01032,0 -0.23655,-0.23652 0.23647,-0.76695 0,-1.00346 -0.47303,-0.47303 -1.53389,0.47302 -2.00693,0 -0.23651,-0.23651 0.23652,-0.76693 0,-1.00346 -0.47302,-0.47303 -1.40855,0.29919 -2.00691,0 -0.42309,-0.21153 -0.58039,-0.79191 -1.00345,-1.00345 -0.39789,-0.19894 -2.80525,0.20514 -3.0104,0 -0.23651,-0.23653 0.23655,-0.76694 0,-1.00346 -0.23651,-0.23652 -0.66894,0 -1.00344,0 -0.69793,0 -4.65439,0.18144 -5.01728,0 -2.47995,-1.23996 0.34637,-1.00345 -2.00693,-1.00345 -0.33445,0 -1.33792,0 -1.00344,0 0.66899,0 2.67587,0 2.00689,0 -1.00345,0 -2.05839,0.31731 -3.01032,0 -0.31735,-0.10577 0.23648,-0.76694 0,-1.00346 -0.23656,-0.23651 -0.669,0 -1.00349,0 -0.33449,0 -0.66898,0 -1.00347,0 -0.33446,0 -1.33795,0 -1.00344,0 0.66898,0 2.6759,0 2.00691,0 -1.00347,0 -2.05838,-0.31733 -3.01036,0 -0.31734,0.10578 0.23651,0.76695 0,1.00346 -0.47303,0.47304 -1.53388,-0.47305 -2.00693,0 -0.23651,0.23651 0.23653,0.76693 0,1.00345 -0.23651,0.23652 -0.76692,-0.23652 -1.00343,0 -0.23652,0.23652 0.23651,0.76693 0,1.00346 -0.23652,0.2365 -0.76692,-0.23653 -1.00348,0 -0.23648,0.2365 0.14959,0.7043 0,1.00345 -0.21154,0.42312 -0.7919,0.58037 -1.00344,1.00346 -0.14959,0.29918 0.23651,0.76694 0,1.00346 -0.23652,0.23651 -0.76696,-0.23652 -1.00344,0 -0.47303,0.47305 0.29914,1.40856 0,2.00692 -0.21159,0.4231 -0.79193,0.58036 -1.00349,1.00345 -0.14958,0.29918 0.23652,0.76694 0,1.00345 -0.2365,0.23651 -0.76693,-0.23651 -1.00343,0 -0.23652,0.23651 0.2365,0.76694 0,1.00347 -0.23652,0.2365 -0.76693,-0.23653 -1.00349,0 -0.23651,0.2365 0.23656,0.76692 0,1.00345 -0.23651,0.23651 -0.76692,-0.23653 -1.00344,0 -0.23652,0.23651 0.23652,0.76695 0,1.00345 -0.50171,0.50173 -2.50864,-0.50172 -3.01036,0 -0.23652,0.23653 0.23651,0.76694 0,1.00345 -0.0323,0.0322 -2.767,0 -3.01041,0 -1.67238,0 -3.34481,0 -5.01724,0 -0.69373,0 -3.73509,0 -2.00692,0 0.66895,0 2.67587,0 2.00692,0 -1.00348,0 -2.00692,0 -3.01037,0 -0.33448,0 -1.00347,0.3345 -1.00347,0 0,-0.33447 1.33793,0 1.00347,0 -0.66898,0 -1.33796,0 -2.00691,0 -0.3345,0 -1.00348,0.3345 -1.00348,0 0,-1.42155 4.68279,2.84315 -1.00344,0 -0.59836,-0.29917 0.47302,-1.53387 0,-2.0069 -0.23651,-0.23653 -0.76693,0.23651 -1.00345,0 -0.23651,-0.23653 0.23652,-0.76695 0,-1.00345 -0.23651,-0.23653 -0.76696,0.2365 -1.00348,0 -0.47302,-0.47303 0.47303,-1.5339 0,-2.00692 -0.23651,-0.23651 -0.76692,0.23652 -1.00344,0 -0.23651,-0.23651 0,-0.66898 0,-1.00345 -0.33448,0 -0.76693,0.23651 -1.00348,0 -0.98985,-0.9899 2.05619,-2.00692 -1.00344,-2.00692 -2.67587,0 -5.35177,0 -8.02764,0 -0.3345,0 -0.66899,0 -1.00348,0 -0.33446,0 -0.76693,-0.23652 -1.00345,0 -0.23651,0.23651 0.23652,0.76693 0,1.00346 -0.23651,0.23651 -0.76693,-0.23653 -1.00348,0 -0.23647,0.23651 0.23655,0.76693 0,1.00346 -0.23647,0.23651 -0.76692,-0.23653 -1.00344,0 -0.23651,0.23651 0.23652,0.76694 0,1.00345 -0.23651,0.23652 -0.76693,-0.23651 -1.00344,0 -0.23652,0.23652 0.23651,0.76694 0,1.00345 -0.23652,0.23651 -0.76696,-0.23651 -1.00344,0 -0.23655,0.23651 0.23648,0.76694 0,1.00347 -0.23655,0.2365 -0.76696,-0.23653 -1.00347,0 -0.23653,0.2365 0.23651,0.76692 0,1.00345 -0.23653,0.23651 -0.76693,-0.23653 -1.00349,0 -0.23648,0.23651 0.23656,0.76695 0,1.00345 -0.47303,0.47303 -1.53385,-0.47303 -2.00688,0 -0.23652,0.23653 0.23651,0.76694 0,1.00345 -0.23652,0.23653 -0.76697,-0.23651 -1.00345,0 -0.23655,0.23653 0.23648,0.76695 0,1.00348 -0.23655,0.2365 -1.00347,0.33447 -1.00347,0 0,-0.47305 1.4765,-1.00348 1.00347,-1.00348 -1.05776,0 -2.26245,1.7514 -3.01039,1.00348 -0.23652,-0.23653 0.23655,-0.76695 0,-1.00348 -0.23652,-0.23651 -0.76693,0.23653 -1.00344,0 -0.23652,-0.23651 0.23651,-0.76692 0,-1.00345 -0.23652,-0.2365 -0.76697,0.23653 -1.00345,0 -0.23655,-0.2365 0.23648,-0.76694 0,-1.00345 -0.47307,-0.47303 -1.53389,0.47303 -2.00692,0 -0.23652,-0.23653 0.23652,-0.76695 0,-1.00345 -0.0323,-0.0322 -2.76704,0 -3.01037,0 -2.6759,0 0.33446,-0.3345 -1.00347,1.00345 -0.50173,0.50173 -2.50864,-0.50173 -3.01037,0 -0.23651,0.23651 0.23652,0.76695 0,1.00345 -0.23651,0.23653 -0.66898,0 -1.00347,0 -0.33446,0 -0.76693,0.23653 -1.00345,0 -0.23652,-0.2365 0.23652,-0.76694 0,-1.00345 -0.23652,-0.23653 -0.76692,0.23651 -1.00344,0 -0.23651,-0.23653 0.23652,-0.76695 0,-1.00345 -0.23651,-0.23653 -0.76696,0.2365 -1.00344,0 -0.47304,-0.47303 0.47304,-1.5339 0,-2.00692 -0.23656,-0.23651 -0.76696,0.23652 -1.00348,0 -0.23651,-0.23651 0,-0.66898 0,-1.00345 -0.3345,0 -0.76693,0.23651 -1.00344,0 -0.23651,-0.23653 0.23651,-0.76695 0,-1.00346 -0.47306,-0.47303 -1.53389,0.47303 -2.00693,0 -0.23651,-0.23653 0.23652,-0.76695 0,-1.00346 -0.23651,-0.23652 -0.66898,0 -1.00343,0 -0.3345,0 -1.33798,0 -1.00349,0 0.66899,0 2.67587,0 2.00692,0 -1.00343,0 -2.00692,0 -3.01035,0 -0.33449,0 -0.66899,0 -1.00348,0 -0.33451,0 -0.70427,0.14958 -1.00345,0 -0.42309,-0.21155 -0.58034,-0.79191 -1.00343,-1.00346 -0.3054,-0.15269 -2.55848,0 -3.01041,0 -0.33449,0 -0.76693,-0.23651 -1.00344,0 -0.23652,0.23651 0.23651,0.76694 0,1.00346 -0.47304,0.47305 -1.53389,-0.47304 -2.00692,0 0,2.67587 0.33449,-0.33448 -1.00344,1.00346 -0.23652,0.23651 0.14958,0.70429 0,1.00346 -0.21155,0.4231 -0.79194,0.58036 -1.00349,1.00345 -0.14959,0.29918 0.23652,0.76694 0,1.00345 -0.23651,0.23651 -0.76692,-0.23651 -1.00344,0 -0.47303,0.47305 0.47304,1.53389 0,2.00692 -0.23652,0.23651 -0.76692,-0.23653 -1.00348,0 -0.47303,0.47303 0.47307,1.53388 0,2.0069 -0.23648,0.23653 -0.76692,-0.23651 -1.00343,0 -0.47304,0.47303 0.47303,1.5339 0,2.00693 -0.23652,0.23651 -0.76693,-0.23652 -1.00345,0 -0.23652,0.23651 0.23652,0.76692 0,1.00345 -0.23652,0.23652 -0.76696,-0.23653 -1.00344,0 -0.23655,0.23652 0.23648,0.76695 0,1.00345 -0.0323,0.0322 -2.76704,0 -3.0104,0 -0.33449,0 -0.76692,0.23653 -1.00344,0 -0.23653,-0.2365 0.23652,-0.76693 0,-1.00345 -0.24147,-0.24145 -3.77238,0.24146 -4.01384,0 -0.23648,-0.23653 0.23655,-0.76694 0,-1.00345 -0.24143,-0.24148 -3.77235,0.24146 -4.01381,0 -0.23651,-0.23652 0.23652,-0.76695 0,-1.00345 -0.23651,-0.23653 -0.66899,0 -1.00348,0 -0.33445,0 -0.66895,0 -1.00344,0 -0.3345,0 -1.33794,0 -1.00344,0 1.5897,0 3.9079,0.29916 0,-1.00348 -0.63465,-0.21155 -1.40856,0.29919 -2.00693,0 -0.42309,-0.21155 -0.58039,-0.79191 -1.00344,-1.00345 -0.29922,-0.14959 -0.66898,0 -1.00348,0 -0.33449,-0.33449 -0.58035,-0.7919 -1.00347,-1.00345 -0.29915,-0.14959 -0.76693,0.23651 -1.00345,0 -0.23651,-0.23653 0.23652,-0.76695 0,-1.00345 -0.23651,-0.23653 -0.66895,0 -1.00344,0 0,-0.3345 0.23652,-0.76696 0,-1.00347 -0.23651,-0.23651 -0.7043,0.14958 -1.00343,0 -0.42314,-0.21155 -0.58039,-0.79191 -1.0035,-1.00345 -0.29916,-0.14958 -0.76692,0.23652 -1.00343,0 -0.23652,-0.23651 0.23651,-0.76694 0,-1.00345 -0.23652,-0.23653 -0.76693,0.23651 -1.00348,0 -0.23649,-0.23653 0.23655,-0.76695 0,-1.00346 -0.23649,-0.23653 -0.76693,0.23651 -1.00344,0 -0.23652,-0.23653 0.23651,-0.76695 0,-1.00346 -0.47304,-0.47304 -1.53389,0.47305 -2.00693,0 -0.23652,-0.23652 0.23651,-0.76695 0,-1.00346 -0.23652,-0.23651 -0.76693,0.23651 -1.00344,0 -0.23652,-0.23651 0.23651,-0.76693 0,-1.00346 -0.23652,-0.2365 -0.7043,0.1496 -1.00348,0 -0.42305,-0.21153 -0.53041,-1.00345 -1.00344,-1.00345 -0.3345,0 0,0.66896 0,1.00345 0,1.33795 0,2.67589 0,4.01384 0,1.33793 0,2.67587 0,4.01382 0,0.33449 0,0.66896 0,1.00345 0,0.33449 0.33449,1.00345 0,1.00345 -0.3345,0 -0.14959,-0.70427 0,-1.00345 1.24,-2.47993 1.00344,0.34638 1.00344,-2.0069 -1.33794,0.66896 -2.73113,1.23729 -4.0138,2.0069 -0.40564,0.24337 -0.58035,0.7919 -1.00348,1.00345 -0.29914,0.14959 -0.76693,-0.23651 -1.00345,0 -0.23652,0.23653 0.23652,0.76695 0,1.00348 -0.23652,0.2365 -0.66899,0 -1.00344,0 -0.33449,0 -0.66898,0 -1.00347,0 -0.33445,0 -1.00345,0.33447 -1.00345,0 0,-0.33449 1.33794,0 1.00345,0 -0.66896,0 -1.33795,0 -2.00689,0 -0.33449,0 -0.76696,0.2365 -1.00348,0 -0.23651,-0.23653 0.23652,-0.76695 0,-1.00348 -0.23651,-0.23651 -0.76693,0.23653 -1.00345,0 -0.2365,-0.23651 0.23652,-0.76692 0,-1.00345 -0.2365,-0.2365 -0.76696,0.23653 -1.00347,0 -0.23652,-0.2365 0.23651,-0.76694 0,-1.00345 -0.10032,-0.10035 -2.91,-0.10035 -3.01036,0 -0.23651,0.23651 0.23652,0.76695 0,1.00345 -0.23651,0.23653 -0.70426,-0.14959 -1.00344,0 -0.42309,0.21154 -0.58035,0.7919 -1.00349,1.00345 -0.80276,0.4014 -2.20755,-0.40138 -3.01035,0 -0.4231,0.21157 -0.58036,0.79191 -1.00344,1.00348 -0.39787,0.19891 -2.80523,-0.20517 -3.01037,0 -0.23652,0.2365 0.23651,0.76693 0,1.00345 -0.0404,0.0404 -3.64534,0 -4.01384,0 -0.33449,0 -0.76693,0.23651 -1.00344,0 0,-2.67589 0.33445,0.33447 -1.00349,-1.00345 -0.23651,-0.23653 0.23652,-0.76695 0,-1.00348 -0.33296,-0.33296 -1.67391,0.33299 -2.00688,0 -0.23655,-0.23651 0.23652,-0.76692 0,-1.00345 -0.23655,-0.2365 -0.76696,0.23653 -1.00348,0 -0.23651,-0.2365 0.23652,-0.76694 0,-1.00345 -0.23651,-0.23653 -0.76692,0.23651 -1.00344,0 -0.23651,-0.23653 0.23652,-0.76695 0,-1.00345 -0.23651,-0.23653 -0.76693,0.2365 -1.00348,0 -0.23652,-0.23653 0.23655,-0.76696 0,-1.00347 -0.23652,-0.23651 -0.76693,0.23651 -1.00344,0 -0.23651,-0.23651 0.23651,-0.76693 0,-1.00345 -0.23651,-0.23651 -0.76696,0.23652 -1.00344,0 -0.23655,-0.23651 0.23648,-0.76694 0,-1.00345 -0.23655,-0.23653 -0.76697,0.23651 -1.00348,0 -0.23652,-0.23653 0.23651,-0.76695 0,-1.00346 -0.23652,-0.23653 -0.70427,0.14959 -1.00344,0 -3.32804,-3.32806 0.94606,0.47303 -2.00693,-1.00346 -0.42309,-0.21155 -0.58034,-0.79191 -1.00343,-1.00346 -0.29919,-0.14958 -0.76697,0.23651 -1.00348,0 -0.23652,-0.23651 0.23651,-0.76693 0,-1.00346 -0.47304,-0.47303 -1.5339,0.47304 -2.00692,0 -0.23648,-0.2365 0.23655,-0.76695 0,-1.00345 -0.50173,-0.50172 -2.508613,0.50172 -3.010329,0 -0.236553,-0.23653 0.236476,-0.76694 0,-1.00346 -0.236553,-0.23652 -0.668993,0 -1.003485,0 -0.334492,0 -0.668985,0 -1.003439,0 -1.672469,0 -3.344854,0 -5.017285,0 -0.334493,0 -0.766962,-0.23652 -1.003477,0 -0.236515,0.23652 0.236515,0.76693 0,1.00346 -0.236515,0.2365 -0.766932,-0.23653 -1.003447,0 -0.236515,0.2365 0.236515,0.76695 0,1.00345 -0.236515,0.23653 -0.766924,-0.2365 -1.003477,0 -0.236476,0.23653 0.236553,0.76695 0,1.00346 -0.236476,0.23651 -0.766924,-0.23651 -1.003438,0 -0.236515,0.23651 0.236514,0.76694 0,1.00346 -0.236515,0.23651 -0.704302,-0.14959 -1.003447,0 -0.423132,0.21154 -0.580382,0.79192 -1.003477,1.00346 -0.299183,0.14959 -0.766924,-0.23653 -1.003438,0 -0.236523,0.23651 0.236514,0.76693 0,1.00346 -0.335091,0.33509 -1.671833,-0.3351 -2.006924,0 -0.236515,0.23651 0.236515,0.76694 0,1.00345 -0.501723,0.50172 -2.508646,-0.50174 -3.010362,0 -0.236515,0.23652 0.236515,0.76694 0,1.00345 -0.236515,0.23651 -0.668993,0 -1.003485,0 -0.334454,0 -1.003439,0.33449 -1.003439,0 0,-0.33447 1.337931,0 1.003439,0 -0.668946,0 -1.337931,0 -2.006877,0 -0.471474,0 -4.284038,0 -2.006924,0 5.878876,0 -2.921537,0 -4.013847,0 -0.471427,0 -4.283992,0 -2.006877,0 6.724949,0 -4.988224,-0.0291 -5.017286,0 -0.236514,0.23651 0.236515,0.76694 0,1.00347 -0.473029,0.47303 -1.533893,-0.47303 -2.006923,0 -0.236515,0.2365 0.236515,0.76692 0,1.00345 -0.236515,0.23651 -0.704263,-0.14959 -1.003477,0 -0.423056,0.21155 -0.580352,0.79191 -1.003447,1.00345 -0.299137,0.1496 -0.766923,-0.2365 -1.003438,0 -0.236515,0.23653 0.236515,0.76694 0,1.00345 -0.236515,0.23653 -0.704302,-0.14956 -1.003439,0 -0.423133,0.21157 -0.58039,0.79191 -1.003485,1.00348 -0.59832,0.29916 -1.533886,-0.47305 -2.006915,0 -0.236523,0.2365 0.236515,0.76693 0,1.00345 -0.03235,0.0322 -2.767002,0 -3.01037,0 -0.334493,0 -1.337931,0 -1.003439,0 0.668946,0 2.67587,0 2.006924,0 -1.337978,0 -2.675909,0 -4.013847,0 -0.334493,0 -1.337931,0 -1.003477,0 0.668984,0 2.675908,0 2.006923,0 -1.003446,0 -2.006923,0 -3.010362,0 -0.243368,0 -2.978103,0.0322 -3.010369,0 -1.337932,-1.33794 1.67243,-1.00345 -1.003478,-1.00345 -0.471427,0 -4.283992,0 -2.006884,0 0.668953,0 2.67587,0 2.006884,0 -9.365578,0 -1.003438,1.00345 -3.010324,-1.00348 -0.334791,-0.33475 -1.67217,0.33478 -2.006962,0 -0.236476,-0.23651 0.236554,-0.76692 0,-1.00345 -0.236476,-0.2365 -0.766923,0.23653 -1.003438,0 -0.236515,-0.2365 0.236515,-0.76694 0,-1.00345 -0.236515,-0.23653 -0.766924,0.23651 -1.003439,0 -0.236523,-0.23653 -0.334499,-1.00345 0,-1.00345 0.334493,0 0.334493,1.00345 0,1.00345 -0.901743,0 -1.387283,-2.00692 -1.003446,-2.00692 0.334454,0 0,0.66897 0,1.00347 0.668947,-1.00345 1.337939,-2.00692 2.006885,-3.01037 0,-0.3345 -0.149592,-0.70429 0,-1.00346 0.211547,-0.4231 0.79193,-0.58037 1.003438,-1.00346 0.198976,-0.39787 -0.205107,-2.80523 0,-3.01037 0.236554,-0.23653 0.766971,0.2365 1.003485,0 0.335083,-0.3351 -0.335089,-1.67181 0,-2.00691 0.236515,-0.23651 0.766924,0.23651 1.003477,0 0.236477,-0.23651 -0.236553,-0.76694 0,-1.00346 0.236477,-0.23651 0.766924,0.23652 1.00344,0 0.236515,-0.23651 -0.236516,-0.76693 0,-1.00346 0.236515,-0.23652 0.766931,0.23653 1.003446,0 0.236514,-0.23652 -0.236515,-0.76695 0,-1.00345 0.236514,-0.23652 0.766962,0.2365 1.003438,0 0.236554,-0.23652 -0.236476,-0.76694 0,-1.00346 0.236554,-0.23651 0.766963,0.23652 1.003478,0 0.236522,-0.23651 -0.149585,-0.70428 0,-1.00346 0.423094,-0.84619 1.583829,-1.16072 2.006923,-2.00691 0.891961,-1.78392 -0.5575,-0.55747 -1.003477,-1.00345 -0.236515,-0.23652 0.236514,-0.76694 0,-1.00345 -1.337938,-1.33795 -1.003446,1.67242 -1.003446,-1.00347 0,-2.34139 0,-4.68279 0,-7.02418 0,-0.3345 -0.236515,-0.76695 0,-1.00346 1.337938,-1.33794 1.003446,1.67241 1.003446,-1.00347 0,-0.33447 0.236514,-0.76694 0,-1.00345 -0.236515,-0.23651 -0.668947,0 -1.003446,0 -0.334492,0 -1.337932,0 -1.003478,0 0.668986,0 2.006924,0.66898 2.006924,0 0,-2.76318 -2.290285,-0.28338 -3.010362,-1.00346 -0.236515,-0.23652 0.236514,-0.76695 0,-1.00344 -0.236515,-0.23654 -0.766931,0.23649 -1.003446,0 -0.236516,-0.23654 0.236515,-0.76695 0,-1.00346 -0.236516,-0.23653 -0.766963,0.23651 -1.00344,0 -0.236553,-0.23653 0.149554,-0.70429 0,-1.00347 -2.088082,-4.17614 0.06922,1.07274 -2.006962,-1.00346 -0.236476,-0.2365 0.236554,-0.76694 0,-1.00345 -0.236476,-0.23652 -0.766923,0.23651 -1.003438,0 -0.236515,-0.23652 0.236515,-0.76695 0,-1.00345 -0.236515,-0.23652 -0.766924,0.2365 -1.003439,0 -0.236523,-0.23652 0.236515,-0.76695 0,-1.00347 -0.236523,-0.2365 -0.704301,0.1496 -1.003446,0 -0.423132,-0.21154 -0.580382,-0.79192 -1.003477,-1.00345 -0.299184,-0.1496 -0.766931,0.23652 -1.003446,0 -0.47303,-0.47304 0.473038,-1.53387 0,-2.00692 -0.236516,-0.23651 -0.766924,0.23651 -1.003478,0 -0.236514,-0.23651 0,-0.66897 0,-1.00344 0,-2.34141 0,-4.68281 0,-7.02421 0,-0.33449 0,-0.66896 0,-1.00345 0,-0.3345 -0.236514,-0.76695 0,-1.00345 0.236554,-0.23653 0.766962,0.2365 1.003478,0 0.473038,-0.47305 -0.47303,-1.53389 0,-2.00693 0.236515,-0.2365 0.766931,0.23652 1.003446,0 0.334753,-0.33477 -0.334753,-1.67215 0,-2.0069 0.236515,-0.23652 0.766924,0.23651 1.003477,0 0.236477,-0.23652 -0.236553,-0.76695 0,-1.00345 0.236477,-0.23653 0.766923,0.2365 1.003446,0 0.236515,-0.23653 -0.236523,-0.76695 0,-1.00347 0.236515,-0.23651 0.766924,0.23652 1.003439,0 0.236515,-0.23651 -0.236515,-0.76694 0,-1.00345 0.236515,-0.23651 0.766962,0.23651 1.003438,0 0.236554,-0.23651 0,-0.66897 0,-1.00346 0,-0.33449 0,-0.66899 0,-1.00346 0,-1.00346 0,-2.00691 0,-3.01036 0,-0.33449 0,-1.33795 0,-1.00346 0,0.66897 0,2.67589 0,2.00691 0,-1.00345 0.317345,-2.05841 0,-3.01037 -0.10575,-0.31731 -0.766923,0.23651 -1.003438,0 -0.236515,-0.23651 0,-0.66897 0,-1.00346 0,-0.36851 -0.04039,-3.97345 0,-4.01381 0.236515,-0.23652 0.766962,0.23651 1.003438,0 0.236554,-0.23652 -0.236476,-0.76694 0,-1.00347 0.236554,-0.23651 0.766971,0.23653 1.003485,0 0.236515,-0.23651 -0.236514,-0.76693 0,-1.00346 0.236515,-0.2365 0.766924,0.23653 1.003477,0 0.236477,-0.2365 -0.236553,-0.76694 0,-1.00345 0.236477,-0.23652 0.704264,0.14959 1.00344,0 0.423094,-0.21154 0.580352,-0.7919 1.003446,-1.00345 0.299176,-0.14959 0.766962,0.23651 1.003438,0 0.236554,-0.23652 -0.236476,-0.76695 0,-1.00347 0.236554,-0.23651 0.766963,0.23652 1.003478,0 0.236522,-0.23651 -0.236515,-0.76693 0,-1.00346 2.076177,-2.07617 -0.08115,3.1727 2.006923,-1.00345 0.149591,-0.29916 -0.236553,-0.76693 0,-1.00344 0.236515,-0.23654 0.766932,0.23651 1.003446,0 0.236515,-0.23654 -0.236514,-0.76695 0,-1.00346 0.236515,-0.23652 0.766962,0.23651 1.003439,0 0.501762,-0.50174 -0.501723,-2.50866 0,-3.01037 0.236554,-0.23653 0.766962,0.2365 1.003477,0 0.47303,-0.47304 -0.299176,-1.40858 0,-2.00693 0.211547,-0.42309 0.791899,-0.58035 1.003446,-1.00345 0.149585,-0.29917 -0.236515,-0.76693 0,-1.00346 0.501716,-0.50173 2.508639,0.50173 3.010401,0 0.236476,-0.23652 -0.236553,-0.76695 0,-1.00344 0.501715,-0.50173 2.5086,0.50171 3.010362,0 0.236514,-0.23654 -0.236515,-0.76695 0,-1.00346 0.501723,-0.50173 2.508639,0.50173 3.010362,0 0.236515,-0.23653 -0.236515,-0.76695 0,-1.00346 0.236515,-0.23651 0.704301,0.14958 1.003438,0 0.423095,-0.21155 0.580391,-0.79192 1.003447,-1.00346 0.299214,-0.14959 0.766962,0.23652 1.003477,0 0.236515,-0.23651 -0.236515,-0.76693 0,-1.00346 0.47303,-0.47303 1.533894,0.47304 2.006923,0 0.236515,-0.23652 -0.236514,-0.76695 0,-1.00344 0.332967,-0.333 1.673919,0.33296 2.006886,0 0.473029,-0.47304 -0.473038,-1.5339 0,-2.00693 0.236553,-0.23651 0.766962,0.23652 1.003476,0 0.236515,-0.23651 -0.149591,-0.70427 0,-1.00346 0.211548,-0.42307 0.791893,-0.58036 1.003439,-1.00345 0.299184,-0.59835 -0.473029,-1.53388 0,-2.00692 0.236516,-0.2365 0.766932,0.23653 1.003485,0 0.236515,-0.2365 -0.149592,-0.70427 0,-1.00345 0.211548,-0.42309 0.791891,-0.58036 1.003439,-1.00346 0.149591,-0.29916 -0.236515,-0.76694 0,-1.00345 0.236514,-0.23652 0.766924,0.23651 1.003438,0 0.236523,-0.23652 -0.149545,-0.70428 0,-1.00345 0.211586,-0.42309 0.791938,-0.58037 1.003485,-1.00347 0.149585,-0.29916 -0.236514,-0.76693 0,-1.00345 0.332967,-0.33298 1.673949,0.33297 2.006916,0 0.236515,-0.23651 -0.236515,-0.76694 0,-1.00346 0.501723,-0.50172 2.508647,0.50173 3.01037,0 0.236515,-0.23651 -0.236523,-0.76694 0,-1.00344 0.236515,-0.23653 0.704293,0.14957 1.003438,0 0.423095,-0.21157 0.580383,-0.79192 1.003439,-1.00348 0.299222,-0.14957 0.76697,0.23653 1.003485,0 0.236515,-0.23651 -0.236515,-0.76693 0,-1.00346 0.236515,-0.2365 0.766924,0.23653 1.003477,0 0.236476,-0.2365 -0.236553,-0.76693 0,-1.00344 0.332966,-0.33298 1.673918,0.33296 2.006885,0 0.236515,-0.23653 -0.236515,-0.76694 0,-1.00346 0.205146,-0.20514 2.612496,0.19894 3.010362,0 0.423095,-0.21154 0.580345,-0.79191 1.003477,-1.00344 0.397828,-0.19894 2.805216,0.20513 3.010362,0 0.236515,-0.23654 -0.236515,-0.76695 0,-1.00348 0.236515,-0.23651 0.668955,0 1.003447,0 0.334492,0 0.766924,-0.23651 1.003477,0 2.353244,2.3533 -3.091559,0 -1.003477,0 0.747943,0 1.297371,0.76694 2.006915,1.00348 0.317306,0.10576 0.766932,-0.23654 1.003447,0 0.236515,0.2365 -0.236515,0.76692 0,1.00344 0.473068,0.47303 1.533886,-0.47303 2.006924,0 0.236514,0.23652 -0.236515,0.76693 0,1.00346 0.236514,0.23651 0.668984,0 1.003476,0 0.334454,0 0.668947,0 1.003439,0 2.675874,0 -0.334492,-0.33449 1.003485,1.00344 0.04546,0.0454 4.544139,0 5.017249,0 0.33449,0 0.76696,0.23653 1.00348,0 0.23651,-0.2365 -0.23652,-0.76693 0,-1.00344 0.24146,-0.24146 3.77234,0.24146 4.0138,0 0.23651,-0.23653 -0.23652,-0.76694 0,-1.00346 0.47303,-0.47303 1.53389,0.47303 2.00692,0 0.23651,-0.23652 -0.23651,-0.76694 0,-1.00344 0.50172,-0.50173 2.50864,0.50171 3.01036,0 0.23652,-0.23654 -0.23651,-0.76695 0,-1.00348 0.50172,-0.50173 2.50865,0.50175 3.01036,0 0.23652,-0.23651 -0.23651,-0.76693 0,-1.00345 0.47307,-0.47304 1.40861,0.29918 2.00693,0 0.42309,-0.21154 0.58038,-0.79191 1.00347,-1.00345 0.54437,-0.27219 3.73923,0.27457 4.01381,0 0.23652,-0.23654 -0.23651,-0.76695 0,-1.00346 0.27459,-0.27457 3.46948,0.27218 4.01384,0 0.42309,-0.21153 0.58035,-0.79191 1.00345,-1.00345 0.39785,-0.19894 2.80522,0.20514 3.01036,0 0.23652,-0.23653 -0.23651,-0.76695 0,-1.00347 0.23652,-0.2365 0.66899,0 1.00348,0 0.33449,0 1.33793,0 1.00343,0 -0.66894,0 -2.67586,0 -2.00691,0 1.00348,0 2.00691,0 3.01036,0 0,-0.33447 -0.31731,-0.89768 0,-1.00345 0.95197,-0.31733 2.00692,0 3.0104,0 z"
       id="path3641"
       inkscape:connector-curvature="0" />
  </g>
</svg>
