<?xml version="1.0" encoding="UTF-8" standalone="no"?>
<!-- Created with Inkscape (http://www.inkscape.org/) -->

<svg
   xmlns:dc="http://purl.org/dc/elements/1.1/"
   xmlns:cc="http://creativecommons.org/ns#"
   xmlns:rdf="http://www.w3.org/1999/02/22-rdf-syntax-ns#"
   xmlns:svg="http://www.w3.org/2000/svg"
   xmlns="http://www.w3.org/2000/svg"
   xmlns:sodipodi="http://sodipodi.sourceforge.net/DTD/sodipodi-0.dtd"
   xmlns:inkscape="http://www.inkscape.org/namespaces/inkscape"
   width="210mm"
   height="297mm"
   viewBox="0 0 744.09448819 1052.3622047"
   id="svg3616"
   version="1.1"
   inkscape:version="0.91 r13725"
   sodipodi:docname="eastern plains mouseover line.svg">
  <defs
     id="defs3618" />
  <sodipodi:namedview
     id="base"
     pagecolor="#ffffff"
     bordercolor="#666666"
     borderopacity="1.0"
     inkscape:pageopacity="0.0"
     inkscape:pageshadow="2"
     inkscape:zoom="0.35"
     inkscape:cx="375"
     inkscape:cy="520"
     inkscape:document-units="px"
     inkscape:current-layer="layer1"
     showgrid="false"
     inkscape:window-width="1366"
     inkscape:window-height="706"
     inkscape:window-x="-8"
     inkscape:window-y="-8"
     inkscape:window-maximized="1" />
  <metadata
     id="metadata3621">
    <rdf:RDF>
      <cc:Work
         rdf:about="">
        <dc:format>image/svg+xml</dc:format>
        <dc:type
           rdf:resource="http://purl.org/dc/dcmitype/StillImage" />
        <dc:title></dc:title>
      </cc:Work>
    </rdf:RDF>
  </metadata>
  <g
     inkscape:label="Layer 1"
     inkscape:groupmode="layer"
     id="layer1">
    <path
       style="fill:none;fill-rule:evenodd;stroke:#000000;stroke-width:0.23343258px;stroke-linecap:butt;stroke-linejoin:miter;stroke-opacity:1"
       d="m 273.23532,567.10572 c 0,0.31226 -0.31224,0.93681 0,0.93681 0.3123,0 0.3123,-0.93681 0,-0.93681 -0.31224,0 -0.22082,0.71601 0,0.93681 0.22547,0.22542 3.52187,-0.22543 3.74734,0 0.22083,0.22082 -0.22082,0.71603 0,0.93683 0.4416,0.44164 1.43199,-0.44163 1.87364,0 0.22083,0.22081 -0.22082,0.71601 0,0.93684 0.22083,0.2208 0.71602,-0.22083 0.9368,0 0.22082,0.2208 -0.22078,0.716 0,0.93681 0.22082,0.22083 0.71607,-0.22081 0.93685,0 0.22082,0.22083 -0.22078,0.71603 0,0.93684 0.22082,0.2208 0.71602,-0.22081 0.93684,0 0.22083,0.2208 -0.22082,0.716 0,0.93683 0.22083,0.2208 0.65753,-0.13966 0.93685,0 0.39499,0.19751 0.5418,0.73933 0.93679,0.93683 0.27933,0.13965 0.71603,-0.22082 0.93685,0 0.22078,0.22081 -0.22082,0.71601 0,0.93681 0.4416,0.44164 1.43205,-0.44162 1.87364,0 0.22083,0.22083 -0.22082,0.71604 0,0.93684 0.22083,0.22081 0.65753,-0.13966 0.93685,0 0.39499,0.19751 0.62455,0.62455 0.9368,0.93684 0.3123,0.31226 0.73935,0.54182 0.93684,0.93681 0.13966,0.27932 0,0.62455 0,0.93684 0.31225,0 0.71603,-0.22081 0.93685,0 0.22082,0.22079 -0.22082,0.716 0,0.93683 0.22082,0.2208 0.71602,-0.22083 0.9368,0 0.22082,0.2208 -0.22078,0.716 0,0.93681 0.22082,0.22083 0.71602,-0.22081 0.93684,0 0.22083,0.22083 -0.13966,0.65753 0,0.93683 0.1975,0.39502 0.73935,0.54183 0.9368,0.93684 0.13966,0.2793 -0.22078,0.71601 0,0.93683 0.22082,0.22081 0.71607,-0.22082 0.93684,0 0.44165,0.44161 -0.27927,1.31502 0,1.87365 0.1975,0.39499 0.73935,0.54182 0.93685,0.93684 0.27927,0.5586 -0.27932,1.31504 0,1.87364 0.1975,0.39501 0.7393,0.54182 0.9368,0.93684 0.27932,0.5586 -0.27928,1.31504 0,1.87364 0.19749,0.39502 0.73935,0.54182 0.93684,0.93684 0.37473,0.74946 -0.37472,2.06102 0,2.81048 0.1975,0.39499 0.73935,0.54182 0.93685,0.93684 0.32353,0.6471 -0.32889,4.35528 0,4.68412 0.22077,0.22083 0.71597,-0.2208 0.93685,0 0.2563,0.25633 -0.25416,3.23911 0,3.74732 0.19744,0.39501 0.7393,0.54182 0.93679,0.93683 0.13967,0.27931 0,0.62455 0,0.93684 0,0.31226 0.22083,0.71601 0,0.93681 -0.22082,0.22083 -0.71602,-0.2208 -0.93679,0 -0.30561,0.30556 0.37702,4.38146 0,4.68415 0,2.85645 0.94945,0.0126 1.87364,0.93682 0.22077,0.22082 -0.22082,0.71602 0,0.93683 0.31235,0.31235 1.56129,-0.31236 1.87364,0 0.22083,0.22083 -0.22082,0.71601 0,0.93683 0.31235,0.31236 1.5613,-0.31235 1.87365,0 0.22082,0.22081 -0.22083,0.71601 0,0.93684 0.22082,0.2208 0.62454,0 0.93684,0 0.31225,0 0.62455,0 0.9368,0 2.49824,0 -0.31225,-0.31229 0.93684,0.93681 0.44165,0.44163 1.43205,-0.44161 1.87365,0 0.22082,0.22083 -0.22078,0.71603 0,0.93683 0.46845,0.46841 2.34209,-0.4684 2.81049,0 0.22082,0.22081 -0.22083,0.71601 0,0.93684 0.44165,0.44161 1.31504,-0.27932 1.87369,0 0.39494,0.19749 0.5418,0.73933 0.93681,0.93681 0.2793,0.13966 0.71601,-0.2208 0.93681,0 0.22083,0.22083 -0.2208,0.71603 0,0.93684 0.44163,0.44163 1.43204,-0.44163 1.87367,0 0.2208,0.2208 -0.22082,0.716 0,0.93683 0.46841,0.46841 2.34206,-0.46843 2.81048,0 0.22081,0.22081 -0.22083,0.71601 0,0.93683 0.31236,0.31236 1.5613,-0.31237 1.87365,0 0.22083,0.22081 -0.2208,0.71602 0,0.93682 0.31236,0.31236 1.56129,-0.31236 1.87367,0 0.2208,0.22083 -0.22082,0.71603 0,0.93683 0.31236,0.31236 1.56129,-0.31235 1.87365,0 0.2208,0.22081 -0.22081,0.71601 0,0.93684 0.2208,0.2208 0.65751,-0.13966 0.93683,0 0.39499,0.19748 0.54182,0.73932 0.93682,0.93681 0.55862,0.27932 1.43203,-0.44161 1.87366,0 0.22081,0.22083 -0.22082,0.71603 0,0.93684 0.44163,0.44163 1.31504,-0.27931 1.87365,0 0.39502,0.1975 0.54182,0.73932 0.93683,0.93683 0.55861,0.2793 1.31505,-0.27933 1.87365,0 0.39501,0.19748 0.54184,0.73933 0.93684,0.93681 0.50823,0.25412 3.49098,-0.25633 3.74731,0 1.87365,1.87367 -5.93325,0.93684 2.81049,0.93684 -0.31229,-0.31227 -0.93684,-0.49521 -0.93684,-0.93684 0,-0.62455 1.43204,0.44163 1.87367,0 0.2208,-0.2208 -0.22082,-0.71601 0,-0.93681 0.2208,-0.22083 0.71601,0.2208 0.93681,0 0.22083,-0.22083 -0.2208,-0.71603 0,-0.93683 0.22083,-0.22081 0.71603,0.2208 0.93684,0 0.2208,-0.22081 -0.22081,-0.71601 0,-0.93684 0.44163,-0.44161 1.43204,0.44163 1.87367,0 0.2208,-0.2208 -0.22083,-0.71601 0,-0.93681 0.31236,-0.31238 1.56129,0.31235 1.87364,0 0.22081,-0.22083 -0.2208,-0.71603 0,-0.93684 0.22081,-0.2208 0.71601,0.22081 0.93684,0 0.2208,-0.2208 -0.22083,-0.716 0,-0.93683 0.2208,-0.2208 0.65751,0.13966 0.93681,0 0.39502,-0.19751 0.54184,-0.73933 0.93684,-0.93682 0.2793,-0.13966 0.716,0.22081 0.93683,0 0.2208,-0.22082 -0.22083,-0.71602 0,-0.93683 0.44161,-0.44163 1.43202,0.44163 1.87365,0 0.22083,-0.22083 -0.22081,-0.71603 0,-0.93683 0.44163,-0.44163 1.43204,0.44163 1.87367,0 0.2208,-0.22081 -0.22083,-0.71601 0,-0.93684 0.4416,-0.44161 1.43201,0.44163 1.87364,0 0.22081,-0.2208 -0.2208,-0.71601 0,-0.93681 0.44164,-0.44163 1.43204,0.44161 1.87365,0 0.22083,-0.22083 -0.2208,-0.71603 0,-0.93684 0.22545,-0.22542 3.52189,0.22543 3.74732,0 0.22083,-0.2208 -0.22081,-0.716 0,-0.93683 0.22083,-0.2208 0.65753,0.13966 0.93683,0 0.395,-0.19749 0.54182,-0.73933 0.93684,-0.93681 0.2793,-0.13967 0.71601,0.2208 0.93681,0 0.22082,-0.22083 -0.2208,-0.71603 0,-0.93684 0.31268,-0.31266 1.56099,0.31267 1.87367,0 0.2208,-0.22082 -0.22083,-0.716 0,-0.93683 0.31235,-0.31236 1.56129,0.31235 1.87365,0 0.22082,-0.22081 -0.22081,-0.71601 0,-0.93683 0.22082,-0.22081 0.65753,0.13966 0.93683,0 0.39499,-0.19749 0.54182,-0.73933 0.93683,-0.93682 0.27931,-0.13966 0.71602,0.2208 0.93681,0 0.22083,-0.22083 -0.22079,-0.71603 0,-0.93683 0.22083,-0.22081 0.71604,0.2208 0.93684,0 0.22081,-0.22081 -0.2208,-0.71601 0,-0.93684 0.22081,-0.2208 0.71601,0.22083 0.93684,0 0.2208,-0.2208 -0.22083,-0.71601 0,-0.93681 0.2208,-0.22082 0.716,0.2208 0.93681,0 0.22082,-0.22082 -0.22081,-0.71603 0,-0.93684 0.22082,-0.2208 0.71603,0.22081 0.93684,0 0.2208,-0.2208 -0.22081,-0.716 0,-0.93683 0.2208,-0.2208 0.62454,0 0.93683,0 0,-0.31226 -0.22083,-0.71601 0,-0.93681 0.2208,-0.22083 0.71601,0.2208 0.93683,0 0.22081,-0.22083 -0.13966,-0.65753 0,-0.93684 0.19749,-0.39501 0.73931,-0.54182 0.93681,-0.93683 0.13967,-0.27931 -0.2208,-0.71601 0,-0.93684 0.22083,-0.2208 0.71604,0.22083 0.93684,0 0.22081,-0.2208 -0.2208,-0.71601 0,-0.93681 0.22081,-0.22082 0.71601,0.2208 0.93683,0 0.22081,-0.22082 -0.22082,-0.71603 0,-0.93683 0.22081,-0.22081 0.71601,0.2208 0.93682,0 0.22082,-0.22081 -0.22081,-0.71601 0,-0.93684 0.22082,-0.2208 0.71603,0.22083 0.93683,0 0.2208,-0.2208 -0.2208,-0.716 0,-0.93681 0.2208,-0.22083 0.71601,0.22081 0.93684,0 0.2208,-0.22083 -0.22083,-0.71603 0,-0.93684 0.2208,-0.2208 0.716,0.22081 0.93681,0 0.22083,-0.2208 -0.22081,-0.716 0,-0.93683 0.22083,-0.2208 0.71603,0.22083 0.93683,0 0.22083,-0.2208 -0.13964,-0.65751 0,-0.93683 0.62392,-1.24784 1.24973,-0.62581 1.87367,-1.87365 0.13964,-0.2793 -0.22082,-0.71601 0,-0.93684 0.22081,-0.2208 0.71601,0.22083 0.93681,0 0.22083,-0.2208 -0.2208,-0.716 0,-0.93681 0.22083,-0.22082 0.71604,0.22081 0.93684,0 0.2208,-0.22082 -0.13966,-0.65753 0,-0.93683 0.19751,-0.39502 0.62455,-0.62455 0.93684,-0.93684 0,-0.31226 -0.13967,-0.6575 0,-0.93681 0.19748,-0.39501 0.73932,-0.54184 0.93681,-0.93683 0.13966,-0.27931 -0.13964,-0.65754 0,-0.93684 0.1975,-0.39499 0.73932,-0.54182 0.93683,-0.93683 0.13967,-0.27931 -0.13966,-0.65752 0,-0.93681 0.19751,-0.39502 0.73933,-0.54185 0.93684,-0.93684 0.13964,-0.2793 -0.13967,-0.65751 0,-0.93684 0.1975,-0.39498 0.73933,-0.54181 0.93681,-0.93681 0.13966,-0.27932 -0.13964,-0.65753 0,-0.93683 0.1975,-0.39501 0.73933,-0.54182 0.93683,-0.93684 0.27931,-0.5586 -0.2793,-1.31504 0,-1.87364 0.19751,-0.39502 0.62455,-0.62455 0.93684,-0.93683 0,-0.31229 -0.13967,-0.65752 0,-0.93684 0.19751,-0.39499 0.73932,-0.54182 0.93683,-0.93681 0.2793,-0.55863 -0.44163,-1.43204 0,-1.87368 0.22081,-0.2208 0.71601,0.22083 0.93681,0 0.44164,-0.44162 -0.4416,-1.43201 0,-1.87364 0.22083,-0.22083 0.71603,0.2208 0.93684,0 0.46841,-0.46843 -0.46841,-2.34207 0,-2.81048 0.2208,-0.22083 0.71601,0.2208 0.93684,0 0.4416,-0.44163 -0.27933,-1.31504 0,-1.87367 0.19748,-0.39499 0.73932,-0.54182 0.93681,-0.93681 0.27932,-0.55863 -0.44161,-1.43204 0,-1.87367 0.22082,-0.22081 0.71603,0.22083 0.93683,0 0.44163,-0.44163 -0.2793,-1.31505 0,-1.87365 0.19751,-0.39502 0.73933,-0.54184 0.93683,-0.93683 0.13965,-0.27931 -0.22082,-0.71601 0,-0.93684 0.22081,-0.2208 0.71601,0.22083 0.93684,0 0.44161,-0.44161 -0.44163,-1.43201 0,-1.87365 0.22081,-0.2208 0.71601,0.22081 0.93681,0 0.22083,-0.2208 -0.13964,-0.65751 0,-0.93683 0.19751,-0.39499 0.73933,-0.54182 0.93684,-0.93682 0.13966,-0.27932 -0.22081,-0.71602 0,-0.93683 0.2208,-0.22083 0.71601,0.22081 0.93683,0 0.2208,-0.22083 -0.22082,-0.71603 0,-0.93683 0.2208,-0.22081 0.71601,0.2208 0.93681,0 0.22083,-0.22081 -0.13963,-0.65751 0,-0.93684 0.62395,-1.24783 1.24975,-0.62581 1.87367,-1.87364 0.13964,-0.27931 -0.22083,-0.71601 0,-0.93684 0.22081,-0.2208 0.71601,0.22083 0.93682,0 0.22082,-0.2208 -0.13965,-0.65751 0,-0.93681 0.1975,-0.39501 0.73933,-0.54184 0.93683,-0.93684 0.13966,-0.2793 -0.2208,-0.716 0,-0.93683 0.22083,-0.2208 0.71603,0.22083 0.93683,0 0.22081,-0.2208 -0.2208,-0.71601 0,-0.93683 0.22081,-0.22081 0.71602,0.22082 0.93684,0 0.2208,-0.22081 -0.13966,-0.65752 0,-0.93682 0.62415,-1.24835 1.24947,-0.62531 1.87365,-1.87367 0.13966,-0.2793 -0.22081,-0.71601 0,-0.93681 0.2208,-0.22082 0.716,0.2208 0.93683,0 0.2208,-0.22082 -0.22083,-0.71603 0,-0.93683 0.2208,-0.22081 0.71601,0.2208 0.93682,0 0.22082,-0.22081 -0.22081,-0.71601 0,-0.93684 0.22082,-0.2208 0.71602,0.22083 0.93683,0 0.22083,-0.2208 -0.22081,-0.716 0,-0.93681 0.22083,-0.22083 0.71601,0.22081 0.93683,0 0.22081,-0.22083 -0.22082,-0.71603 0,-0.93684 0.22081,-0.22082 0.65751,0.13965 0.93684,0 0.39499,-0.1975 0.54182,-0.73932 0.93681,-0.93683 0.27932,-0.13966 0.71603,0.2208 0.93683,0 0.22081,-0.22081 -0.2208,-0.71601 0,-0.93683 0.22081,-0.22081 0.71601,0.22082 0.93684,0 0.2208,-0.22081 -0.22083,-0.71602 0,-0.93681 0.2208,-0.22083 0.65751,0.13963 0.93681,0 0.39501,-0.19751 0.54184,-0.73933 0.93684,-0.93684 0.2793,-0.13966 0.716,0.2208 0.93683,0 0.22081,-0.22081 -0.22083,-0.71601 0,-0.93684 0.44163,-0.44161 1.43202,0.44164 1.87365,0 0.22083,-0.2208 -0.2208,-0.716 0,-0.93681 0.22543,-0.22545 3.52189,0.22543 3.74732,0 0.2208,-0.22082 -0.22081,-0.71603 0,-0.93684 0.29008,-0.29008 4.39406,0.29009 4.68414,0 0.22081,-0.22079 -0.22082,-0.716 0,-0.93683 0.19151,-0.19151 2.43903,0.18572 2.81049,0 0.39499,-0.1975 0.54182,-0.73933 0.93681,-0.93683 0.27932,-0.13964 0.71603,0.22083 0.93684,0 0.2208,-0.22081 -0.22081,-0.71601 0,-0.93681 0.44162,-0.44163 1.43203,0.44163 1.87364,0 0.22083,-0.22083 -0.2208,-0.71604 0,-0.93684 0.46843,-0.4684 2.34207,0.46841 2.81051,0 0.2208,-0.22081 -0.22083,-0.71601 0,-0.93683 0.2208,-0.22081 0.62455,0 0.93681,0 0.93683,0 1.87367,0 2.81048,0 0.62457,0 -1.2491,0 -1.87365,0 -0.31228,0 0.62455,0 0.93684,0 0.34403,0 3.70962,0.0377 3.74731,0 0.22081,-0.22081 -0.22082,-0.71601 0,-0.93682 0.22081,-0.22082 0.62455,0 0.93681,0 0.31229,0 0.62456,0 0.93684,0 1.56138,0 3.12277,0 4.68413,0 0.31229,0 0.62457,0 0.93683,0 0.31229,0 0.65754,0.13964 0.93684,0 0.39499,-0.19751 0.54182,-0.73932 0.93683,-0.93683 0.59101,-0.29551 4.09313,0.2955 4.68413,0 0.39502,-0.19751 0.54182,-0.73933 0.93683,-0.93684 0.58881,-0.2944 3.15849,0.29441 3.74732,0 0.39499,-0.19748 0.54182,-0.73933 0.93682,-0.93681 0.24633,-0.12318 3.25743,0 3.74731,0 1.87367,0 3.74732,0 5.62097,0 0.4219,0 2.52538,0.14254 2.8105,0 0.39499,-0.1975 0.54182,-0.73933 0.93681,-0.93683 0.28511,-0.14256 2.38858,0 2.81048,0 2.49822,0 4.99642,0 7.49464,0 4.99641,0 9.99282,0 14.98924,0 0.22722,0 2.78037,-0.0301 2.81048,0 0.22083,0.2208 -0.22081,0.716 0,0.93683 0.22083,0.22081 0.62457,0 0.93683,0 2.34904,0 4.2072,-0.0875 6.5578,0.93681 0,-2.49819 -0.31228,0.31229 0.93684,-0.93681 0.2208,-0.22083 -0.22083,-0.71603 0,-0.93683 0.2208,-0.22082 0.716,-0.22082 0.93681,0 0.22083,0.2208 -0.22081,0.716 0,0.93683 0.22083,0.22081 0.71603,-0.22083 0.93683,0 0.22083,0.22081 -0.2208,0.71601 0,0.93681 0.44163,0.44163 1.43204,-0.44161 1.87367,0 0.22081,0.22083 -0.22082,0.71604 0,0.93684 0.22081,0.2208 0.71601,-0.2208 0.93682,0 0.22082,0.2208 -0.22081,0.71601 0,0.93683 0.22082,0.22081 0.71602,-0.22082 0.93683,0 0.2208,0.22081 -0.22081,0.71601 0,0.93682 0.2208,0.22082 0.71601,-0.22081 0.93684,0 0.2208,0.22082 -0.22083,0.71602 0,0.93683 0.2208,0.2208 0.716,-0.22081 0.93681,0 0.44163,0.44163 -0.44161,1.43204 0,1.87365 0.22082,0.22083 0.71603,-0.22081 0.93683,0 0.22081,0.22083 -0.2208,0.71603 0,0.93683 0.22081,0.22083 0.71601,-0.2208 0.93683,0 0.22081,0.22083 -0.13966,0.65754 0,0.93683 0.19751,0.395 0.73933,0.54183 0.93684,0.93684 0.13964,0.2793 -0.22082,0.71601 0,0.93681 0.22081,0.22083 0.71601,-0.2208 0.93681,0 0.22083,0.22083 -0.2208,0.71603 0,0.93684 0.22083,0.2208 0.71603,-0.22081 0.93684,0 0.2208,0.2208 -0.22081,0.71601 0,0.93684 0.2208,0.22079 0.71601,-0.22083 0.93684,0 0.22079,0.22079 -0.22083,0.716 0,0.93681 0.4416,0.44163 1.43201,-0.44161 1.87364,0 0.2208,0.22082 -0.22081,0.71602 0,0.93683 0.44163,0.44163 1.43204,-0.44163 1.87365,0 0.22083,0.2208 -0.22081,0.71601 0,0.93683 0.0301,0.0301 2.58328,0 2.8105,0 0.31226,0 0.71601,0.22081 0.93681,0 0.22083,-0.22082 -0.2208,-0.71603 0,-0.93683 0.22083,-0.22081 0.62455,0 0.93684,0 1.56138,0 3.12277,0 4.68412,0 0.31229,0 0.71604,0.2208 0.93684,0 0.22083,-0.22081 -0.2208,-0.71601 0,-0.93683 0.22083,-0.22081 0.62455,0 0.93684,0 0.31226,0 0.62455,0 0.93683,0 0.2272,0 2.78035,0.0301 2.81048,0 0.22081,-0.22081 -0.22083,-0.71602 0,-0.93681 0.29009,-0.29009 4.39405,0.29008 4.68413,0 0.22083,-0.22083 -0.2208,-0.71604 0,-0.93684 0.46843,-0.46841 2.34208,0.4684 2.81048,0 0.22083,-0.22081 -0.2208,-0.71601 0,-0.93684 0.44163,-0.44161 1.31505,0.27933 1.87367,0 0.39499,-0.19748 0.54182,-0.73932 0.93681,-0.93681 0.55863,-0.27932 1.43204,0.44161 1.87367,0 0.22081,-0.22082 -0.2208,-0.71603 0,-0.93684 0.44164,-0.44162 1.43204,0.44164 1.87365,0 0.22083,-0.22079 -0.22081,-0.716 0,-0.93683 0.44163,-0.44163 1.31504,0.27931 1.87367,0 0.39499,-0.1975 0.54182,-0.73933 0.93681,-0.93683 0.55863,-0.27931 1.43204,0.44163 1.87367,0 0.22081,-0.22081 -0.22082,-0.71601 0,-0.93681 0.31236,-0.31236 1.56129,0.31235 1.87365,0 0.22082,-0.22083 -0.22081,-0.71604 0,-0.93684 0.44163,-0.44163 1.43204,0.44163 1.87367,0 0.2208,-0.22081 -0.22083,-0.71601 0,-0.93683 0.44161,-0.44161 1.31504,0.27932 1.87364,0 0.39502,-0.19749 0.54183,-0.73933 0.93684,-0.93682 0.5586,-0.27932 1.43201,0.44161 1.87364,0 0.22083,-0.22082 -0.2208,-0.71603 0,-0.93683 0.46844,-0.46841 2.34208,0.4684 2.81049,0 0.22082,-0.2208 -0.22081,-0.71601 0,-0.93684 0.44163,-0.44161 1.43204,0.44163 1.87367,0 0.2208,-0.2208 -0.22083,-0.716 0,-0.93681 0.4684,-0.46843 2.34205,0.46841 2.81048,0 0.2208,-0.22083 -0.22083,-0.71603 0,-0.93683 0.4684,-0.46842 2.34208,0.4684 2.81048,0 0.2208,-0.22082 -0.22081,-0.71601 0,-0.93683 0.46841,-0.46841 2.34208,0.46841 2.81048,0 0.22081,-0.2208 -0.2208,-0.71601 0,-0.93684 0.44163,-0.4416 1.31504,0.27933 1.87365,0 0.39502,-0.19748 0.54184,-0.73932 0.93683,-0.93681 0.37144,-0.18572 2.61898,0.19151 2.81049,0 0.22082,-0.22082 -0.22081,-0.71603 0,-0.93683 0.32886,-0.32884 4.03705,0.32356 4.68415,0 0.39499,-0.19751 0.54182,-0.73933 0.93683,-0.93684 0.2793,-0.13964 0.62455,0 0.93681,0 0.31229,0 0.62455,0 0.93684,0 0.93683,0 1.87365,0 2.81048,0 0.62455,0 -1.2491,0 -1.87365,0 -0.31228,0 0.62455,0 0.93682,0 0.31228,0 0.62454,0 0.93683,0 0.31229,0 0.65753,0.13967 0.93683,0 0.395,-0.19748 0.54183,-0.73933 0.93681,-0.93681 0.55863,-0.27933 1.31505,0.2793 1.87368,0 0.39499,-0.1975 0.54182,-0.73933 0.93683,-0.93683 0.37144,-0.18572 2.61895,0.19151 2.81048,0 0.22081,-0.22081 -0.22083,-0.71601 0,-0.93684 0.22081,-0.2208 0.62455,0 0.93681,0 0.31229,0 0.62458,0 0.93684,0 1.56139,0 3.12277,0 4.68415,0 0.31226,0 0.62455,0 0.93681,0 0.31229,0 0.65754,0.13966 0.93684,0 0.39499,-0.19751 0.54182,-0.73932 0.93683,-0.93683 0.28511,-0.14254 2.38858,0 2.81048,0 2.18594,0 4.37187,0 6.5578,0 0.31226,0 0.62455,0 0.93684,0 0.31226,0 0.716,0.22082 0.93681,0 0.22082,-0.22081 -0.22081,-0.71601 0,-0.93681 0.32886,-0.32887 4.03703,0.32353 4.68414,0 0.39499,-0.19752 0.54185,-0.73933 0.93684,-0.93684 0.50822,-0.25412 3.49099,0.25633 3.74729,0 0.22082,-0.2208 -0.22078,-0.71601 0,-0.93684 0.19152,-0.19151 2.43903,0.18575 2.81049,0 0.39499,-0.19748 0.54185,-0.73932 0.93684,-0.93681 0.37141,-0.18572 2.61897,0.19151 2.81049,0 0.22083,-0.22082 -0.22082,-0.71603 0,-0.93683 0.2563,-0.25634 3.23907,0.25411 3.74729,0 0.39499,-0.19751 0.54185,-0.73933 0.93684,-0.93684 0.64711,-0.32353 4.3553,0.32886 4.68414,0 0.22082,-0.2208 -0.22083,-0.71601 0,-0.93681 0.31235,-0.31238 1.56129,0.31236 1.87364,0 0.22082,-0.22083 -0.22083,-0.71603 0,-0.93683 0.3124,-0.31236 1.56129,0.31235 1.87369,0 0.22078,-0.22083 -0.22082,-0.71601 0,-0.93684 0.31235,-0.31235 1.56129,0.31236 1.87365,0 0.22082,-0.2208 -0.22083,-0.71601 0,-0.93683 0.46839,-0.46841 2.34204,0.46843 2.81048,0 0.0937,-0.0937 0.0937,-2.71678 0,-2.81048 -0.46844,-0.46841 -2.34209,0.46842 -2.81048,0 -0.22083,-0.22081 0.22082,-0.71601 0,-0.93682 -0.22083,-0.22083 -0.65753,0.13965 -0.93685,0 -0.24875,-0.12437 -2.68609,-2.56175 -2.81049,-2.8105 -0.27932,-0.55861 0.44165,-1.43202 0,-1.87365 -0.22083,-0.2208 -0.71602,0.22081 -0.9368,0 -0.46839,-0.4684 0.4684,-2.34207 0,-2.81048 -0.22082,-0.2208 -0.71602,0.2208 -0.93684,0 -0.22542,-0.22543 0.22542,-3.52189 0,-3.74732 -0.22083,-0.2208 -0.71603,0.22083 -0.9368,0 -0.22082,-0.2208 0,-0.62455 0,-0.93683 0,-1.56136 0,-3.12275 0,-4.68413 0,-0.31229 0,-0.62455 0,-0.93683 0,-0.31227 -0.22082,-0.71601 0,-0.93681 0.22077,-0.22083 0.71597,0.2208 0.9368,0 0.46845,-0.46843 -0.4684,-2.34209 0,-2.81051 0.22082,-0.22081 0.71602,0.22083 0.93684,0 0.22078,-0.22081 -0.22082,-0.71601 0,-0.93681 0.22078,-0.22083 0.71597,0.2208 0.9368,0 0.22082,-0.22083 -0.22083,-0.71604 0,-0.93684 0.22082,-0.2208 0.71602,0.2208 0.93685,0 0.22082,-0.2208 -0.22083,-0.71601 0,-0.93683 0.22082,-0.22081 0.71602,0.22082 0.93684,0 0.22078,-0.22081 -0.22082,-0.71601 0,-0.93681 0.22078,-0.22083 0.71597,0.2208 0.9368,0 0.22082,-0.22083 -0.22083,-0.71604 0,-0.93684 0.22082,-0.22083 0.65752,0.13964 0.93685,0 0.39499,-0.19751 0.5418,-0.73933 0.93679,-0.93684 0.27932,-0.13963 0.71607,0.22083 0.93685,0 0.22082,-0.2208 -0.22078,-0.716 0,-0.93683 0.4684,-0.46841 2.34209,0.46843 2.81049,0 0.22082,-0.2208 -0.22083,-0.71601 0,-0.93681 0.22082,-0.22083 0.62454,0 0.93684,0 0.31225,0 0.62455,0 0.9368,0 0.22721,0 2.78037,0.0301 2.81049,0 0.22082,-0.22083 -0.22083,-0.71603 0,-0.93684 0.22547,-0.22542 3.52186,0.22543 3.74733,0 0.22083,-0.2208 -0.22082,-0.716 0,-0.93683 0.55988,-0.55986 1.87365,1.01261 1.87365,-0.93681 0,-0.31229 -0.93685,-0.31229 -0.93685,0 0,0.31226 0.71602,0.2208 0.93685,0 0.22082,-0.22083 -0.22083,-0.71604 0,-0.93684 0.22082,-0.2208 0.71602,0.2208 0.93684,0 0.4416,-0.44163 -0.44165,-1.43204 0,-1.87364 0.22078,-0.22083 0.71603,0.2208 0.9368,0 0.46845,-0.46843 -0.4684,-2.34208 0,-2.81051 0.22082,-0.2208 0.71602,0.22083 0.93685,0 0.19152,-0.19151 -0.18571,-2.43902 0,-2.81048 0.19749,-0.39499 0.73935,-0.54182 0.93684,-0.93681 0.18571,-0.37146 -0.19152,-2.61898 0,-2.81051 0.49372,-0.49373 1.17539,-0.93681 1.87365,-0.93681 0.44159,0 -0.4952,0.93681 -0.93685,0.93681 -0.31225,0 -0.22083,-0.716 0,-0.93681 0.22082,-0.22083 0.71602,0.22081 0.93685,0 0.22077,-0.22083 -0.22083,-0.71603 0,-0.93683 0.22077,-0.22081 0.71602,0.2208 0.93684,0 0.22078,-0.22081 -0.22082,-0.71601 0,-0.93684 0.31235,-0.31236 1.56129,0.31238 1.87365,0 0.22082,-0.2208 -0.22083,-0.71601 0,-0.93681 0.22082,-0.22083 0.65752,0.13964 0.93679,0 0.39499,-0.19751 0.54185,-0.73933 0.93685,-0.93683 0.27932,-0.13967 0.71602,0.2208 0.93679,0 0.22088,-0.22081 -0.22077,-0.71602 0,-0.93684 0.44165,-0.44163 1.43205,0.44163 1.8737,0 0.22082,-0.2208 -0.22083,-0.71601 0,-0.93681 0.22542,-0.22545 3.52186,0.22542 3.74733,0 0.22078,-0.22083 -0.22082,-0.71603 0,-0.93684 0.22542,-0.22542 3.52187,0.22543 3.74729,0 0.22082,-0.22082 -0.22083,-0.71603 0,-0.93683 0.4416,-0.44163 1.31504,0.2793 1.87364,0 0.39499,-0.19751 0.62455,-0.62455 0.93685,-0.93684 0.31225,0 0.65752,0.13967 0.93679,0 0.39505,-0.19748 0.54186,-0.73933 0.93685,-0.93681 0.27932,-0.13966 0.65752,0.13964 0.93685,0 0.39499,-0.1975 0.5418,-0.73933 0.93679,-0.93683 0.27933,-0.13967 0.65753,0.13966 0.93685,0 0.39499,-0.19751 0.5418,-0.73933 0.93685,-0.93684 0.27927,-0.13964 0.71602,0.22083 0.93679,0 0.22083,-0.2208 -0.22077,-0.71601 0,-0.93681 0.44165,-0.44163 1.43205,0.44161 1.8737,0 0.22077,-0.22083 -0.22083,-0.71603 0,-0.93683 0.22077,-0.22083 0.71597,0.2208 0.93679,0 0.22083,-0.22083 -0.22082,-0.71601 0,-0.93684 0.19153,-0.19151 2.43903,0.18572 2.81049,0 0.39499,-0.19751 0.54185,-0.73933 0.93685,-0.93684 0.59101,-0.2955 4.09312,0.29553 4.68413,0 0.39499,-0.19748 0.5418,-0.73932 0.93685,-0.93681 0.55859,-0.27932 1.43199,0.44161 1.87364,0 0.22077,-0.22082 -0.22083,-0.71603 0,-0.93683 0.22077,-0.22081 0.71602,0.2208 0.93685,0 0.22077,-0.22081 -0.22083,-0.71601 0,-0.93683 0.31235,-0.31236 1.56129,0.31237 1.87364,0 0.22077,-0.22081 -0.22083,-0.71602 0,-0.93682 1.59687,-1.59686 1.87364,5.34594 1.87364,-2.81048 0,-2.26196 -2.14801,5.23281 0,0.93681 0.12317,-0.24632 0,-3.25741 0,-3.74731 0,-2.81048 0,-5.62097 0,-8.43145 0,-0.2272 0.0301,-2.78034 0,-2.81048 -0.22082,-0.22081 -0.71602,0.2208 -0.93685,0 -0.4416,-0.44163 0.44165,-1.43204 0,-1.87365 -0.55987,-0.55989 -1.87364,1.01258 -1.87364,-0.93683 0,-0.31229 0.93685,0.31226 0.93685,0 0,-0.31229 -0.62455,0 -0.93685,0 -0.31225,0 -0.62455,0 -0.93679,0 -2.59426,0 0.72056,-0.93684 -1.8737,-0.93684 -0.34405,0 -3.70961,0.0377 -3.74733,0 -0.22078,-0.2208 0.22082,-0.716 0,-0.93683 -0.4684,-0.46841 -2.34204,0.46842 -2.81044,0 -0.22083,-0.22081 0.22082,-0.71601 0,-0.93681 -0.46845,-0.46843 -2.34209,0.4684 -2.81049,0 -0.22083,-0.22083 0.22082,-0.71604 0,-0.93684 -0.22083,-0.2208 -0.62455,0 -0.93685,0 -0.31225,0 -0.62455,0 -0.93679,0 -2.49825,0 0.31224,0.31229 -0.93685,-0.93683 -0.44165,-0.44161 -1.43205,0.44163 -1.87364,0 -0.22083,-0.22081 0.22077,-0.71601 0,-0.93681 -0.19153,-0.19154 -2.43908,0.18571 -2.81049,0 -0.395,-0.19751 -0.54186,-0.73933 -0.93685,-0.93684 -0.5586,-0.2793 -1.31505,0.2793 -1.87364,0 -0.395,-0.19751 -0.54186,-0.73933 -0.93685,-0.93684 -0.5586,-0.2793 -1.43204,0.44164 -1.87364,0 -0.22083,-0.2208 0.22082,-0.716 0,-0.93683 -0.31266,-0.31266 -1.56099,0.31268 -1.87364,0 -0.22083,-0.2208 0.22077,-0.71601 0,-0.93681 -0.4684,-0.46843 -2.3421,0.4684 -2.81049,0 -0.22083,-0.22083 0.22077,-0.71603 0,-0.93684 -0.46845,-0.4684 -2.3421,0.46841 -2.81049,0 -0.22083,-0.2208 0.22082,-0.716 0,-0.93683 -0.44165,-0.44161 -1.31505,0.27932 -1.8737,0 -0.39494,-0.19748 -0.5418,-0.73933 -0.93679,-0.93681 -0.5586,-0.27933 -1.43205,0.44161 -1.87364,0 -0.22083,-0.22083 0.22082,-0.71604 0,-0.93684 -0.44165,-0.44163 -1.43205,0.44163 -1.87365,0 -0.22082,-0.2208 0.22078,-0.71601 0,-0.93683 -0.44165,-0.44164 -1.43204,0.44163 -1.87369,0 -0.22083,-0.22081 0.22082,-0.71601 0,-0.93681 -0.4416,-0.44164 -1.43199,0.4416 -1.87364,0 -0.22083,-0.22083 0.22082,-0.71603 0,-0.93684 -0.44165,-0.44163 -1.31505,0.2793 -1.87365,0 -0.39504,-0.19751 -0.54185,-0.73933 -0.93684,-0.93684 -0.27928,-0.13966 -0.71602,0.22081 -0.93685,0 -0.22077,-0.2208 0.22083,-0.716 0,-0.93683 -0.22077,-0.2208 -0.71597,0.22083 -0.9368,0 -0.22082,-0.2208 0.22083,-0.71601 0,-0.93681 -0.44164,-0.44163 -1.43204,0.44161 -1.87369,0 -0.22077,-0.22083 0.22083,-0.71603 0,-0.93683 -0.4684,-0.46841 -2.34204,0.4684 -2.81044,0 -0.22082,-0.22081 0.22078,-0.71602 0,-0.93684 -0.31235,-0.31236 -1.56129,0.31235 -1.87369,0 -0.22077,-0.22081 0.22082,-0.71601 0,-0.93681 -0.4684,-0.46843 -2.34204,0.4684 -2.81049,0 -0.22077,-0.22083 0.22083,-0.71603 0,-0.93684 -0.4416,-0.44163 -1.31505,0.2793 -1.87364,0 -0.395,-0.19751 -0.5418,-0.73932 -0.93685,-0.93683 -0.5586,-0.2793 -1.43199,0.44163 -1.87364,0 -0.22083,-0.2208 0.22082,-0.71601 0,-0.93684 -0.31235,-0.31235 -1.56129,0.31238 -1.87364,0 -0.22083,-0.2208 0.22082,-0.716 0,-0.93681 -0.31235,-0.31235 -1.5613,0.31236 -1.87365,0 -0.22082,-0.22083 0.22078,-0.71603 0,-0.93683 -0.31265,-0.31267 -1.56098,0.31266 -1.87364,0 -0.22082,-0.22081 0.22077,-0.71601 0,-0.93684 -0.44165,-0.44161 -1.31505,0.27933 -1.87369,0 -0.395,-0.19748 -0.5418,-0.73933 -0.93685,-0.93681 -0.27927,-0.13966 -0.65747,0.13964 -0.9368,0 -0.39499,-0.19751 -0.54185,-0.73933 -0.93684,-0.93683 -0.27927,-0.13967 -0.65747,0.13966 -0.93685,0 -0.39494,-0.19751 -0.5418,-0.73933 -0.93679,-0.93684 -0.5586,-0.2793 -1.43205,0.44163 -1.87365,0 -0.22082,-0.2208 0.22083,-0.71601 0,-0.93681 -0.44165,-0.44164 -1.43204,0.44161 -1.87364,0 -0.22088,-0.22083 0.22077,-0.71603 0,-0.93684 -0.22547,-0.22542 -3.52192,0.22543 -3.74734,0 -0.22082,-0.22082 0,-0.62455 0,-0.93683 -1.24909,-0.31229 -2.49824,-0.62455 -3.74733,-0.93684 2.13239,-2.13233 0.68927,-0.2476 0,-0.93681 -0.22078,-0.22083 0,-0.62455 0,-0.93683 0,-0.31229 -0.22078,-0.71601 0,-0.93684 0.22082,-0.2208 0.71602,0.22083 0.93685,0 0.22082,-0.2208 0,-0.62455 0,-0.93681 0,-1.87367 0,-3.74732 0,-5.62098 0,-2.19703 -0.22083,0.44162 0.93684,-1.87365 0.13961,-0.27931 0,-0.62455 0,-0.93684 0,-0.31226 0,-0.62455 0,-0.93681 0,-1.87367 0,-3.74732 0,-5.62099 0,-0.31226 0.22078,-0.71601 0,-0.93681 -0.22082,-0.22082 -0.71602,0.2208 -0.93684,0 -0.44165,-0.44163 0.44164,-1.43204 0,-1.87367 -0.44165,-0.44163 -1.43205,0.44163 -1.87365,0 -0.22082,-0.2208 0.22083,-0.716 0,-0.93683 -0.44165,-0.44161 -1.43204,0.44163 -1.87369,0 -0.22077,-0.22081 0.22082,-0.71601 0,-0.93682 -0.4416,-0.44163 -1.315,0.27931 -1.87364,0 -0.395,-0.1975 -0.54183,-0.73932 -0.93681,-0.93683 -0.27931,-0.13966 -0.65754,0.13966 -0.93684,0 -0.39499,-0.19751 -0.54182,-0.73933 -0.93681,-0.93683 -0.55863,-0.27931 -1.43204,0.44163 -1.87368,0 -0.22079,-0.22081 0.22081,-0.71601 0,-0.93681 -0.4684,-0.46843 -2.34207,0.4684 -2.81047,0 -0.22081,-0.22083 0.2208,-0.71604 0,-0.93684 -0.22081,-0.22081 -0.71601,0.2208 -0.93684,0 -0.22081,-0.22081 0.22083,-0.71601 0,-0.93684 -0.31236,-0.31235 -1.56129,0.31236 -1.87365,0 -0.2208,-0.2208 0.22081,-0.716 0,-0.93681 -0.44163,-0.44163 -1.31504,0.2793 -1.87367,0 -0.39499,-0.19751 -0.54182,-0.73932 -0.93681,-0.93683 -0.37146,-0.18572 -2.61897,0.1915 -2.81048,0 -0.22083,-0.22083 0.2208,-0.71601 0,-0.93684 -0.22083,-0.2208 -0.65753,0.13966 -0.93683,0 -0.395,-0.1975 -0.54183,-0.73933 -0.93684,-0.93683 -0.5586,-0.27931 -1.43201,0.44163 -1.87365,0 -0.22082,-0.22081 0.22081,-0.71601 0,-0.93681 -0.46843,-0.46843 -2.34207,0.4684 -2.81048,0 -0.22083,-0.22083 0.22081,-0.71604 0,-0.93684 -0.46843,-0.4684 -2.34207,0.46841 -2.81048,0 -0.22083,-0.2208 0.2208,-0.71601 0,-0.93683 -0.46843,-0.46841 -2.34208,0.46843 -2.81051,0 -0.2208,-0.22081 0.22083,-0.71601 0,-0.93681 -0.31235,-0.31238 -1.56128,0.31235 -1.87364,0 -0.2208,-0.22083 0.2208,-0.71604 0,-0.93684 -0.19153,-0.19153 -2.43905,0.18572 -2.81048,0 -0.39499,-0.19751 -0.54182,-0.73933 -0.93684,-0.93684 -0.2793,-0.13963 -0.65751,0.13966 -0.93681,0 -0.39501,-0.1975 -0.54184,-0.73932 -0.93683,-0.93683 -0.55863,-0.2793 -1.31505,0.27933 -1.87367,0 -0.39499,-0.19748 -0.54182,-0.73931 -0.93682,-0.93681 -0.37146,-0.18572 -2.61897,0.1915 -2.81047,0 -0.22083,-0.22083 0.22079,-0.71603 0,-0.93684 -0.31239,-0.31235 -1.56132,0.31236 -1.87368,0 -0.2208,-0.2208 0.22083,-0.716 0,-0.93683 -0.2208,-0.22081 -0.65751,0.13966 -0.93683,0 -0.39499,-0.19748 -0.54182,-0.73933 -0.93682,-0.93681 -0.27929,-0.13967 -0.71602,0.2208 -0.93683,0 -0.2208,-0.22083 0.22081,-0.71604 0,-0.93684 -0.2208,-0.2208 -0.65751,0.13966 -0.93683,0 -0.39499,-0.19751 -0.54183,-0.73932 -0.93681,-0.93683 -0.27933,-0.13964 -0.71604,0.22082 -0.93684,0 -0.22081,-0.22081 0.2208,-0.71601 0,-0.93682 -0.31236,-0.31237 -1.56129,0.31236 -1.87365,0 -0.22082,-0.22082 0.22081,-0.71602 0,-0.93683 -0.22082,-0.22083 -0.62457,0 -0.93683,0 0,-0.31229 0.2208,-0.71601 0,-0.93684 -0.40764,-0.40761 -7.79025,1.42339 -4.68415,-2.81047 -2.4982,0 0.31228,0.31228 -0.93681,-0.93684 -0.44163,-0.44161 -1.43204,0.44163 -1.87368,0 -0.2208,-0.22081 0.22083,-0.71601 0,-0.93681 -0.2208,-0.22083 -0.62454,0 -0.93683,0 -1.56136,0 -3.12275,0 -4.68412,0 -3.43504,0 -6.87009,0 -10.30512,0 -0.31226,0 -0.62455,0 -0.93684,0 -0.31226,0 -0.716,-0.22083 -0.93681,0 -0.22083,0.2208 0.22081,0.716 0,0.93681 -0.29009,0.29008 -4.39406,-0.29009 -4.68415,0 -0.2208,0.22082 0.22083,0.71603 0,0.93684 -0.2208,0.2208 -0.62455,0 -0.93681,0 -1.56139,0 -3.12277,0 -4.68415,0 -3.12277,0 -6.24551,0 -9.36828,0 -0.31229,0 -0.62455,0 -0.93684,0 -0.31226,0 -0.71601,-0.22081 -0.93681,0 -0.22082,0.2208 0.2208,0.716 0,0.93683 -0.0301,0.0301 -2.58328,0 -2.8105,0 -2.19702,0 0.44162,-0.22083 -1.87365,0.93681 -0.2793,0.13966 -0.62455,0 -0.93683,0 -0.66403,0 -5.37876,-0.1211 -5.62097,0 -0.39499,0.1975 -0.54182,0.73933 -0.93683,0.93683 -0.27931,0.13967 -0.62455,0 -0.93681,0 -0.31229,0 -0.62455,0 -0.93684,0 -1.87365,0 -3.74732,0 -5.62096,0 -0.31229,0 -0.62455,0 -0.93684,0 -0.31228,0 -0.71601,0.22083 -0.93683,0 -0.22081,-0.2208 0.22082,-0.716 0,-0.93683 -0.22081,-0.2208 -0.62455,0 -0.93681,0 -0.31229,0 -0.62458,0 -0.93684,0 -3.43503,0 -6.87008,0 -10.30512,0 -0.31226,0 -0.62454,0 -0.93683,0 -0.31226,0 -0.71601,0.22083 -0.93681,0 -0.22083,-0.2208 0.2208,-0.71601 0,-0.93681 -0.22083,-0.22083 -0.62455,0 -0.93683,0 -1.56139,0 -3.12277,0 -4.68413,0 -0.31229,0 -0.71603,0.2208 -0.93684,0 -0.22083,-0.22083 0.22081,-0.71603 0,-0.93683 -0.22083,-0.22081 -0.62455,0 -0.93683,0 -0.31227,0 -0.62455,0 -0.93684,0 -0.66402,0 -5.37873,0.1211 -5.62096,0 -0.39499,-0.19751 -0.54182,-0.73933 -0.93684,-0.93684 -0.591,-0.2955 -4.09312,0.29552 -4.68412,0 -0.39502,-0.19749 -0.54182,-0.73933 -0.93684,-0.93681 -0.55861,-0.27933 -1.31504,0.2793 -1.87365,0 -0.39501,-0.19751 -0.54182,-0.73933 -0.93683,-0.93684 -0.50821,-0.25411 -3.49099,0.25633 -3.74732,0 -0.2208,-0.2208 0.22083,-0.71601 0,-0.93684 -0.2208,-0.22079 -0.62455,0 -0.93681,0 -0.31228,0 -0.62457,0 -0.93684,0 -1.87366,0 -3.74731,0 -5.62096,0 -0.31228,0 -0.71603,0.22083 -0.93683,0 -0.22081,-0.22079 0.2208,-0.716 0,-0.93683 -0.25633,-0.25633 -3.23909,0.25411 -3.74732,0 -0.39499,-0.19748 -0.54182,-0.7393 -0.93683,-0.93681 -0.24632,-0.12316 -3.25742,0 -3.7473,0 -2.8105,0 -5.62098,0 -8.43147,0 -0.9263,0 -2.93298,0.20358 -3.74731,0 -0.95801,-0.2395 -1.87365,-0.62455 -2.81048,-0.93683 0,-0.31227 0.22082,-0.71601 0,-0.93684 -0.0301,-0.0301 -2.58328,0 -2.81049,0 -0.31226,0 -0.716,0.22083 -0.93683,0 -0.2208,-0.22081 0.22083,-0.71601 0,-0.93681 -0.0301,-0.0301 -2.58326,0 -2.81048,0 -0.31226,0 -0.62455,0 -0.93681,0 -0.31229,0 -0.71603,0.2208 -0.93684,0 -0.2208,-0.22083 0.22081,-0.71603 0,-0.93683 -0.44163,-0.44164 -1.43204,0.44163 -1.87365,0 -0.22082,-0.22081 0.22081,-0.71602 0,-0.93684 -0.46842,-0.46841 -2.34207,0.46843 -2.8105,0 -0.2208,-0.2208 0.22083,-0.71601 0,-0.93681 -0.4416,-0.44164 -1.31502,0.2793 -1.87364,0 -0.395,-0.19751 -0.54183,-0.73933 -0.93684,-0.93684 -0.55861,-0.2793 -1.43202,0.44163 -1.87365,0 -0.2208,-0.22082 0.22081,-0.716 0,-0.93683 -0.44163,-0.44163 -1.31504,0.2793 -1.87367,0 -0.39499,-0.19751 -0.54182,-0.73933 -0.93681,-0.93684 -0.2793,-0.13964 -0.71603,0.22083 -0.93683,0 -0.22081,-0.2208 0.2208,-0.71601 0,-0.93681 -0.31236,-0.31236 -1.5613,0.31236 -1.87365,0 -0.22083,-0.22083 0.2208,-0.71603 0,-0.93683 -0.22083,-0.22081 -0.71603,0.2208 -0.93684,0 -0.2208,-0.22081 0.22081,-0.71601 0,-0.93684 -0.44163,-0.44161 -1.43204,0.44163 -1.87364,0 -0.22083,-0.2208 0.2208,-0.71601 0,-0.93681 -0.22083,-0.22083 -0.71603,0.2208 -0.93684,0 -0.22082,-0.22083 0.22081,-0.71603 0,-0.93684 -0.31235,-0.31235 -1.56129,0.31236 -1.87366,0 -0.22081,-0.2208 0.22082,-0.716 0,-0.93683 -0.22081,-0.2208 -0.65752,0.13966 -0.93682,0 -0.39501,-0.19751 -0.54184,-0.73933 -0.93683,-0.93681 -0.55863,-0.27933 -1.43204,0.4416 -1.87365,0 -0.22082,-0.22083 0.2208,-0.71603 0,-0.93684 -0.22082,-0.22083 -0.71603,0.22081 -0.93684,0 -0.2208,-0.22083 0.22081,-0.71603 0,-0.93683 -0.44163,-0.44164 -1.31504,0.2793 -1.87366,0 -0.395,-0.19751 -0.54183,-0.73933 -0.93682,-0.93684 -0.50822,-0.25409 -3.49098,0.25636 -3.74731,0 -0.22081,-0.2208 0.2208,-0.71601 0,-0.93681 -0.22081,-0.22083 -0.62455,0 -0.93684,0 -2.49819,0 -4.99641,0 -7.49461,0 -0.31228,0 0.93681,0.31226 0.93681,0 0,-0.31229 -0.62455,0 -0.93681,0 -0.62457,0 -1.24912,0 -1.87367,0 -0.31226,0 0.93684,0.31226 0.93684,0 0,-0.31229 -0.62455,0 -0.93684,0 -0.31226,0 -0.62454,0 -0.93683,0 -0.31227,0 -0.71601,-0.22083 -0.93681,0 -0.22083,0.2208 0.2208,0.71601 0,0.93681 -0.22083,0.22083 -0.62455,0 -0.93684,0 -0.31226,0 -0.62455,0 -0.93683,0 -0.4417,0 -4.64167,-0.0424 -4.68413,0 -0.22083,0.22083 0.2208,0.71603 0,0.93684 -0.22083,0.2208 -0.62455,0 -0.93684,0 -0.31226,0 -0.62454,0 -0.93683,0 -1.56136,0 -3.12274,0 -4.68413,0 -0.31229,0 -0.62455,0 -0.93684,0 -0.31226,0 -0.6575,-0.13967 -0.93681,0 -0.39501,0.1975 -0.54184,0.73933 -0.93683,0.93683 -0.58883,0.29441 -3.15851,-0.2944 -3.74732,0 -0.39499,0.19751 -0.54182,0.73933 -0.93684,0.93684 -0.64709,0.32353 -4.35528,-0.32886 -4.68412,0 -0.22083,0.2208 0.2208,0.71601 0,0.93681 -0.44163,0.44163 -1.31504,-0.2793 -1.87367,0 -0.39499,0.19751 -0.54182,0.73933 -0.93681,0.93683 -0.37146,0.18572 -2.61898,-0.19153 -2.81049,0 -0.22082,0.22081 0.22081,0.71601 0,0.93684 -0.46842,0.46841 -2.34207,-0.46843 -2.8105,0 -0.2208,0.2208 0.22083,0.71601 0,0.93681 -0.4684,0.46843 -2.34205,-0.4684 -2.81048,0 -0.2208,0.22083 0.22083,0.71603 0,0.93684 -0.44161,0.44163 -1.31505,-0.27931 -1.87365,0 -0.39501,0.1975 -0.54182,0.73933 -0.93683,0.93683 -0.59101,0.2955 -4.09312,-0.29552 -4.68413,0 -0.39501,0.19748 -0.54184,0.73933 -0.93684,0.93681 -0.37143,0.18575 -2.61897,-0.19151 -2.81048,0 -0.22083,0.22083 0.22081,0.71603 0,0.93684 -0.44163,0.44163 -1.31504,-0.2793 -1.87367,0 -0.39499,0.1975 -0.54182,0.73932 -0.93681,0.93683 -0.37146,0.18572 -2.61897,-0.19153 -2.81048,0 -0.22083,0.22081 0.22081,0.71601 0,0.93684 -0.31238,0.31235 -1.56131,-0.31238 -1.87367,0 -0.2208,0.2208 0.22083,0.71601 0,0.93681 -0.4684,0.46843 -2.34208,-0.46841 -2.81048,0 -0.22081,0.22082 0.2208,0.71603 0,0.93684 -0.22081,0.2208 -0.65751,-0.13967 -0.93684,0 -0.39499,0.1975 -0.54182,0.73932 -0.93681,0.93683 -0.27932,0.13964 -0.65753,-0.13966 -0.93684,0 -0.39501,0.19748 -0.54181,0.73933 -0.93683,0.93681 -0.37144,0.18574 -2.61895,-0.19151 -2.81048,0 -0.22081,0.22083 0.2208,0.71603 0,0.93684 -0.46841,0.4684 -2.34208,-0.46841 -2.81048,0 -0.22081,0.2208 0.2208,0.716 0,0.93683 -0.44163,0.44163 -1.31504,-0.2793 -1.87365,0 -0.39501,0.19751 -0.54184,0.73933 -0.93684,0.93681 -0.55862,0.27933 -1.43204,-0.44161 -1.87366,0 -0.22081,0.22083 0.22082,0.71604 0,0.93683 -0.31267,0.31267 -1.56099,-0.31265 -1.87365,0 -0.22081,0.22083 0.2208,0.71604 0,0.93684 -0.31236,0.31236 -1.56129,-0.31235 -1.87365,0 -0.22082,0.22081 0.2208,0.71601 0,0.93684 -0.46843,0.4684 -2.34208,-0.46843 -2.81048,0 -0.22084,0.2208 0.22081,0.716 0,0.93681 -0.22543,0.22542 -3.52188,-0.22543 -3.7473,0 -0.22082,0.22082 0.22077,0.71603 0,0.93684 -0.22082,0.2208 -0.62455,0 -0.93685,0 -0.34405,0 -3.70961,0.0377 -3.74733,0 -0.22078,-0.22081 0.22082,-0.71602 0,-0.93684 -0.4684,-0.46841 -2.34204,0.46843 -2.81049,0 -0.22078,-0.22081 0.22082,-0.71601 0,-0.93681 -0.22078,-0.22083 -0.65747,0.13963 -0.9368,0 -0.39499,-0.19751 -0.54185,-0.73933 -0.93684,-0.93684 -0.27933,-0.13966 -0.71603,0.22081 -0.9368,0 -0.22082,-0.2208 0.22077,-0.71601 0,-0.93684 -0.44165,-0.44162 -1.43204,0.44164 -1.87364,0 -0.22088,-0.22079 0.22077,-0.716 0,-0.93683 -0.44165,-0.44161 -1.43205,0.44163 -1.8737,0 -0.22082,-0.2208 0.22083,-0.716 0,-0.93681 -0.44165,-0.44163 -1.43204,0.44163 -1.87364,0 -0.22082,-0.22083 0.22078,-0.71603 0,-0.93683 -0.22082,-0.22081 -0.65752,0.13966 -0.93685,0 -3.89884,-1.94942 1.00153,0.0647 -0.93684,-1.87365 -0.22078,-0.22083 -0.71597,0.2208 -0.9368,0 -0.22082,-0.22083 0.22083,-0.71603 0,-0.93683 -0.22082,-0.22081 -0.71602,0.2208 -0.93684,0 -0.22078,-0.22081 0.27932,-0.79718 0,-0.93684 -5.30868,-2.65434 -0.9368,1.32718 -0.9368,0 0,-0.31226 -0.6246,0 -0.93685,0 -0.62403,0 -1.2496,0 -1.87364,0 -1.87364,0 -3.74734,0 -5.62098,0 -0.42189,0 -2.5254,-0.14256 -2.81049,0 -0.39499,0.19751 -0.54185,0.73932 -0.93684,0.93684 -0.2851,0.14255 -2.38855,0 -2.81044,0 -3.20702,0 -6.28305,0.25992 -9.36832,-0.93684 0,-0.31226 -0.22082,-0.71601 0,-0.93681 0.22083,-0.22083 0.71602,0.2208 0.93685,0 0.22082,-0.22083 0,-0.62457 0,-0.93684 0,-0.31228 0.22082,-0.716 0,-0.93683 -0.22083,-0.22081 -0.71602,0.22083 -0.93685,0 -0.22082,-0.22081 0,-0.62455 0,-0.93684 0,-0.65158 0.16942,-4.34535 0,-4.68413 -0.19749,-0.39501 -0.7393,-0.54182 -0.93684,-0.93683 -0.12313,-0.24632 0,-3.25742 0,-3.74732 0,-2.4982 0,-4.99642 0,-7.49461 0,-0.44172 0.0424,-4.64169 0,-4.68415 -1.2491,-1.2491 -0.9368,1.56138 -0.9368,-0.93681 0,-1.56139 0,-3.12277 0,-4.68415 0,-0.31229 0.22083,-0.71601 0,-0.93684 -0.22082,-0.2208 -0.71602,0.22083 -0.93685,0 -0.22082,-0.2208 0.22083,-0.716 0,-0.93681 -0.22082,-0.22083 -0.71602,0.22081 -0.93679,0 -0.22083,-0.22083 0.22077,-0.71603 0,-0.93684 -0.22083,-0.22082 -0.71602,0.22081 -0.93685,0 -1.87364,-1.87366 5.93323,-0.93683 -2.81049,-0.93683 -0.62455,0 1.2491,0 1.87364,0 0.3123,0 -0.62454,0 -0.93679,0 -1.2491,0 -2.49824,0 -3.74734,0 -0.62454,0 1.2491,0 1.87365,0 0.31229,0 -0.62455,0 -0.9368,0 -0.62348,0 -1.25022,0 -1.87369,0 -1.87365,0 -3.74729,0 -5.62093,0 -2.81049,0 -5.62098,0 -8.43147,0 -0.3123,0 -0.62455,0 -0.93685,0 -0.31224,0 -0.71602,-0.22081 -0.93684,0 -0.22078,0.22083 0.22082,0.71601 0,0.93683 -0.4684,0.46841 -2.34204,-0.4684 -2.81044,0 -0.22083,0.22081 0.22082,0.71601 0,0.93684 -0.22547,0.22543 -3.52187,-0.22545 -3.74734,0 -0.22082,0.22081 0.22083,0.71601 0,0.93681 -0.22082,0.22083 -0.62455,0 -0.93679,0 -0.34405,0 -3.70962,0.0377 -3.74734,0 -0.22082,-0.2208 0.22083,-0.716 0,-0.93681 -0.22082,-0.22083 -0.62455,0 -0.93685,0 -0.2272,0 -2.78032,-0.0301 -2.81049,0 -0.22077,0.22081 0.22083,0.71601 0,0.93681 -0.44159,0.44163 -1.43204,-0.44161 -1.87364,0 -0.22082,0.22083 0.22083,0.71603 0,0.93684 -0.22082,0.2208 -0.71602,-0.22081 -0.93679,0 -0.22083,0.2208 0.22077,0.71601 0,0.93683 -0.22083,0.2208 -0.65753,-0.13966 -0.93685,0 -0.39499,0.19749 -0.51786,0.79717 -0.93685,0.93681 -0.59249,0.19751 -1.24909,0 -1.87364,0 -0.31225,0 0.93685,0.31229 0.93685,0 0,-0.31226 -0.62455,0 -0.93685,0 -0.31225,0 -0.65752,-0.13964 -0.93685,0 -0.39499,0.19751 -0.93679,0.49521 -0.93679,0.93684 0,0.31228 0.93679,0.31228 0.93679,0 0,-0.31227 -0.62454,0 -0.93679,0 -0.3123,0 -0.62455,0 -0.93685,0 -0.3123,0 -0.71602,-0.22081 -0.93685,0 -0.22077,0.2208 0.22083,0.716 0,0.93683 -0.22077,0.22081 -0.62454,0 -0.93679,0 -0.3123,0 -0.62455,0 -0.93685,0 -1.87364,0 -3.74728,0 -5.62093,0 -0.3123,0 -0.71607,-0.22083 -0.93684,0 -0.22083,0.22081 0.22077,0.71601 0,0.93684 -0.2901,0.29006 -4.39409,-0.29009 -4.68419,0 -0.22077,0.2208 0.22083,0.71601 0,0.93681 -0.0378,0.0377 -3.40323,0 -3.74728,0 -1.56139,0 -3.12274,0 -4.68413,0 -0.31225,0 -0.62455,0 -0.93685,0 -0.31225,0 -0.65752,0.13966 -0.93679,0 -0.39505,-0.19751 -0.54186,-0.73933 -0.93685,-0.93681 -0.28509,-0.14256 -2.3886,0 -2.81049,0 -2.18594,0 -4.37188,0 -6.55778,0 -0.2272,0 -2.78037,0.0301 -2.81049,0 -0.22082,-0.22083 0.22078,-0.71603 0,-0.93684 -0.31235,-0.31235 -1.56129,0.31236 -1.87369,0 -0.22077,-0.22083 0.22082,-0.71603 0,-0.93683 -0.4416,-0.44163 -1.35394,0.34644 -1.87364,0 -5.05391,-3.3693 -0.53976,-1.4766 0,-0.93684 0.22082,0.22083 -0.65753,0.13966 -0.93685,0 -0.39499,-0.19748 -0.5418,-0.73932 -0.9368,-0.93681 -0.27932,-0.13966 -0.71602,0.2208 -0.93684,0 -0.22078,-0.22082 0.22082,-0.71603 0,-0.93683 -0.22078,-0.22081 -0.62455,0 -0.9368,0 -0.3123,0 -0.62455,0 -0.93684,0 -0.31225,0 -0.71603,0.2208 -0.9368,0 -0.22088,-0.22081 0.22077,-0.71601 0,-0.93684 -0.22088,-0.2208 -0.6246,0 -0.93685,0 -0.3123,0 -0.71602,-0.2208 -0.93684,0 -0.22083,0.22083 0.22082,0.71603 0,0.93684 -0.22083,0.2208 -0.71603,-0.22081 -0.9368,0 -0.22082,0.2208 0.22077,0.71601 0,0.93683 -0.3124,0.31236 -1.56134,-0.31238 -1.87369,0 -0.22078,0.2208 0.22082,0.71601 0,0.93681 -0.22078,0.22083 -0.71602,-0.2208 -0.9368,0 -0.22082,0.22083 0.22078,0.71603 0,0.93684 -0.44165,0.44163 -1.43204,-0.44163 -1.87369,0 -0.22078,0.2208 0.22082,0.716 0,0.93683 -0.4416,0.44163 -1.43205,-0.44163 -1.87364,0 -0.22083,0.22081 0.22082,0.71601 0,0.93684 -0.22083,0.2208 -0.71603,-0.22083 -0.93685,0 -0.22078,0.2208 0.22082,0.71601 0,0.93681 -0.22078,0.22083 -0.65747,-0.13964 -0.9368,0 -0.39499,0.19751 -0.54185,0.73933 -0.93684,0.93683 -0.27933,0.13967 -0.71603,-0.2208 -0.9368,0 -0.44165,0.44164 0.4416,1.43204 0,1.87365 -0.22082,0.22083 -0.71602,-0.2208 -0.93685,0 -0.22082,0.22083 0.22083,0.71603 0,0.93684 -0.22082,0.2208 -0.71602,-0.22081 -0.93684,0 -0.22083,0.2208 0.22082,0.716 0,0.93683 -0.22083,0.2208 -0.71603,-0.22083 -0.9368,0 -0.22082,0.2208 0.22077,0.71601 0,0.93681 -0.22082,0.22083 -0.71602,-0.2208 -0.93685,0 -0.22077,0.22083 0.22083,0.71603 0,0.93684 -0.22077,0.22083 -0.71602,-0.22081 -0.93684,0 -0.22078,0.22083 0.13966,0.65753 0,0.93683 -0.0896,0.17932 -3.56796,3.65766 -3.74729,3.74732 -0.27932,0.13964 -0.71602,-0.22083 -0.93684,0 -0.22083,0.2208 0.22082,0.71601 0,0.93681 -0.22083,0.22083 -0.71603,-0.2208 -0.9368,0 -0.22083,0.22083 0.22077,0.71603 0,0.93684 -0.22083,0.2208 -0.65752,-0.13967 -0.93685,0 -0.39499,0.1975 -0.5418,0.73933 -0.93679,0.93683 -0.27933,0.13964 -0.71608,-0.22083 -0.93685,0 -0.22082,0.22081 0.22077,0.71601 0,0.93684 -0.44165,0.4416 -1.43204,-0.44163 -1.87364,0 -0.22083,0.2208 0.22077,0.71601 0,0.93681 -0.22083,0.22083 -0.71602,-0.2208 -0.93685,0 -0.22082,0.22083 0.13966,0.65753 0,0.93683 -0.46094,0.92188 -3.28639,2.82545 -3.74733,3.74732 -0.13966,0.2793 0.22082,0.71601 0,0.93681 -0.22078,0.22083 -0.71597,-0.2208 -0.9368,0 -0.22082,0.22083 0.22083,0.71603 0,0.93684 -0.22082,0.22083 -0.71602,-0.22081 -0.93685,0 -0.22082,0.22083 0.22083,0.71601 0,0.93683 -0.22082,0.22081 -0.71602,-0.22082 -0.93679,0 -0.22083,0.22081 0.22077,0.71601 0,0.93684 -0.22083,0.2208 -0.71602,-0.22083 -0.93685,0 -0.22082,0.2208 0.13966,0.65751 0,0.93681 -0.19749,0.39501 -0.73935,0.54184 -0.93684,0.93684 -0.13967,0.27929 0.22082,0.716 0,0.93683 -0.22083,0.2208 -0.71603,-0.22083 -0.9368,0 -0.22082,0.2208 0.22077,0.716 0,0.93681 -0.22082,0.22083 -0.71607,-0.22081 -0.93685,0 -0.22082,0.22083 0.22078,0.71603 0,0.93684 -0.22082,0.2208 -0.71602,-0.22081 -0.93684,0 -0.22078,0.2208 0.22082,0.716 0,0.93683 -0.22078,0.22081 -0.71603,-0.22083 -0.9368,0 -0.22082,0.22081 0.22077,0.71601 0,0.93681 -0.22082,0.22083 -0.65752,-0.13964 -0.93685,0 -0.39499,0.19751 -0.5418,0.73933 -0.93684,0.93683 -0.27928,0.13967 -0.71597,-0.22079 -0.9368,0 -0.22082,0.22083 0.22083,0.71604 0,0.93684 -0.22082,0.22081 -0.71602,-0.2208 -0.93685,0 -0.22077,0.22081 0.22083,0.71601 0,0.93684 -0.22077,0.2208 -0.71602,-0.22083 -0.93684,0 -0.22078,0.2208 0.22082,0.716 0,0.93681 -0.22078,0.22082 -0.71597,-0.22081 -0.9368,0 -0.22082,0.22082 0.22083,0.71603 0,0.93684 -0.22082,0.2208 -0.71602,-0.22081 -0.93684,0 -0.22083,0.2208 0.22082,0.716 0,0.93683 -0.22083,0.2208 -0.71603,-0.22083 -0.9368,0 -0.22083,0.2208 0.22077,0.71601 0,0.93681 -0.22083,0.22083 -0.71602,-0.2208 -0.93685,0 -0.22082,0.22083 0.22083,0.71603 0,0.93683 -0.22082,0.22083 -0.71602,-0.2208 -0.93679,0 -0.22088,0.22083 0.22077,0.71601 0,0.93684 -0.22088,0.22081 -0.71608,-0.22083 -0.93685,0 -0.22082,0.22081 0.22077,0.71601 0,0.93683 -0.22082,0.22081 -0.71602,-0.22082 -0.93685,0 -0.22082,0.22081 0,0.62455 0,0.93682 -0.93684,0.62457 -1.87364,1.24912 -2.81049,1.87367 0.3123,0 0.62455,0 0.93685,0 0.31225,0 0.93685,0.31226 0.93685,0 0,-0.31229 -0.6246,0 -0.93685,0 -0.6661,0 -2.81049,-0.39352 -2.81049,0.93681 0,0.31228 0.9368,0.31228 0.9368,0 0,-0.31227 -0.62455,0 -0.9368,0 -0.3123,0 -0.62455,0 -0.93684,0 -0.4219,0 -2.52535,-0.14254 -2.81049,0 -0.395,0.1975 -0.54181,0.73933 -0.9368,0.93683 -0.28514,0.14256 -2.38859,0 -2.81049,0 -1.87364,0 -3.747343,0 -5.620983,0 -0.3123,0 -0.62455,0 -0.93684,0 -0.31225,0 -0.71598,-0.2208 -0.9368,0 -0.22083,0.22081 0.22082,0.71601 0,0.93684 -0.29009,0.29008 -4.39409,-0.29009 -4.68413,0 -0.22083,0.2208 0.22077,0.71601 0,0.93681 -0.0424,0.0425 -4.24243,0 -4.68419,0 -0.31224,0 -0.71597,0.22083 -0.93679,0 -0.22083,-0.2208 0.22082,-0.71601 0,-0.93681 -0.0301,-0.0301 -2.58328,0 -2.81049,0 -2.49819,0 0.31225,0.31226 -0.93685,-0.93684 -0.2563,-0.25633 -3.23907,0.25412 -3.74728,0 -0.395,-0.1975 -0.54185,-0.73933 -0.93685,-0.93683 -0.55859,-0.27931 -1.43199,0.44163 -1.87364,0 -0.22082,-0.22081 0.22077,-0.71601 0,-0.93681 -0.31235,-0.31238 -1.56129,0.31235 -1.87369,0 -0.22078,-0.22083 0.22082,-0.71604 0,-0.93684 -0.4684,-0.4684 -2.34204,0.46841 -2.81049,0 -0.22078,-0.2208 0.22087,-0.71601 0,-0.93683 -0.4684,-0.46841 -2.34204,0.46843 -2.81044,0 -0.22083,-0.22081 0.22082,-0.71601 0,-0.93682 -0.46845,-0.46843 -2.34209,0.46841 -2.81049,0 -0.22082,-0.22082 0.22083,-0.71602 0,-0.93683 -0.22082,-0.22083 -0.62455,0 -0.93685,0 -0.6516,0 -4.34534,-0.1694 -4.68413,0 -0.39499,0.19751 -0.5418,0.73933 -0.93684,0.93683 -0.50822,0.25409 -3.49094,-0.25635 -3.74729,0 -0.22082,0.22081 0.22082,0.71601 0,0.93682 -0.22082,0.22082 -0.65752,-0.13964 -0.93685,0 -0.39499,0.19751 -0.5418,0.73932 -0.93679,0.93683 -0.27933,0.13966 -0.71602,-0.2208 -0.93685,0 -0.22082,0.2208 0.13966,0.65751 0,0.93684 -1.94945,3.89883 0.0647,-1.00152 -1.87364,0.93681 -0.22083,0.22083 0.13961,0.65753 0,0.93683 -1.94945,3.89887 0.0646,-1.00149 -1.8737,0.93684 -0.22077,0.2208 0.22083,0.71601 0,0.93681 -0.31235,0.31238 -1.56129,-0.31236 -1.87364,0 -0.22077,0.22083 0.22083,0.71603 0,0.93683 -0.22077,0.22083 -0.65752,-0.13963 -0.93684,0 -0.395,0.19751 -0.54181,0.73933 -0.9368,0.93684 -0.55865,0.2793 -1.43204,-0.44163 -1.87364,0 -0.22083,0.2208 0.22082,0.71601 0,0.93684 -0.3124,0.31235 -1.5613,-0.31238 -1.8737,0 -0.22082,0.2208 0.22083,0.716 0,0.93681 -0.4416,0.44163 -1.31499,-0.27931 -1.87364,0 -0.39499,0.1975 -0.5418,0.73932 -0.93679,0.93683 -0.27933,0.13967 -0.65758,-0.13966 -0.93685,0 -0.395,0.19751 -0.54185,0.73933 -0.93685,0.93684 -0.55859,0.2793 -1.31504,-0.27933 -1.87364,0 -0.39499,0.19748 -0.5418,0.73932 -0.93685,0.93681 -0.27927,0.13966 -0.62455,0 -0.93684,0 -1.87365,0 -3.74729,0 -5.62093,0 -0.3123,0 -0.71602,0.22083 -0.93685,0 -0.22082,-0.22081 0.22083,-0.71601 0,-0.93681 -0.31235,-0.31236 -1.56129,0.31235 -1.87364,0 -0.22083,-0.22083 0.22082,-0.71604 0,-0.93684 -0.22083,-0.2208 -0.71602,0.2208 -0.93685,0 -0.22077,-0.2208 0.22083,-0.71601 0,-0.93683 -0.22077,-0.22081 -0.65752,0.13966 -0.93679,0 -0.39505,-0.19749 -0.54186,-0.73933 -0.93685,-0.93681 -0.55865,-0.27933 -1.43204,0.4416 -1.87364,0 -0.22083,-0.22083 0.22082,-0.71604 0,-0.93684 -0.22083,-0.2208 -0.62455,0 -0.93685,0 -0.3123,0 -0.71597,-0.2208 -0.93685,0 -0.22077,0.2208 0.22088,0.71601 0,0.93684 -0.22077,0.2208 -0.71597,-0.22083 -0.93679,0 -0.0301,0.0301 0,2.58325 0,2.81048 0,2.49819 0.31225,-0.31229 -0.93685,0.93681 -0.2563,0.25635 0.25411,3.23911 0,3.74731 -0.1975,0.39502 -0.7393,0.54185 -0.93679,0.93684 -0.12318,0.24634 0,3.25744 0,3.74731 0,0.31227 -0.22083,0.71601 0,0.93682 1.24909,1.24912 0.93679,-1.56136 0.93679,0.93683 0,0.48989 -0.12317,3.50097 0,3.74732 0.1975,0.39499 0.73935,0.54182 0.93685,0.93683 0.13966,0.27931 -0.22083,0.71601 0,0.93682 0.4684,0.46842 2.34204,-0.46841 2.81049,0 0.22082,0.22082 -0.22083,0.71603 0,0.93683 0.22082,0.22083 0.71602,-0.2208 0.93679,0 0.22083,0.22083 -0.22077,0.71601 0,0.93683 0.22083,0.22081 0.71602,-0.22082 0.93685,0 0.22082,0.22081 -0.22083,0.71601 0,0.93684 0.22082,0.2208 0.71602,-0.22083 0.93685,0 0.22077,0.2208 0,0.62455 0,0.93681 0,0.31229 0,0.62455 0,0.93684 0,0.62454 0,1.24909 0,1.87365 0,0.31228 0.31224,-0.93682 0,-0.93682 -0.3123,0 0,0.62455 0,0.93682 0,0.93683 0,1.87366 0,2.81047 0,0.62458 0,-1.24909 0,-1.87364 0,-0.31227 0,0.62455 0,0.93683 0,0.62455 0,1.2491 0,1.87365 0,1.87367 0,3.74732 0,5.62096 0,0.31229 0,0.62458 0,0.93684 0,0.31228 0.22077,0.71601 0,0.93683 -0.22083,0.22081 -0.71603,-0.22082 -0.93685,0 -0.22083,0.22081 0,0.62455 0,0.93684 0,1.56136 0,3.12274 0,4.68413 0,0.31228 -0.22083,0.716 0,0.93683 0.22082,0.22081 0.71602,-0.22083 0.93685,0 0.0378,0.0377 0,3.40326 0,3.74732 0,2.18593 0,4.37186 0,6.5578 0,0.31226 -0.22083,0.716 0,0.93681 0.22077,0.22082 0.71602,-0.22081 0.93679,0 0.22083,0.22082 -0.13961,0.65753 0,0.93683 1.94945,3.89886 -0.0647,-1.0015 1.8737,0.93684 1.15363,1.15367 -2.85904,1.87364 1.87364,1.87364 0.4416,0 -0.4952,-0.93683 -0.93685,-0.93683 -0.31225,0 -0.22082,0.71603 0,0.93683 0.22083,0.22081 0.71602,-0.2208 0.93685,0 0.22082,0.22081 -0.22083,0.71601 0,0.93684 0.22082,0.2208 0.71602,-0.22083 0.93684,0 0.22078,0.2208 -0.22082,0.71601 0,0.93681 0.4416,0.44163 1.432,-0.44161 1.87365,0 0.22082,0.22083 -0.22083,0.71603 0,0.93683 0.22082,0.22083 0.65752,-0.13963 0.93679,0 0.395,0.19751 0.54186,0.73933 0.93685,0.93684 0.27932,0.13966 0.71602,-0.2208 0.9368,0 0.22087,0.2208 -0.22078,0.71601 0,0.93684 0.3124,0.31235 1.56134,-0.31238 1.87369,0 0.22082,0.2208 -0.22083,0.716 0,0.93681 0.22082,0.22082 0.71602,-0.22081 0.93685,0 0.22077,0.22082 -0.22083,0.71603 0,0.93683 0.22077,0.2208 0.71597,-0.2208 0.93679,0 0.22083,0.2208 -0.22082,0.71601 0,0.93684 0.22083,0.2208 0.71602,-0.22083 0.93685,0 0.22077,0.2208 -0.22083,0.716 0,0.93681 0.4416,0.44163 1.43204,-0.44161 1.87364,0 0.22083,0.22083 -0.22082,0.71603 0,0.93683 0.22083,0.22081 0.62455,0 0.93685,0 0.62455,0 1.24909,0 1.87364,0 0.3123,0 -0.93685,-0.31226 -0.93685,0 0,0.31229 0.62455,0 0.93685,0 0.62455,0 1.2491,0 1.87364,0 0.3123,0 -0.93679,-0.31226 -0.93679,0 0,0.31229 0.62454,0 0.93679,0 0.93685,0 1.87365,0 2.81049,0 0.22721,0 2.78037,-0.0301 2.81049,0 0.22083,0.22081 -0.22082,0.71601 0,0.93684 0.44165,0.44163 1.31505,-0.2793 1.8737,0 0.39499,0.19751 0.5418,0.73932 0.93679,0.93683 0.5586,0.2793 1.43204,-0.44163 1.87364,0 0.22083,0.22081 -0.22082,0.71601 0,0.93681 0.44165,0.44164 1.31505,-0.2793 1.87365,0 0.39504,0.19751 0.54185,0.73933 0.93684,0.93684 0.27933,0.13966 0.65753,-0.13966 0.93685,0 0.39499,0.19751 0.5418,0.73933 0.9368,0.93684 0.27932,0.13963 0.71607,-0.22083 0.93684,0 0.22083,0.2208 -0.22077,0.716 0,0.93681 0.22083,0.22082 0.71602,-0.22081 0.93685,0 0.22077,0.22082 -0.22083,0.71603 0,0.93683 0.4416,0.44163 1.43199,-0.44163 1.87364,0 0.22083,0.2208 -0.22082,0.71601 0,0.93683 0.22083,0.22081 0.71602,-0.22082 0.93685,0 0.22077,0.22081 -0.22083,0.71602 0,0.93682 0.22077,0.22083 0.71597,-0.2208 0.93679,0 0.22083,0.22083 -0.22082,0.71603 0,0.93683 0.22083,0.22083 0.71603,-0.2208 0.93685,0 0.22083,0.22083 -0.22082,0.71603 0,0.93684 0.22083,0.2208 0.71602,-0.22081 0.93685,0 0.22077,0.2208 -0.22083,0.71601 0,0.93683 0.22077,0.2208 0.71597,-0.22082 0.93679,0 0.22083,0.2208 -0.22082,0.71601 0,0.93682 0.22083,0.22082 0.71602,-0.22081 0.93685,0 0.22082,0.22082 0,0.62454 0,0.93683 0,0.31229 0.13966,0.65751 0,0.93683 -0.1975,0.39499 -0.93685,0.49521 -0.93685,0.93682 0,0.31228 0.93685,0.31228 0.93685,0 0,-0.31227 -0.65752,-0.13965 -0.93685,0 -0.39499,0.1975 -0.5418,0.73932 -0.93679,0.93683 -0.27933,0.13966 -0.71602,-0.2208 -0.93685,0 -1.24909,1.2491 1.56139,0.93683 -0.93685,0.93683 -2.49819,0 0.3123,-0.31228 -0.93679,0.93684 -0.44165,0.44161 -1.43205,-0.44163 -1.8737,0 -0.22077,0.2208 0.22083,0.71601 0,0.93681 -0.44159,0.44164 -1.43199,-0.44163 -1.87364,0 -0.22077,0.22083 0.22083,0.71603 0,0.93684 -0.44165,0.44163 -1.31504,-0.27931 -1.87364,0 -0.39499,0.1975 -0.54185,0.73933 -0.93685,0.93683 -0.37141,0.18572 -2.61896,-0.19153 -2.81049,0 -0.22082,0.2208 0.22083,0.71601 0,0.93682 -0.29004,0.29008 -4.39403,-0.29009 -4.68413,0 -0.22082,0.22082 0.22083,0.71602 0,0.93683 -0.22082,0.2208 -0.62455,0 -0.93685,0 -0.4417,0 -4.64166,-0.0425 -4.68413,0 -0.22077,0.2208 0.22083,0.71601 0,0.93683 -0.4416,0.44161 -1.43204,-0.44163 -1.87364,0 -0.22082,0.22081 0,0.62455 0,0.93681 0,0.42193 -0.14252,2.5254 0,2.81051 0.1975,0.39499 0.7393,0.54182 0.93685,0.93681 0.16937,0.33881 0,4.03255 0,4.68415 0,3.43503 0,6.87007 0,10.30512 0,1.56136 0,3.12274 0,4.68412 0,0.31229 0.22082,0.71602 0,0.93684 -0.22083,0.22081 -0.71602,-0.22082 -0.93685,0 -0.22082,0.22081 0.22083,0.71601 0,0.93684 -0.22082,0.2208 -0.71602,-0.22083 -0.93685,0 -0.22082,0.2208 0.22083,0.716 0,0.93681 -0.22082,0.22082 -0.71602,-0.22081 -0.93679,0 -0.22083,0.22082 0.22077,0.71603 0,0.93683 -0.22083,0.2208 -0.71602,-0.2208 -0.93685,0 -0.22082,0.2208 0.22083,0.71601 0,0.93684 -0.22082,0.2208 -0.65752,-0.13967 -0.93679,0 -0.39505,0.19748 -0.54186,0.73933 -0.93685,0.93681 -0.27933,0.13966 -0.71602,-0.22081 -0.93685,0 -0.22082,0.22083 0.22083,0.71603 0,0.93683 -0.22082,0.22081 -0.71602,-0.2208 -0.93679,0 -0.22083,0.22081 0.22077,0.71601 0,0.93684 -0.22083,0.2208 -0.71603,-0.22083 -0.93685,0 -0.22083,0.2208 0.22082,0.71601 0,0.93681 -0.22083,0.22083 -0.71602,-0.2208 -0.93685,0 -1.93832,1.93833 2.96205,-0.0758 -0.93684,1.87367 -0.27928,0.13964 -0.71598,-0.22083 -0.9368,0 -0.22082,0.2208 0.22082,0.71601 0,0.93684 -0.22082,0.2208 -0.65752,-0.13967 -0.93685,0 -0.39499,0.19748 -0.5418,0.73932 -0.93679,0.93681 -0.27933,0.13966 -0.71602,-0.22081 -0.93685,0 -0.22082,0.22082 0.22083,0.71603 0,0.93683 -0.22082,0.2208 -0.71602,-0.2208 -0.9368,0 -0.22082,0.2208 0.22078,0.71601 0,0.93684 -0.22082,0.2208 -0.62454,0 -0.93684,0 -0.93685,1.2491 -1.87364,2.4982 -2.81049,3.74732 -1.88013,7.71541 2.64326,1.70641 3.74733,2.81048 0.22078,0.2208 -0.22082,0.716 0,0.93681 0.22078,0.22083 0.71598,-0.22081 0.9368,0 0.22083,0.22083 -0.22082,0.71603 0,0.93683 0.22083,0.22081 0.71602,-0.2208 0.93685,0 0.22082,0.22081 -0.22083,0.71601 0,0.93684 0.22082,0.2208 0.71602,-0.22083 0.93679,0 0.22083,0.2208 -0.22077,0.71601 0,0.93681 0.22083,0.22083 0.71603,-0.2208 0.93685,0 0.22082,0.22083 -0.22082,0.71603 0,0.93683 0.22082,0.22083 0.71602,-0.2208 0.9368,0 0.22087,0.22083 -0.22078,0.71601 0,0.93684 0.22087,0.2208 0.71607,-0.22083 0.93684,0 0.22083,0.2208 -0.22077,0.71601 0,0.93684 0.22083,0.2208 0.71602,-0.22083 0.93685,0 0.22082,0.2208 -0.13966,0.6575 0,0.93681 0.1975,0.39501 0.73935,0.54184 0.93685,0.93683 0.13961,0.2793 -0.22083,0.71601 0,0.93683 0.22077,0.22081 0.71597,-0.22082 0.93679,0 0.22083,0.22081 -0.22082,0.71601 0,0.93682 0.22083,0.22083 0.71602,-0.22081 0.93685,0 0.22077,0.22083 -0.22083,0.71603 0,0.93683 0.22077,0.22081 0.65752,-0.13966 0.93685,0 0.92183,0.46094 2.82544,3.28638 3.74728,3.74732 0.27932,0.13966 0.71602,-0.22081 0.93685,0 0.22082,0.2208 -0.22083,0.716 0,0.93683 0.22082,0.22081 0.71602,-0.22083 0.93679,0 0.22083,0.22081 -0.22077,0.71601 0,0.93682 0.22083,0.22082 0.62455,0 0.93685,0 0,0.31228 -0.13966,0.65753 0,0.93683 0.62393,1.24784 1.24971,0.62581 1.87364,1.87365 0.13966,0.27932 -0.13966,0.65753 0,0.93683 0.1975,0.39501 0.73935,0.54182 0.93685,0.93684 0.13961,0.2793 0,0.62454 0,0.93683 0.31225,0.31226 0.7393,0.54182 0.93679,0.93681 0.27933,0.55863 -0.44159,1.43204 0,1.87367 0.22083,0.22081 0.71603,-0.22082 0.93685,0 0.44165,0.44161 -0.44165,1.43202 0,1.87365 0.22083,0.22081 0.71602,-0.2208 0.93685,0 0.4684,0.4684 -0.4684,2.34208 0,2.81048 0.22077,0.22083 0.71602,-0.2208 0.93685,0 0.22077,0.22083 -0.13967,0.65753 0,0.93684 0.19744,0.39499 0.73929,0.54182 0.93679,0.93683 0.27932,0.5586 -0.4416,1.43202 0,1.87365 0.22083,0.2208 0.71602,-0.2208 0.93685,0 0.22077,0.2208 -0.22083,0.71601 0,0.93683 0.22077,0.22081 0.71597,-0.22082 0.93679,0 0.22083,0.22081 -0.22082,0.71601 0,0.93681 0.22083,0.22083 0.71603,-0.2208 0.93685,0 0.22082,0.22083 -0.22082,0.71604 0,0.93684 0.22082,0.22082 0.9368,-0.31226 0.9368,0 0,0.31228 -1.2491,0 -0.9368,0 1.87364,0 3.74729,0 5.62098,0 0.6516,0 4.34534,0.1694 4.68413,0 0.39499,-0.19751 0.5418,-0.73933 0.93685,-0.93684 0.50816,-0.25409 3.49093,0.25636 3.74728,0 0.22083,-0.2208 -0.22082,-0.716 0,-0.93681 0.4684,-0.46843 2.34204,0.46841 2.81049,0 0.22083,-0.22082 0,-0.62455 0,-0.93683 0.31225,0 0.65752,0.13966 0.9368,0 0.39504,-0.19751 0.6246,-1.2491 0.93684,-0.93684 0.3123,0.31229 -1.37844,0.93684 -0.93684,0.93684 0.69831,0 1.37992,-0.44308 1.87369,-0.93684 0.22077,-0.2208 -0.22082,-0.716 0,-0.93681 0.22077,-0.22083 0.71602,0.22081 0.93685,0 0.22077,-0.22083 0.31225,-0.93683 0,-0.93683 -0.44165,0 -1.3785,0.93683 -0.93685,0.93683 4.73268,0 0.71995,-0.71998 1.87364,-1.87367 0.22083,-0.2208 0.71602,0.22083 0.93685,0 0.22077,-0.2208 -0.22083,-0.71601 0,-0.93683 0.22077,-0.22081 0.71597,0.22082 0.93679,0 0.44165,-0.44161 -0.44159,-1.43202 0,-1.87365 0.22083,-0.2208 0.71603,0.22081 0.93685,0 0.4416,-0.44163 -0.4416,-1.43204 0,-1.87365 0.22083,-0.22082 0.62455,0 0.93685,0 0.31225,0 0.93679,-0.31228 0.93679,0 0,0.31227 -1.24909,0 -0.93679,0 0.62454,0 1.24909,0 1.87364,0 0.31225,0 0.71602,-0.22082 0.9368,0 0.22082,0.22081 -0.22078,0.71601 0,0.93681 0.44165,0.44163 1.43204,-0.4416 1.87369,0 0.22082,0.22083 -0.22083,0.71604 0,0.93684 0.4416,0.44163 1.31505,-0.2793 1.87364,0 0.395,0.19751 0.5418,0.73932 0.93685,0.93684 0.55859,0.2793 1.43199,-0.44164 1.87364,0 0.22083,0.2208 -0.22082,0.716 0,0.93681 0.22083,0.22082 0.65752,-0.13964 0.93685,0 0.39499,0.19751 0.5418,0.73932 0.93679,0.93683 0.27933,0.13966 0.71603,-0.2208 0.93685,0 0.22083,0.22083 -0.22082,0.71603 0,0.93684 0.4416,0.44163 1.43204,-0.44163 1.87364,0 0.22083,0.2208 -0.22082,0.716 0,0.93683 0.4684,0.46841 2.34204,-0.46843 2.81049,0 0.22083,0.22081 -0.22082,0.71601 0,0.93681 0.4684,0.46843 2.34209,-0.4684 2.81049,0 0.220833,0.22083 -0.22082,0.71604 0,0.93684 0.256353,0.25633 3.239073,-0.25412 3.747343,0 0.39499,0.19751 0.5418,0.73932 0.93679,0.93683 0.37146,0.18572 2.61897,-0.19153 2.81049,0 0.22083,0.22081 -0.22082,0.71601 0,0.93681 0.4416,0.44164 1.31505,-0.2793 1.87365,0 0.39499,0.19751 0.54185,0.73933 0.93684,0.93684 0.27933,0.13966 0.71602,-0.2208 0.9368,0 0.22082,0.22082 -0.22078,0.71601 0,0.93683 0.31271,0.31266 1.56103,-0.31266 1.87369,0 0.22077,0.2208 -0.22082,0.716 0,0.93683 0.31235,0.31236 1.56129,-0.31238 1.87364,0 0.22083,0.22081 -0.22082,0.71601 0,0.93681 0.46845,0.46843 2.3421,-0.4684 2.81049,0 0.22083,0.22083 -0.22082,0.71604 0,0.93684 0.19153,0.19153 2.43903,-0.18572 2.81049,0 0.395,0.19751 0.5418,0.73932 0.9368,0.93683 0.55865,0.2793 1.31504,-0.27932 1.87369,0 0.395,0.19749 0.5418,0.73933 0.9368,0.93682 1.29223,0.64611 0.83797,-1.13456 1.87369,0.93683 0.13961,0.2793 -0.22082,0.71601 0,0.93684 0.22077,0.2208 0.71602,-0.22083 0.9368,0 0.22082,0.2208 -0.22078,0.716 0,0.93681 0.22082,0.22083 0.71602,-0.22081 0.93684,0 0.22078,0.22083 -0.22082,0.71603 0,0.93683 0.22078,0.22083 0.71603,-0.2208 0.93685,0 0.22077,0.22083 -0.22082,0.71604 0,0.93683 0.22077,0.22081 0.71597,-0.22079 0.9368,0 0.22082,0.22081 -0.22083,0.71602 0,0.93684 0.22082,0.22081 0.71602,-0.22082 0.93684,0 0.22083,0.22081 -0.22082,0.71601 0,0.93681 0.4416,0.44164 1.43205,-0.44161 1.87364,0 0.22083,0.22083 -0.13966,0.65754 0,0.93684 1.94945,3.89886 -0.0647,-1.0015 1.87365,0.93684 0.22082,0.22079 -0.22078,0.716 0,0.93681 0.31235,0.31237 1.56129,-0.31236 1.87364,0 0.22083,0.22082 -0.22077,0.71602 0,0.93683 0.3124,0.31235 1.56134,-0.31236 1.87369,0 0.22083,0.2208 -0.22082,0.71601 0,0.93683 0.31235,0.31236 1.56129,-0.31235 1.87364,0 0.22083,0.22081 -0.22082,0.71601 0,0.93684 0.31271,0.31266 1.56099,-0.31268 1.8737,0 0.22077,0.22081 -0.22083,0.71601 0,0.93681 0.22077,0.22083 0.65747,-0.13964 0.93679,0 0.395,0.19751 0.54186,0.73933 0.93685,0.93684 0.5586,0.2793 1.43204,-0.44164 1.87364,0 0.22083,0.2208 -0.22082,0.71601 0,0.93683 0.31235,0.31236 1.56129,-0.31238 1.87364,0 0.22083,0.2208 -0.22077,0.71601 0,0.93681 0.22083,0.22083 0.65753,-0.13963 0.93685,0 0.395,0.19751 0.5418,0.73933 0.9368,0.93684 0.27932,0.13966 0.71607,-0.22081 0.93684,0 0.22083,0.2208 -0.22077,0.716 0,0.93683 0.44165,0.44163 1.43205,-0.44163 1.87365,0 0.22082,0.22081 -0.22083,0.71601 0,0.93682 0.22082,0.22082 0.71602,-0.22081 0.93684,0 0.22083,0.22082 -0.22082,0.71603 0,0.93683 0.22083,0.22083 0.71603,-0.2208 0.93685,0 0.22077,0.22083 -0.22082,0.71603 0,0.93683 0.4416,0.44164 1.43199,-0.44163 1.87364,0 0.22083,0.22081 -0.22082,0.71601 0,0.93684 0.22083,0.2208 0.71602,-0.22083 0.9368,0 0.22082,0.2208 -0.22078,0.71601 0,0.93681 0.22082,0.22083 0.71602,-0.2208 0.93685,0 0.22082,0.22083 -0.22083,0.71603 0,0.93684 0.22082,0.2208 0.71602,-0.22081 0.93684,0 0.22083,0.2208 0.31225,0.93683 0,0.93683 -0.3123,0 -0.3123,-0.93683 0,-0.93683 0.30204,0 1.35313,1.61339 1.87364,1.87364 0.27933,0.13967 0.62455,0 0.93685,0 0.31225,0 0.65752,0.13967 0.9368,0 0.39504,-0.19748 0.5418,-0.73932 0.93684,-0.93681 0.27928,-0.13966 0.71603,0.2208 0.93685,0 1.93832,-1.93833 -2.96204,0.0758 0.9368,-1.87367 0.27932,-0.13964 0.71602,0.22083 0.93684,0 0.22078,-0.2208 -0.22082,-0.71601 0,-0.93681 0.22078,-0.22083 0.71597,0.2208 0.93685,0 0.22077,-0.22083 -0.22088,-0.71603 0,-0.93684 1.93832,-1.93832 -0.0758,2.96203 1.87364,-0.93683 0.13966,-0.2793 -0.22082,-0.71601 0,-0.93683 1.93832,-1.93834 -0.0758,2.96202 1.87364,-0.93682 0.13967,-0.2793 0,-0.62455 0,-0.93683 0,-0.31229 0,-0.62455 0,-0.93684 0,-1.56136 0,-3.12274 0,-4.68413 0,-0.31228 -0.31229,-0.93683 0,-0.93683 0.31225,0 0,0.62455 0,0.93683 1.5614,0.93684 3.12274,1.87365 4.68414,2.81049 0,0.31228 -0.22083,0.71601 0,0.93683 0.44165,0.44161 1.43204,-0.44163 1.87369,0 0.22077,0.2208 -0.22082,0.71601 0,0.93681 0.22077,0.22083 0.65747,-0.13963 0.9368,0 0.39499,0.19751 0.5418,0.73933 0.93684,0.93684 0.5586,0.2793 1.43205,-0.44163 1.87365,0 0.22082,0.2208 -0.22083,0.716 0,0.93683 0.4416,0.44163 1.31504,-0.2793 1.87364,0 0.39499,0.19749 0.54185,0.73933 0.93685,0.93682 0.37146,0.18574 2.61896,-0.19151 2.81049,0 0.22077,0.22082 -0.22083,0.71603 0,0.93683 0.19152,0.19153 2.43902,-0.18572 2.81049,0 0.39499,0.19751 0.5418,0.73933 0.93679,0.93683 0.55865,0.27931 1.43204,-0.44163 1.87369,0 0.22078,0.22081 -0.22082,0.71601 0,0.93684 0.4684,0.4684 2.34204,-0.46843 2.81044,0 0.22083,0.2208 -0.22077,0.71601 0,0.93681 0.25636,0.25633 3.23913,-0.25409 3.74734,0 0.39499,0.19751 0.5418,0.73933 0.93679,0.93684 0.50827,0.25411 3.49099,-0.25633 3.74734,0 0.22083,0.2208 -0.22082,0.716 0,0.93683 0.46845,0.46841 2.34209,-0.46843 2.81049,0 0.22082,0.2208 -0.22082,0.71601 0,0.93681 0.4684,0.46843 2.34209,-0.4684 2.81049,0 0.22082,0.22083 -0.22083,0.71603 0,0.93684 0.31266,0.31266 1.56099,-0.31266 1.87364,0 0.22083,0.2208 -0.22077,0.716 0,0.93683 0.31235,0.31236 1.56129,-0.31235 1.87364,0 0.22083,0.22081 -0.22077,0.71601 0,0.93683 0.44165,0.44161 1.31505,-0.27932 1.8737,0 0.39499,0.19749 0.5418,0.73933 0.93679,0.93682 0.27933,0.13966 0.65753,-0.13964 0.93685,0 0.39499,0.19751 0.5418,0.73933 0.93685,0.93683 0.55859,0.27931 1.43204,-0.44163 1.87364,0 0.22082,0.22081 -0.22083,0.71601 0,0.93684 0.4416,0.44161 1.31505,-0.27932 1.87364,0 0.395,0.19748 0.54186,0.73933 0.93685,0.93681 0.5586,0.27932 1.43204,-0.44161 1.87364,0 0.22083,0.22083 -0.22082,0.71603 0,0.93684 0.44165,0.44163 1.31505,-0.27931 1.87364,0 0.39505,0.1975 0.54186,0.73932 0.93685,0.93683 0.5586,0.2793 1.43204,-0.44163 1.87364,0 0.22083,0.2208 -0.22082,0.71601 0,0.93681 0.0378,0.0377 3.40329,0 3.74734,0 2.18594,0 4.37183,0 6.55777,0 0.93685,0 1.87365,0 2.81049,0 0.3123,0 0.93685,-0.31226 0.93685,0 0,0.31229 -1.2491,0 -0.93685,0 0.62455,0 1.2491,0 1.8737,0 0.31224,0 0.71597,-0.2208 0.93679,0 0.22083,0.22083 -0.22082,0.71603 0,0.93684 0.4684,0.46842 2.34209,-0.46841 2.81049,0 0.22083,0.22083 -0.22082,0.71603 0,0.93683 0.22542,0.22543 3.52187,-0.22542 3.74729,0 0.22087,0.22081 -0.22078,0.71601 0,0.93684 0.0301,0.0301 2.58328,0 2.81049,0 1.87369,0 3.74733,0 5.62097,0 0.3123,0 0.71603,0.2208 0.93685,0 0.22083,-0.22083 -0.22082,-0.71603 0,-0.93684 0.0378,-0.0377 3.40329,0 3.74729,0 0.3123,0 0.62454,0 0.93684,0 0.31225,0 0.71602,-0.2208 0.93685,0 0.22082,0.22081 -0.22083,0.71601 0,0.93684 0.4684,0.4684 2.34204,-0.46843 2.81049,0 0.22077,0.2208 -0.3123,0.93681 0,0.93681 1.28753,0 2.49819,-0.62455 3.74728,-0.93681 z"
       id="path3605"
       inkscape:connector-curvature="0" />
  </g>
</svg>
