<svg xmlns="http://www.w3.org/2000/svg" width="210mm" height="297mm" viewBox="0 0 744.09448819 1052.3622047"><path d="M40.42 789.482c1.443-3.402 1.241-6.45 1.241-9.935 0-.414.293-.95 0-1.242-.292-.293-.949.293-1.242 0-.292-.293 0-.828 0-1.242v-7.451c0-.414.293-.95 0-1.242-.292-.293-.949.292-1.242 0-.292-.293 0-.828 0-1.242v-9.936c0-.414-.292-.949 0-1.241 1.656-1.656 1.242 2.07 1.242-1.242v-8.694c0-.56-.189-3.348 0-3.726.262-.523.98-.718 1.242-1.242.185-.37 0-.827 0-1.241v-9.936c0-.414-.292-.949 0-1.242.293-.292.95.293 1.242 0 .254-.254-.246-3.233 0-3.725.262-.524.98-.719 1.242-1.242.37-.74-.37-1.744 0-2.484.262-.524.98-.718 1.242-1.242.333-.666-.333-1.818 0-2.484.262-.524.98-.718 1.242-1.242.37-.74-.586-1.898 0-2.484.293-.292.95.293 1.242 0 .62-.62-.621-3.104 0-3.725.293-.293.95.292 1.242 0 .292-.293-.185-.872 0-1.242.262-.524.98-.719 1.242-1.242.185-.37-.293-.95 0-1.242.292-.293.949.293 1.242 0 .585-.586-.586-1.899 0-2.484.292-.293.949.293 1.242 0 .292-.293-.293-.95 0-1.242.292-.293.949.293 1.241 0 .293-.293-.292-.95 0-1.242.293-.293.95.293 1.242 0 .293-.293-.185-.871 0-1.242.262-.523.98-.718 1.242-1.242.185-.37-.292-.949 0-1.242.293-.292.95.293 1.242 0 .293-.292-.293-.949 0-1.241.293-.293.95.292 1.242 0 .293-.293-.293-.95 0-1.242.293-.293.95.292 1.242 0 .293-.293-.293-.95 0-1.242.293-.293.872.185 1.242 0 .524-.262.718-.98 1.242-1.242.37-.185.949.292 1.242 0 .292-.293-.293-.95 0-1.242.292-.293.949.293 1.242 0 .292-.293-.293-.95 0-1.242.292-.293.949.293 1.242 0 .292-.293-.293-.95 0-1.242.292-.293.949.293 1.242 0 .292-.293-.293-.95 0-1.242.292-.293.949.293 1.241 0 .293-.293-.292-.95 0-1.242.586-.585 1.899.586 2.484 0 .293-.293-.292-.949 0-1.242.293-.292.95.293 1.242 0 .293-.292-.293-.949 0-1.242.293-.292.872.185 1.242 0 .663-.331 3.072-3.072 3.726-3.725l1.242-1.242c.414-.414.718-.98 1.242-1.242.37-.185.949.292 1.242 0 .292-.293-.293-.95 0-1.242.292-.293.949.293 1.242 0 .292-.293 0-.828 0-1.242.413 0 .871.185 1.241 0 .33-.165 3.561-3.396 3.726-3.726.185-.37-.293-.949 0-1.242.293-.292.95.293 1.242 0 .293-.292-.293-.949 0-1.242.293-.292.872.185 1.242 0 .524-.261.718-.98 1.242-1.242.37-.185.95.293 1.242 0 .293-.292-.293-.949 0-1.242.293-.292.95.293 1.242 0 .293-.292-.293-.949 0-1.241.293-.293.871.185 1.242 0 .523-.262.718-.98 1.242-1.242.37-.185.949.292 1.242 0 .292-.293-.293-.95 0-1.242.292-.293.949.292 1.241 0 .293-.293-.292-.95 0-1.242.293-.293.95.293 1.242 0 .293-.293-.292-.95 0-1.242.293-.293.95.293 1.242 0 .293-.293-.292-.95 0-1.242.293-.293.95.293 1.242 0 .293-.293-.293-.95 0-1.242.293-.293.95.293 1.242 0 .293-.293-.293-.95 0-1.242.293-.293.95.293 1.242 0 .293-.293-.293-.949 0-1.242.293-.292.95.293 1.242 0 .293-.292-.293-.949 0-1.242.293-.292.95.293 1.242 0 .293-.292-.293-.949 0-1.242.293-.292.828 0 1.242 0 0-.414-.185-.871 0-1.241.262-.524.98-.719 1.242-1.242.37-.74-.586-1.899 0-2.484 1.656-1.656 1.242 2.07 1.242-1.242 0-.414-.293-.95 0-1.242.292-.293 1.242-.414 1.242 0 0 .585-1.242 1.827-1.242 1.242 0-.926.949-1.606 1.242-2.484.233-.7 0-2.91 0-3.726 0-.414.292-.949 0-1.242-.293-.292-.95.293-1.242 0-.586-.585.585-1.898 0-2.483-.293-.293-.95.292-1.242 0-.293-.293.185-.872 0-1.242-.262-.524-.98-.719-1.242-1.242-.185-.37.292-.95 0-1.242-.293-.293-.95.292-1.242 0-.586-.586.585-1.899 0-2.484-.293-.293-.95.293-1.242 0-.293-.293.293-.95 0-1.242-.293-.293-.95.293-1.242 0 0-3.312.414.414-1.242-1.242-.293-.293.185-.872 0-1.242-.165-.33-3.396-3.56-3.726-3.726-.37-.185-.949.293-1.242 0-2.57-2.57 3.927.1-1.241-2.483-.37-.186-.95.292-1.242 0-.293-.293.292-.95 0-1.242-.293-.293-.95.292-1.242 0-.293-.293.292-.95 0-1.242-.293-.293-.95.292-1.242 0-.293-.293.293-.95 0-1.242-.293-.293-.95.293-1.242 0-.293-.293.293-.95 0-1.242-.293-.293-.95.293-1.242 0-.293-.293.293-.95 0-1.242-.293-.293-.95.293-1.242 0-.293-.293.293-.95 0-1.242-.293-.293-.95.293-1.242 0-.293-.293.293-.95 0-1.242-.293-.293-.95.293-1.242 0-.293-.293.293-.949 0-1.242-.293-.292-.949.293-1.242 0-.292-.292.293-.949 0-1.242-.292-.292-.949.293-1.242 0-.292-.292.293-.949 0-1.242-.292-.292-.949.293-1.242 0-.292-.292 0-.828 0-1.242-.414 0-.949.293-1.241 0-.293-.292.185-.871 0-1.241-.262-.524-.98-.719-1.242-1.242-.186-.37.292-.95 0-1.242-.293-.293-.95.292-1.242 0-.293-.293.292-.95 0-1.242-.293-.293-.95.293-1.242 0-.293-.293.293-.95 0-1.242-.293-.293-.95.293-1.242 0-.586-.586.585-1.898 0-2.484-.293-.293-.95.293-1.242 0-.293-.293.293-.95 0-1.242-.293-.293-.95.293-1.242 0-.293-.293.293-.949 0-1.242-.293-.292-1.242.414-1.242 0s1.242.414 1.242 0c0-.585-.656-1.242-1.242-1.242-.414 0 .293.95 0 1.242-1.656 1.656-1.242-2.07-1.242 1.242 15.863 4.41 3.094-4.335 4.968-6.21.293-.292.95.293 1.242 0 .293-.292-.185-.871 0-1.241.262-.524.98-.719 1.242-1.242.185-.37-.293-.95 0-1.242.292-.293.949.293 1.242 0 .292-.293-.186-.872 0-1.242.261-.524.98-.718 1.242-1.242.185-.37-.293-.95 0-1.242.292-.293.949.293 1.241 0 .293-.293-.185-.872 0-1.242.262-.523.98-.718 1.242-1.242.186-.37-.292-.949 0-1.242.293-.292.95.293 1.242 0 .293-.292-.185-.871 0-1.242.524-1.047 1.96-1.436 2.484-2.483.185-.37-.293-.95 0-1.242.293-.293.95.292 1.242 0 .293-.293-.185-.872 0-1.242.262-.524.98-.718 1.242-1.242.185-.37-.293-.95 0-1.242.293-.293.95.293 1.242 0 .293-.293-.185-.872 0-1.242.262-.524.98-.718 1.242-1.242.185-.37-.293-.95 0-1.242.293-.293.949.293 1.242 0 .292-.293-.185-.871 0-1.242.262-.523.98-.718 1.242-1.242.185-.37-.293-.949 0-1.242.292-.292.949.293 1.242 0 .585-.585-.586-1.898 0-2.483.292-.293.949.292 1.241 0 .293-.293-.292-.95 0-1.242.293-.293.95.292 1.242 0 .293-.293-.185-.872 0-1.242.262-.524.98-.719 1.242-1.242.185-.37-.292-.95 0-1.242.293-.293.95.293 1.242 0 .293-.293-.185-.872 0-1.242.262-.524.98-.718 1.242-1.242.185-.37-.293-.95 0-1.242.293-.293.95.293 1.242 0 .585-.585-.585-1.898 0-2.484.293-.292.95.293 1.242 0 .293-.292-.293-.949 0-1.242.293-.292.95.293 1.242 0 .293-.292-.185-.871 0-1.241.262-.524.98-.719 1.242-1.242.185-.37-.293-.95 0-1.242.292-.293.949.292 1.242 0 .292-.293-.185-.872 0-1.242.523-1.048 1.96-1.437 2.484-2.484.185-.37-.293-.95 0-1.242.292-.293.949.293 1.241 0 .293-.293-.292-.95 0-1.242.293-.293.95.293 1.242 0 .293-.293-.185-.872 0-1.242.524-1.047 1.96-1.436 2.484-2.484.185-.37-.293-.949 0-1.242.293-.292.95.293 1.242 0 .293-.292-.185-.871 0-1.241.262-.524.98-.719 1.242-1.242.37-.74-.37-1.744 0-2.484.262-.524.98-.719 1.242-1.242.185-.37-.185-.872 0-1.242.262-.524.98-.718 1.242-1.242.185-.37-.293-.95 0-1.242.293-.293.949.293 1.242 0 .292-.293-.293-.95 0-1.242.292-.293.949.293 1.242 0 .413-.413-.414-2.07 0-2.484.292-.292.949.293 1.242 0 .292-.292-.293-.949 0-1.242.292-.292.949.293 1.242 0 .292-.292-.186-.871 0-1.241.745-1.49 2.98-2.236 3.725-3.726.185-.37-.292-.95 0-1.242.293-.293.95.293 1.242 0 .293-.293-.185-.872 0-1.242.262-.524.98-.718 1.242-1.242.185-.37-.293-.95 0-1.242.293-.293.95.293 1.242 0 .293-.293-.293-.95 0-1.242.293-.293.95.293 1.242 0 .293-.293-.293-.949 0-1.242.293-.292.95.293 1.242 0 .293-.292-.293-.949 0-1.242.293-.292.95.293 1.242 0 .413-.413-.414-2.07 0-2.484.292-.292.949.293 1.242 0 .292-.292-.185-.871 0-1.241.262-.524.98-.719 1.242-1.242.185-.37-.186-.872 0-1.242.61-1.222 4.356-3.746 4.967-4.968.185-.37-.292-.95 0-1.242.293-.293.95.293 1.242 0 .414-.414-.414-2.07 0-2.484.293-.292.95.293 1.242 0 .586-.585-.585-1.898 0-2.483.293-.293.95.292 1.242 0 .585-.586-.585-1.899 0-2.484.293-.293.95.292 1.242 0 .299-.3-.299-4.67 0-4.968.293-.293.95.293 1.242 0 .62-.62-.621-3.105 0-3.726.293-.292.949.293 1.242 0 .254-.254-.246-3.233 0-3.725.262-.524.98-.719 1.242-1.242.337-.674-.34-4.628 0-4.968.292-.293.949.293 1.242 0 .384-.385-.385-5.825 0-6.21.292-.292.949.293 1.242 0 .298-.298-.3-4.668 0-4.967.292-.293.949.292 1.241 0 .293-.293 0-.828 0-1.242v-24.839c0-.414-.292-.949 0-1.241.293-.293.95.292 1.242 0 .621-.621-.62-3.105 0-3.726.293-.293.95.292 1.242 0 .293-.293 0-.828 0-1.242v-6.21c0-.414.293-.949 0-1.242-.292-.292-.949.293-1.242 0-.04-.04 0-3.424 0-3.725 0-.586-.056-6.154 0-6.21.293-.293.95.293 1.242 0 .414-.414-.413-2.07 0-2.484.293-.293.95.293 1.242 0 .293-.293-.293-.949 0-1.242.293-.292.95.293 1.242 0 .293-.292-.293-.949 0-1.242.293-.292.95.293 1.242 0 .293-.292-.293-.949 0-1.242.293-.292.95.293 1.242 0 .293-.292-.293-.949 0-1.241.414-.415 2.07.414 2.484 0 2.912-2.913-3.826 0-1.242 0 1.786 0 3.726-2.996 3.726-1.242 0 .414-1.656 0-1.242 0h2.483c.414 0 .872-.185 1.242 0 .524.261.719.98 1.242 1.242.37.185.95-.293 1.242 0 .293.292-.292.949 0 1.241 2.57 2.57-.1-3.926 2.484 1.242.185.37-.293.95 0 1.242.293.293.95-.292 1.242 0 .293.293-.293.95 0 1.242.293.293.872-.185 1.242 0 .524.262.718.98 1.242 1.242.37.185.949-.293 1.242 0 .292.293-.293.95 0 1.242.585.585 1.743-.37 2.484 0 .523.262.718.98 1.242 1.242.37.185.827 0 1.241 0 .414.414.719.98 1.242 1.242.674.337 4.628-.34 4.968 0 .293.293-.293.95 0 1.242.056.056 5.624 0 6.21 0 .3 0 3.685-.04 3.725 0 .293.293-.292.949 0 1.242.293.292.828 0 1.242 0 .586 0 6.154-.057 6.21 0 .293.292-.293.949 0 1.242.414.414 2.07-.414 2.484 0 .292.292-.293.949 0 1.242.292.292.949-.293 1.242 0 .292.292 0 .827 0 1.241.414 0 .871-.185 1.241 0 .524.262.828.828 1.242 1.242.414.414 1.656.828 1.242 1.242-.414.414-1.656-1.656-1.242-1.242 2.777 2.777 1.313 2.484 3.726 2.484h1.242-2.484 4.968c.414 0 .95.293 1.242 0 .293-.293-.293-.949 0-1.242.413-.413 2.07.414 2.484 0 .292-.292-.293-.949 0-1.242.585-.585 1.898.586 2.483 0 .293-.292-.292-.949 0-1.242.415-.414 2.07.415 2.484 0 .293-.292-.292-.949 0-1.241.586-.586 1.744.37 2.484 0 .524-.262.718-.98 1.242-1.242.37-.186.95.292 1.242 0 .293-.293-.293-.95 0-1.242.293-.293.95.292 1.242 0 .293-.293-.293-.95 0-1.242.293-.293.95.293 1.242 0 .293-.293 0-.828 0-1.242v-6.21c0-.414.293-.949 0-1.242-.293-.292-.95.293-1.242 0-.586-.585.585-1.898 0-2.483-.293-.293-.95.292-1.242 0-.585-.586.37-1.744 0-2.484-.262-.524-.98-.719-1.242-1.242-.37-.74.586-1.899 0-2.484-.293-.293-.95.293-1.242 0-.413-.414.414-2.07 0-2.484-.293-.293-.949.293-1.242 0-.292-.293.293-.95 0-1.242-.292-.292-.828 0-1.242 0h-1.242l4.968-2.484c0-.414-.293-.949 0-1.242.293-.292.872.186 1.242 0 1.047-.523 1.437-1.96 2.484-2.483.37-.186.871.185 1.242 0 .523-.262.718-.98 1.242-1.242.37-.185.949.292 1.242 0 .292-.293-.293-.95 0-1.242.292-.293.871.185 1.242 0 .523-.262.718-.98 1.241-1.242.37-.185.95.293 1.242 0 .293-.293-.292-.95 0-1.242.414-.414 2.07.414 2.484 0 .293-.293-.293-.95 0-1.242.293-.293.95.293 1.242 0 .293-.293-.293-.95 0-1.242.414-.414 2.07.414 2.484 0 .293-.293-.293-.95 0-1.242.293-.293.95.293 1.242 0 .293-.293-.293-.949 0-1.242.293-.292.872.185 1.242 0 .523-.262.718-.98 1.242-1.242.74-.37 1.898.586 2.484 0 .292-.292-.293-.949 0-1.242.292-.292.949.293 1.241 0 .293-.292-.292-.949 0-1.241.293-.293.872.185 1.242 0 .524-.262.719-.98 1.242-1.242.37-.186.95.292 1.242 0 .293-.293-.293-.95 0-1.242.293-.293.872.185 1.242 0 .524-.262.718-.98 1.242-1.242.37-.185.95.293 1.242 0 .293-.293-.293-.95 0-1.242.414-.414 2.07.414 2.484 0 .292-.293-.293-.95 0-1.242.292-.293.949.293 1.242 0 .292-.293-.293-.95 0-1.242.585-.585 1.898.585 2.483 0 .293-.293-.292-.95 0-1.242.293-.293 1.242-.414 1.242 0s-1.655 0-1.242 0h2.484c.414 0 .95.293 1.242 0 .293-.293-.292-.95 0-1.242.254-.254 3.234.246 3.726 0 .524-.262.718-.98 1.242-1.242.74-.37 1.743.37 2.484 0 .523-.262.718-.98 1.242-1.242.74-.37 1.898.586 2.483 0 .293-.292-.37-1.056 0-1.242.741-.37 1.656 0 2.484 0 .414 0 .95.293 1.242 0 .293-.292-.293-.949 0-1.241.621-.621 3.105.62 3.726 0 .293-.293-.293-.95 0-1.242.299-.3 4.669.298 4.968 0 .292-.293-.293-.95 0-1.242.292-.293.828 0 1.242 0h42.225c.456 0 4.917-.05 4.967 0 .293.292-.292.949 0 1.242.254.254 3.234-.247 3.726 0 .524.261.718.98 1.242 1.242.37.185.872-.186 1.242 0 .524.261.718.98 1.242 1.241.74.37 1.743-.37 2.484 0 .523.262.718.98 1.242 1.242.74.37 1.898-.585 2.484 0 .292.293-.293.95 0 1.242.62.621 3.104-.62 3.725 0 .293.293-.292.95 0 1.242.293.293.828 0 1.242 0h1.242c.301 0 3.686.04 3.726 0 .293-.293-.293-.949 0-1.242.293-.292.949.293 1.242 0 .292-.292-.185-.871 0-1.242.262-.523.98-.718 1.242-1.242.185-.37-.293-.949 0-1.241.292-.293.949.292 1.242 0 .292-.293-.293-.95 0-1.242.292-.293.949.292 1.241 0 .293-.293-.292-.95 0-1.242.293-.293.95.292 1.242 0 .293-.293-.292-.95 0-1.242.586-.586 1.899.585 2.484 0 .293-.293-.292-.95 0-1.242.293-.293.95.293 1.242 0 .293-.293-.293-.95 0-1.242.414-.414 2.07.414 2.484 0 .293-.293-.293-.95 0-1.242.62-.62 3.105.621 3.726 0 .292-.293-.293-.95 0-1.242.585-.585 1.898.586 2.484 0 .292-.293-.293-.95 0-1.242.292-.293.949.293 1.241 0 .293-.293-.292-.949 0-1.242.293-.292.95.293 1.242 0 .293-.292-.292-.949 0-1.242.293-.292.872.186 1.242 0 .524-.261.719-.98 1.242-1.242.37-.185.95.293 1.242 0 .293-.292-.293-.949 0-1.241.293-.293.95.292 1.242 0 .293-.293-.293-.95 0-1.242 2.57-2.57-.1 3.926 2.484-1.242.185-.37-.293-.95 0-1.242.293-.293.95.293 1.242 0 .293-.293-.293-.95 0-1.242.293-.293.949.293 1.242 0 .585-.586-.586-1.898 0-2.484.292-.293.949.293 1.242 0 .585-.585-.586-1.898 0-2.484.292-.292.949.293 1.242 0 .414-.414-.415-2.07 0-2.484.292-.292.949.293 1.241 0 .586-.585-.585-1.898 0-2.483.293-.293.95.292 1.242 0 .298-.298-.282-4.968 0-4.968.414 0-.414 1.242 0 1.242 1.535 0 1.242-1.742 1.242-2.484 3.116 1.358 5.58 1.242 8.694 1.242h12.419c.414 0 1.242-.414 1.242 0s-1.656 0-1.242 0c.828 0 1.743.37 2.484 0 .37-.185-.293-.95 0-1.242.292-.293.949.293 1.242 0 .292-.293-.293-.95 0-1.242.292-.293.949.293 1.242 0 .292-.293-.293-.95 0-1.242.292-.293.949.293 1.241 0 .293-.293-.292-.95 0-1.242.293-.293.95.293 1.242 0 .293-.293-.292-.949 0-1.242.293-.292.95.293 1.242 0 .586-.585-.585-1.898 0-2.484.293-.292.95.293 1.242 0 .293-.292-.292-.949 0-1.241.293-.293.95.292 1.242 0 .293-.293-.293-.95 0-1.242.293-.293.95.292 1.242 0 .293-.293-.293-.95 0-1.242.293-.293.95.292 1.242 0 .293-.293-.293-.95 0-1.242.293-.293.95.293 1.242 0 .293-.293-.293-.95 0-1.242.293-.293.872.185 1.242 0 .523-.262.718-.98 1.242-1.242.37-.185.949.293 1.242 0 .292-.293-.293-.95 0-1.242.292-.293.949.293 1.242 0 .292-.293-.186-.872 0-1.242.261-.524.827-.828 1.241-1.242.414-.414.719-.98 1.242-1.242.37-.185.95.293 1.242 0 .293-.292-.292-.949 0-1.242.293-.292.95.293 1.242 0 .293-.292-.293-.949 0-1.242.586-.585 1.899.586 2.484 0 .293-.292-.293-.949 0-1.241.293-.293.95.292 1.242 0 .293-.293-.293-.95 0-1.242.414-.414 2.07.414 2.484 0 .293-.293-.293-.95 0-1.242.293-.293.949.292 1.242 0 .292-.293-.293-.95 0-1.242.292-.293.949.293 1.242 0 .292-.293-.293-.95 0-1.242.292-.293.828 0 1.242 0 .88 0 7.13-.16 7.451 0 .524.262.718.98 1.242 1.242.492.246 3.472-.254 3.726 0 .292.293-.293.949 0 1.242.414.414 2.07-.414 2.484 0 .292.292-.293.949 0 1.242.04.04 3.424 0 3.725 0h28.564c.414 0 1.242-.414 1.242 0s-1.242-.414-1.242 0c0 .485 2.327 1.398 1.242 2.483-.292.293-.949-.292-1.242 0-.292.293.293.95 0 1.242-.292.293-.949-.292-1.242 0-.292.293.186.872 0 1.242-.261.524-.98.719-1.241 1.242-.186.37.292.95 0 1.242-.293.293-.95-.293-1.242 0-.293.293.292.95 0 1.242-.293.293-.95-.293-1.242 0-.293.293.185.872 0 1.242-.262.524-.98.718-1.242 1.242-.185.37.293.95 0 1.242-.293.293-.95-.293-1.242 0-.293.293.293.949 0 1.242-.293.292-.95-.293-1.242 0-.293.292.293.949 0 1.242-.293.292-.95-.293-1.242 0-.293.292.185.871 0 1.242-.497.993-1.987 1.49-2.484 2.483-.185.37.293.95 0 1.242-.293.293-.949-.292-1.242 0-.292.293.293.95 0 1.242-.292.293-.949-.293-1.242 0-.292.293.186.872 0 1.242-.261.524-.98.718-1.242 1.242-.185.37.293.95 0 1.242-.292.293-.949-.293-1.241 0-.586.585.585 1.898 0 2.484-1.656 1.656-1.242-2.07-1.242 1.242v2.484c0-.828.828-2.484 0-2.484-.926 0-.95 1.605-1.242 2.484-.285.854.366 2.993 0 3.725-1.535 3.07-1.242-.428-1.242 2.484 0 1.242-.393 2.548 0 3.726.13.393.828 0 1.242 0h40.983-2.484c4.14 0 3.726 1.242 3.726-1.242 1.656.414 3.294.907 4.967 1.242 1.118.223 2.584 0 3.726 0h8.694c.559 0 3.347-.19 3.725 0 .524.262.719.98 1.242 1.242.321.16 6.572 0 7.452 0 .414 0 .949-.293 1.242 0 .292.293-.293.949 0 1.242.292.292.828 0 1.242 0h21.112c.414 0 .95-.293 1.242 0 .293.292-.293.949 0 1.242.293.292.95-.293 1.242 0 .293.292 0 .828 0 1.242 0 .88.16 7.13 0 7.451-.262.524-.98.718-1.242 1.242-.37.74.586 1.898 0 2.484-.293.293-.949-.293-1.242 0-.292.293 0 .828 0 1.242v1.242c0 2.912.293-.586-1.242 2.483-.185.37 0 .828 0 1.242v4.968c0 .414-.292.95 0 1.242.293.293.95-.293 1.242 0 .293.293-.292.95 0 1.242.293.293.828 0 1.242 0 .864 0 5.76-.225 6.21 0 .523.262.718.98 1.242 1.242.492.246 3.472-.254 3.725 0 .293.293-.292.949 0 1.242.621.62 3.105-.621 3.726 0 .293.292-.293.949 0 1.242.299.298 4.669-.3 4.968 0 .293.292-.293.949 0 1.242.62.62 3.105-.621 3.726 0 .292.292-.293.949 0 1.241.62.621 3.104-.62 3.725 0 .293.293-.292.95 0 1.242.293.293.95-.292 1.242 0 .293.293.414 1.242 0 1.242s0-1.656 0-1.242v2.484c0 .414.293.95 0 1.242-.292.293-.949-.293-1.242 0-.585.586.37 1.743 0 2.484-.261.524-.98.718-1.242 1.242-.189.378 0 3.166 0 3.726 0 .65-.163 4.64 0 4.967.262.524.719.98 1.242 1.242.74.37 1.899-.585 2.484 0 .293.293-.293.95 0 1.242.04.04 3.425 0 3.726 0 .56 0 3.348-.189 3.726 0 .523.262.718.98 1.242 1.242.32.16 6.57 0 7.451 0 .414 0 .872-.185 1.242 0 .524.262.718.98 1.242 1.242.74.37 1.898-.585 2.484 0 .292.293-.293.95 0 1.242.299.299 4.669-.299 4.967 0 .293.293-.292.95 0 1.242.586.585 1.744-.37 2.484 0 .524.262.719.98 1.242 1.242.74.37 1.899-.586 2.484 0 .293.292-.293.949 0 1.242.585.585 1.743-.37 2.484 0 .523.261.718.98 1.242 1.242.74.37 1.898-.586 2.484 0 .292.292-.293.949 0 1.241.62.621 3.104-.62 3.725 0 .293.293-.292.95 0 1.242.254.254 3.234-.246 3.726 0 .524.262.718.98 1.242 1.242.37.185.95-.292 1.242 0 .293.293-.293.95 0 1.242.293.293.95-.293 1.242 0 .293.293-.293.95 0 1.242.414.414 2.07-.414 2.484 0 .292.293-.293.95 0 1.242.292.293.949.293 1.242 0 .292-.293-.293-.95 0-1.242.292-.293.949.293 1.242 0 .292-.293-.293-.95 0-1.242.292-.293.949.293 1.241 0 2.57-2.57-3.926.1 1.242-2.484.37-.185.95.293 1.242 0 .293-.292-.292-.949 0-1.242.293-.292.95.293 1.242 0 .293-.292-.293-.949 0-1.241.293-.293.872.185 1.242 0 .524-.262.718-.98 1.242-1.242.37-.185.95.292 1.242 0 0-3.312-.414.414 1.242-1.242.293-.293-.414-1.242 0-1.242 1.827 0-2.877 4.119 1.242 0 1.656.828 3.486 1.373 4.967 2.484.332.248-.292.949 0 1.242.621.62 3.105-.621 3.726 0 .293.292-.293.949 0 1.241.293.293.95-.292 1.242 0 .293.293-.293.95 0 1.242.293.293.95-.292 1.242 0 .124.125.124 3.602 0 3.726-.293.293-.95-.293-1.242 0-.056.056 0 5.624 0 6.21 0 .3.04 3.686 0 3.725-.293.293-.95-.292-1.242 0-.293.293 0 .828 0 1.242 0 .65-.163 4.641 0 4.968.262.524.98.718 1.242 1.242.39.78-.39 4.187 0 4.968.262.523.98.718 1.242 1.242.16.32 0 6.57 0 7.451 0 .414-.293.95 0 1.242.293.293.95-.293 1.242 0 .585.585-.37 1.743 0 2.484.262.523.98.718 1.242 1.242.37.74-.586 1.898 0 2.484.293.292.949-.293 1.242 0 .414.414-.414 2.07 0 2.483.292.293.949-.292 1.242 0 .298.3-.3 4.67 0 4.968.292.293.949-.293 1.242 0 .413.414-.414 2.07 0 2.484.292.293.949-.293 1.241 0 .293.293-.292.95 0 1.242.293.293.95-.293 1.242 0 .586.585-.585 1.898 0 2.484.293.292 1.242.414 1.242 0 0-.586-1.242-1.828-1.242-1.242 0 1.786 2.996 3.725 1.242 3.725-.414 0-.414-1.241 0-1.241 2.585 0 .5 1.741 1.242 2.483.293.293 1.242-.414 1.242 0s-1.242-.414-1.242 0c0 .586.98.719 1.242 1.242.19.378 0 3.167 0 3.726v8.693c0 .586.056 6.154 0 6.21-.293.293-1.242.414-1.242 0 0-.585 1.242-1.827 1.242-1.242 0 .926-.949 1.606-1.242 2.484-.13.393.293.95 0 1.242-.292.293-.949-.293-1.242 0-.292.293.293.949 0 1.242-.62.62-3.104-.621-3.725 0-.293.292.292.949 0 1.242-.586.585-1.899-.586-2.484 0-.293.292.292.949 0 1.242-.586.585-1.899-.586-2.484 0-.293.292.293.949 0 1.242-.586.585-1.743-.37-2.484 0-.524.261-.718.98-1.242 1.241-.37.186-.949-.292-1.242 0-.292.293.293.95 0 1.242-.62.621-3.105-.62-3.726 0-.292.293.293.95 0 1.242-.585.586-1.898-.585-2.483 0-.293.293.292.95 0 1.242-.293.293-.95-.293-1.242 0-.293.293.292.95 0 1.242-.586.586-1.899-.585-2.484 0-.293.293.293.95 0 1.242-.414.414-2.07-.414-2.484 0-.293.293.293.95 0 1.242-.585.585-1.898-.586-2.484 0 0 3.312.414-.414-1.242 1.242-.292.293.293.949 0 1.242-.414.414-2.07-.414-2.483 0-.293.292.292.949 0 1.242-3.312 0 .413-.414-1.242 1.242-.293.292-.95-.293-1.242 0-.293.292.292.949 0 1.241-.293.293-.95-.292-1.242 0-.293.293.292.95 0 1.242-.586.586-1.899-.585-2.484 0-.293.293.293.95 0 1.242-.293.293-.95-.292-1.242 0-.293.293.293.95 0 1.242-.293.293-.872-.185-1.242 0-.524.262-.718.98-1.242 1.242-.37.185-.949-.293-1.242 0-.292.293.293.95 0 1.242-.413.414-2.07-.414-2.484 0-.292.293.293.95 0 1.242-.585.585-1.898-.585-2.483 0-.293.293.292.95 0 1.242-.415.414-2.07-.414-2.484 0-.293.293.292.95 0 1.242-.621.62-3.105-.621-3.726 0-1.656 1.656 2.07 1.242-1.242 1.242h-1.242c-.414 0-.949-.293-1.242 0-.292.293.293.949 0 1.242-.299.299-4.669-.3-4.967 0-.293.292.292.949 0 1.242-.254.253-3.234-.247-3.726 0-.524.261-.718.98-1.242 1.242-.858.428-5.774-.436-6.21 0-.292.292.293.949 0 1.241-.62.621-3.104-.62-3.725 0-.293.293.292.95 0 1.242-.586.586-1.744-.37-2.484 0-.524.262-.719.98-1.242 1.242-.74.37-1.743-.37-2.484 0-.524.262-.718.98-1.242 1.242-.74.37-1.898-.585-2.484 0-.292.293.293.95 0 1.242-.292.293-.828 0-1.242 0h-2.483c-.414 0-.95-.293-1.242 0-.293.293.292.95 0 1.242-.3.299-4.67-.299-4.968 0-.293.293.293.95 0 1.242-.299.299-4.669-.299-4.968 0-.292.293.293.95 0 1.242-.414.414-2.07-.414-2.484 0-.292.293.293.95 0 1.242-.436.436-5.351-.43-6.21 0-.523.262-.717.98-1.241 1.242-.994.496-2.732-.497-3.726 0-.523.262-.718.98-1.242 1.242-.492.246-3.472-.254-3.725 0-.293.292.292.949 0 1.242-.3.298-4.67-.3-4.968 0-.293.292.293.949 0 1.241-.586.586-1.743-.37-2.484 0-.524.262-.718.98-1.242 1.242-.37.185-.95-.292-1.242 0-.293.293.293.95 0 1.242-.293.293-.871-.185-1.242 0-.523.262-.718.98-1.242 1.242-.37.185-.949-.293-1.242 0-.292.293.293.95 0 1.242-.585.586-1.743-.37-2.483 0-.524.262-.719.98-1.242 1.242-.78.39-4.187-.39-4.968 0-.524.262-.718.98-1.242 1.242-.74.37-1.898-.586-2.484 0-.292.293.293.95 0 1.242-.62.62-3.105-.621-3.725 0-.293.293.292.949 0 1.242-.586.585-1.899-.586-2.484 0-.293.292.292.949 0 1.242-.04.04-3.425 0-3.726 0-3.312 0 .414-.414-1.242 1.242-.254.253-3.233-.247-3.726 0-4.119 4.119 1.171-.586-2.484 1.242-.523.261-.718.98-1.241 1.241-.37.186-.95-.292-1.242 0-.293.293.292.95 0 1.242-.293.293-.872-.185-1.242 0-.524.262-.719.98-1.242 1.242-.493.246-3.472-.254-3.726 0-.293.293.293.95 0 1.242-.293.293-.828 0-1.242 0-.864 0-5.76-.224-6.21 0-.523.262-.718.98-1.241 1.242-.493.246-3.472-.254-3.726 0-.293.293.293.95 0 1.242-.293.293-.95-.293-1.242 0-.293.293 0 .828 0 1.242v3.726c0 .414.414 1.242 0 1.242s0-.828 0-1.242c-.414.828-.587 1.829-1.242 2.483-.05.05-4.512 0-4.968 0h-6.21c-.413 0-.948.293-1.241 0-2.913-2.912 3.826 0 1.242 0-.926 0-1.606-.949-2.484-1.241-.393-.131-1.242.414-1.242 0s1.656 0 1.242 0h-8.693 2.483-3.725c-.414 0-.95-.293-1.242 0-.293.292.292.949 0 1.241-.293.293-.828 0-1.242 0-.414 0-1.242.414-1.242 0 0-.585.828-.827 1.242-1.241h-6.21c0-.414.293-.95 0-1.242-.585-.586-1.898.585-2.484 0-.292-.293.293-.95 0-1.242-.292-.293-.949.292-1.241 0-.293-.293.292-.95 0-1.242-.293-.293-.872.185-1.242 0-.524-.262-.719-.98-1.242-1.242-.37-.185-.95.293-1.242 0-.293-.293.292-.95 0-1.242-.293-.293-.95.293-1.242 0-.293-.293.293-.95 0-1.242-.293-.293-.95.293-1.242 0-.293-.293.293-.95 0-1.242-.414-.413-2.07.414-2.484 0-.293-.293.293-.949 0-1.242-.293-.292-.872.185-1.242 0-.524-.262-.718-.98-1.242-1.242-.37-.185-.949.293-1.242 0-.292-.292.293-.949 0-1.242-.292-.292-.871.186-1.242 0-.523-.261-.718-.98-1.242-1.241-.37-.186-.949.292-1.241 0-.293-.293.292-.95 0-1.242-.293-.293-.95.292-1.242 0 0-3.312.414.414-1.242-1.242-.293-.293.292-.95 0-1.242-.414-.414-2.07.414-2.484 0-.293-.293.293-.95 0-1.242-.293-.293-.95.293-1.242 0-.293-.293.293-.95 0-1.242-.414-.414-2.07.414-2.484 0-.293-.293.293-.95 0-1.242-.585-.585-1.898.585-2.484 0-.292-.293.293-.95 0-1.242-.292-.293-.828 0-1.242 0h-2.483 2.483-4.967c-.414 0-.95-.293-1.242 0-.293.293.293.95 0 1.242-.414.414-2.07-.414-2.484 0-.293.293.293.95 0 1.242-.414.414-2.07-.414-2.484 0-.293.293.293.95 0 1.242-.62.62-3.105-.621-3.726 0-.292.293.186.871 0 1.242-.261.523-.98.718-1.242 1.242-.185.37.293.949 0 1.242-.292.292-.949-.293-1.241 0-.293.292.292.949 0 1.242-.293.292-.95-.293-1.242 0-.293.292.185.871 0 1.241-.262.524-.98.719-1.242 1.242-.185.37.292.95 0 1.242-.293.293-.95-.292-1.242 0-.293.293.185.872 0 1.242-.262.524-.98.718-1.242 1.242-.37.74.585 1.898 0 2.484-.293.293-.95-.293-1.242 0-.293.293.185.872 0 1.242-.262.523-.98.718-1.242 1.242-.185.37.293.949 0 1.242-.293.292-.95-.293-1.242 0-.585.585.586 1.898 0 2.483-.293.293-.949-.292-1.242 0-.292.293.185.872 0 1.242-.262.524-.98.719-1.242 1.242-.185.37.293.95 0 1.242-.292.293-.949-.292-1.242 0-.585.586.586 1.899 0 2.484-.292.293-.949-.293-1.242 0-.585.586.586 1.899 0 2.484-.292.293-.949-.293-1.241 0-.586.585.37 1.743 0 2.484-.262.523-.98.718-1.242 1.242-.186.37 0 .828 0 1.242-.414.414-.98.718-1.242 1.242-.185.37.292.949 0 1.241-.293.293-.95-.292-1.242 0-.414.415.414 2.07 0 2.484-.293.293-.95-.292-1.242 0-.414.414.414 2.07 0 2.484-.293.293-.95-.293-1.242 0-.585.586.585 1.898 0 2.484-.293.293-.95-.293-1.242 0-.585.585.37 1.743 0 2.484-4.119 4.119.585-1.171-1.242 2.484-.262.523-.98.718-1.242 1.242-.185.37 0 .827 0 1.241-.414.414-.98.719-1.242 1.242-.37.74.586 1.899 0 2.484-.292.293-.949-.293-1.242 0-.585.586.586 1.899 0 2.484-.292.293-.949-.293-1.242 0-.585.585.586 1.898 0 2.484-.292.293-.949-.293-1.241 0 0 3.312.414-.414-1.242 1.242-.293.292.292.949 0 1.242-.621.62-3.105-.621-3.726 0-.293.292.293.949 0 1.242-.293.292-.828 0-1.242 0h-9.935c-.414 0-.95.292-1.242 0-.293-.293.292-.95 0-1.242-.293-.293-.828 0-1.242 0h-14.903 2.484c-1.242 0-2.521.3-3.726 0-.568-.142-.718-.98-1.242-1.242-.37-.185-.828 0-1.242 0h-12.419c.828 0 2.484-.828 2.484 0 0 1.427-2.835 1.242-3.726 1.242-.414 0-1.242.414-1.242 0s1.656 0 1.242 0c-.828 0-1.743-.37-2.484 0-.74.37.37 1.743 0 2.483-.262.524-.828.828-1.242 1.242-6.93-4.137-5.708 3.476-8.693 4.968-.37.185-.95-.293-1.242 0-.293.293.293.95 0 1.242-.293.293-.872-.185-1.242 0-.524.262-.718.98-1.242 1.242-.37.185-.95-.293-1.242 0-.293.293.293.95 0 1.242-.293.293-.872-.185-1.242 0-.523.262-.718.98-1.242 1.242-.37.185-.949-.293-1.242 0 0 3.312.414-.414-1.242 1.242-.292.292.293.949 0 1.242-.292.292-.871-.186-1.241 0-.524.261-.719.98-1.242 1.241-.37.186-.95-.292-1.242 0-.293.293.292.95 0 1.242-.414.414-2.07-.414-2.484 0-.293.293.293.95 0 1.242-.293.293-.95-.292-1.242 0-.293.293.293.95 0 1.242-.293.293-.95-.292-1.242 0-.293.293.293.95 0 1.242-.293.293-.95-.293-1.242 0-.293.293 0 .828 0 1.242-.414 0-.871-.185-1.242 0-5.168 2.584 1.328-.086-1.242 2.484-.292.293-.949-.293-1.242 0-.292.293.293.95 0 1.242-.292.293-.871-.185-1.242 0-.575.287-4.237 4.237-4.967 4.968-.414.413-.718.98-1.242 1.241-.37.186-.828 0-1.242 0-.414.414-.718.98-1.242 1.242-.37.185-.95-.292-1.242 0-.293.293.293.95 0 1.242-.293.293-.871-.185-1.242 0-.523.262-.718.98-1.242 1.242-.37.185-.949-.293-1.242 0-.292.293.293.95 0 1.242-.585.586-1.898-.585-2.483 0-.293.293.292.95 0 1.242-.414.414-2.07-.414-2.484 0-.293.293.292.95 0 1.242-.293.293-.872-.185-1.242 0-.524.262-.718.98-1.242 1.242-.37.185-.95-.293-1.242 0-.293.293.293.949 0 1.242-.293.292-.95-.293-1.242 0-.293.292.293.949 0 1.242-.414.414-2.07-.414-2.484 0-.293.292.293.949 0 1.242-.293.292-.949-.293-1.242 0-.292.292.293.949 0 1.242-.292.292-.871-.186-1.242 0-.523.261-.718.98-1.242 1.241-.37.186-.949-.292-1.241 0-.293.293.292.95 0 1.242-.293.293-.95-.292-1.242 0-.293.293.292.95 0 1.242-.293.293-.872-.185-1.242 0-1.048.524-1.437 1.96-2.484 2.484-.37.185-.95-.293-1.242 0-.293.293.293.95 0 1.242-.293.293-.872-.185-1.242 0-.524.262-.718.98-1.242 1.242-.37.185-.949-.293-1.242 0-.292.293.293.95 0 1.242-.292.293-.949-.293-1.242 0-.292.293.293.949 0 1.242-.585.585-1.898-.586-2.484 0-.292.292.293.949 0 1.242-.292.292-.871-.185-1.241 0-.524.261-.719.98-1.242 1.242-.37.185-.95-.293-1.242 0-.293.292.292.949 0 1.241-.293.293-.95-.292-1.242 0-.293.293.293.95 0 1.242-.293.293-.95.293-1.242 0-.293-.292.293-.949 0-1.242-.293-.292-.95.293-1.242 0-.293-.292.293-.949 0-1.241-.293-.293-.95.292-1.242 0-.293-.293.293-.95 0-1.242-.293-.293-.95.292-1.242 0-.293-.293.293-.95 0-1.242-.05-.05-4.511 0-4.967 0h-1.242c-.414 0-.95.292-1.242 0-.293-.293.292-.95 0-1.242-.3-.299-4.67.299-4.968 0-.293-.293.293-.95 0-1.242-.293-.293-.828 0-1.242 0h-27.322c-.414 0-.95.293-1.242 0-.293-.293.293-.95 0-1.242-.293-.293-.828 0-1.242 0h-2.484c-.414 0-.949.293-1.242 0-.292-.293.293-.95 0-1.242-.292-.293-.828 0-1.242 0h-3.725 2.483c-11.59 0-1.241 1.242-3.725-1.242-.04-.04-3.425 0-3.726 0-.414 0-.95-.293-1.242 0-.293.293.293.95 0 1.242-.293.293-.95-.293-1.242 0-.293.293.293.95 0 1.242-.293.293-.871-.185-1.242 0-.523.262-.718.98-1.242 1.242-.37.185-1.242.414-1.242 0s1.242-.414 1.242 0c0 .585-.718.98-1.242 1.242-.37.185-.949-.293-1.241 0-.293.293 0 .828 0 1.242v6.21c0 .413.292.949 0 1.241-.293.293-.95-.292-1.242 0-.586.586.585 1.899 0 2.484-.293.293-.95-.293-1.242 0-.293.293.292.95 0 1.242-.293.293-.95-.293-1.242 0-.293.293.185.872 0 1.242-.262.524-.98.718-1.242 1.242-.185.37.293.949 0 1.242-.293.292-.95-.293-1.242 0-.293.292.293.949 0 1.242-.293.292-.95-.293-1.242 0-.293.292.293.949 0 1.242-.293.292-.828 0-1.242 0 0 .414.185.871 0 1.241-.262.524-.98.719-1.242 1.242-.185.37.293.95 0 1.242-1.827 0-.949-.292-2.484 1.242-.654.654-3.062 3.394-3.725 3.726-.37.185-.95-.293-1.242 0-.293.293 0 .828 0 1.242-.414 0-.95-.293-1.242 0-.293.293.292.95 0 1.242-.3.299-4.669-.299-4.968 0-.293.293.293.949 0 1.242-.414.413-2.07-.414-2.484 0-.292.292.293.949 0 1.242-.414.414-2.07-.414-2.484 0-.292.292.293.949 0 1.242-.292.292-.871-.186-1.242 0-.523.261-.718.98-1.241 1.242-.37.185-.95-.293-1.242 0-.293.292.292.949 0 1.241-.293.293-.872-.185-1.242 0-.524.262-.719.98-1.242 1.242-.74.37-1.899-.585-2.484 0-.293.293.293.95 0 1.242-.293.293-.95-.292-1.242 0-.293.293.293.95 0 1.242-.293.293-.872-.185-1.242 0-1.49.745-2.235 2.98-3.726 3.726-.37.185-.949-.293-1.241 0-.293.293.292.95 0 1.242-.415.414-2.07-.414-2.484 0 0 3.312.414-.414-1.242 1.242-.293.292.292.949 0 1.242-.414.414-2.07-.414-2.484 0-.293.292.293.949 0 1.242-.293.292-1.242.414-1.242 0s1.656 0 1.242 0c-7.038 0-.414-.828-2.484 1.241-.293.293-.95-.292-1.242 0-.293.293.293.95 0 1.242-.293.293-.949-.292-1.242 0-.292.293.293.95 0 1.242-.292.293-.949-.292-1.242 0-.292.293.293.95 0 1.242-.292.293-.828 0-1.242 0h-2.483 2.483c-11.59 0-1.241 1.242-3.725-1.242-.586-.585-1.744.37-2.484 0-.524-.261-.718-.98-1.242-1.242-.674-.336-4.628.34-4.968 0-.292-.292.293-.949 0-1.242-.62-.62-3.105.621-3.725 0-.293-.292-.414-1.241 0-1.241.585 0 1.827 1.241 1.241 1.241-.925 0-1.829-.587-2.483-1.241-.293-.293.828 0 1.242 0h1.241l-3.725 1.241c0 .414.292.95 0 1.242-.414.414-2.07-.414-2.484 0-.293.293.293.95 0 1.242-.293.293-.872-.185-1.242 0-.524.262-.718.98-1.242 1.242-.37.185-.95-.292-1.242 0-.293.293.293.95 0 1.242-.293.293-.95-.293-1.242 0-.293.293.185.872 0 1.242-.262.524-.98.718-1.242 1.242-.185.37.293.95 0 1.242-.292.293-.949-.293-1.242 0-.292.293.293.95 0 1.242-.292.293-.949-.293-1.242 0-.292.293.293.949 0 1.242-.292.292-.949-.293-1.241 0 0 3.312.413-.414-1.242 1.242-.293.292.185.871 0 1.242-.262.523-.98.718-1.242 1.241-.185.37.292.95 0 1.242-.293.293-.95-.292-1.242 0-.293.293.292.95 0 1.242-.293.293-.95-.292-1.242 0-.293.293.185.872 0 1.242-.524 1.047-1.96 1.437-2.484 2.484-.185.37.293.95 0 1.242-.293.293-.95-.293-1.242 0-.293.293.293.95 0 1.242-.293.293-.95-.293-1.242 0-.293.293.293.95 0 1.242-.293.293-.949-.293-1.242 0 0 3.312.414-.414-1.242 1.242-.292.292.293.949 0 1.242-.292.292-.949-.293-1.242 0-.292.292.186.871 0 1.242-.261.523-.98.718-1.241 1.241-.186.37.292.95 0 1.242-.293.293-.95-.292-1.242 0-.293.293.292.95 0 1.242-.293.293-.95-.292-1.242 0-.293.293.292.95 0 1.242-.293.293-1.242.414-1.242 0 0-.585 1.242-1.827 1.242-1.242 0 6.274-.955.955-2.484 2.484-.293.293.293.95 0 1.242-.293.293-.95-.293-1.242 0-.293.293.293.95 0 1.242-.293.293-.95-.293-1.242 0 0 3.312.414-.414-1.242 1.242-.585.585.586 1.898 0 2.484-.293.293-.828 0-1.242 0-.414 0-1.242.414-1.242 0s1.242-.414 1.242 0c0 .585-.718.98-1.242 1.242-.37.185-.828 0-1.242 0h-1.242c-.3 0-3.685-.04-3.725 0-.293.292.292.949 0 1.242-.293.292-.872-.186-1.242 0-4.12 4.118 1.17-.586-2.484 1.242-.524.261-.718.98-1.242 1.241-.37.186-.95-.292-1.242 0-.293.293.293.95 0 1.242-.414.414-2.07-.413-2.484 0-.292.293.293.95 0 1.242-.585.586-1.898-.585-2.484 0-.292.293.293.95 0 1.242-.292.293-.949-.293-1.241 0-.293.293.292.95 0 1.242-.586.586-1.899-.585-2.484 0-.293.293.292.95 0 1.242-.293.293-.95-.293-1.242 0-.293.293.292.95 0 1.242-.293.293-.95-.293-1.242 0-.293.293.293.95 0 1.242-.293.293-.872-.185-1.242 0-1.047.523-1.437 1.96-2.484 2.484-.37.185-.95-.293-1.242 0-.293.292.293.949 0 1.242-.293.292-.949-.293-1.242 0-.292.292.185.871 0 1.241-.262.524-.98.719-1.242 1.242-.185.37.293.95 0 1.242-.292.293-.949-.292-1.242 0-.292.293 0 .828 0 1.242-.414 0-.949-.292-1.241 0-.586.586.585 1.899 0 2.484-.293.293-.95-.293-1.242 0-.293.293.292.95 0 1.242-.293.293-.95-.293-1.242 0-.293.293.185.872 0 1.242-.262.524-.98.718-1.242 1.242-.185.37.292.949 0 1.242-.293.292-.95-.293-1.242 0-.293.292.293.949 0 1.242-.293.292-.95-.293-1.242 0-.293.292.293.949 0 1.242-.293.292-.95-.293-1.242 0-.293.292.293.949 0 1.241-.293.293-.95-.292-1.242 0-.293.293 0 .829 0 1.242l-3.726 2.484z" fill="none" stroke="#000" stroke-width=".501"/></svg>