<?xml version="1.0" encoding="UTF-8" standalone="no"?>
<!-- Created with Inkscape (http://www.inkscape.org/) -->

<svg
   xmlns:dc="http://purl.org/dc/elements/1.1/"
   xmlns:cc="http://creativecommons.org/ns#"
   xmlns:rdf="http://www.w3.org/1999/02/22-rdf-syntax-ns#"
   xmlns:svg="http://www.w3.org/2000/svg"
   xmlns="http://www.w3.org/2000/svg"
   xmlns:sodipodi="http://sodipodi.sourceforge.net/DTD/sodipodi-0.dtd"
   xmlns:inkscape="http://www.inkscape.org/namespaces/inkscape"
   width="210mm"
   height="297mm"
   viewBox="0 0 744.09448819 1052.3622047"
   id="svg3357"
   version="1.1"
   inkscape:version="0.91 r13725"
   sodipodi:docname="steppes mouseover line.svg">
  <defs
     id="defs3359" />
  <sodipodi:namedview
     id="base"
     pagecolor="#ffffff"
     bordercolor="#666666"
     borderopacity="1.0"
     inkscape:pageopacity="0.0"
     inkscape:pageshadow="2"
     inkscape:zoom="0.35"
     inkscape:cx="375"
     inkscape:cy="520"
     inkscape:document-units="px"
     inkscape:current-layer="layer1"
     showgrid="false"
     inkscape:window-width="1366"
     inkscape:window-height="706"
     inkscape:window-x="-8"
     inkscape:window-y="-8"
     inkscape:window-maximized="1" />
  <metadata
     id="metadata3362">
    <rdf:RDF>
      <cc:Work
         rdf:about="">
        <dc:format>image/svg+xml</dc:format>
        <dc:type
           rdf:resource="http://purl.org/dc/dcmitype/StillImage" />
        <dc:title></dc:title>
      </cc:Work>
    </rdf:RDF>
  </metadata>
  <g
     inkscape:label="Layer 1"
     inkscape:groupmode="layer"
     id="layer1">
    <path
       style="fill:none;fill-rule:evenodd;stroke:#000000;stroke-width:0.50089353px;stroke-linecap:butt;stroke-linejoin:miter;stroke-opacity:1"
       d="m 40.419365,789.48227 c 1.443325,-3.40185 1.24191,-6.44943 1.24191,-9.93531 0,-0.41406 0.292729,-0.94923 0,-1.24194 -0.29272,-0.2927 -0.94919,0.29271 -1.24191,0 -0.29272,-0.2927 0,-0.82796 0,-1.24193 0,-2.48379 0,-4.96766 0,-7.45153 0,-0.41398 0.29272,-0.94915 0,-1.24186 -0.29272,-0.29278 -0.949191,0.29271 -1.241919,0 -0.29272,-0.29278 0,-0.82795 0,-1.24193 0,-2.89785 0,-5.7957 0,-8.69347 0,-0.41397 0,-0.82795 0,-1.24185 0,-0.41398 -0.29272,-0.94923 0,-1.24193 1.655905,-1.65592 1.241919,2.06981 1.241919,-1.24194 0,-2.89785 0,-5.79561 0,-8.69338 0,-0.55934 -0.188991,-3.34784 0,-3.72582 0.261813,-0.52363 0.980097,-0.71823 1.24191,-1.24191 0.185135,-0.37026 0,-0.82793 0,-1.24191 0,-0.41394 0,-0.82793 0,-1.24192 0,-2.48383 0,-4.96766 0,-7.45149 0,-0.41394 0,-0.82793 0,-1.24192 0,-0.41394 -0.29272,-0.94919 0,-1.24191 0.292729,-0.29273 0.949199,0.29272 1.241919,0 0.253904,-0.2539 -0.246192,-3.23332 0,-3.72575 0.261814,-0.52363 0.980097,-0.71828 1.241919,-1.24192 0.370254,-0.74051 -0.370262,-1.7433 0,-2.48383 0.261814,-0.52363 0.980097,-0.71828 1.241911,-1.24192 0.333197,-0.66633 -0.33314,-1.81748 0,-2.48383 0.261821,-0.52363 0.980097,-0.71827 1.241918,-1.24191 0.370262,-0.74052 -0.585448,-1.89839 0,-2.48383 0.292721,-0.29272 0.949191,0.29272 1.241911,0 0.620959,-0.62095 -0.620951,-3.10478 0,-3.72574 0.292728,-0.29273 0.949199,0.29272 1.241919,0 0.29272,-0.29273 -0.185127,-0.87166 0,-1.24192 0.261813,-0.52364 0.980097,-0.71829 1.241919,-1.24191 0.185126,-0.37026 -0.292729,-0.9492 0,-1.24192 0.29272,-0.29272 0.94919,0.29272 1.24191,0 0.585449,-0.58545 -0.58544,-1.89839 0,-2.48383 0.29272,-0.29272 0.949199,0.29272 1.241919,0 0.29272,-0.29272 -0.29272,-0.9492 0,-1.24192 0.29272,-0.29272 0.94919,0.29272 1.24191,0 0.292729,-0.29272 -0.29272,-0.94919 0,-1.24191 0.292729,-0.29273 0.949199,0.29272 1.241919,0 0.29272,-0.29273 -0.185127,-0.87166 0,-1.24192 0.261814,-0.52363 0.980097,-0.71828 1.241919,-1.24192 0.185127,-0.37025 -0.292728,-0.94919 0,-1.24191 0.29272,-0.29272 0.949191,0.29272 1.241911,0 0.29272,-0.29272 -0.29272,-0.9492 0,-1.24192 0.29272,-0.29272 0.94919,0.29272 1.241918,0 0.292721,-0.29272 -0.292728,-0.94919 0,-1.24191 0.292721,-0.29273 0.949191,0.29272 1.241911,0 0.292728,-0.29273 -0.29272,-0.9492 0,-1.24192 0.292728,-0.29272 0.871657,0.18513 1.241919,0 0.523685,-0.26181 0.718283,-0.98009 1.241919,-1.24192 0.370303,-0.18512 0.94919,0.29273 1.24191,0 0.29272,-0.29272 -0.29272,-0.94919 0,-1.24191 0.29272,-0.29272 0.949191,0.29272 1.241919,0 0.29272,-0.29272 -0.292728,-0.94919 0,-1.24191 0.29272,-0.29273 0.94924,0.29272 1.24196,0 0.292728,-0.29273 -0.29272,-0.9492 0,-1.24192 0.292728,-0.29272 0.949199,0.29272 1.241919,0 0.29272,-0.29272 -0.29272,-0.94919 0,-1.24191 0.29272,-0.29272 0.94919,0.29272 1.241919,0 0.29272,-0.29272 -0.292729,-0.94919 0,-1.24192 0.58544,-0.58544 1.89838,0.58545 2.483828,0 0.29272,-0.29272 -0.292719,-0.94919 0,-1.24191 0.29272,-0.29277 0.94919,0.29272 1.24191,0 0.29273,-0.29277 -0.29272,-0.94925 0,-1.24197 0.29273,-0.29272 0.87161,0.18518 1.24192,0 0.66329,-0.33164 3.07193,-3.07188 3.72575,-3.72575 0.41394,-0.41394 0.82792,-0.82792 1.24191,-1.24191 0.41394,-0.41394 0.71828,-0.9801 1.24192,-1.24192 0.37026,-0.18513 0.94919,0.29272 1.24191,0 0.29273,-0.29272 -0.29272,-0.94919 0,-1.24191 0.29273,-0.29273 0.9492,0.29272 1.24192,0 0.29272,-0.29273 0,-0.82793 0,-1.24192 0.41393,0 0.87165,0.18513 1.24192,0 0.32973,-0.16484 3.56084,-3.396 3.72574,-3.72575 0.18513,-0.37026 -0.29272,-0.94919 0,-1.24191 0.29272,-0.29273 0.94919,0.29272 1.24191,0 0.29272,-0.29273 -0.29272,-0.9492 0,-1.24192 0.29272,-0.29272 0.87166,0.18514 1.24192,0 0.52363,-0.26181 0.71828,-0.98009 1.24191,-1.24192 0.37027,-0.18512 0.9492,0.29273 1.24192,0 0.29272,-0.29272 -0.29272,-0.94919 0,-1.24191 0.29272,-0.29272 0.94919,0.29272 1.24191,0 0.29273,-0.29272 -0.29272,-0.94919 0,-1.24191 0.29273,-0.29272 0.87166,0.18513 1.24192,0 0.52364,-0.26182 0.71829,-0.9801 1.24192,-1.24192 0.37025,-0.18513 0.94919,0.29273 1.24191,0 0.29272,-0.29272 -0.29272,-0.94919 0,-1.24191 0.29272,-0.29272 0.9492,0.29272 1.24192,0 0.29272,-0.29272 -0.29272,-0.94919 0,-1.24191 0.29272,-0.29273 0.94919,0.29272 1.241909,0 0.29273,-0.29273 -0.292719,-0.9492 0,-1.24192 0.29273,-0.29272 0.9492,0.29272 1.24192,0 0.29272,-0.29272 -0.29272,-0.94919 0,-1.24192 0.29272,-0.29272 0.94919,0.29273 1.24192,0 0.29272,-0.29272 -0.29273,-0.94919 0,-1.24191 0.29272,-0.29272 0.94919,0.29272 1.24191,0 0.29272,-0.29272 -0.29272,-0.9492 0,-1.24192 0.29272,-0.29272 0.94919,0.29272 1.24192,0 0.29272,-0.29272 -0.29273,-0.94919 0,-1.24191 0.29272,-0.29273 0.94919,0.29272 1.24191,0 0.29273,-0.29273 -0.29272,-0.9492 0,-1.24192 0.29273,-0.29272 0.9492,0.29272 1.24192,0 0.29272,-0.29272 -0.29272,-0.94919 0,-1.24192 0.29272,-0.29272 0.82797,0 1.24192,0 0,-0.41399 -0.18514,-0.87165 0,-1.24191 0.26181,-0.52364 0.98009,-0.71828 1.24191,-1.24192 0.37026,-0.74051 -0.58544,-1.89838 0,-2.48383 1.6559,-1.6559 1.24192,2.06984 1.24192,-1.24192 0,-0.41398 -0.29273,-0.94919 0,-1.24191 0.29272,-0.29272 1.24191,-0.41398 1.24191,0 0,0.58544 -1.24191,1.82736 -1.24191,1.24191 0,-0.9257 0.94919,-1.60566 1.24191,-2.48383 0.23357,-0.70069 0,-2.90969 0,-3.72574 0,-0.41399 0.29272,-0.9492 0,-1.24192 -0.29272,-0.29272 -0.94919,0.29272 -1.24191,0 -0.58545,-0.58544 0.58544,-1.89838 0,-2.48382 -0.29273,-0.29273 -0.9492,0.29272 -1.24192,0 -0.29272,-0.29273 0.18513,-0.87166 0,-1.24192 -0.26182,-0.52364 -0.9801,-0.71829 -1.24191,-1.24191 -0.18514,-0.37027 0.29272,-0.9492 0,-1.24192 -0.29273,-0.29272 -0.9492,0.29272 -1.24192,0 -0.58545,-0.58545 0.58544,-1.89839 0,-2.48383 -0.29272,-0.29273 -0.94919,0.29272 -1.24192,0 -0.29272,-0.29273 0.29273,-0.9492 0,-1.24192 -0.29272,-0.29272 -0.94919,0.29272 -1.24191,0 0,-3.31181 0.41398,0.41394 -1.24192,-1.24191 -0.29272,-0.29273 0.18513,-0.87166 0,-1.24192 -0.16484,-0.32979 -3.39601,-3.56091 -3.72575,-3.7258 -0.370249,-0.18512 -0.949189,0.29272 -1.241909,0 -2.56958,-2.56953 3.926649,0.10048 -1.24192,-2.48383 -0.37026,-0.18513 -0.94919,0.29272 -1.24191,0 -0.29273,-0.29272 0.29272,-0.94919 0,-1.24192 -0.29273,-0.29272 -0.9492,0.29273 -1.24192,0 -0.29272,-0.29272 0.29272,-0.94919 0,-1.24191 -0.29272,-0.29272 -0.94919,0.29272 -1.24192,0 -0.29272,-0.29272 0.29273,-0.9492 0,-1.24192 -0.29272,-0.29272 -0.94919,0.29272 -1.24191,0 -0.29272,-0.29272 0.29272,-0.94919 0,-1.24191 -0.29272,-0.29272 -0.9492,0.29272 -1.24192,0 -0.29272,-0.29272 0.29272,-0.94919 0,-1.24191 -0.29272,-0.29272 -0.94919,0.29272 -1.24191,0 -0.29272,-0.29272 0.29272,-0.9492 0,-1.24192 -0.29272,-0.29272 -0.9492,0.29272 -1.24192,0 -0.29272,-0.29272 0.29272,-0.94919 0,-1.24191 -0.29272,-0.29273 -0.94919,0.29272 -1.24191,0 -0.29272,-0.29273 0.29272,-0.9492 0,-1.24192 -0.29272,-0.29272 -0.94919,0.29272 -1.24191,0 -0.29272,-0.29272 0.29272,-0.94919 0,-1.24191 -0.29272,-0.29273 -0.9492,0.29272 -1.24192,0 -0.29272,-0.29273 0.29272,-0.9492 0,-1.24192 -0.29272,-0.29272 -0.94919,0.29272 -1.24191,0 -0.29273,-0.29272 0,-0.82793 0,-1.24192 -0.414,0 -0.9492,0.29273 -1.24192,0 -0.29272,-0.29272 0.18512,-0.87165 0,-1.24191 -0.26182,-0.52364 -0.9801,-0.71829 -1.24192,-1.24192 -0.18513,-0.37026 0.29273,-0.94919 0,-1.24191 -0.29272,-0.29273 -0.94919,0.29272 -1.24191,0 -0.29272,-0.29273 0.29272,-0.9492 0,-1.24192 -0.29272,-0.29272 -0.94919,0.29272 -1.24192,0 -0.29272,-0.29272 0.29273,-0.94919 0,-1.24192 -0.29272,-0.29272 -0.94919,0.29273 -1.24191,0 -0.58545,-0.58544 0.58544,-1.89838 0,-2.48383 -0.29273,-0.29272 -0.9492,0.29272 -1.24192,0 -0.29272,-0.29272 0.29272,-0.94919 0,-1.24191 -0.29272,-0.29273 -0.94919,0.29272 -1.24191,0 -0.29273,-0.29273 0.29272,-0.9492 0,-1.24192 -0.29273,-0.29272 -1.24192,0.41399 -1.24192,0 0,-0.41398 1.24192,0.41399 1.24192,0 0,-0.58544 -0.65648,-1.24192 -1.24192,-1.24192 -0.41399,0 0.29272,0.9492 0,1.24192 -1.65591,1.65591 -1.24192,-2.06984 -1.24192,1.24192 15.8632,4.40916 3.09332,-4.33524 4.96767,-6.20958 0.29272,-0.29272 0.94919,0.29272 1.24191,0 0.29273,-0.29272 -0.18513,-0.87165 0,-1.24191 0.26182,-0.52364 0.9801,-0.71829 1.24192,-1.24192 0.18512,-0.37026 -0.29272,-0.94919 0,-1.24191 0.29272,-0.29272 0.94919,0.29272 1.24191,0 0.29273,-0.29272 -0.18513,-0.87166 0,-1.24192 0.26182,-0.52364 0.9801,-0.71828 1.24192,-1.24191 0.18512,-0.37027 -0.29272,-0.9492 0,-1.24192 0.29272,-0.29272 0.94919,0.29272 1.24192,0 0.29272,-0.29272 -0.18514,-0.87166 0,-1.24191 0.26181,-0.52364 0.98009,-0.71829 1.24191,-1.24192 0.18513,-0.37026 -0.29272,-0.94919 0,-1.24192 0.29272,-0.29272 0.9492,0.29273 1.24192,0 0.29272,-0.29272 -0.18514,-0.87165 0,-1.24191 0.52363,-1.04727 1.96019,-1.43657 2.48382,-2.48383 0.18513,-0.37026 -0.29272,-0.9492 0,-1.24192 0.29272,-0.29272 0.9492,0.29272 1.24192,0 0.29272,-0.29272 -0.18513,-0.87166 0,-1.24192 0.26182,-0.52363 0.9801,-0.71827 1.24191,-1.24191 0.18514,-0.37031 -0.29272,-0.9492 0,-1.24192 0.29272,-0.29272 0.9492,0.29272 1.24192,0 0.29272,-0.29272 -0.18513,-0.87165 0,-1.24191 0.26182,-0.52368 0.9801,-0.71828 1.24191,-1.24192 0.18514,-0.37031 -0.29272,-0.94919 0,-1.24192 0.29273,-0.29272 0.9492,0.29273 1.24192,0 0.29272,-0.29272 -0.18512,-0.87164 0,-1.24191 0.26182,-0.52368 0.9801,-0.71828 1.24192,-1.24196 0.18513,-0.37027 -0.29273,-0.94919 0,-1.24192 0.29272,-0.29272 0.94919,0.29273 1.24191,0 0.58545,-0.58544 -0.58544,-1.89838 0,-2.48383 0.29272,-0.29272 0.9492,0.29273 1.24192,0 0.29272,-0.29272 -0.29272,-0.94919 0,-1.24191 0.29272,-0.29272 0.94919,0.29272 1.241909,0 0.29273,-0.29272 -0.185129,-0.87161 0,-1.24192 0.26182,-0.52364 0.98011,-0.71829 1.24192,-1.24191 0.18513,-0.37026 -0.29272,-0.9492 0,-1.24192 0.29272,-0.29272 0.94919,0.29272 1.24192,0 0.29272,-0.29272 -0.18514,-0.87166 0,-1.24192 0.26181,-0.52363 0.9801,-0.71828 1.24191,-1.24191 0.18513,-0.37026 -0.29272,-0.9492 0,-1.24192 0.29272,-0.29272 0.94919,0.29272 1.24192,0 0.58544,-0.58544 -0.58545,-1.89838 0,-2.48383 0.29272,-0.29272 0.94919,0.29272 1.24191,0 0.29273,-0.29272 -0.29272,-0.94919 0,-1.24192 0.29273,-0.29272 0.9492,0.29273 1.24192,0 0.29272,-0.29272 -0.18513,-0.87165 0,-1.24191 0.26181,-0.52363 0.98009,-0.71828 1.24192,-1.24192 0.18512,-0.37026 -0.29273,-0.94919 0,-1.24191 0.29272,-0.29273 0.94919,0.29272 1.24191,0 0.29272,-0.29273 -0.18513,-0.87165 0,-1.24192 0.52363,-1.04727 1.96019,-1.43655 2.48383,-2.48383 0.18513,-0.37026 -0.29272,-0.94919 0,-1.24191 0.29272,-0.29272 0.94919,0.29272 1.24191,0 0.29273,-0.29272 -0.29272,-0.9492 0,-1.24192 0.29273,-0.29272 0.9492,0.29272 1.24192,0 0.29272,-0.29272 -0.18513,-0.87165 0,-1.24191 0.52363,-1.04727 1.9602,-1.43656 2.48383,-2.48383 0.18513,-0.37027 -0.29273,-0.94919 0,-1.24192 0.29272,-0.29272 0.94919,0.29273 1.24191,0 0.29273,-0.29272 -0.18512,-0.87165 0,-1.24191 0.26183,-0.52364 0.9801,-0.71829 1.24192,-1.24192 0.37031,-0.74053 -0.37026,-1.74331 0,-2.48383 0.26182,-0.52364 0.9801,-0.71828 1.24191,-1.24192 0.18519,-0.37025 -0.18512,-0.87165 0,-1.24191 0.26182,-0.52364 0.98011,-0.71828 1.24192,-1.24192 0.18519,-0.37026 -0.29272,-0.94919 0,-1.24191 0.29272,-0.29273 0.94919,0.29272 1.24192,0 0.29272,-0.29273 -0.29273,-0.9492 0,-1.24192 0.29272,-0.29272 0.94919,0.29272 1.24191,0 0.41369,-0.41364 -0.41363,-2.07019 0,-2.48383 0.29272,-0.29272 0.94925,0.29272 1.24197,0 0.29272,-0.29272 -0.29272,-0.9492 0,-1.24192 0.29272,-0.29272 0.94919,0.29272 1.24192,0 0.29272,-0.29272 -0.18519,-0.87165 0,-1.24191 0.74513,-1.49031 2.98056,-2.23549 3.72574,-3.72575 0.18513,-0.37031 -0.29272,-0.94919 0,-1.24191 0.29273,-0.29272 0.9492,0.29272 1.24192,0 0.29272,-0.29272 -0.18514,-0.87166 0,-1.24191 0.26181,-0.52364 0.98009,-0.71829 1.24191,-1.24192 0.18513,-0.37031 -0.29272,-0.94919 0,-1.24192 0.29273,-0.29272 0.9492,0.29273 1.24192,0 0.29272,-0.29272 -0.29272,-0.94919 0,-1.24191 0.29272,-0.29272 0.94919,0.29272 1.24192,0 0.29272,-0.29272 -0.29273,-0.94919 0,-1.24192 0.29272,-0.29272 0.94919,0.29273 1.24191,0 0.29272,-0.29272 -0.29272,-0.94919 0,-1.24196 0.29272,-0.29273 0.94919,0.29277 1.24191,0 0.41364,-0.41364 -0.41364,-2.07015 0,-2.48384 0.29272,-0.29272 0.94919,0.29273 1.24192,0 0.29272,-0.29272 -0.18513,-0.8716 0,-1.24191 0.26182,-0.52364 0.9801,-0.71828 1.24191,-1.24192 0.18513,-0.37026 -0.18512,-0.8716 0,-1.24191 0.61105,-1.22208 4.35663,-3.74559 4.96766,-4.96767 0.18514,-0.37026 -0.29272,-0.94919 0,-1.24191 0.29273,-0.29273 0.9492,0.29272 1.24192,0 0.41409,-0.41409 -0.41408,-2.06974 0,-2.48383 0.29272,-0.29272 0.94919,0.29272 1.24192,0 0.58544,-0.58544 -0.58545,-1.89839 0,-2.48383 0.29272,-0.29272 0.94919,0.29272 1.24191,0 0.58545,-0.58544 -0.58544,-1.89838 0,-2.48383 0.29272,-0.29272 0.9492,0.29272 1.24192,0 0.29883,-0.29883 -0.29884,-4.66883 0,-4.96766 0.29272,-0.29272 0.94919,0.29272 1.24191,0 0.62096,-0.62096 -0.62095,-3.10479 0,-3.72575 0.29273,-0.29272 0.9492,0.29272 1.24192,0 0.2539,-0.2539 -0.24619,-3.23332 0,-3.72575 0.26181,-0.52363 0.9801,-0.71828 1.24192,-1.24191 0.33685,-0.67375 -0.33981,-4.62786 0,-4.96767 0.29272,-0.29272 0.94919,0.29272 1.24191,0 0.38453,-0.38458 -0.38454,-5.82504 0,-6.20957 0.29272,-0.29272 0.94919,0.29273 1.24192,0 0.29883,-0.29883 -0.29884,-4.66883 0,-4.96766 0.29272,-0.29272 0.94919,0.29272 1.24191,0 0.29273,-0.29272 0,-0.82798 0,-1.24192 0,-0.41399 0,-0.82797 0,-1.24191 0,-4.55373 0,-9.1074 0,-13.66112 0,-3.31176 0,-6.62352 0,-9.93533 0,-0.41394 -0.29272,-0.94919 0,-1.24191 0.29273,-0.29272 0.9492,0.29272 1.24192,0 0.62096,-0.62096 -0.62096,-3.10479 0,-3.72575 0.29272,-0.29272 0.94919,0.29272 1.24191,0 0.29273,-0.29272 0,-0.82792 0,-1.24192 0,-2.06984 0,-4.13973 0,-6.20958 0,-0.41398 0.29273,-0.94919 0,-1.24191 -0.29272,-0.29272 -0.94919,0.29272 -1.24191,0 -0.04,-0.04 0,-3.42456 0,-3.72574 0,-0.58555 -0.0563,-6.15328 0,-6.20958 0.29272,-0.29272 0.94919,0.29272 1.24191,0 0.41364,-0.41363 -0.41364,-2.07019 0,-2.48383 0.29273,-0.29272 0.9492,0.29272 1.24192,0 0.29272,-0.29272 -0.29272,-0.94919 0,-1.24192 0.29272,-0.29272 0.94919,0.29273 1.24191,0 0.29272,-0.29272 -0.29272,-0.94919 0,-1.24191 0.29272,-0.29272 0.9492,0.29272 1.24192,0 0.29272,-0.29272 -0.29272,-0.9492 0,-1.24192 0.29272,-0.29272 0.94919,0.29272 1.24191,0 0.29272,-0.29272 -0.29272,-0.94919 0,-1.24191 0.41409,-0.41409 2.06975,0.41409 2.48383,0 2.91255,-2.91255 -3.82617,0 -1.24192,0 1.78639,0 3.72575,-2.99565 3.72575,-1.24192 0,0.41394 -1.65585,0 -1.24191,0 0.82798,0 1.6559,0 2.48383,0 0.41399,0 0.87166,-0.18513 1.24191,0 0.52364,0.26181 0.71829,0.9801 1.24192,1.24192 0.37026,0.18513 0.94919,-0.29273 1.24192,0 0.29272,0.29272 -0.29273,0.94919 0,1.24191 2.56958,2.56954 -0.10043,-3.92665 2.48383,1.24192 0.18513,0.37026 -0.29272,0.94919 0,1.24191 0.29272,0.29273 0.94919,-0.29272 1.24191,0 0.29273,0.29273 -0.29272,0.9492 0,1.24192 0.29273,0.29272 0.87166,-0.18513 1.24192,0 0.52363,0.26181 0.71828,0.9801 1.24192,1.24192 0.3703,0.18512 0.94919,-0.29273 1.24191,0 0.29272,0.29272 -0.29272,0.94919 0,1.24191 0.58545,0.58545 1.74331,-0.37026 2.48388,0 0.52363,0.26182 0.71823,0.9801 1.24192,1.24192 0.37026,0.18512 0.82792,0 1.24191,0 0.41394,0.41398 0.71823,0.98009 1.24191,1.24191 0.67371,0.33685 4.62781,-0.33981 4.96767,0 0.29272,0.29273 -0.29273,0.9492 0,1.24192 0.0562,0.0563 5.62398,0 6.20958,0 0.30118,0 3.68577,-0.04 3.72574,0 0.29273,0.29272 -0.29272,0.94919 0,1.24191 0.29273,0.29273 0.82793,0 1.24192,0 0.58555,0 6.15327,-0.0563 6.20958,0 0.29272,0.29273 -0.29272,0.9492 0,1.24192 0.41408,0.41408 2.06974,-0.41409 2.48382,0 0.29273,0.29272 -0.29272,0.94919 0,1.24191 0.29273,0.29272 0.9492,-0.29272 1.24192,0 0.29272,0.29272 0,0.82793 0,1.24192 0.41399,0 0.87165,-0.18513 1.24191,0 0.52364,0.26182 0.82794,0.82793 1.24192,1.24191 0.41399,0.41399 1.65591,0.82793 1.24191,1.24191 -0.41398,0.414 -1.65589,-1.65589 -1.24191,-1.24191 2.77655,2.77655 1.31294,2.48383 3.72575,2.48383 0.41399,0 1.6559,0 1.24191,0 -0.82792,0 -3.31175,0 -2.48383,0 1.24192,0 2.48383,0 3.72575,0 0.41399,0 0.82792,0 1.24191,0 0.414,0 0.9492,0.29272 1.24192,0 0.29272,-0.29272 -0.29272,-0.94919 0,-1.24192 0.41364,-0.41363 2.0702,0.41365 2.48383,0 0.29272,-0.29272 -0.29272,-0.94919 0,-1.24191 0.58545,-0.58544 1.89839,0.58544 2.48383,0 0.29273,-0.29272 -0.29272,-0.94919 0,-1.24191 0.41409,-0.41409 2.06974,0.41409 2.48384,0 0.29272,-0.29272 -0.29273,-0.9492 0,-1.24192 0.58544,-0.58544 1.7433,0.37027 2.48383,0 0.52363,-0.26182 0.71827,-0.98009 1.24191,-1.24191 0.37031,-0.18513 0.94919,0.29272 1.24192,0 0.29272,-0.29272 -0.29273,-0.94919 0,-1.24192 0.29272,-0.29272 0.94919,0.29273 1.24191,0 0.29272,-0.29272 -0.29272,-0.94919 0,-1.24191 0.29272,-0.29272 0.94919,0.29272 1.24191,0 0.29272,-0.29272 0,-0.82793 0,-1.24192 0,-2.06985 0,-4.13974 0,-6.20958 0,-0.41399 0.29272,-0.94919 0,-1.24191 -0.29272,-0.29272 -0.94919,0.29272 -1.24191,0 -0.58544,-0.58545 0.58544,-1.89839 0,-2.48383 -0.29272,-0.29273 -0.94919,0.29272 -1.24191,0 -0.58545,-0.58545 0.37031,-1.74331 0,-2.48384 -0.26183,-0.52362 -0.9801,-0.71827 -1.24192,-1.24191 -0.37027,-0.74057 0.58544,-1.89839 0,-2.48383 -0.29272,-0.29273 -0.94919,0.29272 -1.24191,0 -0.41365,-0.41364 0.41363,-2.07019 0,-2.48383 -0.29273,-0.29273 -0.9492,0.29272 -1.24192,0 -0.29272,-0.29273 0.29272,-0.9492 0,-1.24192 -0.29272,-0.29272 -0.82793,0 -1.24191,0 -0.41395,0 -0.82794,0 -1.24192,0 1.6559,-0.82793 3.31181,-1.6559 4.96766,-2.48382 0,-0.414 -0.29272,-0.94925 0,-1.24197 0.29272,-0.29272 0.87165,0.18517 1.24192,0 1.04732,-0.52364 1.43655,-1.96015 2.48382,-2.48383 0.37032,-0.18514 0.87166,0.18517 1.24192,0 0.52369,-0.26182 0.71828,-0.9801 1.24191,-1.24192 0.37032,-0.18513 0.9492,0.29272 1.24197,0 0.29272,-0.29272 -0.29277,-0.94919 0,-1.24191 0.29272,-0.29273 0.87161,0.18513 1.24192,0 0.52363,-0.26182 0.71823,-0.98011 1.24191,-1.24192 0.37026,-0.18513 0.94919,0.29272 1.24192,0 0.29272,-0.29272 -0.29273,-0.94919 0,-1.24192 0.41363,-0.41363 2.07019,0.41364 2.48383,0 0.29272,-0.29272 -0.29272,-0.94919 0,-1.24191 0.29272,-0.29272 0.94919,0.29272 1.24192,0 0.29272,-0.29272 -0.29273,-0.9492 0,-1.24192 0.41408,-0.41408 2.06973,0.41409 2.48383,0 0.29272,-0.29272 -0.29273,-0.94919 0,-1.24191 0.29272,-0.29273 0.94919,0.29272 1.24191,0 0.29273,-0.29273 -0.29272,-0.9492 0,-1.24192 0.29273,-0.29272 0.87166,0.18513 1.24192,0 0.52363,-0.26181 0.71828,-0.9801 1.24192,-1.24192 0.74051,-0.37025 1.89838,0.58545 2.48383,0 0.29272,-0.29272 -0.29273,-0.94919 0,-1.24191 0.29272,-0.29272 0.94919,0.29272 1.24191,0 0.29272,-0.29272 -0.29272,-0.94919 0,-1.24192 0.29272,-0.29272 0.87165,0.18514 1.24191,0 0.52364,-0.26181 0.71829,-0.98009 1.24192,-1.24191 0.37026,-0.18513 0.94919,0.29272 1.24191,0 0.29272,-0.29273 -0.29272,-0.9492 0,-1.24192 0.29272,-0.29272 0.87166,0.18513 1.24192,0 0.52364,-0.26181 0.71828,-0.98009 1.24191,-1.24191 0.37027,-0.18513 0.9492,0.29272 1.24192,0 0.29272,-0.29272 -0.29272,-0.94919 0,-1.24192 0.41364,-0.41364 2.07019,0.41364 2.48383,0 0.29272,-0.29272 -0.29272,-0.94919 0,-1.24191 0.29272,-0.29272 0.94919,0.29272 1.24192,0 0.29272,-0.29272 -0.29273,-0.94919 0,-1.24191 0.58544,-0.58545 1.89838,0.58544 2.48383,0 0.29272,-0.29273 -0.29272,-0.9492 0,-1.24192 0.29272,-0.29272 1.24191,-0.41399 1.24191,0 0,0.41398 -1.6559,0 -1.24191,0 0.82792,0 1.65591,0 2.48383,0 0.41399,0 0.94919,0.29272 1.24192,0 0.29272,-0.29272 -0.29273,-0.94919 0,-1.24191 0.25389,-0.25391 3.23336,0.24618 3.72574,0 0.52363,-0.26183 0.71828,-0.98011 1.24192,-1.24192 0.74052,-0.37026 1.74331,0.37026 2.48383,0 0.52363,-0.26182 0.71828,-0.9801 1.24191,-1.24192 0.74058,-0.37026 1.89839,0.58545 2.48383,0 0.29272,-0.29272 -0.37026,-1.05679 0,-1.24191 0.74058,-0.37026 1.65591,0 2.48383,0 0.41399,0 0.94919,0.29272 1.24192,0 0.29272,-0.29273 -0.29273,-0.9492 0,-1.24192 0.62096,-0.62096 3.10479,0.62096 3.72575,0 0.29272,-0.29272 -0.29273,-0.94919 0,-1.24191 0.29888,-0.29884 4.66882,0.29883 4.96766,0 0.29272,-0.29273 -0.29272,-0.9492 0,-1.24192 0.29272,-0.29272 0.82797,0 1.24191,0 0.41399,0 0.82798,0 1.24197,0 3.72575,0 7.45149,0 11.17723,0 9.93533,0 19.87066,0 29.80598,0 0.45606,0 4.91772,-0.0501 4.96766,0 0.29272,0.29272 -0.29272,0.94919 0,1.24192 0.2539,0.25389 3.23336,-0.24619 3.72575,0 0.52363,0.26181 0.71828,0.9801 1.24191,1.24191 0.37031,0.18513 0.87166,-0.18513 1.24192,0 0.52363,0.26182 0.71828,0.9801 1.24192,1.24192 0.74056,0.37026 1.7433,-0.37026 2.48383,0 0.52368,0.26181 0.71828,0.98009 1.24191,1.24191 0.74057,0.37026 1.89839,-0.58544 2.48388,0 0.29272,0.29273 -0.29272,0.9492 0,1.24192 0.62095,0.62096 3.10479,-0.62096 3.72574,0 0.29273,0.29272 -0.29272,0.94919 0,1.24192 0.29273,0.29272 0.82794,0 1.24192,0 0.41394,0 0.82793,0 1.24192,0 0.30118,0 3.68577,0.04 3.72574,0 0.29273,-0.29273 -0.29272,-0.9492 0,-1.24192 0.29273,-0.29272 0.9492,0.29272 1.24192,0 0.29272,-0.29272 -0.18513,-0.87166 0,-1.24192 0.26181,-0.52364 0.9801,-0.71828 1.24192,-1.24191 0.18513,-0.37026 -0.29273,-0.9492 0,-1.24192 0.29272,-0.29272 0.94919,0.29272 1.24191,0 0.29272,-0.29272 -0.29272,-0.94919 0,-1.24191 0.29272,-0.29273 0.94919,0.29272 1.24192,0 0.29272,-0.29273 -0.29273,-0.9492 0,-1.24192 0.29272,-0.29272 0.94919,0.29272 1.24191,0 0.29273,-0.29272 -0.29272,-0.94919 0,-1.24192 0.58545,-0.58544 1.89839,0.58545 2.48384,0 0.29272,-0.29272 -0.29273,-0.94919 0,-1.24191 0.29272,-0.29272 0.94919,0.29272 1.24191,0 0.29272,-0.29272 -0.29272,-0.9492 0,-1.24192 0.41409,-0.41408 2.06974,0.4141 2.48383,0 0.29272,-0.29272 -0.29272,-0.94919 0,-1.24191 0.62096,-0.62096 3.10478,0.62095 3.72574,0 0.29272,-0.29273 -0.29272,-0.9492 0,-1.24192 0.58545,-0.58544 1.89839,0.58544 2.48383,0 0.29272,-0.29272 -0.29272,-0.94919 0,-1.24192 0.29272,-0.29272 0.9492,0.29273 1.24192,0 0.29272,-0.29272 -0.29272,-0.94919 0,-1.24191 0.29272,-0.29272 0.94919,0.29272 1.24191,0 0.29273,-0.29272 -0.29272,-0.9492 0,-1.24192 0.29273,-0.29272 0.87166,0.18514 1.24192,0 0.52364,-0.26181 0.71829,-0.98009 1.24192,-1.24191 0.37025,-0.18513 0.94919,0.29272 1.24191,0 0.29272,-0.29272 -0.29272,-0.9492 0,-1.24192 0.29272,-0.29272 0.9492,0.29272 1.24192,0 0.29272,-0.29272 -0.29272,-0.94919 0,-1.24191 2.56958,-2.56958 -0.10043,3.92661 2.48383,-1.24191 0.18513,-0.37027 -0.29272,-0.9492 0,-1.24192 0.29272,-0.29272 0.94919,0.29272 1.24192,0 0.29272,-0.29272 -0.29273,-0.94919 0,-1.24191 0.29272,-0.29273 0.94919,0.29272 1.24191,0 0.58545,-0.58545 -0.58544,-1.89839 0,-2.48384 0.29272,-0.29272 0.94919,0.29273 1.24192,0 0.58544,-0.58544 -0.58545,-1.89838 0,-2.48383 0.29272,-0.29272 0.94919,0.29273 1.24191,0 0.41409,-0.41409 -0.41409,-2.06979 0,-2.48383 0.29273,-0.29272 0.9492,0.29272 1.24192,0 0.58544,-0.58549 -0.58545,-1.89844 0,-2.48388 0.29272,-0.29272 0.94919,0.29272 1.24191,0 0.29738,-0.29733 -0.28231,-4.96767 0,-4.96767 0.41399,0 -0.41394,1.24192 0,1.24192 1.53464,0 1.24192,-1.7416 1.24192,-2.48383 3.11611,1.35793 5.5794,1.24191 8.6934,1.24191 0.52439,0 5.45353,0 2.48383,0 -7.27587,0 3.61586,0 4.96772,0 1.65585,0 3.31175,0 4.96766,0 0.41393,0 1.24192,-0.41393 1.24192,0 0,0.414 -1.65591,0 -1.24192,0 0.82793,0 1.74326,0.37032 2.48383,0 0.37026,-0.18512 -0.29272,-0.94919 0,-1.24191 0.29273,-0.29272 0.9492,0.29272 1.24192,0 0.29272,-0.29272 -0.29272,-0.94919 0,-1.24192 0.29272,-0.29272 0.94919,0.29273 1.24191,0 0.29272,-0.29272 -0.29272,-0.94919 0,-1.24191 0.29272,-0.29272 0.94919,0.29272 1.24192,0 0.29272,-0.29272 -0.29273,-0.94919 0,-1.24191 0.29272,-0.29272 0.94919,0.29272 1.24191,0 0.29272,-0.29272 -0.29272,-0.9492 0,-1.24192 0.29272,-0.29272 0.94919,0.29272 1.24191,0 0.58545,-0.58544 -0.58544,-1.89838 0,-2.48383 0.29273,-0.29272 0.9492,0.29272 1.24192,0 0.29272,-0.29272 -0.29272,-0.94919 0,-1.24191 0.29272,-0.29273 0.94919,0.29272 1.24192,0 0.29272,-0.29273 -0.29273,-0.9492 0,-1.24192 0.29272,-0.29272 0.94919,0.29272 1.24191,0 0.29272,-0.29272 -0.29272,-0.94919 0,-1.24192 0.29272,-0.29272 0.9492,0.29273 1.24192,0 0.29272,-0.29272 -0.29272,-0.94919 0,-1.24191 0.29272,-0.29272 0.94919,0.29272 1.24191,0 0.29273,-0.29272 -0.29272,-0.9492 0,-1.24192 0.29273,-0.29272 0.87166,0.18513 1.24192,0 0.52364,-0.26181 0.71828,-0.9801 1.24192,-1.24191 0.37025,-0.18514 0.94919,0.29272 1.24191,0 0.29272,-0.29273 -0.29272,-0.9492 0,-1.24192 0.29272,-0.29272 0.94919,0.29272 1.24192,0 0.29272,-0.29272 -0.18514,-0.87166 0,-1.24192 0.26181,-0.52363 0.82792,-0.82792 1.24191,-1.24191 0.41399,-0.41399 0.71828,-0.9801 1.24192,-1.24192 0.37026,-0.18512 0.94919,0.29272 1.24192,0 0.29272,-0.29272 -0.29273,-0.94919 0,-1.24191 0.29272,-0.29273 0.94919,0.29272 1.24191,0 0.29272,-0.29273 -0.29272,-0.9492 0,-1.24192 0.58545,-0.58544 1.89839,0.58545 2.48383,0 0.29273,-0.29272 -0.29272,-0.94919 0,-1.24192 0.29273,-0.29272 0.9492,0.29273 1.24192,0 0.29272,-0.29272 -0.29272,-0.94919 0,-1.24191 0.41408,-0.41409 2.06974,0.41409 2.48383,0 0.29272,-0.29272 -0.29272,-0.9492 0,-1.24192 0.29272,-0.29272 0.94919,0.29272 1.24191,0 0.29272,-0.29272 -0.29272,-0.94919 0,-1.24191 0.29272,-0.29272 0.94919,0.29272 1.24191,0 0.29272,-0.29272 -0.29272,-0.94919 0,-1.24191 0.29272,-0.29273 0.82799,0 1.24192,0 0.88027,0 7.13042,-0.16054 7.45149,0 0.52364,0.26181 0.71828,0.98009 1.24192,1.24191 0.49243,0.24619 3.47189,-0.2539 3.72575,0 0.29272,0.29272 -0.29272,0.94919 0,1.24191 0.41408,0.4141 2.06979,-0.41408 2.48383,0 0.29272,0.29272 -0.29272,0.9492 0,1.24192 0.04,0.04 3.42456,0 3.7258,0 6.62351,0 13.24707,0 19.87064,0 2.06984,0 4.13973,0 6.20958,0 0.82793,0 1.6559,0 2.48383,0 0.41399,0 1.24191,-0.41398 1.24191,0 0,0.41399 -1.24191,-0.41398 -1.24191,0 0,0.48502 2.32705,1.3987 1.24191,2.48383 -0.29272,0.29272 -0.94919,-0.29272 -1.24191,0 -0.29272,0.29272 0.29272,0.94919 0,1.24192 -0.29272,0.29272 -0.94919,-0.29273 -1.24191,0 -0.29273,0.29272 0.18512,0.87165 0,1.24191 -0.26183,0.52364 -0.9801,0.71829 -1.24192,1.24192 -0.18513,0.37026 0.29272,0.94919 0,1.24191 -0.29272,0.29273 -0.94919,-0.29272 -1.24191,0 -0.29273,0.29273 0.29272,0.9492 0,1.24192 -0.29273,0.29272 -0.9492,-0.29272 -1.24192,0 -0.29272,0.29272 0.18512,0.87166 0,1.24192 -0.26182,0.52363 -0.9801,0.71827 -1.24192,1.24191 -0.18513,0.37026 0.29273,0.9492 0,1.24192 -0.29272,0.29272 -0.94919,-0.29272 -1.24191,0 -0.29272,0.29272 0.29272,0.94919 0,1.24191 -0.29272,0.29273 -0.94919,-0.29272 -1.24192,0 -0.29272,0.29273 0.29273,0.9492 0,1.24192 -0.29272,0.29272 -0.94919,-0.29272 -1.24191,0 -0.29273,0.29272 0.18512,0.87165 0,1.24192 -0.49689,0.99382 -1.98695,1.49005 -2.48383,2.48383 -0.18514,0.37026 0.29272,0.94919 0,1.24191 -0.29273,0.29272 -0.9492,-0.29272 -1.24192,0 -0.29272,0.29272 0.29272,0.9492 0,1.24192 -0.29272,0.29272 -0.94919,-0.29272 -1.24192,0 -0.29272,0.29272 0.18514,0.87165 0,1.24191 -0.26181,0.52364 -0.9801,0.71828 -1.24191,1.24191 -0.18513,0.37027 0.29272,0.9492 0,1.24192 -0.29273,0.29272 -0.9492,-0.29272 -1.24192,0 -0.58544,0.58544 0.58545,1.89839 0,2.48383 -1.6559,1.65591 -1.24191,-2.06984 -1.24191,1.24192 0,0.52439 0,5.45352 0,2.48383 0,-0.82793 0.82793,-2.48383 0,-2.48383 -0.92571,0 -0.9492,1.60566 -1.24192,2.48383 -0.28476,0.85428 0.36636,2.99304 0,3.7258 -1.53464,3.06927 -1.24192,-0.42872 -1.24192,2.48383 0,0.82792 0,3.31175 0,2.48383 0,-0.82798 0,-3.31181 0,-2.48383 0,1.24191 -0.39275,2.54754 0,3.72575 0.13089,0.3927 0.82794,0 1.24192,0 2.89777,0 5.79559,0 8.69341,0 7.4515,0 14.90298,0 22.35448,0 2.48383,0 4.96766,0 7.45149,0 0.82798,0 3.31181,0 2.48384,0 -0.82794,0 -3.31177,0 -2.48384,0 4.13973,0 3.72575,1.24191 3.72575,-1.24192 1.65588,0.41398 3.29396,0.90716 4.96764,1.24192 1.11774,0.22349 2.58321,0 3.7258,0 2.89776,0 5.79559,0 8.6934,0 0.5593,0 3.34778,-0.189 3.72575,0 0.52364,0.26181 0.71828,0.98009 1.24191,1.24191 0.32108,0.16053 6.57122,0 7.4515,0 0.41398,0 0.94919,-0.29272 1.24192,0 0.29272,0.29272 -0.29273,0.9492 0,1.24192 0.29272,0.29272 0.82792,0 1.24191,0 0.41398,0 0.82793,0 1.24192,0 3.31175,0 6.62356,0 9.93532,0 3.3118,0 6.62357,0 9.93532,0 0.41399,0 0.9492,-0.29272 1.24192,0 0.29272,0.29272 -0.29272,0.94919 0,1.24191 0.29272,0.29272 0.94919,-0.29272 1.24191,0 0.29273,0.29272 0,0.82793 0,1.24191 0,0.88028 0.16059,7.13037 0,7.4515 -0.26181,0.52363 -0.9801,0.71828 -1.24191,1.24191 -0.37026,0.74053 0.58544,1.89839 0,2.48383 -0.29272,0.29273 -0.94919,-0.29272 -1.24192,0 -0.29272,0.29273 0,0.82793 0,1.24192 0,0.41399 0,0.82792 0,1.24192 0,2.91249 0.29273,-0.58545 -1.24191,2.48383 -0.18514,0.37026 0,0.82792 0,1.24191 0,0.41399 0,0.82793 0,1.24192 0,1.49521 0,3.02995 0,2.48383 0,-0.82793 0,-3.31176 0,-2.48383 0,1.24192 0,2.48383 0,3.72575 0,0.41398 -0.29273,0.94919 0,1.24191 0.29272,0.29272 0.94919,-0.29272 1.24191,0 0.29273,0.29272 -0.29272,0.94919 0,1.24191 0.29273,0.29273 0.82798,0 1.24192,0 0.86384,0 5.76047,-0.22455 6.20958,0 0.52363,0.26182 0.71828,0.9801 1.24191,1.24192 0.49243,0.24619 3.47189,-0.2539 3.72574,0 0.29278,0.29272 -0.29272,0.94919 0,1.24191 0.62101,0.62096 3.10484,-0.62096 3.7258,0 0.29272,0.29272 -0.29272,0.94919 0,1.24192 0.29884,0.29883 4.66878,-0.29883 4.96766,0 0.29273,0.29272 -0.29272,0.94919 0,1.24191 0.62096,0.62096 3.10479,-0.62096 3.72575,0 0.29272,0.29273 -0.29272,0.9492 0,1.24192 0.62096,0.62096 3.10479,-0.62096 3.72575,0 0.29272,0.29272 -0.29272,0.94919 0,1.24191 0.29272,0.29273 0.94919,-0.29272 1.24192,0 0.29272,0.29273 0.41393,1.24192 0,1.24192 -0.414,0 0,-1.65585 0,-1.24192 0,0.82798 0,1.65591 0,2.48384 0,0.41399 0.29272,0.94919 0,1.24191 -0.29273,0.29272 -0.9492,-0.29272 -1.24192,0 -0.58544,0.58545 0.37026,1.74331 0,2.48383 -0.26182,0.52364 -0.9801,0.71828 -1.24192,1.24192 -0.18898,0.37797 0,3.16645 0,3.72575 0,0.64945 -0.16329,4.64113 0,4.96771 0.26182,0.52363 0.71828,0.98009 1.24192,1.24191 0.74052,0.37027 1.89839,-0.58544 2.48383,0 0.29272,0.29272 -0.29272,0.94919 0,1.24192 0.04,0.04 3.42456,0 3.72574,0 0.5593,0 3.34778,-0.18899 3.72575,0 0.52364,0.26182 0.71828,0.9801 1.24191,1.24191 0.32108,0.16054 6.57123,0 7.4515,0 0.41399,0 0.87166,-0.18512 1.24191,0 0.52364,0.26182 0.71828,0.9801 1.24192,1.24192 0.74052,0.37026 1.89839,-0.58545 2.48383,0 0.29273,0.29272 -0.29272,0.94919 0,1.24191 0.29884,0.29884 4.66883,-0.29888 4.96767,0 0.29272,0.29272 -0.29273,0.9492 0,1.24192 0.58544,0.58544 1.7433,-0.37026 2.48383,0 0.52363,0.26182 0.71828,0.9801 1.24191,1.24191 0.74057,0.37026 1.89838,-0.58544 2.48383,0 0.29272,0.29273 -0.29273,0.9492 0,1.24192 0.58544,0.58544 1.74331,-0.37026 2.48383,0 0.52364,0.26181 0.71829,0.9801 1.24191,1.24192 0.74058,0.37025 1.89839,-0.58545 2.48384,0 0.29272,0.29272 -0.29273,0.94919 0,1.24191 0.62095,0.62096 3.10484,-0.62096 3.72579,0 0.29273,0.29272 -0.29272,0.9492 0,1.24192 0.25385,0.2539 3.23332,-0.24624 3.72575,0 0.52363,0.26181 0.71828,0.9801 1.24192,1.24191 0.37026,0.18514 0.94919,-0.29272 1.24191,0 0.29273,0.29273 -0.29272,0.9492 0,1.24192 0.29273,0.29272 0.9492,-0.29272 1.24192,0 0.29272,0.29272 -0.29272,0.94919 0,1.24192 0.41408,0.41408 2.06974,-0.4141 2.48383,0 0.29272,0.29272 -0.29272,0.94919 0,1.24191 0.29272,0.29272 0.94919,0.29272 1.24191,0 0.29272,-0.29272 -0.29272,-0.94919 0,-1.24191 0.29272,-0.29273 0.94919,0.29272 1.24192,0 0.29272,-0.29273 -0.29273,-0.9492 0,-1.24192 0.29272,-0.29272 0.94919,0.29272 1.24191,0 2.56954,-2.56959 -3.92665,0.10043 1.24192,-2.48383 0.37026,-0.18514 0.94919,0.29272 1.24191,0 0.29272,-0.29272 -0.29272,-0.9492 0,-1.24192 0.29272,-0.29272 0.94919,0.29272 1.24192,0 0.29272,-0.29272 -0.29273,-0.94919 0,-1.24191 0.29272,-0.29273 0.87165,0.18513 1.24191,0 0.52364,-0.26182 0.71829,-0.98011 1.24192,-1.24192 0.37026,-0.18513 0.94919,0.29272 1.24191,0 0,-3.31181 -0.41398,0.41394 1.24192,-1.24192 0.29272,-0.29272 -0.41399,-1.24191 0,-1.24191 1.82736,0 -2.87703,4.11889 1.24192,0 1.6559,0.82793 3.48657,1.373 4.96766,2.48383 0.33119,0.24835 -0.29272,0.94919 0,1.24192 0.62096,0.62095 3.10479,-0.62096 3.72575,0 0.29272,0.29272 -0.29272,0.94919 0,1.24191 0.29272,0.29272 0.94919,-0.29272 1.24191,0 0.29273,0.29272 -0.29272,0.9492 0,1.24192 0.29273,0.29272 0.9492,-0.29272 1.24192,0 0.12416,0.12417 0.12416,3.60152 0,3.72575 -0.29272,0.29272 -0.94919,-0.29273 -1.24192,0 -0.0563,0.0563 0,5.62403 0,6.20957 0,0.30119 0.04,3.68583 0,3.72575 -0.29272,0.29272 -0.94919,-0.29272 -1.24191,0 -0.29272,0.29272 0,0.82793 0,1.24191 0,0.64941 -0.16329,4.64113 0,4.96766 0.26181,0.52364 0.98009,0.71829 1.24191,1.24192 0.3903,0.78059 -0.39029,4.18712 0,4.96766 0.26182,0.52364 0.9801,0.71828 1.24192,1.24192 0.16053,0.32112 0,6.57122 0,7.45149 0,0.41399 -0.29272,0.9492 0,1.24192 0.29272,0.29272 0.94919,-0.29272 1.24191,0 0.58545,0.58544 -0.37026,1.7433 0,2.48383 0.26182,0.52363 0.9801,0.71828 1.24192,1.24191 0.37026,0.74057 -0.58544,1.89839 0,2.48383 0.29272,0.29272 0.94919,-0.29272 1.24191,0 0.41409,0.41409 -0.41409,2.0698 0,2.48388 0.29272,0.29272 0.94919,-0.29277 1.24191,0 0.29884,0.29884 -0.29882,4.66878 0,4.96767 0.29273,0.29272 0.9492,-0.29273 1.24192,0 0.41364,0.41363 -0.41364,2.07019 0,2.48383 0.29272,0.29272 0.94919,-0.29273 1.24192,0 0.29272,0.29272 -0.29273,0.94919 0,1.24191 0.29272,0.29273 0.94919,-0.29272 1.24191,0 0.58545,0.58545 -0.58544,1.89839 0,2.48384 0.29272,0.29272 1.24192,0.41393 1.24192,0 0,-0.58545 -1.24192,-1.82737 -1.24192,-1.24192 0,1.78639 2.99564,3.72575 1.24192,3.72575 -0.41394,0 -0.41394,-1.24192 0,-1.24192 2.58431,0 0.49974,1.74161 1.24191,2.48383 0.29273,0.29273 1.24192,-0.41399 1.24192,0 0,0.41393 -1.24192,-0.41399 -1.24192,0 0,0.58545 0.98011,0.71828 1.24192,1.24192 0.18898,0.37792 0,3.16644 0,3.72574 0,2.89782 0,5.79559 0,8.69341 0,0.58554 0.0563,6.15327 0,6.20958 -0.29272,0.29272 -1.24192,0.41398 -1.24192,0 0,-0.58545 1.24192,-1.82736 1.24192,-1.24192 0,0.92565 -0.94919,1.60567 -1.24192,2.48383 -0.13088,0.39276 0.29273,0.9492 0,1.24192 -0.29272,0.29272 -0.94919,-0.29272 -1.24191,0 -0.29272,0.29272 0.29272,0.94919 0,1.24192 -0.62096,0.62095 -3.10479,-0.62096 -3.72575,0 -0.29272,0.29272 0.29272,0.94919 0,1.24191 -0.58545,0.58545 -1.89839,-0.58544 -2.48383,0 -0.29272,0.29272 0.29272,0.94919 0,1.24192 -0.58544,0.58544 -1.89838,-0.58545 -2.48383,0 -0.29272,0.29272 0.29272,0.94919 0,1.24191 -0.58544,0.58544 -1.74331,-0.37027 -2.48383,0 -0.52363,0.26182 -0.71828,0.98009 -1.24191,1.24192 -0.37027,0.18512 -0.9492,-0.29273 -1.24192,0 -0.29272,0.29272 0.29272,0.94919 0,1.24191 -0.62096,0.62096 -3.10479,-0.62096 -3.72575,0 -0.29272,0.29272 0.29273,0.94919 0,1.24191 -0.58544,0.58545 -1.89838,-0.58544 -2.48383,0 -0.29272,0.29272 0.29273,0.94919 0,1.24192 -0.29272,0.29272 -0.94919,-0.29273 -1.24191,0 -0.29273,0.29272 0.29272,0.94919 0,1.24191 -0.58545,0.58545 -1.89839,-0.58544 -2.48384,0 -0.29272,0.29273 0.29273,0.9492 0,1.24192 -0.41408,0.41409 -2.06973,-0.41409 -2.48383,0 -0.29272,0.29272 0.29273,0.94919 0,1.24191 -0.58544,0.58545 -1.89838,-0.58544 -2.48383,0 0,3.31181 0.41394,-0.41393 -1.24191,1.24192 -0.29273,0.29272 0.29272,0.94919 0,1.24192 -0.41409,0.41409 -2.06974,-0.41409 -2.48383,0 -0.29273,0.29272 0.29272,0.94919 0,1.24191 -3.31181,0 0.41393,-0.41394 -1.24192,1.24192 -0.29272,0.29272 -0.94919,-0.29272 -1.24191,0 -0.29272,0.29272 0.29272,0.94919 0,1.24191 -0.29272,0.29273 -0.94919,-0.29272 -1.24191,0 -0.29273,0.29273 0.29272,0.9492 0,1.24192 -0.58545,0.58545 -1.89839,-0.58544 -2.48384,0 -0.29272,0.29272 0.29273,0.94919 0,1.24192 -0.29272,0.29277 -0.94919,-0.29273 -1.24191,0 -0.29272,0.29277 0.29272,0.94924 0,1.24196 -0.29272,0.29273 -0.87166,-0.18518 -1.24192,0 -0.52369,0.26182 -0.71829,0.9801 -1.24191,1.24192 -0.37031,0.18512 -0.9492,-0.29272 -1.24192,0 -0.29272,0.29272 0.29272,0.94919 0,1.24191 -0.41369,0.41364 -2.0702,-0.41368 -2.48388,0 -0.29273,0.29273 0.29272,0.9492 0,1.24192 -0.58545,0.58544 -1.89839,-0.58544 -2.48383,0 -0.29273,0.29272 0.29272,0.94919 0,1.24192 -0.41409,0.41408 -2.06974,-0.4141 -2.48384,0 -0.29272,0.29272 0.29273,0.94919 0,1.24191 -0.62095,0.62096 -3.10479,-0.62096 -3.72574,0 -1.65585,1.65585 2.0699,1.24191 -1.24192,1.24191 -0.41393,0 -0.82792,0 -1.24191,0 -0.41394,0 -0.94919,-0.29272 -1.24191,0 -0.29273,0.29272 0.29272,0.9492 0,1.24192 -0.29884,0.29883 -4.66883,-0.29888 -4.96767,0 -0.29272,0.29272 0.29273,0.94919 0,1.24191 -0.2539,0.25386 -3.23332,-0.24624 -3.72574,0 -0.52364,0.26182 -0.71829,0.9801 -1.24192,1.24192 -0.85783,0.42891 -5.77365,-0.43593 -6.20958,0 -0.29272,0.29272 0.29272,0.94919 0,1.24191 -0.62096,0.62096 -3.10479,-0.62096 -3.72575,0 -0.29272,0.29272 0.29273,0.9492 0,1.24192 -0.58544,0.58544 -1.7433,-0.37026 -2.48383,0 -0.52363,0.26182 -0.71828,0.9801 -1.24191,1.24191 -0.74052,0.37026 -1.74331,-0.37025 -2.48383,0 -0.52363,0.26182 -0.71828,0.98011 -1.24191,1.24192 -0.74053,0.37026 -1.89839,-0.58544 -2.48383,0 -0.29273,0.29272 0.29272,0.94919 0,1.24192 -0.29273,0.29272 -0.82799,0 -1.24192,0 -0.41399,0 -0.82798,0 -1.24192,0 -0.41399,0 -0.82797,0 -1.24191,0 -0.41399,0 -0.9492,-0.29273 -1.24192,0 -0.29272,0.29272 0.29272,0.94919 0,1.24191 -0.29888,0.29884 -4.66883,-0.29883 -4.96766,0 -0.29272,0.29272 0.29272,0.9492 0,1.24192 -0.29889,0.29883 -4.66883,-0.29884 -4.96767,0 -0.29272,0.29272 0.29273,0.94919 0,1.24191 -0.41408,0.41409 -2.06978,-0.41409 -2.48388,0 -0.29272,0.29273 0.29278,0.9492 0,1.24192 -0.43592,0.43593 -5.35174,-0.42892 -6.20957,0 -0.52364,0.26181 -0.71829,0.9801 -1.24191,1.24192 -0.99353,0.49678 -2.73218,-0.49679 -3.72575,0 -0.52364,0.26181 -0.71828,0.98009 -1.24192,1.24191 -0.49238,0.24619 -3.47184,-0.25391 -3.72574,0 -0.29273,0.29272 0.29272,0.94919 0,1.24192 -0.29884,0.29883 -4.66883,-0.29884 -4.96767,0 -0.29272,0.29272 0.29272,0.94919 0,1.24191 -0.58544,0.58545 -1.7433,-0.37026 -2.48383,0 -0.52363,0.26182 -0.71828,0.9801 -1.24192,1.24192 -0.37025,0.18512 -0.94919,-0.29272 -1.24191,0 -0.29272,0.29272 0.29272,0.94919 0,1.24192 -0.29272,0.29272 -0.87165,-0.18514 -1.24191,0 -0.52364,0.26181 -0.71829,0.98009 -1.24192,1.24191 -0.37026,0.18513 -0.94919,-0.29272 -1.24191,0 -0.29272,0.29272 0.29272,0.94919 0,1.24191 -0.58545,0.58545 -1.74332,-0.37026 -2.48383,0 -0.52364,0.26182 -0.71829,0.9801 -1.24192,1.24192 -0.78059,0.39029 -4.18712,-0.3903 -4.96766,0 -0.52364,0.26182 -0.71828,0.98009 -1.24192,1.24191 -0.74052,0.37027 -1.89838,-0.58544 -2.48383,0 -0.29272,0.29272 0.29272,0.94919 0,1.24191 -0.62096,0.62096 -3.10479,-0.62095 -3.72575,0 -0.29272,0.29273 0.29272,0.9492 0,1.24192 -0.58544,0.58545 -1.89838,-0.58544 -2.48383,0 -0.29272,0.29272 0.29272,0.94919 0,1.24192 -0.04,0.04 -3.42456,0 -3.72575,0 -3.3118,0 0.41394,-0.41399 -1.24191,1.24191 -0.2539,0.25391 -3.23337,-0.24618 -3.72574,0 -4.11895,4.11895 1.17089,-0.58544 -2.48388,1.24192 -0.52364,0.26182 -0.71824,0.9801 -1.24192,1.24191 -0.37026,0.18514 -0.94919,-0.29272 -1.24192,0 -0.29272,0.29273 0.29273,0.9492 0,1.24192 -0.29272,0.29272 -0.8716,-0.18513 -1.24191,0 -0.52364,0.26181 -0.71828,0.9801 -1.24189,1.24192 -0.49239,0.24623 -3.47185,-0.2539 -3.72575,0 -0.29272,0.29272 0.29272,0.94919 0,1.24191 -0.29272,0.29272 -0.82793,0 -1.24192,0 -0.86379,0 -5.76043,-0.22455 -6.20958,0 -0.52363,0.26182 -0.71827,0.9801 -1.24191,1.24192 -0.49238,0.24624 -3.47184,-0.25386 -3.72575,0 -0.29272,0.29272 0.29272,0.94919 0,1.24191 -0.29272,0.29273 -0.94919,-0.29272 -1.24192,0 -0.29272,0.29273 0,0.82798 0,1.24192 0,0.41399 0,0.82797 0,1.24192 0,4.69172 0,-5.51961 0,2.48383 0,0.41398 0.414,1.24191 0,1.24191 -0.41398,0 0,-0.82793 0,-1.24191 -0.41398,0.82797 -0.58734,1.8293 -1.24191,2.48383 -0.0501,0.0501 -4.5116,0 -4.96766,0 -2.06985,0 -4.13974,0 -6.20958,0 -0.41399,0 -0.94919,0.29272 -1.24191,0 -2.9125,-2.9125 3.82617,0 1.24191,0 -0.92565,0 -1.60566,-0.94919 -2.48383,-1.24192 -0.39275,-0.13088 -1.24191,0.41399 -1.24191,0 0,-0.41394 1.6559,0 1.24191,0 -2.06984,0 -4.13974,0 -6.20958,0 -1.49521,0 -3.02995,0 -2.48383,0 0.82793,0 3.31176,0 2.48383,0 -1.24191,0 -2.48383,0 -3.72574,0 -0.41399,0 -0.9492,-0.29272 -1.24192,0 -0.29272,0.29273 0.29272,0.9492 0,1.24192 -0.29272,0.29272 -0.82797,0 -1.24192,0 -0.41398,0 -1.24191,0.41398 -1.24191,0 0,-0.58545 0.82793,-0.82793 1.24191,-1.24192 -2.06984,0 -4.13973,0 -6.20957,0 0,-0.41394 0.29272,-0.94919 0,-1.24191 -0.58544,-0.58545 -1.89838,0.58544 -2.48383,0 -0.29272,-0.29272 0.29272,-0.9492 0,-1.24192 -0.29272,-0.29272 -0.94919,0.29272 -1.24191,0 -0.29278,-0.29272 0.29272,-0.94919 0,-1.24191 -0.29278,-0.29273 -0.87166,0.18512 -1.24197,0 -0.52364,-0.26182 -0.71824,-0.98011 -1.24192,-1.24192 -0.37025,-0.18513 -0.94919,0.29272 -1.24191,0 -0.29272,-0.29272 0.29272,-0.94919 0,-1.24192 -0.29272,-0.29272 -0.9492,0.29273 -1.24192,0 -0.29272,-0.29272 0.29272,-0.94919 0,-1.24191 -0.29272,-0.29272 -0.94919,0.29272 -1.24191,0 -0.29273,-0.29272 0.29272,-0.9492 0,-1.24192 -0.41364,-0.41363 -2.0702,0.41364 -2.48384,0 -0.29272,-0.29272 0.29273,-0.94919 0,-1.24191 -0.29272,-0.29273 -0.87165,0.18513 -1.24191,0 -0.52363,-0.26182 -0.71828,-0.98011 -1.24192,-1.24192 -0.37026,-0.18513 -0.94919,0.29272 -1.24191,0 -0.29273,-0.29272 0.29272,-0.94919 0,-1.24192 -0.29273,-0.29272 -0.87166,0.18514 -1.24192,0 -0.52363,-0.26181 -0.71828,-0.98009 -1.24192,-1.24191 -0.37025,-0.18513 -0.94919,0.29272 -1.24191,0 -0.29272,-0.29272 0.29272,-0.94919 0,-1.24192 -0.29272,-0.29272 -0.9492,0.29273 -1.24192,0 0,-3.31175 0.41399,0.41399 -1.24191,-1.24191 -0.29272,-0.29273 0.29272,-0.9492 0,-1.24192 -0.41409,-0.41408 -2.06974,0.41409 -2.48383,0 -0.29272,-0.29272 0.29272,-0.94919 0,-1.24192 -0.29272,-0.29272 -0.94919,0.29273 -1.24191,0 -0.29272,-0.29272 0.29272,-0.94919 0,-1.24191 -0.41365,-0.41364 -2.0702,0.41364 -2.48383,0 -0.29273,-0.29272 0.29272,-0.94919 0,-1.24191 -0.58545,-0.58544 -1.89839,0.58544 -2.48383,0 -0.29273,-0.29272 0.29272,-0.9492 0,-1.24192 -0.29273,-0.29272 -0.82793,0 -1.24192,0 -0.41399,0 -0.82793,0 -1.24192,0 -0.41399,0 -1.65591,0 -1.24191,0 0.82792,0 3.31175,0 2.48383,0 -1.24192,0 -2.48383,0 -3.72575,0 -0.41399,0 -0.82792,0 -1.24191,0 -0.414,0 -0.9492,-0.29272 -1.24192,0 -0.29272,0.29272 0.29272,0.9492 0,1.24192 -0.41369,0.41369 -2.07015,-0.41369 -2.48383,0 -0.29272,0.29272 0.29272,0.94919 0,1.24191 -0.41364,0.41364 -2.07019,-0.41364 -2.48383,0 -0.29273,0.29272 0.29272,0.94919 0,1.24191 -0.62096,0.62096 -3.10479,-0.62095 -3.72575,0 -0.29272,0.29273 0.18513,0.87166 0,1.24192 -0.26182,0.52364 -0.98009,0.71829 -1.24191,1.24192 -0.18513,0.37026 0.29272,0.94919 0,1.24191 -0.29273,0.29273 -0.9492,-0.29272 -1.24192,0 -0.29272,0.29273 0.29272,0.9492 0,1.24192 -0.29272,0.29272 -0.94919,-0.29272 -1.24191,0 -0.29272,0.29272 0.18512,0.87166 0,1.24191 -0.26182,0.52364 -0.9801,0.71829 -1.24192,1.24192 -0.18513,0.37026 0.29273,0.94919 0,1.24192 -0.29272,0.29272 -0.94919,-0.29273 -1.24191,0 -0.29272,0.29272 0.18512,0.87165 0,1.24191 -0.26183,0.52364 -0.9801,0.71828 -1.24192,1.24192 -0.37026,0.74057 0.58545,1.89838 0,2.48383 -0.29272,0.29272 -0.94919,-0.29272 -1.24191,0 -0.29273,0.29272 0.18512,0.87166 0,1.24192 -0.26182,0.52362 -0.98011,0.71827 -1.24192,1.24191 -0.18513,0.37031 0.29272,0.9492 0,1.24192 -0.29272,0.29272 -0.94919,-0.29272 -1.24192,0 -0.58544,0.58544 0.58545,1.89838 0,2.48383 -0.29272,0.29272 -0.94919,-0.29272 -1.24191,0 -0.29272,0.29272 0.18513,0.87165 0,1.24191 -0.26182,0.52368 -0.9801,0.71828 -1.24192,1.24192 -0.18518,0.37031 0.29273,0.94924 0,1.24196 -0.29272,0.29272 -0.94919,-0.29272 -1.24191,0 -0.58545,0.58544 0.58544,1.89839 0,2.48383 -0.29273,0.29272 -0.9492,-0.29272 -1.24192,0 -0.58549,0.58545 0.58545,1.89839 0,2.48383 -0.29272,0.29272 -0.94924,-0.29272 -1.24197,0 -0.58544,0.58545 0.37031,1.74327 0,2.48383 -0.26181,0.52364 -0.98005,0.71829 -1.24191,1.24192 -0.18513,0.37026 0,0.82792 0,1.24192 -0.41394,0.41394 -0.9801,0.71827 -1.24192,1.24191 -0.18512,0.37026 0.29272,0.9492 0,1.24192 -0.29272,0.29272 -0.94919,-0.29272 -1.24191,0 -0.41409,0.41408 0.41409,2.06974 0,2.48383 -0.29273,0.29272 -0.9492,-0.29272 -1.24192,0 -0.41364,0.41364 0.41365,2.07019 0,2.48383 -0.29272,0.29272 -0.94919,-0.29272 -1.24192,0 -0.58544,0.58545 0.58545,1.89839 0,2.48383 -0.29272,0.29273 -0.94919,-0.29272 -1.24191,0 -0.58544,0.58545 0.37032,1.74331 0,2.48383 -4.1189,4.1189 0.58544,-1.17089 -1.24191,2.48383 -0.26182,0.52364 -0.9801,0.71828 -1.24191,1.24191 -0.18514,0.37027 0,0.82794 0,1.24192 -0.41394,0.41399 -0.9801,0.71829 -1.24192,1.24191 -0.37027,0.74053 0.58544,1.89839 0,2.48384 -0.29272,0.29272 -0.94919,-0.29273 -1.24192,0 -0.58544,0.58544 0.58545,1.89838 0,2.48383 -0.29272,0.29272 -0.94919,-0.29272 -1.24191,0 -0.58545,0.58544 0.58544,1.89839 0,2.48383 -0.29272,0.29272 -0.94919,-0.29272 -1.24192,0 0,3.31181 0.41399,-0.41399 -1.24191,1.24192 -0.29273,0.29272 0.29272,0.94919 0,1.24191 -0.62096,0.62096 -3.10479,-0.62096 -3.72575,0 -0.29272,0.29272 0.29272,0.9492 0,1.24192 -0.29272,0.29272 -0.82792,0 -1.24192,0 -0.41399,0 -0.82792,0 -1.24191,0 -2.89782,0 -5.79559,0 -8.69341,0 -0.41399,0 -0.9492,0.29272 -1.24192,0 -0.29272,-0.29272 0.29272,-0.9492 0,-1.24192 -0.29272,-0.29272 -0.82792,0 -1.24191,0 -3.31176,0 -6.62357,0 -9.93532,0 -1.24192,0 -2.48383,0 -3.72575,0 -0.41399,0 -1.65591,0 -1.24192,0 0.82793,0 3.31176,0 2.48384,0 -1.24192,0 -2.52095,0.30124 -3.72575,0 -0.56797,-0.142 -0.71828,-0.9801 -1.24192,-1.24191 -0.37031,-0.18514 -0.82797,0 -1.24191,0 -0.41399,0 -0.82798,0 -1.24192,0 -2.48383,0 -4.96766,0 -7.45154,0 -0.82793,0 -1.65585,0 -2.48383,0 -0.41394,0 -1.65586,0 -1.24191,0 0.82797,0 2.48383,-0.82793 2.48383,0 0,1.42704 -2.83456,1.24191 -3.72575,1.24191 -0.41394,0 -1.24192,0.41399 -1.24192,0 0,-0.41399 1.6559,0 1.24192,0 -0.82793,0 -1.74326,-0.37026 -2.48383,0 -0.74053,0.37026 0.37026,1.74331 0,2.48383 -0.26182,0.52363 -0.82793,0.82798 -1.24192,1.24192 -6.92986,-4.13768 -5.70818,3.4751 -8.69341,4.96766 -0.37026,0.18513 -0.94919,-0.29272 -1.24191,0 -0.29273,0.29272 0.29272,0.9492 0,1.24192 -0.29273,0.29272 -0.87165,-0.18513 -1.24192,0 -0.52363,0.26181 -0.71828,0.98009 -1.24192,1.24191 -0.37025,0.18513 -0.94919,-0.29272 -1.24191,0 -0.29272,0.29272 0.29272,0.94919 0,1.24191 -0.29272,0.29272 -0.87165,-0.18512 -1.24191,0 -0.52364,0.26183 -0.71829,0.9801 -1.24192,1.24192 -0.37026,0.18513 -0.94919,-0.29272 -1.24191,0 0,3.31181 0.41398,-0.41393 -1.24192,1.24191 -0.29272,0.29273 0.29273,0.9492 0,1.24192 -0.29272,0.29272 -0.87165,-0.18513 -1.24191,0 -0.52364,0.26182 -0.71829,0.9801 -1.24192,1.24191 -0.37026,0.18519 -0.94919,-0.29272 -1.24191,0 -0.29273,0.29273 0.29272,0.9492 0,1.24192 -0.4141,0.41409 -2.06975,-0.41403 -2.48384,0 -0.29272,0.29272 0.29273,0.94919 0,1.24192 -0.29272,0.29272 -0.94919,-0.29273 -1.24191,0 -0.29272,0.29272 0.29272,0.94924 0,1.24196 -0.29272,0.29273 -0.9492,-0.29272 -1.24192,0 -0.29272,0.29273 0.29272,0.9492 0,1.24192 -0.29272,0.29272 -0.94919,-0.29272 -1.24191,0 -0.29273,0.29272 0,0.82792 0,1.24192 -0.414,0 -0.87166,-0.18519 -1.24192,0 -5.16857,2.58425 1.32767,-0.0858 -1.24192,2.48383 -0.29272,0.29272 -0.94919,-0.29273 -1.24191,0 -0.29272,0.29272 0.29272,0.94919 0,1.24191 -0.29272,0.29273 -0.87166,-0.18513 -1.24192,0 -0.57512,0.28751 -4.23725,4.23721 -4.96766,4.96767 -0.41398,0.41393 -0.71828,0.98009 -1.24192,1.24191 -0.37026,0.18513 -0.82797,0 -1.24191,0 -0.41399,0.41393 -0.71828,0.98009 -1.24191,1.24191 -0.37032,0.18513 -0.94919,-0.29272 -1.24192,0 -0.29272,0.29272 0.29273,0.9492 0,1.24192 -0.29272,0.29272 -0.87165,-0.18513 -1.24191,0 -0.52364,0.26182 -0.71829,0.9801 -1.24192,1.24191 -0.37031,0.18513 -0.94919,-0.29272 -1.24191,0 -0.29272,0.29272 0.29272,0.94919 0,1.24192 -0.58545,0.58544 -1.89839,-0.58545 -2.48389,0 -0.29272,0.29272 0.29278,0.94919 0,1.24191 -0.41404,0.4141 -2.06974,-0.41408 -2.48383,0 -0.29272,0.29272 0.29273,0.9492 0,1.24192 -0.29272,0.29272 -0.8716,-0.18513 -1.24191,0 -0.52364,0.26182 -0.71828,0.9801 -1.24192,1.24191 -0.37026,0.18514 -0.94919,-0.29272 -1.24191,0 -0.29273,0.29273 0.29272,0.9492 0,1.24192 -0.29273,0.29272 -0.9492,-0.29272 -1.24192,0 -0.29272,0.29272 0.29272,0.94919 0,1.24192 -0.41409,0.41409 -2.06974,-0.41409 -2.48383,0 -0.29273,0.29272 0.29272,0.94919 0,1.24191 -0.29273,0.29272 -0.9492,-0.29272 -1.24192,0 -0.29272,0.29272 0.29272,0.9492 0,1.24192 -0.29272,0.29272 -0.87165,-0.18514 -1.24191,0 -0.52363,0.26181 -0.71828,0.9801 -1.24192,1.24191 -0.37026,0.18514 -0.94919,-0.29272 -1.24191,0 -0.29272,0.29273 0.29272,0.9492 0,1.24192 -0.29272,0.29272 -0.9492,-0.29272 -1.24192,0 -0.29272,0.29272 0.29272,0.94919 0,1.24192 -0.29272,0.29272 -0.87165,-0.18514 -1.24191,0 -1.04727,0.52363 -1.43656,1.96019 -2.48383,2.48383 -0.37027,0.18512 -0.94919,-0.29272 -1.24192,0 -0.29272,0.29272 0.29273,0.94919 0,1.24191 -0.29272,0.29273 -0.87165,-0.18513 -1.24191,0 -0.52364,0.26182 -0.71829,0.9801 -1.24192,1.24192 -0.37026,0.18512 -0.94919,-0.29272 -1.24191,0 -0.29273,0.29272 0.29272,0.94919 0,1.24192 -0.29273,0.29272 -0.9492,-0.29273 -1.24192,0 -0.29272,0.29272 0.29272,0.94919 0,1.24191 -0.58544,0.58544 -1.89839,-0.58544 -2.48383,0 -0.29272,0.29272 0.29272,0.94919 0,1.24191 -0.29272,0.29273 -0.87166,-0.18513 -1.24192,0 -0.52363,0.26182 -0.71828,0.9801 -1.24191,1.24192 -0.37026,0.18513 -0.9492,-0.29272 -1.24192,0 -0.29272,0.29272 0.29272,0.94919 0,1.24191 -0.29272,0.29272 -0.94919,-0.29272 -1.24192,0 -0.29272,0.29272 0.29273,0.94919 0,1.24191 -0.29272,0.29273 -0.94919,0.29273 -1.24191,0 -0.29272,-0.29272 0.29272,-0.94919 0,-1.24191 -0.29272,-0.29272 -0.94919,0.29272 -1.24192,0 -0.29272,-0.29272 0.29273,-0.94919 0,-1.24191 -0.29272,-0.29272 -0.94919,0.29272 -1.24191,0 -0.29273,-0.29272 0.29272,-0.94919 0,-1.24192 -0.29273,-0.29272 -0.9492,0.29273 -1.24192,0 -0.29272,-0.29272 0.29272,-0.94919 0,-1.24191 -0.0501,-0.0501 -4.5116,0 -4.96765,0 -0.41399,0 -0.82799,0 -1.24192,0 -0.41399,0 -0.94919,0.29272 -1.24191,0 -0.29273,-0.29272 0.29272,-0.94919 0,-1.24191 -0.29884,-0.29884 -4.66883,0.29882 -4.96767,0 -0.29272,-0.29273 0.29272,-0.9492 0,-1.24192 -0.29272,-0.29272 -0.82797,0 -1.24191,0 -0.414,0 -0.82798,0 -1.24192,0 -4.13974,0 -8.27947,0 -12.4192,0 -4.13969,0 -8.27943,0 -12.41916,0 -0.41394,0 -0.82792,0 -1.24192,0 -0.41399,0 -0.94919,0.29272 -1.24191,0 -0.29272,-0.29272 0.29272,-0.94919 0,-1.24192 -0.29272,-0.29272 -0.82793,0 -1.24192,0 -0.41398,0 -0.82792,0 -1.24191,0 -0.41399,0 -0.82793,0 -1.24192,0 -0.41398,0 -0.94919,0.29273 -1.24192,0 -0.29272,-0.29272 0.29273,-0.94919 0,-1.24191 -0.29272,-0.29272 -0.82792,0 -1.24191,0 -0.41398,0 -0.82793,0 -1.24192,0 -0.52438,0 -5.45347,0 -2.48383,0 0.82793,0 3.31177,0 2.48383,0 -11.59122,0 -1.24191,1.24191 -3.72574,-1.24192 -0.04,-0.04 -3.42456,0 -3.72574,0 -0.414,0 -0.9492,-0.29272 -1.24192,0 -0.29272,0.29272 0.29272,0.9492 0,1.24192 -0.29272,0.29272 -0.94919,-0.29272 -1.24191,0 -0.29273,0.29272 0.29272,0.94919 0,1.24191 -0.29273,0.29273 -0.87166,-0.18513 -1.24192,0 -0.52364,0.26182 -0.71829,0.9801 -1.24192,1.24192 -0.37025,0.18512 -1.24191,0.41398 -1.24191,0 0,-0.41399 1.24191,-0.41399 1.24191,0 0,0.58544 -0.71828,0.98009 -1.24191,1.24192 -0.37026,0.18512 -0.9492,-0.29273 -1.24192,0 -0.29272,0.29272 0,0.82792 0,1.24191 0,2.06989 0,4.13973 0,6.20957 0,0.41399 0.29272,0.94919 0,1.24192 -0.29272,0.29272 -0.94919,-0.29273 -1.24191,0 -0.58545,0.58544 0.58544,1.89838 0,2.48383 -0.29273,0.29272 -0.9492,-0.29272 -1.24192,0 -0.29272,0.29272 0.29272,0.94919 0,1.24191 -0.29272,0.29273 -0.94919,-0.29272 -1.24192,0 -0.29272,0.29273 0.18514,0.87166 0,1.24192 -0.26181,0.52364 -0.9801,0.71828 -1.24191,1.24192 -0.18513,0.37031 0.29272,0.94919 0,1.24191 -0.29272,0.29272 -0.9492,-0.29272 -1.24192,0 -0.29272,0.29272 0.29272,0.9492 0,1.24192 -0.29272,0.29272 -0.94919,-0.29272 -1.24191,0 -0.29273,0.29272 0.29272,0.94919 0,1.24191 -0.29273,0.29273 -0.82798,0 -1.24192,0 0,0.41399 0.18513,0.87166 0,1.24192 -0.26181,0.52368 -0.98009,0.71828 -1.24192,1.24192 -0.18512,0.37031 0.29273,0.94919 0,1.24191 -1.82735,0 -0.94919,-0.29272 -2.48383,1.24197 -0.65386,0.65381 -3.06246,3.3941 -3.72574,3.72574 -0.37031,0.18513 -0.94924,-0.29272 -1.24196,0 -0.29272,0.29272 0,0.82793 0,1.24192 -0.41394,0 -0.9492,-0.29273 -1.24192,0 -0.29272,0.29272 0.29272,0.94919 0,1.24191 -0.29883,0.29883 -4.66878,-0.29888 -4.96766,0 -0.29272,0.29272 0.29272,0.94919 0,1.24191 -0.41364,0.41365 -2.0702,-0.41363 -2.48383,0 -0.29273,0.29273 0.29272,0.9492 0,1.24192 -0.41409,0.41409 -2.06974,-0.41408 -2.48384,0 -0.29272,0.29272 0.29273,0.94919 0,1.24192 -0.29272,0.29272 -0.87165,-0.18513 -1.24191,0 -0.52363,0.26182 -0.71828,0.9801 -1.24192,1.24191 -0.37026,0.18514 -0.94919,-0.29272 -1.24191,0 -0.29273,0.29272 0.29272,0.9492 0,1.24192 -0.29273,0.29272 -0.87165,-0.18513 -1.24192,0 -0.52363,0.26182 -0.71828,0.9801 -1.24192,1.24191 -0.74051,0.37026 -1.89838,-0.58544 -2.48382,0 -0.29272,0.29273 0.29272,0.9492 0,1.24192 -0.29272,0.29272 -0.9492,-0.29272 -1.24192,0 -0.29272,0.29272 0.29272,0.94919 0,1.24192 -0.29272,0.29272 -0.87165,-0.18514 -1.24191,0 -1.49031,0.74513 -2.23544,2.98056 -3.72575,3.72574 -0.37026,0.18513 -0.94919,-0.29272 -1.24191,0 -0.29273,0.29273 0.29272,0.9492 0,1.24192 -0.4141,0.41408 -2.06975,-0.41409 -2.48383,0 0,3.31176 0.41398,-0.41399 -1.24192,1.24192 -0.29272,0.29272 0.29272,0.94919 0,1.24191 -0.41409,0.41409 -2.06975,-0.41409 -2.48383,0 -0.29272,0.29272 0.29272,0.94919 0,1.24192 -0.29272,0.29272 -1.24192,0.41398 -1.24192,0 0,-0.41399 1.65591,0 1.24192,0 -7.03756,0 -0.41399,-0.82794 -2.48383,1.24191 -0.29273,0.29273 -0.9492,-0.29272 -1.24192,0 -0.29272,0.29273 0.29272,0.9492 0,1.24192 -0.29272,0.29272 -0.94919,-0.29272 -1.24192,0 -0.29272,0.29272 0.29273,0.94919 0,1.24191 -0.29272,0.29272 -0.94919,-0.29272 -1.24191,0 -0.29272,0.29272 0.29272,0.9492 0,1.24192 -0.29272,0.29272 -0.82798,0 -1.24192,0 -0.41398,0 -0.82797,0 -1.24191,0 -0.41399,0 -1.6559,0 -1.24192,0 0.82793,0 3.31177,0 2.48383,0 -11.59122,0 -1.24191,1.24191 -3.72574,-1.24192 -0.58545,-0.58544 -1.74331,0.37026 -2.48383,0 -0.52364,-0.26182 -0.71829,-0.9801 -1.24191,-1.24191 -0.67376,-0.33685 -4.62786,0.3398 -4.96767,0 -0.29272,-0.29272 0.29273,-0.94919 0,-1.24192 -0.62096,-0.62095 -3.10479,0.62096 -3.72574,0 -0.29273,-0.29272 -0.414,-1.24191 0,-1.24191 0.58544,0 1.82736,1.24191 1.24191,1.24191 -0.9257,0 -1.82932,-0.58735 -2.48383,-1.24191 -0.29272,-0.29273 0.82792,0 1.24192,0 0.41394,0 0.82792,0 1.24191,0 -1.24191,0.41398 -2.48383,0.82792 -3.7258,1.24191 0,0.41399 0.29272,0.9492 0,1.24192 -0.41403,0.41408 -2.06974,-0.41409 -2.48383,0 -0.29272,0.29272 0.29272,0.94919 0,1.24191 -0.29272,0.29272 -0.87161,-0.18513 -1.24192,0 -0.52362,0.26182 -0.71827,0.9801 -1.24191,1.24192 -0.37026,0.18513 -0.94919,-0.29272 -1.24192,0 -0.29272,0.29272 0.29273,0.94919 0,1.24191 -0.29272,0.29272 -0.94919,-0.29272 -1.24191,0 -0.29273,0.29272 0.18513,0.87165 0,1.24191 -0.26182,0.52364 -0.9801,0.71829 -1.24192,1.24192 -0.18512,0.37027 0.29272,0.94919 0,1.24191 -0.29272,0.29273 -0.94919,-0.29272 -1.24191,0 -0.29272,0.29273 0.29272,0.9492 0,1.24192 -0.29272,0.29272 -0.94919,-0.29272 -1.24192,0 -0.29272,0.29272 0.29273,0.94919 0,1.24192 -0.29272,0.29272 -0.94919,-0.29273 -1.24191,0 0,3.3118 0.41399,-0.41399 -1.24191,1.24191 -0.29273,0.29272 0.18512,0.87166 0,1.24192 -0.26183,0.52364 -0.9801,0.71828 -1.24192,1.24191 -0.18513,0.37026 0.29272,0.9492 0,1.24192 -0.29272,0.29272 -0.94919,-0.29272 -1.24191,0 -0.29273,0.29272 0.29272,0.94919 0,1.24192 -0.29273,0.29272 -0.9492,-0.29273 -1.24192,0 -0.29272,0.29272 0.18512,0.87165 0,1.24191 -0.52364,1.04727 -1.9602,1.43657 -2.48383,2.48383 -0.18514,0.37026 0.29272,0.9492 0,1.24192 -0.29273,0.29272 -0.9492,-0.29272 -1.24192,0 -0.29272,0.29272 0.29272,0.94919 0,1.24192 -0.29272,0.29272 -0.94919,-0.29273 -1.24191,0 -0.29273,0.29272 0.29272,0.94919 0,1.24191 -0.29273,0.29272 -0.9492,-0.29272 -1.24192,0 0,3.31181 0.41399,-0.41394 -1.24192,1.24192 -0.292719,0.29272 0.29273,0.94919 0,1.24191 -0.292719,0.29273 -0.949189,-0.29272 -1.241909,0 -0.29272,0.29273 0.18513,0.87165 0,1.24192 -0.26182,0.52363 -0.9801,0.71828 -1.24192,1.24191 -0.18513,0.37031 0.29272,0.94919 0,1.24191 -0.29272,0.29272 -0.94919,-0.29272 -1.24191,0 -0.29273,0.29272 0.29272,0.9492 0,1.24192 -0.29273,0.29272 -0.9492,-0.29272 -1.24192,0 -0.29272,0.29272 0.29272,0.94918 0,1.24196 -0.29272,0.29271 -1.24192,0.41398 -1.24192,0 0,-0.58549 1.24192,-1.8274 1.24192,-1.24196 0,6.27392 -0.95445,0.95444 -2.48383,2.4839 -0.29272,0.2927 0.29272,0.94915 0,1.24193 -0.29272,0.29271 -0.9492,-0.29278 -1.24192,0 -0.29272,0.29271 0.29272,0.94915 0,1.24186 -0.29272,0.29278 -0.94919,-0.29271 -1.24191,0 0,3.31174 0.41399,-0.41398 -1.24192,1.24193 -0.58544,0.58549 0.58545,1.89838 0,2.48387 -0.29272,0.29271 -0.82792,0 -1.24191,0 -0.41399,0 -1.24191,0.4139 -1.24191,0 0,-0.41406 1.24191,-0.41406 1.24191,0 0,0.58541 -0.71828,0.98007 -1.24191,1.24186 -0.37027,0.18516 -0.82799,0 -1.24192,0 -0.41399,0 -0.82798,0 -1.24191,0 -0.30119,0 -3.68583,-0.0403 -3.72575,0 -0.29272,0.29278 0.29272,0.94923 0,1.24193 -0.29272,0.2927 -0.87166,-0.18516 -1.24192,0 -4.11894,4.1189 1.17089,-0.58541 -2.48383,1.24194 -0.52364,0.26179 -0.71828,0.98006 -1.24191,1.24193 -0.37026,0.18508 -0.9492,-0.29278 -1.24192,0 -0.29272,0.29271 0.29272,0.94915 0,1.24185 -0.41364,0.41365 -2.0702,-0.41356 -2.48383,0 -0.292719,0.29279 0.29272,0.94924 0,1.24194 -0.585448,0.58549 -1.898388,-0.58541 -2.483828,0 -0.292729,0.2927 0.29272,0.94923 0,1.24194 -0.292729,0.2927 -0.949199,-0.29271 -1.241919,0 -0.29272,0.2927 0.29272,0.94914 0,1.24193 -0.585449,0.58541 -1.898389,-0.58549 -2.483879,0 -0.292728,0.2927 0.29272,0.94915 0,1.24194 -0.292728,0.2927 -0.949199,-0.29279 -1.241919,0 -0.29272,0.2927 0.29272,0.94914 0,1.24185 -0.29272,0.29278 -0.94919,-0.29271 -1.24191,0 -0.292729,0.29278 0.29272,0.94923 0,1.24193 -0.292729,0.29271 -0.871608,-0.18507 -1.241919,0 -1.047271,0.52366 -1.436509,1.96021 -2.48383,2.48387 -0.370262,0.18508 -0.949198,-0.29278 -1.241918,0 -0.29272,0.29271 0.29272,0.94915 0,1.24186 -0.29272,0.29278 -0.949191,-0.29271 -1.241911,0 -0.292728,0.29278 0.185127,0.8717 0,1.24193 -0.261822,0.52366 -0.980105,0.71828 -1.241919,1.24194 -0.185127,0.37024 0.29272,0.94923 0,1.24193 -0.29272,0.29271 -0.94919,-0.2927 -1.241919,0 -0.29272,0.29271 0,0.82788 0,1.24194 -0.413937,0 -0.94919,-0.29279 -1.24191,0 -0.585449,0.58541 0.58544,1.89838 0,2.48379 -0.29272,0.2927 -0.949199,-0.29271 -1.241919,0 -0.29272,0.2927 0.29272,0.94923 0,1.24193 -0.29272,0.29271 -0.94919,-0.2927 -1.24191,0 -0.292729,0.29271 0.185126,0.87162 0,1.24194 -0.261822,0.52357 -0.980106,0.71827 -1.241919,1.24185 -0.185127,0.37032 0.29272,0.94923 0,1.24194 -0.29272,0.2927 -0.949191,-0.29271 -1.241919,0 -0.29272,0.2927 0.292728,0.94923 0,1.24193 -0.29272,0.2927 -0.94919,-0.2927 -1.241911,0 -0.29272,0.2927 0.292721,0.94915 0,1.24194 -0.29272,0.2927 -0.949198,-0.29279 -1.241918,0 -0.292721,0.2927 0.29272,0.94915 0,1.24185 -0.292721,0.29278 -0.949191,-0.2927 -1.241911,0 -0.292728,0.29278 0,0.82804 0,1.24193 -1.241919,0.82796 -2.483838,1.65592 -3.725748,2.48387 z"
       id="path3346"
       inkscape:connector-curvature="0" />
  </g>
</svg>
