<?xml version="1.0" encoding="UTF-8" standalone="no"?>
<!-- Created with Inkscape (http://www.inkscape.org/) -->

<svg
   xmlns:dc="http://purl.org/dc/elements/1.1/"
   xmlns:cc="http://creativecommons.org/ns#"
   xmlns:rdf="http://www.w3.org/1999/02/22-rdf-syntax-ns#"
   xmlns:svg="http://www.w3.org/2000/svg"
   xmlns="http://www.w3.org/2000/svg"
   xmlns:sodipodi="http://sodipodi.sourceforge.net/DTD/sodipodi-0.dtd"
   xmlns:inkscape="http://www.inkscape.org/namespaces/inkscape"
   width="210mm"
   height="297mm"
   viewBox="0 0 744.09448819 1052.3622047"
   id="svg3531"
   version="1.1"
   inkscape:version="0.91 r13725"
   sodipodi:docname="cursed swamps mouseover line.svg">
  <defs
     id="defs3533" />
  <sodipodi:namedview
     id="base"
     pagecolor="#ffffff"
     bordercolor="#666666"
     borderopacity="1.0"
     inkscape:pageopacity="0.0"
     inkscape:pageshadow="2"
     inkscape:zoom="0.35"
     inkscape:cx="375"
     inkscape:cy="520"
     inkscape:document-units="px"
     inkscape:current-layer="layer1"
     showgrid="false"
     inkscape:window-width="1366"
     inkscape:window-height="706"
     inkscape:window-x="-8"
     inkscape:window-y="-8"
     inkscape:window-maximized="1" />
  <metadata
     id="metadata3536">
    <rdf:RDF>
      <cc:Work
         rdf:about="">
        <dc:format>image/svg+xml</dc:format>
        <dc:type
           rdf:resource="http://purl.org/dc/dcmitype/StillImage" />
        <dc:title></dc:title>
      </cc:Work>
    </rdf:RDF>
  </metadata>
  <g
     inkscape:label="Layer 1"
     inkscape:groupmode="layer"
     id="layer1">
    <g
       transform="matrix(0.78022227,0,0,0.78022227,-3389.5587,-1550.7207)"
       style="display:inline"
       id="g3516">
      <path
         inkscape:connector-curvature="0"
         id="path3512"
         d="m 4557.5242,2519.2491 c -0.946,-3.7837 -2.0729,-7.5268 -2.8378,-11.3512 -1.8919,-9.4594 2.8378,2.8378 -2.8378,-2.8378 -0.9465,-0.9465 0.9465,-4.7292 0,-5.6757 -0.6689,-0.6688 -2.169,0.6689 -2.8378,0 -1.419,-1.4189 1.4189,-7.0945 0,-8.5134 -0.6689,-0.6689 -2.169,0.6689 -2.8379,0 -1.4189,-1.4189 1.4189,-7.0945 0,-8.5134 -3.7837,-3.7838 -2.8378,4.7297 -2.8378,-2.8378 0,-1.8919 0,-7.5675 0,-5.6757 0,6.4938 0.5983,10.9065 -2.8378,-2.8378 -0.2913,-1.1651 0.344,-5.3316 0,-5.6756 -0.6689,-0.6689 -2.1689,0.6689 -2.8378,0 -1.3377,-1.3377 1.3378,-4.3378 0,-5.6756 -0.6689,-0.6689 -1.8919,0 -2.8378,0 -3.7838,0 -7.5675,0 -11.3512,0 -0.946,0 -1.8919,0 -2.8379,0 -0.9459,0 -2.8378,0.9459 -2.8378,0 0,-0.9459 2.8378,0.9459 2.8378,0 0,-5.9051 -3.9796,-1.1419 -5.6756,-2.8378 -0.6689,-0.6689 0.6689,-2.1689 0,-2.8378 -7.5675,0 0.946,0.9459 -2.8378,-2.8378 -0.6689,-0.6689 -2.1689,0.6688 -2.8378,0 -1.3378,-1.3378 1.3378,-4.3379 0,-5.6757 -0.6689,-0.6688 -2.1689,0.6689 -2.8378,0 -0.9456,-0.9455 0.9456,-4.73 0,-5.6756 -0.6689,-0.6689 -1.8919,0 -2.8378,0 0,-0.9459 0.6689,-2.1689 0,-2.8378 -0.6689,-0.6689 -2.169,0.6689 -2.8378,0 -1.3378,-1.3377 1.3377,-4.3379 0,-5.6756 -0.6689,-0.6689 -2.169,0.6689 -2.8378,0 -0.6689,-0.6689 0.6688,-2.1689 0,-2.8378 -0.6689,-0.6689 -2.169,0.6689 -2.8379,0 -0.6688,-0.6689 0.6689,-2.169 0,-2.8378 -0.6688,-0.6689 -2.1689,0.6688 -2.8378,0 -0.6688,-0.6689 0.4231,-1.9918 0,-2.8378 -0.5982,-1.1966 -2.2395,-1.6413 -2.8378,-2.8379 -0.423,-0.846 0.6689,-2.1689 0,-2.8378 -0.6689,-0.6688 -2.1689,0.6689 -2.8378,0 -0.6689,-0.6688 0.6689,-2.1689 0,-2.8378 -0.6689,-0.6689 -2.1689,0.6689 -2.8378,0 -0.6689,-0.6689 0.423,-1.9917 0,-2.8378 -0.5983,-1.1965 -2.2395,-1.6413 -2.8378,-2.8378 -0.423,-0.8461 0.6689,-2.1689 0,-2.8378 -0.6689,-0.6689 -2.1689,0.6689 -2.8378,0 -0.6689,-0.6689 0.6689,-2.1689 0,-2.8378 -0.6689,-0.6689 -2.169,0.6689 -2.8378,0 -0.6689,-0.6689 0.6688,-2.169 0,-2.8378 -0.6689,-0.6689 -2.169,0.6688 -2.8378,0 -1.3378,-1.3378 1.3377,-4.3379 0,-5.6757 -0.6689,-0.6688 -2.169,0.6689 -2.8379,0 -1.3377,-1.3377 0.8461,-3.9834 0,-5.6756 -0.5982,-1.1965 -2.2395,-1.6413 -2.8378,-2.8378 -0.846,-1.6921 1.3378,-4.3379 0,-5.6756 -0.6688,-0.6689 -2.1689,0.6689 -2.8378,0 -1.4189,-1.4189 1.4189,-7.0945 0,-8.5134 -0.6689,-0.6689 -2.1689,0.6688 -2.8378,0 -0.6689,-0.6689 0.4231,-1.9918 0,-2.8379 -9.4118,-9.4118 1.3378,2.6756 -2.8378,-5.6756 -0.5983,-1.1965 -2.2395,-1.6413 -2.8378,-2.8378 -0.423,-0.8461 0,-1.8919 0,-2.8378 -0.9459,-0.9459 -2.2396,-1.6413 -2.8378,-2.8378 -0.4231,-0.8461 0.423,-1.9917 0,-2.8378 -0.5983,-1.1965 -2.2396,-1.6413 -2.8378,-2.8378 -0.4231,-0.8461 0.6689,-2.169 0,-2.8378 -0.6689,-0.6689 -2.169,0.6688 -2.8378,0 -0.9456,-0.9456 0.9455,-4.7301 0,-5.6757 -0.6689,-0.6688 -2.169,0.6689 -2.8378,0 -0.9465,-0.9465 0.9464,-4.7291 0,-5.6756 -0.6689,-0.6689 -2.169,0.6689 -2.8379,0 -0.9455,-0.9456 0.9456,-4.73 0,-5.6756 -0.6688,-0.6689 -2.1689,0.6689 -2.8378,0 -0.6688,-0.6689 0.6689,-2.1689 0,-2.8378 -0.6688,-0.6689 -2.1689,-0.6689 -2.8378,0 -0.6689,0.6689 0,1.8919 0,2.8378 5.6756,0 11.3513,0 17.0269,0 0.9459,0 3.7837,0 2.8378,0 -1.8919,0 -7.5675,0 -5.6756,0 3.7837,0 7.5675,0 11.3512,0 0.946,0 1.8919,0 2.8378,0 0.946,0 2.169,0.6689 2.8378,0 0.6689,-0.6689 -0.6688,-2.1689 0,-2.8378 0.6689,-0.6689 1.8919,0 2.8378,0 0.946,0 1.8919,0 2.8379,0 0.9459,0 3.7837,0 2.8378,0 -15.3996,0 1.2705,-2.8378 5.6756,-2.8378 0.6882,0 8.4222,0.091 8.5134,0 0.6689,-0.6689 -0.6689,-2.169 0,-2.8378 0.6689,-0.6689 2.169,0.6688 2.8378,0 0.6689,-0.6689 -0.423,-1.9918 0,-2.8378 0.5983,-1.1966 2.2396,-1.6413 2.8378,-2.8379 0.4231,-0.846 -0.6688,-2.1689 0,-2.8378 0.6689,-0.6688 2.169,0.6689 2.8379,0 0.6688,-0.6688 -0.6689,-2.1689 0,-2.8378 0.6688,-0.6689 2.1689,0.6689 2.8378,0 0.6688,-0.6689 -0.6689,-2.1689 0,-2.8378 0.6688,-0.6689 2.1689,0.6689 2.8378,0 0.6689,-0.6689 -0.6689,-2.1689 0,-2.8378 0.6689,-0.6689 1.9917,0.423 2.8378,0 1.1965,-0.5983 1.6413,-2.2395 2.8378,-2.8378 0.8461,-0.423 2.1689,0.6689 2.8378,0 0.6689,-0.6689 -0.6689,-2.1689 0,-2.8378 0.6689,-0.6689 2.1689,0.6689 2.8378,0 0.6689,-0.6689 -0.6689,-2.169 0,-2.8378 0.6689,-0.6689 2.169,0.6688 2.8378,0 0.6689,-0.6689 -0.6688,-2.169 0,-2.8378 0.6689,-0.6689 2.169,0.6688 2.8378,0 0.6689,-0.6689 -0.6688,-2.169 0,-2.8379 0.6689,-0.6688 2.169,0.6689 2.8379,0 0.6688,-0.6688 -0.4231,-1.9917 0,-2.8378 0.5982,-1.1965 2.2395,-1.6413 2.8378,-2.8378 0.423,-0.846 0.6688,-3.5067 0,-2.8378 -1.4957,1.4957 -4.953,5.6756 -2.8378,5.6756 15.594,0 2.4054,-5.2432 5.6756,-8.5134 0.6689,-0.6689 2.1689,0.6689 2.8378,0 0.6689,-0.6689 -0.6689,-2.1689 0,-2.8378 1.3377,-1.3378 4.3379,1.3377 5.6756,0 0.6689,-0.6689 0,-1.8919 0,-2.8378 0.9459,0 1.9917,0.423 2.8378,0 1.1965,-0.5983 1.6413,-2.2396 2.8378,-2.8378 0.8461,-0.4231 2.169,0.6688 2.8378,0 0.6689,-0.6689 -0.6688,-2.169 0,-2.8378 1.3378,-1.3378 3.9835,0.846 5.6757,0 1.1965,-0.5983 1.6412,-2.2396 2.8378,-2.8379 1.6921,-0.846 4.3378,1.3378 5.6756,0 0.6689,-0.6688 -0.6689,-2.1689 0,-2.8378 1.3378,-1.3377 4.3379,1.3378 5.6756,0 0.6689,-0.6688 -0.6689,-2.1689 0,-2.8378 0.6689,-0.6689 1.8919,0 2.8378,0 0.946,0 1.8919,0 2.8378,0 0.946,0 2.8378,-0.9459 2.8378,0 0,0.946 -3.7837,0 -2.8378,0 2.8378,0 5.6757,0 8.5135,0 0.9459,0 2.8378,0.946 2.8378,0 0,-1.3377 -1.8919,-1.8918 -2.8378,-2.8378 3.7837,1.8919 7.5675,3.7838 11.3512,5.6756 0,0.946 -0.6689,2.169 0,2.8378 0.6689,0.6689 2.1689,-0.6688 2.8378,0 0.6689,0.6689 -0.6689,2.169 0,2.8379 1.3378,1.3377 4.3379,-1.3378 5.6756,0 0.6689,0.6688 -0.6688,2.1689 0,2.8378 1.3378,1.3377 4.3379,-1.3378 5.6757,0 0.6688,0.6688 -0.6689,2.1689 0,2.8378 1.3377,1.3377 4.3378,-1.3378 5.6756,0 0.6689,0.6689 -0.6689,2.1689 0,2.8378 1.4189,1.4189 7.0945,-1.4189 8.5134,0 0.6689,0.6689 -0.6689,2.1689 0,2.8378 0.6829,0.6829 10.6684,-0.6829 11.3513,0 0.6688,0.6689 -0.6689,2.1689 0,2.8378 0.6688,0.6689 1.8918,0 2.8378,0 1.338,0 14.0604,-0.1286 14.189,0 0.6689,0.6689 -0.6688,2.1689 0,2.8378 1.3378,1.3378 4.3379,-1.3377 5.6757,0 0.6688,0.6689 -0.6689,2.169 0,2.8378 1.3377,1.3378 4.3378,-1.3377 5.6756,0 0.6689,0.6689 -0.6689,2.169 0,2.8378 7.5675,0 -0.946,-0.9459 2.8378,2.8379 1.3377,1.3377 4.3378,-1.3378 5.6756,0 0.6689,0.6688 -0.6689,2.1689 0,2.8378 1.3378,1.3377 5.6756,-1.8919 5.6756,0 0,0.9459 -2.8378,-0.946 -2.8378,0 0,5.9051 3.9797,1.1418 5.6756,2.8378 0.6689,0.6689 0.946,2.8378 0,2.8378 -0.9459,0 -0.9459,-2.8378 0,-2.8378 1.3378,0 1.5001,2.8378 2.8378,2.8378 0.946,0 -0.6688,-2.1689 0,-2.8378 0.9471,-0.9471 4.7286,0.9471 5.6757,0 0.6688,-0.6689 -0.6689,-2.169 0,-2.8378 0.6688,-0.6689 2.8378,-0.946 2.8378,0 0,0.9459 -3.7838,0 -2.8378,0 1.8918,0 3.9834,0.846 5.6756,0 0.8461,-0.4231 -0.6689,-2.169 0,-2.8378 0.6689,-0.6689 1.8919,0 2.8378,0 0.9459,0 2.1689,-0.6689 2.8378,0 0.6689,0.6688 -0.423,1.9917 0,2.8378 5.9052,11.8103 -0.1959,-3.0338 5.6756,2.8378 0.6689,0.6689 -0.6688,2.1689 0,2.8378 0.6689,0.6689 2.169,-0.6689 2.8378,0 0.6689,0.6689 -0.6688,2.1689 0,2.8378 0.6689,0.6689 1.9918,-0.423 2.8379,0 1.1965,0.5983 1.6412,2.2395 2.8378,2.8378 0.846,0.423 2.1689,-0.6689 2.8378,0 0.6689,0.6689 -0.6689,2.1689 0,2.8378 1.3377,1.3378 4.3378,-1.3377 5.6756,0 3.7837,3.7838 -4.7297,2.8378 2.8378,2.8378 1.0422,0 11.2371,-0.1142 11.3513,0 0.6688,0.6689 0.9459,2.8378 0,2.8378 -0.946,0 -0.946,-2.8378 0,-2.8378 1.3377,0 2.8378,1.5001 2.8378,2.8378 0,0.946 -1.8919,0 -2.8378,0 -1.4502,-17.1294 10.7784,0.5728 14.189,-2.8378 0.6689,-0.6688 -0.6689,-2.1689 0,-2.8378 1.4189,-1.4189 7.0945,1.4189 8.5134,0 0.6689,-0.6689 -0.6688,-2.1689 0,-2.8378 1.3378,-1.3377 3.9835,0.8461 5.6757,0 1.1965,-0.5983 1.6412,-2.2395 2.8378,-2.8378 1.1251,-0.5626 7.9333,0.5802 8.5134,0 0.6689,-0.6689 -0.6689,-2.1689 0,-2.8378 1.4189,-1.4189 7.0945,1.4189 8.5134,0 0.6689,-0.6689 -0.6688,-2.1689 0,-2.8378 0.6689,-0.6689 1.9918,0.423 2.8378,0 1.1966,-0.5983 1.6413,-2.2396 2.8379,-2.8378 0.846,-0.4231 2.1689,0.6688 2.8378,0 0.6689,-0.6689 -0.6689,-2.169 0,-2.8378 0.6689,-0.6689 1.9917,0.423 2.8378,0 1.1965,-0.5983 1.6413,-2.2396 2.8378,-2.8379 0.8461,-0.423 2.1689,0.6689 2.8378,0 0.6689,-0.6688 -0.6689,-2.1689 0,-2.8378 0.6689,-0.6688 2.8378,-0.9459 2.8378,0 0,0.946 -1.8919,0 -2.8378,0"
         style="fill:none;fill-rule:evenodd;stroke:#000000;stroke-width:1px;stroke-linecap:butt;stroke-linejoin:miter;stroke-opacity:1" />
      <path
         inkscape:connector-curvature="0"
         id="path3514"
         d="m 4798.7381,2286.5486 c 20.0663,2.6361 -4.0133,-13.0136 0,-17.0268 0.6689,-0.6689 2.1689,0.6688 2.8378,0 1.3378,-1.3378 -1.3377,-4.3379 0,-5.6757 0.6689,-0.6688 2.1689,0.6689 2.8378,0 1.3378,-1.3377 -1.3377,-4.3378 0,-5.6756 0.6689,-0.6689 2.169,0.6689 2.8378,0 0.6689,-0.6689 -0.6688,-2.1689 0,-2.8378 0.6689,-0.6689 2.169,0.6689 2.8378,0 0.6689,-0.6689 -0.423,-1.9917 0,-2.8378 0.5983,-1.1965 2.2396,-1.6413 2.8379,-2.8378 0.423,-0.8461 -0.946,-2.8378 0,-2.8378 0.9459,0 -0.946,2.8378 0,2.8378 10.008,0 -4.3304,-5.6756 5.6756,-5.6756 6.6552,0 -1.3378,-0.6689 5.6756,2.8378 0.8461,0.423 2.1689,-0.6689 2.8378,0 0.6689,0.6689 -0.6689,2.1689 0,2.8378 1.3378,1.3378 4.3379,-1.3378 5.6756,0 0.6689,0.6689 -0.6688,2.1689 0,2.8378 0.6689,0.6689 1.8919,0 2.8378,0 0,0.9459 -0.6688,2.1689 0,2.8378 1.3378,1.3378 4.3379,-1.3377 5.6757,0 0.6688,0.6689 -0.6689,2.1689 0,2.8378 1.4189,1.4189 7.0945,-1.4189 8.5134,0 0.6689,0.6689 -0.6689,2.169 0,2.8378 1.3378,1.3378 4.3379,-1.3377 5.6756,0 0.6689,0.6689 -0.6689,2.169 0,2.8378 1.3378,1.3378 4.3379,-1.3377 5.6756,0 0.6689,0.6689 -0.6688,2.169 0,2.8379 1.3378,1.3377 4.3379,-1.3378 5.6757,0 0.6688,0.6688 -0.6689,2.1689 0,2.8378 1.3377,1.3377 4.3378,-1.3378 5.6756,0 0.6689,0.6688 -0.6689,2.1689 0,2.8378 1.3377,1.3377 3.9835,-0.8461 5.6756,0 1.1965,0.5982 1.6413,2.2395 2.8378,2.8378 1.6922,0.8461 4.3379,-1.3378 5.6756,0 0.6689,0.6689 -0.6688,2.1689 0,2.8378 0.6795,0.6794 11.3513,-0.6451 11.3513,0 0,0.9459 -3.7838,0 -2.8378,0 1.8918,0 3.7837,0 5.6756,0 0.9459,0 2.8378,-0.9459 2.8378,0 0,0.9459 -3.7837,0 -2.8378,0 1.8919,0 3.7837,0 5.6756,0 0.946,0 2.1689,0.6689 2.8378,0 0.6689,-0.6689 -0.6689,-2.1689 0,-2.8378 0.6689,-0.6689 2.169,0.6689 2.8378,0 1.3378,-1.3378 -0.846,-3.9835 0,-5.6756 0.5983,-1.1966 2.2396,-1.6413 2.8378,-2.8378 0.4231,-0.8461 -0.6688,-2.169 0,-2.8379 0.6689,-0.6688 2.169,0.6689 2.8379,0 0.6688,-0.6688 -0.6689,-2.1689 0,-2.8378 0.6688,-0.6688 2.1689,0.6689 2.8378,0 0.6688,-0.6688 -0.6689,-2.1689 0,-2.8378 0.6688,-0.6689 2.1689,0.6689 2.8378,0 0.6689,-0.6689 -0.6689,-2.1689 0,-2.8378 0.6689,-0.6689 2.1689,0.6689 2.8378,0 0.6689,-0.6689 -0.6689,-2.1689 0,-2.8378 7.5675,0 -0.9459,0.9459 2.8378,-2.8378 0.6689,-0.6689 2.1689,0.6689 2.8378,0 0.6689,-0.6689 -0.6689,-2.1689 0,-2.8378 0.6689,-0.6689 1.8919,0 2.8378,0 0.946,0 1.8919,0 2.8378,0 3.7838,0 7.5675,0 11.3513,0 0.9459,0 1.8919,0 2.8378,0 0.9459,0 2.8378,-0.946 2.8378,0 0,0.9459 -3.7837,0 -2.8378,0 1.8919,0 3.7837,0 5.6756,0 0.9459,0 2.1689,0.6689 2.8378,0 0.6689,-0.6689 -0.6689,-2.1689 0,-2.8378 1.3378,-1.3378 4.3379,1.3377 5.6756,0 0.6689,-0.6689 -0.6688,-2.169 0,-2.8378 0.6689,-0.6689 2.8379,-0.946 2.8379,0 0,0.9459 -3.7838,0 -2.8379,0 16.081,0 0.946,1.8918 5.6757,-2.8378 1.3377,-1.3378 4.3378,1.3377 5.6756,0 0.6689,-0.6689 -0.6689,-2.169 0,-2.8379 1.3377,-1.3377 4.3379,1.3378 5.6756,0 0.6689,-0.6688 -0.6689,-2.1689 0,-2.8378 0.6689,-0.6688 1.9917,0.4231 2.8378,0 1.1965,-0.5982 1.6413,-2.2395 2.8378,-2.8378 0.8461,-0.423 2.169,0.6689 2.8378,0 0.6689,-0.6689 -0.6688,-2.1689 0,-2.8378 0.6689,-0.6689 2.169,0.6689 2.8379,0 0.6688,-0.6689 -0.6689,-2.1689 0,-2.8378 0.6688,-0.6689 2.1689,0.6689 2.8378,0 0.9455,-0.9456 -0.9456,-4.7301 0,-5.6756 0.6688,-0.6689 2.1689,0.6689 2.8378,0 1.4189,-1.4189 -1.4189,-7.0946 0,-8.5135 2.2184,-2.2183 4.9368,2.4684 5.6756,2.8379 1.6921,0.846 4.3379,-1.3378 5.6756,0 0.6689,0.6688 -0.6689,2.1689 0,2.8378 0.6689,0.6688 2.1689,-0.6689 2.8378,0 0.6689,0.6688 -0.6689,2.1689 0,2.8378 0.9462,0.9461 4.7295,-0.9462 5.6756,0 0.6689,0.6689 -0.6688,2.1689 0,2.8378 0.6689,0.6689 2.169,-0.6689 2.8379,0 0.6688,0.6689 -0.6689,2.1689 0,2.8378 0.6688,0.6689 2.1689,-0.6689 2.8378,0 0.6688,0.6689 -0.6689,2.1689 0,2.8378 0.6688,0.6689 2.1689,-0.6689 2.8378,0 0.6689,0.6689 -0.6689,2.1689 0,2.8378 0.6689,0.6689 2.1689,-0.6689 2.8378,0 0.6689,0.6689 -0.6689,2.169 0,2.8378 0.6689,0.6689 2.1689,-0.6688 2.8378,0 0.6689,0.6689 0.9459,2.8378 0,2.8378 -0.9459,0 0,-3.7837 0,-2.8378 0,28.0485 0,39.2305 0,56.7562 0,3.7838 0,7.5675 0,11.3513 0,0.9459 0,1.8919 0,2.8378 0,0.9459 0.9459,2.8378 0,2.8378 -0.9459,0 0,-3.7837 0,-2.8378 0,1.8919 0,3.7837 0,5.6756 0,0.946 -0.423,1.9918 0,2.8378 5.9051,11.8103 -0.1959,-3.0337 5.6756,2.8378 0.6689,0.6689 -0.6689,2.169 0,2.8379 0.6689,0.6688 1.9918,-0.4231 2.8378,0 1.1966,0.5982 1.6413,2.2395 2.8378,2.8378 0.8461,0.423 2.169,-0.6689 2.8379,0 0.6688,0.6688 -0.6689,2.1689 0,2.8378 0.6688,0.6689 2.1689,-0.6689 2.8378,0 0.6688,0.6689 -0.4231,1.9917 0,2.8378 0.5982,1.1965 2.2395,1.6413 2.8378,2.8378 0.423,0.8461 -0.6689,2.1689 0,2.8378 0.6689,0.6689 2.1689,-0.6689 2.8378,0 0.6689,0.6689 -0.6689,2.1689 0,2.8378 0.6689,0.6689 2.1689,-0.6689 2.8378,0 1.3378,1.3378 -1.3378,4.3379 0,5.6756 0.6689,0.6689 2.8378,-0.9459 2.8378,0 0,0.946 -2.8378,-0.9459 -2.8378,0 0,1.3378 2.2395,1.6413 2.8378,2.8379 0.423,0.846 -0.6689,2.1689 0,2.8378 0.6689,0.6688 2.1689,-0.6689 2.8378,0 0.6689,0.6688 0,1.8918 0,2.8378 0,0.9459 0.946,2.8378 0,2.8378 -0.9459,0 0,-3.7838 0,-2.8378 0,10.4053 0,20.8106 0,31.2159 0,0.9459 0,1.8919 0,2.8378 0,0.9459 0.6689,2.1689 0,2.8378 -0.6689,0.6689 -2.1689,-0.6689 -2.8378,0 -0.6689,0.6689 0,1.8919 0,2.8378 0,0.946 0,1.8919 0,2.8378 0,6.6216 0,13.2432 0,19.8647 0,0.9459 -0.6689,2.1689 0,2.8378 0.6689,0.6689 2.1689,-0.6689 2.8378,0 0.091,0.091 0,7.8252 0,8.5135 0,12.2971 0,24.5943 0,36.8915 0,0.9459 0,1.8919 0,2.8378 0,0.9459 -0.6689,2.1689 0,2.8378 0.6689,0.6689 2.169,-0.6689 2.8378,0 0.9465,0.9465 -0.9465,4.7291 0,5.6756 0.6689,0.6689 1.8919,0 2.8378,0 0,0.946 -0.6688,2.169 0,2.8378 0.6689,0.6689 2.169,-0.6688 2.8379,0 0.6688,0.6689 -0.4231,1.9918 0,2.8379 0.5982,1.1965 2.2395,1.6412 2.8378,2.8378 0.423,0.846 -0.6689,2.1689 0,2.8378 0.6688,0.6689 2.1689,-0.6689 2.8378,0 0.6689,0.6689 -0.6689,2.1689 0,2.8378 0.6689,0.6689 2.1689,-0.6689 2.8378,0 1.3377,1.3377 -1.3378,4.3379 0,5.6756 0.6689,0.6689 2.1689,-0.6689 2.8378,0 0.6689,0.6689 -0.6689,2.1689 0,2.8378 0.6689,0.6689 2.1689,-0.6689 2.8378,0 0.6689,0.6689 -0.6689,2.169 0,2.8378 0.6689,0.6689 2.1689,-0.6688 2.8378,0 0.6689,0.6689 -0.423,1.9918 0,2.8378 0.5983,1.1966 2.2396,1.6413 2.8378,2.8379 0.4231,0.846 -0.6688,2.1689 0,2.8378 0.6689,0.6688 2.169,-0.6689 2.8378,0 0.6689,0.6688 -0.6688,2.1689 0,2.8378 1.3378,1.3377 4.3379,-1.3378 5.6757,0 5.8715,5.8715 -8.9725,-0.2295 2.8378,5.6756 7.5675,0 -0.946,-0.9459 2.8378,2.8378 0.6689,0.6689 2.1689,-0.6689 2.8378,0 0.6689,0.6689 -0.6689,2.1689 0,2.8378 0.6689,0.6689 2.1689,-0.6689 2.8378,0 0.6689,0.6689 -0.6689,2.169 0,2.8378 0.6689,0.6689 2.1689,-0.6688 2.8378,0 0.6689,0.6689 -0.6689,2.169 0,2.8378 0.6689,0.6689 1.8919,0 2.8378,0 0.946,0 1.8919,0 2.8378,0 0.946,0 3.7838,0 2.8378,0 -1.8918,0 -7.5674,0 -5.6756,0 2.8378,0 5.8213,-0.8974 8.5135,0 0.8974,0.2992 -0.6689,2.169 0,2.8379 0.1142,0.1142 10.3091,0 11.3512,0 1.338,0 14.0604,-0.1287 14.1891,0 0.6688,0.6688 -0.6689,2.1689 0,2.8378 0.5801,0.5801 7.3882,-0.5626 8.5134,0 1.1965,0.5982 1.6413,2.2395 2.8378,2.8378 1.1252,0.5626 7.9333,-0.5802 8.5134,0 0.6689,0.6689 -0.6688,2.1689 0,2.8378 1.3378,1.3377 4.3379,-1.3378 5.6757,0 0.6688,0.6689 -0.6689,2.1689 0,2.8378 0.9461,0.9462 4.7294,-0.9462 5.6756,0 0.6689,0.6689 -0.6689,2.1689 0,2.8378 1.3377,1.3378 4.3378,-1.3377 5.6756,0 0.6689,0.6689 -0.6689,2.1689 0,2.8378 0.9462,0.9462 4.7295,-0.9461 5.6756,0 0.6689,0.6689 -0.6689,2.169 0,2.8378 0.6689,0.6689 2.169,-0.6688 2.8378,0 0.6689,0.6689 -0.6688,2.169 0,2.8378 0.6689,0.6689 1.9918,-0.423 2.8378,0 9.4119,9.4119 -2.6755,-1.3377 5.6757,2.8379 1.1965,0.5982 1.6412,2.2395 2.8378,2.8378 1.6921,0.846 4.3378,-1.3378 5.6756,0 0.6689,0.6688 -0.6689,2.1689 0,2.8378 1.3378,1.3377 4.3379,-1.3378 5.6756,0 0.6689,0.6689 -0.6689,2.1689 0,2.8378 1.3378,1.3377 4.3379,-1.3378 5.6756,0 0.6689,0.6689 -0.6688,2.1689 0,2.8378 0.6689,0.6689 1.8919,0 2.8378,0 0,0.9459 -0.6688,2.1689 0,2.8378 1.3378,1.3378 4.3379,-1.3378 5.6757,0 0.6688,0.6689 -0.6689,2.1689 0,2.8378 1.3377,1.3378 4.3378,-1.3377 5.6756,0 0.6689,0.6689 -0.6689,2.1689 0,2.8378 1.3377,1.3378 3.9835,-0.846 5.6756,0 3.939,1.9695 2.8378,5.0494 2.8378,8.5135 0,0.9459 -0.6689,2.1689 0,2.8378 0.6689,0.6688 2.169,-0.6689 2.8378,0 0.6689,0.6688 0,1.8918 0,2.8378 0,0.9459 0.946,2.8378 0,2.8378 -0.9459,0 0,-3.7838 0,-2.8378 0,1.8919 0,3.7837 0,5.6756 0,0.9459 0.946,2.8378 0,2.8378 -0.9459,0 0.946,-2.8378 0,-2.8378 -5.9051,0 -1.1418,3.9797 -2.8378,5.6756 -0.6689,0.6689 -2.1689,-0.6689 -2.8378,0 -0.6689,0.6689 0.6689,2.169 0,2.8378 -1.3377,1.3378 -4.3379,-1.3377 -5.6756,0 -0.6689,0.6689 0.6689,2.169 0,2.8378 -0.6689,0.6689 -2.1689,-0.6688 -2.8378,0 -0.6689,0.6689 0.6689,2.169 0,2.8379 -0.6689,0.6688 -2.169,-0.6689 -2.8378,0 -0.6689,0.6688 0.6688,2.1689 0,2.8378 -0.6689,0.6688 -2.169,-0.6689 -2.8378,0 -0.6689,0.6688 0.6688,2.1689 0,2.8378 -0.6689,0.6689 -2.169,-0.6689 -2.8379,0 -0.6688,0.6689 0.6689,2.1689 0,2.8378 -0.6688,0.6689 -2.1689,-0.6689 -2.8378,0 -0.6688,0.6689 0.6689,2.1689 0,2.8378 -0.947,0.9471 -4.7285,-0.9471 -5.6756,0 -0.6689,0.6689 0.6689,2.1689 0,2.8378 -1.3377,1.3378 -4.3378,-1.3377 -5.6756,0 -0.6689,0.6689 0.6689,2.1689 0,2.8378 -0.6689,0.6689 -2.1689,-0.6689 -2.8378,0 -0.6689,0.6689 0.6689,2.169 0,2.8378 -0.6689,0.6689 -2.1689,-0.6688 -2.8378,0 -0.6689,0.6689 0.6689,2.169 0,2.8378 -0.6689,0.6689 -1.9918,-0.423 -2.8378,0 -1.1966,0.5983 -1.6413,2.2396 -2.8378,2.8379 -1.0263,0.5131 -12.2153,0 -14.1891,0 -2.7973,0 -8.4729,0 -5.6756,0 17.6307,0 -11.5814,0 -14.1891,0 -3.7837,0 -7.5675,0 -11.3512,0 -0.946,0 -1.8919,0 -2.8378,0 -0.946,0 -2.8378,0.9459 -2.8378,0 0,-0.946 3.7837,0 2.8378,0 -1.8919,0 -3.7838,0 -5.6757,0 -0.9459,0 -2.8378,0.9459 -2.8378,0 0,-0.946 2.8378,-0.946 2.8378,0 0,1.3377 -1.6412,2.2395 -2.8378,2.8378 -0.846,0.423 -2.1689,-0.6689 -2.8378,0 -0.6689,0.6688 -0.9459,2.8378 0,2.8378 1.3378,0 2.8378,-4.1756 2.8378,-2.8378 0,2.1151 -2.1689,3.669 -2.8378,5.6756 -0.5982,1.7948 0,3.7837 0,5.6756 0,4.7297 0,9.4594 0,14.1891 0,0.9459 0.946,2.8378 0,2.8378 -4.0202,0 8.0405,-13.2431 0,2.8378 -0.423,0.8461 -2.1689,-0.6689 -2.8378,0 -0.6689,0.6689 0,1.8919 0,2.8378 0,1.278 -0.4318,7.6498 0,8.5134 0.5983,1.1966 2.2396,1.6413 2.8378,2.8378 0.8616,1.7232 -0.8616,15.3037 0,17.0269 0.5983,1.1965 2.2396,1.6413 2.8378,2.8378 0.4231,0.8461 0,1.8919 0,2.8378 0,5.6756 0,11.3513 0,17.0269 0,0.9459 0.6689,2.1689 0,2.8378 -0.6688,0.6689 -2.1689,-0.6689 -2.8378,0 -0.6689,0.6689 0.6689,2.1689 0,2.8378 -0.6689,0.6689 -2.1689,-0.6689 -2.8378,0 -1.3377,1.3378 0.8461,3.9835 0,5.6756 -0.5982,1.1966 -2.2395,1.6413 -2.8378,2.8378 -0.8461,1.6922 1.3378,4.3379 0,5.6757 -0.6689,0.6688 -2.1689,-0.6689 -2.8378,0 -1.4189,1.4189 1.4189,7.0945 0,8.5134 -0.6689,0.6689 -2.1689,-0.6689 -2.8378,0 -1.3378,1.3378 0.8461,3.9835 0,5.6756 -0.5983,1.1965 -2.2396,1.6413 -2.8378,2.8378 -0.4231,0.8461 0.6688,2.169 0,2.8378 -0.6689,0.6689 -2.169,-0.6688 -2.8378,0 -0.6689,0.6689 0.6688,2.169 0,2.8379 -0.6689,0.6688 -2.169,-0.6689 -2.8379,0 -0.6688,0.6688 0.6689,2.1689 0,2.8378 -0.6688,0.6688 -1.9917,-0.4231 -2.8378,0 -2.393,1.1965 -3.2825,4.4791 -5.6756,5.6756 -0.8461,0.423 -2.1689,-0.6689 -2.8378,0 -0.6689,0.6689 0.6689,2.1689 0,2.8378 -0.6689,0.6689 -2.1689,-0.6689 -2.8378,0 -0.6689,0.6689 0.6689,2.1689 0,2.8378 -1.4189,1.4189 -7.0945,-1.4189 -8.5134,0 -0.6689,0.6689 0.6688,2.1689 0,2.8378 -1.3378,1.3378 -4.3379,-1.3377 -5.6757,0 -0.6688,0.6689 0.6689,2.169 0,2.8378 -1.3377,1.3378 -4.3378,-1.3377 -5.6756,0 -0.6689,0.6689 0.6689,2.169 0,2.8378 -0.6689,0.6689 -2.1689,-0.6688 -2.8378,0 -0.6689,0.6689 0.6689,2.169 0,2.8379 -0.6689,0.6688 -2.1689,-0.6689 -2.8378,0 -0.6689,0.6688 0.6689,2.1689 0,2.8378 -0.6689,0.6688 -2.1689,-0.6689 -2.8378,0 -0.6689,0.6688 0.6689,2.1689 0,2.8378 -1.3378,1.3377 -4.3379,-1.3378 -5.6756,0 -0.6689,0.6689 0.6688,2.1689 0,2.8378 -0.6689,0.6689 -2.169,-0.6689 -2.8378,0 -0.6689,0.6689 0.6688,2.1689 0,2.8378 -0.6689,0.6689 -2.169,-0.6689 -2.8379,0 -0.6688,0.6689 0.6689,2.1689 0,2.8378 -0.6688,0.6689 -1.9917,-0.423 -2.8378,0 -1.1965,0.5983 -1.6413,2.2396 -2.8378,2.8378 -0.8461,0.4231 -2.1689,-0.6689 -2.8378,0 -0.6689,0.6689 0.6689,2.1689 0,2.8378 -0.6689,0.6689 -2.1689,-0.6689 -2.8378,0 -0.6689,0.6689 0.6689,2.169 0,2.8378 -0.6689,0.6689 -2.1689,-0.6688 -2.8378,0 -0.6689,0.6689 0.6689,2.169 0,2.8378 -0.6689,0.6689 -2.1689,-0.6688 -2.8378,0 -0.6689,0.6689 0.6689,2.169 0,2.8379 -0.9462,0.9461 -4.7295,-0.9462 -5.6756,0 -0.6689,0.6688 0.6688,2.1689 0,2.8378 -1.3378,1.3377 -4.3379,-1.3378 -5.6757,0 -0.6688,0.6688 0.6689,2.1689 0,2.8378 -0.947,0.9471 -4.7285,-0.9471 -5.6756,0 -0.6689,0.6689 0.6689,2.1689 0,2.8378 -0.6689,0.6689 -1.8919,0 -2.8378,0 -0.9459,0 -2.8378,0.9459 -2.8378,0 0,-0.9459 2.8378,-0.9459 2.8378,0 0,5.9051 -3.9797,1.1418 -5.6756,2.8378 -0.6689,0.6689 0.6689,2.1689 0,2.8378 -1.3378,1.3378 -4.3379,-1.3377 -5.6756,0 -0.091,0.091 0,7.8252 0,8.5134 0,0.946 0,3.7838 0,2.8379 0,-1.8919 -1.8919,-5.6757 0,-5.6757 3.2608,0 2.8378,6.4771 2.8378,8.5135 0,0.9459 -0.4231,1.9917 0,2.8378 0.3694,0.7388 5.0562,3.4572 2.8378,5.6756 -0.6689,0.6689 -2.169,-0.6689 -2.8378,0 -0.6689,0.6689 0.6688,2.1689 0,2.8378 -0.6689,0.6689 -1.8919,0 -2.8378,0 0,0.9459 0.6688,2.1689 0,2.8378 -0.6689,0.6689 -2.169,-0.6689 -2.8379,0 -0.6688,0.6689 0.6689,2.169 0,2.8378 -1.3377,1.3378 -4.3378,-1.3377 -5.6756,0 -0.6689,0.6689 0.6689,2.169 0,2.8378 -1.3377,1.3378 -4.3378,-1.3377 -5.6756,0 -0.6689,0.6689 0.6689,2.169 0,2.8379 -1.3378,1.3377 -4.3379,-1.3378 -5.6756,0 -0.6689,0.6688 0.6689,2.1689 0,2.8378 -0.6689,0.6688 -2.1689,-0.6689 -2.8378,0 -0.6689,0.6688 0.6689,2.1689 0,2.8378 -0.6689,0.6689 -1.8919,0 -2.8378,0 0,0.9459 0.6688,2.1689 0,2.8378 -0.6689,0.6689 -2.169,-0.6689 -2.8378,0 -0.6689,0.6689 0.6688,2.1689 0,2.8378 -0.6689,0.6689 -2.169,-0.6689 -2.8379,0 -0.9467,0.9467 0.9468,4.7289 0,5.6756 -0.6688,0.6689 -1.8918,0 -2.8378,0 0,0.946 0.6689,2.169 0,2.8378 -0.6688,0.6689 -2.1689,-0.6688 -2.8378,0 -1.3377,1.3378 1.3378,4.3379 0,5.6757 -0.6689,0.6688 -2.1689,-0.6689 -2.8378,0 -0.6689,0.6688 0,1.8918 0,2.8378 0,0.9459 0,1.8918 0,2.8378 0,10.4053 0,20.8106 0,31.2159 0,0.9459 0,1.8919 0,2.8378 0,0.9459 0.6689,2.1689 0,2.8378 -0.6689,0.6689 -2.1689,-0.6689 -2.8378,0 -5.8715,5.8715 8.9725,-0.2295 -2.8378,5.6756 -1.9602,0.9801 -13.1929,-0.9961 -14.1891,0 -0.6688,0.6689 0.6689,2.169 0,2.8378 -1.4189,1.419 -7.0945,-1.4189 -8.5134,0 -0.6689,0.6689 0.6689,2.169 0,2.8379 -1.3378,1.3377 -3.9835,-0.8461 -5.6756,0 -1.1965,0.5982 -1.6413,2.2395 -2.8378,2.8378 -1.6922,0.846 -3.9835,-0.8461 -5.6757,0 -1.1965,0.5982 -1.6412,2.2395 -2.8378,2.8378 -1.5394,0.7697 -10.5747,-0.7765 -11.3512,0 -0.6689,0.6689 0.6689,2.1689 0,2.8378 -0.6689,0.6689 -2.8378,0.9459 -2.8378,0 0,-0.9459 3.7837,0 2.8378,0 -1.8919,0 -3.9835,-0.8461 -5.6756,0 -0.8461,0.423 0.9459,2.8378 0,2.8378 -0.946,0 -0.946,-2.8378 0,-2.8378 1.3377,0 1.6413,2.2395 2.8378,2.8378 1.5395,0.7697 10.5747,-0.7765 11.3512,0 1.3378,1.3378 -1.3377,4.3379 0,5.6756 0.6689,0.6689 2.169,-0.6689 2.8378,0 0.6689,0.6689 -0.6688,2.169 0,2.8378 1.3378,1.3378 4.3379,-1.3377 5.6757,0 0.6688,0.6689 -0.6689,2.169 0,2.8378 0.6688,0.6689 2.1689,-0.6688 2.8378,0 1.3377,1.3378 -1.3378,4.3379 0,5.6757 0.6688,0.6688 2.1689,-0.6689 2.8378,0 0.6689,0.6688 -0.6689,2.1689 0,2.8378 0.6689,0.6689 2.1689,-0.6689 2.8378,0 0.2838,0.2838 0.2838,8.2296 0,8.5134 -0.6689,0.6689 -2.1689,-0.6689 -2.8378,0 -1.3378,1.3378 1.3377,4.3379 0,5.6756 -0.6689,0.6689 -2.169,-0.6688 -2.8378,0 -0.6689,0.6689 0.6688,2.169 0,2.8378 -1.4189,1.4189 -7.0946,-1.4189 -8.5135,0 -0.6688,0.6689 0.6689,2.169 0,2.8379 -0.6688,0.6688 -2.1689,-0.6689 -2.8378,0 -0.6689,0.6688 0.6689,2.1689 0,2.8378 -0.6689,0.6688 -1.8919,0 -2.8378,0 0,0.9459 0.6689,2.1689 0,2.8378 -1.3377,1.3377 -4.3379,-1.3378 -5.6756,0 -0.6689,0.6689 0.6689,2.1689 0,2.8378 -0.9462,0.9461 -4.7295,-0.9462 -5.6756,0 -0.6689,0.6689 0.6688,2.1689 0,2.8378 -0.6689,0.6689 -1.8919,0 -2.8378,0 -0.946,0 -3.7838,0 -2.8379,0 1.8919,0 7.5675,0 5.6757,0 -3.7838,0 -7.5675,0 -11.3513,0 -0.9459,0 -3.7837,0 -2.8378,0 1.8919,0 7.0134,1.3378 5.6756,0 -3.5149,-3.5149 -9.6884,-2.8378 -14.189,-2.8378 -2.7973,0 -8.4729,0 -5.6756,0 4.4958,0 11.0516,0.8461 0,-2.8378 -1.5646,-0.5215 -10.7446,0.6067 -11.3513,0 -0.6689,-0.6689 0.6689,-2.169 0,-2.8378 -1.3377,-1.3378 -3.9835,0.846 -5.6756,0 -1.1965,-0.5983 -1.6413,-2.2396 -2.8378,-2.8378 -1.6922,-0.8461 -4.3379,1.3377 -5.6756,0 -0.6689,-0.6689 0.6688,-2.169 0,-2.8379 -0.6689,-0.6688 -1.9918,0.4231 -2.8378,0 -1.1966,-0.5982 -1.6413,-2.2395 -2.8379,-2.8378 -0.846,-0.423 -2.1689,0.6689 -2.8378,0 -0.6688,-0.6688 0.6689,-2.1689 0,-2.8378 -0.6688,-0.6689 -2.1689,0.6689 -2.8378,0 -0.6689,-0.6689 0.4231,-1.9917 0,-2.8378 -0.5982,-1.1965 -2.2395,-1.6413 -2.8378,-2.8378 -0.423,-0.8461 0.6689,-2.1689 0,-2.8378 -0.6689,-0.6689 -2.1689,0.6689 -2.8378,0 -1.3378,-1.3378 1.3378,-4.3379 0,-5.6756 -0.6689,-0.6689 -2.1689,0.6688 -2.8378,0 -0.6689,-0.6689 0,-1.8919 0,-2.8378 0,-0.946 0,-1.8919 0,-2.8379 0,-7.5675 0,-15.1349 0,-22.7024 0,-0.946 0,-1.8919 0,-2.8379 0,-0.9459 0.6689,-2.1689 0,-2.8378 -0.6689,-0.6688 -2.1689,0.6689 -2.8378,0 -0.6689,-0.6688 0.6689,-2.1689 0,-2.8378 -0.6689,-0.6689 -2.169,0.6689 -2.8378,0 -0.6689,-0.6689 0.6688,-2.1689 0,-2.8378 -1.3378,-1.3377 -4.3379,1.3378 -5.6757,0 -0.6688,-0.6689 0.6689,-2.1689 0,-2.8378 -1.3377,-1.3378 -4.3378,1.3378 -5.6756,0 -0.6689,-0.6689 0.6689,-2.1689 0,-2.8378 -0.6689,-0.6689 -1.8919,0 -2.8378,0 -0.9459,0 -1.8919,0 -2.8378,0 -0.9459,0 -3.7837,0 -2.8378,0 1.8919,0 7.5675,0 5.6756,0 -2.8378,0 -5.6756,0 -8.5134,0 -0.946,0 -1.8919,0 -2.8378,0 -0.946,0 -2.169,-0.6689 -2.8378,0 -0.6689,0.6689 0.6688,2.1689 0,2.8378 -0.6829,0.6829 -10.6684,-0.6829 -11.3513,0 -0.6689,0.6689 0.6689,2.1689 0,2.8378 -0.1142,0.1142 -10.3091,0 -11.3512,0 -0.6883,0 -8.4222,-0.091 -8.5135,0 -0.6688,0.6689 0.6689,2.1689 0,2.8378 -1.3377,1.3378 -4.3378,-1.3377 -5.6756,0 -0.6689,0.6689 0.6689,2.169 0,2.8378 -1.4189,1.4189 -7.0945,-1.4189 -8.5134,0 -0.6689,0.6689 0.6689,2.169 0,2.8378 -0.8787,0.8788 -13.3103,-0.8787 -14.1891,0 -0.6688,0.6689 0.6689,2.169 0,2.8379 -1.4189,1.4189 -7.0945,-1.4189 -8.5134,0 -0.6689,0.6688 0.6689,2.1689 0,2.8378 -1.4189,1.4189 -7.0945,-1.4189 -8.5134,0 -0.6689,0.6688 0.6688,2.1689 0,2.8378 -1.4189,1.4189 -7.0946,-1.4189 -8.5135,0 -0.6688,0.6689 0.6689,2.1689 0,2.8378 -0.6688,0.6689 -2.1689,-0.6689 -2.8378,0 -0.6689,0.6689 0.6689,2.1689 0,2.8378 -0.6689,0.6689 -2.1689,-0.6689 -2.8378,0 -0.6689,0.6689 0.6689,2.1689 0,2.8378 -0.6689,0.6689 -2.1689,-0.6689 -2.8378,0 -0.6689,0.6689 0.6689,2.1689 0,2.8378 -0.6689,0.6689 -2.1689,-0.6689 -2.8378,0 -0.6689,0.6689 0.6689,2.169 0,2.8378 -0.6689,0.6689 -2.1689,-0.6688 -2.8378,0 -0.6689,0.6689 0,1.8919 0,2.8378 -0.946,0 -1.9918,-0.423 -2.8378,0 -11.8103,5.9052 3.0337,-0.1959 -2.8378,5.6757 -0.6689,0.6688 -2.8379,0.9459 -2.8379,0 0,-0.946 2.8379,-0.946 2.8379,0 0,0.915 -4.8873,4.0988 -5.6757,5.6756 -0.846,1.6921 1.3378,4.3379 0,5.6756 -0.6688,0.6689 -2.1689,-0.6689 -2.8378,0 -0.6689,0.6689 0.946,2.8378 0,2.8378 -4.0202,0 8.0405,-13.2431 0,2.8378 -0.423,0.8461 -2.1689,-0.6688 -2.8378,0 -0.4002,0.4002 -0.291,7.9313 0,8.5135 0.5983,1.1965 2.2396,1.6412 2.8378,2.8378 0.4231,0.846 -0.6689,2.1689 0,2.8378 0.6689,0.6689 2.169,-0.6689 2.8378,0 0.6689,0.6689 -0.6688,2.1689 0,2.8378 0.6689,0.6689 2.169,-0.6689 2.8378,0 0.6689,0.6689 -0.6688,2.1689 0,2.8378 0.6689,0.6689 2.169,-0.6689 2.8379,0 0.6688,0.6689 -0.6689,2.1689 0,2.8378 1.4189,1.4189 7.0945,-1.4189 8.5134,0 0.6689,0.6689 -0.6689,2.1689 0,2.8378 1.3377,1.3378 4.3379,-1.3377 5.6756,0 0.6689,0.6689 -0.6689,2.169 0,2.8378 1.3378,1.3378 3.9835,-0.846 5.6756,0 1.1966,0.5983 1.6413,2.2396 2.8378,2.8378 0.8461,0.4231 2.169,-0.6688 2.8379,0 0.6688,0.6689 -0.6689,2.169 0,2.8379 0.6688,0.6688 2.1689,-0.6689 2.8378,0 0.6688,0.6688 -0.6689,2.1689 0,2.8378 1.3377,1.3377 4.3378,-1.3378 5.6756,0 0.6689,0.6688 -0.6689,2.1689 0,2.8378 0.6689,0.6689 2.1689,-0.6689 2.8378,0 0.6689,0.6689 -0.6689,2.1689 0,2.8378 1.3378,1.3377 4.3379,-1.3378 5.6756,0 0.6689,0.6689 -0.6689,2.1689 0,2.8378 7.5675,0 -0.9459,-0.9459 2.8378,2.8378 0.6689,0.6689 2.169,-0.6689 2.8378,0 0.6689,0.6689 -0.6688,2.1689 0,2.8378 1.3378,1.3378 4.3379,-1.3377 5.6757,0 0.6688,0.6689 0,1.8919 0,2.8378 0,0.946 0,1.8919 0,2.8378 -28.2833,1e-4 -3.1624,-2.6755 -14.1891,2.8379 -1.6921,0.846 -4.3379,-1.3378 -5.6756,0 -0.6689,0.6688 0.6689,2.1689 0,2.8378 -1.4189,1.4189 -7.0945,-1.4189 -8.5134,0 -0.6689,0.6688 0.6688,2.1689 0,2.8378 -1.3378,1.3377 -4.3379,-1.3378 -5.6757,0 -0.6688,0.6689 0.6689,2.1689 0,2.8378 -0.6688,0.6689 -2.1689,-0.6689 -2.8378,0 -0.6689,0.6689 0.6689,2.1689 0,2.8378 -0.6689,0.6689 -2.1689,-0.6689 -2.8378,0 -0.6689,0.6689 0.6689,2.1689 0,2.8378 -0.6689,0.6689 -2.1689,-0.6689 -2.8378,0 -0.6689,0.6689 0.6689,2.1689 0,2.8378 -1.3378,1.3378 -4.3379,-1.3377 -5.6756,0 -0.6689,0.6689 0.6689,2.169 0,2.8378 -1.4189,1.4189 -7.0945,-1.4189 -8.5135,0 -0.6688,0.6689 0.6689,2.169 0,2.8378 -0.6688,0.6689 -1.8918,0 -2.8378,0 -0.9459,0 -1.8918,0 -2.8378,0 -7.5675,0 -15.135,0 -22.7025,0 -11.3512,0 -22.7024,0 -34.0537,0 -3.7837,0 -7.5675,0 -11.3512,0 -2.7973,0 -8.4729,0 -5.6757,0 1.8919,0 5.6757,1.8919 5.6757,0 0,-7.8143 -6.4771,-0.8014 -8.5135,-2.8378 -0.6688,-0.6688 -0.9459,-2.8378 0,-2.8378 0.946,0 0,3.7838 0,2.8378 0,-2.8378 0,-5.6756 0,-8.5134 0,-1.0421 0.1142,-11.237 0,-11.3512 -0.6688,-0.6689 -2.1689,0.6688 -2.8378,0 -0.6689,-0.6689 0.6689,-2.169 0,-2.8379 -1.3377,-1.3377 -4.3378,1.3378 -5.6756,0 -0.6689,-0.6688 0.6689,-2.1689 0,-2.8378 -0.6689,-0.6688 -1.8919,0 -2.8378,0 -0.9459,0 -1.8919,0 -2.8378,0 -7.5675,0 0.9459,0.946 -2.8378,-2.8378 -0.6689,-0.6689 -1.8919,0 -2.8378,0 -0.946,0 -1.8919,0 -2.8379,0 -1.0421,0 -11.237,0.1142 -11.3512,0 -0.6689,-0.6689 0.6689,-2.1689 0,-2.8378 -1.4189,-1.4189 -7.0945,1.4189 -8.5134,0 -0.6689,-0.6689 0.6688,-2.1689 0,-2.8378 -1.3378,-1.3378 -4.3379,1.3378 -5.6757,0 -0.6688,-0.6689 0.6689,-2.1689 0,-2.8378 -1.3377,-1.3378 -4.3378,1.3377 -5.6756,0 -0.6689,-0.6689 0.6689,-2.1689 0,-2.8378 -0.6689,-0.6689 -2.1689,0.6689 -2.8378,0 -0.6689,-0.6689 0.6689,-2.169 0,-2.8378 -0.9461,-0.9462 -4.7295,0.9461 -5.6756,0 -0.6689,-0.6689 0.6689,-2.169 0,-2.8378 -0.6689,-0.6689 -2.1689,0.6688 -2.8378,0 -0.6689,-0.6689 0.6689,-2.169 0,-2.8379 -1.3378,-1.3377 -4.3379,1.3378 -5.6756,0 -0.6689,-0.6688 0,-1.8918 0,-2.8378 0,-1.4839 -0.3731,-10.605 0,-11.3512 0.5982,-1.1965 2.2395,-1.6413 2.8378,-2.8378 0.846,-1.6922 -1.3378,-4.3379 0,-5.6756 0.6689,-0.6689 2.1689,0.6688 2.8378,0 0.9465,-0.9465 -0.9465,-4.7292 0,-5.6757 0.6689,-0.6688 2.1689,0.6689 2.8378,0 0.9456,-0.9455 -0.9456,-4.73 0,-5.6756 0.6689,-0.6689 2.1689,0.6689 2.8378,0 1.3378,-1.3377 -1.3378,-4.3378 0,-5.6756 0.6689,-0.6689 2.1689,0.6689 2.8378,0 0.9465,-0.9465 -0.9465,-4.7291 0,-5.6756 0.6689,-0.6689 2.1689,0.6689 2.8378,0 0.6689,-0.6689 0,-1.8919 0,-2.8378 0,-0.6883 -0.091,-8.4222 0,-8.5135 0.6689,-0.6688 1.8919,0 2.8378,0 3.3037,-22.2072 -10.587,-2.0736 -14.189,-5.6756 -0.6689,-0.6689 0.6689,-2.1689 0,-2.8378 -0.6689,-0.6689 -1.9918,0.423 -2.8378,0 -2.3931,-1.1965 -3.2826,-4.4791 -5.6756,-5.6756 -0.8461,-0.4231 -2.169,0.6689 -2.8379,0 -0.6688,-0.6689 0.6689,-2.169 0,-2.8378 -0.6688,-0.6689 -2.1689,0.6688 -2.8378,0 -0.6688,-0.6689 0.4231,-1.9918 0,-2.8378 -0.5982,-1.1966 -1.8918,-1.8919 -2.8378,-2.8379 -0.9459,-0.9459 -1.6413,-2.2395 -2.8378,-2.8378 -0.8461,-0.423 -2.1689,0.6689 -2.8378,0 -0.6689,-0.6688 0.6689,-2.1689 0,-2.8378 -1.3378,-1.3377 -4.3379,1.3378 -5.6756,0 -0.6689,-0.6689 0.6689,-2.1689 0,-2.8378 -0.6689,-0.6689 -1.8919,0 -2.8378,0 0,-0.9459 0.6688,-2.1689 0,-2.8378 -1.3378,-1.3378 -4.3379,1.3378 -5.6757,0 -0.6688,-0.6689 0.6689,-2.1689 0,-2.8378 -0.6688,-0.6689 -1.9917,0.423 -2.8378,0 -1.1965,-0.5983 -1.6413,-2.2396 -2.8378,-2.8378 -0.8461,-0.4231 -2.1689,0.6689 -2.8378,0 -0.6689,-0.6689 0.6689,-2.169 0,-2.8378 -0.6689,-0.6689 -1.9917,0.423 -2.8378,0 -1.1965,-0.5983 -1.6413,-2.2396 -2.8378,-2.8378 -0.8461,-0.4231 -2.1689,0.6688 -2.8378,0 -0.6689,-0.6689 0.6689,-2.169 0,-2.8379 -1.3378,-1.3377 -3.9835,0.8461 -5.6756,0 -1.1966,-0.5982 -1.6413,-2.2395 -2.8379,-2.8378 -0.846,-0.423 -2.1689,0.6689 -2.8378,0 -0.091,-0.091 0,-7.8252 0,-8.5134 0,-6.6216 0,-13.2431 0,-19.8647 0,-0.9459 -0.6688,-2.1689 0,-2.8378 0.6689,-0.6689 2.169,0.6689 2.8378,0 0.091,-0.091 0,-7.8252 0,-8.5134 0,-7.5675 0,-15.135 0,-22.7025 0,-0.9459 0,-1.8919 0,-2.8378 0,-0.9459 -0.6688,-2.1689 0,-2.8378 0.6689,-0.6689 2.169,0.6689 2.8379,0 0.6688,-0.6689 0,-1.8919 0,-2.8378 0,-4.7297 0,-9.4594 0,-14.1891 0,-5.6756 0,-11.3512 0,-17.0269 0,-0.9459 0.6688,-2.1689 0,-2.8378 -0.6689,-0.6688 -2.169,0.6689 -2.8379,0 -0.6688,-0.6688 0,-1.8918 0,-2.8378 0,-0.9459 0,-3.7837 0,-2.8378 0,1.8919 0,7.5675 0,5.6756 0,-26.4862 2.8379,-2.8378 -2.8378,-8.5134 -0.6688,-0.6689 0.6689,-2.1689 0,-2.8378 -0.6688,-0.6689 -2.1689,0.6689 -2.8378,0 -0.6689,-0.6689 0.6689,-2.1689 0,-2.8378 -0.6689,-0.6689 -2.1689,0.6689 -2.8378,0 -0.6689,-0.6689 0.6689,-2.1689 0,-2.8378 -0.6689,-0.6689 -2.1689,0.6689 -2.8378,0 -0.6689,-0.6689 0.6689,-2.169 0,-2.8378 -0.6689,-0.6689 -2.1689,0.6688 -2.8378,0 -0.6689,-0.6689 0.6689,-2.169 0,-2.8378 -0.6689,-0.6689 -2.1689,0.6688 -2.8378,0 -0.6689,-0.6689 0,-1.8919 0,-2.8379 0,-0.9459 0,-1.8918 0,-2.8378 0,-0.9459 -0.946,-2.8378 0,-2.8378 0.9459,0 0,3.7838 0,2.8378 0,-2.8378 0,-5.6756 0,-8.5134 0,-0.9459 -0.6689,-2.1689 0,-2.8378 0.6689,-0.6689 2.1689,0.6689 2.8378,0 1.3377,-1.3378 -1.3378,-4.3379 0,-5.6756 0.6689,-0.6689 2.1689,0.6688 2.8378,0 0.6689,-0.6689 -0.423,-1.9918 0,-2.8378 0.5983,-1.1966 2.2396,-1.6413 2.8378,-2.8379 0.423,-0.846 -0.6689,-2.1689 0,-2.8378 7.5675,0 -0.9459,0.946 2.8378,-2.8378 0.6689,-0.6689 2.169,0.6689 2.8378,0 0.6689,-0.6689 -0.6688,-2.1689 0,-2.8378 0.6689,-0.6689 1.9918,0.423 2.8378,0 11.8103,-5.9051 -3.0337,0.1959 2.8379,-5.6756 0.6688,-0.6689 2.1689,0.6689 2.8378,0 0.6688,-0.6689 -0.6689,-2.1689 0,-2.8378 0.6688,-0.6689 2.1689,0.6689 2.8378,0 0.6689,-0.6689 -0.946,-2.8378 0,-2.8378 0.9459,0 0,3.7837 0,2.8378 0,-1.1218 0.606,-12.9771 0,-14.1891 -0.5983,-1.1965 -2.2396,-1.6413 -2.8378,-2.8378 -0.7698,-1.5395 0.7765,-10.5747 0,-11.3512 -0.6689,-0.6689 -2.169,0.6688 -2.8378,0 -0.091,-0.091 0,-7.8252 0,-8.5135 0,-0.9459 -0.946,-2.8378 0,-2.8378 0.9459,0 0,3.7838 0,2.8378 0,-1.8918 -0.8461,-3.9834 0,-5.6756 0.423,-0.8461 2.1689,0.6689 2.8378,0 0.6688,-0.6689 -0.6689,-2.1689 0,-2.8378 7.5675,0 -0.946,0.9459 2.8378,-2.8378 0.6689,-0.6689 2.1689,0.6689 2.8378,0 0.6689,-0.6689 -0.6689,-2.1689 0,-2.8378 0.9471,-0.9471 4.7285,0.9471 5.6756,0 0.6689,-0.6689 -0.6689,-2.169 0,-2.8378 0.6689,-0.6689 2.1689,0.6688 2.8378,0 0.6689,-0.6689 -0.6689,-2.169 0,-2.8378 0.6689,-0.6689 2.169,0.6688 2.8378,0 0.6689,-0.6689 -0.6688,-2.169 0,-2.8379 0.6689,-0.6688 2.169,0.6689 2.8378,0 0.6689,-0.6688 -0.6688,-2.1689 0,-2.8378 1.3378,-1.3377 4.3379,1.3378 5.6757,0 0.6688,-0.6688 -0.6689,-2.1689 0,-2.8378 1.3377,-1.3377 4.3378,1.3378 5.6756,0 0.6689,-0.6689 -0.6689,-2.1689 0,-2.8378 1.3377,-1.3377 4.3379,1.3378 5.6756,0 0.6689,-0.6689 -0.6689,-2.1689 0,-2.8378 0.6689,-0.6689 1.9917,0.423 2.8378,0 1.1965,-0.5983 1.6413,-2.2395 2.8378,-2.8378 0.8461,-0.423 2.169,0.6689 2.8378,0 0.6689,-0.6689 -0.6688,-2.1689 0,-2.8378 0.6689,-0.6689 2.169,0.6689 2.8379,0 0.6688,-0.6689 -0.6689,-2.1689 0,-2.8378 0.6688,-0.6689 2.1689,0.6689 2.8378,0 0.6688,-0.6689 -0.6689,-2.169 0,-2.8378 0.6688,-0.6689 1.9917,0.423 2.8378,0 2.393,-1.1966 3.2825,-4.4791 5.6756,-5.6757 0.8461,-0.423 2.1689,0.6689 2.8378,0 0.6689,-0.6688 -0.6689,-2.1689 0,-2.8378 0.6689,-0.6688 2.1689,0.6689 2.8378,0 0.6689,-0.6688 -0.6689,-2.1689 0,-2.8378 0.6689,-0.6689 1.9918,0.4231 2.8378,0 3.7748,-1.8874 1.9008,-3.7882 5.6756,-5.6756 0.8461,-0.423 2.169,0.6689 2.8379,0 0.6688,-0.6689 -0.6689,-2.1689 0,-2.8378 0.6688,-0.6689 2.1689,0.6689 2.8378,0 0.6688,-0.6689 -0.6689,-2.1689 0,-2.8378 0.6688,-0.6689 2.1689,0.6689 2.8378,0 0.6689,-0.6689 -0.6689,-2.169 0,-2.8378 0.6689,-0.6689 2.1689,0.6688 2.8378,0 0.6689,-0.6689 -0.6689,-2.169 0,-2.8378 0.6689,-0.6689 2.1689,0.6688 2.8378,0 0.6689,-0.6689 -0.6689,-2.169 0,-2.8379 7.5675,0 -0.9459,0.946 2.8378,-2.8378 0.6689,-0.6688 2.1689,0.6689 2.8378,0 1.3378,-1.3377 -0.846,-3.9834 0,-5.6756 0.5983,-1.1965 2.2396,-1.6413 2.8378,-2.8378 0.4231,-0.8461 0,-1.8919 0,-2.8378 0,-0.9459 0,-1.8919 0,-2.8378 0,-0.946 0,-3.7838 0,-2.8378 0,1.8918 0,7.5675 0,5.6756 0,-2.8378 0,-5.6756 0,-8.5134 0,-0.946 0.6689,-2.169 0,-2.8379 -0.6688,-0.6688 -2.1689,0.6689 -2.8378,0 -0.6689,-0.6688 0,-1.8918 0,-2.8378 0,-4.7296 0,-9.4593 0,-14.189 0,-0.946 0.6689,-2.169 0,-2.8378 -0.6689,-0.6689 -2.1689,0.6688 -2.8378,0 -1.4189,-1.4189 1.4189,-7.0946 0,-8.5135 -0.6689,-0.6688 -2.1689,0.6689 -2.8378,0 -0.6689,-0.6688 0,-1.8918 0,-2.8378 0,-1.0421 -0.1142,-11.237 0,-11.3512 0.6689,-0.6689 2.1689,0.6689 2.8378,0 0.091,-0.091 0,-7.8252 0,-8.5134 0,-0.946 0,-1.8919 0,-2.8379 0,-12.4863 0,21.9458 0,-5.6756 0,-0.9459 0,-1.8919 0,-2.8378 0,-0.9459 0.6689,-2.1689 0,-2.8378 -0.6689,-0.6689 -2.1689,0.6689 -2.8378,0 -0.6689,-0.6689 0.6689,-2.1689 0,-2.8378 -0.6689,-0.6689 -2.1689,0.6689 -2.8378,0 -0.6689,-0.6689 0,-1.8919 0,-2.8378 -0.9459,0 -1.9917,0.423 -2.8378,0 -1.1965,-0.5983 -1.8919,-1.8919 -2.8378,-2.8378 -0.946,-0.946 -2.2396,-1.6413 -2.8378,-2.8378 -0.4231,-0.8461 0.6688,-2.169 0,-2.8379 -0.6689,-0.6688 -2.169,0.6689 -2.8379,0 -0.9467,-0.9467 0.9468,-4.7288 0,-5.6756 -0.6688,-0.6689 -1.8918,0 -2.8378,0 0,-0.9459 0.6689,-2.1689 0,-2.8378 -0.6688,-0.6689 -1.8918,0 -2.8378,0 -0.9459,0 -1.8918,0 -2.8378,0 -1.8935,0 -3.7821,0 -5.6756,0 -0.9459,0 -2.8378,0.9459 -2.8378,0 0,-0.9459 3.7837,0 2.8378,0 -6.6216,0 -5.6756,1.8919 -5.6756,-2.8378"
         style="fill:none;fill-rule:evenodd;stroke:#000000;stroke-width:1px;stroke-linecap:butt;stroke-linejoin:miter;stroke-opacity:1" />
    </g>
  </g>
</svg>
